ISO-10303-21;
HEADER;
FILE_DESCRIPTION (( 'STEP AP214' ),
    '1' );
FILE_NAME ('N1004_structure.STEP',
    '2026-01-16T02:03:56',
    ( '' ),
    ( '' ),
    'SwSTEP 2.0',
    'SolidWorks 2024',
    '' );
FILE_SCHEMA (( 'AUTOMOTIVE_DESIGN' ));
ENDSEC;

DATA;
#1 = DIRECTION ( 'NONE',  ( 1.000000000000000000, 0.000000000000000000, 0.000000000000000000 ) ) ;
#2 = VERTEX_POINT ( 'NONE', #191 ) ;
#3 = ORIENTED_EDGE ( 'NONE', *, *, #73, .F. ) ;
#4 = LINE ( 'NONE', #982, #975 ) ;
#5 = AXIS2_PLACEMENT_3D ( 'NONE', #369, #190, #210 ) ;
#6 = VECTOR ( 'NONE', #814, 1000.000000000000000 ) ;
#7 = VECTOR ( 'NONE', #361, 1000.000000000000000 ) ;
#8 = LINE ( 'NONE', #655, #396 ) ;
#9 = ORIENTED_EDGE ( 'NONE', *, *, #118, .F. ) ;
#10 = AXIS2_PLACEMENT_3D ( 'NONE', #475, #720, #1042 ) ;
#11 = ORIENTED_EDGE ( 'NONE', *, *, #787, .F. ) ;
#12 = CARTESIAN_POINT ( 'NONE',  ( 1.250000000000004663, 24.96873044429760569, -29.99999999999982592 ) ) ;
#13 = LINE ( 'NONE', #771, #410 ) ;
#14 = ORIENTED_EDGE ( 'NONE', *, *, #390, .T. ) ;
#15 = DIRECTION ( 'NONE',  ( 0.000000000000000000, 6.982962677686266711E-15, -1.000000000000000000 ) ) ;
#16 = VECTOR ( 'NONE', #1028, 1000.000000000000000 ) ;
#17 = VERTEX_POINT ( 'NONE', #622 ) ;
#18 = DIRECTION ( 'NONE',  ( 0.000000000000000000, 6.982962677686266711E-15, -1.000000000000000000 ) ) ;
#19 = VECTOR ( 'NONE', #909, 1000.000000000000000 ) ;
#20 = CARTESIAN_POINT ( 'NONE',  ( -10.00000000000000178, 3.491481338843132850E-13, -65.00000000000000000 ) ) ;
#21 = ORIENTED_EDGE ( 'NONE', *, *, #563, .F. ) ;
#22 = DIRECTION ( 'NONE',  ( 0.000000000000000000, -8.759319517086517175E-15, 1.000000000000000000 ) ) ;
#23 = EDGE_CURVE ( 'NONE', #918, #199, #119, .T. ) ;
#24 = ORIENTED_EDGE ( 'NONE', *, *, #281, .T. ) ;
#25 = CARTESIAN_POINT ( 'NONE',  ( 0.000000000000000000, 1.249999999999581002, 45.00000000000001421 ) ) ;
#26 = CARTESIAN_POINT ( 'NONE',  ( 1.250000000000004663, -24.96873044429792188, 44.99999999999981526 ) ) ;
#27 =( LENGTH_UNIT ( ) NAMED_UNIT ( * ) SI_UNIT ( .MILLI., .METRE. ) );
#28 = CARTESIAN_POINT ( 'NONE',  ( 0.000000000000000000, 1.047444401652940007E-13, -30.00000000000000000 ) ) ;
#29 = ADVANCED_FACE ( 'NONE', ( #45 ), #277, .T. ) ;
#30 = ORIENTED_EDGE ( 'NONE', *, *, #555, .F. ) ;
#31 = LINE ( 'NONE', #363, #717 ) ;
#32 = CIRCLE ( 'NONE', #65, 49.98437255783053246 ) ;
#33 = CARTESIAN_POINT ( 'NONE',  ( 9.999999999999998224, 22.91287847477937234, -39.99999999999983658 ) ) ;
#34 = CARTESIAN_POINT ( 'NONE',  ( -10.45272255270411321, 22.71035499989787709, -37.00122356783624156 ) ) ;
#35 = CARTESIAN_POINT ( 'NONE',  ( -20.00000000000000000, -14.99999999999989875, -30.00000000000010303 ) ) ;
#36 = VERTEX_POINT ( 'NONE', #287 ) ;
#37 = DIRECTION ( 'NONE',  ( 0.000000000000000000, 6.982962677686266711E-15, -1.000000000000000000 ) ) ;
#38 = ADVANCED_FACE ( 'NONE', ( #925 ), #695, .T. ) ;
#39 = FACE_OUTER_BOUND ( 'NONE', #963, .T. ) ;
#40 = DIRECTION ( 'NONE',  ( 0.000000000000000000, 6.982962677686267499E-15, -1.000000000000000000 ) ) ;
#41 = CARTESIAN_POINT ( 'NONE',  ( 1.250000000000004663, -1.048474030146183795E-12, 135.1474486605139589 ) ) ;
#42 = ORIENTED_EDGE ( 'NONE', *, *, #171, .F. ) ;
#43 = CARTESIAN_POINT ( 'NONE',  ( -10.00000000000000178, -22.91287847477909523, -30.00000000000015987 ) ) ;
#44 = EDGE_CURVE ( 'NONE', #36, #131, #756, .T. ) ;
#45 = FACE_OUTER_BOUND ( 'NONE', #176, .T. ) ;
#46 = VECTOR ( 'NONE', #536, 1000.000000000000000 ) ;
#47 = CARTESIAN_POINT ( 'NONE',  ( 10.45757799522172782, 22.70811802772216126, -36.98608046456797638 ) ) ;
#48 = ORIENTED_EDGE ( 'NONE', *, *, #864, .T. ) ;
#49 = CARTESIAN_POINT ( 'NONE',  ( 1.250000000000004663, 24.96873044429708344, 45.00000000000017764 ) ) ;
#50 = AXIS2_PLACEMENT_3D ( 'NONE', #815, #731, #823 ) ;
#51 = DIRECTION ( 'NONE',  ( 0.000000000000000000, 6.982962677686266711E-15, -1.000000000000000000 ) ) ;
#52 = EDGE_CURVE ( 'NONE', #161, #199, #948, .T. ) ;
#53 = VERTEX_POINT ( 'NONE', #938 ) ;
#54 = CARTESIAN_POINT ( 'NONE',  ( -9.999999999999998224, 22.91287847477930484, -29.99999999999984013 ) ) ;
#55 = DIRECTION ( 'NONE',  ( 1.000000000000000000, 0.000000000000000000, 0.000000000000000000 ) ) ;
#56 = MANIFOLD_SOLID_BREP ( 'Body-Move/Copy1', #660 ) ;
#57 = CARTESIAN_POINT ( 'NONE',  ( -1.249999999999995559, -24.96873044429739963, -30.00000000000017408 ) ) ;
#58 = CARTESIAN_POINT ( 'NONE',  ( 0.000000000000000000, 1.047444401652940007E-13, -30.00000000000000000 ) ) ;
#59 = EDGE_CURVE ( 'NONE', #17, #249, #604, .T. ) ;
#60 = ORIENTED_EDGE ( 'NONE', *, *, #457, .T. ) ;
#61 = PRODUCT_DEFINITION_CONTEXT ( 'detailed design', #96, 'design' ) ;
#62 = CARTESIAN_POINT ( 'NONE',  ( 11.17802233047720861, -22.36257499133350279, -35.27660401967403914 ) ) ;
#63 = CARTESIAN_POINT ( 'NONE',  ( -15.02800557802878423, 19.98204773229073083, -31.31794645983903536 ) ) ;
#64 = SPHERICAL_SURFACE ( 'NONE', #158, 50.00000000000000711 ) ;
#65 = AXIS2_PLACEMENT_3D ( 'NONE', #836, #931, #365 ) ;
#66 = AXIS2_PLACEMENT_3D ( 'NONE', #1046, #719, #1052 ) ;
#67 = CIRCLE ( 'NONE', #98, 24.99999999999955591 ) ;
#68 = CARTESIAN_POINT ( 'NONE',  ( 11.75274981885096715, -22.06631634913396667, -34.33269199355043355 ) ) ;
#69 = AXIS2_PLACEMENT_3D ( 'NONE', #554, #870, #154 ) ;
#70 = DIRECTION ( 'NONE',  ( 0.000000000000000000, 6.982962677686266711E-15, -1.000000000000000000 ) ) ;
#71 = CARTESIAN_POINT ( 'NONE',  ( 0.000000000000000000, -4.189777606611760026E-13, 45.00000000000000000 ) ) ;
#72 = CARTESIAN_POINT ( 'NONE',  ( -10.71099896338734325, -22.58968930935986563, -36.27763671505023524 ) ) ;
#73 = EDGE_CURVE ( 'NONE', #896, #1007, #335, .T. ) ;
#74 = LINE ( 'NONE', #381, #932 ) ;
#75 = AXIS2_PLACEMENT_3D ( 'NONE', #304, #400, #144 ) ;
#76 = ORIENTED_EDGE ( 'NONE', *, *, #764, .F. ) ;
#77 = CARTESIAN_POINT ( 'NONE',  ( -10.00000000000000178, 22.91287847478000117, -129.9999999999998295 ) ) ;
#78 = CARTESIAN_POINT ( 'NONE',  ( 24.96873044429750266, -1.249999999999895195, -30.00000000000001066 ) ) ;
#79 = ORIENTED_EDGE ( 'NONE', *, *, #281, .F. ) ;
#80 = UNCERTAINTY_MEASURE_WITH_UNIT (LENGTH_MEASURE( 1.000000000000000082E-05 ), #27, 'distance_accuracy_value', 'NONE');
#81 = AXIS2_PLACEMENT_3D ( 'NONE', #881, #373, #302 ) ;
#82 = ORIENTED_EDGE ( 'NONE', *, *, #1057, .T. ) ;
#83 = DIRECTION ( 'NONE',  ( -0.000000000000000000, -6.982962677686266711E-15, 1.000000000000000000 ) ) ;
#84 = FACE_OUTER_BOUND ( 'NONE', #185, .T. ) ;
#85 = EDGE_LOOP ( 'NONE', ( #1055, #759, #106, #940 ) ) ;
#86 = EDGE_CURVE ( 'NONE', #125, #522, #859, .T. ) ;
#87 = CARTESIAN_POINT ( 'NONE',  ( -17.51938513531455399, -17.85006891456093214, -30.29560880326248551 ) ) ;
#88 = DIRECTION ( 'NONE',  ( 1.000000000000000000, 0.000000000000000000, 0.000000000000000000 ) ) ;
#89 = ORIENTED_EDGE ( 'NONE', *, *, #602, .F. ) ;
#90 = EDGE_CURVE ( 'NONE', #862, #981, #643, .T. ) ;
#91 = CARTESIAN_POINT ( 'NONE',  ( -11.36471361680209036, -22.26867111367963403, -34.94338858844421480 ) ) ;
#92 = CARTESIAN_POINT ( 'NONE',  ( -24.96873044429750266, -1.249999999999895195, -30.00000000000001066 ) ) ;
#93 = ORIENTED_EDGE ( 'NONE', *, *, #390, .F. ) ;
#94 = ORIENTED_EDGE ( 'NONE', *, *, #639, .F. ) ;
#95 = CARTESIAN_POINT ( 'NONE',  ( -20.00000000000000000, 22.91287847477937234, -39.99999999999983658 ) ) ;
#96 = APPLICATION_CONTEXT ( 'automotive_design' ) ;
#97 = VECTOR ( 'NONE', #842, 1000.000000000000000 ) ;
#98 = AXIS2_PLACEMENT_3D ( 'NONE', #288, #198, #111 ) ;
#99 = LINE ( 'NONE', #92, #866 ) ;
#100 = ORIENTED_EDGE ( 'NONE', *, *, #1019, .F. ) ;
#101 = AXIS2_PLACEMENT_3D ( 'NONE', #726, #894, #168 ) ;
#102 = FACE_OUTER_BOUND ( 'NONE', #429, .T. ) ;
#103 = DIRECTION ( 'NONE',  ( 1.000000000000000000, 0.000000000000000000, 0.000000000000000000 ) ) ;
#104 = CARTESIAN_POINT ( 'NONE',  ( 0.000000000000000000, -4.189777606611760026E-13, 45.00000000000000000 ) ) ;
#105 = PLANE ( 'NONE',  #509 ) ;
#106 = ORIENTED_EDGE ( 'NONE', *, *, #811, .T. ) ;
#107 = DIRECTION ( 'NONE',  ( 0.000000000000000000, 6.982962677686266711E-15, -1.000000000000000000 ) ) ;
#108 = CARTESIAN_POINT ( 'NONE',  ( 0.000000000000000000, -4.189777606611760026E-13, 45.00000000000000000 ) ) ;
#109 = EDGE_LOOP ( 'NONE', ( #969, #213 ) ) ;
#110 = ADVANCED_FACE ( 'NONE', ( #561 ), #228, .T. ) ;
#111 = DIRECTION ( 'NONE',  ( 1.000000000000000000, 0.000000000000000000, 0.000000000000000000 ) ) ;
#112 = ORIENTED_EDGE ( 'NONE', *, *, #499, .F. ) ;
#113 = FACE_OUTER_BOUND ( 'NONE', #640, .T. ) ;
#114 = CARTESIAN_POINT ( 'NONE',  ( -24.99999999999977973, 1.016828231674256472E-13, -30.00000000000000000 ) ) ;
#115 = CIRCLE ( 'NONE', #741, 25.00000000000000000 ) ;
#116 = CARTESIAN_POINT ( 'NONE',  ( -10.08781882418732856, 22.87512283139886549, -38.47591518564118473 ) ) ;
#117 = DIRECTION ( 'NONE',  ( -1.000000000000000000, -0.000000000000000000, -0.000000000000000000 ) ) ;
#118 = EDGE_CURVE ( 'NONE', #439, #482, #882, .T. ) ;
#119 = CIRCLE ( 'NONE', #207, 55.00000000000000711 ) ;
#120 = ORIENTED_EDGE ( 'NONE', *, *, #1031, .T. ) ;
#121 = CARTESIAN_POINT ( 'NONE',  ( 0.000000000000000000, 1.047444401652940007E-13, -30.00000000000000000 ) ) ;
#122 = DIRECTION ( 'NONE',  ( 0.000000000000000000, 6.982962677686266711E-15, -1.000000000000000000 ) ) ;
#123 = CARTESIAN_POINT ( 'NONE',  ( 0.000000000000000000, -4.189777606611760026E-13, 45.00000000000000000 ) ) ;
#124 = DIRECTION ( 'NONE',  ( 1.000000000000000000, 0.000000000000000000, 0.000000000000000000 ) ) ;
#125 = VERTEX_POINT ( 'NONE', #704 ) ;
#126 = EDGE_CURVE ( 'NONE', #170, #1007, #259, .T. ) ;
#127 = DIRECTION ( 'NONE',  ( -0.000000000000000000, -6.982962677686266711E-15, 1.000000000000000000 ) ) ;
#128 = CIRCLE ( 'NONE', #854, 15.00000000000000000 ) ;
#129 = DIRECTION ( 'NONE',  ( 1.000000000000000000, 0.000000000000000000, 0.000000000000000000 ) ) ;
#130 = DIRECTION ( 'NONE',  ( 1.000000000000000000, 0.000000000000000000, 0.000000000000000000 ) ) ;
#131 = VERTEX_POINT ( 'NONE', #953 ) ;
#132 = CARTESIAN_POINT ( 'NONE',  ( 0.000000000000000000, 1.249999999998951505, 135.1474486605139589 ) ) ;
#133 = CARTESIAN_POINT ( 'NONE',  ( 1.250000000000004663, -24.96873044429739963, -30.00000000000017408 ) ) ;
#134 = DIRECTION ( 'NONE',  ( 1.000000000000000000, 0.000000000000000000, 0.000000000000000000 ) ) ;
#135 = ORIENTED_EDGE ( 'NONE', *, *, #73, .T. ) ;
#136 = DIRECTION ( 'NONE',  ( 1.000000000000000000, 0.000000000000000000, 0.000000000000000000 ) ) ;
#137 = AXIS2_PLACEMENT_3D ( 'NONE', #573, #966, #661 ) ;
#138 = PLANE ( 'NONE',  #617 ) ;
#139 = EDGE_CURVE ( 'NONE', #737, #470, #865, .T. ) ;
#140 = CARTESIAN_POINT ( 'NONE',  ( -10.00000000000000178, 22.91287847478000117, -129.9999999999998295 ) ) ;
#141 = VERTEX_POINT ( 'NONE', #231 ) ;
#142 = CARTESIAN_POINT ( 'NONE',  ( -10.00000000000000178, -22.91287847477839890, -130.0000000000001705 ) ) ;
#143 = CARTESIAN_POINT ( 'NONE',  ( 1.250000000000004663, -4.189777606611760026E-13, 45.00000000000000000 ) ) ;
#144 = DIRECTION ( 'NONE',  ( 0.000000000000000000, -6.982962677686267499E-15, 1.000000000000000000 ) ) ;
#145 = CARTESIAN_POINT ( 'NONE',  ( 9.999999999999452882, -22.91287847477903838, -39.22979435000740267 ) ) ;
#146 = CARTESIAN_POINT ( 'NONE',  ( -11.17802233047721217, 22.36257499133379412, -35.27660401967374071 ) ) ;
#147 = LINE ( 'NONE', #223, #248 ) ;
#148 = VECTOR ( 'NONE', #257, 1000.000000000000000 ) ;
#149 = CIRCLE ( 'NONE', #529, 24.99999999999977973 ) ;
#150 = ADVANCED_FACE ( 'NONE', ( #464 ), #221, .T. ) ;
#151 = ORIENTED_EDGE ( 'NONE', *, *, #413, .F. ) ;
#152 = CARTESIAN_POINT ( 'NONE',  ( 49.98437255783052535, 1.249999999999581002, 45.00000000000001421 ) ) ;
#153 = CIRCLE ( 'NONE', #101, 50.00000000000000711 ) ;
#154 = DIRECTION ( 'NONE',  ( 1.000000000000000000, 0.000000000000000000, 0.000000000000000000 ) ) ;
#155 = EDGE_CURVE ( 'NONE', #444, #571, #74, .T. ) ;
#156 = CARTESIAN_POINT ( 'NONE',  ( -10.00000000000000178, -22.91287847477902773, -40.00000000000015632 ) ) ;
#157 = CARTESIAN_POINT ( 'NONE',  ( -1.249999999999995559, -4.189777606611760026E-13, 45.00000000000000000 ) ) ;
#158 = AXIS2_PLACEMENT_3D ( 'NONE', #71, #860, #395 ) ;
#159 = ORIENTED_EDGE ( 'NONE', *, *, #595, .F. ) ;
#160 = CIRCLE ( 'NONE', #586, 50.00000000000000711 ) ;
#161 = VERTEX_POINT ( 'NONE', #314 ) ;
#162 = DIRECTION ( 'NONE',  ( 0.000000000000000000, -5.206605838286018612E-15, 1.000000000000000000 ) ) ;
#163 = DIRECTION ( 'NONE',  ( 0.000000000000000000, 6.982962677686266711E-15, -1.000000000000000000 ) ) ;
#164 = ADVANCED_FACE ( 'NONE', ( #874 ), #1022, .T. ) ;
#165 = VERTEX_POINT ( 'NONE', #796 ) ;
#166 = ORIENTED_EDGE ( 'NONE', *, *, #59, .T. ) ;
#167 = CARTESIAN_POINT ( 'NONE',  ( -9.999999999999987566, -22.91287847477879325, -39.22846348499341929 ) ) ;
#168 = DIRECTION ( 'NONE',  ( 1.000000000000000000, 0.000000000000000000, 0.000000000000000000 ) ) ;
#169 = AXIS2_PLACEMENT_3D ( 'NONE', #123, #211, #129 ) ;
#170 = VERTEX_POINT ( 'NONE', #626 ) ;
#171 = EDGE_CURVE ( 'NONE', #199, #161, #746, .T. ) ;
#172 = CARTESIAN_POINT ( 'NONE',  ( 9.999999999999998224, 5.568000440161803349E-13, -95.00000000000000000 ) ) ;
#173 = CARTESIAN_POINT ( 'NONE',  ( -24.96873044429728594, 1.249999999999267475, 88.30127018922220827 ) ) ;
#174 = APPLICATION_PROTOCOL_DEFINITION ( 'draft international standard', 'automotive_design', 1998, #611 ) ;
#175 = EDGE_LOOP ( 'NONE', ( #911, #727, #120 ) ) ;
#176 = EDGE_LOOP ( 'NONE', ( #79, #765, #649 ) ) ;
#177 = PLANE ( 'NONE',  #844 ) ;
#178 = CARTESIAN_POINT ( 'NONE',  ( 19.99999999999999645, 22.91287847477937234, -39.99999999999983658 ) ) ;
#179 = ORIENTED_EDGE ( 'NONE', *, *, #563, .T. ) ;
#180 = ORIENTED_EDGE ( 'NONE', *, *, #800, .F. ) ;
#181 = DIRECTION ( 'NONE',  ( 1.000000000000000000, 0.000000000000000000, 0.000000000000000000 ) ) ;
#182 = ADVANCED_FACE ( 'NONE', ( #399 ), #138, .F. ) ;
#183 = AXIS2_PLACEMENT_3D ( 'NONE', #132, #863, #398 ) ;
#184 = CARTESIAN_POINT ( 'NONE',  ( 50.00000000000000711, -4.189777606611760026E-13, 45.00000000000000000 ) ) ;
#185 = EDGE_LOOP ( 'NONE', ( #718, #973, #419, #507, #840, #76 ) ) ;
#186 = AXIS2_PLACEMENT_3D ( 'NONE', #780, #51, #802 ) ;
#187 = ORIENTED_EDGE ( 'NONE', *, *, #985, .F. ) ;
#188 = CARTESIAN_POINT ( 'NONE',  ( -10.00000000000000178, 4.538925740496073109E-13, -80.00000000000000000 ) ) ;
#189 = EDGE_CURVE ( 'NONE', #1030, #131, #8, .T. ) ;
#190 = DIRECTION ( 'NONE',  ( 0.000000000000000000, -1.000000000000000000, -6.982962677686266711E-15 ) ) ;
#191 = CARTESIAN_POINT ( 'NONE',  ( 24.99999999999977973, -2.706996547296896446E-13, 45.00000000000000000 ) ) ;
#192 = CARTESIAN_POINT ( 'NONE',  ( 13.93689095809869016, 20.75723747140084896, -32.04038870231432412 ) ) ;
#193 = ORIENTED_EDGE ( 'NONE', *, *, #707, .F. ) ;
#194 = CYLINDRICAL_SURFACE ( 'NONE', #437, 24.99999999999977973 ) ;
#195 = DIRECTION ( 'NONE',  ( 1.000000000000000000, 0.000000000000000000, 0.000000000000000000 ) ) ;
#196 = DIRECTION ( 'NONE',  ( -0.000000000000000000, 1.000000000000000000, 6.982962677686266711E-15 ) ) ;
#197 = ADVANCED_FACE ( 'NONE', ( #263 ), #900, .F. ) ;
#198 = DIRECTION ( 'NONE',  ( 0.000000000000000000, 6.982962677686266711E-15, -1.000000000000000000 ) ) ;
#199 = VERTEX_POINT ( 'NONE', #566 ) ;
#200 = DIRECTION ( 'NONE',  ( 0.000000000000000000, -1.000000000000000000, -6.982962677686266711E-15 ) ) ;
#201 = CARTESIAN_POINT ( 'NONE',  ( 0.000000000000000000, -4.189777606611760026E-13, 45.00000000000000000 ) ) ;
#202 = VECTOR ( 'NONE', #852, 1000.000000000000000 ) ;
#203 = AXIS2_PLACEMENT_3D ( 'NONE', #1026, #225, #869 ) ;
#204 = VECTOR ( 'NONE', #783, 1000.000000000000000 ) ;
#205 = ORIENTED_EDGE ( 'NONE', *, *, #189, .T. ) ;
#206 = LINE ( 'NONE', #351, #7 ) ;
#207 = AXIS2_PLACEMENT_3D ( 'NONE', #293, #837, #40 ) ;
#208 = ORIENTED_EDGE ( 'NONE', *, *, #356, .T. ) ;
#209 = LINE ( 'NONE', #672, #623 ) ;
#210 = DIRECTION ( 'NONE',  ( 1.000000000000000000, 0.000000000000000000, 0.000000000000000000 ) ) ;
#211 = DIRECTION ( 'NONE',  ( 0.000000000000000000, 6.982962677686266711E-15, -1.000000000000000000 ) ) ;
#212 = DIRECTION ( 'NONE',  ( 0.000000000000000000, 6.982962677686266711E-15, -1.000000000000000000 ) ) ;
#213 = ORIENTED_EDGE ( 'NONE', *, *, #548, .T. ) ;
#214 = CARTESIAN_POINT ( 'NONE',  ( -10.00000000000000178, -22.91287847477902773, -40.00000000000015632 ) ) ;
#215 = VECTOR ( 'NONE', #589, 1000.000000000000000 ) ;
#216 = CARTESIAN_POINT ( 'NONE',  ( -12.64297035140174330, 21.57362388879390735, -33.18874439512791952 ) ) ;
#217 =( NAMED_UNIT ( * ) PLANE_ANGLE_UNIT ( ) SI_UNIT ( $, .RADIAN. ) );
#218 = ORIENTED_EDGE ( 'NONE', *, *, #683, .T. ) ;
#219 = ADVANCED_FACE ( 'NONE', ( #580, #735 ), #585, .F. ) ;
#220 = CARTESIAN_POINT ( 'NONE',  ( 11.35838197093645263, -22.27187923204648357, -34.95441247918597583 ) ) ;
#221 = PLANE ( 'NONE',  #186 ) ;
#222 = AXIS2_PLACEMENT_3D ( 'NONE', #201, #453, #103 ) ;
#223 = CARTESIAN_POINT ( 'NONE',  ( -20.00000000000000000, 1.047444401652940007E-13, -30.00000000000000000 ) ) ;
#224 = ORIENTED_EDGE ( 'NONE', *, *, #434, .F. ) ;
#225 = DIRECTION ( 'NONE',  ( -0.000000000000000000, -6.982962677686266711E-15, 1.000000000000000000 ) ) ;
#226 = CIRCLE ( 'NONE', #137, 55.00000000000000711 ) ;
#227 = PRODUCT_DEFINITION ( 'UNKNOWN', '', #753, #61 ) ;
#228 = PLANE ( 'NONE',  #579 ) ;
#229 = LINE ( 'NONE', #1039, #204 ) ;
#230 = DIRECTION ( 'NONE',  ( -0.000000000000000000, -6.982962677686266711E-15, 1.000000000000000000 ) ) ;
#231 = CARTESIAN_POINT ( 'NONE',  ( -10.00000000000000178, -22.91287847477909523, -30.00000000000015987 ) ) ;
#232 = CARTESIAN_POINT ( 'NONE',  ( 10.00000000000000711, -22.91287847477909523, -30.00000000000015987 ) ) ;
#233 = EDGE_CURVE ( 'NONE', #352, #322, #242, .T. ) ;
#234 = UNCERTAINTY_MEASURE_WITH_UNIT (LENGTH_MEASURE( 1.000000000000000082E-05 ), #299, 'distance_accuracy_value', 'NONE');
#235 = ORIENTED_EDGE ( 'NONE', *, *, #1057, .F. ) ;
#236 = PLANE ( 'NONE',  #81 ) ;
#237 = CARTESIAN_POINT ( 'NONE',  ( -18.03830236948215671, 17.32601321129831362, -30.18093030597449200 ) ) ;
#238 = CARTESIAN_POINT ( 'NONE',  ( -10.00000000000000178, 22.91287847478000117, -129.9999999999998295 ) ) ;
#239 = AXIS2_PLACEMENT_3D ( 'NONE', #25, #760, #358 ) ;
#240 = EDGE_CURVE ( 'NONE', #301, #53, #977, .T. ) ;
#241 = CARTESIAN_POINT ( 'NONE',  ( -49.98437255783052535, 1.249999999999581002, 45.00000000000001421 ) ) ;
#242 = LINE ( 'NONE', #78, #513 ) ;
#243 = EDGE_LOOP ( 'NONE', ( #94, #1024, #816 ) ) ;
#244 = ORIENTED_EDGE ( 'NONE', *, *, #902, .F. ) ;
#245 = CARTESIAN_POINT ( 'NONE',  ( -19.05668644110008358, -16.19909563521354201, -30.03150673618529964 ) ) ;
#246 = EDGE_CURVE ( 'NONE', #986, #261, #153, .T. ) ;
#247 = DIRECTION ( 'NONE',  ( 0.000000000000000000, -1.000000000000000000, -6.982962677686266711E-15 ) ) ;
#248 = VECTOR ( 'NONE', #954, 1000.000000000000000 ) ;
#249 = VERTEX_POINT ( 'NONE', #333 ) ;
#250 = ORIENTED_EDGE ( 'NONE', *, *, #602, .T. ) ;
#251 = CARTESIAN_POINT ( 'NONE',  ( -20.00000000000000000, -14.99999999999989875, -30.00000000000010303 ) ) ;
#252 = CARTESIAN_POINT ( 'NONE',  ( 9.999999999999998224, 22.91287847478000117, -129.9999999999998295 ) ) ;
#253 =( NAMED_UNIT ( * ) SI_UNIT ( $, .STERADIAN. ) SOLID_ANGLE_UNIT ( ) );
#254 = VERTEX_POINT ( 'NONE', #1053 ) ;
#255 = CIRCLE ( 'NONE', #66, 24.99999999999977973 ) ;
#256 = ORIENTED_EDGE ( 'NONE', *, *, #139, .T. ) ;
#257 = DIRECTION ( 'NONE',  ( 0.000000000000000000, -1.000000000000000000, -6.982962677686266711E-15 ) ) ;
#258 = DIRECTION ( 'NONE',  ( 0.000000000000000000, -1.000000000000000000, -6.982962677686266711E-15 ) ) ;
#259 = CIRCLE ( 'NONE', #69, 25.00000000000000000 ) ;
#260 = EDGE_LOOP ( 'NONE', ( #825, #922, #159, #545 ) ) ;
#261 = VERTEX_POINT ( 'NONE', #324 ) ;
#262 = DIRECTION ( 'NONE',  ( 0.000000000000000000, 1.000000000000000000, 6.982962677686266711E-15 ) ) ;
#263 = FACE_OUTER_BOUND ( 'NONE', #945, .T. ) ;
#264 = ORIENTED_EDGE ( 'NONE', *, *, #86, .T. ) ;
#265 = EDGE_CURVE ( 'NONE', #862, #762, #330, .T. ) ;
#266 = CIRCLE ( 'NONE', #905, 25.00000000000000000 ) ;
#267 = EDGE_LOOP ( 'NONE', ( #898, #456, #166 ) ) ;
#268 = CYLINDRICAL_SURFACE ( 'NONE', #667, 10.00000000000000178 ) ;
#269 = CARTESIAN_POINT ( 'NONE',  ( 0.000000000000000000, -4.189777606611760026E-13, 45.00000000000000000 ) ) ;
#270 = ORIENTED_EDGE ( 'NONE', *, *, #44, .F. ) ;
#271 = CARTESIAN_POINT ( 'NONE',  ( 3.367778697655222096E-15, -8.030407079339206970E-13, 100.0000000000000000 ) ) ;
#272 = PRODUCT_RELATED_PRODUCT_CATEGORY ( 'part', '', ( #438 ) ) ;
#273 = ORIENTED_EDGE ( 'NONE', *, *, #265, .T. ) ;
#274 = CARTESIAN_POINT ( 'NONE',  ( -9.999999999999998224, 22.91287847477930484, -29.99999999999984013 ) ) ;
#275 = VECTOR ( 'NONE', #230, 1000.000000000000000 ) ;
#276 = SPHERICAL_SURFACE ( 'NONE', #508, 50.00000000000000711 ) ;
#277 = SPHERICAL_SURFACE ( 'NONE', #798, 55.00000000000000711 ) ;
#278 = CARTESIAN_POINT ( 'NONE',  ( 15.03353059810908476, 19.97787803032745302, -31.31481471990785792 ) ) ;
#279 = VERTEX_POINT ( 'NONE', #347 ) ;
#280 = DIRECTION ( 'NONE',  ( 0.000000000000000000, 6.982962677686266711E-15, -1.000000000000000000 ) ) ;
#281 = EDGE_CURVE ( 'NONE', #918, #161, #226, .T. ) ;
#282 = LINE ( 'NONE', #43, #202 ) ;
#283 = FILL_AREA_STYLE ('',( #376 ) ) ;
#284 = CARTESIAN_POINT ( 'NONE',  ( 19.99999999999999645, 15.00000000000011191, -29.99999999999989342 ) ) ;
#285 = ORIENTED_EDGE ( 'NONE', *, *, #491, .F. ) ;
#286 = CARTESIAN_POINT ( 'NONE',  ( 24.99999999999977973, 1.047444401652940007E-13, -30.00000000000000000 ) ) ;
#287 = CARTESIAN_POINT ( 'NONE',  ( -1.249999999999995559, 49.98437255783010613, 45.00000000000034817 ) ) ;
#288 = CARTESIAN_POINT ( 'NONE',  ( 0.000000000000000000, -7.213489142889236080E-13, 88.30127018922219406 ) ) ;
#289 = ORIENTED_EDGE ( 'NONE', *, *, #427, .F. ) ;
#290 = DIRECTION ( 'NONE',  ( 1.000000000000000000, 0.000000000000000000, 0.000000000000000000 ) ) ;
#291 = LINE ( 'NONE', #447, #46 ) ;
#292 = AXIS2_PLACEMENT_3D ( 'NONE', #850, #124, #455 ) ;
#293 = CARTESIAN_POINT ( 'NONE',  ( 0.000000000000000000, -4.189777606611760026E-13, 45.00000000000000000 ) ) ;
#294 = DIRECTION ( 'NONE',  ( 0.000000000000000000, -6.982962677686266711E-15, 1.000000000000000000 ) ) ;
#295 = VECTOR ( 'NONE', #247, 1000.000000000000000 ) ;
#296 = ORIENTED_EDGE ( 'NONE', *, *, #757, .F. ) ;
#297 = CARTESIAN_POINT ( 'NONE',  ( -10.00000000000000178, 4.538925740496073109E-13, -80.00000000000000000 ) ) ;
#298 = ORIENTED_EDGE ( 'NONE', *, *, #1031, .F. ) ;
#299 =( LENGTH_UNIT ( ) NAMED_UNIT ( * ) SI_UNIT ( .MILLI., .METRE. ) );
#300 = EDGE_CURVE ( 'NONE', #362, #646, #889, .T. ) ;
#301 = VERTEX_POINT ( 'NONE', #173 ) ;
#302 = DIRECTION ( 'NONE',  ( -1.000000000000000000, -0.000000000000000000, 0.000000000000000000 ) ) ;
#303 = CARTESIAN_POINT ( 'NONE',  ( -15.86053888644959819, 19.33742586661101015, -30.87530874414183302 ) ) ;
#304 = CARTESIAN_POINT ( 'NONE',  ( -1.249999999999995559, -4.189777606611760026E-13, 45.00000000000000000 ) ) ;
#305 = ORIENTED_EDGE ( 'NONE', *, *, #707, .T. ) ;
#306 = ADVANCED_FACE ( 'NONE', ( #84 ), #422, .F. ) ;
#307 = CARTESIAN_POINT ( 'NONE',  ( 9.999999999999449329, -22.91287847477902773, -40.00000000000015632 ) ) ;
#308 = DIRECTION ( 'NONE',  ( 1.000000000000000000, 0.000000000000000000, 0.000000000000000000 ) ) ;
#309 = AXIS2_PLACEMENT_3D ( 'NONE', #647, #887, #162 ) ;
#310 = DIRECTION ( 'NONE',  ( 0.000000000000000000, -6.982962677686266711E-15, 1.000000000000000000 ) ) ;
#311 = COLOUR_RGB ( '',0.7921568627450980005, 0.8196078431372548767, 0.9333333333333333481 ) ;
#312 = CARTESIAN_POINT ( 'NONE',  ( 15.86053888644959464, -19.33742586661079343, -30.87530874414209237 ) ) ;
#313 = ADVANCED_FACE ( 'NONE', ( #497 ), #747, .F. ) ;
#314 = CARTESIAN_POINT ( 'NONE',  ( 55.00000000000000711, -4.189777606611760026E-13, 45.00000000000000000 ) ) ;
#315 = DIRECTION ( 'NONE',  ( 0.000000000000000000, 6.982962677686266711E-15, -1.000000000000000000 ) ) ;
#316 = CARTESIAN_POINT ( 'NONE',  ( 14.20546664220669619, -20.57467106829643555, -31.84335771784667202 ) ) ;
#317 = CARTESIAN_POINT ( 'NONE',  ( -14.75202264291523413, 20.18638650264992762, -31.48142243017526454 ) ) ;
#318 = EDGE_CURVE ( 'NONE', #981, #254, #729, .T. ) ;
#319 = CARTESIAN_POINT ( 'NONE',  ( 0.000000000000000000, -4.189777606611760026E-13, 45.00000000000000000 ) ) ;
#320 = FACE_OUTER_BOUND ( 'NONE', #1015, .T. ) ;
#321 = CARTESIAN_POINT ( 'NONE',  ( -13.13841407584974874, 21.27870237959115229, -32.69329285426137233 ) ) ;
#322 = VERTEX_POINT ( 'NONE', #983 ) ;
#323 = DIRECTION ( 'NONE',  ( -1.776356839400250267E-15, -6.984444971004052145E-15, 1.000000000000000000 ) ) ;
#324 = CARTESIAN_POINT ( 'NONE',  ( 1.250000000000004663, -49.98437255783093747, 44.99999999999965183 ) ) ;
#325 = DIRECTION ( 'NONE',  ( 0.000000000000000000, 0.000000000000000000, 1.000000000000000000 ) ) ;
#326 = ORIENTED_EDGE ( 'NONE', *, *, #383, .T. ) ;
#327 = ADVANCED_FACE ( 'NONE', ( #906 ), #972, .F. ) ;
#328 = VERTEX_POINT ( 'NONE', #819 ) ;
#329 = DIRECTION ( 'NONE',  ( 0.000000000000000000, -6.982962677686266711E-15, 1.000000000000000000 ) ) ;
#330 = LINE ( 'NONE', #157, #680 ) ;
#331 = ORIENTED_EDGE ( 'NONE', *, *, #838, .T. ) ;
#332 = DIRECTION ( 'NONE',  ( 1.000000000000000000, 0.000000000000000000, 0.000000000000000000 ) ) ;
#333 = CARTESIAN_POINT ( 'NONE',  ( 19.99999999999999645, 15.00000000000011191, -29.99999999999989342 ) ) ;
#334 = ORIENTED_EDGE ( 'NONE', *, *, #171, .T. ) ;
#335 = B_SPLINE_CURVE_WITH_KNOTS ( 'NONE', 3,
 ( #537, #525, #116, #448, #34, #366, #634, #146, #1038, #558, #393, #216, #321, #387, #949, #317, #63, #303, #943, #699, #237, #637, #715, #468 ),
 .UNSPECIFIED., .F., .F.,
 ( 4, 2, 2, 2, 2, 2, 2, 2, 2, 2, 2, 4 ),
 ( 0.000000000000000000, 0.002277627136900205532, 0.003416440705350309165, 0.004555254273800412798, 0.005694067842250516431, 0.006832881410700620065, 0.009110508547600837739, 0.01024932211605095525, 0.01138813568450107103, 0.01366576282140129737, 0.01594338995830152025, 0.01822101709520174834 ),
 .UNSPECIFIED. ) ;
#336 = CIRCLE ( 'NONE', #877, 24.99999999999977973 ) ;
#337 = VECTOR ( 'NONE', #511, 1000.000000000000000 ) ;
#338 = AXIS2_PLACEMENT_3D ( 'NONE', #58, #378, #1023 ) ;
#339 = ORIENTED_EDGE ( 'NONE', *, *, #383, .F. ) ;
#340 = CARTESIAN_POINT ( 'NONE',  ( -18.04628363363707777, -17.31761082041990463, -30.17942512981398551 ) ) ;
#341 = DIRECTION ( 'NONE',  ( -0.000000000000000000, -6.982962677686266711E-15, 1.000000000000000000 ) ) ;
#342 = EDGE_CURVE ( 'NONE', #254, #891, #99, .T. ) ;
#343 = STYLED_ITEM ( 'NONE', ( #454 ), #56 ) ;
#344 = EDGE_LOOP ( 'NONE', ( #677, #298, #3, #527 ) ) ;
#345 = ORIENTED_EDGE ( 'NONE', *, *, #574, .T. ) ;
#346 = CARTESIAN_POINT ( 'NONE',  ( 9.999999999999998224, 4.538925740496073109E-13, -80.00000000000000000 ) ) ;
#347 = CARTESIAN_POINT ( 'NONE',  ( 9.999999999999998224, 22.91287847478000117, -129.9999999999998295 ) ) ;
#348 = ORIENTED_EDGE ( 'NONE', *, *, #857, .T. ) ;
#349 = EDGE_CURVE ( 'NONE', #583, #891, #13, .T. ) ;
#350 = CIRCLE ( 'NONE', #835, 24.99999999999955591 ) ;
#351 = CARTESIAN_POINT ( 'NONE',  ( -10.00000000000000178, -22.91287847477839890, -130.0000000000001705 ) ) ;
#352 = VERTEX_POINT ( 'NONE', #596 ) ;
#353 = CARTESIAN_POINT ( 'NONE',  ( 0.000000000000000000, -4.189777606611760026E-13, 45.00000000000000000 ) ) ;
#354 = FACE_BOUND ( 'NONE', #515, .T. ) ;
#355 = CARTESIAN_POINT ( 'NONE',  ( 16.69979692697521045, 18.60793477367383986, -30.55591061412724585 ) ) ;
#356 = EDGE_CURVE ( 'NONE', #862, #439, #950, .T. ) ;
#357 = EDGE_LOOP ( 'NONE', ( #425, #744, #567 ) ) ;
#358 = DIRECTION ( 'NONE',  ( 8.881784197001251337E-16, -6.984444971004052145E-15, 1.000000000000000000 ) ) ;
#359 = LINE ( 'NONE', #433, #97 ) ;
#360 =( NAMED_UNIT ( * ) SI_UNIT ( $, .STERADIAN. ) SOLID_ANGLE_UNIT ( ) );
#361 = DIRECTION ( 'NONE',  ( -1.000000000000000000, 0.000000000000000000, 0.000000000000000000 ) ) ;
#362 = VERTEX_POINT ( 'NONE', #33 ) ;
#363 = CARTESIAN_POINT ( 'NONE',  ( 10.00000000000000711, 22.91287847477930484, -29.99999999999984013 ) ) ;
#364 = ADVANCED_FACE ( 'NONE', ( #848 ), #666, .T. ) ;
#365 = DIRECTION ( 'NONE',  ( 8.881784197001251337E-16, -6.984444971004052145E-15, 1.000000000000000000 ) ) ;
#366 = CARTESIAN_POINT ( 'NONE',  ( -10.70662779496200123, 22.59176297337910100, -36.28834271458519822 ) ) ;
#367 = ORIENTED_EDGE ( 'NONE', *, *, #377, .T. ) ;
#368 = CARTESIAN_POINT ( 'NONE',  ( 0.000000000000000000, -4.189777606611760026E-13, 45.00000000000000000 ) ) ;
#369 = CARTESIAN_POINT ( 'NONE',  ( 0.000000000000000000, -4.189777606611760026E-13, 45.00000000000000000 ) ) ;
#370 = DIRECTION ( 'NONE',  ( 0.000000000000000000, 1.000000000000000000, 6.982962677686266711E-15 ) ) ;
#371 = DIRECTION ( 'NONE',  ( 1.000000000000000000, 0.000000000000000000, 0.000000000000000000 ) ) ;
#372 = ORIENTED_EDGE ( 'NONE', *, *, #233, .T. ) ;
#373 = DIRECTION ( 'NONE',  ( 0.000000000000000000, -6.982962677686266711E-15, 1.000000000000000000 ) ) ;
#374 = CIRCLE ( 'NONE', #222, 50.00000000000000711 ) ;
#375 = CIRCLE ( 'NONE', #960, 15.00000000000000000 ) ;
#376 = FILL_AREA_STYLE_COLOUR ( '', #311 ) ;
#377 = EDGE_CURVE ( 'NONE', #254, #583, #32, .T. ) ;
#378 = DIRECTION ( 'NONE',  ( 0.000000000000000000, 6.982962677686266711E-15, -1.000000000000000000 ) ) ;
#379 = VERTEX_POINT ( 'NONE', #524 ) ;
#380 = CARTESIAN_POINT ( 'NONE',  ( 1.249999999999993561, -24.96873044429800714, 88.30127018922200932 ) ) ;
#381 = CARTESIAN_POINT ( 'NONE',  ( -10.00000000000000178, 5.568000440161803349E-13, -95.00000000000000000 ) ) ;
#382 = CARTESIAN_POINT ( 'NONE',  ( 10.34914623737138406, 22.75751032677884567, -37.35286391319737476 ) ) ;
#383 = EDGE_CURVE ( 'NONE', #999, #646, #608, .T. ) ;
#384 = ORIENTED_EDGE ( 'NONE', *, *, #469, .T. ) ;
#385 = AXIS2_PLACEMENT_3D ( 'NONE', #238, #134, #310 ) ;
#386 = DIRECTION ( 'NONE',  ( 1.000000000000000000, 0.000000000000000000, 0.000000000000000000 ) ) ;
#387 = CARTESIAN_POINT ( 'NONE',  ( -13.93383493758901892, 20.75929957341878307, -32.04267795595732338 ) ) ;
#388 = CARTESIAN_POINT ( 'NONE',  ( 11.18332432234084628, 22.35992858663822247, -35.26669223909470929 ) ) ;
#389 = ORIENTED_EDGE ( 'NONE', *, *, #811, .F. ) ;
#390 = EDGE_CURVE ( 'NONE', #624, #53, #359, .T. ) ;
#391 = FACE_OUTER_BOUND ( 'NONE', #769, .T. ) ;
#392 = CIRCLE ( 'NONE', #959, 24.99999999999977973 ) ;
#393 = CARTESIAN_POINT ( 'NONE',  ( -11.96765633125983186, 21.95089266265140893, -34.03248567420530435 ) ) ;
#394 = AXIS2_PLACEMENT_3D ( 'NONE', #297, #55, #937 ) ;
#395 = DIRECTION ( 'NONE',  ( 1.000000000000000000, 0.000000000000000000, 0.000000000000000000 ) ) ;
#396 = VECTOR ( 'NONE', #163, 1000.000000000000000 ) ;
#397 = EDGE_CURVE ( 'NONE', #328, #170, #995, .T. ) ;
#398 = DIRECTION ( 'NONE',  ( 0.000000000000000000, -6.982962677686266711E-15, 1.000000000000000000 ) ) ;
#399 = FACE_OUTER_BOUND ( 'NONE', #423, .T. ) ;
#400 = DIRECTION ( 'NONE',  ( -1.000000000000000000, -0.000000000000000000, -0.000000000000000000 ) ) ;
#401 = ORIENTED_EDGE ( 'NONE', *, *, #800, .T. ) ;
#402 = CARTESIAN_POINT ( 'NONE',  ( -10.00000000000000178, -22.91287847477839890, -130.0000000000001705 ) ) ;
#403 = AXIS2_PLACEMENT_3D ( 'NONE', #121, #107, #770 ) ;
#404 = DIRECTION ( 'NONE',  ( 1.000000000000000000, 0.000000000000000000, 0.000000000000000000 ) ) ;
#405 = DIRECTION ( 'NONE',  ( -0.000000000000000000, -1.000000000000000000, -6.982962677686266711E-15 ) ) ;
#406 = DIRECTION ( 'NONE',  ( 0.000000000000000000, 6.982962677686266711E-15, -1.000000000000000000 ) ) ;
#407 = EDGE_LOOP ( 'NONE', ( #979, #82, #285, #903, #913, #339 ) ) ;
#408 = ADVANCED_FACE ( 'NONE', ( #39 ), #276, .F. ) ;
#409 = CARTESIAN_POINT ( 'NONE',  ( 1.250000000000004663, -4.189777606611760026E-13, 45.00000000000000000 ) ) ;
#410 = VECTOR ( 'NONE', #603, 1000.000000000000000 ) ;
#411 = DIRECTION ( 'NONE',  ( 0.000000000000000000, 6.982962677686266711E-15, -1.000000000000000000 ) ) ;
#412 = ORIENTED_EDGE ( 'NONE', *, *, #888, .T. ) ;
#413 = EDGE_CURVE ( 'NONE', #737, #522, #374, .T. ) ;
#414 = ORIENTED_EDGE ( 'NONE', *, *, #787, .T. ) ;
#415 = CARTESIAN_POINT ( 'NONE',  ( -12.64942839514299777, -21.56979733736421778, -33.18216272552525226 ) ) ;
#416 = DIRECTION ( 'NONE',  ( 0.000000000000000000, 6.938893903907226800E-15, -1.000000000000000000 ) ) ;
#417 = PRODUCT_CONTEXT ( 'NONE', #611, 'mechanical' ) ;
#418 = ORIENTED_EDGE ( 'NONE', *, *, #985, .T. ) ;
#419 = ORIENTED_EDGE ( 'NONE', *, *, #970, .F. ) ;
#420 = CARTESIAN_POINT ( 'NONE',  ( -10.08812750137402503, -22.87501038206968929, -38.47028930520831835 ) ) ;
#421 = ADVANCED_FACE ( 'NONE', ( #989 ), #517, .F. ) ;
#422 = PLANE ( 'NONE',  #828 ) ;
#423 = EDGE_LOOP ( 'NONE', ( #691, #273, #587 ) ) ;
#424 = AXIS2_PLACEMENT_3D ( 'NONE', #618, #998, #839 ) ;
#425 = ORIENTED_EDGE ( 'NONE', *, *, #189, .F. ) ;
#426 = DIRECTION ( 'NONE',  ( 1.000000000000000000, 0.000000000000000000, 0.000000000000000000 ) ) ;
#427 = EDGE_CURVE ( 'NONE', #470, #131, #392, .T. ) ;
#428 = DIRECTION ( 'NONE',  ( 0.000000000000000000, 6.982962677686266711E-15, -1.000000000000000000 ) ) ;
#429 = EDGE_LOOP ( 'NONE', ( #657, #89, #384, #644 ) ) ;
#430 = DIRECTION ( 'NONE',  ( 1.000000000000000000, 0.000000000000000000, 0.000000000000000000 ) ) ;
#431 = VERTEX_POINT ( 'NONE', #1011 ) ;
#432 = CYLINDRICAL_SURFACE ( 'NONE', #988, 15.00000000000000000 ) ;
#433 = CARTESIAN_POINT ( 'NONE',  ( 0.000000000000000000, 1.249999999999581002, 45.00000000000001421 ) ) ;
#434 = EDGE_CURVE ( 'NONE', #856, #431, #291, .T. ) ;
#435 =( GEOMETRIC_REPRESENTATION_CONTEXT ( 3 ) GLOBAL_UNCERTAINTY_ASSIGNED_CONTEXT ( ( #234 ) ) GLOBAL_UNIT_ASSIGNED_CONTEXT ( ( #299, #217, #253 ) ) REPRESENTATION_CONTEXT ( 'NONE', 'WORKASPACE' ) );
#436 = CARTESIAN_POINT ( 'NONE',  ( 19.05668644110008003, 16.19909563521375162, -30.03150673618506872 ) ) ;
#437 = AXIS2_PLACEMENT_3D ( 'NONE', #1010, #766, #516 ) ;
#438 = PRODUCT ( 'N1004_structure', 'N1004_structure', '', ( #417 ) ) ;
#439 = VERTEX_POINT ( 'NONE', #26 ) ;
#440 = DIRECTION ( 'NONE',  ( 0.000000000000000000, -6.982962677686267499E-15, 1.000000000000000000 ) ) ;
#441 = FACE_OUTER_BOUND ( 'NONE', #929, .T. ) ;
#442 = CARTESIAN_POINT ( 'NONE',  ( 13.14329927628801364, 21.27564410827995545, -32.68888050690156888 ) ) ;
#443 = EDGE_CURVE ( 'NONE', #999, #141, #282, .T. ) ;
#444 = VERTEX_POINT ( 'NONE', #767 ) ;
#445 = CIRCLE ( 'NONE', #309, 49.98437255783051825 ) ;
#446 = PLANE ( 'NONE',  #539 ) ;
#447 = CARTESIAN_POINT ( 'NONE',  ( -10.00000000000000178, 22.91287847477930484, -29.99999999999984013 ) ) ;
#448 = CARTESIAN_POINT ( 'NONE',  ( -10.34494073580749784, 22.75941639119796278, -37.36876965075178703 ) ) ;
#449 = VECTOR ( 'NONE', #196, 1000.000000000000000 ) ;
#450 = FACE_OUTER_BOUND ( 'NONE', #658, .T. ) ;
#451 = ORIENTED_EDGE ( 'NONE', *, *, #342, .F. ) ;
#452 = CARTESIAN_POINT ( 'NONE',  ( 0.000000000000000000, 1.047444401652940007E-13, -30.00000000000000000 ) ) ;
#453 = DIRECTION ( 'NONE',  ( 0.000000000000000000, 6.982962677686266711E-15, -1.000000000000000000 ) ) ;
#454 = PRESENTATION_STYLE_ASSIGNMENT (( #843 ) ) ;
#455 = DIRECTION ( 'NONE',  ( 0.000000000000000000, -6.982962677686267499E-15, 1.000000000000000000 ) ) ;
#456 = ORIENTED_EDGE ( 'NONE', *, *, #941, .T. ) ;
#457 = EDGE_CURVE ( 'NONE', #352, #2, #336, .T. ) ;
#458 = DIRECTION ( 'NONE',  ( 0.000000000000000000, -1.000000000000000000, -6.982962677686266711E-15 ) ) ;
#459 = SURFACE_STYLE_FILL_AREA ( #283 ) ;
#460 = FACE_OUTER_BOUND ( 'NONE', #260, .T. ) ;
#461 = ORIENTED_EDGE ( 'NONE', *, *, #629, .F. ) ;
#462 = DIRECTION ( 'NONE',  ( -1.000000000000000000, -0.000000000000000000, -0.000000000000000000 ) ) ;
#463 = ADVANCED_FACE ( 'NONE', ( #441, #354 ), #910, .T. ) ;
#464 = FACE_OUTER_BOUND ( 'NONE', #267, .T. ) ;
#465 = LINE ( 'NONE', #696, #968 ) ;
#466 = ORIENTED_EDGE ( 'NONE', *, *, #356, .F. ) ;
#467 = CARTESIAN_POINT ( 'NONE',  ( 0.000000000000000000, -7.213489142889236080E-13, 88.30127018922219406 ) ) ;
#468 = CARTESIAN_POINT ( 'NONE',  ( -20.00000000000000000, 15.00000000000010658, -29.99999999999989342 ) ) ;
#469 = EDGE_CURVE ( 'NONE', #165, #510, #754, .T. ) ;
#470 = VERTEX_POINT ( 'NONE', #49 ) ;
#471 = CARTESIAN_POINT ( 'NONE',  ( 16.42524151127982535, -18.86156530485164140, -30.64339366819839583 ) ) ;
#472 = DIRECTION ( 'NONE',  ( 1.000000000000000000, 0.000000000000000000, 0.000000000000000000 ) ) ;
#473 = DIRECTION ( 'NONE',  ( 0.000000000000000000, 6.982962677686266711E-15, -1.000000000000000000 ) ) ;
#474 = CARTESIAN_POINT ( 'NONE',  ( 10.70662779496199590, -22.59176297337879902, -36.28834271458550376 ) ) ;
#475 = CARTESIAN_POINT ( 'NONE',  ( 0.000000000000000000, 1.047444401652940007E-13, -30.00000000000000000 ) ) ;
#476 = CIRCLE ( 'NONE', #575, 15.00000000000000000 ) ;
#477 = AXIS2_PLACEMENT_3D ( 'NONE', #28, #212, #912 ) ;
#478 = VECTOR ( 'NONE', #404, 1000.000000000000000 ) ;
#479 = ORIENTED_EDGE ( 'NONE', *, *, #139, .F. ) ;
#480 = DIRECTION ( 'NONE',  ( 0.000000000000000000, 6.982962677686266711E-15, -1.000000000000000000 ) ) ;
#481 = DIRECTION ( 'NONE',  ( 0.000000000000000000, -1.000000000000000000, -6.982962677686266711E-15 ) ) ;
#482 = VERTEX_POINT ( 'NONE', #380 ) ;
#483 = DIRECTION ( 'NONE',  ( 0.000000000000000000, -6.982962677686266711E-15, 1.000000000000000000 ) ) ;
#484 = AXIS2_PLACEMENT_3D ( 'NONE', #319, #473, #130 ) ;
#485 = ADVANCED_FACE ( 'NONE', ( #946 ), #858, .T. ) ;
#486 = AXIS2_PLACEMENT_3D ( 'NONE', #353, #200, #847 ) ;
#487 = EDGE_LOOP ( 'NONE', ( #807, #401, #479 ) ) ;
#488 = ORIENTED_EDGE ( 'NONE', *, *, #838, .F. ) ;
#489 = CARTESIAN_POINT ( 'NONE',  ( 9.999999999999998224, -22.91287847477839890, -130.0000000000001705 ) ) ;
#490 = DIRECTION ( 'NONE',  ( 0.000000000000000000, -1.000000000000000000, -6.982962677686266711E-15 ) ) ;
#491 = EDGE_CURVE ( 'NONE', #901, #492, #1032, .T. ) ;
#492 = VERTEX_POINT ( 'NONE', #214 ) ;
#493 = VERTEX_POINT ( 'NONE', #779 ) ;
#494 = DIRECTION ( 'NONE',  ( 0.000000000000000000, 1.000000000000000000, 6.982962677686266711E-15 ) ) ;
#495 =( GEOMETRIC_REPRESENTATION_CONTEXT ( 3 ) GLOBAL_UNCERTAINTY_ASSIGNED_CONTEXT ( ( #80 ) ) GLOBAL_UNIT_ASSIGNED_CONTEXT ( ( #27, #997, #360 ) ) REPRESENTATION_CONTEXT ( 'NONE', 'WORKASPACE' ) );
#496 = AXIS2_PLACEMENT_3D ( 'NONE', #924, #195, #920 ) ;
#497 = FACE_OUTER_BOUND ( 'NONE', #772, .T. ) ;
#498 = VERTEX_POINT ( 'NONE', #873 ) ;
#499 = EDGE_CURVE ( 'NONE', #646, #17, #876, .T. ) ;
#500 = CARTESIAN_POINT ( 'NONE',  ( -15.03353059810908832, -19.97787803032722564, -31.31481471990814924 ) ) ;
#501 = DIRECTION ( 'NONE',  ( 0.000000000000000000, 6.982962677686266711E-15, -1.000000000000000000 ) ) ;
#502 = ORIENTED_EDGE ( 'NONE', *, *, #701, .T. ) ;
#503 = EDGE_CURVE ( 'NONE', #379, #737, #861, .T. ) ;
#504 = ORIENTED_EDGE ( 'NONE', *, *, #935, .T. ) ;
#505 = LINE ( 'NONE', #77, #6 ) ;
#506 = DIRECTION ( 'NONE',  ( 0.000000000000000000, -1.000000000000000000, -6.982962677686266711E-15 ) ) ;
#507 = ORIENTED_EDGE ( 'NONE', *, *, #683, .F. ) ;
#508 = AXIS2_PLACEMENT_3D ( 'NONE', #615, #458, #761 ) ;
#509 = AXIS2_PLACEMENT_3D ( 'NONE', #690, #15, #430 ) ;
#510 = VERTEX_POINT ( 'NONE', #630 ) ;
#511 = DIRECTION ( 'NONE',  ( 1.000000000000000000, 0.000000000000000000, 0.000000000000000000 ) ) ;
#512 = DIRECTION ( 'NONE',  ( 1.000000000000000000, 0.000000000000000000, 0.000000000000000000 ) ) ;
#513 = VECTOR ( 'NONE', #341, 1000.000000000000000 ) ;
#514 = SURFACE_SIDE_STYLE ('',( #459 ) ) ;
#515 = EDGE_LOOP ( 'NONE', ( #11, #14, #345, #732, #1012, #100, #833, #208, #821, #738, #778, #60, #179, #264, #151, #256, #628, #270 ) ) ;
#516 = DIRECTION ( 'NONE',  ( 1.000000000000000000, 0.000000000000000000, 0.000000000000000000 ) ) ;
#517 = SPHERICAL_SURFACE ( 'NONE', #5, 50.00000000000000711 ) ;
#518 = ADVANCED_FACE ( 'NONE', ( #391 ), #236, .F. ) ;
#519 = ORIENTED_EDGE ( 'NONE', *, *, #233, .F. ) ;
#520 = CARTESIAN_POINT ( 'NONE',  ( 16.42080910447870323, 18.85442750627066744, -30.65761888205150143 ) ) ;
#521 = PRODUCT_DEFINITION_SHAPE ( 'NONE', 'NONE',  #227 ) ;
#522 = VERTEX_POINT ( 'NONE', #152 ) ;
#523 = FACE_OUTER_BOUND ( 'NONE', #1004, .T. ) ;
#524 = CARTESIAN_POINT ( 'NONE',  ( 1.249999999999993561, 24.96873044429656119, 88.30127018922237880 ) ) ;
#525 = CARTESIAN_POINT ( 'NONE',  ( -9.999999999999451106, 22.91287847477936523, -39.22979435000707582 ) ) ;
#526 = CARTESIAN_POINT ( 'NONE',  ( 15.58725087264777542, 19.54891974181855119, -31.02080700683517733 ) ) ;
#527 = ORIENTED_EDGE ( 'NONE', *, *, #645, .F. ) ;
#528 = CIRCLE ( 'NONE', #708, 24.99999999999955591 ) ;
#529 = AXIS2_PLACEMENT_3D ( 'NONE', #991, #674, #681 ) ;
#530 = DIRECTION ( 'NONE',  ( 0.000000000000000000, -1.000000000000000000, -6.982962677686267499E-15 ) ) ;
#531 = DIRECTION ( 'NONE',  ( 0.000000000000000000, -6.982962677686266711E-15, 1.000000000000000000 ) ) ;
#532 = AXIS2_PLACEMENT_3D ( 'NONE', #252, #884, #1047 ) ;
#533 = CARTESIAN_POINT ( 'NONE',  ( 9.999999999999998224, 4.538925740496073109E-13, -80.00000000000000000 ) ) ;
#534 = EDGE_CURVE ( 'NONE', #856, #431, #793, .T. ) ;
#535 = ORIENTED_EDGE ( 'NONE', *, *, #1013, .T. ) ;
#536 = DIRECTION ( 'NONE',  ( 1.000000000000000000, 0.000000000000000000, 0.000000000000000000 ) ) ;
#537 = CARTESIAN_POINT ( 'NONE',  ( -9.999999999999449329, 22.91287847477937234, -39.99999999999983658 ) ) ;
#538 = CIRCLE ( 'NONE', #484, 50.00000000000000711 ) ;
#539 = AXIS2_PLACEMENT_3D ( 'NONE', #607, #601, #688 ) ;
#540 = ORIENTED_EDGE ( 'NONE', *, *, #1013, .F. ) ;
#541 = ADVANCED_FACE ( 'NONE', ( #693 ), #1016, .F. ) ;
#542 = CARTESIAN_POINT ( 'NONE',  ( 14.75202264291522702, -20.18638650264970380, -31.48142243017554875 ) ) ;
#543 = DIRECTION ( 'NONE',  ( 0.000000000000000000, 6.982962677686266711E-15, -1.000000000000000000 ) ) ;
#544 = FACE_OUTER_BOUND ( 'NONE', #788, .T. ) ;
#545 = ORIENTED_EDGE ( 'NONE', *, *, #1025, .F. ) ;
#546 = DIRECTION ( 'NONE',  ( 0.000000000000000000, -6.982962677686267499E-15, 1.000000000000000000 ) ) ;
#547 = AXIS2_PLACEMENT_3D ( 'NONE', #560, #462, #546 ) ;
#548 = EDGE_CURVE ( 'NONE', #999, #141, #115, .T. ) ;
#549 = DIRECTION ( 'NONE',  ( 1.000000000000000000, 0.000000000000000000, 0.000000000000000000 ) ) ;
#550 = CARTESIAN_POINT ( 'NONE',  ( 10.71099896338733259, 22.58968930936016051, -36.27763671504992260 ) ) ;
#551 = ORIENTED_EDGE ( 'NONE', *, *, #300, .F. ) ;
#552 = CARTESIAN_POINT ( 'NONE',  ( 1.250000000000004663, -4.189777606611760026E-13, 45.00000000000000000 ) ) ;
#553 = CARTESIAN_POINT ( 'NONE',  ( 17.51173008777509565, -17.85739381281507931, -30.29775834433593573 ) ) ;
#554 = CARTESIAN_POINT ( 'NONE',  ( 0.000000000000000000, 1.047444401652940007E-13, -30.00000000000000000 ) ) ;
#555 = EDGE_CURVE ( 'NONE', #322, #482, #528, .T. ) ;
#556 = CARTESIAN_POINT ( 'NONE',  ( 11.36471361680208858, 22.26867111367991470, -34.94338858844391638 ) ) ;
#557 = CARTESIAN_POINT ( 'NONE',  ( 18.03830236948214960, -17.32601321129811112, -30.18093030597473359 ) ) ;
#558 = CARTESIAN_POINT ( 'NONE',  ( -11.75274981885097070, 22.06631634913422246, -34.33269199355012091 ) ) ;
#559 = DIRECTION ( 'NONE',  ( -0.000000000000000000, -6.982962677686266711E-15, 1.000000000000000000 ) ) ;
#560 = CARTESIAN_POINT ( 'NONE',  ( 1.250000000000004663, -4.189777606611760026E-13, 45.00000000000000000 ) ) ;
#561 = FACE_OUTER_BOUND ( 'NONE', #109, .T. ) ;
#562 = FACE_OUTER_BOUND ( 'NONE', #1048, .T. ) ;
#563 = EDGE_CURVE ( 'NONE', #2, #125, #1029, .T. ) ;
#564 = VECTOR ( 'NONE', #406, 1000.000000000000000 ) ;
#565 = CARTESIAN_POINT ( 'NONE',  ( 9.999999999999449329, -22.91287847477902773, -40.00000000000015632 ) ) ;
#566 = CARTESIAN_POINT ( 'NONE',  ( -55.00000000000000711, -4.257133180564864610E-13, 45.00000000000000000 ) ) ;
#567 = ORIENTED_EDGE ( 'NONE', *, *, #44, .T. ) ;
#568 = CARTESIAN_POINT ( 'NONE',  ( -10.45757799522173137, -22.70811802772184151, -36.98608046456828902 ) ) ;
#569 = CARTESIAN_POINT ( 'NONE',  ( -10.00000000000000178, 22.91287847478000117, -129.9999999999998295 ) ) ;
#570 = ORIENTED_EDGE ( 'NONE', *, *, #246, .T. ) ;
#571 = VERTEX_POINT ( 'NONE', #172 ) ;
#572 = CARTESIAN_POINT ( 'NONE',  ( -13.14329927628801897, -21.27564410827969610, -32.68888050690188152 ) ) ;
#573 = CARTESIAN_POINT ( 'NONE',  ( 0.000000000000000000, -4.189777606611760026E-13, 45.00000000000000000 ) ) ;
#574 = EDGE_CURVE ( 'NONE', #53, #328, #255, .T. ) ;
#575 = AXIS2_PLACEMENT_3D ( 'NONE', #1041, #332, #971 ) ;
#576 = ORIENTED_EDGE ( 'NONE', *, *, #555, .T. ) ;
#577 = EDGE_LOOP ( 'NONE', ( #488, #868, #93 ) ) ;
#578 = CARTESIAN_POINT ( 'NONE',  ( -14.21023912480547224, -20.57138485343657308, -31.83995391330580915 ) ) ;
#579 = AXIS2_PLACEMENT_3D ( 'NONE', #1027, #543, #1034 ) ;
#580 = FACE_BOUND ( 'NONE', #662, .T. ) ;
#581 = CARTESIAN_POINT ( 'NONE',  ( 0.000000000000000000, 0.000000000000000000, 0.000000000000000000 ) ) ;
#582 = ORIENTED_EDGE ( 'NONE', *, *, #126, .F. ) ;
#583 = VERTEX_POINT ( 'NONE', #818 ) ;
#584 = FACE_OUTER_BOUND ( 'NONE', #407, .T. ) ;
#585 = PLANE ( 'NONE',  #532 ) ;
#586 = AXIS2_PLACEMENT_3D ( 'NONE', #368, #614, #594 ) ;
#587 = ORIENTED_EDGE ( 'NONE', *, *, #676, .T. ) ;
#588 = ORIENTED_EDGE ( 'NONE', *, *, #781, .F. ) ;
#589 = DIRECTION ( 'NONE',  ( 0.000000000000000000, 6.982962677686266711E-15, -1.000000000000000000 ) ) ;
#590 = DIRECTION ( 'NONE',  ( -0.000000000000000000, -6.982962677686266711E-15, 1.000000000000000000 ) ) ;
#591 = EDGE_LOOP ( 'NONE', ( #606, #749, #1020, #706 ) ) ;
#592 = CARTESIAN_POINT ( 'NONE',  ( 17.51938513531455754, 17.85006891456114886, -30.29560880326225103 ) ) ;
#593 = ORIENTED_EDGE ( 'NONE', *, *, #1001, .F. ) ;
#594 = DIRECTION ( 'NONE',  ( 1.000000000000000000, 0.000000000000000000, 0.000000000000000000 ) ) ;
#595 = EDGE_CURVE ( 'NONE', #908, #896, #505, .T. ) ;
#596 = CARTESIAN_POINT ( 'NONE',  ( 24.96873044429750266, -1.250000000000418998, 44.99999999999998579 ) ) ;
#597 = AXIS2_PLACEMENT_3D ( 'NONE', #740, #258, #88 ) ;
#598 = CARTESIAN_POINT ( 'NONE',  ( -1.249999999999995559, -4.189777606611760026E-13, 45.00000000000000000 ) ) ;
#599 = CARTESIAN_POINT ( 'NONE',  ( 14.75766441274075902, 20.18227221730215248, -31.47793448045215570 ) ) ;
#600 = ORIENTED_EDGE ( 'NONE', *, *, #503, .T. ) ;
#601 = DIRECTION ( 'NONE',  ( 1.000000000000000000, 0.000000000000000000, 0.000000000000000000 ) ) ;
#602 = EDGE_CURVE ( 'NONE', #165, #444, #476, .T. ) ;
#603 = DIRECTION ( 'NONE',  ( 1.000000000000000000, 0.000000000000000000, 0.000000000000000000 ) ) ;
#604 = LINE ( 'NONE', #921, #449 ) ;
#605 = CARTESIAN_POINT ( 'NONE',  ( 15.86511017280905023, 19.32435477421114456, -30.88992982812009203 ) ) ;
#606 = ORIENTED_EDGE ( 'NONE', *, *, #318, .F. ) ;
#607 = CARTESIAN_POINT ( 'NONE',  ( -1.249999999999995559, -1.048474030146183795E-12, 135.1474486605139589 ) ) ;
#608 = LINE ( 'NONE', #684, #1044 ) ;
#609 = ADVANCED_FACE ( 'NONE', ( #320 ), #734, .F. ) ;
#610 = CARTESIAN_POINT ( 'NONE',  ( 11.97647981198260858, 21.94606981415750724, -34.02073785510983583 ) ) ;
#611 = APPLICATION_CONTEXT ( 'automotive_design' ) ;
#612 = ORIENTED_EDGE ( 'NONE', *, *, #23, .F. ) ;
#613 = AXIS2_PLACEMENT_3D ( 'NONE', #41, #371, #294 ) ;
#614 = DIRECTION ( 'NONE',  ( 0.000000000000000000, 6.982962677686266711E-15, -1.000000000000000000 ) ) ;
#615 = CARTESIAN_POINT ( 'NONE',  ( 0.000000000000000000, -4.189777606611760026E-13, 45.00000000000000000 ) ) ;
#616 = DIRECTION ( 'NONE',  ( 1.000000000000000000, 0.000000000000000000, 0.000000000000000000 ) ) ;
#617 = AXIS2_PLACEMENT_3D ( 'NONE', #786, #308, #962 ) ;
#618 = CARTESIAN_POINT ( 'NONE',  ( 0.000000000000000000, -1.250000000000418998, 44.99999999999998579 ) ) ;
#619 = EDGE_CURVE ( 'NONE', #885, #492, #1036, .T. ) ;
#620 = ORIENTED_EDGE ( 'NONE', *, *, #499, .T. ) ;
#621 = CARTESIAN_POINT ( 'NONE',  ( 15.02800557802878423, -19.98204773229051412, -31.31794645983932668 ) ) ;
#622 = CARTESIAN_POINT ( 'NONE',  ( 19.99999999999999645, -14.99999999999990408, -30.00000000000010303 ) ) ;
#623 = VECTOR ( 'NONE', #530, 1000.000000000000000 ) ;
#624 = VERTEX_POINT ( 'NONE', #241 ) ;
#625 = CARTESIAN_POINT ( 'NONE',  ( 0.000000000000000000, 1.047444401652940007E-13, -30.00000000000000000 ) ) ;
#626 = CARTESIAN_POINT ( 'NONE',  ( -25.00000000000000000, -2.737612717275613807E-13, -30.00000000000000000 ) ) ;
#627 = CARTESIAN_POINT ( 'NONE',  ( -20.00000000000000000, 15.00000000000010658, -29.99999999999989342 ) ) ;
#628 = ORIENTED_EDGE ( 'NONE', *, *, #427, .T. ) ;
#629 = EDGE_CURVE ( 'NONE', #498, #646, #739, .T. ) ;
#630 = CARTESIAN_POINT ( 'NONE',  ( 9.999999999999998224, 3.491481338843132850E-13, -65.00000000000000000 ) ) ;
#631 = CARTESIAN_POINT ( 'NONE',  ( 0.000000000000000000, -4.189777606611760026E-13, 45.00000000000000000 ) ) ;
#632 = VECTOR ( 'NONE', #849, 1000.000000000000000 ) ;
#633 = CARTESIAN_POINT ( 'NONE',  ( 10.45272255270410966, -22.71035499989757511, -37.00122356783655420 ) ) ;
#634 = CARTESIAN_POINT ( 'NONE',  ( -10.85215055985090160, 22.52251699277863750, -35.94357174242109920 ) ) ;
#635 = CARTESIAN_POINT ( 'NONE',  ( 9.999999999999998224, 22.91287847477937234, -39.99999999999983658 ) ) ;
#636 = CARTESIAN_POINT ( 'NONE',  ( 12.64297035140174330, -21.57362388879364801, -33.18874439512820373 ) ) ;
#637 = CARTESIAN_POINT ( 'NONE',  ( -19.05187649875820455, 16.20484767120672132, -30.03187835767929315 ) ) ;
#638 = PLANE ( 'NONE',  #385 ) ;
#639 = EDGE_CURVE ( 'NONE', #439, #261, #730, .T. ) ;
#640 = EDGE_LOOP ( 'NONE', ( #244, #804, #936, #653, #235, #682, #326, #620, #663, #588, #685, #372, #576, #9, #466, #774, #723, #1009 ) ) ;
#641 = CARTESIAN_POINT ( 'NONE',  ( -16.69979692697520690, -18.60793477367361959, -30.55591061412749454 ) ) ;
#642 = AXIS2_PLACEMENT_3D ( 'NONE', #184, #1003, #512 ) ;
#643 = LINE ( 'NONE', #57, #1033 ) ;
#644 = ORIENTED_EDGE ( 'NONE', *, *, #872, .T. ) ;
#645 = EDGE_CURVE ( 'NONE', #492, #896, #4, .T. ) ;
#646 = VERTEX_POINT ( 'NONE', #565 ) ;
#647 = CARTESIAN_POINT ( 'NONE',  ( -1.249999999999995559, -4.189777606611760026E-13, 45.00000000000000000 ) ) ;
#648 = DIRECTION ( 'NONE',  ( 0.000000000000000000, -1.000000000000000000, -6.982962677686266711E-15 ) ) ;
#649 = ORIENTED_EDGE ( 'NONE', *, *, #52, .F. ) ;
#650 = CARTESIAN_POINT ( 'NONE',  ( -16.42080910447870323, -18.85442750627044362, -30.65761888205176433 ) ) ;
#651 = ADVANCED_FACE ( 'NONE', ( #584 ), #177, .F. ) ;
#652 = CARTESIAN_POINT ( 'NONE',  ( 0.000000000000000000, -7.213489142889236080E-13, 88.30127018922219406 ) ) ;
#653 = ORIENTED_EDGE ( 'NONE', *, *, #619, .T. ) ;
#654 = CARTESIAN_POINT ( 'NONE',  ( -11.76290598202796112, -22.06092635451031470, -34.31776698591053076 ) ) ;
#655 = CARTESIAN_POINT ( 'NONE',  ( -1.249999999999995559, 24.96873044429760569, -29.99999999999982592 ) ) ;
#656 = AXIS2_PLACEMENT_3D ( 'NONE', #899, #494, #329 ) ;
#657 = ORIENTED_EDGE ( 'NONE', *, *, #155, .F. ) ;
#658 = EDGE_LOOP ( 'NONE', ( #224, #671 ) ) ;
#659 = CARTESIAN_POINT ( 'NONE',  ( -14.75766441274076257, -20.18227221730192511, -31.47793448045241860 ) ) ;
#660 = CLOSED_SHELL ( 'NONE', ( #541, #29, #748, #150, #895, #164, #197, #408, #421, #1043, #978, #110, #714, #463, #609, #38, #915, #182, #485, #313, #364, #733, #219, #651, #1050, #306, #518, #829, #792, #327 ) ) ;
#661 = DIRECTION ( 'NONE',  ( 0.000000000000000000, -6.982962677686267499E-15, 1.000000000000000000 ) ) ;
#662 = EDGE_LOOP ( 'NONE', ( #776, #389 ) ) ;
#663 = ORIENTED_EDGE ( 'NONE', *, *, #941, .F. ) ;
#664 = LINE ( 'NONE', #286, #755 ) ;
#665 = AXIS2_PLACEMENT_3D ( 'NONE', #581, #325, #722 ) ;
#666 = PLANE ( 'NONE',  #496 ) ;
#667 = AXIS2_PLACEMENT_3D ( 'NONE', #95, #987, #914 ) ;
#668 = ORIENTED_EDGE ( 'NONE', *, *, #52, .T. ) ;
#669 = DIRECTION ( 'NONE',  ( 0.000000000000000000, -6.982962677686267499E-15, 1.000000000000000000 ) ) ;
#670 = EDGE_CURVE ( 'NONE', #522, #493, #794, .T. ) ;
#671 = ORIENTED_EDGE ( 'NONE', *, *, #534, .T. ) ;
#672 = CARTESIAN_POINT ( 'NONE',  ( 9.999999999999998224, 22.91287847478000117, -129.9999999999998295 ) ) ;
#673 = DIRECTION ( 'NONE',  ( 1.000000000000000000, 0.000000000000000000, 0.000000000000000000 ) ) ;
#674 = DIRECTION ( 'NONE',  ( -0.000000000000000000, -6.982962677686266711E-15, 1.000000000000000000 ) ) ;
#675 = AXIS2_PLACEMENT_3D ( 'NONE', #709, #480, #801 ) ;
#676 = EDGE_CURVE ( 'NONE', #762, #981, #445, .T. ) ;
#677 = ORIENTED_EDGE ( 'NONE', *, *, #619, .F. ) ;
#678 = LINE ( 'NONE', #919, #337 ) ;
#679 = DIRECTION ( 'NONE',  ( -0.000000000000000000, -6.982962677686266711E-15, 1.000000000000000000 ) ) ;
#680 = VECTOR ( 'NONE', #648, 1000.000000000000000 ) ;
#681 = DIRECTION ( 'NONE',  ( 1.000000000000000000, -2.842170943040400743E-14, 0.000000000000000000 ) ) ;
#682 = ORIENTED_EDGE ( 'NONE', *, *, #548, .F. ) ;
#683 = EDGE_CURVE ( 'NONE', #908, #279, #678, .T. ) ;
#684 = CARTESIAN_POINT ( 'NONE',  ( 10.00000000000000711, -22.91287847477909523, -30.00000000000015987 ) ) ;
#685 = ORIENTED_EDGE ( 'NONE', *, *, #457, .F. ) ;
#686 = FACE_OUTER_BOUND ( 'NONE', #243, .T. ) ;
#687 = ORIENTED_EDGE ( 'NONE', *, *, #397, .F. ) ;
#688 = DIRECTION ( 'NONE',  ( 0.000000000000000000, -6.982962677686266711E-15, 1.000000000000000000 ) ) ;
#689 = DIRECTION ( 'NONE',  ( 1.000000000000000000, 0.000000000000000000, 0.000000000000000000 ) ) ;
#690 = CARTESIAN_POINT ( 'NONE',  ( 0.000000000000000000, 1.047444401652940007E-13, -30.00000000000000000 ) ) ;
#691 = ORIENTED_EDGE ( 'NONE', *, *, #90, .F. ) ;
#692 = VECTOR ( 'NONE', #559, 1000.000000000000000 ) ;
#693 = FACE_OUTER_BOUND ( 'NONE', #85, .T. ) ;
#694 = B_SPLINE_CURVE_WITH_KNOTS ( 'NONE', 3,
 ( #284, #832, #436, #758, #592, #355, #520, #605, #526, #278, #599, #917, #192, #442, #763, #610, #845, #556, #388, #716, #550, #47, #382, #705, #871, #635 ),
 .UNSPECIFIED., .F., .F.,
 ( 4, 2, 2, 2, 2, 2, 2, 2, 2, 2, 2, 2, 4 ),
 ( 0.000000000000000000, 0.002271251611878871528, 0.004542503223757743055, 0.005678129029697174916, 0.006813754835636605910, 0.007949380641576037770, 0.009085006447515468764, 0.01135625805939431687, 0.01249188386533374787, 0.01362750967127317886, 0.01476313547721261159, 0.01589876128315204432, 0.01817001289503092712 ),
 .UNSPECIFIED. ) ;
#695 = PLANE ( 'NONE',  #933 ) ;
#696 = CARTESIAN_POINT ( 'NONE',  ( -10.00000000000000178, -22.91287847477909523, -30.00000000000015987 ) ) ;
#697 = ORIENTED_EDGE ( 'NONE', *, *, #781, .T. ) ;
#698 = CARTESIAN_POINT ( 'NONE',  ( 10.08781882418732856, -22.87512283139854929, -38.47591518564151869 ) ) ;
#699 = CARTESIAN_POINT ( 'NONE',  ( -17.51173008777509210, 17.85739381281528182, -30.29775834433567638 ) ) ;
#700 = LINE ( 'NONE', #951, #692 ) ;
#701 = EDGE_CURVE ( 'NONE', #352, #986, #1000, .T. ) ;
#702 = EDGE_LOOP ( 'NONE', ( #250, #412 ) ) ;
#703 = CARTESIAN_POINT ( 'NONE',  ( 13.93383493758902070, -20.75929957341854504, -32.04267795595762180 ) ) ;
#704 = CARTESIAN_POINT ( 'NONE',  ( 24.96873044429750266, 1.249999999999581002, 45.00000000000001421 ) ) ;
#705 = CARTESIAN_POINT ( 'NONE',  ( 10.08812750137401615, 22.87501038207001614, -38.47028930520799150 ) ) ;
#706 = ORIENTED_EDGE ( 'NONE', *, *, #377, .F. ) ;
#707 = EDGE_CURVE ( 'NONE', #279, #498, #209, .T. ) ;
#708 = AXIS2_PLACEMENT_3D ( 'NONE', #467, #785, #386 ) ;
#709 = CARTESIAN_POINT ( 'NONE',  ( 0.000000000000000000, 1.047444401652940007E-13, -30.00000000000000000 ) ) ;
#710 = DIRECTION ( 'NONE',  ( -0.000000000000000000, -6.982962677686266711E-15, 1.000000000000000000 ) ) ;
#711 = CARTESIAN_POINT ( 'NONE',  ( 0.000000000000000000, -7.213489142889236080E-13, 88.30127018922219406 ) ) ;
#712 = VECTOR ( 'NONE', #710, 1000.000000000000000 ) ;
#713 = CARTESIAN_POINT ( 'NONE',  ( 13.13841407584974519, -21.27870237959091071, -32.69329285426167786 ) ) ;
#714 = ADVANCED_FACE ( 'NONE', ( #523 ), #841, .T. ) ;
#715 = CARTESIAN_POINT ( 'NONE',  ( -19.54035209404347029, 15.61286387460843450, -29.99999999999988276 ) ) ;
#716 = CARTESIAN_POINT ( 'NONE',  ( 10.85647049756299332, 22.52043955241029849, -35.93381744107121989 ) ) ;
#717 = VECTOR ( 'NONE', #18, 1000.000000000000000 ) ;
#718 = ORIENTED_EDGE ( 'NONE', *, *, #434, .T. ) ;
#719 = DIRECTION ( 'NONE',  ( -0.000000000000000000, -6.982962677686266711E-15, 1.000000000000000000 ) ) ;
#720 = DIRECTION ( 'NONE',  ( 0.000000000000000000, 6.982962677686266711E-15, -1.000000000000000000 ) ) ;
#721 = EDGE_CURVE ( 'NONE', #885, #170, #886, .T. ) ;
#722 = DIRECTION ( 'NONE',  ( 1.000000000000000000, 0.000000000000000000, 0.000000000000000000 ) ) ;
#723 = ORIENTED_EDGE ( 'NONE', *, *, #318, .T. ) ;
#724 = CARTESIAN_POINT ( 'NONE',  ( 0.000000000000000000, 1.249999999999581002, 45.00000000000001421 ) ) ;
#725 = VECTOR ( 'NONE', #122, 1000.000000000000000 ) ;
#726 = CARTESIAN_POINT ( 'NONE',  ( 0.000000000000000000, -4.189777606611760026E-13, 45.00000000000000000 ) ) ;
#727 = ORIENTED_EDGE ( 'NONE', *, *, #126, .T. ) ;
#728 = EDGE_CURVE ( 'NONE', #249, #1051, #266, .T. ) ;
#729 = CIRCLE ( 'NONE', #782, 24.99999999999955591 ) ;
#730 = LINE ( 'NONE', #409, #148 ) ;
#731 = DIRECTION ( 'NONE',  ( 0.000000000000000000, 1.000000000000000000, 6.982962677686266711E-15 ) ) ;
#732 = ORIENTED_EDGE ( 'NONE', *, *, #902, .T. ) ;
#733 = ADVANCED_FACE ( 'NONE', ( #923 ), #446, .F. ) ;
#734 = PLANE ( 'NONE',  #656 ) ;
#735 = FACE_OUTER_BOUND ( 'NONE', #1045, .T. ) ;
#736 = APPLICATION_PROTOCOL_DEFINITION ( 'draft international standard', 'automotive_design', 1998, #96 ) ;
#737 = VERTEX_POINT ( 'NONE', #752 ) ;
#738 = ORIENTED_EDGE ( 'NONE', *, *, #246, .F. ) ;
#739 = LINE ( 'NONE', #489, #926 ) ;
#740 = CARTESIAN_POINT ( 'NONE',  ( 0.000000000000000000, -4.189777606611760026E-13, 45.00000000000000000 ) ) ;
#741 = AXIS2_PLACEMENT_3D ( 'NONE', #625, #942, #136 ) ;
#742 = AXIS2_PLACEMENT_3D ( 'NONE', #552, #117, #22 ) ;
#743 = ORIENTED_EDGE ( 'NONE', *, *, #349, .T. ) ;
#744 = ORIENTED_EDGE ( 'NONE', *, *, #1001, .T. ) ;
#745 = LINE ( 'NONE', #12, #215 ) ;
#746 = CIRCLE ( 'NONE', #1049, 55.00000000000000711 ) ;
#747 = PLANE ( 'NONE',  #50 ) ;
#748 = ADVANCED_FACE ( 'NONE', ( #113 ), #194, .T. ) ;
#749 = ORIENTED_EDGE ( 'NONE', *, *, #676, .F. ) ;
#750 = CARTESIAN_POINT ( 'NONE',  ( -1.249999999999995559, -24.96873044429792188, 44.99999999999981526 ) ) ;
#751 = ORIENTED_EDGE ( 'NONE', *, *, #300, .T. ) ;
#752 = CARTESIAN_POINT ( 'NONE',  ( 1.250000000000004663, 49.98437255783010613, 45.00000000000034817 ) ) ;
#753 = PRODUCT_DEFINITION_FORMATION_WITH_SPECIFIED_SOURCE ( 'ANY', '', #438, .NOT_KNOWN. ) ;
#754 = LINE ( 'NONE', #20, #996 ) ;
#755 = VECTOR ( 'NONE', #37, 1000.000000000000000 ) ;
#756 = LINE ( 'NONE', #598, #632 ) ;
#757 = EDGE_CURVE ( 'NONE', #431, #362, #31, .T. ) ;
#758 = CARTESIAN_POINT ( 'NONE',  ( 18.04628363363707422, 17.31761082042011779, -30.17942512981374392 ) ) ;
#759 = ORIENTED_EDGE ( 'NONE', *, *, #155, .T. ) ;
#760 = DIRECTION ( 'NONE',  ( -0.000000000000000000, -1.000000000000000000, -6.982962677686266711E-15 ) ) ;
#761 = DIRECTION ( 'NONE',  ( 1.000000000000000000, 0.000000000000000000, 0.000000000000000000 ) ) ;
#762 = VERTEX_POINT ( 'NONE', #993 ) ;
#763 = CARTESIAN_POINT ( 'NONE',  ( 12.64942839514299067, 21.56979733736448068, -33.18216272552497514 ) ) ;
#764 = EDGE_CURVE ( 'NONE', #856, #896, #1005, .T. ) ;
#765 = ORIENTED_EDGE ( 'NONE', *, *, #23, .T. ) ;
#766 = DIRECTION ( 'NONE',  ( 0.000000000000000000, 6.982962677686266711E-15, -1.000000000000000000 ) ) ;
#767 = CARTESIAN_POINT ( 'NONE',  ( -10.00000000000000178, 5.568000440161803349E-13, -95.00000000000000000 ) ) ;
#768 = CARTESIAN_POINT ( 'NONE',  ( -10.00000000000000178, 22.91287847478000117, -129.9999999999998295 ) ) ;
#769 = EDGE_LOOP ( 'NONE', ( #305, #48, #851, #218 ) ) ;
#770 = DIRECTION ( 'NONE',  ( 1.000000000000000000, 0.000000000000000000, 0.000000000000000000 ) ) ;
#771 = CARTESIAN_POINT ( 'NONE',  ( 0.000000000000000000, -1.250000000000418998, 44.99999999999998579 ) ) ;
#772 = EDGE_LOOP ( 'NONE', ( #519, #502, #504 ) ) ;
#773 = PLANE ( 'NONE',  #613 ) ;
#774 = ORIENTED_EDGE ( 'NONE', *, *, #90, .T. ) ;
#775 = DIRECTION ( 'NONE',  ( 1.000000000000000000, -7.966960424710123334E-13, 0.000000000000000000 ) ) ;
#776 = ORIENTED_EDGE ( 'NONE', *, *, #872, .F. ) ;
#777 = CYLINDRICAL_SURFACE ( 'NONE', #338, 24.99999999999977973 ) ;
#778 = ORIENTED_EDGE ( 'NONE', *, *, #701, .F. ) ;
#779 = CARTESIAN_POINT ( 'NONE',  ( 24.96873044429728594, 1.249999999999267475, 88.30127018922220827 ) ) ;
#780 = CARTESIAN_POINT ( 'NONE',  ( 0.000000000000000000, 1.047444401652940007E-13, -30.00000000000000000 ) ) ;
#781 = EDGE_CURVE ( 'NONE', #2, #1051, #664, .T. ) ;
#782 = AXIS2_PLACEMENT_3D ( 'NONE', #652, #501, #1 ) ;
#783 = DIRECTION ( 'NONE',  ( -0.000000000000000000, -6.982962677686266711E-15, 1.000000000000000000 ) ) ;
#784 = ORIENTED_EDGE ( 'NONE', *, *, #935, .F. ) ;
#785 = DIRECTION ( 'NONE',  ( 0.000000000000000000, 6.982962677686266711E-15, -1.000000000000000000 ) ) ;
#786 = CARTESIAN_POINT ( 'NONE',  ( -1.249999999999995559, -1.048474030146183795E-12, 135.1474486605139589 ) ) ;
#787 = EDGE_CURVE ( 'NONE', #624, #36, #160, .T. ) ;
#788 = EDGE_LOOP ( 'NONE', ( #687, #880, #846, #810, #205, #289, #180, #535, #187, #21, #697, #967, #1040, #296, #907, #826, #135, #582 ) ) ;
#789 = CARTESIAN_POINT ( 'NONE',  ( 19.05187649875820455, -16.20484767120651526, -30.03187835767952052 ) ) ;
#790 = DIRECTION ( 'NONE',  ( -0.000000000000000000, -6.982962677686266711E-15, 1.000000000000000000 ) ) ;
#791 = LINE ( 'NONE', #140, #16 ) ;
#792 = ADVANCED_FACE ( 'NONE', ( #930 ), #268, .F. ) ;
#793 = CIRCLE ( 'NONE', #675, 25.00000000000000000 ) ;
#794 = CIRCLE ( 'NONE', #878, 49.98437255783053246 ) ;
#795 = CARTESIAN_POINT ( 'NONE',  ( 10.85215055985090160, -22.52251699277834973, -35.94357174242139763 ) ) ;
#796 = CARTESIAN_POINT ( 'NONE',  ( -10.00000000000000178, 3.491481338843132850E-13, -65.00000000000000000 ) ) ;
#797 = FACE_BOUND ( 'NONE', #702, .T. ) ;
#798 = AXIS2_PLACEMENT_3D ( 'NONE', #104, #934, #616 ) ;
#799 = EDGE_LOOP ( 'NONE', ( #990, #992, #112, #551 ) ) ;
#800 = EDGE_CURVE ( 'NONE', #379, #470, #745, .T. ) ;
#801 = DIRECTION ( 'NONE',  ( 1.000000000000000000, 0.000000000000000000, 0.000000000000000000 ) ) ;
#802 = DIRECTION ( 'NONE',  ( 1.000000000000000000, 0.000000000000000000, 0.000000000000000000 ) ) ;
#803 = CIRCLE ( 'NONE', #75, 49.98437255783051825 ) ;
#804 = ORIENTED_EDGE ( 'NONE', *, *, #397, .T. ) ;
#805 = CARTESIAN_POINT ( 'NONE',  ( -19.54022503649320086, -15.61303328467563745, -30.00000000000012079 ) ) ;
#806 = CARTESIAN_POINT ( 'NONE',  ( -24.96873044429750266, 1.250000000000104805, -29.99999999999998934 ) ) ;
#807 = ORIENTED_EDGE ( 'NONE', *, *, #503, .F. ) ;
#808 = CARTESIAN_POINT ( 'NONE',  ( -10.34914623737138761, -22.75751032677853303, -37.35286391319768740 ) ) ;
#809 = CARTESIAN_POINT ( 'NONE',  ( 9.999999999999998224, 22.91287847477937234, -39.99999999999983658 ) ) ;
#810 = ORIENTED_EDGE ( 'NONE', *, *, #947, .T. ) ;
#811 = EDGE_CURVE ( 'NONE', #571, #510, #128, .T. ) ;
#812 = AXIS2_PLACEMENT_3D ( 'NONE', #178, #506, #416 ) ;
#813 = EDGE_LOOP ( 'NONE', ( #817, #418, #984 ) ) ;
#814 = DIRECTION ( 'NONE',  ( -0.000000000000000000, -6.982962677686266711E-15, 1.000000000000000000 ) ) ;
#815 = CARTESIAN_POINT ( 'NONE',  ( 0.000000000000000000, -1.250000000001048495, 135.1474486605139589 ) ) ;
#816 = ORIENTED_EDGE ( 'NONE', *, *, #857, .F. ) ;
#817 = ORIENTED_EDGE ( 'NONE', *, *, #86, .F. ) ;
#818 = CARTESIAN_POINT ( 'NONE',  ( -49.98437255783052535, -1.250000000000418998, 44.99999999999998579 ) ) ;
#819 = CARTESIAN_POINT ( 'NONE',  ( -24.99999999999977973, -2.737612717275579981E-13, 45.00000000000000000 ) ) ;
#820 = ORIENTED_EDGE ( 'NONE', *, *, #947, .F. ) ;
#821 = ORIENTED_EDGE ( 'NONE', *, *, #639, .T. ) ;
#822 = CARTESIAN_POINT ( 'NONE',  ( 0.000000000000000000, -1.250000000000418998, 44.99999999999998579 ) ) ;
#823 = DIRECTION ( 'NONE',  ( 0.000000000000000000, -6.982962677686266711E-15, 1.000000000000000000 ) ) ;
#824 = CIRCLE ( 'NONE', #742, 49.98437255783051825 ) ;
#825 = ORIENTED_EDGE ( 'NONE', *, *, #491, .T. ) ;
#826 = ORIENTED_EDGE ( 'NONE', *, *, #764, .T. ) ;
#827 = DIRECTION ( 'NONE',  ( 0.000000000000000000, -6.982962677686267499E-15, 1.000000000000000000 ) ) ;
#828 = AXIS2_PLACEMENT_3D ( 'NONE', #569, #490, #411 ) ;
#829 = ADVANCED_FACE ( 'NONE', ( #102 ), #432, .F. ) ;
#830 = CARTESIAN_POINT ( 'NONE',  ( 0.000000000000000000, -4.189777606611760026E-13, 45.00000000000000000 ) ) ;
#831 = CARTESIAN_POINT ( 'NONE',  ( 0.000000000000000000, 1.249999999998951505, 135.1474486605139589 ) ) ;
#832 = CARTESIAN_POINT ( 'NONE',  ( 19.54022503649320086, 15.61303328467583995, -29.99999999999989342 ) ) ;
#833 = ORIENTED_EDGE ( 'NONE', *, *, #265, .F. ) ;
#834 = DIRECTION ( 'NONE',  ( 1.000000000000000000, 0.000000000000000000, 0.000000000000000000 ) ) ;
#835 = AXIS2_PLACEMENT_3D ( 'NONE', #711, #315, #944 ) ;
#836 = CARTESIAN_POINT ( 'NONE',  ( 0.000000000000000000, -1.250000000000418998, 44.99999999999998579 ) ) ;
#837 = DIRECTION ( 'NONE',  ( 1.224646799147353207E-16, -1.000000000000000000, -6.982962677686266711E-15 ) ) ;
#838 = EDGE_CURVE ( 'NONE', #301, #624, #939, .T. ) ;
#839 = DIRECTION ( 'NONE',  ( -1.776356839400250267E-15, -6.984444971004052145E-15, 1.000000000000000000 ) ) ;
#840 = ORIENTED_EDGE ( 'NONE', *, *, #595, .T. ) ;
#841 = SPHERICAL_SURFACE ( 'NONE', #486, 55.00000000000000711 ) ;
#842 = DIRECTION ( 'NONE',  ( 1.000000000000000000, 0.000000000000000000, 0.000000000000000000 ) ) ;
#843 = SURFACE_STYLE_USAGE ( .BOTH. , #514 ) ;
#844 = AXIS2_PLACEMENT_3D ( 'NONE', #402, #883, #483 ) ;
#845 = CARTESIAN_POINT ( 'NONE',  ( 11.76290598202795401, 22.06092635451058115, -34.31776698591022523 ) ) ;
#846 = ORIENTED_EDGE ( 'NONE', *, *, #240, .F. ) ;
#847 = DIRECTION ( 'NONE',  ( 1.000000000000000000, 0.000000000000000000, 0.000000000000000000 ) ) ;
#848 = FACE_OUTER_BOUND ( 'NONE', #487, .T. ) ;
#849 = DIRECTION ( 'NONE',  ( 0.000000000000000000, -1.000000000000000000, -6.982962677686266711E-15 ) ) ;
#850 = CARTESIAN_POINT ( 'NONE',  ( -10.00000000000000178, 4.538925740496073109E-13, -80.00000000000000000 ) ) ;
#851 = ORIENTED_EDGE ( 'NONE', *, *, #1025, .T. ) ;
#852 = DIRECTION ( 'NONE',  ( -1.000000000000000000, 0.000000000000000000, 0.000000000000000000 ) ) ;
#853 = ORIENTED_EDGE ( 'NONE', *, *, #970, .T. ) ;
#854 = AXIS2_PLACEMENT_3D ( 'NONE', #346, #181, #827 ) ;
#855 = CARTESIAN_POINT ( 'NONE',  ( -9.999999999999449329, 22.91287847477937234, -39.99999999999983658 ) ) ;
#856 = VERTEX_POINT ( 'NONE', #54 ) ;
#857 = EDGE_CURVE ( 'NONE', #261, #482, #824, .T. ) ;
#858 = PLANE ( 'NONE',  #183 ) ;
#859 = LINE ( 'NONE', #957, #478 ) ;
#860 = DIRECTION ( 'NONE',  ( 0.000000000000000000, -1.000000000000000000, -6.982962677686266711E-15 ) ) ;
#861 = CIRCLE ( 'NONE', #547, 49.98437255783051825 ) ;
#862 = VERTEX_POINT ( 'NONE', #750 ) ;
#863 = DIRECTION ( 'NONE',  ( 0.000000000000000000, 1.000000000000000000, 6.982962677686266711E-15 ) ) ;
#864 = EDGE_CURVE ( 'NONE', #498, #901, #206, .T. ) ;
#865 = LINE ( 'NONE', #143, #1017 ) ;
#866 = VECTOR ( 'NONE', #428, 1000.000000000000000 ) ;
#867 = CARTESIAN_POINT ( 'NONE',  ( -1.249999999999984457, -24.96873044429800359, 88.30127018922200932 ) ) ;
#868 = ORIENTED_EDGE ( 'NONE', *, *, #240, .T. ) ;
#869 = DIRECTION ( 'NONE',  ( 1.000000000000000000, 6.217248937900875838E-15, 0.000000000000000000 ) ) ;
#870 = DIRECTION ( 'NONE',  ( 0.000000000000000000, 6.982962677686266711E-15, -1.000000000000000000 ) ) ;
#871 = CARTESIAN_POINT ( 'NONE',  ( 9.999999999999987566, 22.91287847477914141, -39.22846348499309954 ) ) ;
#872 = EDGE_CURVE ( 'NONE', #510, #571, #375, .T. ) ;
#873 = CARTESIAN_POINT ( 'NONE',  ( 9.999999999999998224, -22.91287847477839890, -130.0000000000001705 ) ) ;
#874 = FACE_OUTER_BOUND ( 'NONE', #175, .T. ) ;
#875 = CARTESIAN_POINT ( 'NONE',  ( -1.249999999999984457, 24.96873044429655764, 88.30127018922237880 ) ) ;
#876 = B_SPLINE_CURVE_WITH_KNOTS ( 'NONE', 3,
 ( #307, #145, #698, #952, #633, #474, #795, #62, #220, #68, #1021, #636, #713, #703, #316, #542, #621, #312, #471, #553, #557, #789, #1037, #956 ),
 .UNSPECIFIED., .F., .F.,
 ( 4, 2, 2, 2, 2, 2, 2, 2, 2, 2, 2, 4 ),
 ( 0.000000000000000000, 0.002277627136900211603, 0.003416440705350327380, 0.004555254273800443156, 0.005694067842250559799, 0.006832881410700674708, 0.009110508547600894985, 0.01024932211605100382, 0.01138813568450111439, 0.01366576282140132340, 0.01594338995830153413, 0.01822101709520174487 ),
 .UNSPECIFIED. ) ;
#877 = AXIS2_PLACEMENT_3D ( 'NONE', #269, #127, #775 ) ;
#878 = AXIS2_PLACEMENT_3D ( 'NONE', #724, #405, #323 ) ;
#879 = CIRCLE ( 'NONE', #477, 25.00000000000000000 ) ;
#880 = ORIENTED_EDGE ( 'NONE', *, *, #574, .F. ) ;
#881 = CARTESIAN_POINT ( 'NONE',  ( 0.000000000000000000, 8.030407079339205960E-13, -130.0000000000000000 ) ) ;
#882 = LINE ( 'NONE', #133, #712 ) ;
#883 = DIRECTION ( 'NONE',  ( 0.000000000000000000, 1.000000000000000000, 6.982962677686266711E-15 ) ) ;
#884 = DIRECTION ( 'NONE',  ( -1.000000000000000000, 0.000000000000000000, -0.000000000000000000 ) ) ;
#885 = VERTEX_POINT ( 'NONE', #35 ) ;
#886 = CIRCLE ( 'NONE', #403, 25.00000000000000000 ) ;
#887 = DIRECTION ( 'NONE',  ( -1.000000000000000000, -0.000000000000000000, -0.000000000000000000 ) ) ;
#888 = EDGE_CURVE ( 'NONE', #444, #165, #928, .T. ) ;
#889 = LINE ( 'NONE', #809, #295 ) ;
#890 = ORIENTED_EDGE ( 'NONE', *, *, #413, .T. ) ;
#891 = VERTEX_POINT ( 'NONE', #927 ) ;
#892 = CARTESIAN_POINT ( 'NONE',  ( -10.85647049756299864, -22.52043955241000717, -35.93381744107153963 ) ) ;
#893 = VECTOR ( 'NONE', #426, 1000.000000000000000 ) ;
#894 = DIRECTION ( 'NONE',  ( 0.000000000000000000, 6.982962677686266711E-15, -1.000000000000000000 ) ) ;
#895 = ADVANCED_FACE ( 'NONE', ( #450 ), #105, .T. ) ;
#896 = VERTEX_POINT ( 'NONE', #855 ) ;
#897 = MECHANICAL_DESIGN_GEOMETRIC_PRESENTATION_REPRESENTATION (  '', ( #343 ), #495 ) ;
#898 = ORIENTED_EDGE ( 'NONE', *, *, #728, .T. ) ;
#899 = CARTESIAN_POINT ( 'NONE',  ( 0.000000000000000000, -1.250000000001048495, 135.1474486605139589 ) ) ;
#900 = SPHERICAL_SURFACE ( 'NONE', #597, 50.00000000000000711 ) ;
#901 = VERTEX_POINT ( 'NONE', #1008 ) ;
#902 = EDGE_CURVE ( 'NONE', #328, #891, #149, .T. ) ;
#903 = ORIENTED_EDGE ( 'NONE', *, *, #864, .F. ) ;
#904 = CARTESIAN_POINT ( 'NONE',  ( -15.86511017280905733, -19.32435477421092784, -30.88992982812036914 ) ) ;
#905 = AXIS2_PLACEMENT_3D ( 'NONE', #452, #280, #290 ) ;
#906 = FACE_OUTER_BOUND ( 'NONE', #799, .T. ) ;
#907 = ORIENTED_EDGE ( 'NONE', *, *, #534, .F. ) ;
#908 = VERTEX_POINT ( 'NONE', #768 ) ;
#909 = DIRECTION ( 'NONE',  ( 0.000000000000000000, 6.982962677686266711E-15, -1.000000000000000000 ) ) ;
#910 = PLANE ( 'NONE',  #642 ) ;
#911 = ORIENTED_EDGE ( 'NONE', *, *, #721, .T. ) ;
#912 = DIRECTION ( 'NONE',  ( 1.000000000000000000, 0.000000000000000000, 0.000000000000000000 ) ) ;
#913 = ORIENTED_EDGE ( 'NONE', *, *, #629, .T. ) ;
#914 = DIRECTION ( 'NONE',  ( 0.000000000000000000, -6.938893903907226800E-15, 1.000000000000000000 ) ) ;
#915 = ADVANCED_FACE ( 'NONE', ( #686 ), #773, .T. ) ;
#916 = DIRECTION ( 'NONE',  ( 1.000000000000000000, -1.065814103640150594E-14, 0.000000000000000000 ) ) ;
#917 = CARTESIAN_POINT ( 'NONE',  ( 14.21023912480546869, 20.57138485343680756, -31.83995391330553915 ) ) ;
#918 = VERTEX_POINT ( 'NONE', #271 ) ;
#919 = CARTESIAN_POINT ( 'NONE',  ( -10.00000000000000178, 22.91287847478000117, -129.9999999999998295 ) ) ;
#920 = DIRECTION ( 'NONE',  ( 0.000000000000000000, -6.982962677686266711E-15, 1.000000000000000000 ) ) ;
#921 = CARTESIAN_POINT ( 'NONE',  ( 19.99999999999999645, 1.047444401652940007E-13, -30.00000000000000000 ) ) ;
#922 = ORIENTED_EDGE ( 'NONE', *, *, #645, .T. ) ;
#923 = FACE_OUTER_BOUND ( 'NONE', #357, .T. ) ;
#924 = CARTESIAN_POINT ( 'NONE',  ( 1.250000000000004663, -1.048474030146183795E-12, 135.1474486605139589 ) ) ;
#925 = FACE_OUTER_BOUND ( 'NONE', #577, .T. ) ;
#926 = VECTOR ( 'NONE', #83, 1000.000000000000000 ) ;
#927 = CARTESIAN_POINT ( 'NONE',  ( -24.96873044429750266, -1.250000000000418998, 44.99999999999998579 ) ) ;
#928 = CIRCLE ( 'NONE', #292, 15.00000000000000000 ) ;
#929 = EDGE_LOOP ( 'NONE', ( #668, #334 ) ) ;
#930 = FACE_OUTER_BOUND ( 'NONE', #344, .T. ) ;
#931 = DIRECTION ( 'NONE',  ( -0.000000000000000000, -1.000000000000000000, -6.982962677686266711E-15 ) ) ;
#932 = VECTOR ( 'NONE', #472, 1000.000000000000000 ) ;
#933 = AXIS2_PLACEMENT_3D ( 'NONE', #831, #370, #531 ) ;
#934 = DIRECTION ( 'NONE',  ( 0.000000000000000000, -1.000000000000000000, -6.982962677686266711E-15 ) ) ;
#935 = EDGE_CURVE ( 'NONE', #986, #322, #976, .T. ) ;
#936 = ORIENTED_EDGE ( 'NONE', *, *, #721, .F. ) ;
#937 = DIRECTION ( 'NONE',  ( 0.000000000000000000, -6.982962677686267499E-15, 1.000000000000000000 ) ) ;
#938 = CARTESIAN_POINT ( 'NONE',  ( -24.96873044429750266, 1.249999999999581002, 45.00000000000001421 ) ) ;
#939 = CIRCLE ( 'NONE', #239, 49.98437255783053246 ) ;
#940 = ORIENTED_EDGE ( 'NONE', *, *, #469, .F. ) ;
#941 = EDGE_CURVE ( 'NONE', #1051, #17, #879, .T. ) ;
#942 = DIRECTION ( 'NONE',  ( 0.000000000000000000, 6.982962677686266711E-15, -1.000000000000000000 ) ) ;
#943 = CARTESIAN_POINT ( 'NONE',  ( -16.42524151127982535, 18.86156530485185456, -30.64339366819814003 ) ) ;
#944 = DIRECTION ( 'NONE',  ( 1.000000000000000000, 0.000000000000000000, 0.000000000000000000 ) ) ;
#945 = EDGE_LOOP ( 'NONE', ( #414, #593, #820, #331 ) ) ;
#946 = FACE_OUTER_BOUND ( 'NONE', #813, .T. ) ;
#947 = EDGE_CURVE ( 'NONE', #301, #1030, #67, .T. ) ;
#948 = CIRCLE ( 'NONE', #169, 55.00000000000000711 ) ;
#949 = CARTESIAN_POINT ( 'NONE',  ( -14.20546664220670507, 20.57467106829667358, -31.84335771784638780 ) ) ;
#950 = CIRCLE ( 'NONE', #1002, 24.99999999999977973 ) ;
#951 = CARTESIAN_POINT ( 'NONE',  ( 9.999999999999998224, 22.91287847478000117, -129.9999999999998295 ) ) ;
#952 = CARTESIAN_POINT ( 'NONE',  ( 10.34494073580749784, -22.75941639119765725, -37.36876965075209256 ) ) ;
#953 = CARTESIAN_POINT ( 'NONE',  ( -1.249999999999995559, 24.96873044429708344, 45.00000000000017764 ) ) ;
#954 = DIRECTION ( 'NONE',  ( -0.000000000000000000, -1.000000000000000000, -6.982962677686266711E-15 ) ) ;
#955 = ORIENTED_EDGE ( 'NONE', *, *, #670, .T. ) ;
#956 = CARTESIAN_POINT ( 'NONE',  ( 19.99999999999999645, -14.99999999999990408, -30.00000000000010303 ) ) ;
#957 = CARTESIAN_POINT ( 'NONE',  ( 0.000000000000000000, 1.249999999999581002, 45.00000000000001421 ) ) ;
#958 = CARTESIAN_POINT ( 'NONE',  ( 25.00000000000000000, -2.706996547296930273E-13, -30.00000000000000000 ) ) ;
#959 = AXIS2_PLACEMENT_3D ( 'NONE', #108, #679, #689 ) ;
#960 = AXIS2_PLACEMENT_3D ( 'NONE', #533, #1014, #669 ) ;
#961 = CARTESIAN_POINT ( 'NONE',  ( -13.93689095809869372, -20.75723747140060382, -32.04038870231462255 ) ) ;
#962 = DIRECTION ( 'NONE',  ( 0.000000000000000000, -6.982962677686266711E-15, 1.000000000000000000 ) ) ;
#963 = EDGE_LOOP ( 'NONE', ( #30, #784, #570, #348 ) ) ;
#964 = EDGE_CURVE ( 'NONE', #249, #362, #694, .T. ) ;
#965 = CARTESIAN_POINT ( 'NONE',  ( -15.58725087264779141, -19.54891974181833803, -31.02080700683546510 ) ) ;
#966 = DIRECTION ( 'NONE',  ( -0.000000000000000000, 1.000000000000000000, 6.982962677686266711E-15 ) ) ;
#967 = ORIENTED_EDGE ( 'NONE', *, *, #728, .F. ) ;
#968 = VECTOR ( 'NONE', #1018, 1000.000000000000000 ) ;
#969 = ORIENTED_EDGE ( 'NONE', *, *, #443, .F. ) ;
#970 = EDGE_CURVE ( 'NONE', #279, #362, #700, .T. ) ;
#971 = DIRECTION ( 'NONE',  ( 0.000000000000000000, -6.982962677686267499E-15, 1.000000000000000000 ) ) ;
#972 = CYLINDRICAL_SURFACE ( 'NONE', #812, 10.00000000000000178 ) ;
#973 = ORIENTED_EDGE ( 'NONE', *, *, #757, .T. ) ;
#974 = CARTESIAN_POINT ( 'NONE',  ( -11.18332432234085161, -22.35992858663793825, -35.26669223909501483 ) ) ;
#975 = VECTOR ( 'NONE', #262, 1000.000000000000000 ) ;
#976 = CIRCLE ( 'NONE', #424, 49.98437255783053246 ) ;
#977 = LINE ( 'NONE', #806, #564 ) ;
#978 = ADVANCED_FACE ( 'NONE', ( #544 ), #777, .T. ) ;
#979 = ORIENTED_EDGE ( 'NONE', *, *, #443, .T. ) ;
#980 = PRESENTATION_LAYER_ASSIGNMENT (  '', '', ( #343 ) ) ;
#981 = VERTEX_POINT ( 'NONE', #867 ) ;
#982 = CARTESIAN_POINT ( 'NONE',  ( -10.00000000000000178, 22.91287847477937234, -39.99999999999983658 ) ) ;
#983 = CARTESIAN_POINT ( 'NONE',  ( 24.96873044429728594, -1.250000000000710321, 88.30127018922217985 ) ) ;
#984 = ORIENTED_EDGE ( 'NONE', *, *, #670, .F. ) ;
#985 = EDGE_CURVE ( 'NONE', #125, #493, #229, .T. ) ;
#986 = VERTEX_POINT ( 'NONE', #1035 ) ;
#987 = DIRECTION ( 'NONE',  ( 0.000000000000000000, 1.000000000000000000, 6.982962677686266711E-15 ) ) ;
#988 = AXIS2_PLACEMENT_3D ( 'NONE', #188, #834, #440 ) ;
#989 = FACE_OUTER_BOUND ( 'NONE', #591, .T. ) ;
#990 = ORIENTED_EDGE ( 'NONE', *, *, #964, .F. ) ;
#991 = CARTESIAN_POINT ( 'NONE',  ( 0.000000000000000000, -4.189777606611760026E-13, 45.00000000000000000 ) ) ;
#992 = ORIENTED_EDGE ( 'NONE', *, *, #59, .F. ) ;
#993 = CARTESIAN_POINT ( 'NONE',  ( -1.249999999999995559, -49.98437255783093747, 44.99999999999965183 ) ) ;
#994 = ADVANCED_BREP_SHAPE_REPRESENTATION ( 'N1004_structure', ( #56, #665 ), #435 ) ;
#995 = LINE ( 'NONE', #114, #725 ) ;
#996 = VECTOR ( 'NONE', #673, 1000.000000000000000 ) ;
#997 =( NAMED_UNIT ( * ) PLANE_ANGLE_UNIT ( ) SI_UNIT ( $, .RADIAN. ) );
#998 = DIRECTION ( 'NONE',  ( -0.000000000000000000, -1.000000000000000000, -6.982962677686266711E-15 ) ) ;
#999 = VERTEX_POINT ( 'NONE', #232 ) ;
#1000 = LINE ( 'NONE', #822, #893 ) ;
#1001 = EDGE_CURVE ( 'NONE', #1030, #36, #803, .T. ) ;
#1002 = AXIS2_PLACEMENT_3D ( 'NONE', #830, #590, #916 ) ;
#1003 = DIRECTION ( 'NONE',  ( 0.000000000000000000, 6.982962677686266711E-15, -1.000000000000000000 ) ) ;
#1004 = EDGE_LOOP ( 'NONE', ( #612, #24, #42 ) ) ;
#1005 = LINE ( 'NONE', #274, #19 ) ;
#1006 = DIRECTION ( 'NONE',  ( 0.000000000000000000, 6.982962677686266711E-15, -1.000000000000000000 ) ) ;
#1007 = VERTEX_POINT ( 'NONE', #627 ) ;
#1008 = CARTESIAN_POINT ( 'NONE',  ( -10.00000000000000178, -22.91287847477839890, -130.0000000000001705 ) ) ;
#1009 = ORIENTED_EDGE ( 'NONE', *, *, #342, .T. ) ;
#1010 = CARTESIAN_POINT ( 'NONE',  ( 0.000000000000000000, 1.047444401652940007E-13, -30.00000000000000000 ) ) ;
#1011 = CARTESIAN_POINT ( 'NONE',  ( 10.00000000000000711, 22.91287847477930484, -29.99999999999984013 ) ) ;
#1012 = ORIENTED_EDGE ( 'NONE', *, *, #349, .F. ) ;
#1013 = EDGE_CURVE ( 'NONE', #379, #493, #350, .T. ) ;
#1014 = DIRECTION ( 'NONE',  ( 1.000000000000000000, 0.000000000000000000, 0.000000000000000000 ) ) ;
#1015 = EDGE_LOOP ( 'NONE', ( #451, #367, #743 ) ) ;
#1016 = CYLINDRICAL_SURFACE ( 'NONE', #394, 15.00000000000000000 ) ;
#1017 = VECTOR ( 'NONE', #481, 1000.000000000000000 ) ;
#1018 = DIRECTION ( 'NONE',  ( 0.000000000000000000, 6.982962677686266711E-15, -1.000000000000000000 ) ) ;
#1019 = EDGE_CURVE ( 'NONE', #762, #583, #538, .T. ) ;
#1020 = ORIENTED_EDGE ( 'NONE', *, *, #1019, .T. ) ;
#1021 = CARTESIAN_POINT ( 'NONE',  ( 11.96765633125983186, -21.95089266265113537, -34.03248567420560988 ) ) ;
#1022 = PLANE ( 'NONE',  #10 ) ;
#1023 = DIRECTION ( 'NONE',  ( 1.000000000000000000, 0.000000000000000000, 0.000000000000000000 ) ) ;
#1024 = ORIENTED_EDGE ( 'NONE', *, *, #118, .T. ) ;
#1025 = EDGE_CURVE ( 'NONE', #901, #908, #791, .T. ) ;
#1026 = CARTESIAN_POINT ( 'NONE',  ( 0.000000000000000000, -4.189777606611760026E-13, 45.00000000000000000 ) ) ;
#1027 = CARTESIAN_POINT ( 'NONE',  ( 0.000000000000000000, 1.047444401652940007E-13, -30.00000000000000000 ) ) ;
#1028 = DIRECTION ( 'NONE',  ( -0.000000000000000000, 1.000000000000000000, 6.982962677686267499E-15 ) ) ;
#1029 = CIRCLE ( 'NONE', #203, 24.99999999999977973 ) ;
#1030 = VERTEX_POINT ( 'NONE', #875 ) ;
#1031 = EDGE_CURVE ( 'NONE', #1007, #885, #147, .T. ) ;
#1032 = LINE ( 'NONE', #142, #275 ) ;
#1033 = VECTOR ( 'NONE', #790, 1000.000000000000000 ) ;
#1034 = DIRECTION ( 'NONE',  ( 1.000000000000000000, 0.000000000000000000, 0.000000000000000000 ) ) ;
#1035 = CARTESIAN_POINT ( 'NONE',  ( 49.98437255783052535, -1.250000000000418998, 44.99999999999998579 ) ) ;
#1036 = B_SPLINE_CURVE_WITH_KNOTS ( 'NONE', 3,
 ( #251, #805, #245, #340, #87, #641, #650, #904, #965, #500, #659, #578, #961, #572, #415, #1056, #654, #91, #974, #892, #72, #568, #808, #420, #167, #156 ),
 .UNSPECIFIED., .F., .F.,
 ( 4, 2, 2, 2, 2, 2, 2, 2, 2, 2, 2, 2, 4 ),
 ( 0.000000000000000000, 0.002271251611878868058, 0.004542503223757736117, 0.005678129029697165375, 0.006813754835636595501, 0.007949380641576022158, 0.009085006447515449682, 0.01135625805939431340, 0.01249188386533374787, 0.01362750967127318580, 0.01476313547721262026, 0.01589876128315205819, 0.01817001289503092712 ),
 .UNSPECIFIED. ) ;
#1037 = CARTESIAN_POINT ( 'NONE',  ( 19.54035209404347029, -15.61286387460823555, -30.00000000000011369 ) ) ;
#1038 = CARTESIAN_POINT ( 'NONE',  ( -11.35838197093646151, 22.27187923204676068, -34.95441247918565608 ) ) ;
#1039 = CARTESIAN_POINT ( 'NONE',  ( 24.96873044429750266, 1.250000000000104805, -29.99999999999998934 ) ) ;
#1040 = ORIENTED_EDGE ( 'NONE', *, *, #964, .T. ) ;
#1041 = CARTESIAN_POINT ( 'NONE',  ( -10.00000000000000178, 4.538925740496073109E-13, -80.00000000000000000 ) ) ;
#1042 = DIRECTION ( 'NONE',  ( 1.000000000000000000, 0.000000000000000000, 0.000000000000000000 ) ) ;
#1043 = ADVANCED_FACE ( 'NONE', ( #562 ), #64, .F. ) ;
#1044 = VECTOR ( 'NONE', #1006, 1000.000000000000000 ) ;
#1045 = EDGE_LOOP ( 'NONE', ( #853, #751, #461, #193 ) ) ;
#1046 = CARTESIAN_POINT ( 'NONE',  ( 0.000000000000000000, -4.189777606611760026E-13, 45.00000000000000000 ) ) ;
#1047 = DIRECTION ( 'NONE',  ( 0.000000000000000000, 6.982962677686266711E-15, -1.000000000000000000 ) ) ;
#1048 = EDGE_LOOP ( 'NONE', ( #600, #890, #955, #540 ) ) ;
#1049 = AXIS2_PLACEMENT_3D ( 'NONE', #631, #70, #549 ) ;
#1050 = ADVANCED_FACE ( 'NONE', ( #797, #460 ), #638, .F. ) ;
#1051 = VERTEX_POINT ( 'NONE', #958 ) ;
#1052 = DIRECTION ( 'NONE',  ( 1.000000000000000000, 0.000000000000000000, 0.000000000000000000 ) ) ;
#1053 = CARTESIAN_POINT ( 'NONE',  ( -24.96873044429728594, -1.250000000000710321, 88.30127018922217985 ) ) ;
#1054 = SHAPE_DEFINITION_REPRESENTATION ( #521, #994 ) ;
#1055 = ORIENTED_EDGE ( 'NONE', *, *, #888, .F. ) ;
#1056 = CARTESIAN_POINT ( 'NONE',  ( -11.97647981198261924, -21.94606981415724078, -34.02073785511012716 ) ) ;
#1057 = EDGE_CURVE ( 'NONE', #141, #492, #465, .T. ) ;
ENDSEC;
END-ISO-10303-21;
