ISO-10303-21;
HEADER;
FILE_DESCRIPTION (( 'STEP AP214' ),
    '1' );
FILE_NAME ('N1404_structure.STEP',
    '2026-01-16T02:05:02',
    ( '' ),
    ( '' ),
    'SwSTEP 2.0',
    'SolidWorks 2024',
    '' );
FILE_SCHEMA (( 'AUTOMOTIVE_DESIGN' ));
ENDSEC;

DATA;
#1 = STYLED_ITEM ( 'NONE', ( #46 ), #599 ) ;
#2 = ORIENTED_EDGE ( 'NONE', *, *, #173, .F. ) ;
#3 = CARTESIAN_POINT ( 'NONE',  ( -9.999999999999998224, 59.99999999999982236, 22.91287847477943984 ) ) ;
#4 = CARTESIAN_POINT ( 'NONE',  ( 14.75202264291534071, 51.48142243017549191, -20.18638650264983170 ) ) ;
#5 = ORIENTED_EDGE ( 'NONE', *, *, #9, .T. ) ;
#6 = CARTESIAN_POINT ( 'NONE',  ( 17.51173008777524487, 50.29775834433588955, -17.85739381281517169 ) ) ;
#7 =( BOUNDED_CURVE ( )  B_SPLINE_CURVE ( 3, ( #769, #381, #579, #640 ),
 .UNSPECIFIED., .F., .F. ) 
 B_SPLINE_CURVE_WITH_KNOTS ( ( 4, 4 ),
 ( 3.141592653589793116, 3.665191429188091821 ),
 .UNSPECIFIED. ) 
 CURVE ( )  GEOMETRIC_REPRESENTATION_ITEM ( )  RATIONAL_B_SPLINE_CURVE ( ( 1.000000000000000000, 0.9772838841927120601, 0.9772838841927120601, 1.000000000000000000 ) ) 
 REPRESENTATION_ITEM ( '' )  );
#8 = ORIENTED_EDGE ( 'NONE', *, *, #9, .F. ) ;
#9 = EDGE_CURVE ( 'NONE', #654, #162, #332, .T. ) ;
#10 = CARTESIAN_POINT ( 'NONE',  ( -19.99999999999999645, 59.99999999999982236, 22.91287847477943984 ) ) ;
#11 = VECTOR ( 'NONE', #700, 1000.000000000000000 ) ;
#12 = ORIENTED_EDGE ( 'NONE', *, *, #666, .T. ) ;
#13 = VERTEX_POINT ( 'NONE', #644 ) ;
#14 = CARTESIAN_POINT ( 'NONE',  ( -9.999999999999998224, 150.0000000000001705, -22.91287847477832429 ) ) ;
#15 = CARTESIAN_POINT ( 'NONE',  ( 0.000000000000000000, -24.99999999999999289, -3.491481338843132850E-13 ) ) ;
#16 = ORIENTED_EDGE ( 'NONE', *, *, #695, .F. ) ;
#17 = DIRECTION ( 'NONE',  ( 0.000000000000000000, -7.401486830834377462E-15, 1.000000000000000000 ) ) ;
#18 = EDGE_CURVE ( 'NONE', #457, #533, #782, .T. ) ;
#19 = CARTESIAN_POINT ( 'NONE',  ( 20.00000000000000355, 49.99999999999988631, 15.00000000000017231 ) ) ;
#20 = ORIENTED_EDGE ( 'NONE', *, *, #379, .F. ) ;
#21 = B_SPLINE_CURVE_WITH_KNOTS ( 'NONE', 3,
 ( #19, #772, #134, #204, #143, #212, #657, #784, #48, #464, #648, #348, #109, #44, #719, #521, #596, #39, #470, #609, #778, #604, #714, #282, #794, #287 ),
 .UNSPECIFIED., .F., .F.,
 ( 4, 2, 2, 2, 2, 2, 2, 2, 2, 2, 2, 2, 4 ),
 ( 0.000000000000000000, 0.002271251611878880201, 0.004542503223757760403, 0.005678129029697205274, 0.006813754835636648410, 0.007949380641576095016, 0.009085006447515543357, 0.01135625805939442269, 0.01249188386533386062, 0.01362750967127330029, 0.01476313547721274169, 0.01589876128315218309, 0.01817001289503106243 ),
 .UNSPECIFIED. ) ;
#22 = DIRECTION ( 'NONE',  ( 0.000000000000000000, -6.982962677686266711E-15, 1.000000000000000000 ) ) ;
#23 = FACE_OUTER_BOUND ( 'NONE', #605, .T. ) ;
#24 = ORIENTED_EDGE ( 'NONE', *, *, #789, .T. ) ;
#25 = CIRCLE ( 'NONE', #190, 15.00000000000000000 ) ;
#26 = DIRECTION ( 'NONE',  ( 0.000000000000000000, -6.938893903907228378E-15, 1.000000000000000000 ) ) ;
#27 = CARTESIAN_POINT ( 'NONE',  ( -9.999999999999998224, 99.99999999999998579, 5.237222008264700285E-13 ) ) ;
#28 = CARTESIAN_POINT ( 'NONE',  ( 47.71518800929526094, -42.35487007519935077, -3.741519009359563902E-13 ) ) ;
#29 = ORIENTED_EDGE ( 'NONE', *, *, #789, .F. ) ;
#30 = CARTESIAN_POINT ( 'NONE',  ( 0.000000000000000000, -87.49999999999991473, -7.855833012397041845E-13 ) ) ;
#31 = EDGE_CURVE ( 'NONE', #449, #721, #145, .T. ) ;
#32 = ORIENTED_EDGE ( 'NONE', *, *, #637, .T. ) ;
#33 = CARTESIAN_POINT ( 'NONE',  ( -14.75766441274085494, 51.47793448045235465, -20.18227221730205656 ) ) ;
#34 = ORIENTED_EDGE ( 'NONE', *, *, #675, .F. ) ;
#35 = DIRECTION ( 'NONE',  ( 0.000000000000000000, -7.050863183406398984E-15, 1.000000000000000000 ) ) ;
#36 = ADVANCED_FACE ( 'NONE', ( #702 ), #736, .T. ) ;
#37 = DIRECTION ( 'NONE',  ( 0.000000000000000000, -7.050863183406451837E-15, 1.000000000000000000 ) ) ;
#38 = CIRCLE ( 'NONE', #116, 25.00000000000000000 ) ;
#39 = CARTESIAN_POINT ( 'NONE',  ( 11.36471361680213121, 54.94338858844386664, 22.26867111368020602 ) ) ;
#40 = ORIENTED_EDGE ( 'NONE', *, *, #18, .T. ) ;
#41 = SURFACE_STYLE_FILL_AREA ( #111 ) ;
#42 = PRODUCT_RELATED_PRODUCT_CATEGORY ( 'part', '', ( #65 ) ) ;
#43 = CARTESIAN_POINT ( 'NONE',  ( -11.96765633125987449, 54.03248567420524040, 21.95089266265170025 ) ) ;
#44 = CARTESIAN_POINT ( 'NONE',  ( 13.14329927628809358, 52.68888050690149072, 21.27564410828023256 ) ) ;
#45 = ORIENTED_EDGE ( 'NONE', *, *, #177, .T. ) ;
#46 = PRESENTATION_STYLE_ASSIGNMENT (( #780 ) ) ;
#47 = CARTESIAN_POINT ( 'NONE',  ( -19.54035209404364437, 49.99999999999989342, 15.61286387460866365 ) ) ;
#48 = CARTESIAN_POINT ( 'NONE',  ( 15.58725087264790687, 51.02080700683513470, 19.54891974181881054 ) ) ;
#49 = ORIENTED_EDGE ( 'NONE', *, *, #117, .F. ) ;
#50 = DIRECTION ( 'NONE',  ( -0.000000000000000000, 1.000000000000000000, 6.982962677686266711E-15 ) ) ;
#51 = CARTESIAN_POINT ( 'NONE',  ( 10.00000000000001243, 49.99999999999982947, 22.91287847477936879 ) ) ;
#52 = CARTESIAN_POINT ( 'NONE',  ( 43.30127018922212301, -49.99999999999938893, -86.60254037844467234 ) ) ;
#53 = ORIENTED_EDGE ( 'NONE', *, *, #675, .T. ) ;
#54 = DIRECTION ( 'NONE',  ( -0.000000000000000000, 1.000000000000000000, 6.982962677686266711E-15 ) ) ;
#55 = DIRECTION ( 'NONE',  ( -0.000000000000000000, 1.000000000000000000, 6.982962677686266711E-15 ) ) ;
#56 = AXIS2_PLACEMENT_3D ( 'NONE', #367, #123, #750 ) ;
#57 = CARTESIAN_POINT ( 'NONE',  ( -47.71518800929526094, -42.35487007519935077, -3.816564108136666695E-13 ) ) ;
#58 = VECTOR ( 'NONE', #149, 1000.000000000000000 ) ;
#59 = FACE_OUTER_BOUND ( 'NONE', #228, .T. ) ;
#60 = CARTESIAN_POINT ( 'NONE',  ( 11.17802233047724414, 55.27660401967398229, -22.36257499133366977 ) ) ;
#61 = DIRECTION ( 'NONE',  ( 1.000000000000000000, 0.000000000000000000, 0.000000000000000000 ) ) ;
#62 = LINE ( 'NONE', #491, #374 ) ;
#63 = CIRCLE ( 'NONE', #623, 25.00000000000000000 ) ;
#64 = AXIS2_PLACEMENT_3D ( 'NONE', #454, #330, #574 ) ;
#65 = PRODUCT ( 'N1404_structure', 'N1404_structure', '', ( #429 ) ) ;
#66 = ORIENTED_EDGE ( 'NONE', *, *, #576, .F. ) ;
#67 = ADVANCED_FACE ( 'NONE', ( #211 ), #767, .T. ) ;
#68 = CARTESIAN_POINT ( 'NONE',  ( 0.000000000000000000, -87.49999999999991473, -7.855833012397041845E-13 ) ) ;
#69 = CYLINDRICAL_SURFACE ( 'NONE', #563, 25.00000000000000000 ) ;
#70 = VERTEX_POINT ( 'NONE', #156 ) ;
#71 = EDGE_CURVE ( 'NONE', #125, #562, #586, .T. ) ;
#72 = ORIENTED_EDGE ( 'NONE', *, *, #326, .F. ) ;
#73 = DIRECTION ( 'NONE',  ( 0.000000000000000000, -6.938893903907228378E-15, 1.000000000000000000 ) ) ;
#74 = ORIENTED_EDGE ( 'NONE', *, *, #400, .T. ) ;
#75 = CARTESIAN_POINT ( 'NONE',  ( 0.000000000000000000, -87.49999999999991473, -7.855833012397041845E-13 ) ) ;
#76 = EDGE_LOOP ( 'NONE', ( #800, #53 ) ) ;
#77 = CARTESIAN_POINT ( 'NONE',  ( -9.999999999999998224, 99.99999999999988631, 15.00000000000052403 ) ) ;
#78 = VECTOR ( 'NONE', #634, 1000.000000000000000 ) ;
#79 = ORIENTED_EDGE ( 'NONE', *, *, #128, .T. ) ;
#80 = LINE ( 'NONE', #759, #568 ) ;
#81 = ORIENTED_EDGE ( 'NONE', *, *, #267, .F. ) ;
#82 = PLANE ( 'NONE',  #64 ) ;
#83 = EDGE_CURVE ( 'NONE', #395, #542, #238, .T. ) ;
#84 = VERTEX_POINT ( 'NONE', #468 ) ;
#85 = DIRECTION ( 'NONE',  ( -0.000000000000000000, 1.000000000000000000, 6.982962677686266711E-15 ) ) ;
#86 = CARTESIAN_POINT ( 'NONE',  ( -50.00000000000002132, -25.00000000000069988, 99.99999999999961631 ) ) ;
#87 = LINE ( 'NONE', #570, #553 ) ;
#88 = CARTESIAN_POINT ( 'NONE',  ( 0.000000000000000000, 49.99999999999998579, 1.745740669421566173E-13 ) ) ;
#89 = CARTESIAN_POINT ( 'NONE',  ( -11.97647981198265477, 54.02073785511004900, -21.94606981415740066 ) ) ;
#90 = ORIENTED_EDGE ( 'NONE', *, *, #173, .T. ) ;
#91 = AXIS2_PLACEMENT_3D ( 'NONE', #68, #317, #558 ) ;
#92 = CYLINDRICAL_SURFACE ( 'NONE', #665, 10.00000000000000178 ) ;
#93 = AXIS2_PLACEMENT_3D ( 'NONE', #591, #22, #387 ) ;
#94 = CARTESIAN_POINT ( 'NONE',  ( -50.00000000000002132, -33.82783564014732036, 99.99999999999954525 ) ) ;
#95 = CARTESIAN_POINT ( 'NONE',  ( -13.14329927628808647, 52.68888050690181046, -21.27564410827986308 ) ) ;
#96 = EDGE_CURVE ( 'NONE', #533, #364, #459, .T. ) ;
#97 = ORIENTED_EDGE ( 'NONE', *, *, #443, .T. ) ;
#98 = CARTESIAN_POINT ( 'NONE',  ( -4.272503163617866469E-13, -100.0000000000000000, -8.728703347107833136E-13 ) ) ;
#99 = CARTESIAN_POINT ( 'NONE',  ( 50.00000000000020606, -33.82783564014592770, -100.0000000000006963 ) ) ;
#100 = ORIENTED_EDGE ( 'NONE', *, *, #781, .T. ) ;
#101 = CARTESIAN_POINT ( 'NONE',  ( 0.000000000000000000, -50.00000000000000000, -5.237222008264700285E-13 ) ) ;
#102 = PLANE ( 'NONE',  #373 ) ;
#103 = AXIS2_PLACEMENT_3D ( 'NONE', #481, #615, #477 ) ;
#104 = CARTESIAN_POINT ( 'NONE',  ( -18.04628363363722343, 50.17942512981394287, -17.31761082042000055 ) ) ;
#105 = EDGE_LOOP ( 'NONE', ( #508, #280, #796, #629, #205, #417 ) ) ;
#106 = CYLINDRICAL_SURFACE ( 'NONE', #325, 15.00000000000000000 ) ;
#107 = EDGE_CURVE ( 'NONE', #196, #395, #263, .T. ) ;
#108 = LINE ( 'NONE', #621, #201 ) ;
#109 = CARTESIAN_POINT ( 'NONE',  ( 13.93689095809878076, 52.04038870231423175, 20.75723747140111897 ) ) ;
#110 = EDGE_LOOP ( 'NONE', ( #705, #130 ) ) ;
#111 = FILL_AREA_STYLE ('',( #659 ) ) ;
#112 = CARTESIAN_POINT ( 'NONE',  ( -10.34494073580750317, 57.36876965075174439, 22.75941639119828253 ) ) ;
#113 = ORIENTED_EDGE ( 'NONE', *, *, #695, .T. ) ;
#114 = DIRECTION ( 'NONE',  ( 1.000000000000000000, 0.000000000000000000, 0.000000000000000000 ) ) ;
#115 = DIRECTION ( 'NONE',  ( 0.000000000000000000, -7.401486830834377462E-15, 1.000000000000000000 ) ) ;
#116 = AXIS2_PLACEMENT_3D ( 'NONE', #314, #552, #748 ) ;
#117 = EDGE_CURVE ( 'NONE', #687, #536, #693, .T. ) ;
#118 = DIRECTION ( 'NONE',  ( 0.000000000000000000, 6.982962677686266711E-15, -1.000000000000000000 ) ) ;
#119 = CARTESIAN_POINT ( 'NONE',  ( 10.00000000000000178, 149.9999999999998295, 22.91287847478006867 ) ) ;
#120 = CARTESIAN_POINT ( 'NONE',  ( 0.000000000000000000, 150.0000000000000000, 8.728703347107833136E-13 ) ) ;
#121 = ADVANCED_FACE ( 'NONE', ( #646 ), #641, .F. ) ;
#122 = DIRECTION ( 'NONE',  ( -1.000000000000000000, 0.000000000000000000, 0.000000000000000000 ) ) ;
#123 = DIRECTION ( 'NONE',  ( 0.000000000000000000, 0.000000000000000000, 1.000000000000000000 ) ) ;
#124 = CARTESIAN_POINT ( 'NONE',  ( 15.02800557802889436, 51.31794645983923431, -19.98204773229062425 ) ) ;
#125 = VERTEX_POINT ( 'NONE', #98 ) ;
#126 = CARTESIAN_POINT ( 'NONE',  ( -4.287811248607207984E-13, -75.00000000000001421, -6.982962677686266711E-13 ) ) ;
#127 = CARTESIAN_POINT ( 'NONE',  ( 10.00000000000000178, 150.0000000000001705, -22.91287847477832429 ) ) ;
#128 = EDGE_CURVE ( 'NONE', #449, #162, #306, .T. ) ;
#129 = VECTOR ( 'NONE', #799, 1000.000000000000000 ) ;
#130 = ORIENTED_EDGE ( 'NONE', *, *, #544, .F. ) ;
#131 = AXIS2_PLACEMENT_3D ( 'NONE', #520, #511, #142 ) ;
#132 = DIRECTION ( 'NONE',  ( 0.000000000000000000, -6.982962677686266711E-15, 1.000000000000000000 ) ) ;
#133 = ORIENTED_EDGE ( 'NONE', *, *, #624, .F. ) ;
#134 = CARTESIAN_POINT ( 'NONE',  ( 19.05668644110023990, 50.03150673618504385, 16.19909563521397189 ) ) ;
#135 = EDGE_LOOP ( 'NONE', ( #694, #755 ) ) ;
#136 = DIRECTION ( 'NONE',  ( -0.000000000000000000, 1.000000000000000000, 6.982962677686266711E-15 ) ) ;
#137 = ORIENTED_EDGE ( 'NONE', *, *, #407, .F. ) ;
#138 = DIRECTION ( 'NONE',  ( 0.000000000000000000, 6.982962677686266711E-15, -1.000000000000000000 ) ) ;
#139 =( GEOMETRIC_REPRESENTATION_CONTEXT ( 3 ) GLOBAL_UNCERTAINTY_ASSIGNED_CONTEXT ( ( #607 ) ) GLOBAL_UNIT_ASSIGNED_CONTEXT ( ( #299, #792, #673 ) ) REPRESENTATION_CONTEXT ( 'NONE', 'WORKASPACE' ) );
#140 = CARTESIAN_POINT ( 'NONE',  ( -9.999999999999998224, 50.00000000000014921, -22.91287847477902417 ) ) ;
#141 = EDGE_CURVE ( 'NONE', #261, #395, #727, .T. ) ;
#142 = DIRECTION ( 'NONE',  ( 0.000000000000000000, -6.982962677686266711E-15, 1.000000000000000000 ) ) ;
#143 = CARTESIAN_POINT ( 'NONE',  ( 17.51938513531470676, 50.29560880326218353, 17.85006891456137978 ) ) ;
#144 = EDGE_CURVE ( 'NONE', #527, #84, #176, .T. ) ;
#145 = LINE ( 'NONE', #140, #193 ) ;
#146 = CARTESIAN_POINT ( 'NONE',  ( -10.08812750137402325, 58.47028930520827572, -22.87501038206986337 ) ) ;
#147 = ORIENTED_EDGE ( 'NONE', *, *, #107, .T. ) ;
#148 = CARTESIAN_POINT ( 'NONE',  ( -19.99999999999999645, 49.99999999999988631, 15.00000000000018296 ) ) ;
#149 = DIRECTION ( 'NONE',  ( -0.000000000000000000, -6.982962677686266711E-15, 1.000000000000000000 ) ) ;
#150 = AXIS2_PLACEMENT_3D ( 'NONE', #241, #487, #667 ) ;
#151 = ADVANCED_FACE ( 'NONE', ( #731 ), #178, .T. ) ;
#152 = CARTESIAN_POINT ( 'NONE',  ( -15.03353059810918602, 51.31481471990808529, -19.97787803032736775 ) ) ;
#153 = EDGE_LOOP ( 'NONE', ( #382, #402 ) ) ;
#154 = AXIS2_PLACEMENT_3D ( 'NONE', #126, #627, #752 ) ;
#155 = CARTESIAN_POINT ( 'NONE',  ( -9.999999999999998224, 49.99999999999982947, 22.91287847477936879 ) ) ;
#156 = CARTESIAN_POINT ( 'NONE',  ( 0.000000000000000000, -50.00000000000030553, 43.30127018922142668 ) ) ;
#157 = CARTESIAN_POINT ( 'NONE',  ( -10.00000000000000000, 59.22846348499322744, -22.91287847477896378 ) ) ;
#158 = ORIENTED_EDGE ( 'NONE', *, *, #83, .T. ) ;
#159 = CARTESIAN_POINT ( 'NONE',  ( 0.000000000000000000, 49.99999999999981526, 25.00000000000017764 ) ) ;
#160 = CARTESIAN_POINT ( 'NONE',  ( 3.061616997868387381E-15, 50.00000000000016342, -24.99999999999982947 ) ) ;
#161 = CARTESIAN_POINT ( 'NONE',  ( 47.71518800929544568, -42.35487007519868285, -95.43037601859127506 ) ) ;
#162 = VERTEX_POINT ( 'NONE', #160 ) ;
#163 = CARTESIAN_POINT ( 'NONE',  ( -9.999999999999998224, 149.9999999999998295, 22.91287847478006867 ) ) ;
#164 = ADVANCED_FACE ( 'NONE', ( #797, #529 ), #102, .T. ) ;
#165 = CARTESIAN_POINT ( 'NONE',  ( -18.03830236948229526, 50.18093030597444937, 17.32601321129856231 ) ) ;
#166 = CARTESIAN_POINT ( 'NONE',  ( -19.05668644110023635, 50.03150673618529254, -16.19909563521363083 ) ) ;
#167 = ORIENTED_EDGE ( 'NONE', *, *, #763, .F. ) ;
#168 = LINE ( 'NONE', #594, #785 ) ;
#169 = CARTESIAN_POINT ( 'NONE',  ( 2.081668171172168198E-14, -24.99999999999999289, -3.491481338843132850E-13 ) ) ;
#170 = APPLICATION_PROTOCOL_DEFINITION ( 'draft international standard', 'automotive_design', 1998, #354 ) ;
#171 = EDGE_LOOP ( 'NONE', ( #45, #555, #133, #774 ) ) ;
#172 = CARTESIAN_POINT ( 'NONE',  ( -13.13841407584981980, 52.69329285426129417, 21.27870237959144362 ) ) ;
#173 = EDGE_CURVE ( 'NONE', #536, #196, #450, .T. ) ;
#174 =( NAMED_UNIT ( * ) PLANE_ANGLE_UNIT ( ) SI_UNIT ( $, .RADIAN. ) );
#175 = DIRECTION ( 'NONE',  ( 0.000000000000000000, -1.000000000000000000, -6.982962677686266711E-15 ) ) ;
#176 = LINE ( 'NONE', #51, #620 ) ;
#177 = EDGE_CURVE ( 'NONE', #633, #84, #230, .T. ) ;
#178 = CONICAL_SURFACE ( 'NONE', #103, 21.65063509461080926, 0.5235987755983033676 ) ;
#179 = CARTESIAN_POINT ( 'NONE',  ( 13.93383493758910951, 52.04267795595754365, -20.75929957341868715 ) ) ;
#180 = CIRCLE ( 'NONE', #202, 15.00000000000000000 ) ;
#181 = CIRCLE ( 'NONE', #220, 25.00000000000000000 ) ;
#182 = CARTESIAN_POINT ( 'NONE',  ( -9.999999999999998224, 49.99999999999982947, 22.91287847477937589 ) ) ;
#183 = FACE_OUTER_BOUND ( 'NONE', #452, .T. ) ;
#184 = ORIENTED_EDGE ( 'NONE', *, *, #240, .F. ) ;
#185 = CARTESIAN_POINT ( 'NONE',  ( 10.70662779496202077, 56.28834271458548244, -22.59176297337897310 ) ) ;
#186 = EDGE_CURVE ( 'NONE', #364, #434, #514, .T. ) ;
#187 = DIRECTION ( 'NONE',  ( -0.000000000000000000, 6.982962677686266711E-15, -1.000000000000000000 ) ) ;
#188 = ORIENTED_EDGE ( 'NONE', *, *, #683, .T. ) ;
#189 = LINE ( 'NONE', #440, #603 ) ;
#190 = AXIS2_PLACEMENT_3D ( 'NONE', #516, #578, #255 ) ;
#191 = EDGE_LOOP ( 'NONE', ( #388, #72 ) ) ;
#192 = DIRECTION ( 'NONE',  ( -1.000000000000000000, -0.000000000000000000, 0.000000000000000000 ) ) ;
#193 = VECTOR ( 'NONE', #581, 1000.000000000000000 ) ;
#194 = ORIENTED_EDGE ( 'NONE', *, *, #107, .F. ) ;
#195 = CARTESIAN_POINT ( 'NONE',  ( 0.000000000000000000, 49.99999999999998579, 1.745740669421566173E-13 ) ) ;
#196 = VERTEX_POINT ( 'NONE', #414 ) ;
#197 = ORIENTED_EDGE ( 'NONE', *, *, #519, .F. ) ;
#198 = CARTESIAN_POINT ( 'NONE',  ( -9.999999999999998224, 149.9999999999998295, 22.91287847478006867 ) ) ;
#199 = CARTESIAN_POINT ( 'NONE',  ( 10.00000000000000178, 149.9999999999998295, 22.91287847478006867 ) ) ;
#200 = CARTESIAN_POINT ( 'NONE',  ( 47.71518800929523252, -42.35487007520000446, 95.43037601859002450 ) ) ;
#201 = VECTOR ( 'NONE', #187, 1000.000000000000000 ) ;
#202 = AXIS2_PLACEMENT_3D ( 'NONE', #479, #229, #357 ) ;
#203 = CARTESIAN_POINT ( 'NONE',  ( 50.00000000000000711, -33.82783564014663824, -3.985461126927323564E-13 ) ) ;
#204 = CARTESIAN_POINT ( 'NONE',  ( 18.04628363363723054, 50.17942512981370129, 17.31761082042034516 ) ) ;
#205 = ORIENTED_EDGE ( 'NONE', *, *, #96, .T. ) ;
#206 = DIRECTION ( 'NONE',  ( 0.000000000000000000, -7.050863183406398984E-15, 1.000000000000000000 ) ) ;
#207 = ORIENTED_EDGE ( 'NONE', *, *, #363, .F. ) ;
#208 = DIRECTION ( 'NONE',  ( 0.000000000000000000, 6.982962677686266711E-15, -1.000000000000000000 ) ) ;
#209 = EDGE_CURVE ( 'NONE', #322, #283, #783, .T. ) ;
#210 = CARTESIAN_POINT ( 'NONE',  ( -21.65063509461112545, -87.49999999999991473, -7.882347393365165269E-13 ) ) ;
#211 = FACE_OUTER_BOUND ( 'NONE', #76, .T. ) ;
#212 = CARTESIAN_POINT ( 'NONE',  ( 16.69979692697534546, 50.55591061412717835, 18.60793477367407434 ) ) ;
#213 = ORIENTED_EDGE ( 'NONE', *, *, #768, .F. ) ;
#214 = DIRECTION ( 'NONE',  ( -0.000000000000000000, 1.000000000000000000, 6.982962677686266711E-15 ) ) ;
#215 = AXIS2_PLACEMENT_3D ( 'NONE', #696, #136, #26 ) ;
#216 = CARTESIAN_POINT ( 'NONE',  ( 0.000000000000000000, -50.00000000000000000, -5.237222008264700285E-13 ) ) ;
#217 = AXIS2_PLACEMENT_3D ( 'NONE', #567, #208, #462 ) ;
#218 = CARTESIAN_POINT ( 'NONE',  ( -13.93689095809878076, 52.04038870231456571, -20.75723747140076370 ) ) ;
#219 = ORIENTED_EDGE ( 'NONE', *, *, #390, .F. ) ;
#220 = AXIS2_PLACEMENT_3D ( 'NONE', #543, #312, #488 ) ;
#221 = CARTESIAN_POINT ( 'NONE',  ( 10.00000000000001243, 60.00000000000014211, -22.91287847477895312 ) ) ;
#222 = CARTESIAN_POINT ( 'NONE',  ( -10.45272255270411499, 57.00122356783620603, 22.71035499989819328 ) ) ;
#223 = CARTESIAN_POINT ( 'NONE',  ( -15.58725087264789622, 51.02080700683539760, -19.54891974181846237 ) ) ;
#224 = EDGE_LOOP ( 'NONE', ( #269, #753, #672, #779 ) ) ;
#225 = CARTESIAN_POINT ( 'NONE',  ( -4.287811248607207984E-13, -75.00000000000001421, -6.982962677686266711E-13 ) ) ;
#226 = DIRECTION ( 'NONE',  ( 1.000000000000000000, 0.000000000000000000, 0.000000000000000000 ) ) ;
#227 = CARTESIAN_POINT ( 'NONE',  ( -12.64942839514304573, 53.18216272552518831, -21.56979733736437055 ) ) ;
#228 = EDGE_LOOP ( 'NONE', ( #515, #610, #501, #319 ) ) ;
#229 = DIRECTION ( 'NONE',  ( 1.000000000000000000, 0.000000000000000000, 0.000000000000000000 ) ) ;
#230 = LINE ( 'NONE', #602, #497 ) ;
#231 = AXIS2_PLACEMENT_3D ( 'NONE', #266, #708, #391 ) ;
#232 = CARTESIAN_POINT ( 'NONE',  ( -19.99999999999999645, 50.00000000000009237, -14.99999999999983302 ) ) ;
#233 = ORIENTED_EDGE ( 'NONE', *, *, #549, .T. ) ;
#234 = DIRECTION ( 'NONE',  ( 0.000000000000000000, -7.050863183406451837E-15, 1.000000000000000000 ) ) ;
#235 = CIRCLE ( 'NONE', #304, 24.99999999999999289 ) ;
#236 = EDGE_CURVE ( 'NONE', #316, #457, #546, .T. ) ;
#237 = DIRECTION ( 'NONE',  ( 6.123233995736814107E-17, 0.8660254037844399289, -0.4999999999999978351 ) ) ;
#238 = CIRCLE ( 'NONE', #445, 43.30127018922194537 ) ;
#239 = CARTESIAN_POINT ( 'NONE',  ( -43.30127018922210169, -49.99999999999938893, -86.60254037844468655 ) ) ;
#240 = EDGE_CURVE ( 'NONE', #512, #527, #746, .T. ) ;
#241 = CARTESIAN_POINT ( 'NONE',  ( 0.000000000000000000, 49.99999999999998579, 1.745740669421566173E-13 ) ) ;
#242 = CARTESIAN_POINT ( 'NONE',  ( 16.42524151127995680, 50.64339366819833543, -18.86156530485174798 ) ) ;
#243 = UNCERTAINTY_MEASURE_WITH_UNIT (LENGTH_MEASURE( 1.000000000000000082E-05 ), #307, 'distance_accuracy_value', 'NONE');
#244 = CARTESIAN_POINT ( 'NONE',  ( 3.977157145218392044E-15, -87.49999999999975842, -21.65063509461159441 ) ) ;
#245 = PLANE ( 'NONE',  #260 ) ;
#246 = AXIS2_PLACEMENT_3D ( 'NONE', #10, #690, #122 ) ;
#247 = CARTESIAN_POINT ( 'NONE',  ( 10.85215055985092647, 55.94357174242135500, -22.52251699277852026 ) ) ;
#248 = CIRCLE ( 'NONE', #467, 21.65063509461080926 ) ;
#249 = CARTESIAN_POINT ( 'NONE',  ( 0.000000000000000000, 49.99999999999998579, 1.745740669421566173E-13 ) ) ;
#250 = ORIENTED_EDGE ( 'NONE', *, *, #83, .F. ) ;
#251 = EDGE_CURVE ( 'NONE', #566, #562, #256, .T. ) ;
#252 = CARTESIAN_POINT ( 'NONE',  ( 14.20546664220679567, 51.84335771784659386, -20.57467106829657055 ) ) ;
#253 = EDGE_LOOP ( 'NONE', ( #461, #12, #478, #376, #197, #250 ) ) ;
#254 = EDGE_LOOP ( 'NONE', ( #631, #233 ) ) ;
#255 = DIRECTION ( 'NONE',  ( 0.000000000000000000, -7.401486830834377462E-15, 1.000000000000000000 ) ) ;
#256 = CIRCLE ( 'NONE', #323, 21.65063509461080926 ) ;
#257 = CIRCLE ( 'NONE', #564, 50.00000000000000711 ) ;
#258 = CARTESIAN_POINT ( 'NONE',  ( 0.000000000000000000, 49.99999999999998579, 1.745740669421566173E-13 ) ) ;
#259 = EDGE_CURVE ( 'NONE', #434, #13, #108, .T. ) ;
#260 = AXIS2_PLACEMENT_3D ( 'NONE', #490, #61, #742 ) ;
#261 = VERTEX_POINT ( 'NONE', #244 ) ;
#262 = PLANE ( 'NONE',  #289 ) ;
#263 = CIRCLE ( 'NONE', #545, 43.30127018922194537 ) ;
#264 = EDGE_LOOP ( 'NONE', ( #517, #79, #593 ) ) ;
#265 = FACE_OUTER_BOUND ( 'NONE', #764, .T. ) ;
#266 = CARTESIAN_POINT ( 'NONE',  ( 0.000000000000000000, 49.99999999999998579, 1.745740669421566173E-13 ) ) ;
#267 = EDGE_CURVE ( 'NONE', #162, #721, #38, .T. ) ;
#268 = CARTESIAN_POINT ( 'NONE',  ( -47.71518800929526094, -42.35487007519933655, -4.761799691221542108E-13 ) ) ;
#269 = ORIENTED_EDGE ( 'NONE', *, *, #400, .F. ) ;
#270 = CARTESIAN_POINT ( 'NONE',  ( 20.00000000000000355, 50.00000000000009237, -14.99999999999982236 ) ) ;
#271 = ORIENTED_EDGE ( 'NONE', *, *, #71, .T. ) ;
#272 = CARTESIAN_POINT ( 'NONE',  ( -9.999999999999998224, 150.0000000000001705, -22.91287847477832429 ) ) ;
#273 = CIRCLE ( 'NONE', #215, 25.00000000000000000 ) ;
#274 = CARTESIAN_POINT ( 'NONE',  ( 0.000000000000000000, -87.50000000000005684, 21.65063509461002766 ) ) ;
#275 = CARTESIAN_POINT ( 'NONE',  ( 0.000000000000000000, -50.00000000000000000, -5.237222008264700285E-13 ) ) ;
#276 = ADVANCED_FACE ( 'NONE', ( #375 ), #433, .T. ) ;
#277 = DIRECTION ( 'NONE',  ( -0.000000000000000000, 1.000000000000000000, 6.982962677686266711E-15 ) ) ;
#278 = CARTESIAN_POINT ( 'NONE',  ( -9.999999999999998224, 149.9999999999998295, 22.91287847478006867 ) ) ;
#279 = CARTESIAN_POINT ( 'NONE',  ( -17.51938513531470321, 50.29560880326245353, -17.85006891456103517 ) ) ;
#280 = ORIENTED_EDGE ( 'NONE', *, *, #144, .T. ) ;
#281 = DIRECTION ( 'NONE',  ( 0.000000000000000000, -7.008282842946299873E-15, 1.000000000000000000 ) ) ;
#282 = CARTESIAN_POINT ( 'NONE',  ( 10.08812750137403391, 58.47028930520795598, 22.87501038207033233 ) ) ;
#283 = VERTEX_POINT ( 'NONE', #495 ) ;
#284 = CARTESIAN_POINT ( 'NONE',  ( 10.00000000000001243, 49.99999999999982947, 22.91287847477936879 ) ) ;
#285 = CARTESIAN_POINT ( 'NONE',  ( -19.05187649875836087, 50.03187835767927538, 16.20484767120695224 ) ) ;
#286 = VECTOR ( 'NONE', #418, 1000.000000000000000 ) ;
#287 = CARTESIAN_POINT ( 'NONE',  ( 10.00000000000000178, 59.99999999999982236, 22.91287847477943984 ) ) ;
#288 = ORIENTED_EDGE ( 'NONE', *, *, #236, .T. ) ;
#289 = AXIS2_PLACEMENT_3D ( 'NONE', #448, #699, #565 ) ;
#290 = SURFACE_SIDE_STYLE ('',( #41 ) ) ;
#291 = CARTESIAN_POINT ( 'NONE',  ( -17.51173008777522710, 50.29775834433564086, 17.85739381281553406 ) ) ;
#292 = ADVANCED_FACE ( 'NONE', ( #377 ), #69, .T. ) ;
#293 = CARTESIAN_POINT ( 'NONE',  ( -16.69979692697533835, 50.55591061412742704, -18.60793477367372617 ) ) ;
#294 = ORIENTED_EDGE ( 'NONE', *, *, #569, .F. ) ;
#295 = CARTESIAN_POINT ( 'NONE',  ( 10.34494073580751206, 57.36876965075207835, -22.75941639119783133 ) ) ;
#296 = CARTESIAN_POINT ( 'NONE',  ( 50.00000000000000711, -33.82783564014663824, -4.107925806842059722E-13 ) ) ;
#297 = CARTESIAN_POINT ( 'NONE',  ( -19.54022503649320441, 50.00000000000011369, -15.61303328467557172 ) ) ;
#298 = ORIENTED_EDGE ( 'NONE', *, *, #544, .T. ) ;
#299 =( LENGTH_UNIT ( ) NAMED_UNIT ( * ) SI_UNIT ( .MILLI., .METRE. ) );
#300 = DIRECTION ( 'NONE',  ( 0.000000000000000000, -1.000000000000000000, -6.982962677686266711E-15 ) ) ;
#301 = EDGE_LOOP ( 'NONE', ( #725, #74, #298, #439 ) ) ;
#302 = DIRECTION ( 'NONE',  ( 0.000000000000000000, -6.938893903907228378E-15, 1.000000000000000000 ) ) ;
#303 = ADVANCED_FACE ( 'NONE', ( #183 ), #561, .F. ) ;
#304 = AXIS2_PLACEMENT_3D ( 'NONE', #486, #806, #556 ) ;
#305 = CARTESIAN_POINT ( 'NONE',  ( -11.35838197093648283, 54.95441247918558503, 22.27187923204706621 ) ) ;
#306 = CIRCLE ( 'NONE', #762, 25.00000000000000000 ) ;
#307 =( LENGTH_UNIT ( ) NAMED_UNIT ( * ) SI_UNIT ( .MILLI., .METRE. ) );
#308 = DIRECTION ( 'NONE',  ( -0.000000000000000000, 1.000000000000000000, 6.982962677686266711E-15 ) ) ;
#309 = CARTESIAN_POINT ( 'NONE',  ( 0.000000000000000000, -25.00000000000000711, -3.491481338843133860E-13 ) ) ;
#310 = CARTESIAN_POINT ( 'NONE',  ( 43.30127018922194537, -49.99999999999999289, -4.364351673553924646E-13 ) ) ;
#311 = CARTESIAN_POINT ( 'NONE',  ( 11.35838197093649171, 54.95441247918591188, -22.27187923204664699 ) ) ;
#312 = DIRECTION ( 'NONE',  ( -0.000000000000000000, 1.000000000000000000, 6.982962677686266711E-15 ) ) ;
#313 = CIRCLE ( 'NONE', #636, 15.00000000000000000 ) ;
#314 = CARTESIAN_POINT ( 'NONE',  ( 0.000000000000000000, 49.99999999999998579, 1.745740669421566173E-13 ) ) ;
#315 = B_SPLINE_CURVE_WITH_KNOTS ( 'NONE', 3,
 ( #221, #472, #726, #295, #756, #185, #247, #60, #311, #684, #432, #554, #743, #179, #252, #4, #124, #430, #242, #6, #754, #622, #745, #371 ),
 .UNSPECIFIED., .F., .F.,
 ( 4, 2, 2, 2, 2, 2, 2, 2, 2, 2, 2, 4 ),
 ( 0.000000000000000000, 0.002277627136900169103, 0.003416440705350254087, 0.004555254273800339940, 0.005694067842250425358, 0.006832881410700509910, 0.009110508547600683349, 0.01024932211605076443, 0.01138813568450084378, 0.01366576282140101635, 0.01594338995830119066, 0.01822101709520136323 ),
 .UNSPECIFIED. ) ;
#316 = VERTEX_POINT ( 'NONE', #127 ) ;
#317 = DIRECTION ( 'NONE',  ( -0.000000000000000000, 1.000000000000000000, 6.982962677686266711E-15 ) ) ;
#318 = DIRECTION ( 'NONE',  ( 0.000000000000000000, 6.982962677686266711E-15, -1.000000000000000000 ) ) ;
#319 = ORIENTED_EDGE ( 'NONE', *, *, #647, .F. ) ;
#320 = ADVANCED_FACE ( 'NONE', ( #500, #628 ), #757, .F. ) ;
#321 = ORIENTED_EDGE ( 'NONE', *, *, #128, .F. ) ;
#322 = VERTEX_POINT ( 'NONE', #442 ) ;
#323 = AXIS2_PLACEMENT_3D ( 'NONE', #427, #679, #37 ) ;
#324 = ORIENTED_EDGE ( 'NONE', *, *, #751, .F. ) ;
#325 = AXIS2_PLACEMENT_3D ( 'NONE', #655, #606, #670 ) ;
#326 = EDGE_CURVE ( 'NONE', #654, #589, #63, .T. ) ;
#327 = FACE_OUTER_BOUND ( 'NONE', #444, .T. ) ;
#328 = EDGE_LOOP ( 'NONE', ( #489, #422, #90, #147, #158 ) ) ;
#329 = DIRECTION ( 'NONE',  ( -0.000000000000000000, 1.000000000000000000, 6.982962677686266711E-15 ) ) ;
#330 = DIRECTION ( 'NONE',  ( -0.000000000000000000, 1.000000000000000000, 6.982962677686266711E-15 ) ) ;
#331 = FACE_OUTER_BOUND ( 'NONE', #105, .T. ) ;
#332 = LINE ( 'NONE', #717, #369 ) ;
#333 = DIRECTION ( 'NONE',  ( 0.000000000000000000, -1.000000000000000000, -6.982962677686266711E-15 ) ) ;
#334 = VERTEX_POINT ( 'NONE', #270 ) ;
#335 = CARTESIAN_POINT ( 'NONE',  ( -43.30127018922196669, -50.00000000000057554, 86.60254037844336494 ) ) ;
#336 = EDGE_CURVE ( 'NONE', #687, #542, #7, .T. ) ;
#337 = CARTESIAN_POINT ( 'NONE',  ( -50.00000000000000000, -24.99999999999999289, -3.552713678800499415E-13 ) ) ;
#338 = CARTESIAN_POINT ( 'NONE',  ( -43.30127018922195248, -49.99999999999997158, -5.290250770200942084E-13 ) ) ;
#339 = CARTESIAN_POINT ( 'NONE',  ( -50.00000000000019895, -33.82783564014592770, -100.0000000000007248 ) ) ;
#340 = ORIENTED_EDGE ( 'NONE', *, *, #186, .F. ) ;
#341 = DIRECTION ( 'NONE',  ( 0.000000000000000000, -6.938893903907228378E-15, 1.000000000000000000 ) ) ;
#342 = AXIS2_PLACEMENT_3D ( 'NONE', #15, #393, #656 ) ;
#343 = DIRECTION ( 'NONE',  ( 0.000000000000000000, -6.938893903907228378E-15, 1.000000000000000000 ) ) ;
#344 = CARTESIAN_POINT ( 'NONE',  ( 47.71518800929526094, -42.35487007519933655, -4.586496934422650776E-13 ) ) ;
#345 = CARTESIAN_POINT ( 'NONE',  ( 50.00000000000000000, -25.00000000000000000, -2.483577493417324328E-13 ) ) ;
#346 = ORIENTED_EDGE ( 'NONE', *, *, #795, .F. ) ;
#347 = CARTESIAN_POINT ( 'NONE',  ( -9.999999999999998224, 150.0000000000001705, -22.91287847477832429 ) ) ;
#348 = CARTESIAN_POINT ( 'NONE',  ( 14.21023912480556461, 51.83995391330545033, 20.57138485343707401 ) ) ;
#349 = VERTEX_POINT ( 'NONE', #524 ) ;
#350 = DIRECTION ( 'NONE',  ( 1.000000000000000000, 0.000000000000000000, 0.000000000000000000 ) ) ;
#351 = AXIS2_PLACEMENT_3D ( 'NONE', #119, #370, #318 ) ;
#352 = CARTESIAN_POINT ( 'NONE',  ( 2.651438096812248083E-15, -87.49999999999975842, -21.65063509461159441 ) ) ;
#353 = CIRCLE ( 'NONE', #366, 43.30127018922194537 ) ;
#354 = APPLICATION_CONTEXT ( 'automotive_design' ) ;
#355 = LINE ( 'NONE', #535, #129 ) ;
#356 = ORIENTED_EDGE ( 'NONE', *, *, #236, .F. ) ;
#357 = DIRECTION ( 'NONE',  ( 0.000000000000000000, -7.401486830834377462E-15, 1.000000000000000000 ) ) ;
#358 = CARTESIAN_POINT ( 'NONE',  ( 50.00000000000000000, -24.99999999999999289, -3.491481338843132850E-13 ) ) ;
#359 = CARTESIAN_POINT ( 'NONE',  ( -10.45757799522174025, 56.98608046456826060, -22.70811802772202270 ) ) ;
#360 = EDGE_LOOP ( 'NONE', ( #346, #271, #380, #294 ) ) ;
#361 = DIRECTION ( 'NONE',  ( -0.000000000000000000, 1.000000000000000000, 6.982962677686266711E-15 ) ) ;
#362 = CARTESIAN_POINT ( 'NONE',  ( -13.93383493758910419, 52.04267795595723811, 20.75929957341906018 ) ) ;
#363 = EDGE_CURVE ( 'NONE', #522, #334, #273, .T. ) ;
#364 = VERTEX_POINT ( 'NONE', #455 ) ;
#365 = DIRECTION ( 'NONE',  ( -0.000000000000000000, 1.000000000000000000, 6.982962677686266711E-15 ) ) ;
#366 = AXIS2_PLACEMENT_3D ( 'NONE', #396, #638, #509 ) ;
#367 = CARTESIAN_POINT ( 'NONE',  ( 0.000000000000000000, 0.000000000000000000, 0.000000000000000000 ) ) ;
#368 = CARTESIAN_POINT ( 'NONE',  ( -9.999999999999998224, 50.00000000000014921, -22.91287847477902417 ) ) ;
#369 = VECTOR ( 'NONE', #392, 1000.000000000000000 ) ;
#370 = DIRECTION ( 'NONE',  ( -1.000000000000000000, 0.000000000000000000, -0.000000000000000000 ) ) ;
#371 = CARTESIAN_POINT ( 'NONE',  ( 20.00000000000000355, 50.00000000000009237, -14.99999999999982236 ) ) ;
#372 = ORIENTED_EDGE ( 'NONE', *, *, #18, .F. ) ;
#373 = AXIS2_PLACEMENT_3D ( 'NONE', #169, #55, #741 ) ;
#374 = VECTOR ( 'NONE', #677, 1000.000000000000000 ) ;
#375 = FACE_OUTER_BOUND ( 'NONE', #612, .T. ) ;
#376 = ORIENTED_EDGE ( 'NONE', *, *, #390, .T. ) ;
#377 = FACE_OUTER_BOUND ( 'NONE', #625, .T. ) ;
#378 = ORIENTED_EDGE ( 'NONE', *, *, #632, .F. ) ;
#379 = EDGE_CURVE ( 'NONE', #13, #434, #582, .T. ) ;
#380 = ORIENTED_EDGE ( 'NONE', *, *, #251, .F. ) ;
#381 = CARTESIAN_POINT ( 'NONE',  ( -50.00000000000000711, -33.82783564014663824, -4.169158146799426286E-13 ) ) ;
#382 = ORIENTED_EDGE ( 'NONE', *, *, #557, .T. ) ;
#383 = VECTOR ( 'NONE', #805, 1000.000000000000000 ) ;
#384 = FACE_OUTER_BOUND ( 'NONE', #264, .T. ) ;
#385 = DIRECTION ( 'NONE',  ( 1.000000000000000000, 0.000000000000000000, 0.000000000000000000 ) ) ;
#386 =( BOUNDED_SURFACE ( )  B_SPLINE_SURFACE ( 3, 3, ( 
 ( #345, #416, #474, #728 ),
 ( #394, #99, #339, #587 ),
 ( #28, #161, #668, #57 ),
 ( #310, #52, #239, #550 ) ),
 .UNSPECIFIED., .F., .F., .T. ) 
 B_SPLINE_SURFACE_WITH_KNOTS ( ( 4, 4 ),
 ( 4, 4 ),
 ( 0.000000000000000000, 1.000000000000000000 ),
 ( 0.000000000000000000, 1.000000000000000000 ),
 .UNSPECIFIED. ) 
 GEOMETRIC_REPRESENTATION_ITEM ( )  RATIONAL_B_SPLINE_SURFACE ( (
 ( 1.000000000000000000, 0.3333333333333320381, 0.3333333333333320381, 1.000000000000000000),
 ( 0.9772838841927120601, 0.3257612947309027618, 0.3257612947309027618, 0.9772838841927120601),
 ( 0.9772838841927120601, 0.3257612947309027618, 0.3257612947309027618, 0.9772838841927120601),
 ( 1.000000000000000000, 0.3333333333333320381, 0.3333333333333320381, 1.000000000000000000) ) ) 
 REPRESENTATION_ITEM ( '' )  SURFACE ( )  );
#387 = DIRECTION ( 'NONE',  ( 0.000000000000000000, -1.000000000000000000, -6.982962677686269077E-15 ) ) ;
#388 = ORIENTED_EDGE ( 'NONE', *, *, #637, .F. ) ;
#389 = CYLINDRICAL_SURFACE ( 'NONE', #771, 25.00000000000000000 ) ;
#390 = EDGE_CURVE ( 'NONE', #566, #70, #510, .T. ) ;
#391 = DIRECTION ( 'NONE',  ( 0.000000000000000000, -6.938893903907228378E-15, 1.000000000000000000 ) ) ;
#392 = DIRECTION ( 'NONE',  ( -0.000000000000000000, 1.000000000000000000, 6.982962677686266711E-15 ) ) ;
#393 = DIRECTION ( 'NONE',  ( -0.000000000000000000, 1.000000000000000000, 6.982962677686266711E-15 ) ) ;
#394 = CARTESIAN_POINT ( 'NONE',  ( 50.00000000000000711, -33.82783564014664535, -3.100021961416250190E-13 ) ) ;
#395 = VERTEX_POINT ( 'NONE', #458 ) ;
#396 = CARTESIAN_POINT ( 'NONE',  ( 0.000000000000000000, -50.00000000000000000, -5.237222008264700285E-13 ) ) ;
#397 = CARTESIAN_POINT ( 'NONE',  ( -9.999999999999998224, 100.0000000000000853, -14.99999999999947597 ) ) ;
#398 = CARTESIAN_POINT ( 'NONE',  ( -50.00000000000000000, -25.00000000000000000, -3.552713678800499920E-13 ) ) ;
#399 =( GEOMETRIC_REPRESENTATION_CONTEXT ( 3 ) GLOBAL_UNCERTAINTY_ASSIGNED_CONTEXT ( ( #243 ) ) GLOBAL_UNIT_ASSIGNED_CONTEXT ( ( #307, #174, #676 ) ) REPRESENTATION_CONTEXT ( 'NONE', 'WORKASPACE' ) );
#400 = EDGE_CURVE ( 'NONE', #758, #283, #712, .T. ) ;
#401 = CARTESIAN_POINT ( 'NONE',  ( -11.18332432234087825, 55.26669223909495798, -22.35992858663810878 ) ) ;
#402 = ORIENTED_EDGE ( 'NONE', *, *, #117, .T. ) ;
#403 = SPHERICAL_SURFACE ( 'NONE', #678, 24.99999999999999289 ) ;
#404 = VECTOR ( 'NONE', #237, 1000.000000000000227 ) ;
#405 = DIRECTION ( 'NONE',  ( 0.000000000000000000, -7.050863183406398984E-15, 1.000000000000000000 ) ) ;
#406 = FACE_OUTER_BOUND ( 'NONE', #328, .T. ) ;
#407 = EDGE_CURVE ( 'NONE', #449, #349, #87, .T. ) ;
#408 = ORIENTED_EDGE ( 'NONE', *, *, #144, .F. ) ;
#409 = DIRECTION ( 'NONE',  ( -0.000000000000000000, 1.000000000000000000, 6.982962677686266711E-15 ) ) ;
#410 = CARTESIAN_POINT ( 'NONE',  ( -10.00000000000001243, 59.99999999999982236, 22.91287847477943984 ) ) ;
#411 = CARTESIAN_POINT ( 'NONE',  ( -15.86511017280917457, 50.88992982812032295, -19.32435477421105219 ) ) ;
#412 = VERTEX_POINT ( 'NONE', #210 ) ;
#413 = CARTESIAN_POINT ( 'NONE',  ( 21.65063509461069557, -87.49999999999991473, -7.855833012397042855E-13 ) ) ;
#414 = CARTESIAN_POINT ( 'NONE',  ( 43.30127018922194537, -50.00000000000000000, -4.364351673553926665E-13 ) ) ;
#415 = VECTOR ( 'NONE', #513, 1000.000000000000000 ) ;
#416 = CARTESIAN_POINT ( 'NONE',  ( 50.00000000000020606, -24.99999999999930367, -100.0000000000006537 ) ) ;
#417 = ORIENTED_EDGE ( 'NONE', *, *, #506, .F. ) ;
#418 = DIRECTION ( 'NONE',  ( 1.000000000000000000, 0.000000000000000000, 0.000000000000000000 ) ) ;
#419 = EDGE_CURVE ( 'NONE', #573, #322, #716, .T. ) ;
#420 = CARTESIAN_POINT ( 'NONE',  ( 43.30127018922194537, -50.00000000000000000, -4.364351673553926665E-13 ) ) ;
#421 = LINE ( 'NONE', #680, #441 ) ;
#422 = ORIENTED_EDGE ( 'NONE', *, *, #557, .F. ) ;
#423 = ADVANCED_BREP_SHAPE_REPRESENTATION ( 'N1404_structure', ( #599, #56 ), #399 ) ;
#424 = LINE ( 'NONE', #155, #286 ) ;
#425 = CARTESIAN_POINT ( 'NONE',  ( -15.86053888644971543, 50.87530874414177617, 19.33742586661128726 ) ) ;
#426 = LINE ( 'NONE', #368, #650 ) ;
#427 = CARTESIAN_POINT ( 'NONE',  ( 0.000000000000000000, -87.49999999999991473, -7.855833012397041845E-13 ) ) ;
#428 = COLOUR_RGB ( '',0.7921568627450980005, 0.8196078431372548767, 0.9333333333333333481 ) ;
#429 = PRODUCT_CONTEXT ( 'NONE', #354, 'mechanical' ) ;
#430 = CARTESIAN_POINT ( 'NONE',  ( 15.86053888644972965, 50.87530874414203907, -19.33742586661091067 ) ) ;
#431 = DIRECTION ( 'NONE',  ( -0.000000000000000000, 1.000000000000000000, 6.982962677686266711E-15 ) ) ;
#432 = CARTESIAN_POINT ( 'NONE',  ( 11.96765633125988337, 54.03248567420554593, -21.95089266265129524 ) ) ;
#433 = PLANE ( 'NONE',  #664 ) ;
#434 = VERTEX_POINT ( 'NONE', #148 ) ;
#435 = FACE_BOUND ( 'NONE', #254, .T. ) ;
#436 = CARTESIAN_POINT ( 'NONE',  ( 10.00000000000000178, 149.9999999999998295, 22.91287847478006867 ) ) ;
#437 = ADVANCED_FACE ( 'NONE', ( #327 ), #92, .F. ) ;
#438 = DIRECTION ( 'NONE',  ( -0.000000000000000000, 1.000000000000000000, 6.982962677686266711E-15 ) ) ;
#439 = ORIENTED_EDGE ( 'NONE', *, *, #419, .F. ) ;
#440 = CARTESIAN_POINT ( 'NONE',  ( 20.00000000000000355, 49.99999999999998579, 1.745740669421566173E-13 ) ) ;
#441 = VECTOR ( 'NONE', #688, 1000.000000000000000 ) ;
#442 = CARTESIAN_POINT ( 'NONE',  ( 10.00000000000000178, 99.99999999999988631, 15.00000000000052403 ) ) ;
#443 = EDGE_CURVE ( 'NONE', #633, #316, #701, .T. ) ;
#444 = EDGE_LOOP ( 'NONE', ( #324, #34, #583, #213 ) ) ;
#445 = AXIS2_PLACEMENT_3D ( 'NONE', #216, #463, #206 ) ;
#446 = ORIENTED_EDGE ( 'NONE', *, *, #506, .T. ) ;
#447 = ADVANCED_FACE ( 'NONE', ( #331 ), #518, .F. ) ;
#448 = CARTESIAN_POINT ( 'NONE',  ( 0.000000000000000000, 49.99999999999998579, 1.745740669421566173E-13 ) ) ;
#449 = VERTEX_POINT ( 'NONE', #706 ) ;
#450 =( BOUNDED_CURVE ( )  B_SPLINE_CURVE ( 3, ( #358, #296, #671, #420 ),
 .UNSPECIFIED., .F., .T. ) 
 B_SPLINE_CURVE_WITH_KNOTS ( ( 4, 4 ),
 ( 3.141592653589793116, 3.665191429188091821 ),
 .UNSPECIFIED. ) 
 CURVE ( )  GEOMETRIC_REPRESENTATION_ITEM ( )  RATIONAL_B_SPLINE_CURVE ( ( 1.000000000000000000, 0.9772838841927120601, 0.9772838841927120601, 1.000000000000000000 ) ) 
 REPRESENTATION_ITEM ( '' )  );
#451 = EDGE_CURVE ( 'NONE', #70, #196, #353, .T. ) ;
#452 = EDGE_LOOP ( 'NONE', ( #167, #691, #340, #29 ) ) ;
#453 = MECHANICAL_DESIGN_GEOMETRIC_PRESENTATION_REPRESENTATION (  '', ( #1 ), #139 ) ;
#454 = CARTESIAN_POINT ( 'NONE',  ( 0.000000000000000000, 49.99999999999998579, 1.745740669421566173E-13 ) ) ;
#455 = CARTESIAN_POINT ( 'NONE',  ( -10.00000000000001243, 59.99999999999982236, 22.91287847477943984 ) ) ;
#456 = DIRECTION ( 'NONE',  ( -0.000000000000000000, 1.000000000000000000, 6.982962677686266711E-15 ) ) ;
#457 = VERTEX_POINT ( 'NONE', #14 ) ;
#458 = CARTESIAN_POINT ( 'NONE',  ( 5.302876193624537187E-15, -49.99999999999970157, -43.30127018922246407 ) ) ;
#459 = LINE ( 'NONE', #770, #502 ) ;
#460 = FACE_OUTER_BOUND ( 'NONE', #253, .T. ) ;
#461 = ORIENTED_EDGE ( 'NONE', *, *, #141, .F. ) ;
#462 = DIRECTION ( 'NONE',  ( 1.000000000000000000, 0.000000000000000000, 0.000000000000000000 ) ) ;
#463 = DIRECTION ( 'NONE',  ( -0.000000000000000000, 1.000000000000000000, 6.982962677686266711E-15 ) ) ;
#464 = CARTESIAN_POINT ( 'NONE',  ( 15.03353059810919312, 51.31481471990777976, 19.97787803032771592 ) ) ;
#465 = ORIENTED_EDGE ( 'NONE', *, *, #451, .F. ) ;
#466 = CARTESIAN_POINT ( 'NONE',  ( -43.30127018922194537, -50.00000000000000000, -4.421482224500731099E-13 ) ) ;
#467 = AXIS2_PLACEMENT_3D ( 'NONE', #30, #663, #234 ) ;
#468 = CARTESIAN_POINT ( 'NONE',  ( 10.00000000000000178, 59.99999999999982236, 22.91287847477943984 ) ) ;
#469 = ADVANCED_FACE ( 'NONE', ( #265 ), #389, .T. ) ;
#470 = CARTESIAN_POINT ( 'NONE',  ( 11.18332432234089246, 55.26669223909463113, 22.35992858663851734 ) ) ;
#471 = VERTEX_POINT ( 'NONE', #503 ) ;
#472 = CARTESIAN_POINT ( 'NONE',  ( 10.00000000000001421, 59.22979435000743820, -22.91287847477895667 ) ) ;
#473 = CARTESIAN_POINT ( 'NONE',  ( -11.75274981885100090, 54.33269199355004275, 22.06631634913453155 ) ) ;
#474 = CARTESIAN_POINT ( 'NONE',  ( -50.00000000000019895, -24.99999999999930367, -100.0000000000006537 ) ) ;
#475 = ORIENTED_EDGE ( 'NONE', *, *, #336, .T. ) ;
#476 = DIRECTION ( 'NONE',  ( 0.000000000000000000, 6.982962677686265922E-15, -1.000000000000000000 ) ) ;
#477 = DIRECTION ( 'NONE',  ( 0.000000000000000000, -7.050863183406451837E-15, 1.000000000000000000 ) ) ;
#478 = ORIENTED_EDGE ( 'NONE', *, *, #569, .T. ) ;
#479 = CARTESIAN_POINT ( 'NONE',  ( 10.00000000000000178, 99.99999999999998579, 5.237222008264700285E-13 ) ) ;
#480 = EDGE_CURVE ( 'NONE', #533, #633, #765, .T. ) ;
#481 = CARTESIAN_POINT ( 'NONE',  ( 0.000000000000000000, -87.49999999999991473, -7.855833012397041845E-13 ) ) ;
#482 = AXIS2_PLACEMENT_3D ( 'NONE', #613, #54, #302 ) ;
#483 = ORIENTED_EDGE ( 'NONE', *, *, #480, .T. ) ;
#484 = CARTESIAN_POINT ( 'NONE',  ( 0.000000000000000000, -87.50000000000005684, 21.65063509461002766 ) ) ;
#485 = CARTESIAN_POINT ( 'NONE',  ( -10.85215055985092292, 55.94357174242104946, 22.52251699277895725 ) ) ;
#486 = CARTESIAN_POINT ( 'NONE',  ( -4.287811248607207984E-13, -75.00000000000001421, -6.982962677686266711E-13 ) ) ;
#487 = DIRECTION ( 'NONE',  ( -0.000000000000000000, 1.000000000000000000, 6.982962677686266711E-15 ) ) ;
#488 = DIRECTION ( 'NONE',  ( 0.000000000000000000, -6.938893903907228378E-15, 1.000000000000000000 ) ) ;
#489 = ORIENTED_EDGE ( 'NONE', *, *, #336, .F. ) ;
#490 = CARTESIAN_POINT ( 'NONE',  ( -9.999999999999998224, 149.9999999999998295, 22.91287847478006867 ) ) ;
#491 = CARTESIAN_POINT ( 'NONE',  ( 10.00000000000000178, 150.0000000000001705, -22.91287847477832429 ) ) ;
#492 = ORIENTED_EDGE ( 'NONE', *, *, #683, .F. ) ;
#493 = CARTESIAN_POINT ( 'NONE',  ( 3.061616997868419725E-15, -24.99999999999983658, -25.00000000000035172 ) ) ;
#494 = ADVANCED_FACE ( 'NONE', ( #384 ), #82, .T. ) ;
#495 = CARTESIAN_POINT ( 'NONE',  ( 10.00000000000000178, 100.0000000000000853, -14.99999999999947597 ) ) ;
#496 = ORIENTED_EDGE ( 'NONE', *, *, #781, .F. ) ;
#497 = VECTOR ( 'NONE', #300, 1000.000000000000000 ) ;
#498 = EDGE_LOOP ( 'NONE', ( #669, #635, #194, #465, #219, #559 ) ) ;
#499 = PRODUCT_DEFINITION_FORMATION_WITH_SPECIFIED_SOURCE ( 'ANY', '', #65, .NOT_KNOWN. ) ;
#500 = FACE_BOUND ( 'NONE', #110, .T. ) ;
#501 = ORIENTED_EDGE ( 'NONE', *, *, #666, .F. ) ;
#502 = VECTOR ( 'NONE', #722, 1000.000000000000000 ) ;
#503 = CARTESIAN_POINT ( 'NONE',  ( -9.999999999999998224, 60.00000000000014211, -22.91287847477895312 ) ) ;
#504 = DIRECTION ( 'NONE',  ( 1.000000000000000000, 0.000000000000000000, 0.000000000000000000 ) ) ;
#505 = CARTESIAN_POINT ( 'NONE',  ( 43.30127018922193827, -50.00000000000057554, 86.60254037844337915 ) ) ;
#506 = EDGE_CURVE ( 'NONE', #649, #364, #168, .T. ) ;
#507 = CARTESIAN_POINT ( 'NONE',  ( -9.999999999999998224, 50.00000000000014921, -22.91287847477902417 ) ) ;
#508 = ORIENTED_EDGE ( 'NONE', *, *, #576, .T. ) ;
#509 = DIRECTION ( 'NONE',  ( 0.000000000000000000, -7.050863183406398984E-15, 1.000000000000000000 ) ) ;
#510 = LINE ( 'NONE', #274, #415 ) ;
#511 = DIRECTION ( 'NONE',  ( -0.000000000000000000, 1.000000000000000000, 6.982962677686266711E-15 ) ) ;
#512 = VERTEX_POINT ( 'NONE', #159 ) ;
#513 = DIRECTION ( 'NONE',  ( 0.000000000000000000, 0.8660254037844329345, 0.5000000000000098810 ) ) ;
#514 = B_SPLINE_CURVE_WITH_KNOTS ( 'NONE', 3,
 ( #410, #735, #595, #112, #222, #788, #485, #660, #305, #473, #43, #744, #172, #362, #608, #611, #540, #425, #674, #291, #165, #285, #47, #534 ),
 .UNSPECIFIED., .F., .F.,
 ( 4, 2, 2, 2, 2, 2, 2, 2, 2, 2, 2, 4 ),
 ( 0.000000000000000000, 0.002277627136900163465, 0.003416440705350245414, 0.004555254273800326929, 0.005694067842250409746, 0.006832881410700490828, 0.009110508547600641716, 0.01024932211605072627, 0.01138813568450081082, 0.01366576282140099033, 0.01594338995830116984, 0.01822101709520134935 ),
 .UNSPECIFIED. ) ;
#515 = ORIENTED_EDGE ( 'NONE', *, *, #71, .F. ) ;
#516 = CARTESIAN_POINT ( 'NONE',  ( -9.999999999999998224, 99.99999999999998579, 5.237222008264700285E-13 ) ) ;
#517 = ORIENTED_EDGE ( 'NONE', *, *, #31, .F. ) ;
#518 = PLANE ( 'NONE',  #217 ) ;
#519 = EDGE_CURVE ( 'NONE', #542, #70, #720, .T. ) ;
#520 = CARTESIAN_POINT ( 'NONE',  ( 0.000000000000000000, 49.99999999999998579, 1.745740669421566173E-13 ) ) ;
#521 = CARTESIAN_POINT ( 'NONE',  ( 11.97647981198267075, 54.02073785510974346, 21.94606981415779856 ) ) ;
#522 = VERTEX_POINT ( 'NONE', #801 ) ;
#523 = CARTESIAN_POINT ( 'NONE',  ( 0.000000000000000000, -25.00000000000018119, 24.99999999999965183 ) ) ;
#524 = CARTESIAN_POINT ( 'NONE',  ( 10.00000000000001243, 60.00000000000014211, -22.91287847477895312 ) ) ;
#525 = CARTESIAN_POINT ( 'NONE',  ( 50.00000000000000000, -25.00000000000000000, -3.369016658928397702E-13 ) ) ;
#526 = CARTESIAN_POINT ( 'NONE',  ( -14.21023912480555573, 51.83995391330574876, -20.57138485343671164 ) ) ;
#527 = VERTEX_POINT ( 'NONE', #284 ) ;
#528 = CARTESIAN_POINT ( 'NONE',  ( -9.999999999999998224, 99.99999999999998579, 5.237222008264700285E-13 ) ) ;
#529 = FACE_BOUND ( 'NONE', #191, .T. ) ;
#530 = ADVANCED_FACE ( 'NONE', ( #730 ), #403, .T. ) ;
#531 = VECTOR ( 'NONE', #547, 1000.000000000000000 ) ;
#532 = CARTESIAN_POINT ( 'NONE',  ( -10.71099896338735391, 56.27763671505017840, -22.58968930936003972 ) ) ;
#533 = VERTEX_POINT ( 'NONE', #163 ) ;
#534 = CARTESIAN_POINT ( 'NONE',  ( -19.99999999999999645, 49.99999999999988631, 15.00000000000018296 ) ) ;
#535 = CARTESIAN_POINT ( 'NONE',  ( 10.00000000000000178, 59.99999999999982236, 22.91287847477943984 ) ) ;
#536 = VERTEX_POINT ( 'NONE', #734 ) ;
#537 = DIRECTION ( 'NONE',  ( 0.000000000000000000, -6.938893903907228378E-15, 1.000000000000000000 ) ) ;
#538 = CARTESIAN_POINT ( 'NONE',  ( -9.999999999999998224, 60.00000000000014211, -22.91287847477895312 ) ) ;
#539 = ORIENTED_EDGE ( 'NONE', *, *, #601, .T. ) ;
#540 = CARTESIAN_POINT ( 'NONE',  ( -15.02800557802888193, 51.31794645983895720, 19.98204773229099729 ) ) ;
#541 = CIRCLE ( 'NONE', #91, 21.65063509461080926 ) ;
#542 = VERTEX_POINT ( 'NONE', #466 ) ;
#543 = CARTESIAN_POINT ( 'NONE',  ( 0.000000000000000000, -25.00000000000000711, -3.491481338843133860E-13 ) ) ;
#544 = EDGE_CURVE ( 'NONE', #283, #322, #180, .T. ) ;
#545 = AXIS2_PLACEMENT_3D ( 'NONE', #275, #456, #405 ) ;
#546 = LINE ( 'NONE', #347, #383 ) ;
#547 = DIRECTION ( 'NONE',  ( 0.000000000000000000, -6.982962677686266711E-15, 1.000000000000000000 ) ) ;
#548 = DIRECTION ( 'NONE',  ( 0.000000000000000000, -7.050863183406451837E-15, 1.000000000000000000 ) ) ;
#549 = EDGE_CURVE ( 'NONE', #758, #573, #313, .T. ) ;
#550 = CARTESIAN_POINT ( 'NONE',  ( -43.30127018922194537, -49.99999999999999289, -4.432454687166510645E-13 ) ) ;
#551 = PLANE ( 'NONE',  #760 ) ;
#552 = DIRECTION ( 'NONE',  ( -0.000000000000000000, 1.000000000000000000, 6.982962677686266711E-15 ) ) ;
#553 = VECTOR ( 'NONE', #277, 1000.000000000000000 ) ;
#554 = CARTESIAN_POINT ( 'NONE',  ( 12.64297035140180192, 53.18874439512814689, -21.57362388879380433 ) ) ;
#555 = ORIENTED_EDGE ( 'NONE', *, *, #768, .T. ) ;
#556 = DIRECTION ( 'NONE',  ( 0.000000000000000000, 1.000000000000000000, 6.982962677686269077E-15 ) ) ;
#557 = EDGE_CURVE ( 'NONE', #536, #687, #257, .T. ) ;
#558 = DIRECTION ( 'NONE',  ( 0.000000000000000000, -7.050863183406451837E-15, 1.000000000000000000 ) ) ;
#559 = ORIENTED_EDGE ( 'NONE', *, *, #251, .T. ) ;
#560 = ORIENTED_EDGE ( 'NONE', *, *, #632, .T. ) ;
#561 = CYLINDRICAL_SURFACE ( 'NONE', #246, 10.00000000000000178 ) ;
#562 = VERTEX_POINT ( 'NONE', #413 ) ;
#563 = AXIS2_PLACEMENT_3D ( 'NONE', #249, #438, #73 ) ;
#564 = AXIS2_PLACEMENT_3D ( 'NONE', #590, #409, #281 ) ;
#565 = DIRECTION ( 'NONE',  ( 0.000000000000000000, -6.982962677686266711E-15, 1.000000000000000000 ) ) ;
#566 = VERTEX_POINT ( 'NONE', #484 ) ;
#567 = CARTESIAN_POINT ( 'NONE',  ( -9.999999999999998224, 149.9999999999998295, 22.91287847478006867 ) ) ;
#568 = VECTOR ( 'NONE', #333, 1000.000000000000000 ) ;
#569 = EDGE_CURVE ( 'NONE', #412, #566, #248, .T. ) ;
#570 = CARTESIAN_POINT ( 'NONE',  ( 10.00000000000001243, 50.00000000000014921, -22.91287847477902417 ) ) ;
#571 = DIRECTION ( 'NONE',  ( -0.000000000000000000, 1.000000000000000000, 6.982962677686266711E-15 ) ) ;
#572 = DIRECTION ( 'NONE',  ( 0.000000000000000000, -7.050863183406451837E-15, 1.000000000000000000 ) ) ;
#573 = VERTEX_POINT ( 'NONE', #739 ) ;
#574 = DIRECTION ( 'NONE',  ( 0.000000000000000000, -6.982962677686266711E-15, 1.000000000000000000 ) ) ;
#575 = CARTESIAN_POINT ( 'NONE',  ( 20.00000000000000355, 59.99999999999982236, 22.91287847477943984 ) ) ;
#576 = EDGE_CURVE ( 'NONE', #649, #527, #424, .T. ) ;
#577 = DIRECTION ( 'NONE',  ( 1.000000000000000000, 0.000000000000000000, 0.000000000000000000 ) ) ;
#578 = DIRECTION ( 'NONE',  ( 1.000000000000000000, 0.000000000000000000, 0.000000000000000000 ) ) ;
#579 = CARTESIAN_POINT ( 'NONE',  ( -47.71518800929526094, -42.35487007519935077, -4.761799691221543118E-13 ) ) ;
#580 = PRODUCT_DEFINITION ( 'UNKNOWN', '', #499, #685 ) ;
#581 = DIRECTION ( 'NONE',  ( -1.000000000000000000, 0.000000000000000000, 0.000000000000000000 ) ) ;
#582 = CIRCLE ( 'NONE', #231, 25.00000000000000000 ) ;
#583 = ORIENTED_EDGE ( 'NONE', *, *, #601, .F. ) ;
#584 = AXIS2_PLACEMENT_3D ( 'NONE', #272, #645, #192 ) ;
#585 = ORIENTED_EDGE ( 'NONE', *, *, #451, .T. ) ;
#586 = CIRCLE ( 'NONE', #93, 24.99999999999999289 ) ;
#587 = CARTESIAN_POINT ( 'NONE',  ( -50.00000000000000711, -33.82783564014664535, -3.178660547899953036E-13 ) ) ;
#588 = ADVANCED_FACE ( 'NONE', ( #787 ), #106, .F. ) ;
#589 = VERTEX_POINT ( 'NONE', #523 ) ;
#590 = CARTESIAN_POINT ( 'NONE',  ( 0.000000000000000000, -24.99999999999999289, -3.491481338843132850E-13 ) ) ;
#591 = CARTESIAN_POINT ( 'NONE',  ( -4.287811248607207984E-13, -75.00000000000001421, -6.982962677686266711E-13 ) ) ;
#592 = CARTESIAN_POINT ( 'NONE',  ( -16.42080910447883113, 50.65761888205171459, -18.85442750627056441 ) ) ;
#593 = ORIENTED_EDGE ( 'NONE', *, *, #267, .T. ) ;
#594 = CARTESIAN_POINT ( 'NONE',  ( -9.999999999999998224, 49.99999999999982947, 22.91287847477937589 ) ) ;
#595 = CARTESIAN_POINT ( 'NONE',  ( -10.08781882418733566, 58.47591518564114921, 22.87512283139917812 ) ) ;
#596 = CARTESIAN_POINT ( 'NONE',  ( 11.76290598202800552, 54.31776698591014707, 22.06092635451087958 ) ) ;
#597 = EDGE_LOOP ( 'NONE', ( #49, #475, #658, #585, #2 ) ) ;
#598 = DIRECTION ( 'NONE',  ( 0.000000000000000000, -7.401486830834377462E-15, 1.000000000000000000 ) ) ;
#599 = MANIFOLD_SOLID_BREP ( 'Body-Move/Copy1', #723 ) ;
#600 = VECTOR ( 'NONE', #138, 1000.000000000000000 ) ;
#601 = EDGE_CURVE ( 'NONE', #349, #334, #315, .T. ) ;
#602 = CARTESIAN_POINT ( 'NONE',  ( 10.00000000000000178, 149.9999999999998295, 22.91287847478006867 ) ) ;
#603 = VECTOR ( 'NONE', #692, 1000.000000000000000 ) ;
#604 = CARTESIAN_POINT ( 'NONE',  ( 10.45757799522175269, 56.98608046456791243, 22.70811802772244548 ) ) ;
#605 = EDGE_LOOP ( 'NONE', ( #715, #560, #16, #356, #729, #137 ) ) ;
#606 = DIRECTION ( 'NONE',  ( 1.000000000000000000, 0.000000000000000000, 0.000000000000000000 ) ) ;
#607 = UNCERTAINTY_MEASURE_WITH_UNIT (LENGTH_MEASURE( 1.000000000000000082E-05 ), #299, 'distance_accuracy_value', 'NONE');
#608 = CARTESIAN_POINT ( 'NONE',  ( -14.20546664220678501, 51.84335771784629543, 20.57467106829695069 ) ) ;
#609 = CARTESIAN_POINT ( 'NONE',  ( 10.85647049756303062, 55.93381744107117015, 22.52043955241059692 ) ) ;
#610 = ORIENTED_EDGE ( 'NONE', *, *, #795, .T. ) ;
#611 = CARTESIAN_POINT ( 'NONE',  ( -14.75202264291532117, 51.48142243017518638, 20.18638650265020473 ) ) ;
#612 = EDGE_LOOP ( 'NONE', ( #66, #188, #791 ) ) ;
#613 = CARTESIAN_POINT ( 'NONE',  ( 0.000000000000000000, 49.99999999999998579, 1.745740669421566173E-13 ) ) ;
#614 = AXIS2_PLACEMENT_3D ( 'NONE', #101, #50, #35 ) ;
#615 = DIRECTION ( 'NONE',  ( -0.000000000000000000, 1.000000000000000000, 6.982962677686266711E-15 ) ) ;
#616 = SHAPE_DEFINITION_REPRESENTATION ( #749, #423 ) ;
#617 = AXIS2_PLACEMENT_3D ( 'NONE', #804, #308, #548 ) ;
#618 = DIRECTION ( 'NONE',  ( -0.000000000000000000, 1.000000000000000000, 6.982962677686266711E-15 ) ) ;
#619 = ADVANCED_FACE ( 'NONE', ( #682 ), #551, .F. ) ;
#620 = VECTOR ( 'NONE', #365, 1000.000000000000000 ) ;
#621 = CARTESIAN_POINT ( 'NONE',  ( -19.99999999999999645, 49.99999999999998579, 1.745740669421566173E-13 ) ) ;
#622 = CARTESIAN_POINT ( 'NONE',  ( 19.05187649875836797, 50.03187835767949565, -16.20484767120659342 ) ) ;
#623 = AXIS2_PLACEMENT_3D ( 'NONE', #309, #214, #343 ) ;
#624 = EDGE_CURVE ( 'NONE', #316, #349, #62, .T. ) ;
#625 = EDGE_LOOP ( 'NONE', ( #8, #710, #100, #492, #446, #738, #20, #733, #378, #81 ) ) ;
#626 = APPLICATION_PROTOCOL_DEFINITION ( 'draft international standard', 'automotive_design', 1998, #630 ) ;
#627 = DIRECTION ( 'NONE',  ( 0.000000000000000000, 6.982962677686265922E-15, -1.000000000000000000 ) ) ;
#628 = FACE_OUTER_BOUND ( 'NONE', #171, .T. ) ;
#629 = ORIENTED_EDGE ( 'NONE', *, *, #480, .F. ) ;
#630 = APPLICATION_CONTEXT ( 'automotive_design' ) ;
#631 = ORIENTED_EDGE ( 'NONE', *, *, #740, .T. ) ;
#632 = EDGE_CURVE ( 'NONE', #721, #471, #426, .T. ) ;
#633 = VERTEX_POINT ( 'NONE', #436 ) ;
#634 = DIRECTION ( 'NONE',  ( 1.000000000000000000, 0.000000000000000000, 0.000000000000000000 ) ) ;
#635 = ORIENTED_EDGE ( 'NONE', *, *, #141, .T. ) ;
#636 = AXIS2_PLACEMENT_3D ( 'NONE', #528, #114, #598 ) ;
#637 = EDGE_CURVE ( 'NONE', #589, #654, #181, .T. ) ;
#638 = DIRECTION ( 'NONE',  ( -0.000000000000000000, 1.000000000000000000, 6.982962677686266711E-15 ) ) ;
#639 = CIRCLE ( 'NONE', #482, 25.00000000000000000 ) ;
#640 = CARTESIAN_POINT ( 'NONE',  ( -43.30127018922194537, -50.00000000000000000, -4.421482224500731099E-13 ) ) ;
#641 = CYLINDRICAL_SURFACE ( 'NONE', #652, 15.00000000000000000 ) ;
#642 = ORIENTED_EDGE ( 'NONE', *, *, #407, .T. ) ;
#643 = ADVANCED_FACE ( 'NONE', ( #59 ), #689, .T. ) ;
#644 = CARTESIAN_POINT ( 'NONE',  ( -19.99999999999999645, 50.00000000000009237, -14.99999999999983302 ) ) ;
#645 = DIRECTION ( 'NONE',  ( 0.000000000000000000, -6.982962677686266711E-15, 1.000000000000000000 ) ) ;
#646 = FACE_OUTER_BOUND ( 'NONE', #301, .T. ) ;
#647 = EDGE_CURVE ( 'NONE', #562, #261, #707, .T. ) ;
#648 = CARTESIAN_POINT ( 'NONE',  ( 14.75766441274086382, 51.47793448045206333, 20.18227221730241183 ) ) ;
#649 = VERTEX_POINT ( 'NONE', #182 ) ;
#650 = VECTOR ( 'NONE', #618, 1000.000000000000000 ) ;
#651 = CARTESIAN_POINT ( 'NONE',  ( 49.99999999999997868, -25.00000000000069988, 99.99999999999964473 ) ) ;
#652 = AXIS2_PLACEMENT_3D ( 'NONE', #27, #577, #17 ) ;
#653 = CARTESIAN_POINT ( 'NONE',  ( -10.34914623737139472, 57.35286391319764476, -22.75751032677871066 ) ) ;
#654 = VERTEX_POINT ( 'NONE', #493 ) ;
#655 = CARTESIAN_POINT ( 'NONE',  ( -9.999999999999998224, 99.99999999999998579, 5.237222008264700285E-13 ) ) ;
#656 = DIRECTION ( 'NONE',  ( 0.000000000000000000, -7.008282842946299873E-15, 1.000000000000000000 ) ) ;
#657 = CARTESIAN_POINT ( 'NONE',  ( 16.42080910447883824, 50.65761888205144459, 18.85442750627090547 ) ) ;
#658 = ORIENTED_EDGE ( 'NONE', *, *, #519, .T. ) ;
#659 = FILL_AREA_STYLE_COLOUR ( '', #428 ) ;
#660 = CARTESIAN_POINT ( 'NONE',  ( -11.17802233047723348, 55.27660401967365544, 22.36257499133409254 ) ) ;
#661 = CARTESIAN_POINT ( 'NONE',  ( -11.76290598202799309, 54.31776698591045971, -22.06092635451047812 ) ) ;
#662 = ORIENTED_EDGE ( 'NONE', *, *, #751, .T. ) ;
#663 = DIRECTION ( 'NONE',  ( -0.000000000000000000, 1.000000000000000000, 6.982962677686266711E-15 ) ) ;
#664 = AXIS2_PLACEMENT_3D ( 'NONE', #195, #431, #132 ) ;
#665 = AXIS2_PLACEMENT_3D ( 'NONE', #575, #766, #504 ) ;
#666 = EDGE_CURVE ( 'NONE', #261, #412, #541, .T. ) ;
#667 = DIRECTION ( 'NONE',  ( 0.000000000000000000, -6.938893903907228378E-15, 1.000000000000000000 ) ) ;
#668 = CARTESIAN_POINT ( 'NONE',  ( -47.71518800929543858, -42.35487007519868285, -95.43037601859127506 ) ) ;
#669 = ORIENTED_EDGE ( 'NONE', *, *, #647, .T. ) ;
#670 = DIRECTION ( 'NONE',  ( 0.000000000000000000, -7.401486830834377462E-15, 1.000000000000000000 ) ) ;
#671 = CARTESIAN_POINT ( 'NONE',  ( 47.71518800929526094, -42.35487007519935077, -4.703365438955248363E-13 ) ) ;
#672 = ORIENTED_EDGE ( 'NONE', *, *, #419, .T. ) ;
#673 =( NAMED_UNIT ( * ) SI_UNIT ( $, .STERADIAN. ) SOLID_ANGLE_UNIT ( ) );
#674 = CARTESIAN_POINT ( 'NONE',  ( -16.42524151127994969, 50.64339366819808674, 18.86156530485212102 ) ) ;
#675 = EDGE_CURVE ( 'NONE', #334, #522, #189, .T. ) ;
#676 =( NAMED_UNIT ( * ) SI_UNIT ( $, .STERADIAN. ) SOLID_ANGLE_UNIT ( ) );
#677 = DIRECTION ( 'NONE',  ( 0.000000000000000000, -1.000000000000000000, -6.982962677686266711E-15 ) ) ;
#678 = AXIS2_PLACEMENT_3D ( 'NONE', #225, #476, #350 ) ;
#679 = DIRECTION ( 'NONE',  ( -0.000000000000000000, 1.000000000000000000, 6.982962677686266711E-15 ) ) ;
#680 = CARTESIAN_POINT ( 'NONE',  ( 0.000000000000000000, 49.99999999999981526, 25.00000000000017408 ) ) ;
#681 = CONICAL_SURFACE ( 'NONE', #737, 21.65063509461080926, 0.5235987755983033676 ) ;
#682 = FACE_OUTER_BOUND ( 'NONE', #786, .T. ) ;
#683 = EDGE_CURVE ( 'NONE', #649, #512, #639, .T. ) ;
#684 = CARTESIAN_POINT ( 'NONE',  ( 11.75274981885101511, 54.33269199355035539, -22.06631634913411943 ) ) ;
#685 = PRODUCT_DEFINITION_CONTEXT ( 'detailed design', #630, 'design' ) ;
#686 = ADVANCED_FACE ( 'NONE', ( #776 ), #262, .T. ) ;
#687 = VERTEX_POINT ( 'NONE', #337 ) ;
#688 = DIRECTION ( 'NONE',  ( -0.000000000000000000, 1.000000000000000000, 6.982962677686266711E-15 ) ) ;
#689 = SPHERICAL_SURFACE ( 'NONE', #154, 24.99999999999999289 ) ;
#690 = DIRECTION ( 'NONE',  ( 0.000000000000000000, -6.982962677686266711E-15, 1.000000000000000000 ) ) ;
#691 = ORIENTED_EDGE ( 'NONE', *, *, #259, .F. ) ;
#692 = DIRECTION ( 'NONE',  ( -0.000000000000000000, -6.982962677686266711E-15, 1.000000000000000000 ) ) ;
#693 = CIRCLE ( 'NONE', #342, 50.00000000000000711 ) ;
#694 = ORIENTED_EDGE ( 'NONE', *, *, #379, .T. ) ;
#695 = EDGE_CURVE ( 'NONE', #457, #471, #80, .T. ) ;
#696 = CARTESIAN_POINT ( 'NONE',  ( 0.000000000000000000, 49.99999999999998579, 1.745740669421566173E-13 ) ) ;
#697 = EDGE_LOOP ( 'NONE', ( #113, #24, #761, #372 ) ) ;
#698 = ADVANCED_FACE ( 'NONE', ( #23 ), #704, .F. ) ;
#699 = DIRECTION ( 'NONE',  ( -0.000000000000000000, 1.000000000000000000, 6.982962677686266711E-15 ) ) ;
#700 = DIRECTION ( 'NONE',  ( 1.000000000000000000, 0.000000000000000000, 0.000000000000000000 ) ) ;
#701 = LINE ( 'NONE', #199, #600 ) ;
#702 = FACE_OUTER_BOUND ( 'NONE', #597, .T. ) ;
#703 = VECTOR ( 'NONE', #385, 1000.000000000000000 ) ;
#704 = PLANE ( 'NONE',  #584 ) ;
#705 = ORIENTED_EDGE ( 'NONE', *, *, #209, .F. ) ;
#706 = CARTESIAN_POINT ( 'NONE',  ( 10.00000000000001243, 50.00000000000014921, -22.91287847477902417 ) ) ;
#707 = CIRCLE ( 'NONE', #617, 21.65063509461080926 ) ;
#708 = DIRECTION ( 'NONE',  ( -0.000000000000000000, 1.000000000000000000, 6.982962677686266711E-15 ) ) ;
#709 = CARTESIAN_POINT ( 'NONE',  ( -50.00000000000000711, -33.82783564014663824, -4.169158146799425277E-13 ) ) ;
#710 = ORIENTED_EDGE ( 'NONE', *, *, #326, .T. ) ;
#711 = ADVANCED_FACE ( 'NONE', ( #460 ), #681, .T. ) ;
#712 = LINE ( 'NONE', #397, #78 ) ;
#713 = CARTESIAN_POINT ( 'NONE',  ( 49.99999999999997868, -33.82783564014732036, 99.99999999999957367 ) ) ;
#714 = CARTESIAN_POINT ( 'NONE',  ( 10.34914623737140005, 57.35286391319731791, 22.75751032677915475 ) ) ;
#715 = ORIENTED_EDGE ( 'NONE', *, *, #31, .T. ) ;
#716 = LINE ( 'NONE', #77, #703 ) ;
#717 = CARTESIAN_POINT ( 'NONE',  ( 3.061616997868383043E-15, 50.00000000000016342, -24.99999999999982947 ) ) ;
#718 = AXIS2_PLACEMENT_3D ( 'NONE', #793, #226, #115 ) ;
#719 = CARTESIAN_POINT ( 'NONE',  ( 12.64942839514305462, 53.18216272552486146, 21.56979733736475424 ) ) ;
#720 = CIRCLE ( 'NONE', #614, 43.30127018922194537 ) ;
#721 = VERTEX_POINT ( 'NONE', #507 ) ;
#722 = DIRECTION ( 'NONE',  ( 0.000000000000000000, -1.000000000000000000, -6.982962677686266711E-15 ) ) ;
#723 = CLOSED_SHELL ( 'NONE', ( #36, #121, #151, #469, #643, #67, #276, #686, #530, #494, #292, #164, #773, #711, #320, #698, #802, #447, #619, #588, #303, #437 ) ) ;
#724 = CARTESIAN_POINT ( 'NONE',  ( -11.36471361680211700, 54.94338858844414375, -22.26867111367980101 ) ) ;
#725 = ORIENTED_EDGE ( 'NONE', *, *, #549, .F. ) ;
#726 = CARTESIAN_POINT ( 'NONE',  ( 10.08781882418733922, 58.47591518564146185, -22.87512283139870917 ) ) ;
#727 = LINE ( 'NONE', #352, #404 ) ;
#728 = CARTESIAN_POINT ( 'NONE',  ( -50.00000000000000000, -25.00000000000000000, -2.562216079901027174E-13 ) ) ;
#729 = ORIENTED_EDGE ( 'NONE', *, *, #624, .T. ) ;
#730 = FACE_OUTER_BOUND ( 'NONE', #360, .T. ) ;
#731 = FACE_OUTER_BOUND ( 'NONE', #498, .T. ) ;
#732 = CARTESIAN_POINT ( 'NONE',  ( -10.85647049756301286, 55.93381744107148990, -22.52043955241018836 ) ) ;
#733 = ORIENTED_EDGE ( 'NONE', *, *, #763, .T. ) ;
#734 = CARTESIAN_POINT ( 'NONE',  ( 50.00000000000000000, -24.99999999999999289, -3.491481338843132850E-13 ) ) ;
#735 = CARTESIAN_POINT ( 'NONE',  ( -10.00000000000001243, 59.22979435000711845, 22.91287847477943984 ) ) ;
#736 =( BOUNDED_SURFACE ( )  B_SPLINE_SURFACE ( 3, 3, ( 
 ( #398, #86, #651, #525 ),
 ( #709, #94, #713, #203 ),
 ( #268, #777, #200, #344 ),
 ( #338, #335, #505, #775 ) ),
 .UNSPECIFIED., .F., .F., .F. ) 
 B_SPLINE_SURFACE_WITH_KNOTS ( ( 4, 4 ),
 ( 4, 4 ),
 ( 0.000000000000000000, 1.000000000000000000 ),
 ( 0.000000000000000000, 1.000000000000000000 ),
 .UNSPECIFIED. ) 
 GEOMETRIC_REPRESENTATION_ITEM ( )  RATIONAL_B_SPLINE_SURFACE ( (
 ( 1.000000000000000000, 0.3333333333333334259, 0.3333333333333334259, 1.000000000000000000),
 ( 0.9772838841927120601, 0.3257612947309040941, 0.3257612947309040941, 0.9772838841927120601),
 ( 0.9772838841927120601, 0.3257612947309040941, 0.3257612947309040941, 0.9772838841927120601),
 ( 1.000000000000000000, 0.3333333333333334259, 0.3333333333333334259, 1.000000000000000000) ) ) 
 REPRESENTATION_ITEM ( '' )  SURFACE ( )  );
#737 = AXIS2_PLACEMENT_3D ( 'NONE', #75, #329, #572 ) ;
#738 = ORIENTED_EDGE ( 'NONE', *, *, #186, .T. ) ;
#739 = CARTESIAN_POINT ( 'NONE',  ( -9.999999999999998224, 99.99999999999988631, 15.00000000000052403 ) ) ;
#740 = EDGE_CURVE ( 'NONE', #573, #758, #25, .T. ) ;
#741 = DIRECTION ( 'NONE',  ( 0.000000000000000000, -6.982962677686266711E-15, 1.000000000000000000 ) ) ;
#742 = DIRECTION ( 'NONE',  ( 0.000000000000000000, -6.982962677686266711E-15, 1.000000000000000000 ) ) ;
#743 = CARTESIAN_POINT ( 'NONE',  ( 13.13841407584982512, 52.69329285426161391, -21.27870237959105992 ) ) ;
#744 = CARTESIAN_POINT ( 'NONE',  ( -12.64297035140179304, 53.18874439512785557, 21.57362388879420578 ) ) ;
#745 = CARTESIAN_POINT ( 'NONE',  ( 19.54035209404363371, 50.00000000000007105, -15.61286387460829772 ) ) ;
#746 = CIRCLE ( 'NONE', #150, 25.00000000000000000 ) ;
#747 = PRESENTATION_LAYER_ASSIGNMENT (  '', '', ( #1 ) ) ;
#748 = DIRECTION ( 'NONE',  ( 0.000000000000000000, -6.938893903907228378E-15, 1.000000000000000000 ) ) ;
#749 = PRODUCT_DEFINITION_SHAPE ( 'NONE', 'NONE',  #580 ) ;
#750 = DIRECTION ( 'NONE',  ( 1.000000000000000000, 0.000000000000000000, 0.000000000000000000 ) ) ;
#751 = EDGE_CURVE ( 'NONE', #522, #84, #21, .T. ) ;
#752 = DIRECTION ( 'NONE',  ( 1.000000000000000000, 0.000000000000000000, 0.000000000000000000 ) ) ;
#753 = ORIENTED_EDGE ( 'NONE', *, *, #740, .F. ) ;
#754 = CARTESIAN_POINT ( 'NONE',  ( 18.03830236948230592, 50.18093030597470516, -17.32601321129820704 ) ) ;
#755 = ORIENTED_EDGE ( 'NONE', *, *, #259, .T. ) ;
#756 = CARTESIAN_POINT ( 'NONE',  ( 10.45272255270412565, 57.00122356783652577, -22.71035499989774564 ) ) ;
#757 = PLANE ( 'NONE',  #351 ) ;
#758 = VERTEX_POINT ( 'NONE', #790 ) ;
#759 = CARTESIAN_POINT ( 'NONE',  ( -9.999999999999998224, 150.0000000000001705, -22.91287847477832429 ) ) ;
#760 = AXIS2_PLACEMENT_3D ( 'NONE', #120, #175, #118 ) ;
#761 = ORIENTED_EDGE ( 'NONE', *, *, #96, .F. ) ;
#762 = AXIS2_PLACEMENT_3D ( 'NONE', #88, #571, #537 ) ;
#763 = EDGE_CURVE ( 'NONE', #13, #471, #798, .T. ) ;
#764 = EDGE_LOOP ( 'NONE', ( #32, #5, #321, #642, #539, #207, #662, #408, #184, #496 ) ) ;
#765 = LINE ( 'NONE', #198, #11 ) ;
#766 = DIRECTION ( 'NONE',  ( 0.000000000000000000, 6.982962677686266711E-15, -1.000000000000000000 ) ) ;
#767 = PLANE ( 'NONE',  #131 ) ;
#768 = EDGE_CURVE ( 'NONE', #84, #349, #355, .T. ) ;
#769 = CARTESIAN_POINT ( 'NONE',  ( -50.00000000000000000, -24.99999999999999289, -3.552713678800499415E-13 ) ) ;
#770 = CARTESIAN_POINT ( 'NONE',  ( -9.999999999999998224, 149.9999999999998295, 22.91287847478006867 ) ) ;
#771 = AXIS2_PLACEMENT_3D ( 'NONE', #258, #85, #341 ) ;
#772 = CARTESIAN_POINT ( 'NONE',  ( 19.54022503649320086, 49.99999999999989342, 15.61303328467590568 ) ) ;
#773 = ADVANCED_FACE ( 'NONE', ( #406 ), #386, .T. ) ;
#774 = ORIENTED_EDGE ( 'NONE', *, *, #443, .F. ) ;
#775 = CARTESIAN_POINT ( 'NONE',  ( 43.30127018922195248, -49.99999999999997158, -5.131164484392207601E-13 ) ) ;
#776 = FACE_OUTER_BOUND ( 'NONE', #135, .T. ) ;
#777 = CARTESIAN_POINT ( 'NONE',  ( -47.71518800929526805, -42.35487007520000446, 95.43037601859001029 ) ) ;
#778 = CARTESIAN_POINT ( 'NONE',  ( 10.71099896338736279, 56.27763671504983733, 22.58968930936046249 ) ) ;
#779 = ORIENTED_EDGE ( 'NONE', *, *, #209, .T. ) ;
#780 = SURFACE_STYLE_USAGE ( .BOTH. , #290 ) ;
#781 = EDGE_CURVE ( 'NONE', #589, #512, #421, .T. ) ;
#782 = LINE ( 'NONE', #278, #58 ) ;
#783 = CIRCLE ( 'NONE', #718, 15.00000000000000000 ) ;
#784 = CARTESIAN_POINT ( 'NONE',  ( 15.86511017280918523, 50.88992982812003163, 19.32435477421139680 ) ) ;
#785 = VECTOR ( 'NONE', #361, 1000.000000000000000 ) ;
#786 = EDGE_LOOP ( 'NONE', ( #97, #288, #40, #483 ) ) ;
#787 = FACE_OUTER_BOUND ( 'NONE', #224, .T. ) ;
#788 = CARTESIAN_POINT ( 'NONE',  ( -10.70662779496201011, 56.28834271458516980, 22.59176297337940653 ) ) ;
#789 = EDGE_CURVE ( 'NONE', #471, #364, #803, .T. ) ;
#790 = CARTESIAN_POINT ( 'NONE',  ( -9.999999999999998224, 100.0000000000000853, -14.99999999999947597 ) ) ;
#791 = ORIENTED_EDGE ( 'NONE', *, *, #240, .T. ) ;
#792 =( NAMED_UNIT ( * ) PLANE_ANGLE_UNIT ( ) SI_UNIT ( $, .RADIAN. ) );
#793 = CARTESIAN_POINT ( 'NONE',  ( 10.00000000000000178, 99.99999999999998579, 5.237222008264700285E-13 ) ) ;
#794 = CARTESIAN_POINT ( 'NONE',  ( 10.00000000000000888, 59.22846348499292191, 22.91287847477944339 ) ) ;
#795 = EDGE_CURVE ( 'NONE', #125, #412, #235, .T. ) ;
#796 = ORIENTED_EDGE ( 'NONE', *, *, #177, .F. ) ;
#797 = FACE_OUTER_BOUND ( 'NONE', #153, .T. ) ;
#798 = B_SPLINE_CURVE_WITH_KNOTS ( 'NONE', 3,
 ( #232, #297, #166, #104, #279, #293, #592, #411, #223, #152, #33, #526, #218, #95, #227, #89, #661, #724, #401, #732, #532, #359, #653, #146, #157, #538 ),
 .UNSPECIFIED., .F., .F.,
 ( 4, 2, 2, 2, 2, 2, 2, 2, 2, 2, 2, 2, 4 ),
 ( 0.000000000000000000, 0.002271251611878885406, 0.004542503223757770811, 0.005678129029697211345, 0.006813754835636651012, 0.007949380641576093282, 0.009085006447515532949, 0.01135625805939441575, 0.01249188386533385715, 0.01362750967127329682, 0.01476313547721273822, 0.01589876128315217962, 0.01817001289503106243 ),
 .UNSPECIFIED. ) ;
#799 = DIRECTION ( 'NONE',  ( 0.000000000000000000, 6.982962677686266711E-15, -1.000000000000000000 ) ) ;
#800 = ORIENTED_EDGE ( 'NONE', *, *, #363, .T. ) ;
#801 = CARTESIAN_POINT ( 'NONE',  ( 20.00000000000000355, 49.99999999999988631, 15.00000000000017231 ) ) ;
#802 = ADVANCED_FACE ( 'NONE', ( #435, #807 ), #245, .F. ) ;
#803 = LINE ( 'NONE', #3, #531 ) ;
#804 = CARTESIAN_POINT ( 'NONE',  ( 0.000000000000000000, -87.49999999999991473, -7.855833012397041845E-13 ) ) ;
#805 = DIRECTION ( 'NONE',  ( -1.000000000000000000, 0.000000000000000000, 0.000000000000000000 ) ) ;
#806 = DIRECTION ( 'NONE',  ( 1.224646799147353207E-16, 6.982962677686266711E-15, -1.000000000000000000 ) ) ;
#807 = FACE_OUTER_BOUND ( 'NONE', #697, .T. ) ;
ENDSEC;
END-ISO-10303-21;
