ISO-10303-21;
HEADER;
FILE_DESCRIPTION (( 'STEP AP214' ),
    '1' );
FILE_NAME ('N308_base.STEP',
    '2026-01-16T01:32:13',
    ( '' ),
    ( '' ),
    'SwSTEP 2.0',
    'SolidWorks 2024',
    '' );
FILE_SCHEMA (( 'AUTOMOTIVE_DESIGN' ));
ENDSEC;

DATA;
#1 = CARTESIAN_POINT ( 'NONE',  ( 48.98979485566356828, 69.99999999999984368, 0.000000000000000000 ) ) ;
#2 = AXIS2_PLACEMENT_3D ( 'NONE', #279, #21, #400 ) ;
#3 = CARTESIAN_POINT ( 'NONE',  ( 34.19987131196462116, 100.0000000000001279, -208.4068852988663139 ) ) ;
#4 = LINE ( 'NONE', #642, #179 ) ;
#5 = CARTESIAN_POINT ( 'NONE',  ( 48.98979485566356828, 69.99999999999984368, -140.0071426749364036 ) ) ;
#6 = CARTESIAN_POINT ( 'NONE',  ( 140.0071426749360910, 100.0000000000000000, -140.0071426749363752 ) ) ;
#7 = VERTEX_POINT ( 'NONE', #552 ) ;
#8 = EDGE_CURVE ( 'NONE', #280, #699, #425, .T. ) ;
#9 = LINE ( 'NONE', #277, #520 ) ;
#10 = LINE ( 'NONE', #82, #771 ) ;
#11 = ORIENTED_EDGE ( 'NONE', *, *, #730, .T. ) ;
#12 = AXIS2_PLACEMENT_3D ( 'NONE', #837, #66, #529 ) ;
#13 = CARTESIAN_POINT ( 'NONE',  ( 37.58728181243890987, 56.98300017677767215, 0.000000000000000000 ) ) ;
#14 = CARTESIAN_POINT ( 'NONE',  ( 174.2070139869008756, 100.0000000000001279, -140.0071426749364036 ) ) ;
#15 = EDGE_LOOP ( 'NONE', ( #224, #557, #696, #235 ) ) ;
#16 = CIRCLE ( 'NONE', #605, 48.98979485566382408 ) ;
#17 =( BOUNDED_SURFACE ( )  B_SPLINE_SURFACE ( 3, 3, ( 
 ( #380, #773, #439, #640 ),
 ( #574, #511, #392, #184 ),
 ( #590, #61, #3, #443 ),
 ( #710, #257, #650, #189 ) ),
 .UNSPECIFIED., .F., .F., .T. ) 
 B_SPLINE_SURFACE_WITH_KNOTS ( ( 4, 4 ),
 ( 4, 4 ),
 ( 0.000000000000000000, 1.000000000000000000 ),
 ( 0.000000000000000000, 1.000000000000000000 ),
 .UNSPECIFIED. ) 
 GEOMETRIC_REPRESENTATION_ITEM ( )  RATIONAL_B_SPLINE_SURFACE ( (
 ( 1.000000000000000000, 0.3333333333333334259, 0.3333333333333334259, 1.000000000000000000),
 ( 0.7549703546891139982, 0.2516567848963713883, 0.2516567848963713883, 0.7549703546891139982),
 ( 0.7549703546891139982, 0.2516567848963713883, 0.2516567848963713883, 0.7549703546891139982),
 ( 1.000000000000000000, 0.3333333333333334259, 0.3333333333333334259, 1.000000000000000000) ) ) 
 REPRESENTATION_ITEM ( '' )  SURFACE ( )  );
#18 = APPLICATION_PROTOCOL_DEFINITION ( 'draft international standard', 'automotive_design', 1998, #65 ) ;
#19 = PLANE ( 'NONE',  #450 ) ;
#20 = ADVANCED_FACE ( 'NONE', ( #96 ), #370, .T. ) ;
#21 = DIRECTION ( 'NONE',  ( -3.430248998885766964E-15, 1.000000000000000000, 0.000000000000000000 ) ) ;
#22 = ORIENTED_EDGE ( 'NONE', *, *, #173, .T. ) ;
#23 = VECTOR ( 'NONE', #155, 1000.000000000000000 ) ;
#24 = VERTEX_POINT ( 'NONE', #763 ) ;
#25 = DIRECTION ( 'NONE',  ( 1.000000000000000000, 3.430248998885766570E-15, 0.000000000000000000 ) ) ;
#26 = CARTESIAN_POINT ( 'NONE',  ( 140.0071426749360626, 100.0000000000000284, -140.0071426749364036 ) ) ;
#27 = ORIENTED_EDGE ( 'NONE', *, *, #601, .T. ) ;
#28 = CARTESIAN_POINT ( 'NONE',  ( 0.000000000000000000, 0.000000000000000000, 0.000000000000000000 ) ) ;
#29 = CARTESIAN_POINT ( 'NONE',  ( 188.9969375305999790, 70.00000000000000000, 0.000000000000000000 ) ) ;
#30 = DIRECTION ( 'NONE',  ( 1.000000000000000000, 0.000000000000000000, 0.000000000000000000 ) ) ;
#31 = ORIENTED_EDGE ( 'NONE', *, *, #389, .T. ) ;
#32 = EDGE_CURVE ( 'NONE', #373, #422, #489, .T. ) ;
#33 = ORIENTED_EDGE ( 'NONE', *, *, #85, .F. ) ;
#34 = CARTESIAN_POINT ( 'NONE',  ( -1.830016055579018801E-13, 53.34936490538893850, -140.0071426749364036 ) ) ;
#35 = CARTESIAN_POINT ( 'NONE',  ( 91.01734781927230244, 69.99999999999967315, -237.9867323862639523 ) ) ;
#36 = EDGE_LOOP ( 'NONE', ( #472, #751, #153, #739, #275, #663 ) ) ;
#37 = CARTESIAN_POINT ( 'NONE',  ( 174.2070139869009040, 100.0000000000001279, 68.39974262392961180 ) ) ;
#38 = CARTESIAN_POINT ( 'NONE',  ( -3.430248998885767296E-13, 100.0000000000000000, -140.0071426749364036 ) ) ;
#39 = CARTESIAN_POINT ( 'NONE',  ( 0.000000000000000000, 70.00000000000000000, 0.000000000000000000 ) ) ;
#40 = ORIENTED_EDGE ( 'NONE', *, *, #591, .F. ) ;
#41 = LINE ( 'NONE', #222, #752 ) ;
#42 = CARTESIAN_POINT ( 'NONE',  ( 91.01734781927234508, 69.99999999999984368, 0.000000000000000000 ) ) ;
#43 = CYLINDRICAL_SURFACE ( 'NONE', #476, 25.00000000000007816 ) ;
#44 = FACE_OUTER_BOUND ( 'NONE', #727, .T. ) ;
#45 = ORIENTED_EDGE ( 'NONE', *, *, #601, .F. ) ;
#46 = DIRECTION ( 'NONE',  ( 0.000000000000000000, 0.000000000000000000, -1.000000000000000000 ) ) ;
#47 = DIRECTION ( 'NONE',  ( 1.000000000000000000, 3.430248998885767359E-15, 0.000000000000000000 ) ) ;
#48 = LINE ( 'NONE', #182, #268 ) ;
#49 = EDGE_CURVE ( 'NONE', #835, #159, #48, .T. ) ;
#50 = VERTEX_POINT ( 'NONE', #428 ) ;
#51 = DIRECTION ( 'NONE',  ( 1.000000000000000000, -0.000000000000000000, 0.000000000000000000 ) ) ;
#52 = DIRECTION ( 'NONE',  ( 0.000000000000000000, 1.000000000000000000, -0.000000000000000000 ) ) ;
#53 = ADVANCED_FACE ( 'NONE', ( #239 ), #104, .T. ) ;
#54 = VERTEX_POINT ( 'NONE', #495 ) ;
#55 = AXIS2_PLACEMENT_3D ( 'NONE', #729, #530, #789 ) ;
#56 = CARTESIAN_POINT ( 'NONE',  ( 63.64665149901227181, 100.0000000000002274, -12.71383967691119921 ) ) ;
#57 =( BOUNDED_SURFACE ( )  B_SPLINE_SURFACE ( 3, 3, ( 
 ( #165, #748, #686, #612 ),
 ( #306, #356, #361, #628 ),
 ( #414, #483, #243, #674 ),
 ( #563, #492, #417, #367 ) ),
 .UNSPECIFIED., .F., .F., .F. ) 
 B_SPLINE_SURFACE_WITH_KNOTS ( ( 4, 4 ),
 ( 4, 4 ),
 ( 0.000000000000000000, 1.000000000000000000 ),
 ( 0.000000000000000000, 1.000000000000000000 ),
 .UNSPECIFIED. ) 
 GEOMETRIC_REPRESENTATION_ITEM ( )  RATIONAL_B_SPLINE_SURFACE ( (
 ( 1.000000000000000000, 0.3333333333333334259, 0.3333333333333334259, 1.000000000000000000),
 ( 0.5058793634016782725, 0.1686264544672261279, 0.1686264544672261279, 0.5058793634016782725),
 ( 0.5058793634016782725, 0.1686264544672261279, 0.1686264544672261279, 0.5058793634016782725),
 ( 1.000000000000000000, 0.3333333333333334259, 0.3333333333333334259, 1.000000000000000000) ) ) 
 REPRESENTATION_ITEM ( '' )  SURFACE ( )  );
#58 = ORIENTED_EDGE ( 'NONE', *, *, #188, .F. ) ;
#59 = EDGE_CURVE ( 'NONE', #83, #24, #376, .T. ) ;
#60 = CARTESIAN_POINT ( 'NONE',  ( 140.0071426749360626, 100.0000000000000284, 0.000000000000000000 ) ) ;
#61 = CARTESIAN_POINT ( 'NONE',  ( -34.19987131196530328, 99.99999999999990052, -208.4068852988663423 ) ) ;
#62 = CARTESIAN_POINT ( 'NONE',  ( -3.430248998885767296E-13, 100.0000000000000000, 0.000000000000000000 ) ) ;
#63 = DIRECTION ( 'NONE',  ( 3.430248998885766964E-15, -1.000000000000000000, -0.000000000000000000 ) ) ;
#64 = DIRECTION ( 'NONE',  ( 3.430248998885766964E-15, -1.000000000000000000, -0.000000000000000000 ) ) ;
#65 = APPLICATION_CONTEXT ( 'automotive_design' ) ;
#66 = DIRECTION ( 'NONE',  ( -3.430248998885766964E-15, 1.000000000000000000, 0.000000000000000000 ) ) ;
#67 = CARTESIAN_POINT ( 'NONE',  ( 0.000000000000000000, 70.00000000000000000, 0.000000000000000000 ) ) ;
#68 = DIRECTION ( 'NONE',  ( -0.000000000000000000, -1.000000000000000000, -0.000000000000000000 ) ) ;
#69 = AXIS2_PLACEMENT_3D ( 'NONE', #374, #46, #247 ) ;
#70 = AXIS2_PLACEMENT_3D ( 'NONE', #28, #281, #343 ) ;
#71 = CARTESIAN_POINT ( 'NONE',  ( 0.000000000000000000, 0.000000000000000000, -25.00000000000009237 ) ) ;
#72 = DIRECTION ( 'NONE',  ( 3.430248998885766964E-15, -1.000000000000000000, -0.000000000000000000 ) ) ;
#73 = FACE_OUTER_BOUND ( 'NONE', #633, .T. ) ;
#74 = ADVANCED_FACE ( 'NONE', ( #172, #44 ), #834, .T. ) ;
#75 = ORIENTED_EDGE ( 'NONE', *, *, #142, .T. ) ;
#76 = FACE_OUTER_BOUND ( 'NONE', #660, .T. ) ;
#77 = CARTESIAN_POINT ( 'NONE',  ( 220.1267597388962827, 69.26102778014220007, -140.0071426749364321 ) ) ;
#78 = EDGE_LOOP ( 'NONE', ( #287, #839, #823, #746 ) ) ;
#79 = ADVANCED_FACE ( 'NONE', ( #253 ), #17, .T. ) ;
#80 = UNCERTAINTY_MEASURE_WITH_UNIT (LENGTH_MEASURE( 1.000000000000000082E-05 ), #762, 'distance_accuracy_value', 'NONE');
#81 = DIRECTION ( 'NONE',  ( -1.000000000000000000, 0.000000000000000000, -0.000000000000000000 ) ) ;
#82 = CARTESIAN_POINT ( 'NONE',  ( 200.0071426749363468, 70.00000000000000000, 0.000000000000000000 ) ) ;
#83 = VERTEX_POINT ( 'NONE', #129 ) ;
#84 = AXIS2_PLACEMENT_3D ( 'NONE', #34, #237, #623 ) ;
#85 = EDGE_CURVE ( 'NONE', #774, #159, #384, .T. ) ;
#86 = CARTESIAN_POINT ( 'NONE',  ( -3.430248998885767296E-13, 100.0000000000000000, 0.000000000000000000 ) ) ;
#87 = AXIS2_PLACEMENT_3D ( 'NONE', #312, #99, #359 ) ;
#88 = CARTESIAN_POINT ( 'NONE',  ( 115.0071426749360626, 53.34936490538885323, -140.0071426749363752 ) ) ;
#89 = ORIENTED_EDGE ( 'NONE', *, *, #126, .T. ) ;
#90 = PRODUCT_CONTEXT ( 'NONE', #211, 'mechanical' ) ;
#91 = CARTESIAN_POINT ( 'NONE',  ( 115.0071426749360342, 53.34936490538886744, -140.0071426749363752 ) ) ;
#92 = VERTEX_POINT ( 'NONE', #644 ) ;
#93 = ORIENTED_EDGE ( 'NONE', *, *, #782, .F. ) ;
#94 = CARTESIAN_POINT ( 'NONE',  ( 195.8369117929929075, 86.75444679663252145, 111.6595382361135904 ) ) ;
#95 = DIRECTION ( 'NONE',  ( 0.000000000000000000, 0.000000000000000000, 1.000000000000000000 ) ) ;
#96 = FACE_OUTER_BOUND ( 'NONE', #78, .T. ) ;
#97 = AXIS2_PLACEMENT_3D ( 'NONE', #535, #602, #589 ) ;
#98 = CARTESIAN_POINT ( 'NONE',  ( 140.0071426749360626, 100.0000000000000000, 3.081487911019577365E-30 ) ) ;
#99 = DIRECTION ( 'NONE',  ( 3.430248998885766964E-15, -1.000000000000000000, -0.000000000000000000 ) ) ;
#100 = VECTOR ( 'NONE', #213, 1000.000000000000000 ) ;
#101 = ORIENTED_EDGE ( 'NONE', *, *, #596, .F. ) ;
#102 = CARTESIAN_POINT ( 'NONE',  ( 188.9969375305999790, 70.00000000000000000, 0.000000000000000000 ) ) ;
#103 = CARTESIAN_POINT ( 'NONE',  ( 105.8072713629713917, 99.99999999999990052, 4.188276293344887943E-15 ) ) ;
#104 = CYLINDRICAL_SURFACE ( 'NONE', #716, 25.00000000000009237 ) ;
#105 = DIRECTION ( 'NONE',  ( 3.430248998885766964E-15, -1.000000000000000000, -0.000000000000000000 ) ) ;
#106 = CARTESIAN_POINT ( 'NONE',  ( -3.460865168864449821E-13, 100.0000000000000284, -6.123233995736578336E-15 ) ) ;
#107 = CARTESIAN_POINT ( 'NONE',  ( -1.875940310547045365E-13, 53.34936490538893850, -25.00000000000018829 ) ) ;
#108 = DIRECTION ( 'NONE',  ( 3.430248998885766964E-15, -1.000000000000000000, -0.000000000000000000 ) ) ;
#109 = ORIENTED_EDGE ( 'NONE', *, *, #149, .T. ) ;
#110 = VECTOR ( 'NONE', #95, 1000.000000000000000 ) ;
#111 = EDGE_CURVE ( 'NONE', #699, #377, #262, .T. ) ;
#112 = CARTESIAN_POINT ( 'NONE',  ( -34.19987131196514696, 99.99999999999987210, -140.0071426749364036 ) ) ;
#113 = FILL_AREA_STYLE ('',( #749 ) ) ;
#114 = ORIENTED_EDGE ( 'NONE', *, *, #441, .T. ) ;
#115 = ORIENTED_EDGE ( 'NONE', *, *, #678, .F. ) ;
#116 = CARTESIAN_POINT ( 'NONE',  ( -2.401174299220030998E-13, 69.99999999999984368, -140.0071426749364036 ) ) ;
#117 = CARTESIAN_POINT ( 'NONE',  ( 0.000000000000000000, 70.00000000000000000, 0.000000000000000000 ) ) ;
#118 = ORIENTED_EDGE ( 'NONE', *, *, #173, .F. ) ;
#119 = CARTESIAN_POINT ( 'NONE',  ( -55.82976911805729259, 86.75444679663202407, 111.6595382361140025 ) ) ;
#120 = DIRECTION ( 'NONE',  ( -0.000000000000000000, -1.000000000000000000, -0.000000000000000000 ) ) ;
#121 = ADVANCED_FACE ( 'NONE', ( #320 ), #780, .F. ) ;
#122 = EDGE_LOOP ( 'NONE', ( #445, #109, #27 ) ) ;
#123 = CARTESIAN_POINT ( 'NONE',  ( 140.0071426749364036, -8.575622497214418240E-14, -140.0071426749364036 ) ) ;
#124 = CIRCLE ( 'NONE', #600, 24.99999999999999289 ) ;
#125 = CARTESIAN_POINT ( 'NONE',  ( 140.0071426749364036, 0.000000000000000000, -25.00000000000009237 ) ) ;
#126 = EDGE_CURVE ( 'NONE', #832, #534, #767, .T. ) ;
#127 = DIRECTION ( 'NONE',  ( -3.430248998885766964E-15, 1.000000000000000000, 0.000000000000000000 ) ) ;
#128 = CARTESIAN_POINT ( 'NONE',  ( 105.8072713629712780, 99.99999999999987210, -140.0071426749364036 ) ) ;
#129 = CARTESIAN_POINT ( 'NONE',  ( 115.0071426749364178, 0.000000000000000000, 0.000000000000000000 ) ) ;
#130 = PRODUCT_DEFINITION_CONTEXT ( 'detailed design', #65, 'design' ) ;
#131 = CARTESIAN_POINT ( 'NONE',  ( 140.0071426749360626, 100.0000000000000284, -5.551115123125782071E-14 ) ) ;
#132 = CARTESIAN_POINT ( 'NONE',  ( 200.0071426749363468, 70.00000000000000000, 60.00000000000003553 ) ) ;
#133 = CARTESIAN_POINT ( 'NONE',  ( 140.0071426749361763, 69.99999999999984368, 0.000000000000000000 ) ) ;
#134 = CARTESIAN_POINT ( 'NONE',  ( 76.36049117592341418, 99.99999999999978684, 7.794466803471288939E-15 ) ) ;
#135 = EDGE_CURVE ( 'NONE', #373, #774, #328, .T. ) ;
#136 = PLANE ( 'NONE',  #97 ) ;
#137 = DIRECTION ( 'NONE',  ( 1.000000000000000000, -0.000000000000000000, 0.000000000000000000 ) ) ;
#138 = ORIENTED_EDGE ( 'NONE', *, *, #769, .T. ) ;
#139 = AXIS2_PLACEMENT_3D ( 'NONE', #683, #826, #167 ) ;
#140 = CARTESIAN_POINT ( 'NONE',  ( -2.401174299220030998E-13, 69.99999999999984368, -140.0071426749364036 ) ) ;
#141 = CARTESIAN_POINT ( 'NONE',  ( 140.0071426749362331, 56.98300017677757268, -37.58728181243921540 ) ) ;
#142 = EDGE_CURVE ( 'NONE', #430, #567, #796, .T. ) ;
#143 = DIRECTION ( 'NONE',  ( 0.000000000000000000, 0.000000000000000000, -1.000000000000000000 ) ) ;
#144 = ORIENTED_EDGE ( 'NONE', *, *, #514, .F. ) ;
#145 =( BOUNDED_SURFACE ( )  B_SPLINE_SURFACE ( 3, 3, ( 
 ( #29, #558, #824, #757 ),
 ( #818, #94, #296, #677 ),
 ( #682, #37, #693, #497 ),
 ( #300, #160, #427, #98 ) ),
 .UNSPECIFIED., .F., .F., .F. ) 
 B_SPLINE_SURFACE_WITH_KNOTS ( ( 4, 4 ),
 ( 4, 4 ),
 ( 0.000000000000000000, 1.000000000000000000 ),
 ( 0.000000000000000000, 1.000000000000000000 ),
 .UNSPECIFIED. ) 
 GEOMETRIC_REPRESENTATION_ITEM ( )  RATIONAL_B_SPLINE_SURFACE ( (
 ( 1.000000000000000000, 0.3333333333333334259, 0.3333333333333334259, 1.000000000000000000),
 ( 0.7549703546891155526, 0.2516567848963719434, 0.2516567848963719434, 0.7549703546891155526),
 ( 0.7549703546891155526, 0.2516567848963719434, 0.2516567848963719434, 0.7549703546891155526),
 ( 1.000000000000000000, 0.3333333333333334259, 0.3333333333333334259, 1.000000000000000000) ) ) 
 REPRESENTATION_ITEM ( '' )  SURFACE ( )  );
#146 = CARTESIAN_POINT ( 'NONE',  ( 2.941652048589201649E-28, -8.575622497214418240E-14, -140.0071426749364036 ) ) ;
#147 = CARTESIAN_POINT ( 'NONE',  ( 140.0071426749362331, 53.34936490538894560, -25.00000000000019895 ) ) ;
#148 = ORIENTED_EDGE ( 'NONE', *, *, #226, .T. ) ;
#149 = EDGE_CURVE ( 'NONE', #50, #636, #16, .T. ) ;
#150 = CARTESIAN_POINT ( 'NONE',  ( 140.0071426749362047, 62.87955813897445978, -46.08288663855285705 ) ) ;
#151 = CARTESIAN_POINT ( 'NONE',  ( -55.82976911805710785, 86.75444679663212355, 6.837174804756402660E-15 ) ) ;
#152 = VERTEX_POINT ( 'NONE', #209 ) ;
#153 = ORIENTED_EDGE ( 'NONE', *, *, #841, .T. ) ;
#154 = FACE_OUTER_BOUND ( 'NONE', #341, .T. ) ;
#155 = DIRECTION ( 'NONE',  ( -0.000000000000000000, -1.000000000000000000, -0.000000000000000000 ) ) ;
#156 = VERTEX_POINT ( 'NONE', #147 ) ;
#157 = CARTESIAN_POINT ( 'NONE',  ( 0.000000000000000000, 0.000000000000000000, -140.0071426749364036 ) ) ;
#158 = CARTESIAN_POINT ( 'NONE',  ( 84.17737355687924605, 86.75444679663210934, -251.6666809110499230 ) ) ;
#159 = VERTEX_POINT ( 'NONE', #205 ) ;
#160 = CARTESIAN_POINT ( 'NONE',  ( 140.0071426749360626, 100.0000000000000284, 0.000000000000000000 ) ) ;
#161 = ADVANCED_FACE ( 'NONE', ( #73 ), #516, .T. ) ;
#162 = ORIENTED_EDGE ( 'NONE', *, *, #149, .F. ) ;
#163 = VECTOR ( 'NONE', #510, 1000.000000000000000 ) ;
#164 =( GEOMETRIC_REPRESENTATION_CONTEXT ( 3 ) GLOBAL_UNCERTAINTY_ASSIGNED_CONTEXT ( ( #337 ) ) GLOBAL_UNIT_ASSIGNED_CONTEXT ( ( #847, #325, #585 ) ) REPRESENTATION_CONTEXT ( 'NONE', 'WORKASPACE' ) );
#165 = CARTESIAN_POINT ( 'NONE',  ( -25.00000000000037659, 53.34936490538886034, 3.061616997868406708E-15 ) ) ;
#166 = CARTESIAN_POINT ( 'NONE',  ( 34.19987131196462116, 100.0000000000001279, 68.39974262392992443 ) ) ;
#167 = DIRECTION ( 'NONE',  ( 1.000000000000000000, 3.330669073875444378E-15, 0.000000000000000000 ) ) ;
#168 = VERTEX_POINT ( 'NONE', #609 ) ;
#169 = CIRCLE ( 'NONE', #2, 48.98979485566382408 ) ;
#170 = CARTESIAN_POINT ( 'NONE',  ( 25.00000000000000000, 0.000000000000000000, -140.0071426749364036 ) ) ;
#171 = CARTESIAN_POINT ( 'NONE',  ( -2.241578302992027492E-13, 62.87955813897448820, -46.08288663855286416 ) ) ;
#172 = FACE_BOUND ( 'NONE', #290, .T. ) ;
#173 = EDGE_CURVE ( 'NONE', #422, #54, #10, .T. ) ;
#174 = ORIENTED_EDGE ( 'NONE', *, *, #436, .F. ) ;
#175 = CARTESIAN_POINT ( 'NONE',  ( -48.98979485566405856, 69.99999999999967315, -140.0071426749364036 ) ) ;
#176 = ORIENTED_EDGE ( 'NONE', *, *, #664, .F. ) ;
#177 = ORIENTED_EDGE ( 'NONE', *, *, #591, .T. ) ;
#178 = EDGE_CURVE ( 'NONE', #692, #242, #169, .T. ) ;
#179 = VECTOR ( 'NONE', #592, 1000.000000000000000 ) ;
#180 = CARTESIAN_POINT ( 'NONE',  ( 5.916456789157588541E-28, 69.99999999999984368, -48.98979485566381697 ) ) ;
#181 = CARTESIAN_POINT ( 'NONE',  ( 174.2070139869008187, 100.0000000000001137, -208.4068852988660296 ) ) ;
#182 = CARTESIAN_POINT ( 'NONE',  ( -60.00000000000000000, 0.000000000000000000, -0.000000000000000000 ) ) ;
#183 = ORIENTED_EDGE ( 'NONE', *, *, #448, .T. ) ;
#184 = CARTESIAN_POINT ( 'NONE',  ( 55.82976911805668152, 86.75444679663242198, -140.0071426749364321 ) ) ;
#185 = ORIENTED_EDGE ( 'NONE', *, *, #307, .T. ) ;
#186 = CARTESIAN_POINT ( 'NONE',  ( 140.0071426749364036, 0.000000000000000000, -25.00000000000000000 ) ) ;
#187 = CARTESIAN_POINT ( 'NONE',  ( 91.01734781927234508, 69.99999999999984368, -140.0071426749364036 ) ) ;
#188 = EDGE_CURVE ( 'NONE', #430, #50, #666, .T. ) ;
#189 = CARTESIAN_POINT ( 'NONE',  ( -3.460865168864449821E-13, 100.0000000000000000, -140.0071426749364036 ) ) ;
#190 = CARTESIAN_POINT ( 'NONE',  ( 115.0071426749360484, 53.34936490538886034, 3.061616997868403553E-15 ) ) ;
#191 = AXIS2_PLACEMENT_3D ( 'NONE', #116, #779, #838 ) ;
#192 = CARTESIAN_POINT ( 'NONE',  ( 105.8072713629712069, 99.99999999999988631, -208.4068852988659728 ) ) ;
#193 =( BOUNDED_CURVE ( )  B_SPLINE_CURVE ( 3, ( #364, #171, #815, #107 ),
 .UNSPECIFIED., .F., .F. ) 
 B_SPLINE_CURVE_WITH_KNOTS ( ( 4, 4 ),
 ( 3.342950574380123108, 4.188790204786390525 ),
 .UNSPECIFIED. ) 
 CURVE ( )  GEOMETRIC_REPRESENTATION_ITEM ( )  RATIONAL_B_SPLINE_CURVE ( ( 1.000000000000000000, 0.9412629764324016435, 0.9412629764324016435, 1.000000000000000000 ) ) 
 REPRESENTATION_ITEM ( '' )  );
#194 = CARTESIAN_POINT ( 'NONE',  ( 115.0071426749360484, 53.34936490538886034, -50.00000000000034106 ) ) ;
#195 = CARTESIAN_POINT ( 'NONE',  ( -3.460865168864449821E-13, 100.0000000000000284, -140.0071426749364036 ) ) ;
#196 = CARTESIAN_POINT ( 'NONE',  ( -60.00000000000000000, 70.00000000000000000, -200.0071426749364036 ) ) ;
#197 = EDGE_CURVE ( 'NONE', #567, #604, #463, .T. ) ;
#198 = DIRECTION ( 'NONE',  ( 3.430248998885766964E-15, -1.000000000000000000, -0.000000000000000000 ) ) ;
#199 = CARTESIAN_POINT ( 'NONE',  ( 140.0071426749364036, 70.00000000000000000, 0.000000000000000000 ) ) ;
#200 = CARTESIAN_POINT ( 'NONE',  ( 25.00000000000000711, 53.34936490538902376, -140.0071426749364036 ) ) ;
#201 = ORIENTED_EDGE ( 'NONE', *, *, #836, .F. ) ;
#202 = FACE_OUTER_BOUND ( 'NONE', #486, .T. ) ;
#203 = FACE_OUTER_BOUND ( 'NONE', #404, .T. ) ;
#204 = VECTOR ( 'NONE', #540, 1000.000000000000000 ) ;
#205 = CARTESIAN_POINT ( 'NONE',  ( -60.00000000000000000, 0.000000000000000000, -200.0071426749364036 ) ) ;
#206 = ORIENTED_EDGE ( 'NONE', *, *, #208, .T. ) ;
#207 = PLANE ( 'NONE',  #371 ) ;
#208 = EDGE_CURVE ( 'NONE', #835, #631, #286, .T. ) ;
#209 = CARTESIAN_POINT ( 'NONE',  ( -48.98979485566405856, 69.99999999999967315, -140.0071426749364036 ) ) ;
#210 = ORIENTED_EDGE ( 'NONE', *, *, #332, .F. ) ;
#211 = APPLICATION_CONTEXT ( 'automotive_design' ) ;
#212 = CARTESIAN_POINT ( 'NONE',  ( 140.0071426749362331, 53.34936490538894560, -25.00000000000019895 ) ) ;
#213 = DIRECTION ( 'NONE',  ( 1.000000000000000000, -0.000000000000000000, 0.000000000000000000 ) ) ;
#214 = ORIENTED_EDGE ( 'NONE', *, *, #332, .T. ) ;
#215 = EDGE_CURVE ( 'NONE', #747, #92, #690, .T. ) ;
#216 =( BOUNDED_SURFACE ( )  B_SPLINE_SURFACE ( 3, 3, ( 
 ( #190, #194, #724, #651 ),
 ( #456, #333, #393, #263 ),
 ( #134, #786, #775, #719 ),
 ( #387, #131, #60, #451 ) ),
 .UNSPECIFIED., .F., .F., .F. ) 
 B_SPLINE_SURFACE_WITH_KNOTS ( ( 4, 4 ),
 ( 4, 4 ),
 ( 0.000000000000000000, 1.000000000000000000 ),
 ( 0.000000000000000000, 1.000000000000000000 ),
 .UNSPECIFIED. ) 
 GEOMETRIC_REPRESENTATION_ITEM ( )  RATIONAL_B_SPLINE_SURFACE ( (
 ( 1.000000000000000000, 0.3333333333333334259, 0.3333333333333334259, 1.000000000000000000),
 ( 0.5058793634016781615, 0.1686264544672261001, 0.1686264544672261001, 0.5058793634016781615),
 ( 0.5058793634016781615, 0.1686264544672261001, 0.1686264544672261001, 0.5058793634016781615),
 ( 1.000000000000000000, 0.3333333333333334259, 0.3333333333333334259, 1.000000000000000000) ) ) 
 REPRESENTATION_ITEM ( '' )  SURFACE ( )  );
#217 = ORIENTED_EDGE ( 'NONE', *, *, #389, .F. ) ;
#218 = CARTESIAN_POINT ( 'NONE',  ( 140.0071426749362047, 53.34936490538894560, -115.0071426749362047 ) ) ;
#219 = CARTESIAN_POINT ( 'NONE',  ( 220.1267597388963395, 69.26102778014220007, 20.23209145298379497 ) ) ;
#220 = ORIENTED_EDGE ( 'NONE', *, *, #792, .F. ) ;
#221 = AXIS2_PLACEMENT_3D ( 'NONE', #157, #292, #25 ) ;
#222 = CARTESIAN_POINT ( 'NONE',  ( 140.0071426749364036, 70.00000000000000000, 0.000000000000000000 ) ) ;
#223 = PLANE ( 'NONE',  #345 ) ;
#224 = ORIENTED_EDGE ( 'NONE', *, *, #441, .F. ) ;
#225 = ORIENTED_EDGE ( 'NONE', *, *, #291, .F. ) ;
#226 = EDGE_CURVE ( 'NONE', #636, #7, #770, .T. ) ;
#227 = APPLICATION_PROTOCOL_DEFINITION ( 'draft international standard', 'automotive_design', 1998, #211 ) ;
#228 = DIRECTION ( 'NONE',  ( 0.000000000000000000, 0.000000000000000000, -1.000000000000000000 ) ) ;
#229 = SURFACE_STYLE_USAGE ( .BOTH. , #488 ) ;
#230 = ORIENTED_EDGE ( 'NONE', *, *, #678, .T. ) ;
#231 = STYLED_ITEM ( 'NONE', ( #754 ), #303 ) ;
#232 = CARTESIAN_POINT ( 'NONE',  ( 140.0071426749364036, -8.575622497214418240E-14, 0.000000000000000000 ) ) ;
#233 = CARTESIAN_POINT ( 'NONE',  ( 34.19987131196462116, 100.0000000000001137, 0.000000000000000000 ) ) ;
#234 = FACE_OUTER_BOUND ( 'NONE', #506, .T. ) ;
#235 = ORIENTED_EDGE ( 'NONE', *, *, #299, .T. ) ;
#236 = VECTOR ( 'NONE', #228, 1000.000000000000000 ) ;
#237 = DIRECTION ( 'NONE',  ( 3.430248998885766964E-15, -1.000000000000000000, -0.000000000000000000 ) ) ;
#238 = FACE_OUTER_BOUND ( 'NONE', #505, .T. ) ;
#239 = FACE_OUTER_BOUND ( 'NONE', #409, .T. ) ;
#240 = EDGE_CURVE ( 'NONE', #54, #435, #354, .T. ) ;
#241 = AXIS2_PLACEMENT_3D ( 'NONE', #117, #52, #705 ) ;
#242 = VERTEX_POINT ( 'NONE', #460 ) ;
#243 = CARTESIAN_POINT ( 'NONE',  ( 63.64665149901223629, 100.0000000000002132, -127.2933029980252542 ) ) ;
#244 = CARTESIAN_POINT ( 'NONE',  ( 140.0071426749364036, 69.99999999999984368, -91.01734781927258666 ) ) ;
#245 = ORIENTED_EDGE ( 'NONE', *, *, #299, .F. ) ;
#246 = ORIENTED_EDGE ( 'NONE', *, *, #291, .T. ) ;
#247 = DIRECTION ( 'NONE',  ( -1.000000000000000000, 0.000000000000000000, -0.000000000000000000 ) ) ;
#248 = LINE ( 'NONE', #442, #700 ) ;
#249 = DIRECTION ( 'NONE',  ( 1.000000000000000000, 3.430248998885766570E-15, 0.000000000000000000 ) ) ;
#250 = ORIENTED_EDGE ( 'NONE', *, *, #381, .T. ) ;
#251 = CARTESIAN_POINT ( 'NONE',  ( 84.17737355687948764, 86.75444679663225145, 6.837174804756378995E-15 ) ) ;
#252 = CARTESIAN_POINT ( 'NONE',  ( 91.01734781927234508, 69.99999999999984368, 0.000000000000000000 ) ) ;
#253 = FACE_OUTER_BOUND ( 'NONE', #382, .T. ) ;
#254 = ORIENTED_EDGE ( 'NONE', *, *, #618, .F. ) ;
#255 = CARTESIAN_POINT ( 'NONE',  ( 55.82976911805670994, 86.75444679663242198, 0.000000000000000000 ) ) ;
#256 = CARTESIAN_POINT ( 'NONE',  ( -3.460865168864449821E-13, 100.0000000000000000, -140.0071426749364036 ) ) ;
#257 = CARTESIAN_POINT ( 'NONE',  ( -3.399632828907083761E-13, 100.0000000000000284, -140.0071426749364036 ) ) ;
#258 = EDGE_LOOP ( 'NONE', ( #538, #595, #322, #759, #799, #539, #298, #695 ) ) ;
#259 =( GEOMETRIC_REPRESENTATION_CONTEXT ( 3 ) GLOBAL_UNCERTAINTY_ASSIGNED_CONTEXT ( ( #80 ) ) GLOBAL_UNIT_ASSIGNED_CONTEXT ( ( #762, #559, #698 ) ) REPRESENTATION_CONTEXT ( 'NONE', 'WORKASPACE' ) );
#260 = LINE ( 'NONE', #71, #714 ) ;
#261 = CARTESIAN_POINT ( 'NONE',  ( -63.64665149901295393, 99.99999999999978684, -12.71383967691122407 ) ) ;
#262 = LINE ( 'NONE', #270, #581 ) ;
#263 = CARTESIAN_POINT ( 'NONE',  ( 220.1267597388962827, 69.26102778014218586, -1.962364651725807640E-14 ) ) ;
#264 = AXIS2_PLACEMENT_3D ( 'NONE', #140, #458, #840 ) ;
#265 = CARTESIAN_POINT ( 'NONE',  ( 80.11961706395989324, 69.26102778014220007, 20.23209145298377010 ) ) ;
#266 = DIRECTION ( 'NONE',  ( 3.430248998885766964E-15, -1.000000000000000000, -0.000000000000000000 ) ) ;
#267 = EDGE_CURVE ( 'NONE', #791, #512, #726, .T. ) ;
#268 = VECTOR ( 'NONE', #309, 1000.000000000000000 ) ;
#269 = CARTESIAN_POINT ( 'NONE',  ( 25.00000000000000711, 53.34936490538902376, 0.000000000000000000 ) ) ;
#270 = CARTESIAN_POINT ( 'NONE',  ( 0.000000000000000000, 0.000000000000000000, -140.0071426749364036 ) ) ;
#271 = CARTESIAN_POINT ( 'NONE',  ( 25.00000000000009237, 8.575622497214448532E-14, 0.000000000000000000 ) ) ;
#272 = CARTESIAN_POINT ( 'NONE',  ( 140.0071426749364036, 69.99999999999984368, -48.98979485566382408 ) ) ;
#273 = AXIS2_PLACEMENT_3D ( 'NONE', #616, #679, #301 ) ;
#274 = CARTESIAN_POINT ( 'NONE',  ( 0.000000000000000000, 70.00000000000000000, 0.000000000000000000 ) ) ;
#275 = ORIENTED_EDGE ( 'NONE', *, *, #188, .T. ) ;
#276 = EDGE_CURVE ( 'NONE', #692, #168, #349, .T. ) ;
#277 = CARTESIAN_POINT ( 'NONE',  ( 0.000000000000000000, 0.000000000000000000, -115.0071426749363184 ) ) ;
#278 = AXIS2_PLACEMENT_3D ( 'NONE', #648, #198, #783 ) ;
#279 = CARTESIAN_POINT ( 'NONE',  ( 140.0071426749361763, 69.99999999999984368, -140.0071426749364036 ) ) ;
#280 = VERTEX_POINT ( 'NONE', #200 ) ;
#281 = DIRECTION ( 'NONE',  ( 0.000000000000000000, 0.000000000000000000, 1.000000000000000000 ) ) ;
#282 = CARTESIAN_POINT ( 'NONE',  ( 140.0071426749364036, 0.000000000000000000, -0.000000000000000000 ) ) ;
#283 = CARTESIAN_POINT ( 'NONE',  ( 140.0071426749360910, 100.0000000000000000, -140.0071426749364036 ) ) ;
#284 = ORIENTED_EDGE ( 'NONE', *, *, #536, .T. ) ;
#285 = CARTESIAN_POINT ( 'NONE',  ( 195.8369117929929644, 86.75444679663250724, 0.000000000000000000 ) ) ;
#286 = LINE ( 'NONE', #542, #100 ) ;
#287 = ORIENTED_EDGE ( 'NONE', *, *, #831, .F. ) ;
#288 = LINE ( 'NONE', #545, #681 ) ;
#289 = CARTESIAN_POINT ( 'NONE',  ( 188.9969375305999222, 70.00000000000001421, -237.9867323862640376 ) ) ;
#290 = EDGE_LOOP ( 'NONE', ( #162, #58, #75, #795, #571, #619, #673, #582, #569, #467, #230, #305 ) ) ;
#291 = EDGE_CURVE ( 'NONE', #774, #54, #794, .T. ) ;
#292 = DIRECTION ( 'NONE',  ( 3.430248998885766964E-15, -1.000000000000000000, -0.000000000000000000 ) ) ;
#293 = FACE_OUTER_BOUND ( 'NONE', #419, .T. ) ;
#294 = DIRECTION ( 'NONE',  ( -3.430248998885766964E-15, 1.000000000000000000, 0.000000000000000000 ) ) ;
#295 = ADVANCED_FACE ( 'NONE', ( #234 ), #308, .F. ) ;
#296 = CARTESIAN_POINT ( 'NONE',  ( 84.17737355687934553, 86.75444679663210934, 111.6595382361135478 ) ) ;
#297 = CARTESIAN_POINT ( 'NONE',  ( 195.8369117929929075, 86.75444679663249303, -251.6666809110500935 ) ) ;
#298 = ORIENTED_EDGE ( 'NONE', *, *, #267, .T. ) ;
#299 = EDGE_CURVE ( 'NONE', #24, #156, #508, .T. ) ;
#300 = CARTESIAN_POINT ( 'NONE',  ( 140.0071426749360910, 100.0000000000000000, 0.000000000000000000 ) ) ;
#301 = DIRECTION ( 'NONE',  ( -1.000000000000000000, 0.000000000000000000, -0.000000000000000000 ) ) ;
#302 = ORIENTED_EDGE ( 'NONE', *, *, #691, .F. ) ;
#303 = MANIFOLD_SOLID_BREP ( 'Sketch-Pattern1', #822 ) ;
#304 = VECTOR ( 'NONE', #656, 1000.000000000000000 ) ;
#305 = ORIENTED_EDGE ( 'NONE', *, *, #226, .F. ) ;
#306 = CARTESIAN_POINT ( 'NONE',  ( -80.11961706396034799, 69.26102778014164585, 9.811823258629041354E-15 ) ) ;
#307 = EDGE_CURVE ( 'NONE', #766, #355, #193, .T. ) ;
#308 = PLANE ( 'NONE',  #273 ) ;
#309 = DIRECTION ( 'NONE',  ( 0.000000000000000000, 0.000000000000000000, -1.000000000000000000 ) ) ;
#310 = VERTEX_POINT ( 'NONE', #694 ) ;
#311 = LINE ( 'NONE', #388, #575 ) ;
#312 = CARTESIAN_POINT ( 'NONE',  ( 140.0071426749364036, 0.000000000000000000, -140.0071426749364036 ) ) ;
#313 = ORIENTED_EDGE ( 'NONE', *, *, #276, .T. ) ;
#314 = CARTESIAN_POINT ( 'NONE',  ( 48.98979485566356828, 69.99999999999984368, 0.000000000000000000 ) ) ;
#315 = FACE_OUTER_BOUND ( 'NONE', #543, .T. ) ;
#316 = EDGE_CURVE ( 'NONE', #747, #766, #820, .T. ) ;
#317 = VERTEX_POINT ( 'NONE', #244 ) ;
#318 = VECTOR ( 'NONE', #120, 1000.000000000000000 ) ;
#319 = CARTESIAN_POINT ( 'NONE',  ( 140.0071426749360626, 100.0000000000000000, -140.0071426749363752 ) ) ;
#320 = FACE_OUTER_BOUND ( 'NONE', #474, .T. ) ;
#321 =( BOUNDED_CURVE ( )  B_SPLINE_CURVE ( 3, ( #554, #814, #487, #760 ),
 .UNSPECIFIED., .F., .T. ) 
 B_SPLINE_CURVE_WITH_KNOTS ( ( 4, 4 ),
 ( 3.342950574380129769, 4.188790204786390525 ),
 .UNSPECIFIED. ) 
 CURVE ( )  GEOMETRIC_REPRESENTATION_ITEM ( )  RATIONAL_B_SPLINE_CURVE ( ( 1.000000000000000000, 0.9412629764324025317, 0.9412629764324025317, 1.000000000000000000 ) ) 
 REPRESENTATION_ITEM ( '' )  );
#322 = ORIENTED_EDGE ( 'NONE', *, *, #536, .F. ) ;
#323 = VECTOR ( 'NONE', #64, 1000.000000000000000 ) ;
#324 = CARTESIAN_POINT ( 'NONE',  ( 200.0071426749363468, 0.000000000000000000, -200.0071426749364036 ) ) ;
#325 =( NAMED_UNIT ( * ) PLANE_ANGLE_UNIT ( ) SI_UNIT ( $, .RADIAN. ) );
#326 = ADVANCED_FACE ( 'NONE', ( #293 ), #223, .T. ) ;
#327 = CARTESIAN_POINT ( 'NONE',  ( 48.98979485566356828, 69.99999999999984368, 0.000000000000000000 ) ) ;
#328 = LINE ( 'NONE', #587, #607 ) ;
#329 = DIRECTION ( 'NONE',  ( 1.000000000000000000, 3.430248998885768148E-15, 0.000000000000000000 ) ) ;
#330 = CIRCLE ( 'NONE', #191, 48.98979485566381697 ) ;
#331 = DIRECTION ( 'NONE',  ( 3.430248998885766964E-15, -1.000000000000000000, -0.000000000000000000 ) ) ;
#332 = EDGE_CURVE ( 'NONE', #355, #544, #561, .T. ) ;
#333 = CARTESIAN_POINT ( 'NONE',  ( 59.88752561097604854, 69.26102778014163164, -160.2392341279201560 ) ) ;
#334 = DIRECTION ( 'NONE',  ( 0.000000000000000000, 0.000000000000000000, -1.000000000000000000 ) ) ;
#335 = CARTESIAN_POINT ( 'NONE',  ( 76.36049117592351365, 99.99999999999977263, -12.71383967691119921 ) ) ;
#336 = ORIENTED_EDGE ( 'NONE', *, *, #813, .T. ) ;
#337 = UNCERTAINTY_MEASURE_WITH_UNIT (LENGTH_MEASURE( 1.000000000000000082E-05 ), #847, 'distance_accuracy_value', 'NONE');
#338 = CARTESIAN_POINT ( 'NONE',  ( 1.470826024294600825E-28, -4.287811248607209120E-14, 0.000000000000000000 ) ) ;
#339 = VECTOR ( 'NONE', #137, 1000.000000000000000 ) ;
#340 = CARTESIAN_POINT ( 'NONE',  ( 59.88752561097609117, 69.26102778014163164, -140.0071426749364036 ) ) ;
#341 = EDGE_LOOP ( 'NONE', ( #284, #114, #676, #115, #599, #89 ) ) ;
#342 = ADVANCED_FACE ( 'NONE', ( #635 ), #43, .T. ) ;
#343 = DIRECTION ( 'NONE',  ( 1.000000000000000000, 0.000000000000000000, 0.000000000000000000 ) ) ;
#344 = FACE_OUTER_BOUND ( 'NONE', #617, .T. ) ;
#345 = AXIS2_PLACEMENT_3D ( 'NONE', #810, #30, #630 ) ;
#346 = CARTESIAN_POINT ( 'NONE',  ( -3.430248998885767296E-13, 100.0000000000000000, 0.000000000000000000 ) ) ;
#347 = ORIENTED_EDGE ( 'NONE', *, *, #135, .T. ) ;
#348 = VECTOR ( 'NONE', #68, 1000.000000000000000 ) ;
#349 =( BOUNDED_CURVE ( )  B_SPLINE_CURVE ( 3, ( #738, #659, #14, #398 ),
 .UNSPECIFIED., .F., .T. ) 
 B_SPLINE_CURVE_WITH_KNOTS ( ( 4, 4 ),
 ( 2.940234732799463124, 4.712388980384696779 ),
 .UNSPECIFIED. ) 
 CURVE ( )  GEOMETRIC_REPRESENTATION_ITEM ( )  RATIONAL_B_SPLINE_CURVE ( ( 1.000000000000000000, 0.7549703546891155526, 0.7549703546891155526, 1.000000000000000000 ) ) 
 REPRESENTATION_ITEM ( '' )  );
#350 = CARTESIAN_POINT ( 'NONE',  ( 203.6537941739487110, 100.0000000000002274, -140.0071426749364321 ) ) ;
#351 = ORIENTED_EDGE ( 'NONE', *, *, #240, .T. ) ;
#352 = LINE ( 'NONE', #809, #236 ) ;
#353 = EDGE_CURVE ( 'NONE', #611, #401, #632, .T. ) ;
#354 = LINE ( 'NONE', #469, #23 ) ;
#355 = VERTEX_POINT ( 'NONE', #432 ) ;
#356 = CARTESIAN_POINT ( 'NONE',  ( -80.11961706396036220, 69.26102778014164585, -160.2392341279201844 ) ) ;
#357 = CARTESIAN_POINT ( 'NONE',  ( 115.0071426749363184, -8.575622497214448532E-14, 0.000000000000000000 ) ) ;
#358 = ORIENTED_EDGE ( 'NONE', *, *, #267, .F. ) ;
#359 = DIRECTION ( 'NONE',  ( 1.000000000000000000, 3.430248998885768542E-15, 0.000000000000000000 ) ) ;
#360 = ADVANCED_FACE ( 'NONE', ( #547 ), #369, .T. ) ;
#361 = CARTESIAN_POINT ( 'NONE',  ( 80.11961706395985061, 69.26102778014220007, -160.2392341279202412 ) ) ;
#362 =( BOUNDED_CURVE ( )  B_SPLINE_CURVE ( 3, ( #42, #251, #103, #707 ),
 .UNSPECIFIED., .F., .F. ) 
 B_SPLINE_CURVE_WITH_KNOTS ( ( 4, 4 ),
 ( 2.940234732799469786, 4.712388980384696779 ),
 .UNSPECIFIED. ) 
 CURVE ( )  GEOMETRIC_REPRESENTATION_ITEM ( )  RATIONAL_B_SPLINE_CURVE ( ( 1.000000000000000000, 0.7549703546891173289, 0.7549703546891173289, 1.000000000000000000 ) ) 
 REPRESENTATION_ITEM ( '' )  );
#363 = CARTESIAN_POINT ( 'NONE',  ( -3.460865168864449821E-13, 100.0000000000000000, 0.000000000000000000 ) ) ;
#364 = CARTESIAN_POINT ( 'NONE',  ( 5.916456789157588541E-28, 69.99999999999984368, -48.98979485566381697 ) ) ;
#365 = CARTESIAN_POINT ( 'NONE',  ( 0.000000000000000000, 0.000000000000000000, 0.000000000000000000 ) ) ;
#366 = ORIENTED_EDGE ( 'NONE', *, *, #135, .F. ) ;
#367 = CARTESIAN_POINT ( 'NONE',  ( -3.460865168864449821E-13, 100.0000000000000000, 7.498798913309123825E-31 ) ) ;
#368 = CARTESIAN_POINT ( 'NONE',  ( 5.916456789157588541E-28, 69.99999999999984368, -91.01734781927258666 ) ) ;
#369 =( BOUNDED_SURFACE ( )  B_SPLINE_SURFACE ( 3, 3, ( 
 ( #620, #35, #289, #494 ),
 ( #806, #158, #297, #515 ),
 ( #128, #192, #181, #776 ),
 ( #319, #717, #639, #772 ) ),
 .UNSPECIFIED., .F., .F., .T. ) 
 B_SPLINE_SURFACE_WITH_KNOTS ( ( 4, 4 ),
 ( 4, 4 ),
 ( 0.000000000000000000, 1.000000000000000000 ),
 ( 0.000000000000000000, 1.000000000000000000 ),
 .UNSPECIFIED. ) 
 GEOMETRIC_REPRESENTATION_ITEM ( )  RATIONAL_B_SPLINE_SURFACE ( (
 ( 1.000000000000000000, 0.3333333333333334259, 0.3333333333333334259, 1.000000000000000000),
 ( 0.7549703546891157746, 0.2516567848963719989, 0.2516567848963719989, 0.7549703546891157746),
 ( 0.7549703546891157746, 0.2516567848963719989, 0.2516567848963719989, 0.7549703546891157746),
 ( 1.000000000000000000, 0.3333333333333334259, 0.3333333333333334259, 1.000000000000000000) ) ) 
 REPRESENTATION_ITEM ( '' )  SURFACE ( )  );
#370 = CYLINDRICAL_SURFACE ( 'NONE', #87, 25.00000000000007816 ) ;
#371 = AXIS2_PLACEMENT_3D ( 'NONE', #338, #734, #657 ) ;
#372 = PRODUCT_DEFINITION_FORMATION_WITH_SPECIFIED_SOURCE ( 'ANY', '', #481, .NOT_KNOWN. ) ;
#373 = VERTEX_POINT ( 'NONE', #391 ) ;
#374 = CARTESIAN_POINT ( 'NONE',  ( 0.000000000000000000, 70.00000000000000000, -200.0071426749364036 ) ) ;
#375 = CARTESIAN_POINT ( 'NONE',  ( -1.830016055579018801E-13, 53.34936490538893850, 0.000000000000000000 ) ) ;
#376 = LINE ( 'NONE', #357, #454 ) ;
#377 = VERTEX_POINT ( 'NONE', #721 ) ;
#378 = CARTESIAN_POINT ( 'NONE',  ( 55.82976911805670994, 86.75444679663242198, 0.000000000000000000 ) ) ;
#379 = FACE_OUTER_BOUND ( 'NONE', #36, .T. ) ;
#380 = CARTESIAN_POINT ( 'NONE',  ( -48.98979485566398751, 69.99999999999951683, -140.0071426749364036 ) ) ;
#381 = EDGE_CURVE ( 'NONE', #24, #50, #455, .T. ) ;
#382 = EDGE_LOOP ( 'NONE', ( #802, #807, #830 ) ) ;
#383 = LINE ( 'NONE', #125, #163 ) ;
#384 = LINE ( 'NONE', #196, #348 ) ;
#385 = ORIENTED_EDGE ( 'NONE', *, *, #85, .T. ) ;
#386 = CIRCLE ( 'NONE', #278, 25.00000000000018829 ) ;
#387 = CARTESIAN_POINT ( 'NONE',  ( 140.0071426749360626, 100.0000000000000000, -1.066386761198681783E-30 ) ) ;
#388 = CARTESIAN_POINT ( 'NONE',  ( 0.000000000000000000, 0.000000000000000000, -200.0071426749364036 ) ) ;
#389 = EDGE_CURVE ( 'NONE', #242, #168, #541, .T. ) ;
#390 = DIRECTION ( 'NONE',  ( -1.000000000000000000, 0.000000000000000000, 0.000000000000000000 ) ) ;
#391 = CARTESIAN_POINT ( 'NONE',  ( -60.00000000000000000, 70.00000000000000000, 60.00000000000003553 ) ) ;
#392 = CARTESIAN_POINT ( 'NONE',  ( 55.82976911805668152, 86.75444679663243619, -251.6666809110503777 ) ) ;
#393 = CARTESIAN_POINT ( 'NONE',  ( 220.1267597388962258, 69.26102778014217165, -160.2392341279202412 ) ) ;
#394 = CARTESIAN_POINT ( 'NONE',  ( 102.4198608624968756, 56.98300017677748031, 4.603114436025333753E-15 ) ) ;
#395 = CARTESIAN_POINT ( 'NONE',  ( -2.401174299220030998E-13, 69.99999999999984368, 0.000000000000000000 ) ) ;
#396 = LINE ( 'NONE', #446, #304 ) ;
#397 = CARTESIAN_POINT ( 'NONE',  ( 140.0071426749362331, 56.98300017677758689, -102.4198608624972024 ) ) ;
#398 = CARTESIAN_POINT ( 'NONE',  ( 140.0071426749360910, 100.0000000000000000, -140.0071426749364036 ) ) ;
#399 = ORIENTED_EDGE ( 'NONE', *, *, #178, .T. ) ;
#400 = DIRECTION ( 'NONE',  ( 1.000000000000000000, 3.399349888776277871E-15, 0.000000000000000000 ) ) ;
#401 = VERTEX_POINT ( 'NONE', #523 ) ;
#402 = CARTESIAN_POINT ( 'NONE',  ( 140.0071426749364036, 0.000000000000000000, -115.0071426749364178 ) ) ;
#403 = CARTESIAN_POINT ( 'NONE',  ( 165.0071426749364321, 53.34936490538903087, -90.00714267493599152 ) ) ;
#404 = EDGE_LOOP ( 'NONE', ( #701, #485, #177, #144 ) ) ;
#405 = CARTESIAN_POINT ( 'NONE',  ( 174.2070139869008756, 100.0000000000001279, 0.000000000000000000 ) ) ;
#406 = VECTOR ( 'NONE', #127, 1000.000000000000000 ) ;
#407 = DIRECTION ( 'NONE',  ( 1.000000000000000000, -0.000000000000000000, 0.000000000000000000 ) ) ;
#408 = ORIENTED_EDGE ( 'NONE', *, *, #448, .F. ) ;
#409 = EDGE_LOOP ( 'NONE', ( #626, #768, #201, #214 ) ) ;
#410 = EDGE_CURVE ( 'NONE', #310, #83, #248, .T. ) ;
#411 = CARTESIAN_POINT ( 'NONE',  ( 200.0071426749363468, 0.000000000000000000, 60.00000000000003553 ) ) ;
#412 = CARTESIAN_POINT ( 'NONE',  ( 0.000000000000000000, 0.000000000000000000, -0.000000000000000000 ) ) ;
#413 = EDGE_LOOP ( 'NONE', ( #399, #31, #531 ) ) ;
#414 = CARTESIAN_POINT ( 'NONE',  ( -63.64665149901296104, 99.99999999999978684, 7.794466803471288939E-15 ) ) ;
#415 = DIRECTION ( 'NONE',  ( 3.430248998885766964E-15, -1.000000000000000000, -0.000000000000000000 ) ) ;
#416 = ORIENTED_EDGE ( 'NONE', *, *, #32, .F. ) ;
#417 = CARTESIAN_POINT ( 'NONE',  ( -3.460865168864449821E-13, 100.0000000000000284, 6.123233995736579125E-15 ) ) ;
#418 = DIRECTION ( 'NONE',  ( 3.430248998885766964E-15, -1.000000000000000000, -0.000000000000000000 ) ) ;
#419 = EDGE_LOOP ( 'NONE', ( #40, #440, #733, #185, #562, #358 ) ) ;
#420 = CIRCLE ( 'NONE', #588, 24.99999999999999289 ) ;
#421 = EDGE_CURVE ( 'NONE', #512, #310, #817, .T. ) ;
#422 = VERTEX_POINT ( 'NONE', #132 ) ;
#423 = DIRECTION ( 'NONE',  ( 1.000000000000000000, 3.430248998885768148E-15, 0.000000000000000000 ) ) ;
#424 = CARTESIAN_POINT ( 'NONE',  ( -34.19987131196531749, 99.99999999999988631, 4.188276293344930542E-15 ) ) ;
#425 = LINE ( 'NONE', #821, #491 ) ;
#426 = AXIS2_PLACEMENT_3D ( 'NONE', #580, #722, #524 ) ;
#427 = CARTESIAN_POINT ( 'NONE',  ( 140.0071426749360626, 100.0000000000000284, 5.551115123125782071E-14 ) ) ;
#428 = CARTESIAN_POINT ( 'NONE',  ( 91.01734781927234508, 69.99999999999984368, 0.000000000000000000 ) ) ;
#429 =( BOUNDED_CURVE ( )  B_SPLINE_CURVE ( 3, ( #661, #608, #397, #218 ),
 .UNSPECIFIED., .F., .T. ) 
 B_SPLINE_CURVE_WITH_KNOTS ( ( 4, 4 ),
 ( 3.342950574380123108, 4.188790204786389637 ),
 .UNSPECIFIED. ) 
 CURVE ( )  GEOMETRIC_REPRESENTATION_ITEM ( )  RATIONAL_B_SPLINE_CURVE ( ( 1.000000000000000000, 0.9412629764324018655, 0.9412629764324018655, 1.000000000000000000 ) ) 
 REPRESENTATION_ITEM ( '' )  );
#430 = VERTEX_POINT ( 'NONE', #327 ) ;
#431 = CARTESIAN_POINT ( 'NONE',  ( -34.19987131196530328, 99.99999999999990052, 68.39974262392993865 ) ) ;
#432 = CARTESIAN_POINT ( 'NONE',  ( -1.875940310547045365E-13, 53.34936490538893850, -25.00000000000018829 ) ) ;
#433 = ORIENTED_EDGE ( 'NONE', *, *, #570, .F. ) ;
#434 = CIRCLE ( 'NONE', #804, 25.00000000000000000 ) ;
#435 = VERTEX_POINT ( 'NONE', #324 ) ;
#436 = EDGE_CURVE ( 'NONE', #373, #835, #713, .T. ) ;
#437 = ADVANCED_BREP_SHAPE_REPRESENTATION ( 'N308_base', ( #303, #70 ), #164 ) ;
#438 = CARTESIAN_POINT ( 'NONE',  ( 140.0071426749360910, 100.0000000000000000, 0.000000000000000000 ) ) ;
#439 = CARTESIAN_POINT ( 'NONE',  ( 48.98979485566351144, 69.99999999999985789, -237.9867323862638671 ) ) ;
#440 = ORIENTED_EDGE ( 'NONE', *, *, #215, .F. ) ;
#441 = EDGE_CURVE ( 'NONE', #828, #156, #383, .T. ) ;
#442 = CARTESIAN_POINT ( 'NONE',  ( 0.000000000000000000, 0.000000000000000000, 0.000000000000000000 ) ) ;
#443 = CARTESIAN_POINT ( 'NONE',  ( 34.19987131196462116, 100.0000000000001279, -140.0071426749364321 ) ) ;
#444 = MECHANICAL_DESIGN_GEOMETRIC_PRESENTATION_REPRESENTATION (  '', ( #231 ), #259 ) ;
#445 = ORIENTED_EDGE ( 'NONE', *, *, #730, .F. ) ;
#446 = CARTESIAN_POINT ( 'NONE',  ( 115.0071426749363184, -8.575622497214448532E-14, -140.0071426749364036 ) ) ;
#447 = DIRECTION ( 'NONE',  ( 1.000000000000000000, -0.000000000000000000, 0.000000000000000000 ) ) ;
#448 = EDGE_CURVE ( 'NONE', #159, #435, #311, .T. ) ;
#449 =( BOUNDED_SURFACE ( )  B_SPLINE_SURFACE ( 3, 3, ( 
 ( #509, #572, #687, #555 ),
 ( #378, #638, #119, #503 ),
 ( #233, #166, #431, #424 ),
 ( #363, #106, #697, #624 ) ),
 .UNSPECIFIED., .F., .F., .T. ) 
 B_SPLINE_SURFACE_WITH_KNOTS ( ( 4, 4 ),
 ( 4, 4 ),
 ( 0.000000000000000000, 1.000000000000000000 ),
 ( 0.000000000000000000, 1.000000000000000000 ),
 .UNSPECIFIED. ) 
 GEOMETRIC_REPRESENTATION_ITEM ( )  RATIONAL_B_SPLINE_SURFACE ( (
 ( 1.000000000000000000, 0.3333333333333334259, 0.3333333333333334259, 1.000000000000000000),
 ( 0.7549703546891138872, 0.2516567848963713883, 0.2516567848963713883, 0.7549703546891138872),
 ( 0.7549703546891138872, 0.2516567848963713883, 0.2516567848963713883, 0.7549703546891138872),
 ( 1.000000000000000000, 0.3333333333333334259, 0.3333333333333334259, 1.000000000000000000) ) ) 
 REPRESENTATION_ITEM ( '' )  SURFACE ( )  );
#450 = AXIS2_PLACEMENT_3D ( 'NONE', #199, #459, #334 ) ;
#451 = CARTESIAN_POINT ( 'NONE',  ( 140.0071426749360910, 100.0000000000000000, 0.000000000000000000 ) ) ;
#452 = CARTESIAN_POINT ( 'NONE',  ( 93.92425603638318421, 62.87955813897441715, 5.643525961737425476E-15 ) ) ;
#453 = CARTESIAN_POINT ( 'NONE',  ( 140.0071426749364036, 0.000000000000000000, -115.0071426749363184 ) ) ;
#454 = VECTOR ( 'NONE', #294, 1000.000000000000000 ) ;
#455 =( BOUNDED_CURVE ( )  B_SPLINE_CURVE ( 3, ( #704, #394, #452, #252 ),
 .UNSPECIFIED., .F., .F. ) 
 B_SPLINE_CURVE_WITH_KNOTS ( ( 4, 4 ),
 ( 2.094395102393196151, 2.940234732799469786 ),
 .UNSPECIFIED. ) 
 CURVE ( )  GEOMETRIC_REPRESENTATION_ITEM ( )  RATIONAL_B_SPLINE_CURVE ( ( 1.000000000000000000, 0.9412629764324008663, 0.9412629764324008663, 1.000000000000000000 ) ) 
 REPRESENTATION_ITEM ( '' )  );
#456 = CARTESIAN_POINT ( 'NONE',  ( 59.88752561097606275, 69.26102778014163164, 9.811823258629038199E-15 ) ) ;
#457 = CARTESIAN_POINT ( 'NONE',  ( -3.399632828907083761E-13, 100.0000000000000284, -140.0071426749364036 ) ) ;
#458 = DIRECTION ( 'NONE',  ( -3.430248998885766964E-15, 1.000000000000000000, 0.000000000000000000 ) ) ;
#459 = DIRECTION ( 'NONE',  ( 1.000000000000000000, 0.000000000000000000, 0.000000000000000000 ) ) ;
#460 = CARTESIAN_POINT ( 'NONE',  ( 91.01734781927234508, 69.99999999999984368, -140.0071426749364036 ) ) ;
#461 = EDGE_LOOP ( 'NONE', ( #408, #33, #246, #351 ) ) ;
#462 = CARTESIAN_POINT ( 'NONE',  ( -60.00000000000000000, 70.00000000000000000, 0.000000000000000000 ) ) ;
#463 =( BOUNDED_CURVE ( )  B_SPLINE_CURVE ( 3, ( #731, #151, #526, #346 ),
 .UNSPECIFIED., .F., .F. ) 
 B_SPLINE_CURVE_WITH_KNOTS ( ( 4, 4 ),
 ( 2.940234732799463124, 4.712388980384696779 ),
 .UNSPECIFIED. ) 
 CURVE ( )  GEOMETRIC_REPRESENTATION_ITEM ( )  RATIONAL_B_SPLINE_CURVE ( ( 1.000000000000000000, 0.7549703546891155526, 0.7549703546891155526, 1.000000000000000000 ) ) 
 REPRESENTATION_ITEM ( '' )  );
#464 = EDGE_CURVE ( 'NONE', #152, #747, #330, .T. ) ;
#465 = CYLINDRICAL_SURFACE ( 'NONE', #221, 25.00000000000009237 ) ;
#466 = CARTESIAN_POINT ( 'NONE',  ( -1.856958277161138001E-13, 56.98300017677757268, -102.4198608624971740 ) ) ;
#467 = ORIENTED_EDGE ( 'NONE', *, *, #813, .F. ) ;
#468 = DIRECTION ( 'NONE',  ( 1.000000000000000000, 3.430248998885767359E-15, 0.000000000000000000 ) ) ;
#469 = CARTESIAN_POINT ( 'NONE',  ( 200.0071426749363468, 70.00000000000000000, -200.0071426749364036 ) ) ;
#470 = ORIENTED_EDGE ( 'NONE', *, *, #565, .F. ) ;
#471 = CARTESIAN_POINT ( 'NONE',  ( 91.01734781927234508, 69.99999999999984368, -140.0071426749364036 ) ) ;
#472 = ORIENTED_EDGE ( 'NONE', *, *, #59, .F. ) ;
#473 = ADVANCED_FACE ( 'NONE', ( #315 ), #720, .T. ) ;
#474 = EDGE_LOOP ( 'NONE', ( #816, #564, #118, #502 ) ) ;
#475 = LINE ( 'NONE', #282, #204 ) ;
#476 = AXIS2_PLACEMENT_3D ( 'NONE', #484, #418, #745 ) ;
#477 = CARTESIAN_POINT ( 'NONE',  ( 140.0071426749361763, 69.99999999999984368, 0.000000000000000000 ) ) ;
#478 = VERTEX_POINT ( 'NONE', #438 ) ;
#479 = FACE_OUTER_BOUND ( 'NONE', #122, .T. ) ;
#480 = CARTESIAN_POINT ( 'NONE',  ( 48.98979485566356828, 69.99999999999984368, -140.0071426749364036 ) ) ;
#481 = PRODUCT ( 'N308_base', 'N308_base', '', ( #90 ) ) ;
#482 = ORIENTED_EDGE ( 'NONE', *, *, #464, .T. ) ;
#483 = CARTESIAN_POINT ( 'NONE',  ( -63.64665149901296815, 99.99999999999977263, -127.2933029980251973 ) ) ;
#484 = CARTESIAN_POINT ( 'NONE',  ( 140.0071426749364036, 0.000000000000000000, 0.000000000000000000 ) ) ;
#485 = ORIENTED_EDGE ( 'NONE', *, *, #664, .T. ) ;
#486 = EDGE_LOOP ( 'NONE', ( #647, #174, #347, #385 ) ) ;
#487 = CARTESIAN_POINT ( 'NONE',  ( 37.58728181243892408, 56.98300017677767215, -140.0071426749364036 ) ) ;
#488 = SURFACE_SIDE_STYLE ('',( #556 ) ) ;
#489 = LINE ( 'NONE', #689, #634 ) ;
#490 = AXIS2_PLACEMENT_3D ( 'NONE', #578, #63, #47 ) ;
#491 = VECTOR ( 'NONE', #684, 1000.000000000000000 ) ;
#492 = CARTESIAN_POINT ( 'NONE',  ( -3.399632828907083761E-13, 100.0000000000000284, 6.123233995736578336E-15 ) ) ;
#493 = FACE_OUTER_BOUND ( 'NONE', #461, .T. ) ;
#494 = CARTESIAN_POINT ( 'NONE',  ( 188.9969375305999790, 70.00000000000000000, -140.0071426749364321 ) ) ;
#495 = CARTESIAN_POINT ( 'NONE',  ( 200.0071426749363468, 70.00000000000000000, -200.0071426749364036 ) ) ;
#496 = ORIENTED_EDGE ( 'NONE', *, *, #197, .F. ) ;
#497 = CARTESIAN_POINT ( 'NONE',  ( 105.8072713629712638, 99.99999999999987210, 4.188276293344910820E-15 ) ) ;
#498 = CARTESIAN_POINT ( 'NONE',  ( 55.82976911805670994, 86.75444679663242198, -140.0071426749364036 ) ) ;
#499 = ORIENTED_EDGE ( 'NONE', *, *, #142, .F. ) ;
#500 = VECTOR ( 'NONE', #533, 1000.000000000000000 ) ;
#501 = ADVANCED_FACE ( 'NONE', ( #379 ), #833, .T. ) ;
#502 = ORIENTED_EDGE ( 'NONE', *, *, #782, .T. ) ;
#503 = CARTESIAN_POINT ( 'NONE',  ( -55.82976911805729969, 86.75444679663202407, 6.837174804756426326E-15 ) ) ;
#504 = CARTESIAN_POINT ( 'NONE',  ( 63.64665149901225760, 100.0000000000002274, -140.0071426749364321 ) ) ;
#505 = EDGE_LOOP ( 'NONE', ( #496, #499, #138 ) ) ;
#506 = EDGE_LOOP ( 'NONE', ( #672, #736, #667, #750, #576, #560 ) ) ;
#507 = ADVANCED_FACE ( 'NONE', ( #593, #76 ), #207, .T. ) ;
#508 = CIRCLE ( 'NONE', #139, 25.00000000000018829 ) ;
#509 = CARTESIAN_POINT ( 'NONE',  ( 48.98979485566351144, 69.99999999999985789, 0.000000000000000000 ) ) ;
#510 = DIRECTION ( 'NONE',  ( -3.430248998885766964E-15, 1.000000000000000000, 0.000000000000000000 ) ) ;
#511 = CARTESIAN_POINT ( 'NONE',  ( -55.82976911805727838, 86.75444679663203829, -251.6666809110503777 ) ) ;
#512 = VERTEX_POINT ( 'NONE', #653 ) ;
#513 = PLANE ( 'NONE',  #740 ) ;
#514 = EDGE_CURVE ( 'NONE', #699, #791, #434, .T. ) ;
#515 = CARTESIAN_POINT ( 'NONE',  ( 195.8369117929929644, 86.75444679663247882, -140.0071426749364605 ) ) ;
#516 =( BOUNDED_SURFACE ( )  B_SPLINE_SURFACE ( 3, 3, ( 
 ( #613, #403, #662, #88 ),
 ( #77, #219, #675, #340 ),
 ( #350, #594, #335, #735 ),
 ( #283, #26, #598, #6 ) ),
 .UNSPECIFIED., .F., .F., .F. ) 
 B_SPLINE_SURFACE_WITH_KNOTS ( ( 4, 4 ),
 ( 4, 4 ),
 ( 0.000000000000000000, 1.000000000000000000 ),
 ( 0.000000000000000000, 1.000000000000000000 ),
 .UNSPECIFIED. ) 
 GEOMETRIC_REPRESENTATION_ITEM ( )  RATIONAL_B_SPLINE_SURFACE ( (
 ( 1.000000000000000000, 0.3333333333333334259, 0.3333333333333334259, 1.000000000000000000),
 ( 0.5058793634016782725, 0.1686264544672261279, 0.1686264544672261279, 0.5058793634016782725),
 ( 0.5058793634016782725, 0.1686264544672261279, 0.1686264544672261279, 0.5058793634016782725),
 ( 1.000000000000000000, 0.3333333333333334259, 0.3333333333333334259, 1.000000000000000000) ) ) 
 REPRESENTATION_ITEM ( '' )  SURFACE ( )  );
#517 = FACE_OUTER_BOUND ( 'NONE', #811, .T. ) ;
#518 = CARTESIAN_POINT ( 'NONE',  ( -60.00000000000000000, 70.00000000000000000, 60.00000000000003553 ) ) ;
#519 = DIRECTION ( 'NONE',  ( 1.000000000000000000, -0.000000000000000000, 0.000000000000000000 ) ) ;
#520 = VECTOR ( 'NONE', #72, 1000.000000000000000 ) ;
#521 =( BOUNDED_CURVE ( )  B_SPLINE_CURVE ( 3, ( #741, #285, #405, #670 ),
 .UNSPECIFIED., .F., .T. ) 
 B_SPLINE_CURVE_WITH_KNOTS ( ( 4, 4 ),
 ( 2.940234732799463124, 4.712388980384696779 ),
 .UNSPECIFIED. ) 
 CURVE ( )  GEOMETRIC_REPRESENTATION_ITEM ( )  RATIONAL_B_SPLINE_CURVE ( ( 1.000000000000000000, 0.7549703546891155526, 0.7549703546891155526, 1.000000000000000000 ) ) 
 REPRESENTATION_ITEM ( '' )  );
#522 = CARTESIAN_POINT ( 'NONE',  ( 34.19987131196462826, 100.0000000000001421, 0.000000000000000000 ) ) ;
#523 = CARTESIAN_POINT ( 'NONE',  ( -3.430248998885767296E-13, 100.0000000000000000, -140.0071426749364036 ) ) ;
#524 = DIRECTION ( 'NONE',  ( 0.000000000000000000, 0.000000000000000000, 1.000000000000000000 ) ) ;
#525 = DIRECTION ( 'NONE',  ( 3.430248998885766964E-15, -1.000000000000000000, -0.000000000000000000 ) ) ;
#526 = CARTESIAN_POINT ( 'NONE',  ( -34.19987131196514696, 99.99999999999987210, 4.188276293344909243E-15 ) ) ;
#527 = ORIENTED_EDGE ( 'NONE', *, *, #197, .T. ) ;
#528 = ADVANCED_FACE ( 'NONE', ( #344 ), #136, .F. ) ;
#529 = DIRECTION ( 'NONE',  ( 1.000000000000000000, 3.399349888776277871E-15, 1.133116629592092624E-15 ) ) ;
#530 = DIRECTION ( 'NONE',  ( 3.430248998885766964E-15, -1.000000000000000000, -0.000000000000000000 ) ) ;
#531 = ORIENTED_EDGE ( 'NONE', *, *, #276, .F. ) ;
#532 = CARTESIAN_POINT ( 'NONE',  ( 115.0071426749360342, 53.34936490538886744, -140.0071426749363752 ) ) ;
#533 = DIRECTION ( 'NONE',  ( 0.000000000000000000, 0.000000000000000000, 1.000000000000000000 ) ) ;
#534 = VERTEX_POINT ( 'NONE', #402 ) ;
#535 = CARTESIAN_POINT ( 'NONE',  ( 0.000000000000000000, 70.00000000000000000, 60.00000000000003553 ) ) ;
#536 = EDGE_CURVE ( 'NONE', #534, #828, #475, .T. ) ;
#537 = CARTESIAN_POINT ( 'NONE',  ( -1.740023026831954409E-13, 53.34936490538893850, -115.0071426749362047 ) ) ;
#538 = ORIENTED_EDGE ( 'NONE', *, *, #410, .T. ) ;
#539 = ORIENTED_EDGE ( 'NONE', *, *, #514, .T. ) ;
#540 = DIRECTION ( 'NONE',  ( 0.000000000000000000, 0.000000000000000000, 1.000000000000000000 ) ) ;
#541 =( BOUNDED_CURVE ( )  B_SPLINE_CURVE ( 3, ( #187, #568, #649, #829 ),
 .UNSPECIFIED., .F., .F. ) 
 B_SPLINE_CURVE_WITH_KNOTS ( ( 4, 4 ),
 ( 2.940234732799469786, 4.712388980384696779 ),
 .UNSPECIFIED. ) 
 CURVE ( )  GEOMETRIC_REPRESENTATION_ITEM ( )  RATIONAL_B_SPLINE_CURVE ( ( 1.000000000000000000, 0.7549703546891173289, 0.7549703546891173289, 1.000000000000000000 ) ) 
 REPRESENTATION_ITEM ( '' )  );
#542 = CARTESIAN_POINT ( 'NONE',  ( 0.000000000000000000, 0.000000000000000000, 60.00000000000003553 ) ) ;
#543 = EDGE_LOOP ( 'NONE', ( #758, #482, #548, #176, #302, #743 ) ) ;
#544 = VERTEX_POINT ( 'NONE', #269 ) ;
#545 = CARTESIAN_POINT ( 'NONE',  ( 0.000000000000000000, 70.00000000000000000, -140.0071426749364036 ) ) ;
#546 = CIRCLE ( 'NONE', #55, 48.98979485566381697 ) ;
#547 = FACE_OUTER_BOUND ( 'NONE', #413, .T. ) ;
#548 = ORIENTED_EDGE ( 'NONE', *, *, #215, .T. ) ;
#549 = COLOUR_RGB ( '',0.7921568627450980005, 0.8196078431372548767, 0.9333333333333333481 ) ;
#550 = FACE_OUTER_BOUND ( 'NONE', #637, .T. ) ;
#551 = DIRECTION ( 'NONE',  ( 1.000000000000000000, 3.330669073875445167E-15, 0.000000000000000000 ) ) ;
#552 = CARTESIAN_POINT ( 'NONE',  ( 140.0071426749364036, 69.99999999999984368, -48.98979485566382408 ) ) ;
#553 =( BOUNDED_CURVE ( )  B_SPLINE_CURVE ( 3, ( #532, #797, #597, #471 ),
 .UNSPECIFIED., .F., .T. ) 
 B_SPLINE_CURVE_WITH_KNOTS ( ( 4, 4 ),
 ( 2.094395102393196151, 2.940234732799469786 ),
 .UNSPECIFIED. ) 
 CURVE ( )  GEOMETRIC_REPRESENTATION_ITEM ( )  RATIONAL_B_SPLINE_CURVE ( ( 1.000000000000000000, 0.9412629764324008663, 0.9412629764324008663, 1.000000000000000000 ) ) 
 REPRESENTATION_ITEM ( '' )  );
#554 = CARTESIAN_POINT ( 'NONE',  ( 48.98979485566356828, 69.99999999999984368, -140.0071426749364036 ) ) ;
#555 = CARTESIAN_POINT ( 'NONE',  ( -48.98979485566398751, 69.99999999999951683, 5.999519546087407875E-15 ) ) ;
#556 = SURFACE_STYLE_FILL_AREA ( #113 ) ;
#557 = ORIENTED_EDGE ( 'NONE', *, *, #658, .F. ) ;
#558 = CARTESIAN_POINT ( 'NONE',  ( 188.9969375306000074, 70.00000000000001421, 97.97958971132761974 ) ) ;
#559 =( NAMED_UNIT ( * ) PLANE_ANGLE_UNIT ( ) SI_UNIT ( $, .RADIAN. ) );
#560 = ORIENTED_EDGE ( 'NONE', *, *, #652, .F. ) ;
#561 = CIRCLE ( 'NONE', #846, 25.00000000000018474 ) ;
#562 = ORIENTED_EDGE ( 'NONE', *, *, #836, .T. ) ;
#563 = CARTESIAN_POINT ( 'NONE',  ( -3.399632828907084266E-13, 100.0000000000000000, -3.749399456654507174E-31 ) ) ;
#564 = ORIENTED_EDGE ( 'NONE', *, *, #240, .F. ) ;
#565 = EDGE_CURVE ( 'NONE', #711, #242, #553, .T. ) ;
#566 =( BOUNDED_CURVE ( )  B_SPLINE_CURVE ( 3, ( #314, #255, #522, #62 ),
 .UNSPECIFIED., .F., .T. ) 
 B_SPLINE_CURVE_WITH_KNOTS ( ( 4, 4 ),
 ( 2.940234732799456463, 4.712388980384696779 ),
 .UNSPECIFIED. ) 
 CURVE ( )  GEOMETRIC_REPRESENTATION_ITEM ( )  RATIONAL_B_SPLINE_CURVE ( ( 1.000000000000000000, 0.7549703546891138872, 0.7549703546891138872, 1.000000000000000000 ) ) 
 REPRESENTATION_ITEM ( '' )  );
#567 = VERTEX_POINT ( 'NONE', #665 ) ;
#568 = CARTESIAN_POINT ( 'NONE',  ( 84.17737355687950185, 86.75444679663225145, -140.0071426749364036 ) ) ;
#569 = ORIENTED_EDGE ( 'NONE', *, *, #178, .F. ) ;
#570 = EDGE_CURVE ( 'NONE', #544, #430, #732, .T. ) ;
#571 = ORIENTED_EDGE ( 'NONE', *, *, #316, .F. ) ;
#572 = CARTESIAN_POINT ( 'NONE',  ( 48.98979485566351144, 69.99999999999985789, 97.97958971132749184 ) ) ;
#573 = CARTESIAN_POINT ( 'NONE',  ( -80.11961706396036220, 69.26102778014163164, 20.23209145298377010 ) ) ;
#574 = CARTESIAN_POINT ( 'NONE',  ( -55.82976911805727838, 86.75444679663202407, -140.0071426749364321 ) ) ;
#575 = VECTOR ( 'NONE', #51, 1000.000000000000000 ) ;
#576 = ORIENTED_EDGE ( 'NONE', *, *, #565, .T. ) ;
#577 = EDGE_CURVE ( 'NONE', #156, #7, #812, .T. ) ;
#578 = CARTESIAN_POINT ( 'NONE',  ( 2.941652048589201649E-28, -8.575622497214418240E-14, 0.000000000000000000 ) ) ;
#579 = AXIS2_PLACEMENT_3D ( 'NONE', #477, #742, #603 ) ;
#580 = CARTESIAN_POINT ( 'NONE',  ( 200.0071426749363468, 70.00000000000000000, 0.000000000000000000 ) ) ;
#581 = VECTOR ( 'NONE', #519, 1000.000000000000000 ) ;
#582 = ORIENTED_EDGE ( 'NONE', *, *, #652, .T. ) ;
#583 = CARTESIAN_POINT ( 'NONE',  ( -60.00000000000000000, 0.000000000000000000, 60.00000000000003553 ) ) ;
#584 = CARTESIAN_POINT ( 'NONE',  ( -80.11961706396034799, 69.26102778014163164, -140.0071426749364321 ) ) ;
#585 =( NAMED_UNIT ( * ) SI_UNIT ( $, .STERADIAN. ) SOLID_ANGLE_UNIT ( ) );
#586 = CARTESIAN_POINT ( 'NONE',  ( -25.00000000000038014, 53.34936490538884613, -90.00714267493603415 ) ) ;
#587 = CARTESIAN_POINT ( 'NONE',  ( -60.00000000000000000, 70.00000000000000000, 0.000000000000000000 ) ) ;
#588 = AXIS2_PLACEMENT_3D ( 'NONE', #232, #105, #423 ) ;
#589 = DIRECTION ( 'NONE',  ( -1.000000000000000000, 0.000000000000000000, -0.000000000000000000 ) ) ;
#590 = CARTESIAN_POINT ( 'NONE',  ( -34.19987131196530328, 99.99999999999990052, -140.0071426749364321 ) ) ;
#591 = EDGE_CURVE ( 'NONE', #92, #791, #9, .T. ) ;
#592 = DIRECTION ( 'NONE',  ( -0.000000000000000000, -1.000000000000000000, -0.000000000000000000 ) ) ;
#593 = FACE_BOUND ( 'NONE', #258, .T. ) ;
#594 = CARTESIAN_POINT ( 'NONE',  ( 203.6537941739486826, 100.0000000000002274, -12.71383967691122407 ) ) ;
#595 = ORIENTED_EDGE ( 'NONE', *, *, #658, .T. ) ;
#596 = EDGE_CURVE ( 'NONE', #317, #832, #429, .T. ) ;
#597 = CARTESIAN_POINT ( 'NONE',  ( 93.92425603638321263, 62.87955813897441715, -140.0071426749363752 ) ) ;
#598 = CARTESIAN_POINT ( 'NONE',  ( 140.0071426749361478, 100.0000000000000284, -140.0071426749364036 ) ) ;
#599 = ORIENTED_EDGE ( 'NONE', *, *, #596, .T. ) ;
#600 = AXIS2_PLACEMENT_3D ( 'NONE', #123, #525, #329 ) ;
#601 = EDGE_CURVE ( 'NONE', #636, #478, #521, .T. ) ;
#602 = DIRECTION ( 'NONE',  ( 0.000000000000000000, 0.000000000000000000, -1.000000000000000000 ) ) ;
#603 = DIRECTION ( 'NONE',  ( 1.000000000000000000, 3.399349888776277871E-15, 0.000000000000000000 ) ) ;
#604 = VERTEX_POINT ( 'NONE', #86 ) ;
#605 = AXIS2_PLACEMENT_3D ( 'NONE', #133, #654, #671 ) ;
#606 = ADVANCED_FACE ( 'NONE', ( #154 ), #19, .F. ) ;
#607 = VECTOR ( 'NONE', #845, 1000.000000000000000 ) ;
#608 = CARTESIAN_POINT ( 'NONE',  ( 140.0071426749362047, 62.87955813897448820, -93.92425603638355369 ) ) ;
#609 = CARTESIAN_POINT ( 'NONE',  ( 140.0071426749360910, 100.0000000000000000, -140.0071426749364036 ) ) ;
#610 =( BOUNDED_CURVE ( )  B_SPLINE_CURVE ( 3, ( #175, #761, #112, #38 ),
 .UNSPECIFIED., .F., .T. ) 
 B_SPLINE_CURVE_WITH_KNOTS ( ( 4, 4 ),
 ( 2.940234732799463124, 4.712388980384696779 ),
 .UNSPECIFIED. ) 
 CURVE ( )  GEOMETRIC_REPRESENTATION_ITEM ( )  RATIONAL_B_SPLINE_CURVE ( ( 1.000000000000000000, 0.7549703546891155526, 0.7549703546891155526, 1.000000000000000000 ) ) 
 REPRESENTATION_ITEM ( '' )  );
#611 = VERTEX_POINT ( 'NONE', #5 ) ;
#612 = CARTESIAN_POINT ( 'NONE',  ( 25.00000000000001066, 53.34936490538903087, -6.123233995736813417E-15 ) ) ;
#613 = CARTESIAN_POINT ( 'NONE',  ( 165.0071426749364321, 53.34936490538902376, -140.0071426749364036 ) ) ;
#614 = ORIENTED_EDGE ( 'NONE', *, *, #208, .F. ) ;
#615 = DIRECTION ( 'NONE',  ( 0.000000000000000000, 0.000000000000000000, 1.000000000000000000 ) ) ;
#616 = CARTESIAN_POINT ( 'NONE',  ( 0.000000000000000000, 70.00000000000000000, -140.0071426749364036 ) ) ;
#617 = EDGE_LOOP ( 'NONE', ( #206, #93, #416, #787 ) ) ;
#618 = EDGE_CURVE ( 'NONE', #567, #766, #546, .T. ) ;
#619 = ORIENTED_EDGE ( 'NONE', *, *, #464, .F. ) ;
#620 = CARTESIAN_POINT ( 'NONE',  ( 91.01734781927237350, 69.99999999999967315, -140.0071426749363752 ) ) ;
#621 = ORIENTED_EDGE ( 'NONE', *, *, #769, .F. ) ;
#622 = PRODUCT_RELATED_PRODUCT_CATEGORY ( 'part', '', ( #481 ) ) ;
#623 = DIRECTION ( 'NONE',  ( 1.000000000000000000, 3.330669073875445167E-15, 0.000000000000000000 ) ) ;
#624 = CARTESIAN_POINT ( 'NONE',  ( -3.399632828907084266E-13, 100.0000000000000000, -3.749399456654452436E-31 ) ) ;
#625 = CARTESIAN_POINT ( 'NONE',  ( -3.430248998885767296E-13, 100.0000000000000000, -140.0071426749364036 ) ) ;
#626 = ORIENTED_EDGE ( 'NONE', *, *, #841, .F. ) ;
#627 = ADVANCED_FACE ( 'NONE', ( #203 ), #465, .T. ) ;
#628 = CARTESIAN_POINT ( 'NONE',  ( 80.11961706395985061, 69.26102778014221428, -1.962364651725808271E-14 ) ) ;
#629 = PLANE ( 'NONE',  #69 ) ;
#630 = DIRECTION ( 'NONE',  ( 0.000000000000000000, 0.000000000000000000, -1.000000000000000000 ) ) ;
#631 = VERTEX_POINT ( 'NONE', #411 ) ;
#632 =( BOUNDED_CURVE ( )  B_SPLINE_CURVE ( 3, ( #480, #498, #688, #625 ),
 .UNSPECIFIED., .F., .F. ) 
 B_SPLINE_CURVE_WITH_KNOTS ( ( 4, 4 ),
 ( 2.940234732799456463, 4.712388980384696779 ),
 .UNSPECIFIED. ) 
 CURVE ( )  GEOMETRIC_REPRESENTATION_ITEM ( )  RATIONAL_B_SPLINE_CURVE ( ( 1.000000000000000000, 0.7549703546891138872, 0.7549703546891138872, 1.000000000000000000 ) ) 
 REPRESENTATION_ITEM ( '' )  );
#633 = EDGE_LOOP ( 'NONE', ( #217, #470, #220, #101, #336, #313 ) ) ;
#634 = VECTOR ( 'NONE', #755, 1000.000000000000000 ) ;
#635 = FACE_OUTER_BOUND ( 'NONE', #15, .T. ) ;
#636 = VERTEX_POINT ( 'NONE', #102 ) ;
#637 = EDGE_LOOP ( 'NONE', ( #254, #527, #621, #433, #210, #706 ) ) ;
#638 = CARTESIAN_POINT ( 'NONE',  ( 55.82976911805670994, 86.75444679663242198, 111.6595382361140025 ) ) ;
#639 = CARTESIAN_POINT ( 'NONE',  ( 140.0071426749360910, 100.0000000000000284, -140.0071426749364889 ) ) ;
#640 = CARTESIAN_POINT ( 'NONE',  ( 48.98979485566351144, 69.99999999999985789, -140.0071426749364036 ) ) ;
#641 = ORIENTED_EDGE ( 'NONE', *, *, #49, .T. ) ;
#642 = CARTESIAN_POINT ( 'NONE',  ( 200.0071426749363468, 70.00000000000000000, 60.00000000000003553 ) ) ;
#643 = CARTESIAN_POINT ( 'NONE',  ( 80.11961706395985061, 69.26102778014220007, -140.0071426749364321 ) ) ;
#644 = CARTESIAN_POINT ( 'NONE',  ( -1.740023026831954409E-13, 53.34936490538893850, -115.0071426749362047 ) ) ;
#645 = CIRCLE ( 'NONE', #12, 48.98979485566382408 ) ;
#646 = ADVANCED_FACE ( 'NONE', ( #550 ), #57, .T. ) ;
#647 = ORIENTED_EDGE ( 'NONE', *, *, #49, .F. ) ;
#648 = CARTESIAN_POINT ( 'NONE',  ( 140.0071426749362331, 53.34936490538893850, -140.0071426749364036 ) ) ;
#649 = CARTESIAN_POINT ( 'NONE',  ( 105.8072713629714485, 99.99999999999990052, -140.0071426749364036 ) ) ;
#650 = CARTESIAN_POINT ( 'NONE',  ( -3.460865168864449821E-13, 100.0000000000000284, -140.0071426749364036 ) ) ;
#651 = CARTESIAN_POINT ( 'NONE',  ( 165.0071426749364321, 53.34936490538902376, -6.123233995736811050E-15 ) ) ;
#652 = EDGE_CURVE ( 'NONE', #611, #242, #288, .T. ) ;
#653 = CARTESIAN_POINT ( 'NONE',  ( 1.470826024294600825E-28, -8.575622497214418240E-14, -25.00000000000000000 ) ) ;
#654 = DIRECTION ( 'NONE',  ( -3.430248998885766964E-15, 1.000000000000000000, 0.000000000000000000 ) ) ;
#655 = AXIS2_PLACEMENT_3D ( 'NONE', #67, #793, #81 ) ;
#656 = DIRECTION ( 'NONE',  ( -3.430248998885766964E-15, 1.000000000000000000, 0.000000000000000000 ) ) ;
#657 = DIRECTION ( 'NONE',  ( 1.000000000000000000, 3.430248998885766964E-15, 0.000000000000000000 ) ) ;
#658 = EDGE_CURVE ( 'NONE', #83, #828, #420, .T. ) ;
#659 = CARTESIAN_POINT ( 'NONE',  ( 195.8369117929929644, 86.75444679663250724, -140.0071426749364036 ) ) ;
#660 = EDGE_LOOP ( 'NONE', ( #614, #641, #183, #680 ) ) ;
#661 = CARTESIAN_POINT ( 'NONE',  ( 140.0071426749364036, 69.99999999999984368, -91.01734781927258666 ) ) ;
#662 = CARTESIAN_POINT ( 'NONE',  ( 115.0071426749361194, 53.34936490538884613, -90.00714267493607679 ) ) ;
#663 = ORIENTED_EDGE ( 'NONE', *, *, #381, .F. ) ;
#664 = EDGE_CURVE ( 'NONE', #280, #92, #781, .T. ) ;
#665 = CARTESIAN_POINT ( 'NONE',  ( -48.98979485566405856, 69.99999999999967315, 5.999519546087415763E-15 ) ) ;
#666 = LINE ( 'NONE', #274, #702 ) ;
#667 = ORIENTED_EDGE ( 'NONE', *, *, #111, .T. ) ;
#668 = CIRCLE ( 'NONE', #264, 48.98979485566381697 ) ;
#669 = SHAPE_DEFINITION_REPRESENTATION ( #800, #437 ) ;
#670 = CARTESIAN_POINT ( 'NONE',  ( 140.0071426749360910, 100.0000000000000000, 0.000000000000000000 ) ) ;
#671 = DIRECTION ( 'NONE',  ( 1.000000000000000000, 3.399349888776277871E-15, 0.000000000000000000 ) ) ;
#672 = ORIENTED_EDGE ( 'NONE', *, *, #691, .T. ) ;
#673 = ORIENTED_EDGE ( 'NONE', *, *, #819, .F. ) ;
#674 = CARTESIAN_POINT ( 'NONE',  ( 63.64665149901225760, 100.0000000000002132, -1.558893360694257788E-14 ) ) ;
#675 = CARTESIAN_POINT ( 'NONE',  ( 59.88752561097615512, 69.26102778014163164, 20.23209145298371325 ) ) ;
#676 = ORIENTED_EDGE ( 'NONE', *, *, #577, .T. ) ;
#677 = CARTESIAN_POINT ( 'NONE',  ( 84.17737355687931711, 86.75444679663212355, 6.837174804756402660E-15 ) ) ;
#678 = EDGE_CURVE ( 'NONE', #317, #7, #41, .T. ) ;
#679 = DIRECTION ( 'NONE',  ( 0.000000000000000000, 0.000000000000000000, -1.000000000000000000 ) ) ;
#680 = ORIENTED_EDGE ( 'NONE', *, *, #718, .F. ) ;
#681 = VECTOR ( 'NONE', #805, 1000.000000000000000 ) ;
#682 = CARTESIAN_POINT ( 'NONE',  ( 174.2070139869009040, 100.0000000000001279, 0.000000000000000000 ) ) ;
#683 = CARTESIAN_POINT ( 'NONE',  ( 140.0071426749362331, 53.34936490538893850, 0.000000000000000000 ) ) ;
#684 = DIRECTION ( 'NONE',  ( 3.430248998885766964E-15, -1.000000000000000000, -0.000000000000000000 ) ) ;
#685 = ADVANCED_FACE ( 'NONE', ( #479 ), #145, .T. ) ;
#686 = CARTESIAN_POINT ( 'NONE',  ( 25.00000000000000000, 53.34936490538903087, -50.00000000000038369 ) ) ;
#687 = CARTESIAN_POINT ( 'NONE',  ( -48.98979485566396619, 69.99999999999953104, 97.97958971132746342 ) ) ;
#688 = CARTESIAN_POINT ( 'NONE',  ( 34.19987131196462826, 100.0000000000001421, -140.0071426749364036 ) ) ;
#689 = CARTESIAN_POINT ( 'NONE',  ( 0.000000000000000000, 70.00000000000000000, 60.00000000000003553 ) ) ;
#690 =( BOUNDED_CURVE ( )  B_SPLINE_CURVE ( 3, ( #801, #790, #466, #537 ),
 .UNSPECIFIED., .F., .F. ) 
 B_SPLINE_CURVE_WITH_KNOTS ( ( 4, 4 ),
 ( 3.342950574380123108, 4.188790204786390525 ),
 .UNSPECIFIED. ) 
 CURVE ( )  GEOMETRIC_REPRESENTATION_ITEM ( )  RATIONAL_B_SPLINE_CURVE ( ( 1.000000000000000000, 0.9412629764324016435, 0.9412629764324016435, 1.000000000000000000 ) ) 
 REPRESENTATION_ITEM ( '' )  );
#691 = EDGE_CURVE ( 'NONE', #611, #280, #321, .T. ) ;
#692 = VERTEX_POINT ( 'NONE', #753 ) ;
#693 = CARTESIAN_POINT ( 'NONE',  ( 105.8072713629712638, 99.99999999999990052, 68.39974262392966864 ) ) ;
#694 = CARTESIAN_POINT ( 'NONE',  ( 25.00000000000000000, 0.000000000000000000, 0.000000000000000000 ) ) ;
#695 = ORIENTED_EDGE ( 'NONE', *, *, #421, .T. ) ;
#696 = ORIENTED_EDGE ( 'NONE', *, *, #59, .T. ) ;
#697 = CARTESIAN_POINT ( 'NONE',  ( -3.399632828907083761E-13, 100.0000000000000284, -6.123233995736578336E-15 ) ) ;
#698 =( NAMED_UNIT ( * ) SI_UNIT ( $, .STERADIAN. ) SOLID_ANGLE_UNIT ( ) );
#699 = VERTEX_POINT ( 'NONE', #170 ) ;
#700 = VECTOR ( 'NONE', #447, 1000.000000000000000 ) ;
#701 = ORIENTED_EDGE ( 'NONE', *, *, #8, .F. ) ;
#702 = VECTOR ( 'NONE', #407, 1000.000000000000000 ) ;
#703 = CARTESIAN_POINT ( 'NONE',  ( -60.00000000000000000, 70.00000000000000000, -200.0071426749364036 ) ) ;
#704 = CARTESIAN_POINT ( 'NONE',  ( 115.0071426749360199, 53.34936490538886744, 3.061616997868407892E-15 ) ) ;
#705 = DIRECTION ( 'NONE',  ( 0.000000000000000000, 0.000000000000000000, 1.000000000000000000 ) ) ;
#706 = ORIENTED_EDGE ( 'NONE', *, *, #307, .F. ) ;
#707 = CARTESIAN_POINT ( 'NONE',  ( 140.0071426749360910, 100.0000000000000000, 0.000000000000000000 ) ) ;
#708 = CARTESIAN_POINT ( 'NONE',  ( 25.00000000000001776, 53.34936490538903087, -90.00714267493603415 ) ) ;
#709 = PRESENTATION_LAYER_ASSIGNMENT (  '', '', ( #231 ) ) ;
#710 = CARTESIAN_POINT ( 'NONE',  ( -3.399632828907084266E-13, 100.0000000000000000, -140.0071426749364036 ) ) ;
#711 = VERTEX_POINT ( 'NONE', #91 ) ;
#712 = DIRECTION ( 'NONE',  ( 3.430248998885766964E-15, -1.000000000000000000, -0.000000000000000000 ) ) ;
#713 = LINE ( 'NONE', #518, #318 ) ;
#714 = VECTOR ( 'NONE', #712, 1000.000000000000000 ) ;
#715 = CARTESIAN_POINT ( 'NONE',  ( 140.0071426749362047, 53.34936490538894560, -115.0071426749362047 ) ) ;
#716 = AXIS2_PLACEMENT_3D ( 'NONE', #365, #108, #249 ) ;
#717 = CARTESIAN_POINT ( 'NONE',  ( 140.0071426749360057, 100.0000000000000284, -140.0071426749364321 ) ) ;
#718 = EDGE_CURVE ( 'NONE', #631, #435, #352, .T. ) ;
#719 = CARTESIAN_POINT ( 'NONE',  ( 203.6537941739487394, 100.0000000000002132, -1.558893360694258103E-14 ) ) ;
#720 =( BOUNDED_SURFACE ( )  B_SPLINE_SURFACE ( 3, 3, ( 
 ( #842, #708, #586, #843 ),
 ( #643, #265, #573, #584 ),
 ( #504, #56, #261, #784 ),
 ( #256, #195, #457, #765 ) ),
 .UNSPECIFIED., .F., .F., .F. ) 
 B_SPLINE_SURFACE_WITH_KNOTS ( ( 4, 4 ),
 ( 4, 4 ),
 ( 0.000000000000000000, 1.000000000000000000 ),
 ( 0.000000000000000000, 1.000000000000000000 ),
 .UNSPECIFIED. ) 
 GEOMETRIC_REPRESENTATION_ITEM ( )  RATIONAL_B_SPLINE_SURFACE ( (
 ( 1.000000000000000000, 0.3333333333333334259, 0.3333333333333334259, 1.000000000000000000),
 ( 0.5058793634016782725, 0.1686264544672261279, 0.1686264544672261279, 0.5058793634016782725),
 ( 0.5058793634016782725, 0.1686264544672261279, 0.1686264544672261279, 0.5058793634016782725),
 ( 1.000000000000000000, 0.3333333333333334259, 0.3333333333333334259, 1.000000000000000000) ) ) 
 REPRESENTATION_ITEM ( '' )  SURFACE ( )  );
#721 = CARTESIAN_POINT ( 'NONE',  ( 115.0071426749364178, 0.000000000000000000, -140.0071426749364036 ) ) ;
#722 = DIRECTION ( 'NONE',  ( -1.000000000000000000, 0.000000000000000000, 0.000000000000000000 ) ) ;
#723 = EDGE_CURVE ( 'NONE', #152, #401, #610, .T. ) ;
#724 = CARTESIAN_POINT ( 'NONE',  ( 165.0071426749364321, 53.34936490538903087, -50.00000000000042633 ) ) ;
#725 = CARTESIAN_POINT ( 'NONE',  ( 46.08288663855252310, 62.87955813897455926, 0.000000000000000000 ) ) ;
#726 = LINE ( 'NONE', #412, #500 ) ;
#727 = EDGE_LOOP ( 'NONE', ( #764, #22, #225, #366 ) ) ;
#728 = DIRECTION ( 'NONE',  ( 0.000000000000000000, 0.000000000000000000, 1.000000000000000000 ) ) ;
#729 = CARTESIAN_POINT ( 'NONE',  ( -2.401174299220030998E-13, 69.99999999999984368, 0.000000000000000000 ) ) ;
#730 = EDGE_CURVE ( 'NONE', #50, #478, #362, .T. ) ;
#731 = CARTESIAN_POINT ( 'NONE',  ( -48.98979485566405856, 69.99999999999967315, 5.999519546087415763E-15 ) ) ;
#732 =( BOUNDED_CURVE ( )  B_SPLINE_CURVE ( 3, ( #737, #13, #725, #1 ),
 .UNSPECIFIED., .F., .T. ) 
 B_SPLINE_CURVE_WITH_KNOTS ( ( 4, 4 ),
 ( 2.094395102393195707, 2.940234732799456463 ),
 .UNSPECIFIED. ) 
 CURVE ( )  GEOMETRIC_REPRESENTATION_ITEM ( )  RATIONAL_B_SPLINE_CURVE ( ( 1.000000000000000000, 0.9412629764324025317, 0.9412629764324025317, 1.000000000000000000 ) ) 
 REPRESENTATION_ITEM ( '' )  );
#733 = ORIENTED_EDGE ( 'NONE', *, *, #316, .T. ) ;
#734 = DIRECTION ( 'NONE',  ( 3.430248998885766964E-15, -1.000000000000000000, -0.000000000000000000 ) ) ;
#735 = CARTESIAN_POINT ( 'NONE',  ( 76.36049117592348523, 99.99999999999978684, -140.0071426749364036 ) ) ;
#736 = ORIENTED_EDGE ( 'NONE', *, *, #8, .T. ) ;
#737 = CARTESIAN_POINT ( 'NONE',  ( 25.00000000000000711, 53.34936490538902376, 0.000000000000000000 ) ) ;
#738 = CARTESIAN_POINT ( 'NONE',  ( 188.9969375305999790, 70.00000000000000000, -140.0071426749364036 ) ) ;
#739 = ORIENTED_EDGE ( 'NONE', *, *, #570, .T. ) ;
#740 = AXIS2_PLACEMENT_3D ( 'NONE', #462, #390, #728 ) ;
#741 = CARTESIAN_POINT ( 'NONE',  ( 188.9969375305999790, 70.00000000000000000, 0.000000000000000000 ) ) ;
#742 = DIRECTION ( 'NONE',  ( -3.430248998885766964E-15, 1.000000000000000000, 0.000000000000000000 ) ) ;
#743 = ORIENTED_EDGE ( 'NONE', *, *, #353, .T. ) ;
#744 = ADVANCED_FACE ( 'NONE', ( #238 ), #449, .T. ) ;
#745 = DIRECTION ( 'NONE',  ( 1.000000000000000000, 3.430248998885768542E-15, 0.000000000000000000 ) ) ;
#746 = ORIENTED_EDGE ( 'NONE', *, *, #792, .T. ) ;
#747 = VERTEX_POINT ( 'NONE', #368 ) ;
#748 = CARTESIAN_POINT ( 'NONE',  ( -25.00000000000038369, 53.34936490538886034, -50.00000000000037659 ) ) ;
#749 = FILL_AREA_STYLE_COLOUR ( '', #549 ) ;
#750 = ORIENTED_EDGE ( 'NONE', *, *, #831, .T. ) ;
#751 = ORIENTED_EDGE ( 'NONE', *, *, #410, .F. ) ;
#752 = VECTOR ( 'NONE', #615, 1000.000000000000000 ) ;
#753 = CARTESIAN_POINT ( 'NONE',  ( 188.9969375305999790, 70.00000000000000000, -140.0071426749364036 ) ) ;
#754 = PRESENTATION_STYLE_ASSIGNMENT (( #229 ) ) ;
#755 = DIRECTION ( 'NONE',  ( 1.000000000000000000, -0.000000000000000000, 0.000000000000000000 ) ) ;
#756 = ADVANCED_FACE ( 'NONE', ( #493 ), #629, .T. ) ;
#757 = CARTESIAN_POINT ( 'NONE',  ( 91.01734781927237350, 69.99999999999967315, 5.999519546087418919E-15 ) ) ;
#758 = ORIENTED_EDGE ( 'NONE', *, *, #723, .F. ) ;
#759 = ORIENTED_EDGE ( 'NONE', *, *, #803, .T. ) ;
#760 = CARTESIAN_POINT ( 'NONE',  ( 25.00000000000000711, 53.34936490538902376, -140.0071426749364036 ) ) ;
#761 = CARTESIAN_POINT ( 'NONE',  ( -55.82976911805710785, 86.75444679663212355, -140.0071426749364036 ) ) ;
#762 =( LENGTH_UNIT ( ) NAMED_UNIT ( * ) SI_UNIT ( .MILLI., .METRE. ) );
#763 = CARTESIAN_POINT ( 'NONE',  ( 115.0071426749360199, 53.34936490538886744, 3.061616997868407892E-15 ) ) ;
#764 = ORIENTED_EDGE ( 'NONE', *, *, #32, .T. ) ;
#765 = CARTESIAN_POINT ( 'NONE',  ( -3.399632828907084266E-13, 100.0000000000000000, -140.0071426749364036 ) ) ;
#766 = VERTEX_POINT ( 'NONE', #180 ) ;
#767 = LINE ( 'NONE', #453, #323 ) ;
#768 = ORIENTED_EDGE ( 'NONE', *, *, #421, .F. ) ;
#769 = EDGE_CURVE ( 'NONE', #430, #604, #566, .T. ) ;
#770 = CIRCLE ( 'NONE', #579, 48.98979485566382408 ) ;
#771 = VECTOR ( 'NONE', #143, 1000.000000000000000 ) ;
#772 = CARTESIAN_POINT ( 'NONE',  ( 140.0071426749361194, 100.0000000000000000, -140.0071426749364036 ) ) ;
#773 = CARTESIAN_POINT ( 'NONE',  ( -48.98979485566398751, 69.99999999999953104, -237.9867323862638671 ) ) ;
#774 = VERTEX_POINT ( 'NONE', #703 ) ;
#775 = CARTESIAN_POINT ( 'NONE',  ( 203.6537941739487110, 100.0000000000002274, -127.2933029980253394 ) ) ;
#776 = CARTESIAN_POINT ( 'NONE',  ( 174.2070139869008756, 100.0000000000001137, -140.0071426749364605 ) ) ;
#777 = PRODUCT_DEFINITION ( 'UNKNOWN', '', #372, #130 ) ;
#778 = CARTESIAN_POINT ( 'NONE',  ( 0.000000000000000000, 0.000000000000000000, -115.0071426749364178 ) ) ;
#779 = DIRECTION ( 'NONE',  ( -3.430248998885766964E-15, 1.000000000000000000, 0.000000000000000000 ) ) ;
#780 = PLANE ( 'NONE',  #426 ) ;
#781 = CIRCLE ( 'NONE', #84, 25.00000000000018474 ) ;
#782 = EDGE_CURVE ( 'NONE', #422, #631, #4, .T. ) ;
#783 = DIRECTION ( 'NONE',  ( 1.000000000000000000, 3.330669073875444378E-15, 0.000000000000000000 ) ) ;
#784 = CARTESIAN_POINT ( 'NONE',  ( -63.64665149901296104, 99.99999999999980105, -140.0071426749364321 ) ) ;
#785 = DIRECTION ( 'NONE',  ( 1.000000000000000000, 3.399349888776278266E-15, 0.000000000000000000 ) ) ;
#786 = CARTESIAN_POINT ( 'NONE',  ( 76.36049117592339996, 99.99999999999978684, -127.2933029980252968 ) ) ;
#787 = ORIENTED_EDGE ( 'NONE', *, *, #436, .T. ) ;
#788 = LINE ( 'NONE', #271, #406 ) ;
#789 = DIRECTION ( 'NONE',  ( 1.000000000000000000, 3.399349888776278266E-15, 0.000000000000000000 ) ) ;
#790 = CARTESIAN_POINT ( 'NONE',  ( -2.054022839999555774E-13, 62.87955813897448820, -93.92425603638355369 ) ) ;
#791 = VERTEX_POINT ( 'NONE', #778 ) ;
#792 = EDGE_CURVE ( 'NONE', #832, #711, #386, .T. ) ;
#793 = DIRECTION ( 'NONE',  ( 0.000000000000000000, 0.000000000000000000, -1.000000000000000000 ) ) ;
#794 = LINE ( 'NONE', #798, #339 ) ;
#795 = ORIENTED_EDGE ( 'NONE', *, *, #618, .T. ) ;
#796 = CIRCLE ( 'NONE', #825, 48.98979485566381697 ) ;
#797 = CARTESIAN_POINT ( 'NONE',  ( 102.4198608624969040, 56.98300017677748031, -140.0071426749363752 ) ) ;
#798 = CARTESIAN_POINT ( 'NONE',  ( 0.000000000000000000, 70.00000000000000000, -200.0071426749364036 ) ) ;
#799 = ORIENTED_EDGE ( 'NONE', *, *, #111, .F. ) ;
#800 = PRODUCT_DEFINITION_SHAPE ( 'NONE', 'NONE',  #777 ) ;
#801 = CARTESIAN_POINT ( 'NONE',  ( 5.916456789157588541E-28, 69.99999999999984368, -91.01734781927258666 ) ) ;
#802 = ORIENTED_EDGE ( 'NONE', *, *, #819, .T. ) ;
#803 = EDGE_CURVE ( 'NONE', #534, #377, #124, .T. ) ;
#804 = AXIS2_PLACEMENT_3D ( 'NONE', #146, #331, #468 ) ;
#805 = DIRECTION ( 'NONE',  ( 1.000000000000000000, -0.000000000000000000, 0.000000000000000000 ) ) ;
#806 = CARTESIAN_POINT ( 'NONE',  ( 84.17737355687931711, 86.75444679663210934, -140.0071426749364036 ) ) ;
#807 = ORIENTED_EDGE ( 'NONE', *, *, #723, .T. ) ;
#808 = ADVANCED_FACE ( 'NONE', ( #517 ), #216, .T. ) ;
#809 = CARTESIAN_POINT ( 'NONE',  ( 200.0071426749363468, 0.000000000000000000, 0.000000000000000000 ) ) ;
#810 = CARTESIAN_POINT ( 'NONE',  ( 0.000000000000000000, 70.00000000000000000, 0.000000000000000000 ) ) ;
#811 = EDGE_LOOP ( 'NONE', ( #250, #11, #45, #148, #827, #245 ) ) ;
#812 =( BOUNDED_CURVE ( )  B_SPLINE_CURVE ( 3, ( #212, #141, #150, #272 ),
 .UNSPECIFIED., .F., .T. ) 
 B_SPLINE_CURVE_WITH_KNOTS ( ( 4, 4 ),
 ( 2.094395102393196151, 2.940234732799463124 ),
 .UNSPECIFIED. ) 
 CURVE ( )  GEOMETRIC_REPRESENTATION_ITEM ( )  RATIONAL_B_SPLINE_CURVE ( ( 1.000000000000000000, 0.9412629764324017545, 0.9412629764324017545, 1.000000000000000000 ) ) 
 REPRESENTATION_ITEM ( '' )  );
#813 = EDGE_CURVE ( 'NONE', #317, #692, #645, .T. ) ;
#814 = CARTESIAN_POINT ( 'NONE',  ( 46.08288663855252310, 62.87955813897455926, -140.0071426749364036 ) ) ;
#815 = CARTESIAN_POINT ( 'NONE',  ( -2.023705509639367711E-13, 56.98300017677757268, -37.58728181243922961 ) ) ;
#816 = ORIENTED_EDGE ( 'NONE', *, *, #718, .T. ) ;
#817 = CIRCLE ( 'NONE', #490, 25.00000000000000000 ) ;
#818 = CARTESIAN_POINT ( 'NONE',  ( 195.8369117929929075, 86.75444679663250724, 0.000000000000000000 ) ) ;
#819 = EDGE_CURVE ( 'NONE', #611, #152, #668, .T. ) ;
#820 = LINE ( 'NONE', #39, #110 ) ;
#821 = CARTESIAN_POINT ( 'NONE',  ( 25.00000000000009237, 8.575622497214448532E-14, -140.0071426749364036 ) ) ;
#822 = CLOSED_SHELL ( 'NONE', ( #808, #79, #360, #646, #53, #744, #507, #528, #121, #756, #295, #606, #501, #326, #844, #74, #20, #161, #627, #473, #342, #685 ) ) ;
#823 = ORIENTED_EDGE ( 'NONE', *, *, #126, .F. ) ;
#824 = CARTESIAN_POINT ( 'NONE',  ( 91.01734781927238771, 69.99999999999967315, 97.97958971132757711 ) ) ;
#825 = AXIS2_PLACEMENT_3D ( 'NONE', #395, #266, #785 ) ;
#826 = DIRECTION ( 'NONE',  ( 3.430248998885766964E-15, -1.000000000000000000, -0.000000000000000000 ) ) ;
#827 = ORIENTED_EDGE ( 'NONE', *, *, #577, .F. ) ;
#828 = VERTEX_POINT ( 'NONE', #186 ) ;
#829 = CARTESIAN_POINT ( 'NONE',  ( 140.0071426749360910, 100.0000000000000000, -140.0071426749364036 ) ) ;
#830 = ORIENTED_EDGE ( 'NONE', *, *, #353, .F. ) ;
#831 = EDGE_CURVE ( 'NONE', #377, #711, #396, .T. ) ;
#832 = VERTEX_POINT ( 'NONE', #715 ) ;
#833 = PLANE ( 'NONE',  #655 ) ;
#834 = PLANE ( 'NONE',  #241 ) ;
#835 = VERTEX_POINT ( 'NONE', #583 ) ;
#836 = EDGE_CURVE ( 'NONE', #355, #512, #260, .T. ) ;
#837 = CARTESIAN_POINT ( 'NONE',  ( 140.0071426749361763, 69.99999999999984368, -140.0071426749364036 ) ) ;
#838 = DIRECTION ( 'NONE',  ( 1.000000000000000000, 3.399349888776278266E-15, -1.133116629592092821E-15 ) ) ;
#839 = ORIENTED_EDGE ( 'NONE', *, *, #803, .F. ) ;
#840 = DIRECTION ( 'NONE',  ( 1.000000000000000000, 3.399349888776278266E-15, 0.000000000000000000 ) ) ;
#841 = EDGE_CURVE ( 'NONE', #310, #544, #788, .T. ) ;
#842 = CARTESIAN_POINT ( 'NONE',  ( 25.00000000000001066, 53.34936490538902376, -140.0071426749364036 ) ) ;
#843 = CARTESIAN_POINT ( 'NONE',  ( -25.00000000000037659, 53.34936490538885323, -140.0071426749364036 ) ) ;
#844 = ADVANCED_FACE ( 'NONE', ( #202 ), #513, .T. ) ;
#845 = DIRECTION ( 'NONE',  ( 0.000000000000000000, 0.000000000000000000, -1.000000000000000000 ) ) ;
#846 = AXIS2_PLACEMENT_3D ( 'NONE', #375, #415, #551 ) ;
#847 =( LENGTH_UNIT ( ) NAMED_UNIT ( * ) SI_UNIT ( .MILLI., .METRE. ) );
ENDSEC;
END-ISO-10303-21;
