ISO-10303-21;
HEADER;
FILE_DESCRIPTION (( 'STEP AP214' ),
    '1' );
FILE_NAME ('N308_structure.STEP',
    '2026-01-16T01:32:03',
    ( '' ),
    ( '' ),
    'SwSTEP 2.0',
    'SolidWorks 2024',
    '' );
FILE_SCHEMA (( 'AUTOMOTIVE_DESIGN' ));
ENDSEC;

DATA;
#1 = AXIS2_PLACEMENT_3D ( 'NONE', #145, #577, #483 ) ;
#2 = LINE ( 'NONE', #103, #181 ) ;
#3 = ORIENTED_EDGE ( 'NONE', *, *, #442, .T. ) ;
#4 = EDGE_CURVE ( 'NONE', #615, #99, #601, .T. ) ;
#5 = CARTESIAN_POINT ( 'NONE',  ( -80.11961706396097327, -69.26102778022713835, 160.2392341278382162 ) ) ;
#6 = ORIENTED_EDGE ( 'NONE', *, *, #618, .F. ) ;
#7 = APPLICATION_PROTOCOL_DEFINITION ( 'draft international standard', 'automotive_design', 1998, #286 ) ;
#8 = CARTESIAN_POINT ( 'NONE',  ( 24.99999999998605560, -53.34936490541536358, 49.99999999996524735 ) ) ;
#9 = ORIENTED_EDGE ( 'NONE', *, *, #316, .T. ) ;
#10 = CIRCLE ( 'NONE', #384, 25.00000000000018474 ) ;
#11 = CARTESIAN_POINT ( 'NONE',  ( 25.00000000000036948, -53.34936490538886034, -1.121383458703303061E-11 ) ) ;
#12 = AXIS2_PLACEMENT_3D ( 'NONE', #13, #212, #222 ) ;
#13 = CARTESIAN_POINT ( 'NONE',  ( -19.99999999999987566, 10.00000000001211475, -22.91287847477403261 ) ) ;
#14 = EDGE_CURVE ( 'NONE', #487, #519, #71, .T. ) ;
#15 = CARTESIAN_POINT ( 'NONE',  ( 63.64665149901296104, -99.99999999999978684, -5.256923943975499770E-11 ) ) ;
#16 = ADVANCED_FACE ( 'NONE', ( #266 ), #25, .F. ) ;
#17 = ORIENTED_EDGE ( 'NONE', *, *, #272, .F. ) ;
#18 =( BOUNDED_CURVE ( )  B_SPLINE_CURVE ( 3, ( #20, #549, #15, #110 ),
 .UNSPECIFIED., .F., .F. ) 
 B_SPLINE_CURVE_WITH_KNOTS ( ( 4, 4 ),
 ( 2.094395102393195707, 4.712388980384696779 ),
 .UNSPECIFIED. ) 
 CURVE ( )  GEOMETRIC_REPRESENTATION_ITEM ( )  RATIONAL_B_SPLINE_CURVE ( ( 1.000000000000000000, 0.5058793634016782725, 0.5058793634016782725, 1.000000000000000000 ) ) 
 REPRESENTATION_ITEM ( '' )  );
#19 = CARTESIAN_POINT ( 'NONE',  ( 3.430248998885768810E-13, -100.0000000000000000, -5.302147609853589409E-11 ) ) ;
#20 = CARTESIAN_POINT ( 'NONE',  ( 25.00000000000036948, -53.34936490538886034, -1.121383458703303061E-11 ) ) ;
#21 = ORIENTED_EDGE ( 'NONE', *, *, #472, .T. ) ;
#22 = CARTESIAN_POINT ( 'NONE',  ( 9.999999999999815259, 100.0000000000121787, -22.91287847472610295 ) ) ;
#23 = VECTOR ( 'NONE', #120, 1000.000000000000000 ) ;
#24 = DIRECTION ( 'NONE',  ( -1.000000000000000000, -3.430248998882066418E-15, -6.982962677688096079E-15 ) ) ;
#25 = CYLINDRICAL_SURFACE ( 'NONE', #12, 9.999999999999998224 ) ;
#26 = AXIS2_PLACEMENT_3D ( 'NONE', #448, #193, #445 ) ;
#27 = CARTESIAN_POINT ( 'NONE',  ( 19.05187649875854206, 0.03187835768808428699, -16.20484767120668579 ) ) ;
#28 = EDGE_CURVE ( 'NONE', #591, #99, #144, .T. ) ;
#29 = VERTEX_POINT ( 'NONE', #45 ) ;
#30 = DIRECTION ( 'NONE',  ( -1.000000000000000000, -3.430248998882066418E-15, -6.982962677688095290E-15 ) ) ;
#31 = CARTESIAN_POINT ( 'NONE',  ( 10.00000000000036060, 10.00000000001221956, -22.91287847477382655 ) ) ;
#32 = CARTESIAN_POINT ( 'NONE',  ( -1.470826024294601721E-28, 4.287811248607209120E-14, 2.273460816330604679E-26 ) ) ;
#33 = PLANE ( 'NONE',  #302 ) ;
#34 = CARTESIAN_POINT ( 'NONE',  ( -24.99999999999962697, -53.34936490536252762, -50.00000000006261303 ) ) ;
#35 = EDGE_CURVE ( 'NONE', #76, #545, #413, .T. ) ;
#36 = ORIENTED_EDGE ( 'NONE', *, *, #576, .F. ) ;
#37 = CARTESIAN_POINT ( 'NONE',  ( -25.00000000000000000, 6.132419787913484601E-24, -1.156604433791552249E-11 ) ) ;
#38 = CARTESIAN_POINT ( 'NONE',  ( -10.00000000000016698, -1.209729264900830572E-11, 22.91287847477913076 ) ) ;
#39 = VERTEX_POINT ( 'NONE', #486 ) ;
#40 = FACE_BOUND ( 'NONE', #251, .T. ) ;
#41 = CARTESIAN_POINT ( 'NONE',  ( 12.64297035140195646, 3.188744395139504473, -21.57362388879231219 ) ) ;
#42 = CARTESIAN_POINT ( 'NONE',  ( 9.999999999999804601, 9.999999999987915444, 22.91287847478456996 ) ) ;
#43 = CARTESIAN_POINT ( 'NONE',  ( 20.00000000000009948, 8.107582619730174058E-12, -14.99999999999986677 ) ) ;
#44 =( BOUNDED_SURFACE ( )  B_SPLINE_SURFACE ( 3, 3, ( 
 ( #397, #354, #8, #585 ),
 ( #51, #5, #292, #348 ),
 ( #537, #399, #60, #306 ),
 ( #240, #296, #390, #502 ) ),
 .UNSPECIFIED., .F., .F., .T. ) 
 B_SPLINE_SURFACE_WITH_KNOTS ( ( 4, 4 ),
 ( 4, 4 ),
 ( 0.000000000000000000, 1.000000000000000000 ),
 ( 0.000000000000000000, 1.000000000000000000 ),
 .UNSPECIFIED. ) 
 GEOMETRIC_REPRESENTATION_ITEM ( )  RATIONAL_B_SPLINE_SURFACE ( (
 ( 1.000000000000000000, 0.3333333333334263515, 0.3333333333334263515, 1.000000000000000000),
 ( 0.5058793634016781615, 0.1686264544672731180, 0.1686264544672731180, 0.5058793634016781615),
 ( 0.5058793634016781615, 0.1686264544672731180, 0.1686264544672731180, 0.5058793634016781615),
 ( 1.000000000000000000, 0.3333333333334263515, 0.3333333333334263515, 1.000000000000000000) ) ) 
 REPRESENTATION_ITEM ( '' )  SURFACE ( )  );
#45 = CARTESIAN_POINT ( 'NONE',  ( -19.99999999999989697, 7.970372659774888224E-12, -15.00000000000014388 ) ) ;
#46 = AXIS2_PLACEMENT_3D ( 'NONE', #375, #226, #81 ) ;
#47 = FILL_AREA_STYLE ('',( #183 ) ) ;
#48 = DIRECTION ( 'NONE',  ( -6.982962677686276177E-15, -5.302147609853589328E-13, 1.000000000000000000 ) ) ;
#49 = ORIENTED_EDGE ( 'NONE', *, *, #279, .F. ) ;
#50 = DIRECTION ( 'NONE',  ( 3.469446951953614189E-15, -1.000000000000000000, -5.302147609853588319E-13 ) ) ;
#51 = CARTESIAN_POINT ( 'NONE',  ( -80.11961706395985061, -69.26102778014218586, -3.728269158575654021E-11 ) ) ;
#52 = VERTEX_POINT ( 'NONE', #229 ) ;
#53 = DIRECTION ( 'NONE',  ( -3.430248998885768937E-15, 1.000000000000000000, 5.302147609853589328E-13 ) ) ;
#54 = ORIENTED_EDGE ( 'NONE', *, *, #101, .T. ) ;
#55 = EDGE_CURVE ( 'NONE', #543, #99, #141, .T. ) ;
#56 = VECTOR ( 'NONE', #285, 1000.000000000000000 ) ;
#57 = CARTESIAN_POINT ( 'NONE',  ( -17.51173008777540829, 0.2977583443262709628, 17.85739381281545946 ) ) ;
#58 = ORIENTED_EDGE ( 'NONE', *, *, #462, .F. ) ;
#59 =( LENGTH_UNIT ( ) NAMED_UNIT ( * ) SI_UNIT ( .MILLI., .METRE. ) );
#60 = CARTESIAN_POINT ( 'NONE',  ( 63.64665149897655994, -100.0000000000672884, 127.2933029979548962 ) ) ;
#61 = ORIENTED_EDGE ( 'NONE', *, *, #335, .F. ) ;
#62 = CARTESIAN_POINT ( 'NONE',  ( 25.00000000000009237, 8.575622497205035212E-14, 1.776356839400713936E-13 ) ) ;
#63 = CARTESIAN_POINT ( 'NONE',  ( 12.64942839514292139, 3.182162725513661083, 21.56979733736643468 ) ) ;
#64 = CARTESIAN_POINT ( 'NONE',  ( 10.00000000000012257, 10.00000000001221245, -22.91287847477382655 ) ) ;
#65 = VERTEX_POINT ( 'NONE', #288 ) ;
#66 = CARTESIAN_POINT ( 'NONE',  ( -19.54022503649309428, 8.254063326384137688E-12, -15.61303328467587193 ) ) ;
#67 = ORIENTED_EDGE ( 'NONE', *, *, #371, .T. ) ;
#68 = LINE ( 'NONE', #373, #567 ) ;
#69 = B_SPLINE_CURVE_WITH_KNOTS ( 'NONE', 3,
 ( #540, #546, #107, #350, #495, #301, #451, #196, #387, #245, #441, #634, #393, #250, #147, #344, #590, #152, #542, #57, #100, #201, #217, #414 ),
 .UNSPECIFIED., .F., .F.,
 ( 4, 2, 2, 2, 2, 2, 2, 2, 2, 2, 2, 4 ),
 ( 0.000000000000000000, 0.002277627136900144383, 0.003416440705350216357, 0.004555254273800287898, 0.005694067842250358571, 0.006832881410700430980, 0.009110508547600574061, 0.01024932211605065341, 0.01138813568450072929, 0.01366576282140088625, 0.01594338995830104494, 0.01822101709520120016 ),
 .UNSPECIFIED. ) ;
#70 = DIRECTION ( 'NONE',  ( -1.000000000000000000, -3.330669073875445167E-15, -6.982962677688108701E-15 ) ) ;
#71 = LINE ( 'NONE', #116, #74 ) ;
#72 = FACE_OUTER_BOUND ( 'NONE', #158, .T. ) ;
#73 = UNCERTAINTY_MEASURE_WITH_UNIT (LENGTH_MEASURE( 1.000000000000000082E-05 ), #432, 'distance_accuracy_value', 'NONE');
#74 = VECTOR ( 'NONE', #516, 1000.000000000000000 ) ;
#75 = CIRCLE ( 'NONE', #402, 25.00000000000018474 ) ;
#76 = VERTEX_POINT ( 'NONE', #533 ) ;
#77 = CARTESIAN_POINT ( 'NONE',  ( 10.00000000000036060, 10.00000000001221956, -22.91287847477382655 ) ) ;
#78 = ADVANCED_FACE ( 'NONE', ( #84 ), #381, .F. ) ;
#79 = COLOUR_RGB ( '',0.7921568627450980005, 0.8196078431372548767, 0.9333333333333333481 ) ;
#80 = CARTESIAN_POINT ( 'NONE',  ( -10.00000000000017408, 49.99999999999997158, 2.644090842249106888E-11 ) ) ;
#81 = DIRECTION ( 'NONE',  ( 3.430248998885769331E-15, -1.000000000000000000, -5.302147609853589328E-13 ) ) ;
#82 = CARTESIAN_POINT ( 'NONE',  ( 10.45272255270425710, 7.001223567848472662, -22.71035499989428530 ) ) ;
#83 = EDGE_CURVE ( 'NONE', #449, #293, #249, .T. ) ;
#84 = FACE_OUTER_BOUND ( 'NONE', #242, .T. ) ;
#85 = CARTESIAN_POINT ( 'NONE',  ( -9.999999999999852562, 1.220020011897495104E-11, -22.91287847477926576 ) ) ;
#86 = B_SPLINE_CURVE_WITH_KNOTS ( 'NONE', 3,
 ( #31, #223, #570, #524, #82, #339, #475, #532, #91, #284, #482, #41, #581, #214, #514, #613, #470, #119, #611, #409, #605, #27, #326, #559 ),
 .UNSPECIFIED., .F., .F.,
 ( 4, 2, 2, 2, 2, 2, 2, 2, 2, 2, 2, 4 ),
 ( 0.000000000000000000, 0.002277627136900140046, 0.003416440705350212020, 0.004555254273800284429, 0.005694067842250355969, 0.006832881410700428378, 0.009110508547600575796, 0.01024932211605065514, 0.01138813568450073102, 0.01366576282140088625, 0.01594338995830104147, 0.01822101709520119323 ),
 .UNSPECIFIED. ) ;
#87 = LINE ( 'NONE', #38, #569 ) ;
#88 = ORIENTED_EDGE ( 'NONE', *, *, #378, .F. ) ;
#89 = VECTOR ( 'NONE', #299, 1000.000000000000000 ) ;
#90 = DIRECTION ( 'NONE',  ( 3.430248998885768937E-15, -1.000000000000000000, -5.302147609853589328E-13 ) ) ;
#91 = CARTESIAN_POINT ( 'NONE',  ( 11.35838197093663560, 4.954412479197626062, -22.27187923204424891 ) ) ;
#92 = CARTESIAN_POINT ( 'NONE',  ( 9.999999999999838352, -1.211444389400280854E-11, 22.91287847477926931 ) ) ;
#93 = DIRECTION ( 'NONE',  ( -3.430248998885768937E-15, 1.000000000000000000, 5.302147609853589328E-13 ) ) ;
#94 = DIRECTION ( 'NONE',  ( -1.000000000000000000, -3.430248998882066812E-15, -6.982962677688095290E-15 ) ) ;
#95 = DIRECTION ( 'NONE',  ( -6.982962677686276177E-15, -5.302147609853589328E-13, 1.000000000000000000 ) ) ;
#96 = PLANE ( 'NONE',  #294 ) ;
#97 = EDGE_CURVE ( 'NONE', #65, #484, #582, .T. ) ;
#98 = DIRECTION ( 'NONE',  ( 1.000000000000000000, 3.430248998882067207E-15, 6.982962677688095290E-15 ) ) ;
#99 = VERTEX_POINT ( 'NONE', #42 ) ;
#100 = CARTESIAN_POINT ( 'NONE',  ( -18.03830236948248356, 0.1809303059653609991, 17.32601321129841310 ) ) ;
#101 = EDGE_CURVE ( 'NONE', #545, #293, #132, .T. ) ;
#102 = EDGE_LOOP ( 'NONE', ( #548, #67, #61, #197, #499, #358, #469, #594, #36, #142 ) ) ;
#103 = CARTESIAN_POINT ( 'NONE',  ( 9.999999999999838352, -1.211444389400280854E-11, 22.91287847477926931 ) ) ;
#104 = ORIENTED_EDGE ( 'NONE', *, *, #209, .F. ) ;
#105 =( NAMED_UNIT ( * ) SI_UNIT ( $, .STERADIAN. ) SOLID_ANGLE_UNIT ( ) );
#106 = CIRCLE ( 'NONE', #327, 25.00000000000000000 ) ;
#107 = CARTESIAN_POINT ( 'NONE',  ( -10.08781882418753106, 8.475915185629173010, 22.87512283140345914 ) ) ;
#108 = ORIENTED_EDGE ( 'NONE', *, *, #504, .T. ) ;
#109 = CIRCLE ( 'NONE', #471, 15.00000000000000000 ) ;
#110 = CARTESIAN_POINT ( 'NONE',  ( 3.430248998885768810E-13, -100.0000000000000000, -5.302147609853589409E-11 ) ) ;
#111 = CARTESIAN_POINT ( 'NONE',  ( 16.42080910447874231, 0.6576188820416722924, 18.85442750627127140 ) ) ;
#112 = CARTESIAN_POINT ( 'NONE',  ( 0.000000000000000000, 0.000000000000000000, 0.000000000000000000 ) ) ;
#113 =( GEOMETRIC_REPRESENTATION_CONTEXT ( 3 ) GLOBAL_UNCERTAINTY_ASSIGNED_CONTEXT ( ( #426 ) ) GLOBAL_UNIT_ASSIGNED_CONTEXT ( ( #59, #156, #105 ) ) REPRESENTATION_CONTEXT ( 'NONE', 'WORKASPACE' ) );
#114 = ADVANCED_FACE ( 'NONE', ( #276 ), #340, .F. ) ;
#115 = FACE_OUTER_BOUND ( 'NONE', #337, .T. ) ;
#116 = CARTESIAN_POINT ( 'NONE',  ( -9.999999999999877431, 10.00000000001215739, -22.91287847477396511 ) ) ;
#117 = LINE ( 'NONE', #599, #623 ) ;
#118 = CARTESIAN_POINT ( 'NONE',  ( 10.71099896338718338, 6.277636715038100057, 22.58968930936375230 ) ) ;
#119 = CARTESIAN_POINT ( 'NONE',  ( 15.86053888644989307, 0.8753087441522415801, -19.33742586661060159 ) ) ;
#120 = DIRECTION ( 'NONE',  ( -1.000000000000000000, -3.430248998882066812E-15, -6.982962677688095290E-15 ) ) ;
#121 = EDGE_LOOP ( 'NONE', ( #200, #225, #461, #58 ) ) ;
#122 = EDGE_CURVE ( 'NONE', #52, #519, #87, .T. ) ;
#123 = CARTESIAN_POINT ( 'NONE',  ( -25.00000000000000000, -53.34936490538902376, -2.846119482897369991E-11 ) ) ;
#124 = CARTESIAN_POINT ( 'NONE',  ( -2.941652048589203443E-28, 8.575622497214418240E-14, 4.546921632661209358E-26 ) ) ;
#125 = CARTESIAN_POINT ( 'NONE',  ( 14.21023912480545093, 1.839953913294765098, 20.57138485343806167 ) ) ;
#126 = CYLINDRICAL_SURFACE ( 'NONE', #210, 15.00000000000000000 ) ;
#127 = CIRCLE ( 'NONE', #205, 25.00000000000000000 ) ;
#128 = CARTESIAN_POINT ( 'NONE',  ( -63.64665149901137653, -99.99999999993271160, -127.2933029981648048 ) ) ;
#129 = VECTOR ( 'NONE', #237, 1000.000000000000000 ) ;
#130 = DIRECTION ( 'NONE',  ( 6.982962677686276966E-15, 5.302147609853589328E-13, -1.000000000000000000 ) ) ;
#131 = ADVANCED_FACE ( 'NONE', ( #626 ), #522, .T. ) ;
#132 = LINE ( 'NONE', #184, #56 ) ;
#133 = ORIENTED_EDGE ( 'NONE', *, *, #420, .T. ) ;
#134 = CARTESIAN_POINT ( 'NONE',  ( 10.00000000000015454, 1.226880509895259235E-11, -22.91287847477913076 ) ) ;
#135 = EDGE_CURVE ( 'NONE', #307, #487, #423, .T. ) ;
#136 = DIRECTION ( 'NONE',  ( 1.000000000000000000, 3.430248998882066812E-15, 6.982962677688095290E-15 ) ) ;
#137 = AXIS2_PLACEMENT_3D ( 'NONE', #440, #632, #392 ) ;
#138 = DIRECTION ( 'NONE',  ( -1.000000000000000000, -3.430248998882066418E-15, -6.982962677688095290E-15 ) ) ;
#139 = ORIENTED_EDGE ( 'NONE', *, *, #28, .F. ) ;
#140 = PLANE ( 'NONE',  #389 ) ;
#141 = LINE ( 'NONE', #92, #456 ) ;
#142 = ORIENTED_EDGE ( 'NONE', *, *, #420, .F. ) ;
#143 = LINE ( 'NONE', #534, #146 ) ;
#144 = B_SPLINE_CURVE_WITH_KNOTS ( 'NONE', 3,
 ( #417, #466, #175, #364, #263, #612, #111, #408, #372, #309, #362, #125, #507, #455, #63, #257, #208, #554, #604, #168, #118, #318, #512, #218, #535, #331 ),
 .UNSPECIFIED., .F., .F.,
 ( 4, 2, 2, 2, 2, 2, 2, 2, 2, 2, 2, 2, 4 ),
 ( 4.942740809525716385E-18, 0.002271251611878897549, 0.004542503223757790760, 0.005678129029697232162, 0.006813754835636675299, 0.007949380641576117568, 0.009085006447515558969, 0.01135625805939444524, 0.01249188386533389011, 0.01362750967127333498, 0.01476313547721277812, 0.01589876128315222126, 0.01817001289503110406 ),
 .UNSPECIFIED. ) ;
#145 = CARTESIAN_POINT ( 'NONE',  ( 9.999999999999495515, 99.99999999998789235, 22.91287847483229356 ) ) ;
#146 = VECTOR ( 'NONE', #287, 1000.000000000000000 ) ;
#147 = CARTESIAN_POINT ( 'NONE',  ( -14.20546664220696975, 1.843357717835524046, 20.57467106829772518 ) ) ;
#148 = PLANE ( 'NONE',  #137 ) ;
#149 = DIRECTION ( 'NONE',  ( 1.000000000000000000, 0.000000000000000000, 6.938893903907226800E-15 ) ) ;
#150 = ORIENTED_EDGE ( 'NONE', *, *, #395, .T. ) ;
#151 = ADVANCED_FACE ( 'NONE', ( #473 ), #419, .T. ) ;
#152 = CARTESIAN_POINT ( 'NONE',  ( -15.86053888644990018, 0.8753087441316238504, 19.33742586661153240 ) ) ;
#153 = ORIENTED_EDGE ( 'NONE', *, *, #513, .T. ) ;
#154 = CARTESIAN_POINT ( 'NONE',  ( -3.430248998885768810E-13, 100.0000000000000000, 5.302147609853589409E-11 ) ) ;
#155 = ORIENTED_EDGE ( 'NONE', *, *, #347, .T. ) ;
#156 =( NAMED_UNIT ( * ) PLANE_ANGLE_UNIT ( ) SI_UNIT ( $, .RADIAN. ) );
#157 = CARTESIAN_POINT ( 'NONE',  ( -2.941652048589203443E-28, 8.575622497214418240E-14, 4.546921632661209358E-26 ) ) ;
#158 = EDGE_LOOP ( 'NONE', ( #551, #400, #443, #185 ) ) ;
#159 = VECTOR ( 'NONE', #177, 1000.000000000000000 ) ;
#160 = CARTESIAN_POINT ( 'NONE',  ( -9.999999999999877431, 10.00000000001215739, -22.91287847477396511 ) ) ;
#161 = PRODUCT ( 'N308_structure', 'N308_structure', '', ( #453 ) ) ;
#162 = PRODUCT_RELATED_PRODUCT_CATEGORY ( 'part', '', ( #161 ) ) ;
#163 = ORIENTED_EDGE ( 'NONE', *, *, #209, .T. ) ;
#164 = PRESENTATION_LAYER_ASSIGNMENT (  '', '', ( #437 ) ) ;
#165 = CARTESIAN_POINT ( 'NONE',  ( -14.75766441274076612, 1.477934480462892664, -20.18227221730163734 ) ) ;
#166 = ORIENTED_EDGE ( 'NONE', *, *, #55, .T. ) ;
#167 = CARTESIAN_POINT ( 'NONE',  ( -11.97647981198254108, 4.020737855121526927, -21.94606981415564562 ) ) ;
#168 = CARTESIAN_POINT ( 'NONE',  ( 10.85647049756285298, 5.933817441059446196, 22.52043955241370199 ) ) ;
#169 = DIRECTION ( 'NONE',  ( -3.430248998885768937E-15, 1.000000000000000000, 5.302147609853589328E-13 ) ) ;
#170 = EDGE_CURVE ( 'NONE', #509, #593, #529, .T. ) ;
#171 = CARTESIAN_POINT ( 'NONE',  ( -14.21023912480545981, 1.839953913316484391, -20.57138485343609702 ) ) ;
#172 = ORIENTED_EDGE ( 'NONE', *, *, #464, .F. ) ;
#173 = CARTESIAN_POINT ( 'NONE',  ( -10.00000000000022560, 64.99999999999997158, 3.446579643424705608E-11 ) ) ;
#174 = CARTESIAN_POINT ( 'NONE',  ( -17.51938513531464636, 0.2956088032717610337, -17.85006891456124123 ) ) ;
#175 = CARTESIAN_POINT ( 'NONE',  ( 19.05668644110018661, 0.03150673617668039300, 16.19909563521402163 ) ) ;
#176 = FACE_OUTER_BOUND ( 'NONE', #607, .T. ) ;
#177 = DIRECTION ( 'NONE',  ( 6.982962677686276177E-15, 5.302147609853589328E-13, -1.000000000000000000 ) ) ;
#178 = ORIENTED_EDGE ( 'NONE', *, *, #14, .F. ) ;
#179 = CARTESIAN_POINT ( 'NONE',  ( -1.470826024294601721E-28, 4.287811248607209120E-14, 2.273460816330604679E-26 ) ) ;
#180 = CARTESIAN_POINT ( 'NONE',  ( 25.00000000000035527, -53.34936490538886034, -1.121139064329643373E-11 ) ) ;
#181 = VECTOR ( 'NONE', #630, 1000.000000000000000 ) ;
#182 = DIRECTION ( 'NONE',  ( -1.000000000000000000, -3.430248998882066812E-15, -6.982962677688095290E-15 ) ) ;
#183 = FILL_AREA_STYLE_COLOUR ( '', #79 ) ;
#184 = CARTESIAN_POINT ( 'NONE',  ( 9.999999999999879208, 35.00000000000003553, 1.862734626126444142E-11 ) ) ;
#185 = ORIENTED_EDGE ( 'NONE', *, *, #101, .F. ) ;
#186 = B_SPLINE_CURVE_WITH_KNOTS ( 'NONE', 3,
 ( #258, #66, #609, #560, #174, #207, #553, #321, #407, #603, #165, #171, #511, #370, #317, #167, #454, #410, #363, #262, #563, #557, #360, #465, #457, #160 ),
 .UNSPECIFIED., .F., .F.,
 ( 4, 2, 2, 2, 2, 2, 2, 2, 2, 2, 2, 2, 4 ),
 ( 4.942740809526669335E-18, 0.002271251611878894079, 0.004542503223757783822, 0.005678129029697225223, 0.006813754835636667492, 0.007949380641576108894, 0.009085006447515550296, 0.01135625805939444004, 0.01249188386533388664, 0.01362750967127333325, 0.01476313547721277986, 0.01589876128315222473, 0.01817001289503111794 ),
 .UNSPECIFIED. ) ;
#187 = DIRECTION ( 'NONE',  ( -1.000000000000000000, -3.430248998882066418E-15, -6.982962677688096079E-15 ) ) ;
#188 = CARTESIAN_POINT ( 'NONE',  ( 63.64665149909991726, -99.99999999993227107, -127.2933029981208080 ) ) ;
#189 = CARTESIAN_POINT ( 'NONE',  ( 80.11961706406975736, -69.26102778005667915, -160.2392341280105086 ) ) ;
#190 = AXIS2_PLACEMENT_3D ( 'NONE', #179, #377, #510 ) ;
#191 = ORIENTED_EDGE ( 'NONE', *, *, #256, .F. ) ;
#192 = AXIS2_PLACEMENT_3D ( 'NONE', #112, #310, #450 ) ;
#193 = DIRECTION ( 'NONE',  ( -3.430248998885768937E-15, 1.000000000000000000, 5.302147609853589328E-13 ) ) ;
#194 = EDGE_LOOP ( 'NONE', ( #139, #191, #627, #300 ) ) ;
#195 = ADVANCED_FACE ( 'NONE', ( #592 ), #96, .F. ) ;
#196 = CARTESIAN_POINT ( 'NONE',  ( -11.17802233047743066, 5.276604019661967904, 22.36257499133670024 ) ) ;
#197 = ORIENTED_EDGE ( 'NONE', *, *, #28, .T. ) ;
#198 = APPLICATION_PROTOCOL_DEFINITION ( 'draft international standard', 'automotive_design', 1998, #219 ) ;
#199 = CARTESIAN_POINT ( 'NONE',  ( 3.430248998885768810E-13, -100.0000000000000000, -5.302147609853589409E-11 ) ) ;
#200 = ORIENTED_EDGE ( 'NONE', *, *, #135, .T. ) ;
#201 = CARTESIAN_POINT ( 'NONE',  ( -19.05187649875854561, 0.03187835767076875604, 16.20484767120671421 ) ) ;
#202 = ORIENTED_EDGE ( 'NONE', *, *, #334, .F. ) ;
#203 = DIRECTION ( 'NONE',  ( -3.430248998885768937E-15, 1.000000000000000000, 5.302147609853589328E-13 ) ) ;
#204 = ORIENTED_EDGE ( 'NONE', *, *, #170, .T. ) ;
#205 = AXIS2_PLACEMENT_3D ( 'NONE', #308, #404, #24 ) ;
#206 = AXIS2_PLACEMENT_3D ( 'NONE', #477, #427, #274 ) ;
#207 = CARTESIAN_POINT ( 'NONE',  ( -16.69979692697526730, 0.5559106141371540355, -18.60793477367379367 ) ) ;
#208 = CARTESIAN_POINT ( 'NONE',  ( 11.76290598202784743, 4.317766985898670917, 22.06092635451314621 ) ) ;
#209 = EDGE_CURVE ( 'NONE', #29, #391, #446, .T. ) ;
#210 = AXIS2_PLACEMENT_3D ( 'NONE', #267, #467, #584 ) ;
#211 = CARTESIAN_POINT ( 'NONE',  ( -20.00000000000010303, -7.936070169785884204E-12, 14.99999999999986322 ) ) ;
#212 = DIRECTION ( 'NONE',  ( -6.982962677686276177E-15, -5.302147609853589328E-13, 1.000000000000000000 ) ) ;
#213 = PRODUCT_DEFINITION ( 'UNKNOWN', '', #552, #216 ) ;
#214 = CARTESIAN_POINT ( 'NONE',  ( 13.93383493758926939, 2.042677955968483339, -20.75929957341777410 ) ) ;
#215 = EDGE_CURVE ( 'NONE', #52, #543, #2, .T. ) ;
#216 = PRODUCT_DEFINITION_CONTEXT ( 'detailed design', #286, 'design' ) ;
#217 = CARTESIAN_POINT ( 'NONE',  ( -19.54035209404380780, -8.311804715365517704E-12, 15.61286387460840253 ) ) ;
#218 = CARTESIAN_POINT ( 'NONE',  ( 10.08812750137383318, 8.470289305196057938, 22.87501038207475190 ) ) ;
#219 = APPLICATION_CONTEXT ( 'automotive_design' ) ;
#220 = LINE ( 'NONE', #62, #236 ) ;
#221 = ORIENTED_EDGE ( 'NONE', *, *, #556, .F. ) ;
#222 = DIRECTION ( 'NONE',  ( -1.000000000000000000, 0.000000000000000000, -6.938893903907229955E-15 ) ) ;
#223 = CARTESIAN_POINT ( 'NONE',  ( 10.00000000000036060, 9.229794350019522753, -22.91287847477423512 ) ) ;
#224 = CARTESIAN_POINT ( 'NONE',  ( 25.00000000003450396, -53.34936490536235709, -50.00000000004534684 ) ) ;
#225 = ORIENTED_EDGE ( 'NONE', *, *, #14, .T. ) ;
#226 = DIRECTION ( 'NONE',  ( -1.000000000000000000, -3.430248998882066812E-15, -6.982962677688095290E-15 ) ) ;
#227 = CARTESIAN_POINT ( 'NONE',  ( 3.460865168864451335E-13, -100.0000000000000000, -5.302147609853588117E-11 ) ) ;
#228 =( NAMED_UNIT ( * ) SI_UNIT ( $, .STERADIAN. ) SOLID_ANGLE_UNIT ( ) );
#229 = CARTESIAN_POINT ( 'NONE',  ( -10.00000000000016698, -1.209729264900830572E-11, 22.91287847477913076 ) ) ;
#230 = ORIENTED_EDGE ( 'NONE', *, *, #442, .F. ) ;
#231 = DIRECTION ( 'NONE',  ( -1.000000000000000000, -3.430248998882066418E-15, -6.982962677688095290E-15 ) ) ;
#232 = EDGE_CURVE ( 'NONE', #52, #543, #597, .T. ) ;
#233 = LINE ( 'NONE', #575, #434 ) ;
#234 = CARTESIAN_POINT ( 'NONE',  ( -24.99999999999998934, -53.34936490538903087, -2.846731806296941410E-11 ) ) ;
#235 = CARTESIAN_POINT ( 'NONE',  ( -10.00000000000042277, 9.999999999987853272, 22.91287847478443140 ) ) ;
#236 = VECTOR ( 'NONE', #313, 1000.000000000000000 ) ;
#237 = DIRECTION ( 'NONE',  ( 3.430248998885768937E-15, -1.000000000000000000, -5.302147609853589328E-13 ) ) ;
#238 = AXIS2_PLACEMENT_3D ( 'NONE', #157, #53, #544 ) ;
#239 = SURFACE_STYLE_USAGE ( .BOTH. , #478 ) ;
#240 = CARTESIAN_POINT ( 'NONE',  ( 3.460865168864451840E-13, -100.0000000000000000, -5.302147609853589409E-11 ) ) ;
#241 = MECHANICAL_DESIGN_GEOMETRIC_PRESENTATION_REPRESENTATION (  '', ( #437 ), #494 ) ;
#242 = EDGE_LOOP ( 'NONE', ( #447, #166, #598, #88, #108, #564 ) ) ;
#243 = CARTESIAN_POINT ( 'NONE',  ( 9.999999999999815259, 100.0000000000121787, -22.91287847472610295 ) ) ;
#244 = ADVANCED_FACE ( 'NONE', ( #500 ), #44, .T. ) ;
#245 = CARTESIAN_POINT ( 'NONE',  ( -11.75274981885119274, 4.332691993538490216, 22.06631634913663476 ) ) ;
#246 = EDGE_LOOP ( 'NONE', ( #163, #610, #583 ) ) ;
#247 = CYLINDRICAL_SURFACE ( 'NONE', #355, 10.00000000000000178 ) ;
#248 = EDGE_LOOP ( 'NONE', ( #492, #9, #421 ) ) ;
#249 = CIRCLE ( 'NONE', #268, 15.00000000000000000 ) ;
#250 = CARTESIAN_POINT ( 'NONE',  ( -13.93383493758929248, 2.042677955946375690, 20.75929957341994836 ) ) ;
#251 = EDGE_LOOP ( 'NONE', ( #172, #480 ) ) ;
#252 = SHAPE_DEFINITION_REPRESENTATION ( #311, #320 ) ;
#253 = FACE_OUTER_BOUND ( 'NONE', #194, .T. ) ;
#254 = ORIENTED_EDGE ( 'NONE', *, *, #496, .T. ) ;
#255 = LINE ( 'NONE', #367, #23 ) ;
#256 = EDGE_CURVE ( 'NONE', #620, #591, #588, .T. ) ;
#257 = CARTESIAN_POINT ( 'NONE',  ( 11.97647981198251799, 4.020737855098330371, 21.94606981415991953 ) ) ;
#258 = CARTESIAN_POINT ( 'NONE',  ( -19.99999999999989697, 7.970372659774888224E-12, -15.00000000000014388 ) ) ;
#259 = ORIENTED_EDGE ( 'NONE', *, *, #378, .T. ) ;
#260 = ADVANCED_FACE ( 'NONE', ( #253 ), #247, .F. ) ;
#261 = FACE_OUTER_BOUND ( 'NONE', #102, .T. ) ;
#262 = CARTESIAN_POINT ( 'NONE',  ( -10.85647049756289562, 5.933817441083264477, -22.52043955240741724 ) ) ;
#263 = CARTESIAN_POINT ( 'NONE',  ( 17.51938513531462860, 0.2956088032529521348, 17.85006891456155387 ) ) ;
#264 = FACE_BOUND ( 'NONE', #322, .T. ) ;
#265 = CARTESIAN_POINT ( 'NONE',  ( -10.00000000000050449, 99.99999999998783551, 22.91287847483215145 ) ) ;
#266 = FACE_OUTER_BOUND ( 'NONE', #382, .T. ) ;
#267 = CARTESIAN_POINT ( 'NONE',  ( 9.999999999999825917, 50.00000000000003553, 2.658056767604482521E-11 ) ) ;
#268 = AXIS2_PLACEMENT_3D ( 'NONE', #80, #182, #566 ) ;
#269 = DIRECTION ( 'NONE',  ( -3.430248998885768937E-15, 1.000000000000000000, 5.302147609853589328E-13 ) ) ;
#270 = VERTEX_POINT ( 'NONE', #199 ) ;
#271 = LINE ( 'NONE', #422, #629 ) ;
#272 = EDGE_CURVE ( 'NONE', #519, #282, #69, .T. ) ;
#273 = VECTOR ( 'NONE', #90, 1000.000000000000000 ) ;
#274 = DIRECTION ( 'NONE',  ( 3.469446951953614189E-15, -1.000000000000000000, -5.302147609853588319E-13 ) ) ;
#275 = DIRECTION ( 'NONE',  ( -3.430248998885768937E-15, 1.000000000000000000, 5.302147609853589328E-13 ) ) ;
#276 = FACE_OUTER_BOUND ( 'NONE', #349, .T. ) ;
#277 = ORIENTED_EDGE ( 'NONE', *, *, #281, .F. ) ;
#278 = FACE_OUTER_BOUND ( 'NONE', #246, .T. ) ;
#279 = EDGE_CURVE ( 'NONE', #76, #449, #255, .T. ) ;
#280 = CARTESIAN_POINT ( 'NONE',  ( -80.11961706395869953, -69.26102778005723337, -160.2392341280657888 ) ) ;
#281 = EDGE_CURVE ( 'NONE', #304, #345, #75, .T. ) ;
#282 = VERTEX_POINT ( 'NONE', #211 ) ;
#283 = DIRECTION ( 'NONE',  ( -1.000000000000000000, 3.700497202585190066E-27, -6.982962677686276177E-15 ) ) ;
#284 = CARTESIAN_POINT ( 'NONE',  ( 11.75274981885115366, 4.332691993561971877, -22.06631634913204110 ) ) ;
#285 = DIRECTION ( 'NONE',  ( -1.000000000000000000, -3.430248998882066812E-15, -6.982962677688095290E-15 ) ) ;
#286 = APPLICATION_CONTEXT ( 'automotive_design' ) ;
#287 = DIRECTION ( 'NONE',  ( 6.982962677686276177E-15, 5.302147609853589328E-13, -1.000000000000000000 ) ) ;
#288 = CARTESIAN_POINT ( 'NONE',  ( 9.999999999999815259, 100.0000000000121787, -22.91287847472610295 ) ) ;
#289 = ORIENTED_EDGE ( 'NONE', *, *, #316, .F. ) ;
#290 = LINE ( 'NONE', #429, #273 ) ;
#291 = VECTOR ( 'NONE', #130, 1000.000000000000000 ) ;
#292 = CARTESIAN_POINT ( 'NONE',  ( 80.11961706391450377, -69.26102778022656992, 160.2392341278616641 ) ) ;
#293 = VERTEX_POINT ( 'NONE', #357 ) ;
#294 = AXIS2_PLACEMENT_3D ( 'NONE', #154, #352, #98 ) ;
#295 = PLANE ( 'NONE',  #573 ) ;
#296 = CARTESIAN_POINT ( 'NONE',  ( 3.460865168864452850E-13, -100.0000000000000000, -5.302759933253162767E-11 ) ) ;
#297 = VECTOR ( 'NONE', #425, 1000.000000000000000 ) ;
#298 = ORIENTED_EDGE ( 'NONE', *, *, #281, .T. ) ;
#299 = DIRECTION ( 'NONE',  ( -1.000000000000000000, -3.430248998882066812E-15, -6.982962677688095290E-15 ) ) ;
#300 = ORIENTED_EDGE ( 'NONE', *, *, #376, .F. ) ;
#301 = CARTESIAN_POINT ( 'NONE',  ( -10.70662779496219663, 6.288342714573321501, 22.59176297338254713 ) ) ;
#302 = AXIS2_PLACEMENT_3D ( 'NONE', #572, #608, #30 ) ;
#303 = EDGE_CURVE ( 'NONE', #29, #487, #186, .T. ) ;
#304 = VERTEX_POINT ( 'NONE', #11 ) ;
#305 = VECTOR ( 'NONE', #521, 1000.000000000000000 ) ;
#306 = CARTESIAN_POINT ( 'NONE',  ( 63.64665149901297525, -99.99999999999980105, -3.481895058260933938E-11 ) ) ;
#307 = VERTEX_POINT ( 'NONE', #460 ) ;
#308 = CARTESIAN_POINT ( 'NONE',  ( -2.941652048589203443E-28, 8.575622497214418240E-14, 4.546921632661209358E-26 ) ) ;
#309 = CARTESIAN_POINT ( 'NONE',  ( 15.03353059810908654, 1.314814719897416495, 19.97787803032841580 ) ) ;
#310 = DIRECTION ( 'NONE',  ( 0.000000000000000000, 0.000000000000000000, 1.000000000000000000 ) ) ;
#311 = PRODUCT_DEFINITION_SHAPE ( 'NONE', 'NONE',  #213 ) ;
#312 = ADVANCED_FACE ( 'NONE', ( #115 ), #324, .T. ) ;
#313 = DIRECTION ( 'NONE',  ( -3.430248998885768937E-15, 1.000000000000000000, 5.302147609853589328E-13 ) ) ;
#314 = ORIENTED_EDGE ( 'NONE', *, *, #513, .F. ) ;
#315 = DIRECTION ( 'NONE',  ( -1.000000000000000000, -3.430248998882066812E-15, -6.982962677688095290E-15 ) ) ;
#316 = EDGE_CURVE ( 'NONE', #39, #620, #106, .T. ) ;
#317 = CARTESIAN_POINT ( 'NONE',  ( -12.64942839514293738, 3.182162725536451298, -21.56979733736305604 ) ) ;
#318 = CARTESIAN_POINT ( 'NONE',  ( 10.45757799522156795, 6.986080464556110314, 22.70811802772611543 ) ) ;
#319 = LINE ( 'NONE', #22, #291 ) ;
#320 = ADVANCED_BREP_SHAPE_REPRESENTATION ( 'N308_structure', ( #528, #192 ), #113 ) ;
#321 = CARTESIAN_POINT ( 'NONE',  ( -15.86511017280909464, 0.8899298281303893443, -19.32435477421094561 ) ) ;
#322 = EDGE_LOOP ( 'NONE', ( #254, #452 ) ) ;
#323 = CARTESIAN_POINT ( 'NONE',  ( -63.64665149901228602, -100.0000000000002274, -5.346591829051332069E-11 ) ) ;
#324 = CYLINDRICAL_SURFACE ( 'NONE', #595, 25.00000000000009237 ) ;
#325 = EDGE_LOOP ( 'NONE', ( #204, #155, #578, #530, #351, #221 ) ) ;
#326 = CARTESIAN_POINT ( 'NONE',  ( 19.54035209404381490, 8.379282748075584286E-12, -15.61286387460840963 ) ) ;
#327 = AXIS2_PLACEMENT_3D ( 'NONE', #124, #515, #518 ) ;
#328 = VECTOR ( 'NONE', #48, 1000.000000000000000 ) ;
#329 = CARTESIAN_POINT ( 'NONE',  ( -10.00000000000018652, 100.0000000000121219, -22.91287847472624506 ) ) ;
#330 =( BOUNDED_CURVE ( )  B_SPLINE_CURVE ( 3, ( #123, #568, #323, #19 ),
 .UNSPECIFIED., .F., .T. ) 
 B_SPLINE_CURVE_WITH_KNOTS ( ( 4, 4 ),
 ( 2.094395102393195263, 4.712388980384696779 ),
 .UNSPECIFIED. ) 
 CURVE ( )  GEOMETRIC_REPRESENTATION_ITEM ( )  RATIONAL_B_SPLINE_CURVE ( ( 1.000000000000000000, 0.5058793634016781615, 0.5058793634016781615, 1.000000000000000000 ) ) 
 REPRESENTATION_ITEM ( '' )  );
#331 = CARTESIAN_POINT ( 'NONE',  ( 9.999999999999804601, 9.999999999987915444, 22.91287847478456996 ) ) ;
#332 = VERTEX_POINT ( 'NONE', #265 ) ;
#333 = DIRECTION ( 'NONE',  ( -3.430248998885768937E-15, 1.000000000000000000, 5.302147609853589328E-13 ) ) ;
#334 = EDGE_CURVE ( 'NONE', #304, #270, #18, .T. ) ;
#335 = EDGE_CURVE ( 'NONE', #591, #39, #127, .T. ) ;
#336 = CARTESIAN_POINT ( 'NONE',  ( 3.460865168864198900E-13, -100.0000000000000142, -5.301535286454012820E-11 ) ) ;
#337 = EDGE_LOOP ( 'NONE', ( #398, #298, #133, #104, #589, #368, #314, #403, #150, #289 ) ) ;
#338 = CARTESIAN_POINT ( 'NONE',  ( 9.999999999999838352, -1.211444389400280854E-11, 22.91287847477926931 ) ) ;
#339 = CARTESIAN_POINT ( 'NONE',  ( 10.70662779496215755, 6.288342714597349392, -22.59176297337588224 ) ) ;
#340 = CYLINDRICAL_SURFACE ( 'NONE', #206, 15.00000000000000000 ) ;
#341 = CARTESIAN_POINT ( 'NONE',  ( 63.64665149901297525, -99.99999999999978684, -9.550227273233198587E-12 ) ) ;
#342 = ORIENTED_EDGE ( 'NONE', *, *, #464, .T. ) ;
#343 = PRESENTATION_STYLE_ASSIGNMENT (( #239 ) ) ;
#344 = CARTESIAN_POINT ( 'NONE',  ( -14.75202264291551479, 1.481422430164609061, 20.18638650265079093 ) ) ;
#345 = VERTEX_POINT ( 'NONE', #506 ) ;
#346 = DIRECTION ( 'NONE',  ( -3.430248998885768937E-15, 1.000000000000000000, 5.302147609853589328E-13 ) ) ;
#347 = EDGE_CURVE ( 'NONE', #593, #487, #117, .T. ) ;
#348 = CARTESIAN_POINT ( 'NONE',  ( 80.11961706396033378, -69.26102778014161743, -1.380953350163527067E-11 ) ) ;
#349 = EDGE_LOOP ( 'NONE', ( #49, #439, #54, #342 ) ) ;
#350 = CARTESIAN_POINT ( 'NONE',  ( -10.34494073580770213, 7.368769650739842803, 22.75941639120199156 ) ) ;
#351 = ORIENTED_EDGE ( 'NONE', *, *, #97, .T. ) ;
#352 = DIRECTION ( 'NONE',  ( 3.430248998885769726E-15, -1.000000000000000000, -5.302147609853589328E-13 ) ) ;
#353 = EDGE_LOOP ( 'NONE', ( #428, #635 ) ) ;
#354 = CARTESIAN_POINT ( 'NONE',  ( -25.00000000000034106, -53.34936490541553411, 49.99999999995793587 ) ) ;
#355 = AXIS2_PLACEMENT_3D ( 'NONE', #438, #498, #149 ) ;
#356 = ORIENTED_EDGE ( 'NONE', *, *, #472, .F. ) ;
#357 = CARTESIAN_POINT ( 'NONE',  ( -10.00000000000012079, 34.99999999999997158, 1.848768700771068509E-11 ) ) ;
#358 = ORIENTED_EDGE ( 'NONE', *, *, #232, .F. ) ;
#359 = AXIS2_PLACEMENT_3D ( 'NONE', #624, #346, #488 ) ;
#360 = CARTESIAN_POINT ( 'NONE',  ( -10.34914623737127037, 7.352863913209566782, -22.75751032677520769 ) ) ;
#361 = AXIS2_PLACEMENT_3D ( 'NONE', #383, #333, #187 ) ;
#362 = CARTESIAN_POINT ( 'NONE',  ( 14.75766441274075191, 1.477934480441590814, 20.18227221730320764 ) ) ;
#363 = CARTESIAN_POINT ( 'NONE',  ( -11.18332432234075924, 5.266692239106653517, -22.35992858663568938 ) ) ;
#364 = CARTESIAN_POINT ( 'NONE',  ( 18.04628363363715593, 0.1794251298047427612, 17.31761082042046240 ) ) ;
#365 = DIRECTION ( 'NONE',  ( -3.430248998885768937E-15, 1.000000000000000000, 5.302147609853589328E-13 ) ) ;
#366 = AXIS2_PLACEMENT_3D ( 'NONE', #32, #379, #138 ) ;
#367 = CARTESIAN_POINT ( 'NONE',  ( 9.999999999999774403, 65.00000000000002842, 3.453562606102393102E-11 ) ) ;
#368 = ORIENTED_EDGE ( 'NONE', *, *, #347, .F. ) ;
#369 = CARTESIAN_POINT ( 'NONE',  ( -10.00000000000017408, 49.99999999999997158, 2.644090842249106888E-11 ) ) ;
#370 = CARTESIAN_POINT ( 'NONE',  ( -13.14329927628797634, 2.688880506912920243, -21.27564410827880081 ) ) ;
#371 = EDGE_CURVE ( 'NONE', #304, #39, #220, .T. ) ;
#372 = CARTESIAN_POINT ( 'NONE',  ( 15.58725087264780917, 1.020807006824969942, 19.54891974181936476 ) ) ;
#373 = CARTESIAN_POINT ( 'NONE',  ( -25.00000000000009237, -8.575622497205198033E-14, -1.745740669422030149E-13 ) ) ;
#374 = CARTESIAN_POINT ( 'NONE',  ( 9.999999999999495515, 99.99999999998789235, 22.91287847483229356 ) ) ;
#375 = CARTESIAN_POINT ( 'NONE',  ( 9.999999999999815259, 100.0000000000121787, -22.91287847472610295 ) ) ;
#376 = EDGE_CURVE ( 'NONE', #99, #484, #508, .T. ) ;
#377 = DIRECTION ( 'NONE',  ( -3.430248998885768937E-15, 1.000000000000000000, 5.302147609853589328E-13 ) ) ;
#378 = EDGE_CURVE ( 'NONE', #332, #615, #233, .T. ) ;
#379 = DIRECTION ( 'NONE',  ( -3.430248998885768937E-15, 1.000000000000000000, 5.302147609853589328E-13 ) ) ;
#380 = CARTESIAN_POINT ( 'NONE',  ( -1.470826024294601721E-28, 4.287811248607209120E-14, 2.273460816330604679E-26 ) ) ;
#381 = PLANE ( 'NONE',  #1 ) ;
#382 = EDGE_LOOP ( 'NONE', ( #497, #6, #17, #178 ) ) ;
#383 = CARTESIAN_POINT ( 'NONE',  ( -2.941652048589203443E-28, 8.575622497214418240E-14, 4.546921632661209358E-26 ) ) ;
#384 = AXIS2_PLACEMENT_3D ( 'NONE', #418, #275, #412 ) ;
#385 = CARTESIAN_POINT ( 'NONE',  ( 3.399632828907086286E-13, -100.0000000000000000, -5.302147609853590702E-11 ) ) ;
#386 = CARTESIAN_POINT ( 'NONE',  ( 9.999999999999815259, 100.0000000000121787, -22.91287847472610295 ) ) ;
#387 = CARTESIAN_POINT ( 'NONE',  ( -11.35838197093667112, 4.954412479173929462, 22.27187923204950337 ) ) ;
#388 = FACE_OUTER_BOUND ( 'NONE', #325, .T. ) ;
#389 = AXIS2_PLACEMENT_3D ( 'NONE', #380, #531, #231 ) ;
#390 = CARTESIAN_POINT ( 'NONE',  ( 3.399632828907085781E-13, -100.0000000000000000, -5.302759933253162767E-11 ) ) ;
#391 = VERTEX_POINT ( 'NONE', #37 ) ;
#392 = DIRECTION ( 'NONE',  ( -3.430248998885769331E-15, 1.000000000000000000, 5.302147609853589328E-13 ) ) ;
#393 = CARTESIAN_POINT ( 'NONE',  ( -13.13841407585000098, 2.693292854250156854, 21.27870237959267641 ) ) ;
#394 = ORIENTED_EDGE ( 'NONE', *, *, #547, .T. ) ;
#395 = EDGE_CURVE ( 'NONE', #484, #620, #86, .T. ) ;
#396 = ADVANCED_FACE ( 'NONE', ( #261 ), #616, .T. ) ;
#397 = CARTESIAN_POINT ( 'NONE',  ( -24.99999999999998934, -53.34936490538902376, -2.846119482897369991E-11 ) ) ;
#398 = ORIENTED_EDGE ( 'NONE', *, *, #371, .F. ) ;
#399 = CARTESIAN_POINT ( 'NONE',  ( -63.64665149901318131, -100.0000000000677289, 127.2933029979362942 ) ) ;
#400 = ORIENTED_EDGE ( 'NONE', *, *, #279, .T. ) ;
#401 = DIRECTION ( 'NONE',  ( -3.430248998885768937E-15, 1.000000000000000000, 5.302147609853589328E-13 ) ) ;
#402 = AXIS2_PLACEMENT_3D ( 'NONE', #596, #203, #70 ) ;
#403 = ORIENTED_EDGE ( 'NONE', *, *, #556, .T. ) ;
#404 = DIRECTION ( 'NONE',  ( -3.430248998885768937E-15, 1.000000000000000000, 5.302147609853589328E-13 ) ) ;
#405 = ORIENTED_EDGE ( 'NONE', *, *, #462, .T. ) ;
#406 = CIRCLE ( 'NONE', #359, 25.00000000000000000 ) ;
#407 = CARTESIAN_POINT ( 'NONE',  ( -15.58725087264781273, 1.020807006845593001, -19.54891974181827763 ) ) ;
#408 = CARTESIAN_POINT ( 'NONE',  ( 15.86511017280908753, 0.8899298281100070929, 19.32435477421189063 ) ) ;
#409 = CARTESIAN_POINT ( 'NONE',  ( 17.51173008777542250, 0.2977583443453274969, -17.85739381281515747 ) ) ;
#410 = CARTESIAN_POINT ( 'NONE',  ( -11.36471361680199799, 4.943388588455803756, -22.26867111367755925 ) ) ;
#411 = EDGE_LOOP ( 'NONE', ( #277, #503, #356 ) ) ;
#412 = DIRECTION ( 'NONE',  ( -1.000000000000000000, -3.330669073875445167E-15, -6.982962677688108701E-15 ) ) ;
#413 = CIRCLE ( 'NONE', #433, 15.00000000000000000 ) ;
#414 = CARTESIAN_POINT ( 'NONE',  ( -20.00000000000010303, -7.936070169785884204E-12, 14.99999999999986322 ) ) ;
#415 = ORIENTED_EDGE ( 'NONE', *, *, #376, .T. ) ;
#416 = PLANE ( 'NONE',  #46 ) ;
#417 = CARTESIAN_POINT ( 'NONE',  ( 19.99999999999989342, -7.798860209830603217E-12, 15.00000000000014921 ) ) ;
#418 = CARTESIAN_POINT ( 'NONE',  ( 1.830016055579019811E-13, -53.34936490538893850, -2.828662076203149318E-11 ) ) ;
#419 = PLANE ( 'NONE',  #366 ) ;
#420 = EDGE_CURVE ( 'NONE', #345, #391, #68, .T. ) ;
#421 = ORIENTED_EDGE ( 'NONE', *, *, #256, .T. ) ;
#422 = CARTESIAN_POINT ( 'NONE',  ( -10.00000000000018652, 100.0000000000121219, -22.91287847472624506 ) ) ;
#423 = LINE ( 'NONE', #329, #305 ) ;
#424 = ADVANCED_FACE ( 'NONE', ( #176 ), #33, .T. ) ;
#425 = DIRECTION ( 'NONE',  ( -1.000000000000000000, -3.430248998882066812E-15, -6.982962677688095290E-15 ) ) ;
#426 = UNCERTAINTY_MEASURE_WITH_UNIT (LENGTH_MEASURE( 1.000000000000000082E-05 ), #59, 'distance_accuracy_value', 'NONE');
#427 = DIRECTION ( 'NONE',  ( -1.000000000000000000, -3.430248998882066812E-15, -6.982962677688095290E-15 ) ) ;
#428 = ORIENTED_EDGE ( 'NONE', *, *, #215, .F. ) ;
#429 = CARTESIAN_POINT ( 'NONE',  ( -10.00000000000050449, 99.99999999998783551, 22.91287847483215145 ) ) ;
#430 = ADVANCED_FACE ( 'NONE', ( #264, #520 ), #416, .F. ) ;
#431 = CARTESIAN_POINT ( 'NONE',  ( 80.11961706396033378, -69.26102778014163164, 1.799921664563343734E-11 ) ) ;
#432 =( LENGTH_UNIT ( ) NAMED_UNIT ( * ) SI_UNIT ( .MILLI., .METRE. ) );
#433 = AXIS2_PLACEMENT_3D ( 'NONE', #619, #94, #614 ) ;
#434 = VECTOR ( 'NONE', #136, 1000.000000000000000 ) ;
#435 = DIRECTION ( 'NONE',  ( -3.430248998885768937E-15, 1.000000000000000000, 5.302147609853589328E-13 ) ) ;
#436 =( NAMED_UNIT ( * ) PLANE_ANGLE_UNIT ( ) SI_UNIT ( $, .RADIAN. ) );
#437 = STYLED_ITEM ( 'NONE', ( #343 ), #528 ) ;
#438 = CARTESIAN_POINT ( 'NONE',  ( 20.00000000000012079, 10.00000000001225509, -22.91287847477375550 ) ) ;
#439 = ORIENTED_EDGE ( 'NONE', *, *, #496, .F. ) ;
#440 = CARTESIAN_POINT ( 'NONE',  ( -10.00000000000018652, 100.0000000000121219, -22.91287847472624506 ) ) ;
#441 = CARTESIAN_POINT ( 'NONE',  ( -11.96765633126005923, 4.032485674193738490, 21.95089266265364714 ) ) ;
#442 = EDGE_CURVE ( 'NONE', #615, #65, #319, .T. ) ;
#443 = ORIENTED_EDGE ( 'NONE', *, *, #83, .T. ) ;
#444 = EDGE_CURVE ( 'NONE', #345, #304, #10, .T. ) ;
#445 = DIRECTION ( 'NONE',  ( -1.000000000000000000, -3.430248998882066418E-15, -6.982962677688096079E-15 ) ) ;
#446 = CIRCLE ( 'NONE', #238, 25.00000000000000000 ) ;
#447 = ORIENTED_EDGE ( 'NONE', *, *, #215, .T. ) ;
#448 = CARTESIAN_POINT ( 'NONE',  ( -2.941652048589203443E-28, 8.575622497214418240E-14, 4.546921632661209358E-26 ) ) ;
#449 = VERTEX_POINT ( 'NONE', #173 ) ;
#450 = DIRECTION ( 'NONE',  ( 1.000000000000000000, 0.000000000000000000, 0.000000000000000000 ) ) ;
#451 = CARTESIAN_POINT ( 'NONE',  ( -10.85215055985110766, 5.943571742409243797, 22.52251699278190245 ) ) ;
#452 = ORIENTED_EDGE ( 'NONE', *, *, #35, .T. ) ;
#453 = PRODUCT_CONTEXT ( 'NONE', #219, 'mechanical' ) ;
#454 = CARTESIAN_POINT ( 'NONE',  ( -11.76290598202787763, 4.317766985921992706, -22.06092635450855965 ) ) ;
#455 = CARTESIAN_POINT ( 'NONE',  ( 13.14329927628796213, 2.688880506890444444, 21.27564410828165364 ) ) ;
#456 = VECTOR ( 'NONE', #622, 1000.000000000000000 ) ;
#457 = CARTESIAN_POINT ( 'NONE',  ( -9.999999999999882760, 9.228463485005162781, -22.91287847477447670 ) ) ;
#458 = DIRECTION ( 'NONE',  ( 3.430248998885768937E-15, -1.000000000000000000, -5.302147609853589328E-13 ) ) ;
#459 = CARTESIAN_POINT ( 'NONE',  ( 0.000000000000000000, 0.000000000000000000, 0.000000000000000000 ) ) ;
#460 = CARTESIAN_POINT ( 'NONE',  ( -10.00000000000018652, 100.0000000000121219, -22.91287847472624506 ) ) ;
#461 = ORIENTED_EDGE ( 'NONE', *, *, #504, .F. ) ;
#462 = EDGE_CURVE ( 'NONE', #307, #332, #271, .T. ) ;
#463 = DIRECTION ( 'NONE',  ( -1.000000000000000000, -3.430248998882066418E-15, -6.982962677688094501E-15 ) ) ;
#464 = EDGE_CURVE ( 'NONE', #293, #449, #109, .T. ) ;
#465 = CARTESIAN_POINT ( 'NONE',  ( -10.08812750137389358, 8.470289305220259024, -22.87501038206577775 ) ) ;
#466 = CARTESIAN_POINT ( 'NONE',  ( 19.54022503649309073, -8.168379167505824333E-12, 15.61303328467587725 ) ) ;
#467 = DIRECTION ( 'NONE',  ( -1.000000000000000000, -3.430248998882066812E-15, -6.982962677688095290E-15 ) ) ;
#468 = CARTESIAN_POINT ( 'NONE',  ( 0.000000000000000000, 0.000000000000000000, 0.000000000000000000 ) ) ;
#469 = ORIENTED_EDGE ( 'NONE', *, *, #122, .T. ) ;
#470 = CARTESIAN_POINT ( 'NONE',  ( 15.02800557802906134, 1.317946459849779206, -19.98204773229010200 ) ) ;
#471 = AXIS2_PLACEMENT_3D ( 'NONE', #369, #315, #565 ) ;
#472 = EDGE_CURVE ( 'NONE', #345, #270, #330, .T. ) ;
#473 = FACE_OUTER_BOUND ( 'NONE', #353, .T. ) ;
#474 = DIRECTION ( 'NONE',  ( -6.982962677686276966E-15, -5.302147609853589328E-13, 1.000000000000000000 ) ) ;
#475 = CARTESIAN_POINT ( 'NONE',  ( 10.85215055985106503, 5.943571742433201521, -22.52251699277560348 ) ) ;
#476 = ADVANCED_FACE ( 'NONE', ( #562 ), #517, .T. ) ;
#477 = CARTESIAN_POINT ( 'NONE',  ( 9.999999999999825917, 50.00000000000003553, 2.658056767604482521E-11 ) ) ;
#478 = SURFACE_SIDE_STYLE ('',( #538 ) ) ;
#479 = CARTESIAN_POINT ( 'NONE',  ( 10.00000000000015810, 1.218304887398044823E-11, -22.91287847477912720 ) ) ;
#480 = ORIENTED_EDGE ( 'NONE', *, *, #83, .F. ) ;
#481 = CARTESIAN_POINT ( 'NONE',  ( 9.999999999999825917, 50.00000000000003553, 2.658056767604482521E-11 ) ) ;
#482 = CARTESIAN_POINT ( 'NONE',  ( 11.96765633126002726, 4.032485674217097582, -21.95089266264937322 ) ) ;
#483 = DIRECTION ( 'NONE',  ( 1.000000000000000000, -3.700497202585190066E-27, 6.982962677686276177E-15 ) ) ;
#484 = VERTEX_POINT ( 'NONE', #77 ) ;
#485 = LINE ( 'NONE', #134, #633 ) ;
#486 = CARTESIAN_POINT ( 'NONE',  ( 25.00000000000000000, 1.715124499502341546E-13, -1.121383458703319055E-11 ) ) ;
#487 = VERTEX_POINT ( 'NONE', #523 ) ;
#488 = DIRECTION ( 'NONE',  ( -1.000000000000000000, -3.430248998882066418E-15, -6.982962677688096079E-15 ) ) ;
#489 = AXIS2_PLACEMENT_3D ( 'NONE', #459, #169, #463 ) ;
#490 = ADVANCED_FACE ( 'NONE', ( #72 ), #126, .F. ) ;
#491 = CARTESIAN_POINT ( 'NONE',  ( 19.99999999999999645, 1.114830924637134117E-13, 1.396592535537846313E-13 ) ) ;
#492 = ORIENTED_EDGE ( 'NONE', *, *, #335, .T. ) ;
#493 = DIRECTION ( 'NONE',  ( -1.000000000000000000, -3.430248998882066812E-15, -6.982962677688095290E-15 ) ) ;
#494 =( GEOMETRIC_REPRESENTATION_CONTEXT ( 3 ) GLOBAL_UNCERTAINTY_ASSIGNED_CONTEXT ( ( #73 ) ) GLOBAL_UNIT_ASSIGNED_CONTEXT ( ( #432, #436, #228 ) ) REPRESENTATION_CONTEXT ( 'NONE', 'WORKASPACE' ) );
#495 = CARTESIAN_POINT ( 'NONE',  ( -10.45272255270431039, 7.001223567824320426, 22.71035499990171047 ) ) ;
#496 = EDGE_CURVE ( 'NONE', #545, #76, #550, .T. ) ;
#497 = ORIENTED_EDGE ( 'NONE', *, *, #303, .F. ) ;
#498 = DIRECTION ( 'NONE',  ( 6.982962677686276177E-15, 5.302147609853589328E-13, -1.000000000000000000 ) ) ;
#499 = ORIENTED_EDGE ( 'NONE', *, *, #55, .F. ) ;
#500 = FACE_OUTER_BOUND ( 'NONE', #586, .T. ) ;
#501 = ORIENTED_EDGE ( 'NONE', *, *, #444, .F. ) ;
#502 = CARTESIAN_POINT ( 'NONE',  ( 3.399632828907085781E-13, -100.0000000000000000, -5.302147609853589409E-11 ) ) ;
#503 = ORIENTED_EDGE ( 'NONE', *, *, #334, .T. ) ;
#504 = EDGE_CURVE ( 'NONE', #332, #519, #290, .T. ) ;
#505 = CIRCLE ( 'NONE', #361, 25.00000000000000000 ) ;
#506 = CARTESIAN_POINT ( 'NONE',  ( -25.00000000000000000, -53.34936490538902376, -2.846119482897369991E-11 ) ) ;
#507 = CARTESIAN_POINT ( 'NONE',  ( 13.93689095809865819, 2.040388702303459478, 20.75723747140220965 ) ) ;
#508 = LINE ( 'NONE', #64, #159 ) ;
#509 = VERTEX_POINT ( 'NONE', #579 ) ;
#510 = DIRECTION ( 'NONE',  ( -1.000000000000000000, -3.430248998882066418E-15, -6.982962677688095290E-15 ) ) ;
#511 = CARTESIAN_POINT ( 'NONE',  ( -13.93689095809867240, 2.040388702325379278, -20.75723747140004605 ) ) ;
#512 = CARTESIAN_POINT ( 'NONE',  ( 10.34914623737121531, 7.352863913185490929, 22.75751032678300589 ) ) ;
#513 = EDGE_CURVE ( 'NONE', #509, #593, #406, .T. ) ;
#514 = CARTESIAN_POINT ( 'NONE',  ( 14.20546664220695376, 1.843357717857438294, -20.57467106829576764 ) ) ;
#515 = DIRECTION ( 'NONE',  ( -3.430248998885768937E-15, 1.000000000000000000, 5.302147609853589328E-13 ) ) ;
#516 = DIRECTION ( 'NONE',  ( -6.982962677686276177E-15, -5.302147609853589328E-13, 1.000000000000000000 ) ) ;
#517 = PLANE ( 'NONE',  #190 ) ;
#518 = DIRECTION ( 'NONE',  ( -1.000000000000000000, -3.430248998882066418E-15, -6.982962677688096079E-15 ) ) ;
#519 = VERTEX_POINT ( 'NONE', #235 ) ;
#520 = FACE_OUTER_BOUND ( 'NONE', #631, .T. ) ;
#521 = DIRECTION ( 'NONE',  ( 3.430248998885768937E-15, -1.000000000000000000, -5.302147609853589328E-13 ) ) ;
#522 =( BOUNDED_SURFACE ( )  B_SPLINE_SURFACE ( 3, 3, ( 
 ( #180, #224, #34, #234 ),
 ( #431, #189, #280, #617 ),
 ( #341, #188, #128, #571 ),
 ( #385, #574, #336, #227 ) ),
 .UNSPECIFIED., .F., .F., .T. ) 
 B_SPLINE_SURFACE_WITH_KNOTS ( ( 4, 4 ),
 ( 4, 4 ),
 ( 0.000000000000000000, 1.000000000000000000 ),
 ( 0.000000000000000000, 1.000000000000000000 ),
 .UNSPECIFIED. ) 
 GEOMETRIC_REPRESENTATION_ITEM ( )  RATIONAL_B_SPLINE_SURFACE ( (
 ( 1.000000000000000000, 0.3333333333331080506, 0.3333333333331080506, 1.000000000000000000),
 ( 0.5058793634016781615, 0.1686264544671120802, 0.1686264544671120802, 0.5058793634016781615),
 ( 0.5058793634016781615, 0.1686264544671120802, 0.1686264544671120802, 0.5058793634016781615),
 ( 1.000000000000000000, 0.3333333333331080506, 0.3333333333331080506, 1.000000000000000000) ) ) 
 REPRESENTATION_ITEM ( '' )  SURFACE ( )  );
#523 = CARTESIAN_POINT ( 'NONE',  ( -9.999999999999877431, 10.00000000001215739, -22.91287847477396511 ) ) ;
#524 = CARTESIAN_POINT ( 'NONE',  ( 10.34494073580764528, 7.368769650764044776, -22.75941639119416848 ) ) ;
#525 = CARTESIAN_POINT ( 'NONE',  ( 9.999999999999815259, 100.0000000000121787, -22.91287847472610295 ) ) ;
#526 = ORIENTED_EDGE ( 'NONE', *, *, #4, .T. ) ;
#527 = CARTESIAN_POINT ( 'NONE',  ( 19.99999999999989342, -7.798860209830603217E-12, 15.00000000000014921 ) ) ;
#528 = MANIFOLD_SOLID_BREP ( 'Body-Move/Copy1', #625 ) ;
#529 = LINE ( 'NONE', #479, #89 ) ;
#530 = ORIENTED_EDGE ( 'NONE', *, *, #547, .F. ) ;
#531 = DIRECTION ( 'NONE',  ( -3.430248998885768937E-15, 1.000000000000000000, 5.302147609853589328E-13 ) ) ;
#532 = CARTESIAN_POINT ( 'NONE',  ( 11.17802233047739158, 5.276604019685756874, -22.36257499133110827 ) ) ;
#533 = CARTESIAN_POINT ( 'NONE',  ( 9.999999999999774403, 65.00000000000002842, 3.446579643424707547E-11 ) ) ;
#534 = CARTESIAN_POINT ( 'NONE',  ( -20.00000000000000000, -2.572686749156924505E-14, -1.396592535537391677E-13 ) ) ;
#535 = CARTESIAN_POINT ( 'NONE',  ( 9.999999999999811706, 9.228463484980927944, 22.91287847478425732 ) ) ;
#536 = CARTESIAN_POINT ( 'NONE',  ( 9.999999999999879208, 35.00000000000003553, 1.862734626126444142E-11 ) ) ;
#537 = CARTESIAN_POINT ( 'NONE',  ( -63.64665149901228602, -100.0000000000002274, -5.346591829051332069E-11 ) ) ;
#538 = SURFACE_STYLE_FILL_AREA ( #47 ) ;
#539 = ADVANCED_FACE ( 'NONE', ( #388 ), #295, .F. ) ;
#540 = CARTESIAN_POINT ( 'NONE',  ( -10.00000000000042277, 9.999999999987853272, 22.91287847478443140 ) ) ;
#541 = ORIENTED_EDGE ( 'NONE', *, *, #170, .F. ) ;
#542 = CARTESIAN_POINT ( 'NONE',  ( -16.42524151128013443, 0.6433936681881883279, 18.86156530485223826 ) ) ;
#543 = VERTEX_POINT ( 'NONE', #338 ) ;
#544 = DIRECTION ( 'NONE',  ( -1.000000000000000000, -3.430248998882066418E-15, -6.982962677688096079E-15 ) ) ;
#545 = VERTEX_POINT ( 'NONE', #536 ) ;
#546 = CARTESIAN_POINT ( 'NONE',  ( -10.00000000000041744, 9.229794349995156466, 22.91287847478402639 ) ) ;
#547 = EDGE_CURVE ( 'NONE', #65, #307, #628, .T. ) ;
#548 = ORIENTED_EDGE ( 'NONE', *, *, #444, .T. ) ;
#549 = CARTESIAN_POINT ( 'NONE',  ( 80.11961706396034799, -69.26102778014164585, -3.615393517108132896E-11 ) ) ;
#550 = CIRCLE ( 'NONE', #600, 15.00000000000000000 ) ;
#551 = ORIENTED_EDGE ( 'NONE', *, *, #35, .F. ) ;
#552 = PRODUCT_DEFINITION_FORMATION_WITH_SPECIFIED_SOURCE ( 'ANY', '', #161, .NOT_KNOWN. ) ;
#553 = CARTESIAN_POINT ( 'NONE',  ( -16.42080910447875297, 0.6576188820615526121, -18.85442750627057507 ) ) ;
#554 = CARTESIAN_POINT ( 'NONE',  ( 11.36471361680196779, 4.943388588432259034, 22.26867111368279950 ) ) ;
#555 = ADVANCED_FACE ( 'NONE', ( #40, #587 ), #148, .F. ) ;
#556 = EDGE_CURVE ( 'NONE', #509, #484, #485, .T. ) ;
#557 = CARTESIAN_POINT ( 'NONE',  ( -10.45757799522161768, 6.986080464580131988, -22.70811802771870447 ) ) ;
#558 = ORIENTED_EDGE ( 'NONE', *, *, #97, .F. ) ;
#559 = CARTESIAN_POINT ( 'NONE',  ( 20.00000000000009948, 8.107582619730174058E-12, -14.99999999999986677 ) ) ;
#560 = CARTESIAN_POINT ( 'NONE',  ( -18.04628363363716304, 0.1794251298229816716, -17.31761082042026700 ) ) ;
#561 = EDGE_LOOP ( 'NONE', ( #405, #259, #3, #394 ) ) ;
#562 = FACE_OUTER_BOUND ( 'NONE', #248, .T. ) ;
#563 = CARTESIAN_POINT ( 'NONE',  ( -10.71099896338722957, 6.277636715061992057, -22.58968930935709452 ) ) ;
#564 = ORIENTED_EDGE ( 'NONE', *, *, #122, .F. ) ;
#565 = DIRECTION ( 'NONE',  ( 3.469446951953614189E-15, -1.000000000000000000, -5.302147609853588319E-13 ) ) ;
#566 = DIRECTION ( 'NONE',  ( 3.469446951953614189E-15, -1.000000000000000000, -5.302147609853588319E-13 ) ) ;
#567 = VECTOR ( 'NONE', #365, 1000.000000000000000 ) ;
#568 = CARTESIAN_POINT ( 'NONE',  ( -80.11961706395985061, -69.26102778014217165, -3.728269158575654021E-11 ) ) ;
#569 = VECTOR ( 'NONE', #435, 1000.000000000000000 ) ;
#570 = CARTESIAN_POINT ( 'NONE',  ( 10.08781882418747244, 8.475915185653496664, -22.87512283139447433 ) ) ;
#571 = CARTESIAN_POINT ( 'NONE',  ( -63.64665149901228602, -100.0000000000002132, -5.348150722412024090E-11 ) ) ;
#572 = CARTESIAN_POINT ( 'NONE',  ( -1.470826024294601721E-28, 4.287811248607209120E-14, 2.273460816330604679E-26 ) ) ;
#573 = AXIS2_PLACEMENT_3D ( 'NONE', #386, #95, #283 ) ;
#574 = CARTESIAN_POINT ( 'NONE',  ( 3.399632828906834355E-13, -100.0000000000000142, -5.301535286454016698E-11 ) ) ;
#575 = CARTESIAN_POINT ( 'NONE',  ( 9.999999999999495515, 99.99999999998789235, 22.91287847483229356 ) ) ;
#576 = EDGE_CURVE ( 'NONE', #391, #282, #505, .T. ) ;
#577 = DIRECTION ( 'NONE',  ( 6.982962677686276177E-15, 5.302147609853589328E-13, -1.000000000000000000 ) ) ;
#578 = ORIENTED_EDGE ( 'NONE', *, *, #135, .F. ) ;
#579 = CARTESIAN_POINT ( 'NONE',  ( 10.00000000000015454, 1.226880509895259235E-11, -22.91287847477913076 ) ) ;
#580 = VECTOR ( 'NONE', #458, 1000.000000000000000 ) ;
#581 = CARTESIAN_POINT ( 'NONE',  ( 13.13841407584997611, 2.693292854272810288, -21.27870237958982713 ) ) ;
#582 = LINE ( 'NONE', #525, #129 ) ;
#583 = ORIENTED_EDGE ( 'NONE', *, *, #618, .T. ) ;
#584 = DIRECTION ( 'NONE',  ( 3.469446951953614189E-15, -1.000000000000000000, -5.302147609853588319E-13 ) ) ;
#585 = CARTESIAN_POINT ( 'NONE',  ( 25.00000000000035527, -53.34936490538885323, -2.113678448344538167E-11 ) ) ;
#586 = EDGE_LOOP ( 'NONE', ( #202, #501, #21 ) ) ;
#587 = FACE_OUTER_BOUND ( 'NONE', #121, .T. ) ;
#588 = LINE ( 'NONE', #491, #328 ) ;
#589 = ORIENTED_EDGE ( 'NONE', *, *, #303, .T. ) ;
#590 = CARTESIAN_POINT ( 'NONE',  ( -15.02800557802907200, 1.317946459828483574, 19.98204773229150177 ) ) ;
#591 = VERTEX_POINT ( 'NONE', #527 ) ;
#592 = FACE_OUTER_BOUND ( 'NONE', #561, .T. ) ;
#593 = VERTEX_POINT ( 'NONE', #85 ) ;
#594 = ORIENTED_EDGE ( 'NONE', *, *, #272, .T. ) ;
#595 = AXIS2_PLACEMENT_3D ( 'NONE', #468, #401, #606 ) ;
#596 = CARTESIAN_POINT ( 'NONE',  ( 1.830016055579019811E-13, -53.34936490538893850, -2.828662076203149318E-11 ) ) ;
#597 = CIRCLE ( 'NONE', #26, 25.00000000000000000 ) ;
#598 = ORIENTED_EDGE ( 'NONE', *, *, #4, .F. ) ;
#599 = CARTESIAN_POINT ( 'NONE',  ( -9.999999999999852562, 1.220020011897495104E-11, -22.91287847477926576 ) ) ;
#600 = AXIS2_PLACEMENT_3D ( 'NONE', #481, #493, #50 ) ;
#601 = LINE ( 'NONE', #374, #580 ) ;
#602 = ADVANCED_FACE ( 'NONE', ( #278 ), #140, .T. ) ;
#603 = CARTESIAN_POINT ( 'NONE',  ( -15.03353059810909720, 1.314814719918499186, -19.97787803032703025 ) ) ;
#604 = CARTESIAN_POINT ( 'NONE',  ( 11.18332432234072193, 5.266692239083009319, 22.35992858664127780 ) ) ;
#605 = CARTESIAN_POINT ( 'NONE',  ( 18.03830236948248000, 0.1809303059838589800, -17.32601321129823191 ) ) ;
#606 = DIRECTION ( 'NONE',  ( -1.000000000000000000, -3.430248998882066418E-15, -6.982962677688094501E-15 ) ) ;
#607 = EDGE_LOOP ( 'NONE', ( #541, #153 ) ) ;
#608 = DIRECTION ( 'NONE',  ( -3.430248998885768937E-15, 1.000000000000000000, 5.302147609853589328E-13 ) ) ;
#609 = CARTESIAN_POINT ( 'NONE',  ( -19.05668644110019017, 0.03150673619372559853, -16.19909563521398255 ) ) ;
#610 = ORIENTED_EDGE ( 'NONE', *, *, #576, .T. ) ;
#611 = CARTESIAN_POINT ( 'NONE',  ( 16.42524151128012733, 0.6433936682083012393, -18.86156530485155614 ) ) ;
#612 = CARTESIAN_POINT ( 'NONE',  ( 16.69979692697526374, 0.5559106141175351734, 18.60793477367439408 ) ) ;
#613 = CARTESIAN_POINT ( 'NONE',  ( 14.75202264291550058, 1.481422430186116079, -20.18638650264922063 ) ) ;
#614 = DIRECTION ( 'NONE',  ( 3.469446951953614189E-15, -1.000000000000000000, -5.302147609853588319E-13 ) ) ;
#615 = VERTEX_POINT ( 'NONE', #621 ) ;
#616 = CYLINDRICAL_SURFACE ( 'NONE', #489, 25.00000000000009237 ) ;
#617 = CARTESIAN_POINT ( 'NONE',  ( -80.11961706395985061, -69.26102778014220007, -3.730231523227379111E-11 ) ) ;
#618 = EDGE_CURVE ( 'NONE', #282, #29, #143, .T. ) ;
#619 = CARTESIAN_POINT ( 'NONE',  ( 9.999999999999825917, 50.00000000000003553, 2.658056767604482521E-11 ) ) ;
#620 = VERTEX_POINT ( 'NONE', #43 ) ;
#621 = CARTESIAN_POINT ( 'NONE',  ( 9.999999999999495515, 99.99999999998789235, 22.91287847483229356 ) ) ;
#622 = DIRECTION ( 'NONE',  ( -3.430248998885768937E-15, 1.000000000000000000, 5.302147609853589328E-13 ) ) ;
#623 = VECTOR ( 'NONE', #269, 1000.000000000000000 ) ;
#624 = CARTESIAN_POINT ( 'NONE',  ( -2.941652048589203443E-28, 8.575622497214418240E-14, 4.546921632661209358E-26 ) ) ;
#625 = CLOSED_SHELL ( 'NONE', ( #131, #490, #396, #602, #424, #476, #312, #244, #151, #555, #78, #430, #539, #195, #114, #260, #16 ) ) ;
#626 = FACE_OUTER_BOUND ( 'NONE', #411, .T. ) ;
#627 = ORIENTED_EDGE ( 'NONE', *, *, #395, .F. ) ;
#628 = LINE ( 'NONE', #243, #297 ) ;
#629 = VECTOR ( 'NONE', #474, 1000.000000000000000 ) ;
#630 = DIRECTION ( 'NONE',  ( 1.000000000000000000, 3.430248998882066812E-15, 6.982962677688095290E-15 ) ) ;
#631 = EDGE_LOOP ( 'NONE', ( #526, #415, #558, #230 ) ) ;
#632 = DIRECTION ( 'NONE',  ( 1.000000000000000000, 3.430248998882066812E-15, 6.982962677688095290E-15 ) ) ;
#633 = VECTOR ( 'NONE', #93, 1000.000000000000000 ) ;
#634 = CARTESIAN_POINT ( 'NONE',  ( -12.64297035140198311, 3.188744395116541064, 21.57362388879569437 ) ) ;
#635 = ORIENTED_EDGE ( 'NONE', *, *, #232, .T. ) ;
ENDSEC;
END-ISO-10303-21;
