ISO-10303-21;
HEADER;
FILE_DESCRIPTION (( 'STEP AP214' ),
    '1' );
FILE_NAME ('N310_base.STEP',
    '2026-01-16T01:29:30',
    ( '' ),
    ( '' ),
    'SwSTEP 2.0',
    'SolidWorks 2024',
    '' );
FILE_SCHEMA (( 'AUTOMOTIVE_DESIGN' ));
ENDSEC;

DATA;
#1 = ORIENTED_EDGE ( 'NONE', *, *, #123, .T. ) ;
#2 = PRODUCT ( 'N310_base', 'N310_base', '', ( #785 ) ) ;
#3 = VERTEX_POINT ( 'NONE', #509 ) ;
#4 = CARTESIAN_POINT ( 'NONE',  ( 140.0071426749361194, 89.99999999999982947, 0.000000000000000000 ) ) ;
#5 = EDGE_CURVE ( 'NONE', #641, #653, #347, .T. ) ;
#6 = VERTEX_POINT ( 'NONE', #186 ) ;
#7 = CIRCLE ( 'NONE', #477, 48.98979485566387382 ) ;
#8 = CARTESIAN_POINT ( 'NONE',  ( 91.01734781927225981, 89.99999999999965894, -140.0071426749363752 ) ) ;
#9 = VERTEX_POINT ( 'NONE', #723 ) ;
#10 = CARTESIAN_POINT ( 'NONE',  ( 46.08288663855254441, 75.75911627794917536, -140.0071426749364036 ) ) ;
#11 = CARTESIAN_POINT ( 'NONE',  ( -60.00000000000000000, 90.00000000000000000, -200.0071426749364036 ) ) ;
#12 = CARTESIAN_POINT ( 'NONE',  ( 140.0071426749362331, 56.69872981077799778, -25.00000000000020250 ) ) ;
#13 = ORIENTED_EDGE ( 'NONE', *, *, #450, .F. ) ;
#14 = FACE_OUTER_BOUND ( 'NONE', #757, .T. ) ;
#15 = EDGE_CURVE ( 'NONE', #250, #671, #170, .T. ) ;
#16 = CARTESIAN_POINT ( 'NONE',  ( 115.0071426749363184, -8.575622497214449794E-14, -140.0071426749364036 ) ) ;
#17 = CARTESIAN_POINT ( 'NONE',  ( 0.000000000000000000, 0.000000000000000000, -0.000000000000000000 ) ) ;
#18 = ORIENTED_EDGE ( 'NONE', *, *, #755, .F. ) ;
#19 = CARTESIAN_POINT ( 'NONE',  ( -4.743342835909491104E-13, 150.0000000000000284, 8.040613248383229614E-14 ) ) ;
#20 = CARTESIAN_POINT ( 'NONE',  ( 105.8072713629709654, 150.0000000000001137, 68.39974262392981075 ) ) ;
#21 = CIRCLE ( 'NONE', #339, 48.98979485566385961 ) ;
#22 = FACE_OUTER_BOUND ( 'NONE', #590, .T. ) ;
#23 = VERTEX_POINT ( 'NONE', #655 ) ;
#24 = CARTESIAN_POINT ( 'NONE',  ( 34.19987131196450036, 150.0000000000003411, -140.0071426749364321 ) ) ;
#25 = DIRECTION ( 'NONE',  ( 3.430248998885766964E-15, -1.000000000000000000, -0.000000000000000000 ) ) ;
#26 = CARTESIAN_POINT ( 'NONE',  ( 0.000000000000000000, 90.00000000000000000, 0.000000000000000000 ) ) ;
#27 = VERTEX_POINT ( 'NONE', #845 ) ;
#28 = CARTESIAN_POINT ( 'NONE',  ( -34.19987131196551644, 150.0000000000001137, 68.39974262393006654 ) ) ;
#29 = DIRECTION ( 'NONE',  ( 3.430248998885766964E-15, -1.000000000000000000, -0.000000000000000000 ) ) ;
#30 = CARTESIAN_POINT ( 'NONE',  ( 37.58728181243894539, 63.96600035355538694, 0.000000000000000000 ) ) ;
#31 = ADVANCED_FACE ( 'NONE', ( #118, #790 ), #374, .T. ) ;
#32 = ORIENTED_EDGE ( 'NONE', *, *, #370, .T. ) ;
#33 = CARTESIAN_POINT ( 'NONE',  ( -80.11961706396054694, 88.52205556028390276, 9.811823258629058709E-15 ) ) ;
#34 =( BOUNDED_SURFACE ( )  B_SPLINE_SURFACE ( 3, 3, ( 
 ( #8, #735, #207, #77 ),
 ( #401, #657, #130, #793 ),
 ( #259, #611, #143, #69 ),
 ( #203, #138, #604, #267 ) ),
 .UNSPECIFIED., .F., .F., .F. ) 
 B_SPLINE_SURFACE_WITH_KNOTS ( ( 4, 4 ),
 ( 4, 4 ),
 ( 0.000000000000000000, 1.000000000000000000 ),
 ( 0.000000000000000000, 1.000000000000000000 ),
 .UNSPECIFIED. ) 
 GEOMETRIC_REPRESENTATION_ITEM ( )  RATIONAL_B_SPLINE_SURFACE ( (
 ( 1.000000000000000000, 0.3333333333333334259, 0.3333333333333334259, 1.000000000000000000),
 ( 0.7549703546891147754, 0.2516567848963716658, 0.2516567848963716658, 0.7549703546891147754),
 ( 0.7549703546891147754, 0.2516567848963716658, 0.2516567848963716658, 0.7549703546891147754),
 ( 1.000000000000000000, 0.3333333333333334259, 0.3333333333333334259, 1.000000000000000000) ) ) 
 REPRESENTATION_ITEM ( '' )  SURFACE ( )  );
#35 = CARTESIAN_POINT ( 'NONE',  ( 59.88752561097589933, 88.52205556028386013, 20.23209145298410405 ) ) ;
#36 = CARTESIAN_POINT ( 'NONE',  ( 203.6537941739486541, 150.0000000000006537, -127.2933029980255952 ) ) ;
#37 = CIRCLE ( 'NONE', #462, 25.00000000000018829 ) ;
#38 = ORIENTED_EDGE ( 'NONE', *, *, #261, .F. ) ;
#39 = EDGE_CURVE ( 'NONE', #692, #93, #522, .T. ) ;
#40 = CARTESIAN_POINT ( 'NONE',  ( 200.0071426749364036, 90.00000000000000000, 0.000000000000000000 ) ) ;
#41 = DIRECTION ( 'NONE',  ( 1.000000000000000000, 3.399349888776275110E-15, 0.000000000000000000 ) ) ;
#42 =( BOUNDED_CURVE ( )  B_SPLINE_CURVE ( 3, ( #204, #474, #466, #797 ),
 .UNSPECIFIED., .F., .F. ) 
 B_SPLINE_CURVE_WITH_KNOTS ( ( 4, 4 ),
 ( 0.5235987755982991487, 1.369438406004569009 ),
 .UNSPECIFIED. ) 
 CURVE ( )  GEOMETRIC_REPRESENTATION_ITEM ( )  RATIONAL_B_SPLINE_CURVE ( ( 1.000000000000000000, 0.9412629764324013104, 0.9412629764324013104, 1.000000000000000000 ) ) 
 REPRESENTATION_ITEM ( '' )  );
#43 = CARTESIAN_POINT ( 'NONE',  ( 63.64665149901223629, 150.0000000000006253, -12.71383967691094874 ) ) ;
#44 = VERTEX_POINT ( 'NONE', #397 ) ;
#45 = CARTESIAN_POINT ( 'NONE',  ( -1.830019601715519057E-13, 56.69872981077799068, -115.0071426749361905 ) ) ;
#46 = EDGE_CURVE ( 'NONE', #44, #122, #131, .T. ) ;
#47 = DIRECTION ( 'NONE',  ( 1.000000000000000000, 3.430248998885767359E-15, 0.000000000000000000 ) ) ;
#48 = CARTESIAN_POINT ( 'NONE',  ( 0.000000000000000000, 90.00000000000000000, -200.0071426749364036 ) ) ;
#49 = VERTEX_POINT ( 'NONE', #667 ) ;
#50 = CARTESIAN_POINT ( 'NONE',  ( 188.9969375305999790, 90.00000000000000000, 0.000000000000000000 ) ) ;
#51 = DIRECTION ( 'NONE',  ( -3.430248998885766964E-15, 1.000000000000000000, 0.000000000000000000 ) ) ;
#52 = APPLICATION_CONTEXT ( 'automotive_design' ) ;
#53 = VERTEX_POINT ( 'NONE', #675 ) ;
#54 = CARTESIAN_POINT ( 'NONE',  ( -3.087224098997184659E-13, 89.99999999999982947, 0.000000000000000000 ) ) ;
#55 = ORIENTED_EDGE ( 'NONE', *, *, #687, .T. ) ;
#56 = DIRECTION ( 'NONE',  ( 0.000000000000000000, 0.000000000000000000, -1.000000000000000000 ) ) ;
#57 = FACE_OUTER_BOUND ( 'NONE', #780, .T. ) ;
#58 = ORIENTED_EDGE ( 'NONE', *, *, #478, .F. ) ;
#59 = EDGE_CURVE ( 'NONE', #23, #3, #601, .T. ) ;
#60 = CARTESIAN_POINT ( 'NONE',  ( 140.0071426749361763, 63.96600035355530167, -102.4198608624972024 ) ) ;
#61 = ORIENTED_EDGE ( 'NONE', *, *, #649, .T. ) ;
#62 = VECTOR ( 'NONE', #782, 1000.000000000000000 ) ;
#63 = DIRECTION ( 'NONE',  ( -1.000000000000000000, 0.000000000000000000, 0.000000000000000000 ) ) ;
#64 = EDGE_LOOP ( 'NONE', ( #70, #55, #607 ) ) ;
#65 =( BOUNDED_CURVE ( )  B_SPLINE_CURVE ( 3, ( #709, #67, #713, #117 ),
 .UNSPECIFIED., .F., .F. ) 
 B_SPLINE_CURVE_WITH_KNOTS ( ( 4, 4 ),
 ( 1.369438406004565678, 3.141592653589802886 ),
 .UNSPECIFIED. ) 
 CURVE ( )  GEOMETRIC_REPRESENTATION_ITEM ( )  RATIONAL_B_SPLINE_CURVE ( ( 1.000000000000000000, 0.7549703546891146644, 0.7549703546891146644, 1.000000000000000000 ) ) 
 REPRESENTATION_ITEM ( '' )  );
#66 = EDGE_CURVE ( 'NONE', #110, #171, #346, .T. ) ;
#67 = CARTESIAN_POINT ( 'NONE',  ( -55.82976911805738496, 123.5088935932647161, 6.837174804756422382E-15 ) ) ;
#68 = ORIENTED_EDGE ( 'NONE', *, *, #519, .F. ) ;
#69 = CARTESIAN_POINT ( 'NONE',  ( 174.2070139869008472, 150.0000000000003695, -140.0071426749364321 ) ) ;
#70 = ORIENTED_EDGE ( 'NONE', *, *, #803, .F. ) ;
#71 = VECTOR ( 'NONE', #405, 1000.000000000000000 ) ;
#72 = CARTESIAN_POINT ( 'NONE',  ( 105.8072713629709796, 150.0000000000001137, -1.099951753455939412E-14 ) ) ;
#73 = DIRECTION ( 'NONE',  ( -3.430248998885766964E-15, 1.000000000000000000, 0.000000000000000000 ) ) ;
#74 = EDGE_CURVE ( 'NONE', #122, #319, #799, .T. ) ;
#75 = ORIENTED_EDGE ( 'NONE', *, *, #514, .F. ) ;
#76 = DIRECTION ( 'NONE',  ( 3.430248998885766964E-15, -1.000000000000000000, -0.000000000000000000 ) ) ;
#77 = CARTESIAN_POINT ( 'NONE',  ( 188.9969375305999790, 90.00000000000000000, -140.0071426749364321 ) ) ;
#78 = CARTESIAN_POINT ( 'NONE',  ( 140.0071426749364036, 89.99999999999982947, -48.98979485566387382 ) ) ;
#79 = ORIENTED_EDGE ( 'NONE', *, *, #519, .T. ) ;
#80 = CARTESIAN_POINT ( 'NONE',  ( 34.19987131196452168, 150.0000000000003126, 68.39974262393005233 ) ) ;
#81 = CARTESIAN_POINT ( 'NONE',  ( 2.941652048589201649E-28, -8.575622497214418240E-14, 0.000000000000000000 ) ) ;
#82 = CARTESIAN_POINT ( 'NONE',  ( 1.761363141590430000E-14, 0.000000000000000000, 60.00000000000001421 ) ) ;
#83 = ORIENTED_EDGE ( 'NONE', *, *, #514, .T. ) ;
#84 = CARTESIAN_POINT ( 'NONE',  ( 140.0071426749364036, 90.00000000000000000, 0.000000000000000000 ) ) ;
#85 = FACE_OUTER_BOUND ( 'NONE', #738, .T. ) ;
#86 = AXIS2_PLACEMENT_3D ( 'NONE', #193, #135, #424 ) ;
#87 = AXIS2_PLACEMENT_3D ( 'NONE', #479, #29, #685 ) ;
#88 = ORIENTED_EDGE ( 'NONE', *, *, #829, .F. ) ;
#89 = DIRECTION ( 'NONE',  ( 3.430248998885766964E-15, -1.000000000000000000, -0.000000000000000000 ) ) ;
#90 = CARTESIAN_POINT ( 'NONE',  ( -3.087224098997184659E-13, 89.99999999999982947, 0.000000000000000000 ) ) ;
#91 = EDGE_CURVE ( 'NONE', #145, #250, #841, .T. ) ;
#92 = DIRECTION ( 'NONE',  ( 0.000000000000000000, 1.000000000000000000, -0.000000000000000000 ) ) ;
#93 = VERTEX_POINT ( 'NONE', #78 ) ;
#94 = CYLINDRICAL_SURFACE ( 'NONE', #451, 25.00000000000010658 ) ;
#95 = CARTESIAN_POINT ( 'NONE',  ( 140.0071426749364036, 0.000000000000000000, -0.000000000000000000 ) ) ;
#96 = CARTESIAN_POINT ( 'NONE',  ( -63.64665149901325236, 150.0000000000001421, -140.0071426749364036 ) ) ;
#97 = ORIENTED_EDGE ( 'NONE', *, *, #239, .T. ) ;
#98 = DIRECTION ( 'NONE',  ( 3.430248998885766964E-15, -1.000000000000000000, -0.000000000000000000 ) ) ;
#99 = CARTESIAN_POINT ( 'NONE',  ( 93.92425603638318421, 75.75911627794903325, 5.643525961737422321E-15 ) ) ;
#100 = CARTESIAN_POINT ( 'NONE',  ( 115.0071426749360057, 56.69872981077790541, 3.061616997868408681E-15 ) ) ;
#101 = AXIS2_PLACEMENT_3D ( 'NONE', #81, #25, #280 ) ;
#102 = ORIENTED_EDGE ( 'NONE', *, *, #195, .T. ) ;
#103 = EDGE_CURVE ( 'NONE', #167, #93, #406, .T. ) ;
#104 = CARTESIAN_POINT ( 'NONE',  ( 24.99999999999999289, 56.69872981077807594, -6.123233995736811839E-15 ) ) ;
#105 = LINE ( 'NONE', #95, #833 ) ;
#106 = CARTESIAN_POINT ( 'NONE',  ( 140.0071426749358636, 150.0000000000000284, 4.461409515645181978E-30 ) ) ;
#107 = ORIENTED_EDGE ( 'NONE', *, *, #629, .T. ) ;
#108 = DIRECTION ( 'NONE',  ( 0.000000000000000000, 0.000000000000000000, -1.000000000000000000 ) ) ;
#109 = LINE ( 'NONE', #48, #661 ) ;
#110 = VERTEX_POINT ( 'NONE', #728 ) ;
#111 = FACE_OUTER_BOUND ( 'NONE', #210, .T. ) ;
#112 = PLANE ( 'NONE',  #460 ) ;
#113 = ORIENTED_EDGE ( 'NONE', *, *, #454, .F. ) ;
#114 =( NAMED_UNIT ( * ) PLANE_ANGLE_UNIT ( ) SI_UNIT ( $, .RADIAN. ) );
#115 = EDGE_CURVE ( 'NONE', #319, #6, #589, .T. ) ;
#116 = ORIENTED_EDGE ( 'NONE', *, *, #478, .T. ) ;
#117 = CARTESIAN_POINT ( 'NONE',  ( -5.145373498328651196E-13, 150.0000000000000284, 0.000000000000000000 ) ) ;
#118 = FACE_BOUND ( 'NONE', #420, .T. ) ;
#119 = CARTESIAN_POINT ( 'NONE',  ( 188.9969375305999790, 90.00000000000000000, 0.000000000000000000 ) ) ;
#120 = DIRECTION ( 'NONE',  ( 1.000000000000000000, 3.399349888776274321E-15, 0.000000000000000000 ) ) ;
#121 = ORIENTED_EDGE ( 'NONE', *, *, #575, .T. ) ;
#122 = VERTEX_POINT ( 'NONE', #538 ) ;
#123 = EDGE_CURVE ( 'NONE', #316, #163, #563, .T. ) ;
#124 = CIRCLE ( 'NONE', #381, 48.98979485566387382 ) ;
#125 = CARTESIAN_POINT ( 'NONE',  ( 140.0071426749364036, 0.000000000000000000, -115.0071426749363184 ) ) ;
#126 = ORIENTED_EDGE ( 'NONE', *, *, #46, .T. ) ;
#127 = LINE ( 'NONE', #315, #520 ) ;
#128 = DIRECTION ( 'NONE',  ( 0.000000000000000000, 0.000000000000000000, 1.000000000000000000 ) ) ;
#129 = EDGE_LOOP ( 'NONE', ( #393, #365, #587, #306 ) ) ;
#130 = CARTESIAN_POINT ( 'NONE',  ( 195.8369117929928791, 123.5088935932650713, -251.6666809110503209 ) ) ;
#131 = LINE ( 'NONE', #742, #579 ) ;
#132 = CARTESIAN_POINT ( 'NONE',  ( -1.990831866683184305E-13, 56.69872981077799068, -25.00000000000019540 ) ) ;
#133 = VECTOR ( 'NONE', #76, 1000.000000000000000 ) ;
#134 = CARTESIAN_POINT ( 'NONE',  ( 115.0071426749364178, 0.000000000000000000, -4.559895136582994922E-14 ) ) ;
#135 = DIRECTION ( 'NONE',  ( 3.430248998885766964E-15, -1.000000000000000000, -0.000000000000000000 ) ) ;
#136 = ORIENTED_EDGE ( 'NONE', *, *, #334, .F. ) ;
#137 = CARTESIAN_POINT ( 'NONE',  ( 48.98979485566355407, 89.99999999999982947, -140.0071426749364036 ) ) ;
#138 = CARTESIAN_POINT ( 'NONE',  ( 140.0071426749358068, 150.0000000000000284, -140.0071426749364321 ) ) ;
#139 = CARTESIAN_POINT ( 'NONE',  ( 140.0071426749364036, 89.99999999999982947, -48.98979485566387382 ) ) ;
#140 = EDGE_LOOP ( 'NONE', ( #13, #597, #822, #214, #245, #1 ) ) ;
#141 = CARTESIAN_POINT ( 'NONE',  ( 55.82976911805662468, 123.5088935932649719, -251.6666809110504914 ) ) ;
#142 =( BOUNDED_SURFACE ( )  B_SPLINE_SURFACE ( 3, 3, ( 
 ( #160, #620, #409, #223 ),
 ( #292, #429, #35, #484 ),
 ( #217, #156, #493, #354 ),
 ( #820, #564, #695, #625 ) ),
 .UNSPECIFIED., .F., .F., .F. ) 
 B_SPLINE_SURFACE_WITH_KNOTS ( ( 4, 4 ),
 ( 4, 4 ),
 ( 0.000000000000000000, 1.000000000000000000 ),
 ( 0.000000000000000000, 1.000000000000000000 ),
 .UNSPECIFIED. ) 
 GEOMETRIC_REPRESENTATION_ITEM ( )  RATIONAL_B_SPLINE_SURFACE ( (
 ( 1.000000000000000000, 0.3333333333333334259, 0.3333333333333334259, 1.000000000000000000),
 ( 0.5058793634016773844, 0.1686264544672258503, 0.1686264544672258503, 0.5058793634016773844),
 ( 0.5058793634016773844, 0.1686264544672258503, 0.1686264544672258503, 0.5058793634016773844),
 ( 1.000000000000000000, 0.3333333333333334259, 0.3333333333333334259, 1.000000000000000000) ) ) 
 REPRESENTATION_ITEM ( '' )  SURFACE ( )  );
#143 = CARTESIAN_POINT ( 'NONE',  ( 174.2070139869007903, 150.0000000000003411, -208.4068852988663707 ) ) ;
#144 = DIRECTION ( 'NONE',  ( 0.000000000000000000, 0.000000000000000000, 1.000000000000000000 ) ) ;
#145 = VERTEX_POINT ( 'NONE', #523 ) ;
#146 = CYLINDRICAL_SURFACE ( 'NONE', #651, 25.00000000000009948 ) ;
#147 = EDGE_CURVE ( 'NONE', #775, #500, #264, .T. ) ;
#148 = CARTESIAN_POINT ( 'NONE',  ( -34.19987131196543118, 150.0000000000001421, -140.0071426749364036 ) ) ;
#149 = LINE ( 'NONE', #82, #637 ) ;
#150 = ORIENTED_EDGE ( 'NONE', *, *, #679, .T. ) ;
#151 = CARTESIAN_POINT ( 'NONE',  ( -4.743342835909490094E-13, 150.0000000000000284, -140.0071426749364889 ) ) ;
#152 = DIRECTION ( 'NONE',  ( 0.000000000000000000, 0.000000000000000000, 1.000000000000000000 ) ) ;
#153 = CARTESIAN_POINT ( 'NONE',  ( -4.743342835909490094E-13, 150.0000000000000284, -140.0071426749363184 ) ) ;
#154 = ORIENTED_EDGE ( 'NONE', *, *, #458, .F. ) ;
#155 = LINE ( 'NONE', #557, #806 ) ;
#156 = CARTESIAN_POINT ( 'NONE',  ( 203.6537941739486826, 150.0000000000006537, -12.71383967691084038 ) ) ;
#157 = CARTESIAN_POINT ( 'NONE',  ( 25.00000000000000711, 56.69872981077808305, -90.00714267493603415 ) ) ;
#158 = EDGE_CURVE ( 'NONE', #561, #27, #42, .T. ) ;
#159 = ORIENTED_EDGE ( 'NONE', *, *, #726, .F. ) ;
#160 = CARTESIAN_POINT ( 'NONE',  ( 165.0071426749364036, 56.69872981077806173, -140.0071426749364036 ) ) ;
#161 = CARTESIAN_POINT ( 'NONE',  ( 203.6537941739487394, 150.0000000000006537, -1.558893360694261574E-14 ) ) ;
#162 = VECTOR ( 'NONE', #296, 1000.000000000000000 ) ;
#163 = VERTEX_POINT ( 'NONE', #527 ) ;
#164 = DIRECTION ( 'NONE',  ( -1.000000000000000000, 0.000000000000000000, 0.000000000000000000 ) ) ;
#165 = CARTESIAN_POINT ( 'NONE',  ( -48.98979485566413672, 89.99999999999951683, 3.667545776944882306E-15 ) ) ;
#166 = FILL_AREA_STYLE ('',( #433 ) ) ;
#167 = VERTEX_POINT ( 'NONE', #459 ) ;
#168 = CARTESIAN_POINT ( 'NONE',  ( -25.00000000000038369, 56.69872981077789831, 3.061616997868405920E-15 ) ) ;
#169 = CARTESIAN_POINT ( 'NONE',  ( 115.0071426749363184, -8.575622497214449794E-14, -4.559895136582989873E-14 ) ) ;
#170 =( BOUNDED_CURVE ( )  B_SPLINE_CURVE ( 3, ( #711, #371, #715, #384 ),
 .UNSPECIFIED., .F., .F. ) 
 B_SPLINE_CURVE_WITH_KNOTS ( ( 4, 4 ),
 ( 4.913746901175020554, 5.759586531581287083 ),
 .UNSPECIFIED. ) 
 CURVE ( )  GEOMETRIC_REPRESENTATION_ITEM ( )  RATIONAL_B_SPLINE_CURVE ( ( 1.000000000000000000, 0.9412629764324018655, 0.9412629764324018655, 1.000000000000000000 ) ) 
 REPRESENTATION_ITEM ( '' )  );
#171 = VERTEX_POINT ( 'NONE', #736 ) ;
#172 = DIRECTION ( 'NONE',  ( 1.000000000000000000, 3.430248998885765781E-15, 0.000000000000000000 ) ) ;
#173 = EDGE_CURVE ( 'NONE', #253, #500, #149, .T. ) ;
#174 = PLANE ( 'NONE',  #747 ) ;
#175 = ORIENTED_EDGE ( 'NONE', *, *, #551, .F. ) ;
#176 = SHAPE_DEFINITION_REPRESENTATION ( #443, #464 ) ;
#177 = LINE ( 'NONE', #573, #62 ) ;
#178 = ORIENTED_EDGE ( 'NONE', *, *, #773, .F. ) ;
#179 = CARTESIAN_POINT ( 'NONE',  ( -60.00000000000000000, 90.00000000000000000, 0.000000000000000000 ) ) ;
#180 = ORIENTED_EDGE ( 'NONE', *, *, #703, .T. ) ;
#181 =( BOUNDED_CURVE ( )  B_SPLINE_CURVE ( 3, ( #716, #591, #445, #791 ),
 .UNSPECIFIED., .F., .F. ) 
 B_SPLINE_CURVE_WITH_KNOTS ( ( 4, 4 ),
 ( 1.369438406004568787, 3.141592653589802886 ),
 .UNSPECIFIED. ) 
 CURVE ( )  GEOMETRIC_REPRESENTATION_ITEM ( )  RATIONAL_B_SPLINE_CURVE ( ( 1.000000000000000000, 0.7549703546891155526, 0.7549703546891155526, 1.000000000000000000 ) ) 
 REPRESENTATION_ITEM ( '' )  );
#182 = ADVANCED_FACE ( 'NONE', ( #682, #22 ), #733, .T. ) ;
#183 = EDGE_LOOP ( 'NONE', ( #290, #411, #528, #743 ) ) ;
#184 = CARTESIAN_POINT ( 'NONE',  ( 0.000000000000000000, 0.000000000000000000, 0.000000000000000000 ) ) ;
#185 = CARTESIAN_POINT ( 'NONE',  ( 91.01734781927220297, 89.99999999999967315, 97.97958971132779027 ) ) ;
#186 = CARTESIAN_POINT ( 'NONE',  ( -5.145373498328651196E-13, 150.0000000000000284, 0.000000000000000000 ) ) ;
#187 = CARTESIAN_POINT ( 'NONE',  ( 174.2070139869008187, 150.0000000000003695, -140.0071426749364036 ) ) ;
#188 = VECTOR ( 'NONE', #213, 1000.000000000000000 ) ;
#189 = CIRCLE ( 'NONE', #394, 24.99999999999999289 ) ;
#190 = CARTESIAN_POINT ( 'NONE',  ( 188.9969375306000074, 90.00000000000001421, 97.97958971132783290 ) ) ;
#191 = DIRECTION ( 'NONE',  ( 1.000000000000000000, 3.430248998885766964E-15, 0.000000000000000000 ) ) ;
#192 = LINE ( 'NONE', #16, #288 ) ;
#193 = CARTESIAN_POINT ( 'NONE',  ( 140.0071426749364036, -8.575622497214418240E-14, -140.0071426749364036 ) ) ;
#194 = LINE ( 'NONE', #603, #133 ) ;
#195 = EDGE_CURVE ( 'NONE', #328, #784, #761, .T. ) ;
#196 = CARTESIAN_POINT ( 'NONE',  ( 140.0071426749358920, 150.0000000000000284, -6.162975822039154730E-30 ) ) ;
#197 = CARTESIAN_POINT ( 'NONE',  ( 140.0071426749364036, 90.00000000000000000, 0.000000000000000000 ) ) ;
#198 = ORIENTED_EDGE ( 'NONE', *, *, #91, .F. ) ;
#199 = CARTESIAN_POINT ( 'NONE',  ( 55.82976911805662468, 123.5088935932649719, -2.213583319755483099E-14 ) ) ;
#200 = COLOUR_RGB ( '',0.7921568627450980005, 0.8196078431372548767, 0.9333333333333333481 ) ;
#201 = AXIS2_PLACEMENT_3D ( 'NONE', #808, #592, #595 ) ;
#202 =( BOUNDED_SURFACE ( )  B_SPLINE_SURFACE ( 3, 3, ( 
 ( #350, #157, #631, #821 ),
 ( #696, #284, #691, #704 ),
 ( #700, #43, #565, #96 ),
 ( #626, #153, #293, #560 ) ),
 .UNSPECIFIED., .F., .F., .F. ) 
 B_SPLINE_SURFACE_WITH_KNOTS ( ( 4, 4 ),
 ( 4, 4 ),
 ( 0.000000000000000000, 1.000000000000000000 ),
 ( 0.000000000000000000, 1.000000000000000000 ),
 .UNSPECIFIED. ) 
 GEOMETRIC_REPRESENTATION_ITEM ( )  RATIONAL_B_SPLINE_SURFACE ( (
 ( 1.000000000000000000, 0.3333333333333334259, 0.3333333333333334259, 1.000000000000000000),
 ( 0.5058793634016776064, 0.1686264544672259058, 0.1686264544672259058, 0.5058793634016776064),
 ( 0.5058793634016776064, 0.1686264544672259058, 0.1686264544672259058, 0.5058793634016776064),
 ( 1.000000000000000000, 0.3333333333333334259, 0.3333333333333334259, 1.000000000000000000) ) ) 
 REPRESENTATION_ITEM ( '' )  SURFACE ( )  );
#203 = CARTESIAN_POINT ( 'NONE',  ( 140.0071426749358636, 150.0000000000000284, -140.0071426749363752 ) ) ;
#204 = CARTESIAN_POINT ( 'NONE',  ( 115.0071426749360342, 56.69872981077791252, -140.0071426749363752 ) ) ;
#205 = ORIENTED_EDGE ( 'NONE', *, *, #351, .F. ) ;
#206 = CARTESIAN_POINT ( 'NONE',  ( 0.000000000000000000, 0.000000000000000000, -115.0071426749363184 ) ) ;
#207 = CARTESIAN_POINT ( 'NONE',  ( 188.9969375305999222, 90.00000000000000000, -237.9867323862641513 ) ) ;
#208 = CARTESIAN_POINT ( 'NONE',  ( 200.0071426749364036, 90.00000000000000000, 59.99999999999995737 ) ) ;
#209 = EDGE_CURVE ( 'NONE', #319, #618, #233, .T. ) ;
#210 = EDGE_LOOP ( 'NONE', ( #313, #453, #159, #434 ) ) ;
#211 = CARTESIAN_POINT ( 'NONE',  ( -4.743342835909489084E-13, 150.0000000000000284, -140.0071426749364036 ) ) ;
#212 = PLANE ( 'NONE',  #707 ) ;
#213 = DIRECTION ( 'NONE',  ( 1.000000000000000000, -0.000000000000000000, 0.000000000000000000 ) ) ;
#214 = ORIENTED_EDGE ( 'NONE', *, *, #629, .F. ) ;
#215 = ADVANCED_FACE ( 'NONE', ( #825 ), #289, .T. ) ;
#216 = CARTESIAN_POINT ( 'NONE',  ( -55.82976911805747022, 123.5088935932645740, 4.179609948561874323E-15 ) ) ;
#217 = CARTESIAN_POINT ( 'NONE',  ( 203.6537941739486826, 150.0000000000006253, -140.0071426749364321 ) ) ;
#218 = VECTOR ( 'NONE', #531, 1000.000000000000000 ) ;
#219 = DIRECTION ( 'NONE',  ( 1.000000000000000000, -0.000000000000000000, 0.000000000000000000 ) ) ;
#220 = ORIENTED_EDGE ( 'NONE', *, *, #39, .F. ) ;
#221 = CARTESIAN_POINT ( 'NONE',  ( 80.11961706395996430, 88.52205556028444278, -1.962364651725811742E-14 ) ) ;
#222 = ADVANCED_FACE ( 'NONE', ( #634 ), #112, .T. ) ;
#223 = CARTESIAN_POINT ( 'NONE',  ( 115.0071426749360626, 56.69872981077788410, -140.0071426749363752 ) ) ;
#224 = CARTESIAN_POINT ( 'NONE',  ( 115.0071426749360057, 56.69872981077791252, -50.00000000000042633 ) ) ;
#225 = PRODUCT_DEFINITION_CONTEXT ( 'detailed design', #540, 'design' ) ;
#226 = ORIENTED_EDGE ( 'NONE', *, *, #74, .F. ) ;
#227 = CARTESIAN_POINT ( 'NONE',  ( 140.0071426749362331, 56.69872981077799068, -140.0071426749364036 ) ) ;
#228 = CARTESIAN_POINT ( 'NONE',  ( 200.0071426749364036, 90.00000000000000000, -200.0071426749364036 ) ) ;
#229 = CARTESIAN_POINT ( 'NONE',  ( 59.88752561097585669, 88.52205556028391698, 9.811823258629060287E-15 ) ) ;
#230 = EDGE_LOOP ( 'NONE', ( #265, #647, #486, #574, #588, #503 ) ) ;
#231 = CARTESIAN_POINT ( 'NONE',  ( 200.0071426749364036, 90.00000000000000000, 0.000000000000000000 ) ) ;
#232 = CARTESIAN_POINT ( 'NONE',  ( 48.98979485566357539, 89.99999999999984368, 97.97958971132770500 ) ) ;
#233 = LINE ( 'NONE', #570, #244 ) ;
#234 =( BOUNDED_SURFACE ( )  B_SPLINE_SURFACE ( 3, 3, ( 
 ( #283, #232, #814, #165 ),
 ( #199, #395, #535, #216 ),
 ( #547, #80, #28, #744 ),
 ( #271, #19, #329, #807 ) ),
 .UNSPECIFIED., .F., .F., .F. ) 
 B_SPLINE_SURFACE_WITH_KNOTS ( ( 4, 4 ),
 ( 4, 4 ),
 ( 0.000000000000000000, 1.000000000000000000 ),
 ( 0.000000000000000000, 1.000000000000000000 ),
 .UNSPECIFIED. ) 
 GEOMETRIC_REPRESENTATION_ITEM ( )  RATIONAL_B_SPLINE_SURFACE ( (
 ( 1.000000000000000000, 0.3333333333333332038, 0.3333333333333332038, 1.000000000000000000),
 ( 0.7549703546891139982, 0.2516567848963712217, 0.2516567848963712217, 0.7549703546891139982),
 ( 0.7549703546891139982, 0.2516567848963712217, 0.2516567848963712217, 0.7549703546891139982),
 ( 1.000000000000000000, 0.3333333333333332038, 0.3333333333333332038, 1.000000000000000000) ) ) 
 REPRESENTATION_ITEM ( '' )  SURFACE ( )  );
#235 = ORIENTED_EDGE ( 'NONE', *, *, #843, .T. ) ;
#236 = VECTOR ( 'NONE', #353, 1000.000000000000000 ) ;
#237 = DIRECTION ( 'NONE',  ( 1.000000000000000000, 0.000000000000000000, 0.000000000000000000 ) ) ;
#238 = EDGE_LOOP ( 'NONE', ( #440, #154, #461, #337 ) ) ;
#239 = EDGE_CURVE ( 'NONE', #496, #9, #109, .T. ) ;
#240 = CARTESIAN_POINT ( 'NONE',  ( 200.0071426749364036, 90.00000000000000000, 59.99999999999995737 ) ) ;
#241 = ORIENTED_EDGE ( 'NONE', *, *, #578, .T. ) ;
#242 = LINE ( 'NONE', #179, #640 ) ;
#243 = CARTESIAN_POINT ( 'NONE',  ( 195.8369117929929928, 123.5088935932650571, 111.6595382361140736 ) ) ;
#244 = VECTOR ( 'NONE', #297, 1000.000000000000000 ) ;
#245 = ORIENTED_EDGE ( 'NONE', *, *, #622, .F. ) ;
#246 = CIRCLE ( 'NONE', #569, 25.00000000000019540 ) ;
#247 = ADVANCED_FACE ( 'NONE', ( #756 ), #202, .T. ) ;
#248 = DIRECTION ( 'NONE',  ( 1.000000000000000000, 0.000000000000000000, -2.935605235984049311E-16 ) ) ;
#249 = DIRECTION ( 'NONE',  ( 3.430248998885766964E-15, -1.000000000000000000, -0.000000000000000000 ) ) ;
#250 = VERTEX_POINT ( 'NONE', #549 ) ;
#251 = DIRECTION ( 'NONE',  ( 3.430248998885766964E-15, -1.000000000000000000, -0.000000000000000000 ) ) ;
#252 = ADVANCED_FACE ( 'NONE', ( #499 ), #377, .T. ) ;
#253 = VERTEX_POINT ( 'NONE', #828 ) ;
#254 =( NAMED_UNIT ( * ) SI_UNIT ( $, .STERADIAN. ) SOLID_ANGLE_UNIT ( ) );
#255 = ORIENTED_EDGE ( 'NONE', *, *, #209, .T. ) ;
#256 = LINE ( 'NONE', #643, #272 ) ;
#257 = CARTESIAN_POINT ( 'NONE',  ( 1.470826024294600825E-28, -4.287811248607209120E-14, 0.000000000000000000 ) ) ;
#258 = CIRCLE ( 'NONE', #660, 48.98979485566385961 ) ;
#259 = CARTESIAN_POINT ( 'NONE',  ( 105.8072713629709796, 150.0000000000001137, -140.0071426749363752 ) ) ;
#260 = LINE ( 'NONE', #169, #788 ) ;
#261 = EDGE_CURVE ( 'NONE', #444, #771, #260, .T. ) ;
#262 = CARTESIAN_POINT ( 'NONE',  ( 48.98979485566353276, 89.99999999999984368, -237.9867323862640376 ) ) ;
#263 = DIRECTION ( 'NONE',  ( 1.000000000000000000, 0.000000000000000000, -3.964879946171148480E-16 ) ) ;
#264 = LINE ( 'NONE', #208, #532 ) ;
#265 = ORIENTED_EDGE ( 'NONE', *, *, #622, .T. ) ;
#266 = DIRECTION ( 'NONE',  ( 1.000000000000000000, 3.330669073875443589E-15, 0.000000000000000000 ) ) ;
#267 = CARTESIAN_POINT ( 'NONE',  ( 140.0071426749359773, 150.0000000000000284, -140.0071426749364036 ) ) ;
#268 = CARTESIAN_POINT ( 'NONE',  ( 48.98979485566355407, 89.99999999999982947, -1.942386551902589152E-14 ) ) ;
#269 = ORIENTED_EDGE ( 'NONE', *, *, #239, .F. ) ;
#270 =( BOUNDED_SURFACE ( )  B_SPLINE_SURFACE ( 3, 3, ( 
 ( #168, #619, #693, #104 ),
 ( #33, #286, #552, #221 ),
 ( #483, #753, #689, #846 ),
 ( #375, #510, #781, #712 ) ),
 .UNSPECIFIED., .F., .F., .F. ) 
 B_SPLINE_SURFACE_WITH_KNOTS ( ( 4, 4 ),
 ( 4, 4 ),
 ( 0.000000000000000000, 1.000000000000000000 ),
 ( 0.000000000000000000, 1.000000000000000000 ),
 .UNSPECIFIED. ) 
 GEOMETRIC_REPRESENTATION_ITEM ( )  RATIONAL_B_SPLINE_SURFACE ( (
 ( 1.000000000000000000, 0.3333333333333334259, 0.3333333333333334259, 1.000000000000000000),
 ( 0.5058793634016774954, 0.1686264544672258781, 0.1686264544672258781, 0.5058793634016774954),
 ( 0.5058793634016774954, 0.1686264544672258781, 0.1686264544672258781, 0.5058793634016774954),
 ( 1.000000000000000000, 0.3333333333333334259, 0.3333333333333334259, 1.000000000000000000) ) ) 
 REPRESENTATION_ITEM ( '' )  SURFACE ( )  );
#271 = CARTESIAN_POINT ( 'NONE',  ( -4.743342835909489084E-13, 150.0000000000000284, -1.594003311171623049E-29 ) ) ;
#272 = VECTOR ( 'NONE', #248, 1000.000000000000000 ) ;
#273 = AXIS2_PLACEMENT_3D ( 'NONE', #324, #282, #472 ) ;
#274 = DIRECTION ( 'NONE',  ( 3.430248998885766964E-15, -1.000000000000000000, -0.000000000000000000 ) ) ;
#275 = MANIFOLD_SOLID_BREP ( 'Sketch-Pattern1', #553 ) ;
#276 = EDGE_CURVE ( 'NONE', #627, #328, #721, .T. ) ;
#277 = CARTESIAN_POINT ( 'NONE',  ( 25.00000000000000000, 56.69872981077807594, 0.000000000000000000 ) ) ;
#278 = VERTEX_POINT ( 'NONE', #765 ) ;
#279 = CARTESIAN_POINT ( 'NONE',  ( 34.19987131196449326, 150.0000000000003126, -208.4068852988664275 ) ) ;
#280 = DIRECTION ( 'NONE',  ( 1.000000000000000000, 3.430248998885767359E-15, 0.000000000000000000 ) ) ;
#281 = ORIENTED_EDGE ( 'NONE', *, *, #616, .F. ) ;
#282 = DIRECTION ( 'NONE',  ( -3.430248998885766964E-15, 1.000000000000000000, 0.000000000000000000 ) ) ;
#283 = CARTESIAN_POINT ( 'NONE',  ( 48.98979485566352565, 89.99999999999984368, -1.942386551902587890E-14 ) ) ;
#284 = CARTESIAN_POINT ( 'NONE',  ( 80.11961706395992167, 88.52205556028444278, 20.23209145298401523 ) ) ;
#285 = ORIENTED_EDGE ( 'NONE', *, *, #310, .F. ) ;
#286 = CARTESIAN_POINT ( 'NONE',  ( -80.11961706396057536, 88.52205556028388855, -160.2392341279204402 ) ) ;
#287 = FACE_OUTER_BOUND ( 'NONE', #798, .T. ) ;
#288 = VECTOR ( 'NONE', #521, 1000.000000000000000 ) ;
#289 = PLANE ( 'NONE',  #323 ) ;
#290 = ORIENTED_EDGE ( 'NONE', *, *, #173, .F. ) ;
#291 = PLANE ( 'NONE',  #304 ) ;
#292 = CARTESIAN_POINT ( 'NONE',  ( 220.1267597388963964, 88.52205556028441436, -140.0071426749364321 ) ) ;
#293 = CARTESIAN_POINT ( 'NONE',  ( -5.547404160747812298E-13, 150.0000000000000284, -140.0071426749363184 ) ) ;
#294 = ORIENTED_EDGE ( 'NONE', *, *, #465, .T. ) ;
#295 = DIRECTION ( 'NONE',  ( 3.430248998885766964E-15, -1.000000000000000000, -0.000000000000000000 ) ) ;
#296 = DIRECTION ( 'NONE',  ( -0.000000000000000000, -1.000000000000000000, -0.000000000000000000 ) ) ;
#297 = DIRECTION ( 'NONE',  ( 1.000000000000000000, 0.000000000000000000, -3.964879946171148480E-16 ) ) ;
#298 = ORIENTED_EDGE ( 'NONE', *, *, #301, .F. ) ;
#299 = LINE ( 'NONE', #40, #326 ) ;
#300 = DIRECTION ( 'NONE',  ( 0.000000000000000000, 0.000000000000000000, -1.000000000000000000 ) ) ;
#301 = EDGE_CURVE ( 'NONE', #316, #145, #258, .T. ) ;
#302 = ORIENTED_EDGE ( 'NONE', *, *, #276, .T. ) ;
#303 = CARTESIAN_POINT ( 'NONE',  ( 25.00000000000000000, 0.000000000000000000, -140.0071426749364036 ) ) ;
#304 = AXIS2_PLACEMENT_3D ( 'NONE', #762, #108, #567 ) ;
#305 = CARTESIAN_POINT ( 'NONE',  ( 140.0071426749361478, 75.75911627794910430, -93.92425603638353948 ) ) ;
#306 = ORIENTED_EDGE ( 'NONE', *, *, #737, .T. ) ;
#307 = DIRECTION ( 'NONE',  ( 1.000000000000000000, 0.000000000000000000, 0.000000000000000000 ) ) ;
#308 = CARTESIAN_POINT ( 'NONE',  ( 25.00000000000000000, 56.69872981077807594, -140.0071426749364036 ) ) ;
#309 = APPLICATION_PROTOCOL_DEFINITION ( 'draft international standard', 'automotive_design', 1998, #540 ) ;
#310 = EDGE_CURVE ( 'NONE', #496, #110, #774, .T. ) ;
#311 =( LENGTH_UNIT ( ) NAMED_UNIT ( * ) SI_UNIT ( .MILLI., .METRE. ) );
#312 = MECHANICAL_DESIGN_GEOMETRIC_PRESENTATION_REPRESENTATION (  '', ( #606 ), #593 ) ;
#313 = ORIENTED_EDGE ( 'NONE', *, *, #819, .T. ) ;
#314 = AXIS2_PLACEMENT_3D ( 'NONE', #554, #422, #754 ) ;
#315 = CARTESIAN_POINT ( 'NONE',  ( 200.0071426749364036, 0.000000000000000000, 0.000000000000000000 ) ) ;
#316 = VERTEX_POINT ( 'NONE', #369 ) ;
#317 =( BOUNDED_CURVE ( )  B_SPLINE_CURVE ( 3, ( #137, #10, #456, #408 ),
 .UNSPECIFIED., .F., .F. ) 
 B_SPLINE_CURVE_WITH_KNOTS ( ( 4, 4 ),
 ( 4.913746901175024107, 5.759586531581287083 ),
 .UNSPECIFIED. ) 
 CURVE ( )  GEOMETRIC_REPRESENTATION_ITEM ( )  RATIONAL_B_SPLINE_CURVE ( ( 1.000000000000000000, 0.9412629764324021986, 0.9412629764324021986, 1.000000000000000000 ) ) 
 REPRESENTATION_ITEM ( '' )  );
#318 = CYLINDRICAL_SURFACE ( 'NONE', #379, 25.00000000000009948 ) ;
#319 = VERTEX_POINT ( 'NONE', #513 ) ;
#320 = PLANE ( 'NONE',  #201 ) ;
#321 = ADVANCED_FACE ( 'NONE', ( #57 ), #174, .T. ) ;
#322 = CARTESIAN_POINT ( 'NONE',  ( -1.990831866683184305E-13, 56.69872981077799068, -25.00000000000019540 ) ) ;
#323 = AXIS2_PLACEMENT_3D ( 'NONE', #555, #237, #300 ) ;
#324 = CARTESIAN_POINT ( 'NONE',  ( 140.0071426749361194, 89.99999999999982947, -140.0071426749364036 ) ) ;
#325 = DIRECTION ( 'NONE',  ( 1.000000000000000000, 3.330669073875444378E-15, 0.000000000000000000 ) ) ;
#326 = VECTOR ( 'NONE', #823, 1000.000000000000000 ) ;
#327 = CARTESIAN_POINT ( 'NONE',  ( 34.19987131196448615, 150.0000000000003411, 0.000000000000000000 ) ) ;
#328 = VERTEX_POINT ( 'NONE', #387 ) ;
#329 = CARTESIAN_POINT ( 'NONE',  ( -5.547404160747812298E-13, 150.0000000000000284, 8.040613248383229614E-14 ) ) ;
#330 = CARTESIAN_POINT ( 'NONE',  ( 174.2070139869008187, 150.0000000000003411, 68.39974262392986759 ) ) ;
#331 = CARTESIAN_POINT ( 'NONE',  ( 46.08288663855254441, 75.75911627794917536, 0.000000000000000000 ) ) ;
#332 = ORIENTED_EDGE ( 'NONE', *, *, #340, .T. ) ;
#333 = CARTESIAN_POINT ( 'NONE',  ( -34.19987131196552355, 150.0000000000001137, -140.0071426749364321 ) ) ;
#334 = EDGE_CURVE ( 'NONE', #167, #627, #708, .T. ) ;
#335 = CARTESIAN_POINT ( 'NONE',  ( 140.0071426749362331, 56.69872981077799068, 0.000000000000000000 ) ) ;
#336 = CARTESIAN_POINT ( 'NONE',  ( 34.19987131196448615, 150.0000000000003411, -140.0071426749364036 ) ) ;
#337 = ORIENTED_EDGE ( 'NONE', *, *, #639, .T. ) ;
#338 = CARTESIAN_POINT ( 'NONE',  ( -55.82976911805747022, 123.5088935932645740, -140.0071426749364321 ) ) ;
#339 = AXIS2_PLACEMENT_3D ( 'NONE', #54, #295, #562 ) ;
#340 = EDGE_CURVE ( 'NONE', #766, #6, #65, .T. ) ;
#341 = CARTESIAN_POINT ( 'NONE',  ( 140.0071426749358920, 150.0000000000000284, -6.162975822039154730E-30 ) ) ;
#342 = CARTESIAN_POINT ( 'NONE',  ( 0.000000000000000000, 0.000000000000000000, -200.0071426749364036 ) ) ;
#343 = ORIENTED_EDGE ( 'NONE', *, *, #679, .F. ) ;
#344 = CARTESIAN_POINT ( 'NONE',  ( 55.82976911805662468, 123.5088935932649719, -140.0071426749364321 ) ) ;
#345 = CARTESIAN_POINT ( 'NONE',  ( 102.4198608624969182, 63.96600035355518088, 4.603114436025329020E-15 ) ) ;
#346 = LINE ( 'NONE', #342, #188 ) ;
#347 =( BOUNDED_CURVE ( )  B_SPLINE_CURVE ( 3, ( #447, #437, #582, #322 ),
 .UNSPECIFIED., .F., .F. ) 
 B_SPLINE_CURVE_WITH_KNOTS ( ( 4, 4 ),
 ( 4.913746901175020554, 5.759586531581287083 ),
 .UNSPECIFIED. ) 
 CURVE ( )  GEOMETRIC_REPRESENTATION_ITEM ( )  RATIONAL_B_SPLINE_CURVE ( ( 1.000000000000000000, 0.9412629764324018655, 0.9412629764324018655, 1.000000000000000000 ) ) 
 REPRESENTATION_ITEM ( '' )  );
#348 = ORIENTED_EDGE ( 'NONE', *, *, #773, .T. ) ;
#349 = DIRECTION ( 'NONE',  ( 1.000000000000000000, 3.430248998885768148E-15, 0.000000000000000000 ) ) ;
#350 = CARTESIAN_POINT ( 'NONE',  ( 25.00000000000000000, 56.69872981077807594, -140.0071426749364036 ) ) ;
#351 = EDGE_CURVE ( 'NONE', #250, #641, #177, .T. ) ;
#352 = EDGE_LOOP ( 'NONE', ( #566, #725, #180, #467, #205, #198, #298, #121, #380, #475, #805, #826 ) ) ;
#353 = DIRECTION ( 'NONE',  ( 3.430248998885766964E-15, -1.000000000000000000, -0.000000000000000000 ) ) ;
#354 = CARTESIAN_POINT ( 'NONE',  ( 76.36049117592314417, 150.0000000000001990, -140.0071426749364036 ) ) ;
#355 = CIRCLE ( 'NONE', #778, 25.00000000000019540 ) ;
#356 = CARTESIAN_POINT ( 'NONE',  ( 165.0071426749364321, 56.69872981077807594, -6.123233995736815783E-15 ) ) ;
#357 = VERTEX_POINT ( 'NONE', #308 ) ;
#358 = CARTESIAN_POINT ( 'NONE',  ( 84.17737355687914658, 123.5088935932647729, -140.0071426749363752 ) ) ;
#359 = CARTESIAN_POINT ( 'NONE',  ( 115.0071426749360342, 56.69872981077791252, -140.0071426749363752 ) ) ;
#360 = CARTESIAN_POINT ( 'NONE',  ( 140.0071426749359489, 150.0000000000000284, -1.110223024625156414E-13 ) ) ;
#361 = ORIENTED_EDGE ( 'NONE', *, *, #703, .F. ) ;
#362 = CARTESIAN_POINT ( 'NONE',  ( 140.0071426749358920, 150.0000000000000284, -140.0071426749364036 ) ) ;
#363 = ADVANCED_FACE ( 'NONE', ( #580 ), #318, .T. ) ;
#364 = CARTESIAN_POINT ( 'NONE',  ( 76.36049117592311575, 150.0000000000002274, -127.2933029980255242 ) ) ;
#365 = ORIENTED_EDGE ( 'NONE', *, *, #195, .F. ) ;
#366 = CARTESIAN_POINT ( 'NONE',  ( 140.0071426749361194, 89.99999999999982947, 0.000000000000000000 ) ) ;
#367 = CARTESIAN_POINT ( 'NONE',  ( 165.0071426749364321, 56.69872981077808305, -50.00000000000042633 ) ) ;
#368 = ORIENTED_EDGE ( 'NONE', *, *, #465, .F. ) ;
#369 = CARTESIAN_POINT ( 'NONE',  ( 48.98979485566355407, 89.99999999999982947, -140.0071426749364036 ) ) ;
#370 = EDGE_CURVE ( 'NONE', #752, #93, #7, .T. ) ;
#371 = CARTESIAN_POINT ( 'NONE',  ( -2.470928772870069753E-13, 75.75911627794910430, -93.92425603638349685 ) ) ;
#372 = CARTESIAN_POINT ( 'NONE',  ( 174.2070139869008187, 150.0000000000003695, 0.000000000000000000 ) ) ;
#373 = CARTESIAN_POINT ( 'NONE',  ( 84.17737355687891920, 123.5088935932646734, 111.6595382361141162 ) ) ;
#374 = PLANE ( 'NONE',  #831 ) ;
#375 = CARTESIAN_POINT ( 'NONE',  ( -5.547404160747812298E-13, 150.0000000000000284, 4.923455638907175646E-30 ) ) ;
#376 = ORIENTED_EDGE ( 'NONE', *, *, #843, .F. ) ;
#377 =( BOUNDED_SURFACE ( )  B_SPLINE_SURFACE ( 3, 3, ( 
 ( #100, #224, #367, #356 ),
 ( #229, #489, #815, #485 ),
 ( #770, #364, #36, #161 ),
 ( #106, #495, #360, #480 ) ),
 .UNSPECIFIED., .F., .F., .F. ) 
 B_SPLINE_SURFACE_WITH_KNOTS ( ( 4, 4 ),
 ( 4, 4 ),
 ( 0.000000000000000000, 1.000000000000000000 ),
 ( 0.000000000000000000, 1.000000000000000000 ),
 .UNSPECIFIED. ) 
 GEOMETRIC_REPRESENTATION_ITEM ( )  RATIONAL_B_SPLINE_SURFACE ( (
 ( 1.000000000000000000, 0.3333333333333334259, 0.3333333333333334259, 1.000000000000000000),
 ( 0.5058793634016774954, 0.1686264544672258781, 0.1686264544672258781, 0.5058793634016774954),
 ( 0.5058793634016774954, 0.1686264544672258781, 0.1686264544672258781, 0.5058793634016774954),
 ( 1.000000000000000000, 0.3333333333333334259, 0.3333333333333334259, 1.000000000000000000) ) ) 
 REPRESENTATION_ITEM ( '' )  SURFACE ( )  );
#378 = CARTESIAN_POINT ( 'NONE',  ( -60.00000000000000000, 90.00000000000000000, -200.0071426749364036 ) ) ;
#379 = AXIS2_PLACEMENT_3D ( 'NONE', #586, #839, #844 ) ;
#380 = ORIENTED_EDGE ( 'NONE', *, *, #558, .F. ) ;
#381 = AXIS2_PLACEMENT_3D ( 'NONE', #366, #417, #768 ) ;
#382 = ORIENTED_EDGE ( 'NONE', *, *, #103, .F. ) ;
#383 = AXIS2_PLACEMENT_3D ( 'NONE', #227, #497, #487 ) ;
#384 = CARTESIAN_POINT ( 'NONE',  ( -1.830019601715519057E-13, 56.69872981077799068, -115.0071426749361905 ) ) ;
#385 = CARTESIAN_POINT ( 'NONE',  ( 115.0071426749364178, 0.000000000000000000, -140.0071426749364036 ) ) ;
#386 = EDGE_CURVE ( 'NONE', #49, #775, #256, .T. ) ;
#387 = CARTESIAN_POINT ( 'NONE',  ( 140.0071426749364036, 0.000000000000000000, -115.0071426749364178 ) ) ;
#388 = ORIENTED_EDGE ( 'NONE', *, *, #5, .F. ) ;
#389 = CARTESIAN_POINT ( 'NONE',  ( -48.98979485566416514, 89.99999999999965894, -140.0071426749364036 ) ) ;
#390 = ADVANCED_FACE ( 'NONE', ( #576 ), #769, .T. ) ;
#391 = CARTESIAN_POINT ( 'NONE',  ( 140.0071426749362047, 63.96600035355529457, -37.58728181243922251 ) ) ;
#392 = AXIS2_PLACEMENT_3D ( 'NONE', #26, #92, #794 ) ;
#393 = ORIENTED_EDGE ( 'NONE', *, *, #439, .F. ) ;
#394 = AXIS2_PLACEMENT_3D ( 'NONE', #636, #98, #349 ) ;
#395 = CARTESIAN_POINT ( 'NONE',  ( 55.82976911805666731, 123.5088935932649576, 111.6595382361141304 ) ) ;
#396 = CARTESIAN_POINT ( 'NONE',  ( 200.0071426749364036, 0.000000000000000000, 59.99999999999995737 ) ) ;
#397 = CARTESIAN_POINT ( 'NONE',  ( 25.00000000000000000, 1.232595164407830946E-29, -9.912199865427873073E-15 ) ) ;
#398 = ADVANCED_FACE ( 'NONE', ( #85 ), #212, .T. ) ;
#399 = ORIENTED_EDGE ( 'NONE', *, *, #386, .T. ) ;
#400 = CARTESIAN_POINT ( 'NONE',  ( 140.0071426749362047, 56.69872981077799778, -115.0071426749362047 ) ) ;
#401 = CARTESIAN_POINT ( 'NONE',  ( 84.17737355687903289, 123.5088935932646876, -140.0071426749363752 ) ) ;
#402 = DIRECTION ( 'NONE',  ( -3.430248998885766964E-15, 1.000000000000000000, 0.000000000000000000 ) ) ;
#403 = ORIENTED_EDGE ( 'NONE', *, *, #639, .F. ) ;
#404 = CARTESIAN_POINT ( 'NONE',  ( -5.547404160747812298E-13, 150.0000000000000284, -140.0071426749364036 ) ) ;
#405 = DIRECTION ( 'NONE',  ( 0.000000000000000000, 0.000000000000000000, -1.000000000000000000 ) ) ;
#406 = LINE ( 'NONE', #197, #218 ) ;
#407 = ORIENTED_EDGE ( 'NONE', *, *, #340, .F. ) ;
#408 = CARTESIAN_POINT ( 'NONE',  ( 25.00000000000000000, 56.69872981077807594, -140.0071426749364036 ) ) ;
#409 = CARTESIAN_POINT ( 'NONE',  ( 115.0071426749361194, 56.69872981077789120, -90.00714267493607679 ) ) ;
#410 = UNCERTAINTY_MEASURE_WITH_UNIT (LENGTH_MEASURE( 1.000000000000000082E-05 ), #706, 'distance_accuracy_value', 'NONE');
#411 = ORIENTED_EDGE ( 'NONE', *, *, #427, .T. ) ;
#412 = DIRECTION ( 'NONE',  ( 1.000000000000000000, 0.000000000000000000, 0.000000000000000000 ) ) ;
#413 = DIRECTION ( 'NONE',  ( 3.430248998885766964E-15, -1.000000000000000000, -0.000000000000000000 ) ) ;
#414 = ADVANCED_FACE ( 'NONE', ( #473 ), #34, .T. ) ;
#415 = SURFACE_STYLE_USAGE ( .BOTH. , #751 ) ;
#416 = VERTEX_POINT ( 'NONE', #530 ) ;
#417 = DIRECTION ( 'NONE',  ( -3.430248998885766964E-15, 1.000000000000000000, 0.000000000000000000 ) ) ;
#418 = CARTESIAN_POINT ( 'NONE',  ( 91.01734781927223139, 89.99999999999982947, -3.608728571223167991E-14 ) ) ;
#419 = CARTESIAN_POINT ( 'NONE',  ( 0.000000000000000000, 90.00000000000000000, -200.0071426749364036 ) ) ;
#420 = EDGE_LOOP ( 'NONE', ( #787, #150, #75, #102, #18, #241, #602, #840 ) ) ;
#421 = CARTESIAN_POINT ( 'NONE',  ( 115.0071426749360199, 56.69872981077791252, 3.061616997868410258E-15 ) ) ;
#422 = DIRECTION ( 'NONE',  ( -3.430248998885766964E-15, 1.000000000000000000, 0.000000000000000000 ) ) ;
#423 = CIRCLE ( 'NONE', #508, 25.00000000000000000 ) ;
#424 = DIRECTION ( 'NONE',  ( 1.000000000000000000, 3.430248998885768148E-15, 0.000000000000000000 ) ) ;
#425 = VECTOR ( 'NONE', #492, 1000.000000000000000 ) ;
#426 = EDGE_LOOP ( 'NONE', ( #705, #348, #376 ) ) ;
#427 = EDGE_CURVE ( 'NONE', #253, #110, #741, .T. ) ;
#428 = LINE ( 'NONE', #818, #236 ) ;
#429 = CARTESIAN_POINT ( 'NONE',  ( 220.1267597388963964, 88.52205556028441436, 20.23209145298413247 ) ) ;
#430 = SURFACE_STYLE_FILL_AREA ( #166 ) ;
#431 = ORIENTED_EDGE ( 'NONE', *, *, #726, .T. ) ;
#432 = CARTESIAN_POINT ( 'NONE',  ( 105.8072713629710506, 150.0000000000001137, -140.0071426749363752 ) ) ;
#433 = FILL_AREA_STYLE_COLOUR ( '', #200 ) ;
#434 = ORIENTED_EDGE ( 'NONE', *, *, #147, .T. ) ;
#435 = FACE_OUTER_BOUND ( 'NONE', #230, .T. ) ;
#436 = CARTESIAN_POINT ( 'NONE',  ( -60.00000000000000000, 90.00000000000000000, 0.000000000000000000 ) ) ;
#437 = CARTESIAN_POINT ( 'NONE',  ( -2.683379217115115259E-13, 75.75911627794910430, -46.08288663855288547 ) ) ;
#438 = CARTESIAN_POINT ( 'NONE',  ( 140.0071426749364036, 89.99999999999982947, -91.01734781927254403 ) ) ;
#439 = EDGE_CURVE ( 'NONE', #784, #561, #192, .T. ) ;
#440 = ORIENTED_EDGE ( 'NONE', *, *, #46, .F. ) ;
#441 = DIRECTION ( 'NONE',  ( 0.000000000000000000, 0.000000000000000000, -1.000000000000000000 ) ) ;
#442 = ORIENTED_EDGE ( 'NONE', *, *, #803, .T. ) ;
#443 = PRODUCT_DEFINITION_SHAPE ( 'NONE', 'NONE',  #537 ) ;
#444 = VERTEX_POINT ( 'NONE', #134 ) ;
#445 = CARTESIAN_POINT ( 'NONE',  ( 105.8072713629710648, 150.0000000000001421, 4.188276293344914765E-15 ) ) ;
#446 = VECTOR ( 'NONE', #144, 1000.000000000000000 ) ;
#447 = CARTESIAN_POINT ( 'NONE',  ( 5.916456789157588541E-28, 89.99999999999982947, -48.98979485566385961 ) ) ;
#448 = CIRCLE ( 'NONE', #273, 48.98979485566387382 ) ;
#449 = CARTESIAN_POINT ( 'NONE',  ( 188.9969375305999790, 90.00000000000000000, -140.0071426749364036 ) ) ;
#450 = EDGE_CURVE ( 'NONE', #145, #163, #652, .T. ) ;
#451 = AXIS2_PLACEMENT_3D ( 'NONE', #772, #628, #172 ) ;
#452 = CARTESIAN_POINT ( 'NONE',  ( 91.01734781927223139, 89.99999999999965894, -1.575631974208101552E-14 ) ) ;
#453 = ORIENTED_EDGE ( 'NONE', *, *, #505, .F. ) ;
#454 = EDGE_CURVE ( 'NONE', #44, #444, #730, .T. ) ;
#455 = CARTESIAN_POINT ( 'NONE',  ( 140.0071426749359205, 150.0000000000000284, 0.000000000000000000 ) ) ;
#456 = CARTESIAN_POINT ( 'NONE',  ( 37.58728181243894539, 63.96600035355539404, -140.0071426749364036 ) ) ;
#457 = CARTESIAN_POINT ( 'NONE',  ( -55.82976911805738496, 123.5088935932647161, -140.0071426749364036 ) ) ;
#458 = EDGE_CURVE ( 'NONE', #3, #44, #842, .T. ) ;
#459 = CARTESIAN_POINT ( 'NONE',  ( 140.0071426749364036, 89.99999999999982947, -91.01734781927254403 ) ) ;
#460 = AXIS2_PLACEMENT_3D ( 'NONE', #419, #638, #834 ) ;
#461 = ORIENTED_EDGE ( 'NONE', *, *, #731, .F. ) ;
#462 = AXIS2_PLACEMENT_3D ( 'NONE', #335, #274, #325 ) ;
#463 = DIRECTION ( 'NONE',  ( 0.000000000000000000, 0.000000000000000000, -1.000000000000000000 ) ) ;
#464 = ADVANCED_BREP_SHAPE_REPRESENTATION ( 'N310_base', ( #275, #610 ), #710 ) ;
#465 = EDGE_CURVE ( 'NONE', #771, #692, #37, .T. ) ;
#466 = CARTESIAN_POINT ( 'NONE',  ( 93.92425603638321263, 75.75911627794903325, -140.0071426749363752 ) ) ;
#467 = ORIENTED_EDGE ( 'NONE', *, *, #551, .T. ) ;
#468 = CARTESIAN_POINT ( 'NONE',  ( 5.916456789157588541E-28, 89.99999999999982947, -48.98979485566385961 ) ) ;
#469 = CARTESIAN_POINT ( 'NONE',  ( 140.0071426749359205, 150.0000000000000284, 5.551115123125786489E-14 ) ) ;
#470 = DIRECTION ( 'NONE',  ( -0.000000000000000000, -1.000000000000000000, -0.000000000000000000 ) ) ;
#471 = ORIENTED_EDGE ( 'NONE', *, *, #662, .F. ) ;
#472 = DIRECTION ( 'NONE',  ( 1.000000000000000000, 3.399349888776274321E-15, 0.000000000000000000 ) ) ;
#473 = FACE_OUTER_BOUND ( 'NONE', #426, .T. ) ;
#474 = CARTESIAN_POINT ( 'NONE',  ( 102.4198608624969609, 63.96600035355519509, -140.0071426749363752 ) ) ;
#475 = ORIENTED_EDGE ( 'NONE', *, *, #649, .F. ) ;
#476 = PLANE ( 'NONE',  #722 ) ;
#477 = AXIS2_PLACEMENT_3D ( 'NONE', #4, #786, #120 ) ;
#478 = EDGE_CURVE ( 'NONE', #49, #253, #536, .T. ) ;
#479 = CARTESIAN_POINT ( 'NONE',  ( 140.0071426749364036, 0.000000000000000000, 0.000000000000000000 ) ) ;
#480 = CARTESIAN_POINT ( 'NONE',  ( 140.0071426749359489, 150.0000000000000284, -9.244463733058732095E-30 ) ) ;
#481 = PRODUCT_DEFINITION_FORMATION_WITH_SPECIFIED_SOURCE ( 'ANY', '', #2, .NOT_KNOWN. ) ;
#482 = ORIENTED_EDGE ( 'NONE', *, *, #334, .T. ) ;
#483 = CARTESIAN_POINT ( 'NONE',  ( -63.64665149901328078, 150.0000000000001705, 7.794466803471307872E-15 ) ) ;
#484 = CARTESIAN_POINT ( 'NONE',  ( 59.88752561097586380, 88.52205556028386013, -140.0071426749364036 ) ) ;
#485 = CARTESIAN_POINT ( 'NONE',  ( 220.1267597388963679, 88.52205556028444278, -1.962364651725812057E-14 ) ) ;
#486 = ORIENTED_EDGE ( 'NONE', *, *, #755, .T. ) ;
#487 = DIRECTION ( 'NONE',  ( 1.000000000000000000, 3.330669073875444378E-15, 0.000000000000000000 ) ) ;
#488 = DIRECTION ( 'NONE',  ( 3.430248998885766964E-15, -1.000000000000000000, -0.000000000000000000 ) ) ;
#489 = CARTESIAN_POINT ( 'NONE',  ( 59.88752561097582117, 88.52205556028391698, -160.2392341279205255 ) ) ;
#490 = ADVANCED_FACE ( 'NONE', ( #811 ), #320, .F. ) ;
#491 = ORIENTED_EDGE ( 'NONE', *, *, #714, .T. ) ;
#492 = DIRECTION ( 'NONE',  ( 1.000000000000000000, -0.000000000000000000, 0.000000000000000000 ) ) ;
#493 = CARTESIAN_POINT ( 'NONE',  ( 76.36049117592318680, 150.0000000000002274, -12.71383967691091854 ) ) ;
#494 = VECTOR ( 'NONE', #824, 1000.000000000000000 ) ;
#495 = CARTESIAN_POINT ( 'NONE',  ( 140.0071426749358636, 150.0000000000000284, -5.551115123125780809E-14 ) ) ;
#496 = VERTEX_POINT ( 'NONE', #11 ) ;
#497 = DIRECTION ( 'NONE',  ( 3.430248998885766964E-15, -1.000000000000000000, -0.000000000000000000 ) ) ;
#498 =( BOUNDED_SURFACE ( )  B_SPLINE_SURFACE ( 3, 3, ( 
 ( #740, #669, #262, #729 ),
 ( #338, #529, #141, #344 ),
 ( #333, #615, #279, #24 ),
 ( #404, #609, #151, #211 ) ),
 .UNSPECIFIED., .F., .F., .F. ) 
 B_SPLINE_SURFACE_WITH_KNOTS ( ( 4, 4 ),
 ( 4, 4 ),
 ( 0.000000000000000000, 1.000000000000000000 ),
 ( 0.000000000000000000, 1.000000000000000000 ),
 .UNSPECIFIED. ) 
 GEOMETRIC_REPRESENTATION_ITEM ( )  RATIONAL_B_SPLINE_SURFACE ( (
 ( 1.000000000000000000, 0.3333333333333334259, 0.3333333333333334259, 1.000000000000000000),
 ( 0.7549703546891139982, 0.2516567848963713883, 0.2516567848963713883, 0.7549703546891139982),
 ( 0.7549703546891139982, 0.2516567848963713883, 0.2516567848963713883, 0.7549703546891139982),
 ( 1.000000000000000000, 0.3333333333333334259, 0.3333333333333334259, 1.000000000000000000) ) ) 
 REPRESENTATION_ITEM ( '' )  SURFACE ( )  );
#499 = FACE_OUTER_BOUND ( 'NONE', #717, .T. ) ;
#500 = VERTEX_POINT ( 'NONE', #396 ) ;
#501 = CARTESIAN_POINT ( 'NONE',  ( 91.01734781927223139, 89.99999999999982947, -140.0071426749364036 ) ) ;
#502 =( NAMED_UNIT ( * ) SI_UNIT ( $, .STERADIAN. ) SOLID_ANGLE_UNIT ( ) );
#503 = ORIENTED_EDGE ( 'NONE', *, *, #575, .F. ) ;
#504 =( BOUNDED_CURVE ( )  B_SPLINE_CURVE ( 3, ( #449, #656, #187, #776 ),
 .UNSPECIFIED., .F., .F. ) 
 B_SPLINE_CURVE_WITH_KNOTS ( ( 4, 4 ),
 ( 1.369438406004565678, 3.141592653589803330 ),
 .UNSPECIFIED. ) 
 CURVE ( )  GEOMETRIC_REPRESENTATION_ITEM ( )  RATIONAL_B_SPLINE_CURVE ( ( 1.000000000000000000, 0.7549703546891146644, 0.7549703546891146644, 1.000000000000000000 ) ) 
 REPRESENTATION_ITEM ( '' )  );
#505 = EDGE_CURVE ( 'NONE', #9, #171, #666, .T. ) ;
#506 = VECTOR ( 'NONE', #650, 1000.000000000000000 ) ;
#507 = DIRECTION ( 'NONE',  ( -3.430248998885766964E-15, 1.000000000000000000, 0.000000000000000000 ) ) ;
#508 = AXIS2_PLACEMENT_3D ( 'NONE', #750, #488, #47 ) ;
#509 = CARTESIAN_POINT ( 'NONE',  ( 1.470826024294600825E-28, -8.575622497214418240E-14, -25.00000000000000000 ) ) ;
#510 = CARTESIAN_POINT ( 'NONE',  ( -5.547404160747812298E-13, 150.0000000000000284, -8.040613248383224566E-14 ) ) ;
#511 = CARTESIAN_POINT ( 'NONE',  ( -3.087224098997184659E-13, 89.99999999999982947, -140.0071426749364036 ) ) ;
#512 = ORIENTED_EDGE ( 'NONE', *, *, #173, .T. ) ;
#513 = CARTESIAN_POINT ( 'NONE',  ( 48.98979485566355407, 89.99999999999982947, -1.942386551902589152E-14 ) ) ;
#514 = EDGE_CURVE ( 'NONE', #328, #278, #105, .T. ) ;
#515 = ORIENTED_EDGE ( 'NONE', *, *, #39, .T. ) ;
#516 = CARTESIAN_POINT ( 'NONE',  ( 140.0071426749358920, 150.0000000000000284, 0.000000000000000000 ) ) ;
#517 = ORIENTED_EDGE ( 'NONE', *, *, #792, .T. ) ;
#518 = ORIENTED_EDGE ( 'NONE', *, *, #158, .F. ) ;
#519 = EDGE_CURVE ( 'NONE', #771, #618, #739, .T. ) ;
#520 = VECTOR ( 'NONE', #56, 1000.000000000000000 ) ;
#521 = DIRECTION ( 'NONE',  ( -3.430248998885766964E-15, 1.000000000000000000, 0.000000000000000000 ) ) ;
#522 =( BOUNDED_CURVE ( )  B_SPLINE_CURVE ( 3, ( #12, #391, #617, #139 ),
 .UNSPECIFIED., .F., .F. ) 
 B_SPLINE_CURVE_WITH_KNOTS ( ( 4, 4 ),
 ( 0.5235987755982992597, 1.369438406004565678 ),
 .UNSPECIFIED. ) 
 CURVE ( )  GEOMETRIC_REPRESENTATION_ITEM ( )  RATIONAL_B_SPLINE_CURVE ( ( 1.000000000000000000, 0.9412629764324018655, 0.9412629764324018655, 1.000000000000000000 ) ) 
 REPRESENTATION_ITEM ( '' )  );
#523 = CARTESIAN_POINT ( 'NONE',  ( -48.98979485566416514, 89.99999999999965894, -140.0071426749364036 ) ) ;
#524 = FACE_OUTER_BOUND ( 'NONE', #238, .T. ) ;
#525 = ADVANCED_FACE ( 'NONE', ( #690 ), #142, .T. ) ;
#526 = CARTESIAN_POINT ( 'NONE',  ( -5.145373498328651196E-13, 150.0000000000000284, -140.0071426749364036 ) ) ;
#527 = CARTESIAN_POINT ( 'NONE',  ( -5.145373498328651196E-13, 150.0000000000000284, -140.0071426749364036 ) ) ;
#528 = ORIENTED_EDGE ( 'NONE', *, *, #66, .T. ) ;
#529 = CARTESIAN_POINT ( 'NONE',  ( -55.82976911805747733, 123.5088935932645740, -251.6666809110504914 ) ) ;
#530 = CARTESIAN_POINT ( 'NONE',  ( 188.9969375305999790, 90.00000000000000000, -140.0071426749364036 ) ) ;
#531 = DIRECTION ( 'NONE',  ( 0.000000000000000000, 0.000000000000000000, 1.000000000000000000 ) ) ;
#532 = VECTOR ( 'NONE', #470, 1000.000000000000000 ) ;
#533 = ORIENTED_EDGE ( 'NONE', *, *, #714, .F. ) ;
#534 = CIRCLE ( 'NONE', #314, 48.98979485566387382 ) ;
#535 = CARTESIAN_POINT ( 'NONE',  ( -55.82976911805747022, 123.5088935932645597, 111.6595382361141588 ) ) ;
#536 = LINE ( 'NONE', #542, #624 ) ;
#537 = PRODUCT_DEFINITION ( 'UNKNOWN', '', #481, #225 ) ;
#538 = CARTESIAN_POINT ( 'NONE',  ( 25.00000000000000000, 56.69872981077807594, 0.000000000000000000 ) ) ;
#539 = ORIENTED_EDGE ( 'NONE', *, *, #147, .F. ) ;
#540 = APPLICATION_CONTEXT ( 'automotive_design' ) ;
#541 = FACE_OUTER_BOUND ( 'NONE', #668, .T. ) ;
#542 = CARTESIAN_POINT ( 'NONE',  ( -60.00000000000000000, 90.00000000000000000, 60.00000000000003553 ) ) ;
#543 = CARTESIAN_POINT ( 'NONE',  ( -3.087224098997184659E-13, 89.99999999999982947, -140.0071426749364036 ) ) ;
#544 = UNCERTAINTY_MEASURE_WITH_UNIT (LENGTH_MEASURE( 1.000000000000000082E-05 ), #311, 'distance_accuracy_value', 'NONE');
#545 = ADVANCED_FACE ( 'NONE', ( #287 ), #764, .T. ) ;
#546 = ORIENTED_EDGE ( 'NONE', *, *, #261, .T. ) ;
#547 = CARTESIAN_POINT ( 'NONE',  ( 34.19987131196450036, 150.0000000000003411, -1.355983839264431082E-14 ) ) ;
#548 = CARTESIAN_POINT ( 'NONE',  ( 115.0071426749360199, 56.69872981077791252, 3.061616997868410258E-15 ) ) ;
#549 = CARTESIAN_POINT ( 'NONE',  ( 5.916456789157588541E-28, 89.99999999999982947, -91.01734781927254403 ) ) ;
#550 = ORIENTED_EDGE ( 'NONE', *, *, #351, .T. ) ;
#551 = EDGE_CURVE ( 'NONE', #766, #641, #608, .T. ) ;
#552 = CARTESIAN_POINT ( 'NONE',  ( 80.11961706395989324, 88.52205556028444278, -160.2392341279205255 ) ) ;
#553 = CLOSED_SHELL ( 'NONE', ( #252, #644, #414, #783, #598, #585, #31, #490, #673, #222, #767, #612, #398, #215, #321, #182, #779, #525, #363, #247, #545, #390 ) ) ;
#554 = CARTESIAN_POINT ( 'NONE',  ( 140.0071426749361194, 89.99999999999982947, -140.0071426749364036 ) ) ;
#555 = CARTESIAN_POINT ( 'NONE',  ( 0.000000000000000000, 90.00000000000000000, 0.000000000000000000 ) ) ;
#556 = EDGE_LOOP ( 'NONE', ( #407, #361, #632 ) ) ;
#557 = CARTESIAN_POINT ( 'NONE',  ( 140.0071426749364036, 0.000000000000000000, -25.00000000000009592 ) ) ;
#558 = EDGE_CURVE ( 'NONE', #416, #27, #534, .T. ) ;
#559 = LINE ( 'NONE', #630, #494 ) ;
#560 = CARTESIAN_POINT ( 'NONE',  ( -5.547404160747812298E-13, 150.0000000000000284, -140.0071426749364036 ) ) ;
#561 = VERTEX_POINT ( 'NONE', #359 ) ;
#562 = DIRECTION ( 'NONE',  ( 1.000000000000000000, 3.399349888776275110E-15, 0.000000000000000000 ) ) ;
#563 =( BOUNDED_CURVE ( )  B_SPLINE_CURVE ( 3, ( #663, #670, #336, #746 ),
 .UNSPECIFIED., .F., .F. ) 
 B_SPLINE_CURVE_WITH_KNOTS ( ( 4, 4 ),
 ( 1.369438406004562347, 3.141592653589802886 ),
 .UNSPECIFIED. ) 
 CURVE ( )  GEOMETRIC_REPRESENTATION_ITEM ( )  RATIONAL_B_SPLINE_CURVE ( ( 1.000000000000000000, 0.7549703546891137762, 0.7549703546891137762, 1.000000000000000000 ) ) 
 REPRESENTATION_ITEM ( '' )  );
#564 = CARTESIAN_POINT ( 'NONE',  ( 140.0071426749359205, 150.0000000000000284, -140.0071426749363468 ) ) ;
#565 = CARTESIAN_POINT ( 'NONE',  ( -63.64665149901325947, 150.0000000000001137, -12.71383967691094874 ) ) ;
#566 = ORIENTED_EDGE ( 'NONE', *, *, #687, .F. ) ;
#567 = DIRECTION ( 'NONE',  ( -1.000000000000000000, 0.000000000000000000, -0.000000000000000000 ) ) ;
#568 = PRESENTATION_LAYER_ASSIGNMENT (  '', '', ( #606 ) ) ;
#569 = AXIS2_PLACEMENT_3D ( 'NONE', #678, #672, #266 ) ;
#570 = CARTESIAN_POINT ( 'NONE',  ( 0.000000000000000000, 90.00000000000000000, 0.000000000000000000 ) ) ;
#571 = ORIENTED_EDGE ( 'NONE', *, *, #74, .T. ) ;
#572 = PLANE ( 'NONE',  #763 ) ;
#573 = CARTESIAN_POINT ( 'NONE',  ( 0.000000000000000000, 90.00000000000000000, 0.000000000000000000 ) ) ;
#574 = ORIENTED_EDGE ( 'NONE', *, *, #439, .T. ) ;
#575 = EDGE_CURVE ( 'NONE', #316, #27, #559, .T. ) ;
#576 = FACE_OUTER_BOUND ( 'NONE', #64, .T. ) ;
#577 = ORIENTED_EDGE ( 'NONE', *, *, #737, .F. ) ;
#578 = EDGE_CURVE ( 'NONE', #664, #23, #423, .T. ) ;
#579 = VECTOR ( 'NONE', #73, 1000.000000000000000 ) ;
#580 = FACE_OUTER_BOUND ( 'NONE', #720, .T. ) ;
#581 = VECTOR ( 'NONE', #263, 1000.000000000000000 ) ;
#582 = CARTESIAN_POINT ( 'NONE',  ( -2.263239803295476951E-13, 63.96600035355530167, -37.58728181243922961 ) ) ;
#583 =( NAMED_UNIT ( * ) PLANE_ANGLE_UNIT ( ) SI_UNIT ( $, .RADIAN. ) );
#584 = VERTEX_POINT ( 'NONE', #759 ) ;
#585 = ADVANCED_FACE ( 'NONE', ( #681 ), #234, .T. ) ;
#586 = CARTESIAN_POINT ( 'NONE',  ( 0.000000000000000000, 0.000000000000000000, -140.0071426749364036 ) ) ;
#587 = ORIENTED_EDGE ( 'NONE', *, *, #276, .F. ) ;
#588 = ORIENTED_EDGE ( 'NONE', *, *, #158, .T. ) ;
#589 =( BOUNDED_CURVE ( )  B_SPLINE_CURVE ( 3, ( #804, #809, #327, #596 ),
 .UNSPECIFIED., .F., .F. ) 
 B_SPLINE_CURVE_WITH_KNOTS ( ( 4, 4 ),
 ( 1.369438406004562347, 3.141592653589802886 ),
 .UNSPECIFIED. ) 
 CURVE ( )  GEOMETRIC_REPRESENTATION_ITEM ( )  RATIONAL_B_SPLINE_CURVE ( ( 1.000000000000000000, 0.7549703546891137762, 0.7549703546891137762, 1.000000000000000000 ) ) 
 REPRESENTATION_ITEM ( '' )  );
#590 = EDGE_LOOP ( 'NONE', ( #399, #431, #269, #734 ) ) ;
#591 = CARTESIAN_POINT ( 'NONE',  ( 84.17737355687910394, 123.5088935932647729, 6.837174804756412916E-15 ) ) ;
#592 = DIRECTION ( 'NONE',  ( -2.935605235984049311E-16, 0.000000000000000000, -1.000000000000000000 ) ) ;
#593 =( GEOMETRIC_REPRESENTATION_CONTEXT ( 3 ) GLOBAL_UNCERTAINTY_ASSIGNED_CONTEXT ( ( #544 ) ) GLOBAL_UNIT_ASSIGNED_CONTEXT ( ( #311, #114, #502 ) ) REPRESENTATION_CONTEXT ( 'NONE', 'WORKASPACE' ) );
#594 = DIRECTION ( 'NONE',  ( 1.000000000000000000, 3.430248998885766964E-15, 0.000000000000000000 ) ) ;
#595 = DIRECTION ( 'NONE',  ( -1.000000000000000000, 0.000000000000000000, 2.935605235984049311E-16 ) ) ;
#596 = CARTESIAN_POINT ( 'NONE',  ( -5.145373498328651196E-13, 150.0000000000000284, 0.000000000000000000 ) ) ;
#597 = ORIENTED_EDGE ( 'NONE', *, *, #91, .T. ) ;
#598 = ADVANCED_FACE ( 'NONE', ( #524 ), #146, .T. ) ;
#599 = CARTESIAN_POINT ( 'NONE',  ( 91.01734781927223139, 89.99999999999982947, -3.608728571223167991E-14 ) ) ;
#600 = CARTESIAN_POINT ( 'NONE',  ( -60.00000000000000000, 0.000000000000000000, -0.000000000000000000 ) ) ;
#601 = LINE ( 'NONE', #17, #446 ) ;
#602 = ORIENTED_EDGE ( 'NONE', *, *, #59, .T. ) ;
#603 = CARTESIAN_POINT ( 'NONE',  ( 25.00000000000009592, 8.575622497214449794E-14, -140.0071426749364036 ) ) ;
#604 = CARTESIAN_POINT ( 'NONE',  ( 140.0071426749359773, 150.0000000000000284, -140.0071426749365742 ) ) ;
#605 = DIRECTION ( 'NONE',  ( 1.000000000000000000, 3.399349888776275110E-15, 0.000000000000000000 ) ) ;
#606 = STYLED_ITEM ( 'NONE', ( #686 ), #275 ) ;
#607 = ORIENTED_EDGE ( 'NONE', *, *, #829, .T. ) ;
#608 = CIRCLE ( 'NONE', #694, 48.98979485566385961 ) ;
#609 = CARTESIAN_POINT ( 'NONE',  ( -5.547404160747812298E-13, 150.0000000000000284, -140.0071426749364889 ) ) ;
#610 = AXIS2_PLACEMENT_3D ( 'NONE', #184, #642, #307 ) ;
#611 = CARTESIAN_POINT ( 'NONE',  ( 105.8072713629709227, 150.0000000000000853, -208.4068852988662002 ) ) ;
#612 = ADVANCED_FACE ( 'NONE', ( #541 ), #476, .F. ) ;
#613 = DIRECTION ( 'NONE',  ( 1.000000000000000000, 0.000000000000000000, -2.935605235984049311E-16 ) ) ;
#614 = ORIENTED_EDGE ( 'NONE', *, *, #66, .F. ) ;
#615 = CARTESIAN_POINT ( 'NONE',  ( -34.19987131196551644, 150.0000000000000853, -208.4068852988664275 ) ) ;
#616 = EDGE_CURVE ( 'NONE', #671, #23, #684, .T. ) ;
#617 = CARTESIAN_POINT ( 'NONE',  ( 140.0071426749361763, 75.75911627794910430, -46.08288663855287837 ) ) ;
#618 = VERTEX_POINT ( 'NONE', #599 ) ;
#619 = CARTESIAN_POINT ( 'NONE',  ( -25.00000000000039080, 56.69872981077789831, -50.00000000000036238 ) ) ;
#620 = CARTESIAN_POINT ( 'NONE',  ( 165.0071426749364036, 56.69872981077806173, -90.00714267493603415 ) ) ;
#621 = ORIENTED_EDGE ( 'NONE', *, *, #5, .T. ) ;
#622 = EDGE_CURVE ( 'NONE', #316, #357, #317, .T. ) ;
#623 = CARTESIAN_POINT ( 'NONE',  ( 140.0071426749362331, 56.69872981077799778, -25.00000000000020250 ) ) ;
#624 = VECTOR ( 'NONE', #745, 1000.000000000000000 ) ;
#625 = CARTESIAN_POINT ( 'NONE',  ( 140.0071426749359205, 150.0000000000000284, -140.0071426749363752 ) ) ;
#626 = CARTESIAN_POINT ( 'NONE',  ( -4.743342835909489084E-13, 150.0000000000000284, -140.0071426749364036 ) ) ;
#627 = VERTEX_POINT ( 'NONE', #400 ) ;
#628 = DIRECTION ( 'NONE',  ( 3.430248998885766964E-15, -1.000000000000000000, -0.000000000000000000 ) ) ;
#629 = EDGE_CURVE ( 'NONE', #357, #671, #355, .T. ) ;
#630 = CARTESIAN_POINT ( 'NONE',  ( 0.000000000000000000, 90.00000000000000000, -140.0071426749364036 ) ) ;
#631 = CARTESIAN_POINT ( 'NONE',  ( -25.00000000000039080, 56.69872981077789831, -90.00714267493603415 ) ) ;
#632 = ORIENTED_EDGE ( 'NONE', *, *, #115, .T. ) ;
#633 = DIRECTION ( 'NONE',  ( 0.000000000000000000, 0.000000000000000000, 1.000000000000000000 ) ) ;
#634 = FACE_OUTER_BOUND ( 'NONE', #683, .T. ) ;
#635 = EDGE_LOOP ( 'NONE', ( #175, #332, #847, #226, #403, #388 ) ) ;
#636 = CARTESIAN_POINT ( 'NONE',  ( 140.0071426749364036, -8.575622497214418240E-14, 0.000000000000000000 ) ) ;
#637 = VECTOR ( 'NONE', #613, 1000.000000000000000 ) ;
#638 = DIRECTION ( 'NONE',  ( 0.000000000000000000, 0.000000000000000000, -1.000000000000000000 ) ) ;
#639 = EDGE_CURVE ( 'NONE', #653, #122, #246, .T. ) ;
#640 = VECTOR ( 'NONE', #441, 1000.000000000000000 ) ;
#641 = VERTEX_POINT ( 'NONE', #468 ) ;
#642 = DIRECTION ( 'NONE',  ( 0.000000000000000000, 0.000000000000000000, 1.000000000000000000 ) ) ;
#643 = CARTESIAN_POINT ( 'NONE',  ( 1.761363141590430000E-14, 90.00000000000000000, 60.00000000000001421 ) ) ;
#644 = ADVANCED_FACE ( 'NONE', ( #14 ), #498, .T. ) ;
#645 = ORIENTED_EDGE ( 'NONE', *, *, #310, .T. ) ;
#646 = CARTESIAN_POINT ( 'NONE',  ( 84.17737355687896184, 123.5088935932646876, -1.795622324899294641E-14 ) ) ;
#647 = ORIENTED_EDGE ( 'NONE', *, *, #662, .T. ) ;
#648 = CARTESIAN_POINT ( 'NONE',  ( 195.8369117929930212, 123.5088935932650713, 0.000000000000000000 ) ) ;
#649 = EDGE_CURVE ( 'NONE', #167, #416, #448, .T. ) ;
#650 = DIRECTION ( 'NONE',  ( -0.000000000000000000, -1.000000000000000000, -0.000000000000000000 ) ) ;
#651 = AXIS2_PLACEMENT_3D ( 'NONE', #795, #89, #594 ) ;
#652 =( BOUNDED_CURVE ( )  B_SPLINE_CURVE ( 3, ( #389, #457, #148, #526 ),
 .UNSPECIFIED., .F., .T. ) 
 B_SPLINE_CURVE_WITH_KNOTS ( ( 4, 4 ),
 ( 1.369438406004565678, 3.141592653589802886 ),
 .UNSPECIFIED. ) 
 CURVE ( )  GEOMETRIC_REPRESENTATION_ITEM ( )  RATIONAL_B_SPLINE_CURVE ( ( 1.000000000000000000, 0.7549703546891146644, 0.7549703546891146644, 1.000000000000000000 ) ) 
 REPRESENTATION_ITEM ( '' )  );
#653 = VERTEX_POINT ( 'NONE', #132 ) ;
#654 = DIRECTION ( 'NONE',  ( 1.000000000000000000, 3.399349888776275110E-15, 0.000000000000000000 ) ) ;
#655 = CARTESIAN_POINT ( 'NONE',  ( 0.000000000000000000, 0.000000000000000000, -115.0071426749364178 ) ) ;
#656 = CARTESIAN_POINT ( 'NONE',  ( 195.8369117929930212, 123.5088935932650713, -140.0071426749364036 ) ) ;
#657 = CARTESIAN_POINT ( 'NONE',  ( 84.17737355687899026, 123.5088935932647018, -251.6666809110502641 ) ) ;
#658 = ORIENTED_EDGE ( 'NONE', *, *, #123, .F. ) ;
#659 = CARTESIAN_POINT ( 'NONE',  ( 174.2070139869008187, 150.0000000000003979, 0.000000000000000000 ) ) ;
#660 = AXIS2_PLACEMENT_3D ( 'NONE', #511, #507, #654 ) ;
#661 = VECTOR ( 'NONE', #219, 1000.000000000000000 ) ;
#662 = EDGE_CURVE ( 'NONE', #357, #664, #194, .T. ) ;
#663 = CARTESIAN_POINT ( 'NONE',  ( 48.98979485566355407, 89.99999999999982947, -140.0071426749364036 ) ) ;
#664 = VERTEX_POINT ( 'NONE', #303 ) ;
#665 = DIRECTION ( 'NONE',  ( 3.430248998885766964E-15, -1.000000000000000000, -0.000000000000000000 ) ) ;
#666 = LINE ( 'NONE', #228, #162 ) ;
#667 = CARTESIAN_POINT ( 'NONE',  ( -60.00000000000000000, 90.00000000000000000, 60.00000000000003553 ) ) ;
#668 = EDGE_LOOP ( 'NONE', ( #83, #491, #515, #382, #482, #302 ) ) ;
#669 = CARTESIAN_POINT ( 'NONE',  ( -48.98979485566415093, 89.99999999999951683, -237.9867323862640376 ) ) ;
#670 = CARTESIAN_POINT ( 'NONE',  ( 55.82976911805663178, 123.5088935932649434, -140.0071426749364036 ) ) ;
#671 = VERTEX_POINT ( 'NONE', #45 ) ;
#672 = DIRECTION ( 'NONE',  ( 3.430248998885766964E-15, -1.000000000000000000, -0.000000000000000000 ) ) ;
#673 = ADVANCED_FACE ( 'NONE', ( #111 ), #572, .F. ) ;
#674 = CARTESIAN_POINT ( 'NONE',  ( 0.000000000000000000, 0.000000000000000000, 0.000000000000000000 ) ) ;
#675 = CARTESIAN_POINT ( 'NONE',  ( 140.0071426749358920, 150.0000000000000284, 0.000000000000000000 ) ) ;
#676 = ORIENTED_EDGE ( 'NONE', *, *, #427, .F. ) ;
#677 =( BOUNDED_CURVE ( )  B_SPLINE_CURVE ( 3, ( #501, #358, #432, #362 ),
 .UNSPECIFIED., .F., .T. ) 
 B_SPLINE_CURVE_WITH_KNOTS ( ( 4, 4 ),
 ( 1.369438406004569009, 3.141592653589802442 ),
 .UNSPECIFIED. ) 
 CURVE ( )  GEOMETRIC_REPRESENTATION_ITEM ( )  RATIONAL_B_SPLINE_CURVE ( ( 1.000000000000000000, 0.7549703546891156636, 0.7549703546891156636, 1.000000000000000000 ) ) 
 REPRESENTATION_ITEM ( '' )  );
#678 = CARTESIAN_POINT ( 'NONE',  ( -1.944907611715157994E-13, 56.69872981077799068, 0.000000000000000000 ) ) ;
#679 = EDGE_CURVE ( 'NONE', #444, #278, #189, .T. ) ;
#680 = CIRCLE ( 'NONE', #383, 25.00000000000018829 ) ;
#681 = FACE_OUTER_BOUND ( 'NONE', #556, .T. ) ;
#682 = FACE_BOUND ( 'NONE', #352, .T. ) ;
#683 = EDGE_LOOP ( 'NONE', ( #614, #285, #97, #812 ) ) ;
#684 = LINE ( 'NONE', #206, #732 ) ;
#685 = DIRECTION ( 'NONE',  ( 1.000000000000000000, 3.430248998885765781E-15, 0.000000000000000000 ) ) ;
#686 = PRESENTATION_STYLE_ASSIGNMENT (( #415 ) ) ;
#687 = EDGE_CURVE ( 'NONE', #618, #752, #124, .T. ) ;
#688 = EDGE_LOOP ( 'NONE', ( #178, #518, #577, #136, #61, #235 ) ) ;
#689 = CARTESIAN_POINT ( 'NONE',  ( 63.64665149901223629, 150.0000000000006253, -127.2933029980255242 ) ) ;
#690 = FACE_OUTER_BOUND ( 'NONE', #688, .T. ) ;
#691 = CARTESIAN_POINT ( 'NONE',  ( -80.11961706396051852, 88.52205556028390276, 20.23209145298401523 ) ) ;
#692 = VERTEX_POINT ( 'NONE', #623 ) ;
#693 = CARTESIAN_POINT ( 'NONE',  ( 24.99999999999998579, 56.69872981077808305, -50.00000000000037659 ) ) ;
#694 = AXIS2_PLACEMENT_3D ( 'NONE', #90, #413, #41 ) ;
#695 = CARTESIAN_POINT ( 'NONE',  ( 140.0071426749359773, 150.0000000000000284, -140.0071426749364321 ) ) ;
#696 = CARTESIAN_POINT ( 'NONE',  ( 80.11961706395992167, 88.52205556028445699, -140.0071426749364036 ) ) ;
#697 = EDGE_LOOP ( 'NONE', ( #512, #539, #837, #116 ) ) ;
#698 = PRODUCT_RELATED_PRODUCT_CATEGORY ( 'part', '', ( #2 ) ) ;
#699 = CARTESIAN_POINT ( 'NONE',  ( 0.000000000000000000, 0.000000000000000000, -140.0071426749364036 ) ) ;
#700 = CARTESIAN_POINT ( 'NONE',  ( 63.64665149901222918, 150.0000000000006253, -140.0071426749364036 ) ) ;
#701 = EDGE_LOOP ( 'NONE', ( #281, #810, #550, #621, #817, #760 ) ) ;
#702 = FACE_OUTER_BOUND ( 'NONE', #129, .T. ) ;
#703 = EDGE_CURVE ( 'NONE', #319, #766, #21, .T. ) ;
#704 = CARTESIAN_POINT ( 'NONE',  ( -80.11961706396053273, 88.52205556028388855, -140.0071426749364036 ) ) ;
#705 = ORIENTED_EDGE ( 'NONE', *, *, #558, .T. ) ;
#706 =( LENGTH_UNIT ( ) NAMED_UNIT ( * ) SI_UNIT ( .MILLI., .METRE. ) );
#707 = AXIS2_PLACEMENT_3D ( 'NONE', #727, #801, #796 ) ;
#708 =( BOUNDED_CURVE ( )  B_SPLINE_CURVE ( 3, ( #438, #305, #60, #789 ),
 .UNSPECIFIED., .F., .F. ) 
 B_SPLINE_CURVE_WITH_KNOTS ( ( 4, 4 ),
 ( 4.913746901175020554, 5.759586531581287083 ),
 .UNSPECIFIED. ) 
 CURVE ( )  GEOMETRIC_REPRESENTATION_ITEM ( )  RATIONAL_B_SPLINE_CURVE ( ( 1.000000000000000000, 0.9412629764324018655, 0.9412629764324018655, 1.000000000000000000 ) ) 
 REPRESENTATION_ITEM ( '' )  );
#709 = CARTESIAN_POINT ( 'NONE',  ( -48.98979485566416514, 89.99999999999965894, 5.999519546087422074E-15 ) ) ;
#710 =( GEOMETRIC_REPRESENTATION_CONTEXT ( 3 ) GLOBAL_UNCERTAINTY_ASSIGNED_CONTEXT ( ( #410 ) ) GLOBAL_UNIT_ASSIGNED_CONTEXT ( ( #706, #583, #254 ) ) REPRESENTATION_CONTEXT ( 'NONE', 'WORKASPACE' ) );
#711 = CARTESIAN_POINT ( 'NONE',  ( 5.916456789157588541E-28, 89.99999999999982947, -91.01734781927254403 ) ) ;
#712 = CARTESIAN_POINT ( 'NONE',  ( -4.743342835909489084E-13, 150.0000000000000284, -9.846911277814324667E-30 ) ) ;
#713 = CARTESIAN_POINT ( 'NONE',  ( -34.19987131196543118, 150.0000000000001421, 4.188276293344922653E-15 ) ) ;
#714 = EDGE_CURVE ( 'NONE', #278, #692, #155, .T. ) ;
#715 = CARTESIAN_POINT ( 'NONE',  ( -2.071597589564672696E-13, 63.96600035355530167, -102.4198608624971598 ) ) ;
#716 = CARTESIAN_POINT ( 'NONE',  ( 91.01734781927223139, 89.99999999999982947, -3.608728571223167991E-14 ) ) ;
#717 = EDGE_LOOP ( 'NONE', ( #79, #442, #88, #32, #220, #368 ) ) ;
#718 = CARTESIAN_POINT ( 'NONE',  ( 188.9969375305999790, 90.00000000000000000, 0.000000000000000000 ) ) ;
#719 = ORIENTED_EDGE ( 'NONE', *, *, #616, .T. ) ;
#720 = EDGE_LOOP ( 'NONE', ( #471, #107, #719, #830 ) ) ;
#721 = LINE ( 'NONE', #125, #802 ) ;
#722 = AXIS2_PLACEMENT_3D ( 'NONE', #84, #412, #463 ) ;
#723 = CARTESIAN_POINT ( 'NONE',  ( 200.0071426749364036, 90.00000000000000000, -200.0071426749364036 ) ) ;
#724 = CARTESIAN_POINT ( 'NONE',  ( 195.8369117929929928, 123.5088935932650713, 0.000000000000000000 ) ) ;
#725 = ORIENTED_EDGE ( 'NONE', *, *, #209, .F. ) ;
#726 = EDGE_CURVE ( 'NONE', #775, #9, #299, .T. ) ;
#727 = CARTESIAN_POINT ( 'NONE',  ( 0.000000000000000000, 90.00000000000000000, 0.000000000000000000 ) ) ;
#728 = CARTESIAN_POINT ( 'NONE',  ( -60.00000000000000000, 0.000000000000000000, -200.0071426749364036 ) ) ;
#729 = CARTESIAN_POINT ( 'NONE',  ( 48.98979485566353276, 89.99999999999984368, -140.0071426749364036 ) ) ;
#730 = LINE ( 'NONE', #674, #581 ) ;
#731 = EDGE_CURVE ( 'NONE', #653, #3, #428, .T. ) ;
#732 = VECTOR ( 'NONE', #665, 1000.000000000000000 ) ;
#733 = PLANE ( 'NONE',  #392 ) ;
#734 = ORIENTED_EDGE ( 'NONE', *, *, #792, .F. ) ;
#735 = CARTESIAN_POINT ( 'NONE',  ( 91.01734781927220297, 89.99999999999965894, -237.9867323862640376 ) ) ;
#736 = CARTESIAN_POINT ( 'NONE',  ( 200.0071426749364036, 0.000000000000000000, -200.0071426749364036 ) ) ;
#737 = EDGE_CURVE ( 'NONE', #627, #561, #680, .T. ) ;
#738 = EDGE_LOOP ( 'NONE', ( #38, #113, #126, #571, #255, #68 ) ) ;
#739 =( BOUNDED_CURVE ( )  B_SPLINE_CURVE ( 3, ( #548, #345, #99, #418 ),
 .UNSPECIFIED., .F., .F. ) 
 B_SPLINE_CURVE_WITH_KNOTS ( ( 4, 4 ),
 ( 0.5235987755982989267, 1.369438406004568787 ),
 .UNSPECIFIED. ) 
 CURVE ( )  GEOMETRIC_REPRESENTATION_ITEM ( )  RATIONAL_B_SPLINE_CURVE ( ( 1.000000000000000000, 0.9412629764324013104, 0.9412629764324013104, 1.000000000000000000 ) ) 
 REPRESENTATION_ITEM ( '' )  );
#740 = CARTESIAN_POINT ( 'NONE',  ( -48.98979485566414382, 89.99999999999951683, -140.0071426749364036 ) ) ;
#741 = LINE ( 'NONE', #600, #71 ) ;
#742 = CARTESIAN_POINT ( 'NONE',  ( 25.00000000000009592, 8.575622497214449794E-14, -9.912199865427909360E-15 ) ) ;
#743 = ORIENTED_EDGE ( 'NONE', *, *, #819, .F. ) ;
#744 = CARTESIAN_POINT ( 'NONE',  ( -34.19987131196552355, 150.0000000000001137, 2.560320858084880410E-15 ) ) ;
#745 = DIRECTION ( 'NONE',  ( -0.000000000000000000, -1.000000000000000000, -0.000000000000000000 ) ) ;
#746 = CARTESIAN_POINT ( 'NONE',  ( -5.145373498328651196E-13, 150.0000000000000284, -140.0071426749364036 ) ) ;
#747 = AXIS2_PLACEMENT_3D ( 'NONE', #436, #63, #128 ) ;
#748 = ORIENTED_EDGE ( 'NONE', *, *, #450, .T. ) ;
#749 = CARTESIAN_POINT ( 'NONE',  ( -1.944907611715157994E-13, 56.69872981077799068, -140.0071426749364036 ) ) ;
#750 = CARTESIAN_POINT ( 'NONE',  ( 2.941652048589201649E-28, -8.575622497214418240E-14, -140.0071426749364036 ) ) ;
#751 = SURFACE_SIDE_STYLE ('',( #430 ) ) ;
#752 = VERTEX_POINT ( 'NONE', #50 ) ;
#753 = CARTESIAN_POINT ( 'NONE',  ( -63.64665149901331631, 150.0000000000001705, -127.2933029980255242 ) ) ;
#754 = DIRECTION ( 'NONE',  ( 1.000000000000000000, 3.399349888776274321E-15, 0.000000000000000000 ) ) ;
#755 = EDGE_CURVE ( 'NONE', #664, #784, #827, .T. ) ;
#756 = FACE_OUTER_BOUND ( 'NONE', #140, .T. ) ;
#757 = EDGE_LOOP ( 'NONE', ( #835, #748, #658 ) ) ;
#758 = DIRECTION ( 'NONE',  ( -3.430248998885766964E-15, 1.000000000000000000, 0.000000000000000000 ) ) ;
#759 = CARTESIAN_POINT ( 'NONE',  ( 140.0071426749358920, 150.0000000000000284, -140.0071426749364036 ) ) ;
#760 = ORIENTED_EDGE ( 'NONE', *, *, #59, .F. ) ;
#761 = CIRCLE ( 'NONE', #86, 24.99999999999999289 ) ;
#762 = CARTESIAN_POINT ( 'NONE',  ( 0.000000000000000000, 90.00000000000000000, -140.0071426749364036 ) ) ;
#763 = AXIS2_PLACEMENT_3D ( 'NONE', #231, #164, #633 ) ;
#764 = CYLINDRICAL_SURFACE ( 'NONE', #87, 25.00000000000010658 ) ;
#765 = CARTESIAN_POINT ( 'NONE',  ( 140.0071426749364036, 0.000000000000000000, -25.00000000000000000 ) ) ;
#766 = VERTEX_POINT ( 'NONE', #836 ) ;
#767 = ADVANCED_FACE ( 'NONE', ( #435 ), #291, .F. ) ;
#768 = DIRECTION ( 'NONE',  ( 1.000000000000000000, 3.399349888776274321E-15, 8.881784197001252323E-16 ) ) ;
#769 =( BOUNDED_SURFACE ( )  B_SPLINE_SURFACE ( 3, 3, ( 
 ( #718, #190, #185, #452 ),
 ( #724, #243, #373, #646 ),
 ( #659, #330, #20, #72 ),
 ( #455, #469, #196, #341 ) ),
 .UNSPECIFIED., .F., .F., .F. ) 
 B_SPLINE_SURFACE_WITH_KNOTS ( ( 4, 4 ),
 ( 4, 4 ),
 ( 0.000000000000000000, 1.000000000000000000 ),
 ( 0.000000000000000000, 1.000000000000000000 ),
 .UNSPECIFIED. ) 
 GEOMETRIC_REPRESENTATION_ITEM ( )  RATIONAL_B_SPLINE_SURFACE ( (
 ( 1.000000000000000000, 0.3333333333333332038, 0.3333333333333332038, 1.000000000000000000),
 ( 0.7549703546891146644, 0.2516567848963714438, 0.2516567848963714438, 0.7549703546891146644),
 ( 0.7549703546891146644, 0.2516567848963714438, 0.2516567848963714438, 0.7549703546891146644),
 ( 1.000000000000000000, 0.3333333333333332038, 0.3333333333333332038, 1.000000000000000000) ) ) 
 REPRESENTATION_ITEM ( '' )  SURFACE ( )  );
#770 = CARTESIAN_POINT ( 'NONE',  ( 76.36049117592312996, 150.0000000000001990, 7.794466803471307872E-15 ) ) ;
#771 = VERTEX_POINT ( 'NONE', #421 ) ;
#772 = CARTESIAN_POINT ( 'NONE',  ( 140.0071426749364036, 0.000000000000000000, -140.0071426749364036 ) ) ;
#773 = EDGE_CURVE ( 'NONE', #27, #584, #677, .T. ) ;
#774 = LINE ( 'NONE', #378, #506 ) ;
#775 = VERTEX_POINT ( 'NONE', #240 ) ;
#776 = CARTESIAN_POINT ( 'NONE',  ( 140.0071426749358920, 150.0000000000000284, -140.0071426749364036 ) ) ;
#777 =( BOUNDED_CURVE ( )  B_SPLINE_CURVE ( 3, ( #119, #648, #372, #516 ),
 .UNSPECIFIED., .F., .F. ) 
 B_SPLINE_CURVE_WITH_KNOTS ( ( 4, 4 ),
 ( 1.369438406004565678, 3.141592653589803330 ),
 .UNSPECIFIED. ) 
 CURVE ( )  GEOMETRIC_REPRESENTATION_ITEM ( )  RATIONAL_B_SPLINE_CURVE ( ( 1.000000000000000000, 0.7549703546891146644, 0.7549703546891146644, 1.000000000000000000 ) ) 
 REPRESENTATION_ITEM ( '' )  );
#778 = AXIS2_PLACEMENT_3D ( 'NONE', #749, #800, #813 ) ;
#779 = ADVANCED_FACE ( 'NONE', ( #702 ), #94, .T. ) ;
#780 = EDGE_LOOP ( 'NONE', ( #676, #58, #517, #645 ) ) ;
#781 = CARTESIAN_POINT ( 'NONE',  ( -4.743342835909490094E-13, 150.0000000000000284, -8.040613248383225828E-14 ) ) ;
#782 = DIRECTION ( 'NONE',  ( 0.000000000000000000, 0.000000000000000000, 1.000000000000000000 ) ) ;
#783 = ADVANCED_FACE ( 'NONE', ( #832 ), #270, .T. ) ;
#784 = VERTEX_POINT ( 'NONE', #385 ) ;
#785 = PRODUCT_CONTEXT ( 'NONE', #52, 'mechanical' ) ;
#786 = DIRECTION ( 'NONE',  ( -3.430248998885766964E-15, 1.000000000000000000, 0.000000000000000000 ) ) ;
#787 = ORIENTED_EDGE ( 'NONE', *, *, #454, .T. ) ;
#788 = VECTOR ( 'NONE', #51, 1000.000000000000000 ) ;
#789 = CARTESIAN_POINT ( 'NONE',  ( 140.0071426749362047, 56.69872981077799778, -115.0071426749362047 ) ) ;
#790 = FACE_OUTER_BOUND ( 'NONE', #183, .T. ) ;
#791 = CARTESIAN_POINT ( 'NONE',  ( 140.0071426749358920, 150.0000000000000284, 0.000000000000000000 ) ) ;
#792 = EDGE_CURVE ( 'NONE', #49, #496, #242, .T. ) ;
#793 = CARTESIAN_POINT ( 'NONE',  ( 195.8369117929929644, 123.5088935932650713, -140.0071426749364321 ) ) ;
#794 = DIRECTION ( 'NONE',  ( 0.000000000000000000, 0.000000000000000000, 1.000000000000000000 ) ) ;
#795 = CARTESIAN_POINT ( 'NONE',  ( 0.000000000000000000, 0.000000000000000000, 0.000000000000000000 ) ) ;
#796 = DIRECTION ( 'NONE',  ( -1.000000000000000000, 0.000000000000000000, 3.964879946171148973E-16 ) ) ;
#797 = CARTESIAN_POINT ( 'NONE',  ( 91.01734781927223139, 89.99999999999982947, -140.0071426749364036 ) ) ;
#798 = EDGE_LOOP ( 'NONE', ( #533, #343, #546, #294 ) ) ;
#799 =( BOUNDED_CURVE ( )  B_SPLINE_CURVE ( 3, ( #277, #30, #331, #268 ),
 .UNSPECIFIED., .F., .F. ) 
 B_SPLINE_CURVE_WITH_KNOTS ( ( 4, 4 ),
 ( 0.5235987755982990377, 1.369438406004562347 ),
 .UNSPECIFIED. ) 
 CURVE ( )  GEOMETRIC_REPRESENTATION_ITEM ( )  RATIONAL_B_SPLINE_CURVE ( ( 1.000000000000000000, 0.9412629764324021986, 0.9412629764324021986, 1.000000000000000000 ) ) 
 REPRESENTATION_ITEM ( '' )  );
#800 = DIRECTION ( 'NONE',  ( 3.430248998885766964E-15, -1.000000000000000000, -0.000000000000000000 ) ) ;
#801 = DIRECTION ( 'NONE',  ( -3.964879946171148973E-16, 0.000000000000000000, -1.000000000000000000 ) ) ;
#802 = VECTOR ( 'NONE', #251, 1000.000000000000000 ) ;
#803 = EDGE_CURVE ( 'NONE', #618, #53, #181, .T. ) ;
#804 = CARTESIAN_POINT ( 'NONE',  ( 48.98979485566355407, 89.99999999999982947, -1.942386551902589152E-14 ) ) ;
#805 = ORIENTED_EDGE ( 'NONE', *, *, #103, .T. ) ;
#806 = VECTOR ( 'NONE', #758, 1000.000000000000000 ) ;
#807 = CARTESIAN_POINT ( 'NONE',  ( -5.547404160747812298E-13, 150.0000000000000284, 3.009740829701119406E-30 ) ) ;
#808 = CARTESIAN_POINT ( 'NONE',  ( 1.761363141590430000E-14, 90.00000000000000000, 60.00000000000001421 ) ) ;
#809 = CARTESIAN_POINT ( 'NONE',  ( 55.82976911805663178, 123.5088935932649434, 0.000000000000000000 ) ) ;
#810 = ORIENTED_EDGE ( 'NONE', *, *, #15, .F. ) ;
#811 = FACE_OUTER_BOUND ( 'NONE', #697, .T. ) ;
#812 = ORIENTED_EDGE ( 'NONE', *, *, #505, .T. ) ;
#813 = DIRECTION ( 'NONE',  ( 1.000000000000000000, 3.330669073875443589E-15, 0.000000000000000000 ) ) ;
#814 = CARTESIAN_POINT ( 'NONE',  ( -48.98979485566413672, 89.99999999999951683, 97.97958971132774764 ) ) ;
#815 = CARTESIAN_POINT ( 'NONE',  ( 220.1267597388963111, 88.52205556028444278, -160.2392341279205255 ) ) ;
#816 = AXIS2_PLACEMENT_3D ( 'NONE', #543, #402, #605 ) ;
#817 = ORIENTED_EDGE ( 'NONE', *, *, #731, .T. ) ;
#818 = CARTESIAN_POINT ( 'NONE',  ( 0.000000000000000000, 0.000000000000000000, -25.00000000000009592 ) ) ;
#819 = EDGE_CURVE ( 'NONE', #500, #171, #127, .T. ) ;
#820 = CARTESIAN_POINT ( 'NONE',  ( 140.0071426749359205, 150.0000000000000284, -140.0071426749364036 ) ) ;
#821 = CARTESIAN_POINT ( 'NONE',  ( -25.00000000000039080, 56.69872981077789831, -140.0071426749364036 ) ) ;
#822 = ORIENTED_EDGE ( 'NONE', *, *, #15, .T. ) ;
#823 = DIRECTION ( 'NONE',  ( 0.000000000000000000, 0.000000000000000000, -1.000000000000000000 ) ) ;
#824 = DIRECTION ( 'NONE',  ( 1.000000000000000000, -0.000000000000000000, 0.000000000000000000 ) ) ;
#825 = FACE_OUTER_BOUND ( 'NONE', #701, .T. ) ;
#826 = ORIENTED_EDGE ( 'NONE', *, *, #370, .F. ) ;
#827 = LINE ( 'NONE', #699, #425 ) ;
#828 = CARTESIAN_POINT ( 'NONE',  ( -60.00000000000000000, 0.000000000000000000, 60.00000000000003553 ) ) ;
#829 = EDGE_CURVE ( 'NONE', #752, #53, #777, .T. ) ;
#830 = ORIENTED_EDGE ( 'NONE', *, *, #578, .F. ) ;
#831 = AXIS2_PLACEMENT_3D ( 'NONE', #257, #249, #191 ) ;
#832 = FACE_OUTER_BOUND ( 'NONE', #635, .T. ) ;
#833 = VECTOR ( 'NONE', #152, 1000.000000000000000 ) ;
#834 = DIRECTION ( 'NONE',  ( -1.000000000000000000, 0.000000000000000000, -0.000000000000000000 ) ) ;
#835 = ORIENTED_EDGE ( 'NONE', *, *, #301, .T. ) ;
#836 = CARTESIAN_POINT ( 'NONE',  ( -48.98979485566416514, 89.99999999999965894, 5.999519546087422074E-15 ) ) ;
#837 = ORIENTED_EDGE ( 'NONE', *, *, #386, .F. ) ;
#838 = APPLICATION_PROTOCOL_DEFINITION ( 'draft international standard', 'automotive_design', 1998, #52 ) ;
#839 = DIRECTION ( 'NONE',  ( 3.430248998885766964E-15, -1.000000000000000000, -0.000000000000000000 ) ) ;
#840 = ORIENTED_EDGE ( 'NONE', *, *, #458, .T. ) ;
#841 = CIRCLE ( 'NONE', #816, 48.98979485566385961 ) ;
#842 = CIRCLE ( 'NONE', #101, 25.00000000000000000 ) ;
#843 = EDGE_CURVE ( 'NONE', #416, #584, #504, .T. ) ;
#844 = DIRECTION ( 'NONE',  ( 1.000000000000000000, 3.430248998885766964E-15, 0.000000000000000000 ) ) ;
#845 = CARTESIAN_POINT ( 'NONE',  ( 91.01734781927223139, 89.99999999999982947, -140.0071426749364036 ) ) ;
#846 = CARTESIAN_POINT ( 'NONE',  ( 63.64665149901225760, 150.0000000000006253, -1.558893360694261574E-14 ) ) ;
#847 = ORIENTED_EDGE ( 'NONE', *, *, #115, .F. ) ;
ENDSEC;
END-ISO-10303-21;
