ISO-10303-21;
HEADER;
FILE_DESCRIPTION (( 'STEP AP214' ),
    '1' );
FILE_NAME ('N310_structure.STEP',
    '2026-01-16T01:30:38',
    ( '' ),
    ( '' ),
    'SwSTEP 2.0',
    'SolidWorks 2024',
    '' );
FILE_SCHEMA (( 'AUTOMOTIVE_DESIGN' ));
ENDSEC;

DATA;
#1 = CARTESIAN_POINT ( 'NONE',  ( 63.64665149901225760, -100.0000000000006253, -8.600201713976393384E-11 ) ) ;
#2 = ORIENTED_EDGE ( 'NONE', *, *, #566, .F. ) ;
#3 = AXIS2_PLACEMENT_3D ( 'NONE', #457, #613, #517 ) ;
#4 = PRODUCT_DEFINITION_FORMATION_WITH_SPECIFIED_SOURCE ( 'ANY', '', #338, .NOT_KNOWN. ) ;
#5 = LINE ( 'NONE', #199, #113 ) ;
#6 = VECTOR ( 'NONE', #47, 1000.000000000000000 ) ;
#7 = CARTESIAN_POINT ( 'NONE',  ( -19.54022503649319731, 50.00000000001088551, -15.61303328465853291 ) ) ;
#8 = CARTESIAN_POINT ( 'NONE',  ( -63.64665149901340868, -100.0000000000003553, -8.600981160656724854E-11 ) ) ;
#9 = FACE_OUTER_BOUND ( 'NONE', #37, .T. ) ;
#10 = EDGE_CURVE ( 'NONE', #208, #548, #295, .T. ) ;
#11 = CARTESIAN_POINT ( 'NONE',  ( 10.00000000000034461, 149.9999999999842544, 22.91287847486522011 ) ) ;
#12 = CARTESIAN_POINT ( 'NONE',  ( -10.08781882418730724, 58.47591518562563806, 22.87512283142207892 ) ) ;
#13 = ORIENTED_EDGE ( 'NONE', *, *, #491, .F. ) ;
#14 = CARTESIAN_POINT ( 'NONE',  ( 10.00000000000003730, 59.99999999998426858, 22.91287847480329631 ) ) ;
#15 = VECTOR ( 'NONE', #257, 1000.000000000000000 ) ;
#16 = CARTESIAN_POINT ( 'NONE',  ( 10.00000000000003730, 59.22846348497726154, 22.91287847480285933 ) ) ;
#17 = EDGE_LOOP ( 'NONE', ( #49, #396 ) ) ;
#18 = DIRECTION ( 'NONE',  ( 1.000000000000000000, -3.430248998885767753E-15, -2.360183891075939453E-27 ) ) ;
#19 = CARTESIAN_POINT ( 'NONE',  ( -9.999999999999655387, 149.9999999999843112, 22.91287847486522011 ) ) ;
#20 = DIRECTION ( 'NONE',  ( 1.000000000000000000, -3.430248998885767753E-15, -2.360183891075939453E-27 ) ) ;
#21 = EDGE_LOOP ( 'NONE', ( #143, #608, #569 ) ) ;
#22 = CARTESIAN_POINT ( 'NONE',  ( 25.00000000000009948, 49.99999999999994316, 1.720552953582415412E-11 ) ) ;
#23 = CARTESIAN_POINT ( 'NONE',  ( 11.97647981198269740, 54.02073785509482917, 21.94606981417768310 ) ) ;
#24 = FACE_OUTER_BOUND ( 'NONE', #310, .T. ) ;
#25 = VERTEX_POINT ( 'NONE', #341 ) ;
#26 = CIRCLE ( 'NONE', #389, 25.00000000000000000 ) ;
#27 =( BOUNDED_CURVE ( )  B_SPLINE_CURVE ( 3, ( #57, #253, #8, #160 ),
 .UNSPECIFIED., .F., .T. ) 
 B_SPLINE_CURVE_WITH_KNOTS ( ( 4, 4 ),
 ( 0.5235987755982979275, 3.141592653589802886 ),
 .UNSPECIFIED. ) 
 CURVE ( )  GEOMETRIC_REPRESENTATION_ITEM ( )  RATIONAL_B_SPLINE_CURVE ( ( 1.000000000000000000, 0.5058793634016770513, 0.5058793634016770513, 1.000000000000000000 ) ) 
 REPRESENTATION_ITEM ( '' )  );
#28 = CARTESIAN_POINT ( 'NONE',  ( 9.999999999999991118, 49.99999999998430411, 22.91287847479641471 ) ) ;
#29 = CIRCLE ( 'NONE', #239, 15.00000000000000000 ) ;
#30 =( NAMED_UNIT ( * ) PLANE_ANGLE_UNIT ( ) SI_UNIT ( $, .RADIAN. ) );
#31 = ORIENTED_EDGE ( 'NONE', *, *, #610, .F. ) ;
#32 = CARTESIAN_POINT ( 'NONE',  ( -11.35838197093648283, 54.95441247917050731, 22.27187923206756892 ) ) ;
#33 = DIRECTION ( 'NONE',  ( 1.000000000000000000, -3.430248998885768148E-15, -2.360183891075939453E-27 ) ) ;
#34 = EDGE_CURVE ( 'NONE', #243, #462, #492, .T. ) ;
#35 = LINE ( 'NONE', #235, #6 ) ;
#36 = CARTESIAN_POINT ( 'NONE',  ( -16.42524151127999943, 50.64339366818533961, 18.86156530486966076 ) ) ;
#37 = EDGE_LOOP ( 'NONE', ( #419, #513, #216, #443 ) ) ;
#38 = AXIS2_PLACEMENT_3D ( 'NONE', #515, #18, #78 ) ;
#39 = ADVANCED_BREP_SHAPE_REPRESENTATION ( 'N310_structure', ( #483, #190 ), #619 ) ;
#40 = CARTESIAN_POINT ( 'NONE',  ( -14.75202264291536736, 51.48142243016153685, 20.18638650266833778 ) ) ;
#41 = EDGE_CURVE ( 'NONE', #267, #277, #535, .T. ) ;
#42 = CIRCLE ( 'NONE', #398, 25.00000000000000000 ) ;
#43 = ORIENTED_EDGE ( 'NONE', *, *, #311, .T. ) ;
#44 = CARTESIAN_POINT ( 'NONE',  ( -14.20546664220682231, 51.84335771783239721, 20.57467106831532888 ) ) ;
#45 = VERTEX_POINT ( 'NONE', #87 ) ;
#46 = ADVANCED_FACE ( 'NONE', ( #191 ), #376, .T. ) ;
#47 = DIRECTION ( 'NONE',  ( 3.430248998885766176E-15, 1.000000000000000000, 6.880503111705847031E-13 ) ) ;
#48 = CARTESIAN_POINT ( 'NONE',  ( -63.64665149901336605, -100.0000000000003268, -4.711745895141989717E-11 ) ) ;
#49 = ORIENTED_EDGE ( 'NONE', *, *, #34, .T. ) ;
#50 = CIRCLE ( 'NONE', #405, 25.00000000000000000 ) ;
#51 = CARTESIAN_POINT ( 'NONE',  ( 80.11961706395997851, -38.52205556028445699, -4.370209833788930642E-11 ) ) ;
#52 = CARTESIAN_POINT ( 'NONE',  ( 80.11961706395996430, -38.52205556028444988, -4.370209833788929995E-11 ) ) ;
#53 = CARTESIAN_POINT ( 'NONE',  ( -5.145373498328651196E-13, -100.0000000000000284, -8.600201713976353317E-11 ) ) ;
#54 = EDGE_LOOP ( 'NONE', ( #116, #97, #467, #232 ) ) ;
#55 = CARTESIAN_POINT ( 'NONE',  ( -11.97647981198267608, 54.02073785512507698, -21.94606981413772573 ) ) ;
#56 = EDGE_CURVE ( 'NONE', #601, #100, #611, .T. ) ;
#57 = CARTESIAN_POINT ( 'NONE',  ( -25.00000000000039080, -6.698729810777893867, 1.274606375441208653E-12 ) ) ;
#58 = APPLICATION_PROTOCOL_DEFINITION ( 'draft international standard', 'automotive_design', 1998, #561 ) ;
#59 = CIRCLE ( 'NONE', #154, 25.00000000000019540 ) ;
#60 = CYLINDRICAL_SURFACE ( 'NONE', #560, 9.999999999999998224 ) ;
#61 = EDGE_CURVE ( 'NONE', #582, #25, #501, .T. ) ;
#62 = DIRECTION ( 'NONE',  ( 0.000000000000000000, 6.880503111705847031E-13, -1.000000000000000000 ) ) ;
#63 = CARTESIAN_POINT ( 'NONE',  ( 10.71099896338738411, 56.27763671503448251, 22.58968930938187469 ) ) ;
#64 = ORIENTED_EDGE ( 'NONE', *, *, #400, .T. ) ;
#65 = CARTESIAN_POINT ( 'NONE',  ( 17.51173008777529816, 50.29775834434804693, -17.85739381279801563 ) ) ;
#66 = DIRECTION ( 'NONE',  ( 3.430248998885766176E-15, 1.000000000000000000, 6.880503111705847031E-13 ) ) ;
#67 = CARTESIAN_POINT ( 'NONE',  ( -10.00000000000019362, 59.22979434999162862, 22.91287847480275275 ) ) ;
#68 = EDGE_LOOP ( 'NONE', ( #84, #374, #31 ) ) ;
#69 = LINE ( 'NONE', #131, #226 ) ;
#70 = CARTESIAN_POINT ( 'NONE',  ( 15.86511017280922964, 50.88992982810687238, 19.32435477422912129 ) ) ;
#71 = CARTESIAN_POINT ( 'NONE',  ( -9.999999999999774403, 115.0000000000000711, 6.192696279171355434E-11 ) ) ;
#72 = EDGE_LOOP ( 'NONE', ( #430, #579, #188, #272, #284, #528, #315, #485, #411, #119 ) ) ;
#73 = DIRECTION ( 'NONE',  ( 3.430248998885766176E-15, 1.000000000000000000, 6.880503111705847031E-13 ) ) ;
#74 = AXIS2_PLACEMENT_3D ( 'NONE', #631, #86, #196 ) ;
#75 = FACE_OUTER_BOUND ( 'NONE', #54, .T. ) ;
#76 = DIRECTION ( 'NONE',  ( 1.000000000000000000, -3.430248998885768148E-15, -2.360183891075939453E-27 ) ) ;
#77 = VERTEX_POINT ( 'NONE', #156 ) ;
#78 = DIRECTION ( 'NONE',  ( -3.469446951953614189E-15, -1.000000000000000000, -6.880503111705847031E-13 ) ) ;
#79 = CARTESIAN_POINT ( 'NONE',  ( 14.75766441274091179, 51.47793448043833564, 20.18227221732055199 ) ) ;
#80 = CARTESIAN_POINT ( 'NONE',  ( 2.941652048589201649E-28, 50.00000000000010658, 1.720552953582427691E-11 ) ) ;
#81 = EDGE_LOOP ( 'NONE', ( #565, #520 ) ) ;
#82 = DIRECTION ( 'NONE',  ( 1.000000000000000000, -3.330669073875469621E-15, -2.398137151871875888E-27 ) ) ;
#83 = DIRECTION ( 'NONE',  ( 3.430248998885766176E-15, 1.000000000000000000, 6.880503111705847031E-13 ) ) ;
#84 = ORIENTED_EDGE ( 'NONE', *, *, #311, .F. ) ;
#85 = B_SPLINE_CURVE_WITH_KNOTS ( 'NONE', 3,
 ( #331, #67, #12, #599, #391, #189, #572, #233, #32, #381, #433, #431, #479, #336, #44, #40, #627, #424, #36, #236, #388, #91, #288, #531 ),
 .UNSPECIFIED., .F., .F.,
 ( 4, 2, 2, 2, 2, 2, 2, 2, 2, 2, 2, 4 ),
 ( 0.000000000000000000, 0.002277627136900157393, 0.003416440705350235873, 0.004555254273800314786, 0.005694067842250393266, 0.006832881410700471746, 0.009110508547600638246, 0.01024932211605071412, 0.01138813568450078653, 0.01366576282140092788, 0.01594338995830106923, 0.01822101709520121057 ),
 .UNSPECIFIED. ) ;
#86 = DIRECTION ( 'NONE',  ( 3.430248998885766176E-15, 1.000000000000000000, 6.880503111705847031E-13 ) ) ;
#87 = CARTESIAN_POINT ( 'NONE',  ( -9.999999999999964473, 60.00000000001585221, -22.91287847475512152 ) ) ;
#88 = ADVANCED_FACE ( 'NONE', ( #393 ), #60, .F. ) ;
#89 = DIRECTION ( 'NONE',  ( -1.000000000000000000, 3.430248998885768148E-15, 2.360183891075939453E-27 ) ) ;
#90 = ORIENTED_EDGE ( 'NONE', *, *, #559, .F. ) ;
#91 = CARTESIAN_POINT ( 'NONE',  ( -19.05187649875843192, 50.03187835766835434, 16.20484767122406211 ) ) ;
#92 = ORIENTED_EDGE ( 'NONE', *, *, #521, .F. ) ;
#93 = UNCERTAINTY_MEASURE_WITH_UNIT (LENGTH_MEASURE( 1.000000000000000082E-05 ), #219, 'distance_accuracy_value', 'NONE');
#94 = VECTOR ( 'NONE', #500, 1000.000000000000000 ) ;
#95 = CARTESIAN_POINT ( 'NONE',  ( 10.00000000000017408, 100.0000000000000000, 5.160804509435343492E-11 ) ) ;
#96 = EDGE_CURVE ( 'NONE', #363, #289, #27, .T. ) ;
#97 = ORIENTED_EDGE ( 'NONE', *, *, #247, .T. ) ;
#98 = LINE ( 'NONE', #343, #530 ) ;
#99 = CARTESIAN_POINT ( 'NONE',  ( -25.00000000000009948, 50.00000000000010658, 1.720246791882640366E-11 ) ) ;
#100 = VERTEX_POINT ( 'NONE', #392 ) ;
#101 =( LENGTH_UNIT ( ) NAMED_UNIT ( * ) SI_UNIT ( .MILLI., .METRE. ) );
#102 =( BOUNDED_SURFACE ( )  B_SPLINE_SURFACE ( 3, 3, ( 
 ( #349, #545, #634, #537 ),
 ( #52, #250, #210, #297 ),
 ( #1, #303, #151, #539 ),
 ( #203, #592, #589, #355 ) ),
 .UNSPECIFIED., .F., .F., .F. ) 
 B_SPLINE_SURFACE_WITH_KNOTS ( ( 4, 4 ),
 ( 4, 4 ),
 ( 0.000000000000000000, 1.000000000000000000 ),
 ( 0.000000000000000000, 1.000000000000000000 ),
 .UNSPECIFIED. ) 
 GEOMETRIC_REPRESENTATION_ITEM ( )  RATIONAL_B_SPLINE_SURFACE ( (
 ( 1.000000000000000000, 0.3333333333330256165, 0.3333333333330256165, 1.000000000000000000),
 ( 0.5058793634016776064, 0.1686264544670701970, 0.1686264544670701970, 0.5058793634016776064),
 ( 0.5058793634016776064, 0.1686264544670701970, 0.1686264544670701970, 0.5058793634016776064),
 ( 1.000000000000000000, 0.3333333333330256165, 0.3333333333330256165, 1.000000000000000000) ) ) 
 REPRESENTATION_ITEM ( '' )  SURFACE ( )  );
#103 = FACE_OUTER_BOUND ( 'NONE', #454, .T. ) ;
#104 = ADVANCED_FACE ( 'NONE', ( #490 ), #442, .F. ) ;
#105 = CARTESIAN_POINT ( 'NONE',  ( -15.58725087264795128, 51.02080700684881975, -19.54891974180080538 ) ) ;
#106 = PRODUCT_DEFINITION ( 'UNKNOWN', '', #4, #587 ) ;
#107 = EDGE_CURVE ( 'NONE', #308, #281, #5, .T. ) ;
#108 = DIRECTION ( 'NONE',  ( 1.000000000000000000, 0.000000000000000000, 0.000000000000000000 ) ) ;
#109 = CARTESIAN_POINT ( 'NONE',  ( 25.00000000000000000, 50.00000000000002132, 1.277667992438647311E-12 ) ) ;
#110 = VECTOR ( 'NONE', #607, 1000.000000000000000 ) ;
#111 = CARTESIAN_POINT ( 'NONE',  ( 10.00000000000027001, 60.00000000001578826, -22.91287847475512152 ) ) ;
#112 = ADVANCED_FACE ( 'NONE', ( #438, #103 ), #446, .F. ) ;
#113 = VECTOR ( 'NONE', #206, 1000.000000000000000 ) ;
#114 = DIRECTION ( 'NONE',  ( -0.000000000000000000, 6.880503111705847031E-13, -1.000000000000000000 ) ) ;
#115 = CARTESIAN_POINT ( 'NONE',  ( 10.00000000000022560, 115.0000000000000000, 6.192696279171352849E-11 ) ) ;
#116 = ORIENTED_EDGE ( 'NONE', *, *, #269, .T. ) ;
#117 = CARTESIAN_POINT ( 'NONE',  ( -9.999999999999655387, 149.9999999999843112, 22.91287847486522011 ) ) ;
#118 = LINE ( 'NONE', #563, #471 ) ;
#119 = ORIENTED_EDGE ( 'NONE', *, *, #339, .F. ) ;
#120 = CARTESIAN_POINT ( 'NONE',  ( 14.75202264291538157, 51.48142243018922670, -20.18638650263188694 ) ) ;
#121 = AXIS2_PLACEMENT_3D ( 'NONE', #271, #83, #174 ) ;
#122 = DIRECTION ( 'NONE',  ( 1.000000000000000000, -3.430248998885767753E-15, -2.360183891075939453E-27 ) ) ;
#123 = CARTESIAN_POINT ( 'NONE',  ( -9.999999999999879208, 85.00000000000007105, 4.128729042679471950E-11 ) ) ;
#124 = VERTEX_POINT ( 'NONE', #109 ) ;
#125 = CARTESIAN_POINT ( 'NONE',  ( 14.20546664220683297, 51.84335771786061287, -20.57467106827837711 ) ) ;
#126 = CLOSED_SHELL ( 'NONE', ( #600, #182, #387, #46, #403, #176, #472, #132, #423, #112, #383, #231, #296, #584, #104, #88, #278 ) ) ;
#127 = B_SPLINE_CURVE_WITH_KNOTS ( 'NONE', 3,
 ( #503, #593, #402, #312, #181, #177, #602, #263, #606, #172, #368, #163, #596, #506, #125, #120, #558, #416, #322, #65, #356, #455, #509, #546 ),
 .UNSPECIFIED., .F., .F.,
 ( 4, 2, 2, 2, 2, 2, 2, 2, 2, 2, 2, 4 ),
 ( 0.000000000000000000, 0.002277627136900171271, 0.003416440705350247149, 0.004555254273800323460, 0.005694067842250399338, 0.006832881410700476082, 0.009110508547600610491, 0.01024932211605068116, 0.01138813568450075184, 0.01366576282140090186, 0.01594338995830105188, 0.01822101709520120016 ),
 .UNSPECIFIED. ) ;
#128 = CARTESIAN_POINT ( 'NONE',  ( 10.00000000000012079, 85.00000000000000000, 4.128729042679466781E-11 ) ) ;
#129 = FACE_OUTER_BOUND ( 'NONE', #385, .T. ) ;
#130 = ORIENTED_EDGE ( 'NONE', *, *, #186, .T. ) ;
#131 = CARTESIAN_POINT ( 'NONE',  ( -9.999999999999655387, 150.0000000000158309, -22.91287847469319416 ) ) ;
#132 = ADVANCED_FACE ( 'NONE', ( #201 ), #102, .T. ) ;
#133 = CARTESIAN_POINT ( 'NONE',  ( 16.69979692697539875, 50.55591061411450227, 18.60793477369157856 ) ) ;
#134 = PLANE ( 'NONE',  #3 ) ;
#135 = ORIENTED_EDGE ( 'NONE', *, *, #152, .T. ) ;
#136 = DIRECTION ( 'NONE',  ( 1.000000000000000000, -3.330669073875456211E-15, -2.398137151871866203E-27 ) ) ;
#137 = VERTEX_POINT ( 'NONE', #111 ) ;
#138 = EDGE_CURVE ( 'NONE', #462, #243, #29, .T. ) ;
#139 = CIRCLE ( 'NONE', #121, 25.00000000000000000 ) ;
#140 = CARTESIAN_POINT ( 'NONE',  ( 20.00000000000000000, 50.00000000001035971, -14.99999999998280131 ) ) ;
#141 = DIRECTION ( 'NONE',  ( 3.430248998885766176E-15, 1.000000000000000000, 6.880503111705847031E-13 ) ) ;
#142 = DIRECTION ( 'NONE',  ( 1.000000000000000000, -3.430248998885767753E-15, -2.360183891075939453E-27 ) ) ;
#143 = ORIENTED_EDGE ( 'NONE', *, *, #96, .F. ) ;
#144 = DIRECTION ( 'NONE',  ( -0.000000000000000000, -6.880503111705847031E-13, 1.000000000000000000 ) ) ;
#145 = EDGE_LOOP ( 'NONE', ( #90, #166, #64, #415 ) ) ;
#146 = CARTESIAN_POINT ( 'NONE',  ( -80.11961706386274784, -38.52205556039420742, 160.2392341278279844 ) ) ;
#147 = DIRECTION ( 'NONE',  ( 1.000000000000000000, -3.430248998885767753E-15, -2.360183891075939453E-27 ) ) ;
#148 = CARTESIAN_POINT ( 'NONE',  ( -25.00000000000000000, 50.00000000000019185, 1.274606375440971970E-12 ) ) ;
#149 = DIRECTION ( 'NONE',  ( -1.000000000000000000, 3.430248998885768148E-15, 2.360183891075939453E-27 ) ) ;
#150 = CARTESIAN_POINT ( 'NONE',  ( -10.08812750137399661, 58.47028930522394319, -22.87501038204716508 ) ) ;
#151 = CARTESIAN_POINT ( 'NONE',  ( -63.64665149913078324, -99.99999999991263167, -127.2933029981703186 ) ) ;
#152 = EDGE_CURVE ( 'NONE', #281, #208, #118, .T. ) ;
#153 = VERTEX_POINT ( 'NONE', #128 ) ;
#154 = AXIS2_PLACEMENT_3D ( 'NONE', #293, #486, #451 ) ;
#155 =( NAMED_UNIT ( * ) SI_UNIT ( $, .STERADIAN. ) SOLID_ANGLE_UNIT ( ) );
#156 = CARTESIAN_POINT ( 'NONE',  ( -20.00000000000000000, 50.00000000001050182, -14.99999999998280131 ) ) ;
#157 = VECTOR ( 'NONE', #76, 1000.000000000000000 ) ;
#158 = ORIENTED_EDGE ( 'NONE', *, *, #159, .T. ) ;
#159 = EDGE_CURVE ( 'NONE', #195, #292, #465, .T. ) ;
#160 = CARTESIAN_POINT ( 'NONE',  ( -5.145373498328651196E-13, -100.0000000000000284, -8.600201713976353317E-11 ) ) ;
#161 = EDGE_CURVE ( 'NONE', #308, #137, #173, .T. ) ;
#162 = CARTESIAN_POINT ( 'NONE',  ( -10.45757799522172959, 56.98608046458379306, -22.70811802770032983 ) ) ;
#163 = CARTESIAN_POINT ( 'NONE',  ( 12.64297035140183567, 53.18874439514283381, -21.57362388877470138 ) ) ;
#164 = VECTOR ( 'NONE', #73, 1000.000000000000000 ) ;
#165 = DIRECTION ( 'NONE',  ( -3.469446951953614189E-15, -1.000000000000000000, -6.880503111705847031E-13 ) ) ;
#166 = ORIENTED_EDGE ( 'NONE', *, *, #34, .F. ) ;
#167 =( BOUNDED_CURVE ( )  B_SPLINE_CURVE ( 3, ( #445, #51, #493, #53 ),
 .UNSPECIFIED., .F., .F. ) 
 B_SPLINE_CURVE_WITH_KNOTS ( ( 4, 4 ),
 ( 0.5235987755982990377, 3.141592653589802886 ),
 .UNSPECIFIED. ) 
 CURVE ( )  GEOMETRIC_REPRESENTATION_ITEM ( )  RATIONAL_B_SPLINE_CURVE ( ( 1.000000000000000000, 0.5058793634016774954, 0.5058793634016774954, 1.000000000000000000 ) ) 
 REPRESENTATION_ITEM ( '' )  );
#168 = AXIS2_PLACEMENT_3D ( 'NONE', #574, #141, #632 ) ;
#169 = CARTESIAN_POINT ( 'NONE',  ( -9.999999999999655387, 149.9999999999843112, 22.91287847486522011 ) ) ;
#170 = CARTESIAN_POINT ( 'NONE',  ( 1.470826024294600825E-28, 50.00000000000006395, 1.720552953582424460E-11 ) ) ;
#171 = ORIENTED_EDGE ( 'NONE', *, *, #247, .F. ) ;
#172 = CARTESIAN_POINT ( 'NONE',  ( 11.75274981885103642, 54.33269199356539758, -22.06631634911423845 ) ) ;
#173 = LINE ( 'NONE', #361, #481 ) ;
#174 = DIRECTION ( 'NONE',  ( 1.000000000000000000, -3.330669073875469621E-15, -2.398137151871875888E-27 ) ) ;
#175 = ORIENTED_EDGE ( 'NONE', *, *, #623, .T. ) ;
#176 = ADVANCED_FACE ( 'NONE', ( #214 ), #213, .T. ) ;
#177 = CARTESIAN_POINT ( 'NONE',  ( 10.70662779496204031, 56.28834271460086569, -22.59176297335775985 ) ) ;
#178 = CARTESIAN_POINT ( 'NONE',  ( 10.08812750137405168, 58.47028930519240220, 22.87501038209322601 ) ) ;
#179 = PLANE ( 'NONE',  #330 ) ;
#180 = ORIENTED_EDGE ( 'NONE', *, *, #491, .T. ) ;
#181 = CARTESIAN_POINT ( 'NONE',  ( 10.45272255270414696, 57.00122356785201561, -22.71035499987604567 ) ) ;
#182 = ADVANCED_FACE ( 'NONE', ( #9 ), #598, .F. ) ;
#183 = CARTESIAN_POINT ( 'NONE',  ( 10.34914623737143202, 57.35286391318185650, 22.75751032680129882 ) ) ;
#184 = SURFACE_SIDE_STYLE ('',( #280 ) ) ;
#185 = ORIENTED_EDGE ( 'NONE', *, *, #107, .T. ) ;
#186 = EDGE_CURVE ( 'NONE', #425, #292, #365, .T. ) ;
#187 = DIRECTION ( 'NONE',  ( 3.430248998885766176E-15, 1.000000000000000000, 6.880503111705847031E-13 ) ) ;
#188 = ORIENTED_EDGE ( 'NONE', *, *, #447, .F. ) ;
#189 = CARTESIAN_POINT ( 'NONE',  ( -10.70662779496199768, 56.28834271456985761, 22.59176297340082229 ) ) ;
#190 = AXIS2_PLACEMENT_3D ( 'NONE', #352, #542, #108 ) ;
#191 = FACE_OUTER_BOUND ( 'NONE', #229, .T. ) ;
#192 = DIRECTION ( 'NONE',  ( 3.430248998885766176E-15, 1.000000000000000000, 6.880503111705847031E-13 ) ) ;
#193 = EDGE_LOOP ( 'NONE', ( #502, #185, #135, #180 ) ) ;
#194 = CARTESIAN_POINT ( 'NONE',  ( -80.11961706396064642, -38.52205556028395961, 5.246524069995488302E-12 ) ) ;
#195 = VERTEX_POINT ( 'NONE', #357 ) ;
#196 = DIRECTION ( 'NONE',  ( 1.000000000000000000, -3.330669073875469621E-15, -2.398137151871875888E-27 ) ) ;
#197 = VERTEX_POINT ( 'NONE', #115 ) ;
#198 = CARTESIAN_POINT ( 'NONE',  ( -5.547404160747812298E-13, -100.0000000000001990, -8.592161100727984050E-11 ) ) ;
#199 = CARTESIAN_POINT ( 'NONE',  ( -9.999999999999655387, 150.0000000000158309, -22.91287847469319416 ) ) ;
#200 = EDGE_CURVE ( 'NONE', #25, #45, #309, .T. ) ;
#201 = FACE_OUTER_BOUND ( 'NONE', #21, .T. ) ;
#202 = CARTESIAN_POINT ( 'NONE',  ( -11.18332432234088536, 55.26669223911027018, -22.35992858661758120 ) ) ;
#203 = CARTESIAN_POINT ( 'NONE',  ( -4.743342835909491104E-13, -100.0000000000000284, -8.600201713976353317E-11 ) ) ;
#204 = AXIS2_PLACEMENT_3D ( 'NONE', #266, #276, #564 ) ;
#205 = CARTESIAN_POINT ( 'NONE',  ( -10.85647049756301641, 55.93381744108688736, -22.52043955238918826 ) ) ;
#206 = DIRECTION ( 'NONE',  ( -1.000000000000000000, 3.430248998885768148E-15, 2.360183891075939453E-27 ) ) ;
#207 = VECTOR ( 'NONE', #333, 1000.000000000000000 ) ;
#208 = VERTEX_POINT ( 'NONE', #169 ) ;
#209 = CARTESIAN_POINT ( 'NONE',  ( -12.64942839514307948, 53.18216272553997470, -21.56979733734526761 ) ) ;
#210 = CARTESIAN_POINT ( 'NONE',  ( -80.11961706410851036, -38.52205556017365495, -160.2392341280382482 ) ) ;
#211 = CARTESIAN_POINT ( 'NONE',  ( -20.00000000000000000, 50.00000000000013500, 1.720552953582428983E-11 ) ) ;
#212 = CARTESIAN_POINT ( 'NONE',  ( -13.14329927628811312, 52.68888050691639791, -21.27564410826108698 ) ) ;
#213 = PLANE ( 'NONE',  #282 ) ;
#214 = FACE_OUTER_BOUND ( 'NONE', #432, .T. ) ;
#215 =( NAMED_UNIT ( * ) SI_UNIT ( $, .STERADIAN. ) SOLID_ANGLE_UNIT ( ) );
#216 = ORIENTED_EDGE ( 'NONE', *, *, #345, .T. ) ;
#217 = DIRECTION ( 'NONE',  ( -3.430248998885766176E-15, -1.000000000000000000, -6.880503111705847031E-13 ) ) ;
#218 = CARTESIAN_POINT ( 'NONE',  ( 19.54022503649319731, 49.99999999998926370, 15.61303328469294094 ) ) ;
#219 =( LENGTH_UNIT ( ) NAMED_UNIT ( * ) SI_UNIT ( .MILLI., .METRE. ) );
#220 = EDGE_LOOP ( 'NONE', ( #329, #359, #571, #171 ) ) ;
#221 = PLANE ( 'NONE',  #580 ) ;
#222 = DIRECTION ( 'NONE',  ( 1.000000000000000000, -3.430248998885766176E-15, -2.360183891075938018E-27 ) ) ;
#223 = FACE_OUTER_BOUND ( 'NONE', #81, .T. ) ;
#224 = ORIENTED_EDGE ( 'NONE', *, *, #552, .T. ) ;
#225 = LINE ( 'NONE', #211, #304 ) ;
#226 = VECTOR ( 'NONE', #217, 1000.000000000000000 ) ;
#227 = CARTESIAN_POINT ( 'NONE',  ( 16.42080910447888442, 50.65761888203861218, 18.85442750628846653 ) ) ;
#228 = DIRECTION ( 'NONE',  ( 1.000000000000000000, -3.330669073875469621E-15, -2.398137151871875888E-27 ) ) ;
#229 = EDGE_LOOP ( 'NONE', ( #390, #241, #224 ) ) ;
#230 = DIRECTION ( 'NONE',  ( 3.430248998885766176E-15, 1.000000000000000000, 6.880503111705847031E-13 ) ) ;
#231 = ADVANCED_FACE ( 'NONE', ( #317, #75 ), #460, .F. ) ;
#232 = ORIENTED_EDGE ( 'NONE', *, *, #152, .F. ) ;
#233 = CARTESIAN_POINT ( 'NONE',  ( -11.17802233047723348, 55.27660401965853509, 22.36257499135481908 ) ) ;
#234 = EDGE_LOOP ( 'NONE', ( #590, #595, #477, #13, #622, #556 ) ) ;
#235 = CARTESIAN_POINT ( 'NONE',  ( 9.999999999999996447, 50.00000000001583800, -22.91287847476200312 ) ) ;
#236 = CARTESIAN_POINT ( 'NONE',  ( -17.51173008777529105, 50.29775834432359005, 17.85739381283283223 ) ) ;
#237 = CIRCLE ( 'NONE', #38, 15.00000000000000000 ) ;
#238 = ORIENTED_EDGE ( 'NONE', *, *, #498, .T. ) ;
#239 = AXIS2_PLACEMENT_3D ( 'NONE', #435, #122, #410 ) ;
#240 = VECTOR ( 'NONE', #192, 1000.000000000000000 ) ;
#241 = ORIENTED_EDGE ( 'NONE', *, *, #468, .T. ) ;
#242 = CARTESIAN_POINT ( 'NONE',  ( 25.00000000000000711, -6.698729810812520391, 49.99999999994805933 ) ) ;
#243 = VERTEX_POINT ( 'NONE', #475 ) ;
#244 = EDGE_CURVE ( 'NONE', #582, #137, #35, .T. ) ;
#245 = LINE ( 'NONE', #99, #240 ) ;
#246 = DIRECTION ( 'NONE',  ( -1.000000000000000000, 0.000000000000000000, 0.000000000000000000 ) ) ;
#247 = EDGE_CURVE ( 'NONE', #45, #548, #98, .T. ) ;
#248 = CARTESIAN_POINT ( 'NONE',  ( -15.86511017280922076, 50.88992982813357457, -19.32435477419348047 ) ) ;
#249 = VECTOR ( 'NONE', #66, 1000.000000000000000 ) ;
#250 = CARTESIAN_POINT ( 'NONE',  ( 80.11961706395996430, -38.52205556017419497, -160.2392341281122015 ) ) ;
#251 = CARTESIAN_POINT ( 'NONE',  ( -20.00000000000000000, 50.00000000001050182, -14.99999999998280131 ) ) ;
#252 = CARTESIAN_POINT ( 'NONE',  ( -16.42080910447888442, 50.65761888206467489, -18.85442750625315611 ) ) ;
#253 = CARTESIAN_POINT ( 'NONE',  ( -80.11961706396068905, -38.52205556028393829, -4.371191016114758613E-11 ) ) ;
#254 = SHAPE_DEFINITION_REPRESENTATION ( #386, #39 ) ;
#255 = CARTESIAN_POINT ( 'NONE',  ( -9.999999999999825917, 100.0000000000000711, 5.160804509435348662E-11 ) ) ;
#256 = CARTESIAN_POINT ( 'NONE',  ( -1.944907611715157994E-13, -6.698729810777980020, -2.180604915345849614E-11 ) ) ;
#257 = DIRECTION ( 'NONE',  ( 3.430248998885766176E-15, 1.000000000000000000, 6.880503111705847031E-13 ) ) ;
#258 = CARTESIAN_POINT ( 'NONE',  ( 18.04628363363728027, 50.17942512980190628, 17.31761082043757938 ) ) ;
#259 = CARTESIAN_POINT ( 'NONE',  ( 2.941652048589201649E-28, 50.00000000000010658, 1.720552953582427691E-11 ) ) ;
#260 = DIRECTION ( 'NONE',  ( -3.430248998885766176E-15, -1.000000000000000000, -6.880503111705847031E-13 ) ) ;
#261 = FACE_OUTER_BOUND ( 'NONE', #72, .T. ) ;
#262 = ORIENTED_EDGE ( 'NONE', *, *, #629, .F. ) ;
#263 = CARTESIAN_POINT ( 'NONE',  ( 11.17802233047726723, 55.27660401968923054, -22.36257499131315285 ) ) ;
#264 = EDGE_CURVE ( 'NONE', #628, #363, #59, .T. ) ;
#265 = CARTESIAN_POINT ( 'NONE',  ( 10.00000000000003730, 59.99999999998426858, 22.91287847480329631 ) ) ;
#266 = CARTESIAN_POINT ( 'NONE',  ( -9.999999999999655387, 150.0000000000158309, -22.91287847469319416 ) ) ;
#267 = VERTEX_POINT ( 'NONE', #609 ) ;
#268 = CARTESIAN_POINT ( 'NONE',  ( 20.00000000000003553, 59.99999999998422595, 22.91287847480329631 ) ) ;
#269 = EDGE_CURVE ( 'NONE', #281, #45, #69, .T. ) ;
#270 = CARTESIAN_POINT ( 'NONE',  ( 12.64942839514308837, 53.18216272551018164, 21.56979733738405614 ) ) ;
#271 = CARTESIAN_POINT ( 'NONE',  ( 2.941652048589201649E-28, 50.00000000000010658, 1.720552953582427691E-11 ) ) ;
#272 = ORIENTED_EDGE ( 'NONE', *, *, #626, .T. ) ;
#273 = LINE ( 'NONE', #22, #164 ) ;
#274 =( BOUNDED_SURFACE ( )  B_SPLINE_SURFACE ( 3, 3, ( 
 ( #294, #429, #242, #487 ),
 ( #194, #146, #340, #384 ),
 ( #48, #291, #476, #624 ),
 ( #534, #198, #620, #583 ) ),
 .UNSPECIFIED., .F., .F., .T. ) 
 B_SPLINE_SURFACE_WITH_KNOTS ( ( 4, 4 ),
 ( 4, 4 ),
 ( 0.000000000000000000, 1.000000000000000000 ),
 ( 0.000000000000000000, 1.000000000000000000 ),
 .UNSPECIFIED. ) 
 GEOMETRIC_REPRESENTATION_ITEM ( )  RATIONAL_B_SPLINE_SURFACE ( (
 ( 1.000000000000000000, 0.3333333333335370963, 0.3333333333335370963, 1.000000000000000000),
 ( 0.5058793634016774954, 0.1686264544673289068, 0.1686264544673289068, 0.5058793634016774954),
 ( 0.5058793634016774954, 0.1686264544673289068, 0.1686264544673289068, 0.5058793634016774954),
 ( 1.000000000000000000, 0.3333333333335370963, 0.3333333333335370963, 1.000000000000000000) ) ) 
 REPRESENTATION_ITEM ( '' )  SURFACE ( )  );
#275 = CARTESIAN_POINT ( 'NONE',  ( 14.21023912480560014, 51.83995391329144553, 20.57138485345545575 ) ) ;
#276 = DIRECTION ( 'NONE',  ( 0.000000000000000000, -6.880503111705847031E-13, 1.000000000000000000 ) ) ;
#277 = VERTEX_POINT ( 'NONE', #360 ) ;
#278 = ADVANCED_FACE ( 'NONE', ( #553 ), #409, .F. ) ;
#279 = CARTESIAN_POINT ( 'NONE',  ( -25.00000000000039080, -6.698729810777893867, 1.274606375441208653E-12 ) ) ;
#280 = SURFACE_STYLE_FILL_AREA ( #615 ) ;
#281 = VERTEX_POINT ( 'NONE', #316 ) ;
#282 = AXIS2_PLACEMENT_3D ( 'NONE', #456, #372, #450 ) ;
#283 = DIRECTION ( 'NONE',  ( -3.469446951953614189E-15, -1.000000000000000000, -6.880503111705847031E-13 ) ) ;
#284 = ORIENTED_EDGE ( 'NONE', *, *, #200, .F. ) ;
#285 = DIRECTION ( 'NONE',  ( -3.430248998885766176E-15, -1.000000000000000000, -6.880503111705847031E-13 ) ) ;
#286 = PLANE ( 'NONE',  #321 ) ;
#287 = ORIENTED_EDGE ( 'NONE', *, *, #440, .F. ) ;
#288 = CARTESIAN_POINT ( 'NONE',  ( -19.54035209404370477, 49.99999999998935607, 15.61286387462575220 ) ) ;
#289 = VERTEX_POINT ( 'NONE', #519 ) ;
#290 = AXIS2_PLACEMENT_3D ( 'NONE', #95, #142, #283 ) ;
#291 = CARTESIAN_POINT ( 'NONE',  ( -63.64665149893560425, -100.0000000000879083, 127.2933029979007529 ) ) ;
#292 = VERTEX_POINT ( 'NONE', #14 ) ;
#293 = CARTESIAN_POINT ( 'NONE',  ( -1.944907611715157994E-13, -6.698729810777980020, -2.180604915345849614E-11 ) ) ;
#294 = CARTESIAN_POINT ( 'NONE',  ( -25.00000000000040501, -6.698729810777945382, -6.532441951614048990E-12 ) ) ;
#295 = LINE ( 'NONE', #382, #499 ) ;
#296 = ADVANCED_FACE ( 'NONE', ( #406 ), #221, .F. ) ;
#297 = CARTESIAN_POINT ( 'NONE',  ( -80.11961706396057536, -38.52205556028390276, 3.025944504709832982E-11 ) ) ;
#298 = UNCERTAINTY_MEASURE_WITH_UNIT (LENGTH_MEASURE( 1.000000000000000082E-05 ), #101, 'distance_accuracy_value', 'NONE');
#299 = CARTESIAN_POINT ( 'NONE',  ( -9.999999999999998224, 49.99999999998437517, 22.91287847479641115 ) ) ;
#300 = VECTOR ( 'NONE', #62, 1000.000000000000000 ) ;
#301 = CARTESIAN_POINT ( 'NONE',  ( 10.00000000000034461, 149.9999999999842544, 22.91287847486522011 ) ) ;
#302 = CARTESIAN_POINT ( 'NONE',  ( -15.03353059810923220, 51.31481471992179166, -19.97787803030951892 ) ) ;
#303 = CARTESIAN_POINT ( 'NONE',  ( 63.64665149901225760, -99.99999999991302957, -127.2933029982290805 ) ) ;
#304 = VECTOR ( 'NONE', #114, 1000.000000000000000 ) ;
#305 = CARTESIAN_POINT ( 'NONE',  ( -10.71099896338734681, 56.27763671506563981, -22.58968930933883001 ) ) ;
#306 = DIRECTION ( 'NONE',  ( 0.000000000000000000, -6.880503111705847031E-13, 1.000000000000000000 ) ) ;
#307 = AXIS2_PLACEMENT_3D ( 'NONE', #586, #399, #353 ) ;
#308 = VERTEX_POINT ( 'NONE', #463 ) ;
#309 = LINE ( 'NONE', #504, #249 ) ;
#310 = EDGE_LOOP ( 'NONE', ( #92, #43, #551, #287, #158, #351, #408, #175, #505, #518 ) ) ;
#311 = EDGE_CURVE ( 'NONE', #363, #628, #478, .T. ) ;
#312 = CARTESIAN_POINT ( 'NONE',  ( 10.34494073580753870, 57.36876965076757529, -22.75941639117587911 ) ) ;
#313 = CARTESIAN_POINT ( 'NONE',  ( 10.45757799522177578, 56.98608046455247944, 22.70811802774435861 ) ) ;
#314 = LINE ( 'NONE', #123, #110 ) ;
#315 = ORIENTED_EDGE ( 'NONE', *, *, #244, .T. ) ;
#316 = CARTESIAN_POINT ( 'NONE',  ( -9.999999999999655387, 150.0000000000158309, -22.91287847469319416 ) ) ;
#317 = FACE_BOUND ( 'NONE', #17, .T. ) ;
#318 = DIRECTION ( 'NONE',  ( 1.000000000000000000, -3.330669073875469621E-15, -2.398137151871875888E-27 ) ) ;
#319 = ORIENTED_EDGE ( 'NONE', *, *, #447, .T. ) ;
#320 = AXIS2_PLACEMENT_3D ( 'NONE', #19, #222, #285 ) ;
#321 = AXIS2_PLACEMENT_3D ( 'NONE', #617, #426, #89 ) ;
#322 = CARTESIAN_POINT ( 'NONE',  ( 16.42524151128001009, 50.64339366821118915, -18.86156530483436811 ) ) ;
#323 = CARTESIAN_POINT ( 'NONE',  ( 17.51938513531476715, 50.29560880325004746, 17.85006891457869216 ) ) ;
#324 = PLANE ( 'NONE',  #204 ) ;
#325 = EDGE_LOOP ( 'NONE', ( #2, #458 ) ) ;
#326 = DIRECTION ( 'NONE',  ( 1.000000000000000000, 0.000000000000000000, 0.000000000000000000 ) ) ;
#327 = CARTESIAN_POINT ( 'NONE',  ( 10.85647049756305549, 55.93381744105585796, 22.52043955243178530 ) ) ;
#328 = CARTESIAN_POINT ( 'NONE',  ( 10.00000000000034461, 149.9999999999842544, 22.91287847486522011 ) ) ;
#329 = ORIENTED_EDGE ( 'NONE', *, *, #626, .F. ) ;
#330 = AXIS2_PLACEMENT_3D ( 'NONE', #170, #568, #20 ) ;
#331 = CARTESIAN_POINT ( 'NONE',  ( -10.00000000000019362, 59.99999999998433253, 22.91287847480329631 ) ) ;
#332 = ORIENTED_EDGE ( 'NONE', *, *, #161, .T. ) ;
#333 = DIRECTION ( 'NONE',  ( 1.000000000000000000, -3.430248998885768148E-15, -2.360183891075939453E-27 ) ) ;
#334 = ORIENTED_EDGE ( 'NONE', *, *, #107, .F. ) ;
#335 = EDGE_CURVE ( 'NONE', #137, #508, #127, .T. ) ;
#336 = CARTESIAN_POINT ( 'NONE',  ( -13.93383493758913438, 52.04267795594321910, 20.75929957343757337 ) ) ;
#337 = ORIENTED_EDGE ( 'NONE', *, *, #200, .T. ) ;
#338 = PRODUCT ( 'N310_structure', 'N310_structure', '', ( #397 ) ) ;
#339 = EDGE_CURVE ( 'NONE', #628, #124, #273, .T. ) ;
#340 = CARTESIAN_POINT ( 'NONE',  ( 80.11961706395999272, -38.52205556039476164, 160.2392341277790422 ) ) ;
#341 = CARTESIAN_POINT ( 'NONE',  ( -9.999999999999998224, 50.00000000001582379, -22.91287847476200312 ) ) ;
#342 = VECTOR ( 'NONE', #149, 1000.000000000000000 ) ;
#343 = CARTESIAN_POINT ( 'NONE',  ( -9.999999999999964473, 59.99999999998432543, 22.91287847480329631 ) ) ;
#344 = LINE ( 'NONE', #581, #207 ) ;
#345 = EDGE_CURVE ( 'NONE', #197, #153, #237, .T. ) ;
#346 = DIRECTION ( 'NONE',  ( -3.469446951953614189E-15, -1.000000000000000000, -6.880503111705847031E-13 ) ) ;
#347 = CARTESIAN_POINT ( 'NONE',  ( -13.93689095809881273, 52.04038870232878367, -20.75723747138242103 ) ) ;
#348 = CARTESIAN_POINT ( 'NONE',  ( -14.75766441274090290, 51.47793448046619602, -20.18227221728410115 ) ) ;
#349 = CARTESIAN_POINT ( 'NONE',  ( 25.00000000000001066, -6.698729810778070615, -2.180604915345855430E-11 ) ) ;
#350 = PRESENTATION_LAYER_ASSIGNMENT (  '', '', ( #621 ) ) ;
#351 = ORIENTED_EDGE ( 'NONE', *, *, #379, .F. ) ;
#352 = CARTESIAN_POINT ( 'NONE',  ( 0.000000000000000000, 0.000000000000000000, 0.000000000000000000 ) ) ;
#353 = DIRECTION ( 'NONE',  ( 3.430248998885766176E-15, 1.000000000000000000, 6.880503111705847031E-13 ) ) ;
#354 = EDGE_CURVE ( 'NONE', #100, #77, #225, .T. ) ;
#355 = CARTESIAN_POINT ( 'NONE',  ( -5.547404160747811288E-13, -100.0000000000000284, -8.600201713976348147E-11 ) ) ;
#356 = CARTESIAN_POINT ( 'NONE',  ( 18.03830236948236632, 50.18093030598650728, -17.32601321128111849 ) ) ;
#357 = CARTESIAN_POINT ( 'NONE',  ( 20.00000000000000000, 49.99999999998971845, 15.00000000001721112 ) ) ;
#358 = EDGE_CURVE ( 'NONE', #582, #25, #26, .T. ) ;
#359 = ORIENTED_EDGE ( 'NONE', *, *, #354, .F. ) ;
#360 = CARTESIAN_POINT ( 'NONE',  ( 9.999999999999991118, 49.99999999998430411, 22.91287847479641471 ) ) ;
#361 = CARTESIAN_POINT ( 'NONE',  ( 10.00000000000034461, 150.0000000000157740, -22.91287847469319416 ) ) ;
#362 = CARTESIAN_POINT ( 'NONE',  ( 0.000000000000000000, 50.00000000000002132, 1.720552953582421551E-11 ) ) ;
#363 = VERTEX_POINT ( 'NONE', #279 ) ;
#364 = DIRECTION ( 'NONE',  ( 0.000000000000000000, 6.880503111705847031E-13, -1.000000000000000000 ) ) ;
#365 = LINE ( 'NONE', #11, #436 ) ;
#366 = CYLINDRICAL_SURFACE ( 'NONE', #573, 25.00000000000009948 ) ;
#367 = ORIENTED_EDGE ( 'NONE', *, *, #354, .T. ) ;
#368 = CARTESIAN_POINT ( 'NONE',  ( 11.96765633125991179, 54.03248567422050996, -21.95089266263162386 ) ) ;
#369 = CARTESIAN_POINT ( 'NONE',  ( 2.941652048589201649E-28, 50.00000000000010658, 1.720552953582427691E-11 ) ) ;
#370 = ORIENTED_EDGE ( 'NONE', *, *, #244, .F. ) ;
#371 = AXIS2_PLACEMENT_3D ( 'NONE', #255, #543, #395 ) ;
#372 = DIRECTION ( 'NONE',  ( 3.430248998885767753E-15, 1.000000000000000000, 6.880503111705847031E-13 ) ) ;
#373 = PRESENTATION_STYLE_ASSIGNMENT (( #555 ) ) ;
#374 = ORIENTED_EDGE ( 'NONE', *, *, #96, .T. ) ;
#375 = CARTESIAN_POINT ( 'NONE',  ( 0.000000000000000000, 50.00000000000002132, 1.720552953582421551E-11 ) ) ;
#376 = PLANE ( 'NONE',  #444 ) ;
#377 = CARTESIAN_POINT ( 'NONE',  ( -10.00000000000019362, 59.99999999998433253, 22.91287847480329631 ) ) ;
#378 = DIRECTION ( 'NONE',  ( 1.000000000000000000, -3.430248998885767753E-15, -2.360183891075939453E-27 ) ) ;
#379 = EDGE_CURVE ( 'NONE', #277, #292, #469, .T. ) ;
#380 = COLOUR_RGB ( '',0.7921568627450980005, 0.8196078431372548767, 0.9333333333333333481 ) ;
#381 = CARTESIAN_POINT ( 'NONE',  ( -11.75274981885100978, 54.33269199353512846, 22.06631634915460793 ) ) ;
#382 = CARTESIAN_POINT ( 'NONE',  ( -9.999999999999655387, 149.9999999999843112, 22.91287847486522011 ) ) ;
#383 = ADVANCED_FACE ( 'NONE', ( #129 ), #324, .F. ) ;
#384 = CARTESIAN_POINT ( 'NONE',  ( 80.11961706396004956, -38.52205556028450673, -4.368247469137210075E-11 ) ) ;
#385 = EDGE_LOOP ( 'NONE', ( #577, #337, #427, #334, #332, #370 ) ) ;
#386 = PRODUCT_DEFINITION_SHAPE ( 'NONE', 'NONE',  #106 ) ;
#387 = ADVANCED_FACE ( 'NONE', ( #261 ), #453, .T. ) ;
#388 = CARTESIAN_POINT ( 'NONE',  ( -18.03830236948235566, 50.18093030596276805, 17.32601321131578231 ) ) ;
#389 = AXIS2_PLACEMENT_3D ( 'NONE', #259, #420, #82 ) ;
#390 = ORIENTED_EDGE ( 'NONE', *, *, #440, .T. ) ;
#391 = CARTESIAN_POINT ( 'NONE',  ( -10.45272255270410078, 57.00122356782084410, 22.71035499992009932 ) ) ;
#392 = CARTESIAN_POINT ( 'NONE',  ( -20.00000000000000000, 49.99999999998986056, 15.00000000001721112 ) ) ;
#393 = FACE_OUTER_BOUND ( 'NONE', #220, .T. ) ;
#394 = CARTESIAN_POINT ( 'NONE',  ( -10.34914623737137873, 57.35286391321323407, -22.75751032675677621 ) ) ;
#395 = DIRECTION ( 'NONE',  ( -3.469446951953614189E-15, -1.000000000000000000, -6.880503111705847031E-13 ) ) ;
#396 = ORIENTED_EDGE ( 'NONE', *, *, #138, .T. ) ;
#397 = PRODUCT_CONTEXT ( 'NONE', #529, 'mechanical' ) ;
#398 = AXIS2_PLACEMENT_3D ( 'NONE', #80, #466, #318 ) ;
#399 = DIRECTION ( 'NONE',  ( -1.000000000000000000, 3.430248998885766176E-15, 2.360183891075938018E-27 ) ) ;
#400 = EDGE_CURVE ( 'NONE', #243, #153, #314, .T. ) ;
#401 = CARTESIAN_POINT ( 'NONE',  ( -9.999999999999998224, 50.00000000001582379, -22.91287847476200312 ) ) ;
#402 = CARTESIAN_POINT ( 'NONE',  ( 10.08781882418736764, 58.47591518565705115, -22.87512283137601798 ) ) ;
#403 = ADVANCED_FACE ( 'NONE', ( #461 ), #179, .T. ) ;
#404 = LINE ( 'NONE', #301, #94 ) ;
#405 = AXIS2_PLACEMENT_3D ( 'NONE', #369, #512, #228 ) ;
#406 = FACE_OUTER_BOUND ( 'NONE', #234, .T. ) ;
#407 = CARTESIAN_POINT ( 'NONE',  ( -9.999999999999825917, 100.0000000000000711, 5.160804509435348662E-11 ) ) ;
#408 = ORIENTED_EDGE ( 'NONE', *, *, #498, .F. ) ;
#409 = CYLINDRICAL_SURFACE ( 'NONE', #630, 9.999999999999998224 ) ;
#410 = DIRECTION ( 'NONE',  ( -3.469446951953614189E-15, -1.000000000000000000, -6.880503111705847031E-13 ) ) ;
#411 = ORIENTED_EDGE ( 'NONE', *, *, #468, .F. ) ;
#412 = DIRECTION ( 'NONE',  ( 1.000000000000000000, -3.434752482434051226E-15, -2.398137151871857234E-27 ) ) ;
#413 = CARTESIAN_POINT ( 'NONE',  ( 13.14329927628813266, 52.68888050688700986, 21.27564410829920050 ) ) ;
#414 = DIRECTION ( 'NONE',  ( 1.000000000000000000, -3.330669073875456211E-15, -2.398137151871866203E-27 ) ) ;
#415 = ORIENTED_EDGE ( 'NONE', *, *, #566, .T. ) ;
#416 = CARTESIAN_POINT ( 'NONE',  ( 15.86053888644977583, 50.87530874415520543, -19.33742586659336382 ) ) ;
#417 = CARTESIAN_POINT ( 'NONE',  ( 11.36471361680215608, 54.94338858842870366, 22.26867111370071228 ) ) ;
#418 = FILL_AREA_STYLE_COLOUR ( '', #380 ) ;
#419 = ORIENTED_EDGE ( 'NONE', *, *, #138, .F. ) ;
#420 = DIRECTION ( 'NONE',  ( 3.430248998885766176E-15, 1.000000000000000000, 6.880503111705847031E-13 ) ) ;
#421 = LINE ( 'NONE', #570, #157 ) ;
#422 = DIRECTION ( 'NONE',  ( 3.430248998885767753E-15, 1.000000000000000000, 6.880503111705847031E-13 ) ) ;
#423 = ADVANCED_FACE ( 'NONE', ( #223 ), #134, .T. ) ;
#424 = CARTESIAN_POINT ( 'NONE',  ( -15.86053888644976162, 50.87530874412869508, 19.33742586662899043 ) ) ;
#425 = VERTEX_POINT ( 'NONE', #328 ) ;
#426 = DIRECTION ( 'NONE',  ( -3.430248998885768148E-15, -1.000000000000000000, -6.880503111705847031E-13 ) ) ;
#427 = ORIENTED_EDGE ( 'NONE', *, *, #269, .F. ) ;
#428 = MECHANICAL_DESIGN_GEOMETRIC_PRESENTATION_REPRESENTATION (  '', ( #621 ), #482 ) ;
#429 = CARTESIAN_POINT ( 'NONE',  ( -24.99999999996985522, -6.698729810812348084, 49.99999999996332889 ) ) ;
#430 = ORIENTED_EDGE ( 'NONE', *, *, #264, .T. ) ;
#431 = CARTESIAN_POINT ( 'NONE',  ( -12.64297035140181258, 53.18874439511326102, 21.57362388881350057 ) ) ;
#432 = EDGE_LOOP ( 'NONE', ( #319, #618, #367 ) ) ;
#433 = CARTESIAN_POINT ( 'NONE',  ( -11.96765633125987804, 54.03248567419038295, 21.95089266267158123 ) ) ;
#434 = AXIS2_PLACEMENT_3D ( 'NONE', #256, #448, #412 ) ;
#435 = CARTESIAN_POINT ( 'NONE',  ( -9.999999999999825917, 100.0000000000000711, 5.160804509435348662E-11 ) ) ;
#436 = VECTOR ( 'NONE', #547, 1000.000000000000000 ) ;
#437 = CARTESIAN_POINT ( 'NONE',  ( -11.76290598202800552, 54.31776698592555874, -22.06092635449058648 ) ) ;
#438 = FACE_BOUND ( 'NONE', #325, .T. ) ;
#439 = CARTESIAN_POINT ( 'NONE',  ( -19.05668644110030741, 50.03150673619644095, -16.19909563519664886 ) ) ;
#440 = EDGE_CURVE ( 'NONE', #195, #124, #50, .T. ) ;
#441 = CARTESIAN_POINT ( 'NONE',  ( -9.999999999999964473, 60.00000000001585221, -22.91287847475512152 ) ) ;
#442 = CYLINDRICAL_SURFACE ( 'NONE', #371, 15.00000000000000000 ) ;
#443 = ORIENTED_EDGE ( 'NONE', *, *, #400, .F. ) ;
#444 = AXIS2_PLACEMENT_3D ( 'NONE', #474, #422, #378 ) ;
#445 = CARTESIAN_POINT ( 'NONE',  ( 25.00000000000000000, -6.698729810778066174, -2.180604915345855430E-11 ) ) ;
#446 = PLANE ( 'NONE',  #307 ) ;
#447 = EDGE_CURVE ( 'NONE', #77, #601, #139, .T. ) ;
#448 = DIRECTION ( 'NONE',  ( 3.430248998885766176E-15, 1.000000000000000000, 6.880503111705847031E-13 ) ) ;
#449 = CARTESIAN_POINT ( 'NONE',  ( 25.00000000000000000, -6.698729810778066174, -2.180604915345855430E-11 ) ) ;
#450 = DIRECTION ( 'NONE',  ( 1.000000000000000000, -3.430248998885767753E-15, -2.360183891075939453E-27 ) ) ;
#451 = DIRECTION ( 'NONE',  ( 1.000000000000000000, -3.434752482434051226E-15, -2.398137151871857234E-27 ) ) ;
#452 = CARTESIAN_POINT ( 'NONE',  ( 11.76290598202802862, 54.31776698589514751, 22.06092635453095596 ) ) ;
#453 = CYLINDRICAL_SURFACE ( 'NONE', #557, 25.00000000000009948 ) ;
#454 = EDGE_LOOP ( 'NONE', ( #130, #526, #495, #262 ) ) ;
#455 = CARTESIAN_POINT ( 'NONE',  ( 19.05187649875844258, 50.03187835769053748, -16.20484767118960434 ) ) ;
#456 = CARTESIAN_POINT ( 'NONE',  ( 1.470826024294600825E-28, 50.00000000000006395, 1.720552953582424460E-11 ) ) ;
#457 = CARTESIAN_POINT ( 'NONE',  ( 1.470826024294600825E-28, 50.00000000000006395, 1.720552953582424460E-11 ) ) ;
#458 = ORIENTED_EDGE ( 'NONE', *, *, #345, .F. ) ;
#459 = DIRECTION ( 'NONE',  ( 1.000000000000000000, 0.000000000000000000, 0.000000000000000000 ) ) ;
#460 = PLANE ( 'NONE',  #320 ) ;
#461 = FACE_OUTER_BOUND ( 'NONE', #541, .T. ) ;
#462 = VERTEX_POINT ( 'NONE', #71 ) ;
#463 = CARTESIAN_POINT ( 'NONE',  ( 10.00000000000034461, 150.0000000000157740, -22.91287847469319416 ) ) ;
#464 = CARTESIAN_POINT ( 'NONE',  ( 13.93689095809882517, 52.04038870230011327, 20.75723747141963571 ) ) ;
#465 = B_SPLINE_CURVE_WITH_KNOTS ( 'NONE', 3,
 ( #554, #218, #612, #258, #323, #133, #227, #70, #516, #603, #79, #275, #464, #413, #270, #23, #452, #417, #550, #327, #63, #313, #183, #178, #16, #265 ),
 .UNSPECIFIED., .F., .F.,
 ( 4, 2, 2, 2, 2, 2, 2, 2, 2, 2, 2, 2, 4 ),
 ( 4.906538933386798937E-18, 0.002271251611878897115, 0.004542503223757789893, 0.005678129029697236499, 0.006813754835636682237, 0.007949380641576124507, 0.009085006447515565908, 0.01135625805939446259, 0.01249188386533390920, 0.01362750967127335580, 0.01476313547721280241, 0.01589876128315224554, 0.01817001289503111794 ),
 .UNSPECIFIED. ) ;
#466 = DIRECTION ( 'NONE',  ( 3.430248998885766176E-15, 1.000000000000000000, 6.880503111705847031E-13 ) ) ;
#467 = ORIENTED_EDGE ( 'NONE', *, *, #10, .F. ) ;
#468 = EDGE_CURVE ( 'NONE', #124, #508, #42, .T. ) ;
#469 = LINE ( 'NONE', #28, #594 ) ;
#470 = ORIENTED_EDGE ( 'NONE', *, *, #605, .F. ) ;
#471 = VECTOR ( 'NONE', #567, 1000.000000000000000 ) ;
#472 = ADVANCED_FACE ( 'NONE', ( #24 ), #366, .T. ) ;
#473 = CARTESIAN_POINT ( 'NONE',  ( 10.00000000000003730, 59.99999999998426858, 22.91287847480329631 ) ) ;
#474 = CARTESIAN_POINT ( 'NONE',  ( 1.470826024294600825E-28, 50.00000000000006395, 1.720552953582424460E-11 ) ) ;
#475 = CARTESIAN_POINT ( 'NONE',  ( -9.999999999999879208, 85.00000000000007105, 4.128729042679471950E-11 ) ) ;
#476 = CARTESIAN_POINT ( 'NONE',  ( 63.64665149901231445, -100.0000000000883489, 127.2933029978619004 ) ) ;
#477 = ORIENTED_EDGE ( 'NONE', *, *, #186, .F. ) ;
#478 = CIRCLE ( 'NONE', #434, 25.00000000000019540 ) ;
#479 = CARTESIAN_POINT ( 'NONE',  ( -13.13841407584983578, 52.69329285424690568, 21.27870237961039734 ) ) ;
#480 = ORIENTED_EDGE ( 'NONE', *, *, #159, .F. ) ;
#481 = VECTOR ( 'NONE', #260, 1000.000000000000000 ) ;
#482 =( GEOMETRIC_REPRESENTATION_CONTEXT ( 3 ) GLOBAL_UNCERTAINTY_ASSIGNED_CONTEXT ( ( #93 ) ) GLOBAL_UNIT_ASSIGNED_CONTEXT ( ( #219, #30, #215 ) ) REPRESENTATION_CONTEXT ( 'NONE', 'WORKASPACE' ) );
#483 = MANIFOLD_SOLID_BREP ( 'Body-Move/Copy1', #126 ) ;
#484 = FACE_OUTER_BOUND ( 'NONE', #68, .T. ) ;
#485 = ORIENTED_EDGE ( 'NONE', *, *, #335, .T. ) ;
#486 = DIRECTION ( 'NONE',  ( 3.430248998885766176E-15, 1.000000000000000000, 6.880503111705847031E-13 ) ) ;
#487 = CARTESIAN_POINT ( 'NONE',  ( 25.00000000000001421, -6.698729810778116800, -2.179992591946286919E-11 ) ) ;
#488 = CARTESIAN_POINT ( 'NONE',  ( -9.999999999999998224, 49.99999999998428990, 22.91287847479641471 ) ) ;
#489 = CARTESIAN_POINT ( 'NONE',  ( -18.04628363363728027, 50.17942512982587289, -17.31761082040291910 ) ) ;
#490 = FACE_OUTER_BOUND ( 'NONE', #145, .T. ) ;
#491 = EDGE_CURVE ( 'NONE', #208, #425, #421, .T. ) ;
#492 = CIRCLE ( 'NONE', #597, 15.00000000000000000 ) ;
#493 = CARTESIAN_POINT ( 'NONE',  ( 63.64665149901225760, -100.0000000000006537, -8.600201713976395969E-11 ) ) ;
#494 = CARTESIAN_POINT ( 'NONE',  ( -19.99999999999996447, 59.99999999998436095, 22.91287847480329631 ) ) ;
#495 = ORIENTED_EDGE ( 'NONE', *, *, #161, .F. ) ;
#496 = EDGE_CURVE ( 'NONE', #548, #100, #85, .T. ) ;
#497 = LINE ( 'NONE', #299, #15 ) ;
#498 = EDGE_CURVE ( 'NONE', #267, #277, #510, .T. ) ;
#499 = VECTOR ( 'NONE', #616, 1000.000000000000000 ) ;
#500 = DIRECTION ( 'NONE',  ( 0.000000000000000000, 6.880503111705847031E-13, -1.000000000000000000 ) ) ;
#501 = LINE ( 'NONE', #401, #342 ) ;
#502 = ORIENTED_EDGE ( 'NONE', *, *, #629, .T. ) ;
#503 = CARTESIAN_POINT ( 'NONE',  ( 10.00000000000027001, 60.00000000001578826, -22.91287847475512152 ) ) ;
#504 = CARTESIAN_POINT ( 'NONE',  ( -9.999999999999998224, 50.00000000001582379, -22.91287847476200312 ) ) ;
#505 = ORIENTED_EDGE ( 'NONE', *, *, #496, .T. ) ;
#506 = CARTESIAN_POINT ( 'NONE',  ( 13.93383493758914859, 52.04267795597169055, -20.75929957340036580 ) ) ;
#507 = DIRECTION ( 'NONE',  ( 3.430248998885766176E-15, 1.000000000000000000, 6.880503111705847031E-13 ) ) ;
#508 = VERTEX_POINT ( 'NONE', #140 ) ;
#509 = CARTESIAN_POINT ( 'NONE',  ( 19.54035209404371543, 50.00000000001073630, -15.61286387459135305 ) ) ;
#510 = CIRCLE ( 'NONE', #74, 25.00000000000000000 ) ;
#511 = DIRECTION ( 'NONE',  ( 1.000000000000000000, -3.430248998885768148E-15, -2.360183891075939453E-27 ) ) ;
#512 = DIRECTION ( 'NONE',  ( 3.430248998885766176E-15, 1.000000000000000000, 6.880503111705847031E-13 ) ) ;
#513 = ORIENTED_EDGE ( 'NONE', *, *, #559, .T. ) ;
#514 = PRODUCT_RELATED_PRODUCT_CATEGORY ( 'part', '', ( #338 ) ) ;
#515 = CARTESIAN_POINT ( 'NONE',  ( 10.00000000000017408, 100.0000000000000000, 5.160804509435343492E-11 ) ) ;
#516 = CARTESIAN_POINT ( 'NONE',  ( 15.58725087264795306, 51.02080700682178360, 19.54891974183662029 ) ) ;
#517 = DIRECTION ( 'NONE',  ( 1.000000000000000000, -3.430248998885767753E-15, -2.360183891075939453E-27 ) ) ;
#518 = ORIENTED_EDGE ( 'NONE', *, *, #56, .F. ) ;
#519 = CARTESIAN_POINT ( 'NONE',  ( -5.145373498328651196E-13, -100.0000000000000284, -8.600201713976353317E-11 ) ) ;
#520 = ORIENTED_EDGE ( 'NONE', *, *, #358, .T. ) ;
#521 = EDGE_CURVE ( 'NONE', #363, #601, #245, .T. ) ;
#522 = LINE ( 'NONE', #473, #300 ) ;
#523 = ORIENTED_EDGE ( 'NONE', *, *, #552, .F. ) ;
#524 = AXIS2_PLACEMENT_3D ( 'NONE', #407, #511, #165 ) ;
#525 = FACE_OUTER_BOUND ( 'NONE', #193, .T. ) ;
#526 = ORIENTED_EDGE ( 'NONE', *, *, #605, .T. ) ;
#527 = CARTESIAN_POINT ( 'NONE',  ( 9.999999999999996447, 50.00000000001583800, -22.91287847476200312 ) ) ;
#528 = ORIENTED_EDGE ( 'NONE', *, *, #358, .F. ) ;
#529 = APPLICATION_CONTEXT ( 'automotive_design' ) ;
#530 = VECTOR ( 'NONE', #533, 1000.000000000000000 ) ;
#531 = CARTESIAN_POINT ( 'NONE',  ( -20.00000000000000000, 49.99999999998986056, 15.00000000001721112 ) ) ;
#532 = CARTESIAN_POINT ( 'NONE',  ( -9.999999999999825917, 100.0000000000000711, 5.160804509435348662E-11 ) ) ;
#533 = DIRECTION ( 'NONE',  ( 0.000000000000000000, -6.880503111705847031E-13, 1.000000000000000000 ) ) ;
#534 = CARTESIAN_POINT ( 'NONE',  ( -5.547404160747811288E-13, -100.0000000000001705, -8.600201713976362365E-11 ) ) ;
#535 = LINE ( 'NONE', #488, #575 ) ;
#536 = CARTESIAN_POINT ( 'NONE',  ( -9.999999999999973355, 59.22846348500886648, -22.91287847475575390 ) ) ;
#537 = CARTESIAN_POINT ( 'NONE',  ( -25.00000000000040146, -6.698729810777898308, 1.272425911500878027E-12 ) ) ;
#538 = CARTESIAN_POINT ( 'NONE',  ( -14.21023912480560014, 51.83995391331983171, -20.57138485341851464 ) ) ;
#539 = CARTESIAN_POINT ( 'NONE',  ( -63.64665149901328078, -100.0000000000001847, -2.724731075623924219E-11 ) ) ;
#540 = APPLICATION_PROTOCOL_DEFINITION ( 'draft international standard', 'automotive_design', 1998, #529 ) ;
#541 = EDGE_LOOP ( 'NONE', ( #604, #238 ) ) ;
#542 = DIRECTION ( 'NONE',  ( 0.000000000000000000, 0.000000000000000000, 1.000000000000000000 ) ) ;
#543 = DIRECTION ( 'NONE',  ( 1.000000000000000000, -3.430248998885768148E-15, -2.360183891075939453E-27 ) ) ;
#544 = CARTESIAN_POINT ( 'NONE',  ( -11.36471361680212411, 54.94338858845941331, -22.26867111365949015 ) ) ;
#545 = CARTESIAN_POINT ( 'NONE',  ( 25.00000000000001066, -6.698729810743667024, -50.00000000006839684 ) ) ;
#546 = CARTESIAN_POINT ( 'NONE',  ( 20.00000000000000000, 50.00000000001035971, -14.99999999998280131 ) ) ;
#547 = DIRECTION ( 'NONE',  ( -3.430248998885766176E-15, -1.000000000000000000, -6.880503111705847031E-13 ) ) ;
#548 = VERTEX_POINT ( 'NONE', #377 ) ;
#549 = DIRECTION ( 'NONE',  ( 0.000000000000000000, 6.880503111705847031E-13, -1.000000000000000000 ) ) ;
#550 = CARTESIAN_POINT ( 'NONE',  ( 11.18332432234091733, 55.26669223907942552, 22.35992858665924388 ) ) ;
#551 = ORIENTED_EDGE ( 'NONE', *, *, #339, .T. ) ;
#552 = EDGE_CURVE ( 'NONE', #508, #195, #576, .T. ) ;
#553 = FACE_OUTER_BOUND ( 'NONE', #614, .T. ) ;
#554 = CARTESIAN_POINT ( 'NONE',  ( 20.00000000000000000, 49.99999999998971845, 15.00000000001721112 ) ) ;
#555 = SURFACE_STYLE_USAGE ( .BOTH. , #184 ) ;
#556 = ORIENTED_EDGE ( 'NONE', *, *, #623, .F. ) ;
#557 = AXIS2_PLACEMENT_3D ( 'NONE', #375, #507, #414 ) ;
#558 = CARTESIAN_POINT ( 'NONE',  ( 15.02800557802893877, 51.31794645985284831, -19.98204773227279318 ) ) ;
#559 = EDGE_CURVE ( 'NONE', #462, #197, #344, .T. ) ;
#560 = AXIS2_PLACEMENT_3D ( 'NONE', #494, #306, #246 ) ;
#561 = APPLICATION_CONTEXT ( 'automotive_design' ) ;
#562 = CIRCLE ( 'NONE', #290, 15.00000000000000000 ) ;
#563 = CARTESIAN_POINT ( 'NONE',  ( -9.999999999999655387, 149.9999999999843112, 22.91287847486522011 ) ) ;
#564 = DIRECTION ( 'NONE',  ( -1.000000000000000000, -0.000000000000000000, 0.000000000000000000 ) ) ;
#565 = ORIENTED_EDGE ( 'NONE', *, *, #61, .F. ) ;
#566 = EDGE_CURVE ( 'NONE', #153, #197, #562, .T. ) ;
#567 = DIRECTION ( 'NONE',  ( -0.000000000000000000, -6.880503111705847031E-13, 1.000000000000000000 ) ) ;
#568 = DIRECTION ( 'NONE',  ( 3.430248998885767753E-15, 1.000000000000000000, 6.880503111705847031E-13 ) ) ;
#569 = ORIENTED_EDGE ( 'NONE', *, *, #610, .T. ) ;
#570 = CARTESIAN_POINT ( 'NONE',  ( -9.999999999999655387, 149.9999999999843112, 22.91287847486522011 ) ) ;
#571 = ORIENTED_EDGE ( 'NONE', *, *, #496, .F. ) ;
#572 = CARTESIAN_POINT ( 'NONE',  ( -10.85215055985091048, 55.94357174240577280, 22.52251699280013142 ) ) ;
#573 = AXIS2_PLACEMENT_3D ( 'NONE', #362, #187, #136 ) ;
#574 = CARTESIAN_POINT ( 'NONE',  ( 2.941652048589201649E-28, 50.00000000000010658, 1.720552953582427691E-11 ) ) ;
#575 = VECTOR ( 'NONE', #33, 1000.000000000000000 ) ;
#576 = LINE ( 'NONE', #578, #591 ) ;
#577 = ORIENTED_EDGE ( 'NONE', *, *, #61, .T. ) ;
#578 = CARTESIAN_POINT ( 'NONE',  ( 20.00000000000000000, 49.99999999999999289, 1.720552953582419613E-11 ) ) ;
#579 = ORIENTED_EDGE ( 'NONE', *, *, #521, .T. ) ;
#580 = AXIS2_PLACEMENT_3D ( 'NONE', #117, #364, #459 ) ;
#581 = CARTESIAN_POINT ( 'NONE',  ( -9.999999999999774403, 115.0000000000000711, 6.192696279171354141E-11 ) ) ;
#582 = VERTEX_POINT ( 'NONE', #527 ) ;
#583 = CARTESIAN_POINT ( 'NONE',  ( -4.743342835909500192E-13, -100.0000000000001705, -8.600201713976363657E-11 ) ) ;
#584 = ADVANCED_FACE ( 'NONE', ( #525 ), #286, .F. ) ;
#585 = CARTESIAN_POINT ( 'NONE',  ( -17.51938513531476005, 50.29560880327473171, -17.85006891454387201 ) ) ;
#586 = CARTESIAN_POINT ( 'NONE',  ( 10.00000000000034461, 149.9999999999842544, 22.91287847486522011 ) ) ;
#587 = PRODUCT_DEFINITION_CONTEXT ( 'detailed design', #561, 'design' ) ;
#588 = B_SPLINE_CURVE_WITH_KNOTS ( 'NONE', 3,
 ( #251, #7, #439, #489, #585, #635, #252, #248, #105, #302, #348, #538, #347, #212, #209, #55, #437, #544, #202, #205, #305, #162, #394, #150, #536, #441 ),
 .UNSPECIFIED., .F., .F.,
 ( 4, 2, 2, 2, 2, 2, 2, 2, 2, 2, 2, 2, 4 ),
 ( 4.906538933386795855E-18, 0.002271251611878897549, 0.004542503223757790760, 0.005678129029697236499, 0.006813754835636683105, 0.007949380641576129711, 0.009085006447515576317, 0.01135625805939447300, 0.01249188386533391440, 0.01362750967127335754, 0.01476313547721279894, 0.01589876128315223860, 0.01817001289503110406 ),
 .UNSPECIFIED. ) ;
#589 = CARTESIAN_POINT ( 'NONE',  ( -5.547404160748821030E-13, -100.0000000000000426, -8.608242327224738094E-11 ) ) ;
#590 = ORIENTED_EDGE ( 'NONE', *, *, #41, .T. ) ;
#591 = VECTOR ( 'NONE', #144, 1000.000000000000000 ) ;
#592 = CARTESIAN_POINT ( 'NONE',  ( -4.743342835909491104E-13, -100.0000000000000426, -8.608242327224741972E-11 ) ) ;
#593 = CARTESIAN_POINT ( 'NONE',  ( 10.00000000000027001, 59.22979435002308435, -22.91287847475565087 ) ) ;
#594 = VECTOR ( 'NONE', #230, 1000.000000000000000 ) ;
#595 = ORIENTED_EDGE ( 'NONE', *, *, #379, .T. ) ;
#596 = CARTESIAN_POINT ( 'NONE',  ( 13.13841407584985177, 52.69329285427609477, -21.27870237957229094 ) ) ;
#597 = AXIS2_PLACEMENT_3D ( 'NONE', #532, #147, #346 ) ;
#598 = CYLINDRICAL_SURFACE ( 'NONE', #524, 15.00000000000000000 ) ;
#599 = CARTESIAN_POINT ( 'NONE',  ( -10.34494073580748896, 57.36876965073633272, 22.75941639122044435 ) ) ;
#600 = ADVANCED_FACE ( 'NONE', ( #484 ), #274, .T. ) ;
#601 = VERTEX_POINT ( 'NONE', #148 ) ;
#602 = CARTESIAN_POINT ( 'NONE',  ( 10.85215055985094956, 55.94357174243670272, -22.52251699275753438 ) ) ;
#603 = CARTESIAN_POINT ( 'NONE',  ( 15.03353059810923931, 51.31481471989419418, 19.97787803034573528 ) ) ;
#604 = ORIENTED_EDGE ( 'NONE', *, *, #41, .F. ) ;
#605 = EDGE_CURVE ( 'NONE', #292, #137, #522, .T. ) ;
#606 = CARTESIAN_POINT ( 'NONE',  ( 11.35838197093651480, 54.95441247920108196, -22.27187923202633968 ) ) ;
#607 = DIRECTION ( 'NONE',  ( 1.000000000000000000, -3.430248998885768148E-15, -2.360183891075939453E-27 ) ) ;
#608 = ORIENTED_EDGE ( 'NONE', *, *, #264, .F. ) ;
#609 = CARTESIAN_POINT ( 'NONE',  ( -9.999999999999998224, 49.99999999998437517, 22.91287847479641115 ) ) ;
#610 = EDGE_CURVE ( 'NONE', #628, #289, #167, .T. ) ;
#611 = CIRCLE ( 'NONE', #168, 25.00000000000000000 ) ;
#612 = CARTESIAN_POINT ( 'NONE',  ( 19.05668644110030385, 50.03150673617400912, 16.19909563523110307 ) ) ;
#613 = DIRECTION ( 'NONE',  ( 3.430248998885767753E-15, 1.000000000000000000, 6.880503111705847031E-13 ) ) ;
#614 = EDGE_LOOP ( 'NONE', ( #480, #523, #625, #470 ) ) ;
#615 = FILL_AREA_STYLE ('',( #418 ) ) ;
#616 = DIRECTION ( 'NONE',  ( -3.430248998885766176E-15, -1.000000000000000000, -6.880503111705847031E-13 ) ) ;
#617 = CARTESIAN_POINT ( 'NONE',  ( 3.430248998885767296E-13, 150.0000000000000568, 8.601056065288270602E-11 ) ) ;
#618 = ORIENTED_EDGE ( 'NONE', *, *, #56, .T. ) ;
#619 =( GEOMETRIC_REPRESENTATION_CONTEXT ( 3 ) GLOBAL_UNCERTAINTY_ASSIGNED_CONTEXT ( ( #298 ) ) GLOBAL_UNIT_ASSIGNED_CONTEXT ( ( #101, #633, #155 ) ) REPRESENTATION_CONTEXT ( 'NONE', 'WORKASPACE' ) );
#620 = CARTESIAN_POINT ( 'NONE',  ( -4.743342835909247756E-13, -100.0000000000001990, -8.592161100727984050E-11 ) ) ;
#621 = STYLED_ITEM ( 'NONE', ( #373 ), #483 ) ;
#622 = ORIENTED_EDGE ( 'NONE', *, *, #10, .T. ) ;
#623 = EDGE_CURVE ( 'NONE', #267, #548, #497, .T. ) ;
#624 = CARTESIAN_POINT ( 'NONE',  ( 63.64665149901234287, -100.0000000000007532, -8.598642820615708471E-11 ) ) ;
#625 = ORIENTED_EDGE ( 'NONE', *, *, #335, .F. ) ;
#626 = EDGE_CURVE ( 'NONE', #77, #45, #588, .T. ) ;
#627 = CARTESIAN_POINT ( 'NONE',  ( -15.02800557802892456, 51.31794645982544267, 19.98204773230902020 ) ) ;
#628 = VERTEX_POINT ( 'NONE', #449 ) ;
#629 = EDGE_CURVE ( 'NONE', #425, #308, #404, .T. ) ;
#630 = AXIS2_PLACEMENT_3D ( 'NONE', #268, #549, #326 ) ;
#631 = CARTESIAN_POINT ( 'NONE',  ( 2.941652048589201649E-28, 50.00000000000010658, 1.720552953582427691E-11 ) ) ;
#632 = DIRECTION ( 'NONE',  ( 1.000000000000000000, -3.330669073875469621E-15, -2.398137151871875888E-27 ) ) ;
#633 =( NAMED_UNIT ( * ) PLANE_ANGLE_UNIT ( ) SI_UNIT ( $, .RADIAN. ) );
#634 = CARTESIAN_POINT ( 'NONE',  ( -25.00000000004656187, -6.698729810743495605, -50.00000000004531131 ) ) ;
#635 = CARTESIAN_POINT ( 'NONE',  ( -16.69979692697540230, 50.55591061414023812, -18.60793477365640314 ) ) ;
ENDSEC;
END-ISO-10303-21;
