ISO-10303-21;
HEADER;
FILE_DESCRIPTION (( 'STEP AP214' ),
    '1' );
FILE_NAME ('N406_structure.STEP',
    '2026-01-16T01:58:47',
    ( '' ),
    ( '' ),
    'SwSTEP 2.0',
    'SolidWorks 2024',
    '' );
FILE_SCHEMA (( 'AUTOMOTIVE_DESIGN' ));
ENDSEC;

DATA;
#1 = CARTESIAN_POINT ( 'NONE',  ( -19.99999999999999645, 24.99999999999403499, 15.00000000000498446 ) ) ;
#2 = CARTESIAN_POINT ( 'NONE',  ( 20.00000000000000355, 24.99999999999403499, 15.00000000000497380 ) ) ;
#3 = ORIENTED_EDGE ( 'NONE', *, *, #639, .T. ) ;
#4 = CARTESIAN_POINT ( 'NONE',  ( -9.999999999999998224, 35.00000000000913047, -22.91287847477023831 ) ) ;
#5 = DIRECTION ( 'NONE',  ( 1.000000000000000000, 0.000000000000000000, 0.000000000000000000 ) ) ;
#6 = CYLINDRICAL_SURFACE ( 'NONE', #370, 14.99999999999999822 ) ;
#7 = ORIENTED_EDGE ( 'NONE', *, *, #261, .T. ) ;
#8 = CARTESIAN_POINT ( 'NONE',  ( 20.00000000000000355, 25.00000000000000711, 4.978222695184442159E-12 ) ) ;
#9 = CARTESIAN_POINT ( 'NONE',  ( -9.999999999999980460, 34.99999999999087663, 22.91287847478816886 ) ) ;
#10 = LINE ( 'NONE', #19, #408 ) ;
#11 = CARTESIAN_POINT ( 'NONE',  ( -12.64297035140180192, 28.18874439511942853, 21.57362388880025250 ) ) ;
#12 = DIRECTION ( 'NONE',  ( -1.000000000000000000, 0.000000000000000000, 0.000000000000000000 ) ) ;
#13 = CARTESIAN_POINT ( 'NONE',  ( -14.20546664220678856, 26.84335771783827695, 20.57467106830247516 ) ) ;
#14 = DIRECTION ( 'NONE',  ( 0.000000000000000000, -1.000000000000000000, -3.982092433574281231E-13 ) ) ;
#15 = DIRECTION ( 'NONE',  ( 1.000000000000000000, 0.000000000000000000, 0.000000000000000000 ) ) ;
#16 = CARTESIAN_POINT ( 'NONE',  ( 13.13841407584982868, 27.69329285426995568, -21.27870237958520150 ) ) ;
#17 = ADVANCED_FACE ( 'NONE', ( #381 ), #137, .T. ) ;
#18 = VECTOR ( 'NONE', #180, 1000.000000000000000 ) ;
#19 = CARTESIAN_POINT ( 'NONE',  ( 9.999999999999996447, 25.00000000000913403, -22.91287847477422090 ) ) ;
#20 = CIRCLE ( 'NONE', #48, 50.00000000000000000 ) ;
#21 = ORIENTED_EDGE ( 'NONE', *, *, #639, .F. ) ;
#22 = CARTESIAN_POINT ( 'NONE',  ( 10.08781882418733922, 33.47591518565043600, -22.87512283139059122 ) ) ;
#23 = CARTESIAN_POINT ( 'NONE',  ( 10.00000000000000178, 75.00000000000001421, 2.488868486305584327E-11 ) ) ;
#24 = ORIENTED_EDGE ( 'NONE', *, *, #169, .F. ) ;
#25 = CARTESIAN_POINT ( 'NONE',  ( 17.51173008777525197, 25.29775834434289195, -17.85739381281024762 ) ) ;
#26 = PRODUCT_CONTEXT ( 'NONE', #629, 'mechanical' ) ;
#27 = EDGE_CURVE ( 'NONE', #330, #178, #494, .T. ) ;
#28 = VERTEX_POINT ( 'NONE', #385 ) ;
#29 = APPLICATION_PROTOCOL_DEFINITION ( 'draft international standard', 'automotive_design', 1998, #453 ) ;
#30 = ORIENTED_EDGE ( 'NONE', *, *, #403, .T. ) ;
#31 = AXIS2_PLACEMENT_3D ( 'NONE', #114, #505, #61 ) ;
#32 = DIRECTION ( 'NONE',  ( 1.000000000000000000, 0.000000000000000000, 0.000000000000000000 ) ) ;
#33 = VERTEX_POINT ( 'NONE', #141 ) ;
#34 = CARTESIAN_POINT ( 'NONE',  ( 9.999999999999996447, 25.00000000000913403, -22.91287847477422090 ) ) ;
#35 = EDGE_LOOP ( 'NONE', ( #215, #227 ) ) ;
#36 = EDGE_CURVE ( 'NONE', #476, #33, #543, .T. ) ;
#37 = CARTESIAN_POINT ( 'NONE',  ( -13.14329927628808647, 27.68888050691014868, -21.27564410827400110 ) ) ;
#38 = ORIENTED_EDGE ( 'NONE', *, *, #394, .T. ) ;
#39 = CARTESIAN_POINT ( 'NONE',  ( -18.03830236948230237, 25.18093030596769566, 17.32601321130342953 ) ) ;
#40 = CARTESIAN_POINT ( 'NONE',  ( 0.000000000000000000, 25.00000000000000711, 4.978222695184442159E-12 ) ) ;
#41 = VERTEX_POINT ( 'NONE', #144 ) ;
#42 = CARTESIAN_POINT ( 'NONE',  ( 6.123233995736766085E-15, -49.99999999998006928, -50.00000000002489031 ) ) ;
#43 = PLANE ( 'NONE',  #186 ) ;
#44 = EDGE_CURVE ( 'NONE', #589, #224, #301, .T. ) ;
#45 = DIRECTION ( 'NONE',  ( -0.000000000000000000, 1.000000000000000000, 3.982092433574280726E-13 ) ) ;
#46 = CARTESIAN_POINT ( 'NONE',  ( -10.85647049756301818, 30.93381744108030773, -22.52043955240304740 ) ) ;
#47 = CARTESIAN_POINT ( 'NONE',  ( -9.999999999999998224, 75.00000000000598277, -14.99999999997511324 ) ) ;
#48 = AXIS2_PLACEMENT_3D ( 'NONE', #245, #445, #557 ) ;
#49 = ORIENTED_EDGE ( 'NONE', *, *, #591, .T. ) ;
#50 = CARTESIAN_POINT ( 'NONE',  ( 0.000000000000000000, 25.00000000000000711, 4.978222695184442159E-12 ) ) ;
#51 = DIRECTION ( 'NONE',  ( -0.000000000000000000, 1.000000000000000000, 3.982092433574281231E-13 ) ) ;
#52 = DIRECTION ( 'NONE',  ( 0.000000000000000000, -3.978299171573478276E-13, 1.000000000000000000 ) ) ;
#53 = ORIENTED_EDGE ( 'NONE', *, *, #250, .F. ) ;
#54 = CARTESIAN_POINT ( 'NONE',  ( 11.75274981885101155, 29.33269199355900270, -22.06631634912761442 ) ) ;
#55 = DIRECTION ( 'NONE',  ( -0.000000000000000000, 1.000000000000000000, 3.982092433574281231E-13 ) ) ;
#56 = CARTESIAN_POINT ( 'NONE',  ( 0.000000000000000000, -49.99999999999997158, -2.488747055662265627E-11 ) ) ;
#57 = EDGE_CURVE ( 'NONE', #512, #218, #547, .T. ) ;
#58 = DIRECTION ( 'NONE',  ( 0.000000000000000000, -3.981537322061967643E-13, 1.000000000000000000 ) ) ;
#59 = DIRECTION ( 'NONE',  ( 1.000000000000000000, 0.000000000000000000, 0.000000000000000000 ) ) ;
#60 = ADVANCED_BREP_SHAPE_REPRESENTATION ( 'N406_structure', ( #263, #312 ), #294 ) ;
#61 = DIRECTION ( 'NONE',  ( 0.000000000000000000, -3.981537322061967643E-13, 1.000000000000000000 ) ) ;
#62 = CARTESIAN_POINT ( 'NONE',  ( -9.999999999999998224, 25.00000000000913403, -22.91287847477422090 ) ) ;
#63 = DIRECTION ( 'NONE',  ( -0.000000000000000000, 1.000000000000000000, 3.982092433574281231E-13 ) ) ;
#64 = ADVANCED_FACE ( 'NONE', ( #297 ), #6, .F. ) ;
#65 = EDGE_CURVE ( 'NONE', #185, #230, #20, .T. ) ;
#66 = PLANE ( 'NONE',  #607 ) ;
#67 = FACE_OUTER_BOUND ( 'NONE', #620, .T. ) ;
#68 = EDGE_LOOP ( 'NONE', ( #576, #472, #115, #532, #519, #621, #535, #88, #422, #420 ) ) ;
#69 = LINE ( 'NONE', #221, #548 ) ;
#70 = CARTESIAN_POINT ( 'NONE',  ( -9.999999999999998224, 75.00000000000001421, 2.488868486305584327E-11 ) ) ;
#71 = AXIS2_PLACEMENT_3D ( 'NONE', #579, #199, #588 ) ;
#72 = EDGE_LOOP ( 'NONE', ( #460, #189 ) ) ;
#73 = DIRECTION ( 'NONE',  ( 0.000000000000000000, -3.982925100842749594E-13, 1.000000000000000000 ) ) ;
#74 = ORIENTED_EDGE ( 'NONE', *, *, #57, .T. ) ;
#75 = CARTESIAN_POINT ( 'NONE',  ( 11.35838197093649171, 29.95441247919463379, -22.27187923203990039 ) ) ;
#76 = ORIENTED_EDGE ( 'NONE', *, *, #394, .F. ) ;
#77 = DIRECTION ( 'NONE',  ( -1.000000000000000000, 0.000000000000000000, 0.000000000000000000 ) ) ;
#78 = AXIS2_PLACEMENT_3D ( 'NONE', #260, #564, #73 ) ;
#79 = AXIS2_PLACEMENT_3D ( 'NONE', #50, #379, #331 ) ;
#80 = ORIENTED_EDGE ( 'NONE', *, *, #433, .T. ) ;
#81 = DIRECTION ( 'NONE',  ( 1.000000000000000000, 0.000000000000000000, 0.000000000000000000 ) ) ;
#82 = ORIENTED_EDGE ( 'NONE', *, *, #278, .T. ) ;
#83 = EDGE_CURVE ( 'NONE', #480, #220, #604, .T. ) ;
#84 = CARTESIAN_POINT ( 'NONE',  ( -16.42080910447883113, 25.65761888205910424, -18.85442750626549469 ) ) ;
#85 = EDGE_LOOP ( 'NONE', ( #49, #616 ) ) ;
#86 = DIRECTION ( 'NONE',  ( -0.000000000000000000, 1.000000000000000000, 3.982092433574280726E-13 ) ) ;
#87 = DIRECTION ( 'NONE',  ( 0.000000000000000000, 3.982092433574280726E-13, -1.000000000000000000 ) ) ;
#88 = ORIENTED_EDGE ( 'NONE', *, *, #169, .T. ) ;
#89 = EDGE_CURVE ( 'NONE', #175, #364, #391, .T. ) ;
#90 = FACE_BOUND ( 'NONE', #120, .T. ) ;
#91 = DIRECTION ( 'NONE',  ( 1.000000000000000000, 0.000000000000000000, 0.000000000000000000 ) ) ;
#92 = ORIENTED_EDGE ( 'NONE', *, *, #104, .T. ) ;
#93 = DIRECTION ( 'NONE',  ( 0.000000000000000000, -3.981537322061968148E-13, 1.000000000000000000 ) ) ;
#94 = CARTESIAN_POINT ( 'NONE',  ( 0.000000000000000000, 125.0000000000000000, 4.479914703092724437E-11 ) ) ;
#95 = EDGE_CURVE ( 'NONE', #573, #560, #340, .T. ) ;
#96 = ORIENTED_EDGE ( 'NONE', *, *, #261, .F. ) ;
#97 = FACE_OUTER_BOUND ( 'NONE', #68, .T. ) ;
#98 = CARTESIAN_POINT ( 'NONE',  ( 15.58725087264790687, 26.02080700682748926, 19.54891974182401171 ) ) ;
#99 = CIRCLE ( 'NONE', #462, 24.99999999999999645 ) ;
#100 = DIRECTION ( 'NONE',  ( 1.000000000000000000, 0.000000000000000000, 0.000000000000000000 ) ) ;
#101 = CIRCLE ( 'NONE', #166, 14.99999999999999822 ) ;
#102 = CARTESIAN_POINT ( 'NONE',  ( 9.999999999999980460, 24.99999999999088374, 22.91287847478418627 ) ) ;
#103 = DIRECTION ( 'NONE',  ( 0.000000000000000000, -3.981537322061968148E-13, 1.000000000000000000 ) ) ;
#104 = EDGE_CURVE ( 'NONE', #589, #573, #255, .T. ) ;
#105 = CARTESIAN_POINT ( 'NONE',  ( 10.45757799522174736, 31.98608046455905196, 22.70811802772998789 ) ) ;
#106 = CARTESIAN_POINT ( 'NONE',  ( -13.93383493758909886, 27.04267795594915924, 20.75929957342465926 ) ) ;
#107 = CARTESIAN_POINT ( 'NONE',  ( 11.97647981198267075, 29.02073785510116721, 21.94606981416417923 ) ) ;
#108 = CARTESIAN_POINT ( 'NONE',  ( -10.34494073580751028, 32.36876965074285550, 22.75941639120596349 ) ) ;
#109 = VECTOR ( 'NONE', #344, 1000.000000000000000 ) ;
#110 = ORIENTED_EDGE ( 'NONE', *, *, #590, .T. ) ;
#111 = CARTESIAN_POINT ( 'NONE',  ( 10.34914623737140182, 32.35286391318844323, 22.75751032678683572 ) ) ;
#112 = EDGE_CURVE ( 'NONE', #560, #325, #299, .T. ) ;
#113 = EDGE_LOOP ( 'NONE', ( #600, #92, #172, #38 ) ) ;
#114 = CARTESIAN_POINT ( 'NONE',  ( 0.000000000000000000, -49.99999999999997158, -2.488747055662265627E-11 ) ) ;
#115 = ORIENTED_EDGE ( 'NONE', *, *, #197, .T. ) ;
#116 = FACE_OUTER_BOUND ( 'NONE', #571, .T. ) ;
#117 = ORIENTED_EDGE ( 'NONE', *, *, #205, .T. ) ;
#118 = CARTESIAN_POINT ( 'NONE',  ( 9.999999999999996447, 35.00000000000913047, -22.91287847477023831 ) ) ;
#119 = DIRECTION ( 'NONE',  ( 0.000000000000000000, -3.978299171573478276E-13, 1.000000000000000000 ) ) ;
#120 = EDGE_LOOP ( 'NONE', ( #96, #337 ) ) ;
#121 = CARTESIAN_POINT ( 'NONE',  ( -9.999999999999998224, 34.99999999999087663, 22.91287847478816886 ) ) ;
#122 = ORIENTED_EDGE ( 'NONE', *, *, #242, .F. ) ;
#123 = ORIENTED_EDGE ( 'NONE', *, *, #83, .T. ) ;
#124 = CARTESIAN_POINT ( 'NONE',  ( 0.000000000000000000, 0.000000000000000000, 0.000000000000000000 ) ) ;
#125 = AXIS2_PLACEMENT_3D ( 'NONE', #439, #592, #626 ) ;
#126 = CARTESIAN_POINT ( 'NONE',  ( -9.999999999999980460, 34.99999999999087663, 22.91287847478816886 ) ) ;
#127 = EDGE_CURVE ( 'NONE', #28, #196, #148, .T. ) ;
#128 = ORIENTED_EDGE ( 'NONE', *, *, #278, .F. ) ;
#129 = CIRCLE ( 'NONE', #498, 14.99999999999999822 ) ;
#130 = ORIENTED_EDGE ( 'NONE', *, *, #477, .F. ) ;
#131 = FACE_OUTER_BOUND ( 'NONE', #275, .T. ) ;
#132 = FACE_BOUND ( 'NONE', #35, .T. ) ;
#133 = ORIENTED_EDGE ( 'NONE', *, *, #326, .F. ) ;
#134 = EDGE_CURVE ( 'NONE', #580, #410, #609, .T. ) ;
#135 = CYLINDRICAL_SURFACE ( 'NONE', #351, 24.99999999999999645 ) ;
#136 = FACE_OUTER_BOUND ( 'NONE', #113, .T. ) ;
#137 = PLANE ( 'NONE',  #350 ) ;
#138 = AXIS2_PLACEMENT_3D ( 'NONE', #424, #179, #523 ) ;
#139 = CARTESIAN_POINT ( 'NONE',  ( -19.05187649875836797, 25.03187835767294800, 16.20484767121176617 ) ) ;
#140 = PLANE ( 'NONE',  #552 ) ;
#141 = CARTESIAN_POINT ( 'NONE',  ( 10.00000000000000178, 75.00000000000598277, -14.99999999997511324 ) ) ;
#142 = CARTESIAN_POINT ( 'NONE',  ( -17.51938513531469965, 25.29560880326944527, -17.85006891455610756 ) ) ;
#143 = CARTESIAN_POINT ( 'NONE',  ( -9.999999999999998224, 24.99999999999088374, 22.91287847478418627 ) ) ;
#144 = CARTESIAN_POINT ( 'NONE',  ( -9.999999999999998224, 74.99999999999404565, 15.00000000002488498 ) ) ;
#145 = DIRECTION ( 'NONE',  ( 0.000000000000000000, -3.982092433574281231E-13, 1.000000000000000000 ) ) ;
#146 = DIRECTION ( 'NONE',  ( 0.000000000000000000, -3.981537322061968148E-13, 1.000000000000000000 ) ) ;
#147 = EDGE_CURVE ( 'NONE', #325, #175, #504, .T. ) ;
#148 = CIRCLE ( 'NONE', #210, 24.99999999999999645 ) ;
#149 = CARTESIAN_POINT ( 'NONE',  ( -9.999999999999998224, 124.9999999999908766, 22.91287847482400863 ) ) ;
#150 = CARTESIAN_POINT ( 'NONE',  ( -9.999999999999998224, 125.0000000000091092, -22.91287847473439854 ) ) ;
#151 = B_SPLINE_CURVE_WITH_KNOTS ( 'NONE', 3,
 ( #359, #264, #22, #352, #295, #402, #307, #499, #75, #54, #246, #617, #16, #448, #407, #610, #216, #467, #208, #25, #219, #415, #171, #362 ),
 .UNSPECIFIED., .F., .F.,
 ( 4, 2, 2, 2, 2, 2, 2, 2, 2, 2, 2, 4 ),
 ( 0.000000000000000000, 0.002277627136900157827, 0.003416440705350246281, 0.004555254273800334736, 0.005694067842250423624, 0.006832881410700511644, 0.009110508547600688553, 0.01024932211605077831, 0.01138813568450087153, 0.01366576282140103890, 0.01594338995830121147, 0.01822101709520138058 ),
 .UNSPECIFIED. ) ;
#152 = CARTESIAN_POINT ( 'NONE',  ( -11.35838197093648638, 29.95441247917689864, 22.27187923205380571 ) ) ;
#153 = CARTESIAN_POINT ( 'NONE',  ( 10.71099896338736102, 31.27763671504103016, 22.58968930936772423 ) ) ;
#154 = CARTESIAN_POINT ( 'NONE',  ( -9.999999999999998224, 75.00000000000001421, 2.488868486305584327E-11 ) ) ;
#155 = ADVANCED_FACE ( 'NONE', ( #131, #90 ), #190, .T. ) ;
#156 = CARTESIAN_POINT ( 'NONE',  ( 10.00000000000000178, 34.99999999999087663, 22.91287847478816886 ) ) ;
#157 = VECTOR ( 'NONE', #237, 1000.000000000000000 ) ;
#158 = CARTESIAN_POINT ( 'NONE',  ( 10.00000000000000178, 74.99999999999404565, 15.00000000002488498 ) ) ;
#159 = ADVANCED_FACE ( 'NONE', ( #97 ), #135, .T. ) ;
#160 = DIRECTION ( 'NONE',  ( -0.000000000000000000, 1.000000000000000000, 3.982092433574281231E-13 ) ) ;
#161 = AXIS2_PLACEMENT_3D ( 'NONE', #23, #615, #119 ) ;
#162 = PRODUCT_DEFINITION_CONTEXT ( 'detailed design', #453, 'design' ) ;
#163 = ORIENTED_EDGE ( 'NONE', *, *, #403, .F. ) ;
#164 = SURFACE_SIDE_STYLE ('',( #549 ) ) ;
#165 = DIRECTION ( 'NONE',  ( -0.000000000000000000, 1.000000000000000000, 3.982092433574281231E-13 ) ) ;
#166 = AXIS2_PLACEMENT_3D ( 'NONE', #184, #550, #239 ) ;
#167 = ORIENTED_EDGE ( 'NONE', *, *, #590, .F. ) ;
#168 = LINE ( 'NONE', #513, #241 ) ;
#169 = EDGE_CURVE ( 'NONE', #364, #220, #413, .T. ) ;
#170 = ORIENTED_EDGE ( 'NONE', *, *, #497, .F. ) ;
#171 = CARTESIAN_POINT ( 'NONE',  ( 19.54035209404364082, 25.00000000000621725, -15.61286387460349978 ) ) ;
#172 = ORIENTED_EDGE ( 'NONE', *, *, #95, .T. ) ;
#173 = CIRCLE ( 'NONE', #214, 24.99999999999999645 ) ;
#174 = CARTESIAN_POINT ( 'NONE',  ( 10.00000000000000178, 124.9999999999908766, 22.91287847482400863 ) ) ;
#175 = VERTEX_POINT ( 'NONE', #1 ) ;
#176 = ADVANCED_FACE ( 'NONE', ( #485 ), #383, .T. ) ;
#177 = DIRECTION ( 'NONE',  ( 0.000000000000000000, 0.000000000000000000, 1.000000000000000000 ) ) ;
#178 = VERTEX_POINT ( 'NONE', #335 ) ;
#179 = DIRECTION ( 'NONE',  ( 0.000000000000000000, 3.982092433574281231E-13, -1.000000000000000000 ) ) ;
#180 = DIRECTION ( 'NONE',  ( 0.000000000000000000, 3.982092433574281231E-13, -1.000000000000000000 ) ) ;
#181 = ORIENTED_EDGE ( 'NONE', *, *, #27, .T. ) ;
#182 = VECTOR ( 'NONE', #213, 1000.000000000000000 ) ;
#183 = CARTESIAN_POINT ( 'NONE',  ( -11.18332432234088358, 30.26669223910372608, -22.35992858663124139 ) ) ;
#184 = CARTESIAN_POINT ( 'NONE',  ( 10.00000000000000178, 75.00000000000001421, 2.488868486305584327E-11 ) ) ;
#185 = VERTEX_POINT ( 'NONE', #42 ) ;
#186 = AXIS2_PLACEMENT_3D ( 'NONE', #94, #332, #390 ) ;
#187 = CARTESIAN_POINT ( 'NONE',  ( -15.03353059810918957, 26.31481471991591192, -19.97787803032204224 ) ) ;
#188 = CARTESIAN_POINT ( 'NONE',  ( 20.00000000000000355, 24.99999999999403499, 15.00000000000497380 ) ) ;
#189 = ORIENTED_EDGE ( 'NONE', *, *, #423, .T. ) ;
#190 = PLANE ( 'NONE',  #427 ) ;
#191 = CARTESIAN_POINT ( 'NONE',  ( 0.000000000000000000, 25.00000000000000711, 4.978222695184442159E-12 ) ) ;
#192 = DIRECTION ( 'NONE',  ( 0.000000000000000000, -3.981537322061968148E-13, 1.000000000000000000 ) ) ;
#193 = VECTOR ( 'NONE', #300, 1000.000000000000000 ) ;
#194 = CARTESIAN_POINT ( 'NONE',  ( 9.999999999999980460, 24.99999999999088374, 22.91287847478418627 ) ) ;
#195 = CARTESIAN_POINT ( 'NONE',  ( 19.54022503649320441, 24.99999999999379341, 15.61303328468070717 ) ) ;
#196 = VERTEX_POINT ( 'NONE', #194 ) ;
#197 = EDGE_CURVE ( 'NONE', #410, #28, #581, .T. ) ;
#198 = CARTESIAN_POINT ( 'NONE',  ( -18.04628363363722698, 25.17942512982073922, -17.31761082041512267 ) ) ;
#199 = DIRECTION ( 'NONE',  ( 0.000000000000000000, -3.982092433574280726E-13, 1.000000000000000000 ) ) ;
#200 = CARTESIAN_POINT ( 'NONE',  ( -19.99999999999999645, 25.00000000000000711, 4.978222695184442159E-12 ) ) ;
#201 = CARTESIAN_POINT ( 'NONE',  ( -9.999999999999998224, 124.9999999999908766, 22.91287847482400863 ) ) ;
#202 = CARTESIAN_POINT ( 'NONE',  ( -11.17802233047723703, 30.27660401966493353, 22.36257499134095994 ) ) ;
#203 = DIRECTION ( 'NONE',  ( 0.000000000000000000, -3.982092433574281231E-13, 1.000000000000000000 ) ) ;
#204 = CARTESIAN_POINT ( 'NONE',  ( -10.08781882418733566, 33.47591518563219637, 22.87512283140729608 ) ) ;
#205 = EDGE_CURVE ( 'NONE', #273, #230, #285, .T. ) ;
#206 = FACE_BOUND ( 'NONE', #72, .T. ) ;
#207 = CARTESIAN_POINT ( 'NONE',  ( -14.75202264291532828, 26.48142243016730646, 20.18638650265557999 ) ) ;
#208 = CARTESIAN_POINT ( 'NONE',  ( 16.42524151127995680, 25.64339366820573218, -18.86156530484668892 ) ) ;
#209 = CARTESIAN_POINT ( 'NONE',  ( 11.36471361680213477, 29.94338858843515183, 22.26867111368694907 ) ) ;
#210 = AXIS2_PLACEMENT_3D ( 'NONE', #395, #452, #103 ) ;
#211 = CARTESIAN_POINT ( 'NONE',  ( 0.000000000000000000, -99.99999999999997158, -4.479793272449406061E-11 ) ) ;
#212 = MECHANICAL_DESIGN_GEOMETRIC_PRESENTATION_REPRESENTATION (  '', ( #575 ), #238 ) ;
#213 = DIRECTION ( 'NONE',  ( -0.000000000000000000, -3.982092433574281231E-13, 1.000000000000000000 ) ) ;
#214 = AXIS2_PLACEMENT_3D ( 'NONE', #298, #160, #353 ) ;
#215 = ORIENTED_EDGE ( 'NONE', *, *, #382, .F. ) ;
#216 = CARTESIAN_POINT ( 'NONE',  ( 15.02800557802888903, 26.31794645984707159, -19.98204773228531295 ) ) ;
#217 = EDGE_CURVE ( 'NONE', #364, #175, #441, .T. ) ;
#218 = VERTEX_POINT ( 'NONE', #443 ) ;
#219 = CARTESIAN_POINT ( 'NONE',  ( 18.03830236948231303, 25.18093030598149085, -17.32601321129332206 ) ) ;
#220 = VERTEX_POINT ( 'NONE', #4 ) ;
#221 = CARTESIAN_POINT ( 'NONE',  ( -9.999999999999998224, 125.0000000000091092, -22.91287847473439854 ) ) ;
#222 = DIRECTION ( 'NONE',  ( 0.000000000000000000, 3.982092433574281231E-13, -1.000000000000000000 ) ) ;
#223 = CIRCLE ( 'NONE', #161, 14.99999999999999822 ) ;
#224 = VERTEX_POINT ( 'NONE', #118 ) ;
#225 = EDGE_CURVE ( 'NONE', #220, #325, #417, .T. ) ;
#226 = CARTESIAN_POINT ( 'NONE',  ( -9.999999999999998224, 25.00000000000913403, -22.91287847477422090 ) ) ;
#227 = ORIENTED_EDGE ( 'NONE', *, *, #628, .F. ) ;
#228 = CARTESIAN_POINT ( 'NONE',  ( 0.000000000000000000, 25.00000000000000711, 4.978222695184442159E-12 ) ) ;
#229 = CARTESIAN_POINT ( 'NONE',  ( -11.36471361680212055, 29.94338858845289764, -22.26867111367305796 ) ) ;
#230 = VERTEX_POINT ( 'NONE', #606 ) ;
#231 = CARTESIAN_POINT ( 'NONE',  ( -15.58725087264789622, 26.02080700684305370, -19.54891974181324699 ) ) ;
#232 = CARTESIAN_POINT ( 'NONE',  ( 15.86511017280918523, 25.88992982811248211, 19.32435477421655534 ) ) ;
#233 = ORIENTED_EDGE ( 'NONE', *, *, #217, .T. ) ;
#234 = CARTESIAN_POINT ( 'NONE',  ( -17.51173008777523421, 25.29775834432866333, 17.85739381282044747 ) ) ;
#235 = CARTESIAN_POINT ( 'NONE',  ( 3.061616997868382254E-15, 25.00000000000996181, -24.99999999999501910 ) ) ;
#236 = VERTEX_POINT ( 'NONE', #158 ) ;
#237 = DIRECTION ( 'NONE',  ( 0.000000000000000000, 0.7071067811862659092, 0.7071067811868291253 ) ) ;
#238 =( GEOMETRIC_REPRESENTATION_CONTEXT ( 3 ) GLOBAL_UNCERTAINTY_ASSIGNED_CONTEXT ( ( #605 ) ) GLOBAL_UNIT_ASSIGNED_CONTEXT ( ( #520, #562, #314 ) ) REPRESENTATION_CONTEXT ( 'NONE', 'WORKASPACE' ) );
#239 = DIRECTION ( 'NONE',  ( 0.000000000000000000, -3.978299171573478276E-13, 1.000000000000000000 ) ) ;
#240 = ORIENTED_EDGE ( 'NONE', *, *, #242, .T. ) ;
#241 = VECTOR ( 'NONE', #464, 1000.000000000000114 ) ;
#242 = EDGE_CURVE ( 'NONE', #273, #185, #168, .T. ) ;
#243 = CARTESIAN_POINT ( 'NONE',  ( -19.54022503649320441, 25.00000000000622791, -15.61303328467076312 ) ) ;
#244 = CARTESIAN_POINT ( 'NONE',  ( 15.03353059810919667, 26.31481471989998511, 19.97787803033303788 ) ) ;
#245 = CARTESIAN_POINT ( 'NONE',  ( 0.000000000000000000, -49.99999999999997158, -2.488747055662265627E-11 ) ) ;
#246 = CARTESIAN_POINT ( 'NONE',  ( 11.96765633125988693, 29.03248567421415061, -21.95089266264491812 ) ) ;
#247 = LINE ( 'NONE', #143, #406 ) ;
#248 = DIRECTION ( 'NONE',  ( 0.000000000000000000, -3.982925100842749594E-13, 1.000000000000000000 ) ) ;
#249 = CARTESIAN_POINT ( 'NONE',  ( 12.64942839514306350, 28.18216272551645574, 21.56979733737081162 ) ) ;
#250 = EDGE_CURVE ( 'NONE', #573, #220, #69, .T. ) ;
#251 = DIRECTION ( 'NONE',  ( 0.000000000000000000, -1.000000000000000000, -3.982092433574281231E-13 ) ) ;
#252 = ORIENTED_EDGE ( 'NONE', *, *, #423, .F. ) ;
#253 = AXIS2_PLACEMENT_3D ( 'NONE', #456, #63, #58 ) ;
#254 = CARTESIAN_POINT ( 'NONE',  ( 13.14329927628810069, 27.68888050689320579, 21.27564410828609454 ) ) ;
#255 = LINE ( 'NONE', #292, #109 ) ;
#256 = CARTESIAN_POINT ( 'NONE',  ( 10.00000000000000178, 124.9999999999908766, 22.91287847482400863 ) ) ;
#257 = FACE_OUTER_BOUND ( 'NONE', #529, .T. ) ;
#258 = CIRCLE ( 'NONE', #577, 14.99999999999999822 ) ;
#259 = ORIENTED_EDGE ( 'NONE', *, *, #44, .F. ) ;
#260 = CARTESIAN_POINT ( 'NONE',  ( 0.000000000000000000, -49.99999999999997158, -2.488747055662265627E-11 ) ) ;
#261 = EDGE_CURVE ( 'NONE', #410, #580, #637, .T. ) ;
#262 = ORIENTED_EDGE ( 'NONE', *, *, #287, .F. ) ;
#263 = MANIFOLD_SOLID_BREP ( 'Body-Move/Copy1', #321 ) ;
#264 = CARTESIAN_POINT ( 'NONE',  ( 9.999999999999996447, 34.22979435001641235, -22.91287847477054385 ) ) ;
#265 = AXIS2_PLACEMENT_3D ( 'NONE', #636, #585, #146 ) ;
#266 = VERTEX_POINT ( 'NONE', #614 ) ;
#267 = FILL_AREA_STYLE ('',( #356 ) ) ;
#268 = LINE ( 'NONE', #470, #319 ) ;
#269 = ADVANCED_FACE ( 'NONE', ( #568 ), #66, .F. ) ;
#270 = EDGE_LOOP ( 'NONE', ( #468, #302, #378, #586 ) ) ;
#271 = VECTOR ( 'NONE', #544, 1000.000000000000000 ) ;
#272 = PRODUCT_DEFINITION_SHAPE ( 'NONE', 'NONE',  #536 ) ;
#273 = VERTEX_POINT ( 'NONE', #211 ) ;
#274 = DIRECTION ( 'NONE',  ( 0.000000000000000000, -3.978299171573478276E-13, 1.000000000000000000 ) ) ;
#275 = EDGE_LOOP ( 'NONE', ( #540, #355 ) ) ;
#276 = CARTESIAN_POINT ( 'NONE',  ( -19.99999999999999645, 25.00000000000598277, -14.99999999999502798 ) ) ;
#277 = ORIENTED_EDGE ( 'NONE', *, *, #591, .F. ) ;
#278 = EDGE_CURVE ( 'NONE', #224, #333, #151, .T. ) ;
#279 = CARTESIAN_POINT ( 'NONE',  ( 0.000000000000000000, 25.00000000000000711, 4.978222695184442159E-12 ) ) ;
#280 = CARTESIAN_POINT ( 'NONE',  ( 16.42080910447884179, 25.65761888204409047, 18.85442750627596808 ) ) ;
#281 = ORIENTED_EDGE ( 'NONE', *, *, #36, .F. ) ;
#282 = CARTESIAN_POINT ( 'NONE',  ( -10.45757799522173848, 31.98608046457715304, -22.70811802771448029 ) ) ;
#283 = CARTESIAN_POINT ( 'NONE',  ( 0.000000000000000000, 25.00000000000000711, 4.978222695184442159E-12 ) ) ;
#284 = DIRECTION ( 'NONE',  ( 0.000000000000000000, -3.982092433574280726E-13, 1.000000000000000000 ) ) ;
#285 = LINE ( 'NONE', #587, #157 ) ;
#286 = LINE ( 'NONE', #235, #429 ) ;
#287 = EDGE_CURVE ( 'NONE', #218, #224, #268, .T. ) ;
#288 = CARTESIAN_POINT ( 'NONE',  ( -9.999999999999998224, 75.00000000000598277, -14.99999999997510969 ) ) ;
#289 = CARTESIAN_POINT ( 'NONE',  ( 0.000000000000000000, -49.99999999999997158, -2.488747055662265627E-11 ) ) ;
#290 = VECTOR ( 'NONE', #551, 1000.000000000000000 ) ;
#291 = FACE_OUTER_BOUND ( 'NONE', #85, .T. ) ;
#292 = CARTESIAN_POINT ( 'NONE',  ( -9.999999999999998224, 125.0000000000091092, -22.91287847473439854 ) ) ;
#293 = VECTOR ( 'NONE', #251, 1000.000000000000000 ) ;
#294 =( GEOMETRIC_REPRESENTATION_CONTEXT ( 3 ) GLOBAL_UNCERTAINTY_ASSIGNED_CONTEXT ( ( #515 ) ) GLOBAL_UNIT_ASSIGNED_CONTEXT ( ( #418, #421, #518 ) ) REPRESENTATION_CONTEXT ( 'NONE', 'WORKASPACE' ) );
#295 = CARTESIAN_POINT ( 'NONE',  ( 10.45272255270412920, 32.00122356784543598, -22.71035499989019968 ) ) ;
#296 = DIRECTION ( 'NONE',  ( -1.000000000000000000, 0.000000000000000000, -0.000000000000000000 ) ) ;
#297 = FACE_OUTER_BOUND ( 'NONE', #569, .T. ) ;
#298 = CARTESIAN_POINT ( 'NONE',  ( 0.000000000000000000, 25.00000000000000711, 4.978222695184442159E-12 ) ) ;
#299 = LINE ( 'NONE', #149, #527 ) ;
#300 = DIRECTION ( 'NONE',  ( -0.000000000000000000, 1.000000000000000000, 3.982092433574281231E-13 ) ) ;
#301 = LINE ( 'NONE', #495, #293 ) ;
#302 = ORIENTED_EDGE ( 'NONE', *, *, #225, .T. ) ;
#303 = FACE_OUTER_BOUND ( 'NONE', #360, .T. ) ;
#304 = DIRECTION ( 'NONE',  ( 0.000000000000000000, -3.981537322061967643E-13, 1.000000000000000000 ) ) ;
#305 = EDGE_CURVE ( 'NONE', #512, #589, #419, .T. ) ;
#306 = EDGE_LOOP ( 'NONE', ( #74, #316, #259, #490 ) ) ;
#307 = CARTESIAN_POINT ( 'NONE',  ( 10.85215055985092825, 30.94357174243017283, -22.52251699277138286 ) ) ;
#308 = CARTESIAN_POINT ( 'NONE',  ( -9.999999999999998224, 25.00000000000913403, -22.91287847477422090 ) ) ;
#309 = ORIENTED_EDGE ( 'NONE', *, *, #382, .T. ) ;
#310 = DIRECTION ( 'NONE',  ( 0.000000000000000000, 3.982092433574280726E-13, -1.000000000000000000 ) ) ;
#311 = LINE ( 'NONE', #226, #578 ) ;
#312 = AXIS2_PLACEMENT_3D ( 'NONE', #124, #177, #32 ) ;
#313 = EDGE_LOOP ( 'NONE', ( #7, #454, #463, #484, #82, #277, #401, #163, #638, #633 ) ) ;
#314 =( NAMED_UNIT ( * ) SI_UNIT ( $, .STERADIAN. ) SOLID_ANGLE_UNIT ( ) );
#315 = EDGE_CURVE ( 'NONE', #178, #480, #99, .T. ) ;
#316 = ORIENTED_EDGE ( 'NONE', *, *, #287, .T. ) ;
#317 = CARTESIAN_POINT ( 'NONE',  ( 0.000000000000000000, 25.00000000000000711, 4.978222695184442159E-12 ) ) ;
#318 = ORIENTED_EDGE ( 'NONE', *, *, #104, .F. ) ;
#319 = VECTOR ( 'NONE', #222, 1000.000000000000000 ) ;
#320 = APPLICATION_PROTOCOL_DEFINITION ( 'draft international standard', 'automotive_design', 1998, #629 ) ;
#321 = CLOSED_SHELL ( 'NONE', ( #506, #555, #458, #361, #176, #17, #372, #159, #155, #612, #475, #334, #572, #269, #447, #64, #566, #619 ) ) ;
#322 = ORIENTED_EDGE ( 'NONE', *, *, #546, .F. ) ;
#323 = CARTESIAN_POINT ( 'NONE',  ( -19.05668644110023635, 25.03150673619162347, -16.19909563520882045 ) ) ;
#324 = CARTESIAN_POINT ( 'NONE',  ( -9.999999999999998224, 75.00000000000001421, 2.488868486305584327E-11 ) ) ;
#325 = VERTEX_POINT ( 'NONE', #126 ) ;
#326 = EDGE_CURVE ( 'NONE', #41, #476, #258, .T. ) ;
#327 = VECTOR ( 'NONE', #51, 1000.000000000000000 ) ;
#328 = CARTESIAN_POINT ( 'NONE',  ( -16.69979692697534190, 25.55591061413473142, -18.60793477366870263 ) ) ;
#329 = CARTESIAN_POINT ( 'NONE',  ( 16.69979692697534901, 25.55591061411991660, 18.60793477367910143 ) ) ;
#330 = VERTEX_POINT ( 'NONE', #34 ) ;
#331 = DIRECTION ( 'NONE',  ( 0.000000000000000000, -3.982092433574280726E-13, 1.000000000000000000 ) ) ;
#332 = DIRECTION ( 'NONE',  ( 0.000000000000000000, -1.000000000000000000, -3.982092433574280726E-13 ) ) ;
#333 = VERTEX_POINT ( 'NONE', #425 ) ;
#334 = ADVANCED_FACE ( 'NONE', ( #622 ), #371, .F. ) ;
#335 = CARTESIAN_POINT ( 'NONE',  ( 3.061616997868639422E-15, 25.00000000000996181, -24.99999999999502620 ) ) ;
#336 = DIRECTION ( 'NONE',  ( 1.000000000000000000, 0.000000000000000000, 0.000000000000000000 ) ) ;
#337 = ORIENTED_EDGE ( 'NONE', *, *, #134, .F. ) ;
#338 = CARTESIAN_POINT ( 'NONE',  ( -12.64942839514304929, 28.18216272553363666, -21.56979733735832383 ) ) ;
#339 = CARTESIAN_POINT ( 'NONE',  ( 19.05668644110023990, 25.03150673617872712, 16.19909563521878937 ) ) ;
#340 = LINE ( 'NONE', #501, #290 ) ;
#341 = DIRECTION ( 'NONE',  ( 1.000000000000000000, 0.000000000000000000, 0.000000000000000000 ) ) ;
#342 = COLOUR_RGB ( '',0.7921568627450980005, 0.8196078431372548767, 0.9333333333333333481 ) ;
#343 = FACE_OUTER_BOUND ( 'NONE', #306, .T. ) ;
#344 = DIRECTION ( 'NONE',  ( -1.000000000000000000, 0.000000000000000000, 0.000000000000000000 ) ) ;
#345 = CARTESIAN_POINT ( 'NONE',  ( 3.061616997870468002E-15, -49.99999999999001687, -25.00000000002489031 ) ) ;
#346 = DIRECTION ( 'NONE',  ( 0.000000000000000000, -1.000000000000000000, -3.982092433574281231E-13 ) ) ;
#347 = CARTESIAN_POINT ( 'NONE',  ( 14.21023912480557172, 26.83995391329742475, 20.57138485344259493 ) ) ;
#348 = CARTESIAN_POINT ( 'NONE',  ( -9.999999999999980460, 34.22979434999816561, 22.91287847478786333 ) ) ;
#349 = FACE_OUTER_BOUND ( 'NONE', #270, .T. ) ;
#350 = AXIS2_PLACEMENT_3D ( 'NONE', #442, #45, #284 ) ;
#351 = AXIS2_PLACEMENT_3D ( 'NONE', #279, #492, #93 ) ;
#352 = CARTESIAN_POINT ( 'NONE',  ( 10.34494073580751206, 32.36876965076097434, -22.75941639119014681 ) ) ;
#353 = DIRECTION ( 'NONE',  ( 0.000000000000000000, -3.981537322061968148E-13, 1.000000000000000000 ) ) ;
#354 = EDGE_CURVE ( 'NONE', #580, #178, #286, .T. ) ;
#355 = ORIENTED_EDGE ( 'NONE', *, *, #65, .T. ) ;
#356 = FILL_AREA_STYLE_COLOUR ( '', #342 ) ;
#357 = CARTESIAN_POINT ( 'NONE',  ( 11.76290598202800197, 29.31776698590153174, 22.06092635451736328 ) ) ;
#358 = EDGE_LOOP ( 'NONE', ( #508, #240, #430 ) ) ;
#359 = CARTESIAN_POINT ( 'NONE',  ( 9.999999999999996447, 35.00000000000913047, -22.91287847477023831 ) ) ;
#360 = EDGE_LOOP ( 'NONE', ( #252, #365, #613, #167 ) ) ;
#361 = ADVANCED_FACE ( 'NONE', ( #291 ), #436, .T. ) ;
#362 = CARTESIAN_POINT ( 'NONE',  ( 20.00000000000000355, 25.00000000000598277, -14.99999999999501732 ) ) ;
#363 = CONICAL_SURFACE ( 'NONE', #253, 50.00000000000000000, 0.7853981633974483900 ) ;
#364 = VERTEX_POINT ( 'NONE', #627 ) ;
#365 = ORIENTED_EDGE ( 'NONE', *, *, #36, .T. ) ;
#366 = DIRECTION ( 'NONE',  ( -0.000000000000000000, 1.000000000000000000, 3.982092433574281231E-13 ) ) ;
#367 = ORIENTED_EDGE ( 'NONE', *, *, #57, .F. ) ;
#368 = AXIS2_PLACEMENT_3D ( 'NONE', #56, #602, #248 ) ;
#369 = AXIS2_PLACEMENT_3D ( 'NONE', #283, #380, #542 ) ;
#370 = AXIS2_PLACEMENT_3D ( 'NONE', #154, #100, #52 ) ;
#371 = PLANE ( 'NONE',  #71 ) ;
#372 = ADVANCED_FACE ( 'NONE', ( #632 ), #493, .T. ) ;
#373 = PRODUCT_DEFINITION_FORMATION_WITH_SPECIFIED_SOURCE ( 'ANY', '', #473, .NOT_KNOWN. ) ;
#374 = EDGE_LOOP ( 'NONE', ( #233, #426 ) ) ;
#375 = CARTESIAN_POINT ( 'NONE',  ( -10.71099896338735391, 31.27763671505903886, -22.58968930935277442 ) ) ;
#376 = DIRECTION ( 'NONE',  ( -0.000000000000000000, 1.000000000000000000, 3.982092433574280726E-13 ) ) ;
#377 = EDGE_CURVE ( 'NONE', #266, #196, #247, .T. ) ;
#378 = ORIENTED_EDGE ( 'NONE', *, *, #112, .F. ) ;
#379 = DIRECTION ( 'NONE',  ( -0.000000000000000000, 1.000000000000000000, 3.982092433574280726E-13 ) ) ;
#380 = DIRECTION ( 'NONE',  ( -0.000000000000000000, 1.000000000000000000, 3.982092433574280726E-13 ) ) ;
#381 = FACE_OUTER_BOUND ( 'NONE', #374, .T. ) ;
#382 = EDGE_CURVE ( 'NONE', #236, #33, #101, .T. ) ;
#383 = PLANE ( 'NONE',  #79 ) ;
#384 = DIRECTION ( 'NONE',  ( 0.000000000000000000, -3.981537322061968148E-13, 1.000000000000000000 ) ) ;
#385 = CARTESIAN_POINT ( 'NONE',  ( 0.000000000000000000, 24.99999999999005595, 25.00000000000498446 ) ) ;
#386 = CARTESIAN_POINT ( 'NONE',  ( -11.76290598202799487, 29.31776698591911057, -22.06092635450398376 ) ) ;
#387 = CARTESIAN_POINT ( 'NONE',  ( -9.999999999999998224, 75.00000000000001421, 2.488868486305584327E-11 ) ) ;
#388 = DIRECTION ( 'NONE',  ( -0.000000000000000000, 1.000000000000000000, 3.982092433574281231E-13 ) ) ;
#389 = CARTESIAN_POINT ( 'NONE',  ( -9.999999999999994671, 34.22846348500221580, -22.91287847477054740 ) ) ;
#390 = DIRECTION ( 'NONE',  ( 0.000000000000000000, 3.982092433574280726E-13, -1.000000000000000000 ) ) ;
#391 = LINE ( 'NONE', #200, #471 ) ;
#392 = ORIENTED_EDGE ( 'NONE', *, *, #225, .F. ) ;
#393 = CARTESIAN_POINT ( 'NONE',  ( -9.999999999999998224, 124.9999999999908766, 22.91287847482400863 ) ) ;
#394 = EDGE_CURVE ( 'NONE', #560, #512, #482, .T. ) ;
#395 = CARTESIAN_POINT ( 'NONE',  ( 0.000000000000000000, 25.00000000000000711, 4.978222695184442159E-12 ) ) ;
#396 = CARTESIAN_POINT ( 'NONE',  ( 10.00000000000000000, 34.22846348498396907, 22.91287847478784911 ) ) ;
#397 = CARTESIAN_POINT ( 'NONE',  ( -13.13841407584981802, 27.69329285425300924, 21.27870237959731270 ) ) ;
#398 = CIRCLE ( 'NONE', #265, 24.99999999999999645 ) ;
#399 = DIRECTION ( 'NONE',  ( 0.000000000000000000, -3.982092433574280726E-13, 1.000000000000000000 ) ) ;
#400 = CARTESIAN_POINT ( 'NONE',  ( -15.02800557802888015, 26.31794645983116610, 19.98204773229630860 ) ) ;
#401 = ORIENTED_EDGE ( 'NONE', *, *, #477, .T. ) ;
#402 = CARTESIAN_POINT ( 'NONE',  ( 10.70662779496201900, 31.28834271459430383, -22.59176297337170070 ) ) ;
#403 = EDGE_CURVE ( 'NONE', #196, #218, #593, .T. ) ;
#404 = CARTESIAN_POINT ( 'NONE',  ( -19.99999999999999645, 34.99999999999087663, 22.91287847478816886 ) ) ;
#405 = VECTOR ( 'NONE', #145, 1000.000000000000000 ) ;
#406 = VECTOR ( 'NONE', #91, 1000.000000000000000 ) ;
#407 = CARTESIAN_POINT ( 'NONE',  ( 14.20546664220678856, 26.84335771785466562, -20.57467106829103898 ) ) ;
#408 = VECTOR ( 'NONE', #165, 1000.000000000000000 ) ;
#409 = CARTESIAN_POINT ( 'NONE',  ( -9.999999999999998224, 24.99999999999088374, 22.91287847478417916 ) ) ;
#410 = VERTEX_POINT ( 'NONE', #486 ) ;
#411 = PRESENTATION_STYLE_ASSIGNMENT (( #469 ) ) ;
#412 = CYLINDRICAL_SURFACE ( 'NONE', #138, 10.00000000000000178 ) ;
#413 = B_SPLINE_CURVE_WITH_KNOTS ( 'NONE', 3,
 ( #276, #243, #323, #198, #142, #328, #84, #631, #231, #187, #537, #479, #595, #37, #338, #481, #386, #229, #183, #46, #375, #282, #488, #431, #389, #428 ),
 .UNSPECIFIED., .F., .F.,
 ( 4, 2, 2, 2, 2, 2, 2, 2, 2, 2, 2, 2, 4 ),
 ( 0.000000000000000000, 0.002271251611878873696, 0.004542503223757747392, 0.005678129029697187059, 0.006813754835636624992, 0.007949380641576067261, 0.009085006447515512132, 0.01135625805939440014, 0.01249188386533384675, 0.01362750967127328988, 0.01476313547721272781, 0.01589876128315216575, 0.01817001289503105896 ),
 .UNSPECIFIED. ) ;
#414 = ORIENTED_EDGE ( 'NONE', *, *, #89, .F. ) ;
#415 = CARTESIAN_POINT ( 'NONE',  ( 19.05187649875837863, 25.03187835768586211, -16.20484767120176883 ) ) ;
#416 = ORIENTED_EDGE ( 'NONE', *, *, #127, .T. ) ;
#417 = LINE ( 'NONE', #121, #405 ) ;
#418 =( LENGTH_UNIT ( ) NAMED_UNIT ( * ) SI_UNIT ( .MILLI., .METRE. ) );
#419 = LINE ( 'NONE', #174, #18 ) ;
#420 = ORIENTED_EDGE ( 'NONE', *, *, #315, .F. ) ;
#421 =( NAMED_UNIT ( * ) PLANE_ANGLE_UNIT ( ) SI_UNIT ( $, .RADIAN. ) );
#422 = ORIENTED_EDGE ( 'NONE', *, *, #83, .F. ) ;
#423 = EDGE_CURVE ( 'NONE', #476, #41, #129, .T. ) ;
#424 = CARTESIAN_POINT ( 'NONE',  ( 20.00000000000000355, 34.99999999999087663, 22.91287847478816886 ) ) ;
#425 = CARTESIAN_POINT ( 'NONE',  ( 20.00000000000000355, 25.00000000000598277, -14.99999999999501732 ) ) ;
#426 = ORIENTED_EDGE ( 'NONE', *, *, #89, .T. ) ;
#427 = AXIS2_PLACEMENT_3D ( 'NONE', #289, #86, #533 ) ;
#428 = CARTESIAN_POINT ( 'NONE',  ( -9.999999999999998224, 35.00000000000913047, -22.91287847477023831 ) ) ;
#429 = VECTOR ( 'NONE', #55, 1000.000000000000000 ) ;
#430 = ORIENTED_EDGE ( 'NONE', *, *, #517, .F. ) ;
#431 = CARTESIAN_POINT ( 'NONE',  ( -10.08812750137401970, 33.47028930521724988, -22.87501038206173831 ) ) ;
#432 = FACE_OUTER_BOUND ( 'NONE', #313, .T. ) ;
#433 = EDGE_CURVE ( 'NONE', #266, #28, #398, .T. ) ;
#434 = VERTEX_POINT ( 'NONE', #188 ) ;
#435 = CARTESIAN_POINT ( 'NONE',  ( -16.42524151127995680, 25.64339366819072197, 18.86156530485717298 ) ) ;
#436 = PLANE ( 'NONE',  #528 ) ;
#437 = DIRECTION ( 'NONE',  ( -0.000000000000000000, 1.000000000000000000, 3.982092433574281231E-13 ) ) ;
#438 = AXIS2_PLACEMENT_3D ( 'NONE', #228, #437, #192 ) ;
#439 = CARTESIAN_POINT ( 'NONE',  ( 0.000000000000000000, 25.00000000000000711, 4.978222695184442159E-12 ) ) ;
#440 = CARTESIAN_POINT ( 'NONE',  ( -9.999999999999998224, 124.9999999999908766, 22.91287847482400863 ) ) ;
#441 = CIRCLE ( 'NONE', #125, 24.99999999999999645 ) ;
#442 = CARTESIAN_POINT ( 'NONE',  ( 0.000000000000000000, 25.00000000000000711, 4.978222695184442159E-12 ) ) ;
#443 = CARTESIAN_POINT ( 'NONE',  ( 10.00000000000000178, 34.99999999999087663, 22.91287847478816886 ) ) ;
#444 = CARTESIAN_POINT ( 'NONE',  ( 14.75766441274086915, 26.47793448044420117, 20.18227221730780485 ) ) ;
#445 = DIRECTION ( 'NONE',  ( -0.000000000000000000, 1.000000000000000000, 3.982092433574281231E-13 ) ) ;
#446 = ORIENTED_EDGE ( 'NONE', *, *, #44, .T. ) ;
#447 = ADVANCED_FACE ( 'NONE', ( #136 ), #43, .F. ) ;
#448 = CARTESIAN_POINT ( 'NONE',  ( 13.93383493758911484, 27.04267795596570423, -20.75929957341307741 ) ) ;
#449 = DIRECTION ( 'NONE',  ( 1.000000000000000000, 0.000000000000000000, 0.000000000000000000 ) ) ;
#450 = CARTESIAN_POINT ( 'NONE',  ( -10.85215055985092292, 30.94357174241224584, 22.52251699278607333 ) ) ;
#451 = CARTESIAN_POINT ( 'NONE',  ( 10.85647049756302529, 30.93381744106236297, 22.52043955241773077 ) ) ;
#452 = DIRECTION ( 'NONE',  ( -0.000000000000000000, 1.000000000000000000, 3.982092433574281231E-13 ) ) ;
#453 = APPLICATION_CONTEXT ( 'automotive_design' ) ;
#454 = ORIENTED_EDGE ( 'NONE', *, *, #354, .T. ) ;
#455 = AXIS2_PLACEMENT_3D ( 'NONE', #393, #601, #399 ) ;
#456 = CARTESIAN_POINT ( 'NONE',  ( 0.000000000000000000, -49.99999999999997158, -2.488747055662265627E-11 ) ) ;
#457 = CARTESIAN_POINT ( 'NONE',  ( -11.75274981885100622, 29.33269199354143097, 22.06631634914102946 ) ) ;
#458 = ADVANCED_FACE ( 'NONE', ( #432 ), #596, .T. ) ;
#459 = CARTESIAN_POINT ( 'NONE',  ( 11.18332432234088891, 30.26669223908591277, 22.35992858664538829 ) ) ;
#460 = ORIENTED_EDGE ( 'NONE', *, *, #326, .T. ) ;
#461 = DIRECTION ( 'NONE',  ( 0.000000000000000000, -3.978299171573478276E-13, 1.000000000000000000 ) ) ;
#462 = AXIS2_PLACEMENT_3D ( 'NONE', #317, #366, #574 ) ;
#463 = ORIENTED_EDGE ( 'NONE', *, *, #27, .F. ) ;
#464 = DIRECTION ( 'NONE',  ( 8.659560562354932858E-17, 0.7071067811868289033, -0.7071067811862660202 ) ) ;
#465 = CIRCLE ( 'NONE', #31, 50.00000000000000000 ) ;
#466 = ORIENTED_EDGE ( 'NONE', *, *, #377, .F. ) ;
#467 = CARTESIAN_POINT ( 'NONE',  ( 15.86053888644971543, 25.87530874414961701, -19.33742586660575924 ) ) ;
#468 = ORIENTED_EDGE ( 'NONE', *, *, #250, .T. ) ;
#469 = SURFACE_STYLE_USAGE ( .BOTH. , #164 ) ;
#470 = CARTESIAN_POINT ( 'NONE',  ( 10.00000000000000178, 34.99999999999087663, 22.91287847478816886 ) ) ;
#471 = VECTOR ( 'NONE', #594, 1000.000000000000000 ) ;
#472 = ORIENTED_EDGE ( 'NONE', *, *, #134, .T. ) ;
#473 = PRODUCT ( 'N406_structure', 'N406_structure', '', ( #26 ) ) ;
#474 = AXIS2_PLACEMENT_3D ( 'NONE', #191, #538, #384 ) ;
#475 = ADVANCED_FACE ( 'NONE', ( #132, #343 ), #140, .F. ) ;
#476 = VERTEX_POINT ( 'NONE', #47 ) ;
#477 = EDGE_CURVE ( 'NONE', #434, #218, #634, .T. ) ;
#478 = ORIENTED_EDGE ( 'NONE', *, *, #147, .F. ) ;
#479 = CARTESIAN_POINT ( 'NONE',  ( -14.21023912480556461, 26.83995391331380986, -20.57138485343118717 ) ) ;
#480 = VERTEX_POINT ( 'NONE', #308 ) ;
#481 = CARTESIAN_POINT ( 'NONE',  ( -11.97647981198266187, 29.02073785511865722, -21.94606981415102354 ) ) ;
#482 = LINE ( 'NONE', #440, #531 ) ;
#483 = AXIS2_PLACEMENT_3D ( 'NONE', #404, #203, #12 ) ;
#484 = ORIENTED_EDGE ( 'NONE', *, *, #497, .T. ) ;
#485 = FACE_OUTER_BOUND ( 'NONE', #522, .T. ) ;
#486 = CARTESIAN_POINT ( 'NONE',  ( 0.000000000000000000, -50.00000000000993339, 24.99999999997511324 ) ) ;
#487 = ORIENTED_EDGE ( 'NONE', *, *, #524, .F. ) ;
#488 = CARTESIAN_POINT ( 'NONE',  ( -10.34914623737139827, 32.35286391320658339, -22.75751032677103680 ) ) ;
#489 = CARTESIAN_POINT ( 'NONE',  ( 10.00000000000000178, 124.9999999999908766, 22.91287847482400863 ) ) ;
#490 = ORIENTED_EDGE ( 'NONE', *, *, #305, .F. ) ;
#491 = VECTOR ( 'NONE', #503, 1000.000000000000000 ) ;
#492 = DIRECTION ( 'NONE',  ( -0.000000000000000000, 1.000000000000000000, 3.982092433574281231E-13 ) ) ;
#493 = PLANE ( 'NONE',  #369 ) ;
#494 = CIRCLE ( 'NONE', #438, 24.99999999999999645 ) ;
#495 = CARTESIAN_POINT ( 'NONE',  ( 10.00000000000000178, 125.0000000000091092, -22.91287847473439854 ) ) ;
#496 = VECTOR ( 'NONE', #15, 1000.000000000000000 ) ;
#497 = EDGE_CURVE ( 'NONE', #330, #224, #10, .T. ) ;
#498 = AXIS2_PLACEMENT_3D ( 'NONE', #387, #336, #582 ) ;
#499 = CARTESIAN_POINT ( 'NONE',  ( 11.17802233047724769, 30.27660401968276460, -22.36257499132680593 ) ) ;
#500 = CARTESIAN_POINT ( 'NONE',  ( 18.04628363363723054, 25.17942512980694403, 17.31761082042521949 ) ) ;
#501 = CARTESIAN_POINT ( 'NONE',  ( -9.999999999999998224, 124.9999999999908766, 22.91287847482400863 ) ) ;
#502 = LINE ( 'NONE', #8, #182 ) ;
#503 = DIRECTION ( 'NONE',  ( 0.000000000000000000, -1.000000000000000000, -3.982092433574281231E-13 ) ) ;
#504 = B_SPLINE_CURVE_WITH_KNOTS ( 'NONE', 3,
 ( #9, #348, #204, #108, #507, #599, #450, #202, #152, #457, #554, #11, #397, #106, #13, #207, #400, #530, #435, #234, #39, #139, #584, #635 ),
 .UNSPECIFIED., .F., .F.,
 ( 4, 2, 2, 2, 2, 2, 2, 2, 2, 2, 2, 4 ),
 ( 0.000000000000000000, 0.002277627136900169103, 0.003416440705350252786, 0.004555254273800337338, 0.005694067842250421022, 0.006832881410700505573, 0.009110508547600674675, 0.01024932211605076096, 0.01138813568450084725, 0.01366576282140102676, 0.01594338995830120453, 0.01822101709520138405 ),
 .UNSPECIFIED. ) ;
#505 = DIRECTION ( 'NONE',  ( -0.000000000000000000, 1.000000000000000000, 3.982092433574281231E-13 ) ) ;
#506 = ADVANCED_FACE ( 'NONE', ( #303 ), #598, .F. ) ;
#507 = CARTESIAN_POINT ( 'NONE',  ( -10.45272255270412032, 32.00122356782733135, 22.71035499990573570 ) ) ;
#508 = ORIENTED_EDGE ( 'NONE', *, *, #205, .F. ) ;
#509 = CARTESIAN_POINT ( 'NONE',  ( 0.000000000000000000, -49.99999999999997158, -2.488747055662265627E-11 ) ) ;
#510 = PRODUCT_RELATED_PRODUCT_CATEGORY ( 'part', '', ( #473 ) ) ;
#511 = CARTESIAN_POINT ( 'NONE',  ( 10.08812750137402858, 33.47028930519901024, 22.87501038207844317 ) ) ;
#512 = VERTEX_POINT ( 'NONE', #256 ) ;
#513 = CARTESIAN_POINT ( 'NONE',  ( 6.123233995736766085E-15, -49.99999999998006928, -50.00000000002489031 ) ) ;
#514 = LINE ( 'NONE', #409, #193 ) ;
#515 = UNCERTAINTY_MEASURE_WITH_UNIT (LENGTH_MEASURE( 1.000000000000000082E-05 ), #418, 'distance_accuracy_value', 'NONE');
#516 = EDGE_LOOP ( 'NONE', ( #3, #123, #53, #318, #446, #170 ) ) ;
#517 = EDGE_CURVE ( 'NONE', #230, #185, #465, .T. ) ;
#518 =( NAMED_UNIT ( * ) SI_UNIT ( $, .STERADIAN. ) SOLID_ANGLE_UNIT ( ) );
#519 = ORIENTED_EDGE ( 'NONE', *, *, #524, .T. ) ;
#520 =( LENGTH_UNIT ( ) NAMED_UNIT ( * ) SI_UNIT ( .MILLI., .METRE. ) );
#521 = SHAPE_DEFINITION_REPRESENTATION ( #272, #60 ) ;
#522 = EDGE_LOOP ( 'NONE', ( #466, #80, #416 ) ) ;
#523 = DIRECTION ( 'NONE',  ( 1.000000000000000000, 0.000000000000000000, 0.000000000000000000 ) ) ;
#524 = EDGE_CURVE ( 'NONE', #266, #325, #514, .T. ) ;
#525 = VECTOR ( 'NONE', #388, 1000.000000000000000 ) ;
#526 = ORIENTED_EDGE ( 'NONE', *, *, #112, .T. ) ;
#527 = VECTOR ( 'NONE', #346, 1000.000000000000000 ) ;
#528 = AXIS2_PLACEMENT_3D ( 'NONE', #40, #376, #534 ) ;
#529 = EDGE_LOOP ( 'NONE', ( #130, #322, #128, #262 ) ) ;
#530 = CARTESIAN_POINT ( 'NONE',  ( -15.86053888644971899, 25.87530874413422310, 19.33742586661642449 ) ) ;
#531 = VECTOR ( 'NONE', #5, 1000.000000000000000 ) ;
#532 = ORIENTED_EDGE ( 'NONE', *, *, #433, .F. ) ;
#533 = DIRECTION ( 'NONE',  ( 0.000000000000000000, -3.982092433574280726E-13, 1.000000000000000000 ) ) ;
#534 = DIRECTION ( 'NONE',  ( 0.000000000000000000, -3.982092433574280726E-13, 1.000000000000000000 ) ) ;
#535 = ORIENTED_EDGE ( 'NONE', *, *, #217, .F. ) ;
#536 = PRODUCT_DEFINITION ( 'UNKNOWN', '', #373, #162 ) ;
#537 = CARTESIAN_POINT ( 'NONE',  ( -14.75766441274085849, 26.47793448046027365, -20.18227221729667065 ) ) ;
#538 = DIRECTION ( 'NONE',  ( -0.000000000000000000, 1.000000000000000000, 3.982092433574281231E-13 ) ) ;
#539 = AXIS2_PLACEMENT_3D ( 'NONE', #509, #563, #304 ) ;
#540 = ORIENTED_EDGE ( 'NONE', *, *, #517, .T. ) ;
#541 = CARTESIAN_POINT ( 'NONE',  ( 0.000000000000000000, 24.99999999999005595, 25.00000000000497735 ) ) ;
#542 = DIRECTION ( 'NONE',  ( 0.000000000000000000, -3.982092433574280726E-13, 1.000000000000000000 ) ) ;
#543 = LINE ( 'NONE', #288, #623 ) ;
#544 = DIRECTION ( 'NONE',  ( -0.000000000000000000, 1.000000000000000000, 3.982092433574281231E-13 ) ) ;
#545 = CARTESIAN_POINT ( 'NONE',  ( 17.51938513531471031, 25.29560880325523442, 17.85006891456629319 ) ) ;
#546 = EDGE_CURVE ( 'NONE', #333, #434, #502, .T. ) ;
#547 = LINE ( 'NONE', #597, #491 ) ;
#548 = VECTOR ( 'NONE', #14, 1000.000000000000000 ) ;
#549 = SURFACE_STYLE_FILL_AREA ( #267 ) ;
#550 = DIRECTION ( 'NONE',  ( 1.000000000000000000, 0.000000000000000000, 0.000000000000000000 ) ) ;
#551 = DIRECTION ( 'NONE',  ( -0.000000000000000000, -3.982092433574281231E-13, 1.000000000000000000 ) ) ;
#552 = AXIS2_PLACEMENT_3D ( 'NONE', #489, #296, #87 ) ;
#553 = CARTESIAN_POINT ( 'NONE',  ( 10.00000000000000178, 125.0000000000091092, -22.91287847473439854 ) ) ;
#554 = CARTESIAN_POINT ( 'NONE',  ( -11.96765633125987094, 29.03248567419666415, 21.95089266265808448 ) ) ;
#555 = ADVANCED_FACE ( 'NONE', ( #565 ), #363, .T. ) ;
#556 = CARTESIAN_POINT ( 'NONE',  ( 13.93689095809878609, 27.04038870230614577, 20.75723747140672870 ) ) ;
#557 = DIRECTION ( 'NONE',  ( 0.000000000000000000, -3.981537322061967643E-13, 1.000000000000000000 ) ) ;
#558 = PRESENTATION_LAYER_ASSIGNMENT (  '', '', ( #575 ) ) ;
#559 = PLANE ( 'NONE',  #455 ) ;
#560 = VERTEX_POINT ( 'NONE', #201 ) ;
#561 = AXIS2_PLACEMENT_3D ( 'NONE', #70, #449, #461 ) ;
#562 =( NAMED_UNIT ( * ) PLANE_ANGLE_UNIT ( ) SI_UNIT ( $, .RADIAN. ) );
#563 = DIRECTION ( 'NONE',  ( -0.000000000000000000, 1.000000000000000000, 3.982092433574281231E-13 ) ) ;
#564 = DIRECTION ( 'NONE',  ( -0.000000000000000000, 1.000000000000000000, 3.982092433574281231E-13 ) ) ;
#565 = FACE_OUTER_BOUND ( 'NONE', #358, .T. ) ;
#566 = ADVANCED_FACE ( 'NONE', ( #116 ), #611, .F. ) ;
#567 = EDGE_LOOP ( 'NONE', ( #21, #181, #618 ) ) ;
#568 = FACE_OUTER_BOUND ( 'NONE', #630, .T. ) ;
#569 = EDGE_LOOP ( 'NONE', ( #281, #133, #110, #309 ) ) ;
#570 = CARTESIAN_POINT ( 'NONE',  ( -9.999999999999998224, 124.9999999999908766, 22.91287847482400863 ) ) ;
#571 = EDGE_LOOP ( 'NONE', ( #24, #414, #478, #392 ) ) ;
#572 = ADVANCED_FACE ( 'NONE', ( #206, #349 ), #559, .F. ) ;
#573 = VERTEX_POINT ( 'NONE', #150 ) ;
#574 = DIRECTION ( 'NONE',  ( 0.000000000000000000, -3.981537322061968148E-13, 1.000000000000000000 ) ) ;
#575 = STYLED_ITEM ( 'NONE', ( #411 ), #263 ) ;
#576 = ORIENTED_EDGE ( 'NONE', *, *, #354, .F. ) ;
#577 = AXIS2_PLACEMENT_3D ( 'NONE', #324, #81, #274 ) ;
#578 = VECTOR ( 'NONE', #77, 1000.000000000000000 ) ;
#579 = CARTESIAN_POINT ( 'NONE',  ( -9.999999999999998224, 125.0000000000091092, -22.91287847473439854 ) ) ;
#580 = VERTEX_POINT ( 'NONE', #345 ) ;
#581 = LINE ( 'NONE', #541, #271 ) ;
#582 = DIRECTION ( 'NONE',  ( 0.000000000000000000, -3.978299171573478276E-13, 1.000000000000000000 ) ) ;
#583 = ORIENTED_EDGE ( 'NONE', *, *, #377, .T. ) ;
#584 = CARTESIAN_POINT ( 'NONE',  ( -19.54035209404364082, 24.99999999999377920, 15.61286387461345804 ) ) ;
#585 = DIRECTION ( 'NONE',  ( -0.000000000000000000, 1.000000000000000000, 3.982092433574281231E-13 ) ) ;
#586 = ORIENTED_EDGE ( 'NONE', *, *, #95, .F. ) ;
#587 = CARTESIAN_POINT ( 'NONE',  ( 0.000000000000000000, -50.00000000001988099, 49.99999999997510969 ) ) ;
#588 = DIRECTION ( 'NONE',  ( -1.000000000000000000, -0.000000000000000000, 0.000000000000000000 ) ) ;
#589 = VERTEX_POINT ( 'NONE', #553 ) ;
#590 = EDGE_CURVE ( 'NONE', #41, #236, #603, .T. ) ;
#591 = EDGE_CURVE ( 'NONE', #434, #333, #173, .T. ) ;
#592 = DIRECTION ( 'NONE',  ( -0.000000000000000000, 1.000000000000000000, 3.982092433574281231E-13 ) ) ;
#593 = LINE ( 'NONE', #102, #327 ) ;
#594 = DIRECTION ( 'NONE',  ( -0.000000000000000000, 3.982092433574281231E-13, -1.000000000000000000 ) ) ;
#595 = CARTESIAN_POINT ( 'NONE',  ( -13.93689095809878253, 27.04038870232268010, -20.75723747139515396 ) ) ;
#596 = CYLINDRICAL_SURFACE ( 'NONE', #474, 24.99999999999999645 ) ;
#597 = CARTESIAN_POINT ( 'NONE',  ( 10.00000000000000178, 124.9999999999908766, 22.91287847482400863 ) ) ;
#598 = CYLINDRICAL_SURFACE ( 'NONE', #561, 14.99999999999999822 ) ;
#599 = CARTESIAN_POINT ( 'NONE',  ( -10.70662779496201189, 31.28834271457633065, 22.59176297338667183 ) ) ;
#600 = ORIENTED_EDGE ( 'NONE', *, *, #305, .T. ) ;
#601 = DIRECTION ( 'NONE',  ( 1.000000000000000000, 0.000000000000000000, 0.000000000000000000 ) ) ;
#602 = DIRECTION ( 'NONE',  ( -0.000000000000000000, 1.000000000000000000, 3.982092433574281231E-13 ) ) ;
#603 = LINE ( 'NONE', #608, #496 ) ;
#604 = LINE ( 'NONE', #62, #525 ) ;
#605 = UNCERTAINTY_MEASURE_WITH_UNIT (LENGTH_MEASURE( 1.000000000000000082E-05 ), #520, 'distance_accuracy_value', 'NONE');
#606 = CARTESIAN_POINT ( 'NONE',  ( 0.000000000000000000, -50.00000000001988099, 49.99999999997510969 ) ) ;
#607 = AXIS2_PLACEMENT_3D ( 'NONE', #570, #310, #341 ) ;
#608 = CARTESIAN_POINT ( 'NONE',  ( -9.999999999999998224, 74.99999999999404565, 15.00000000002488498 ) ) ;
#609 = CIRCLE ( 'NONE', #368, 24.99999999999999645 ) ;
#610 = CARTESIAN_POINT ( 'NONE',  ( 14.75202264291534071, 26.48142243018338249, -20.18638650264444578 ) ) ;
#611 = CYLINDRICAL_SURFACE ( 'NONE', #483, 10.00000000000000178 ) ;
#612 = ADVANCED_FACE ( 'NONE', ( #67 ), #625, .T. ) ;
#613 = ORIENTED_EDGE ( 'NONE', *, *, #628, .T. ) ;
#614 = CARTESIAN_POINT ( 'NONE',  ( -9.999999999999998224, 24.99999999999088374, 22.91287847478417916 ) ) ;
#615 = DIRECTION ( 'NONE',  ( 1.000000000000000000, 0.000000000000000000, 0.000000000000000000 ) ) ;
#616 = ORIENTED_EDGE ( 'NONE', *, *, #546, .T. ) ;
#617 = CARTESIAN_POINT ( 'NONE',  ( 12.64297035140180725, 28.18874439513659880, -21.57362388878774695 ) ) ;
#618 = ORIENTED_EDGE ( 'NONE', *, *, #315, .T. ) ;
#619 = ADVANCED_FACE ( 'NONE', ( #257 ), #412, .F. ) ;
#620 = EDGE_LOOP ( 'NONE', ( #122, #117, #624 ) ) ;
#621 = ORIENTED_EDGE ( 'NONE', *, *, #147, .T. ) ;
#622 = FACE_OUTER_BOUND ( 'NONE', #516, .T. ) ;
#623 = VECTOR ( 'NONE', #59, 1000.000000000000000 ) ;
#624 = ORIENTED_EDGE ( 'NONE', *, *, #65, .F. ) ;
#625 = CONICAL_SURFACE ( 'NONE', #539, 50.00000000000000000, 0.7853981633974483900 ) ;
#626 = DIRECTION ( 'NONE',  ( 0.000000000000000000, -3.981537322061968148E-13, 1.000000000000000000 ) ) ;
#627 = CARTESIAN_POINT ( 'NONE',  ( -19.99999999999999645, 25.00000000000598277, -14.99999999999502798 ) ) ;
#628 = EDGE_CURVE ( 'NONE', #33, #236, #223, .T. ) ;
#629 = APPLICATION_CONTEXT ( 'automotive_design' ) ;
#630 = EDGE_LOOP ( 'NONE', ( #583, #30, #367, #76, #526, #487 ) ) ;
#631 = CARTESIAN_POINT ( 'NONE',  ( -15.86511017280917812, 25.88992982812788668, -19.32435477420588299 ) ) ;
#632 = FACE_OUTER_BOUND ( 'NONE', #567, .T. ) ;
#633 = ORIENTED_EDGE ( 'NONE', *, *, #197, .F. ) ;
#634 = B_SPLINE_CURVE_WITH_KNOTS ( 'NONE', 3,
 ( #2, #195, #339, #500, #545, #329, #280, #232, #98, #244, #444, #347, #556, #254, #249, #107, #357, #209, #459, #451, #153, #105, #111, #511, #396, #156 ),
 .UNSPECIFIED., .F., .F.,
 ( 4, 2, 2, 2, 2, 2, 2, 2, 2, 2, 2, 2, 4 ),
 ( 0.000000000000000000, 0.002271251611878883237, 0.004542503223757766474, 0.005678129029697209611, 0.006813754835636654482, 0.007949380641576098486, 0.009085006447515541622, 0.01135625805939442443, 0.01249188386533386409, 0.01362750967127330549, 0.01476313547721274343, 0.01589876128315218309, 0.01817001289503106243 ),
 .UNSPECIFIED. ) ;
#635 = CARTESIAN_POINT ( 'NONE',  ( -19.99999999999999645, 24.99999999999403499, 15.00000000000498446 ) ) ;
#636 = CARTESIAN_POINT ( 'NONE',  ( 0.000000000000000000, 25.00000000000000711, 4.978222695184442159E-12 ) ) ;
#637 = CIRCLE ( 'NONE', #78, 24.99999999999999645 ) ;
#638 = ORIENTED_EDGE ( 'NONE', *, *, #127, .F. ) ;
#639 = EDGE_CURVE ( 'NONE', #330, #480, #311, .T. ) ;
ENDSEC;
END-ISO-10303-21;
