ISO-10303-21;
HEADER;
FILE_DESCRIPTION (( 'STEP AP214' ),
    '1' );
FILE_NAME ('N406_base.STEP',
    '2026-01-16T01:57:31',
    ( '' ),
    ( '' ),
    'SwSTEP 2.0',
    'SolidWorks 2024',
    '' );
FILE_SCHEMA (( 'AUTOMOTIVE_DESIGN' ));
ENDSEC;

DATA;
#1 = PLANE ( 'NONE',  #224 ) ;
#2 = ORIENTED_EDGE ( 'NONE', *, *, #498, .F. ) ;
#3 = PLANE ( 'NONE',  #623 ) ;
#4 = DIRECTION ( 'NONE',  ( 0.000000000000000000, 1.000000000000000000, 0.000000000000000000 ) ) ;
#5 = VERTEX_POINT ( 'NONE', #566 ) ;
#6 = AXIS2_PLACEMENT_3D ( 'NONE', #297, #239, #787 ) ;
#7 = EDGE_CURVE ( 'NONE', #5, #483, #21, .T. ) ;
#8 = AXIS2_PLACEMENT_3D ( 'NONE', #363, #743, #68 ) ;
#9 = DIRECTION ( 'NONE',  ( -0.000000000000000000, -1.000000000000000000, -0.000000000000000000 ) ) ;
#10 = CARTESIAN_POINT ( 'NONE',  ( 200.0071426749363468, 75.00000000000001421, 0.000000000000000000 ) ) ;
#11 = ORIENTED_EDGE ( 'NONE', *, *, #85, .T. ) ;
#12 = LINE ( 'NONE', #78, #261 ) ;
#13 = ADVANCED_FACE ( 'NONE', ( #25 ), #584, .T. ) ;
#14 = CARTESIAN_POINT ( 'NONE',  ( 200.0071426749363468, 0.000000000000000000, 0.000000000000000000 ) ) ;
#15 = LINE ( 'NONE', #546, #48 ) ;
#16 = VERTEX_POINT ( 'NONE', #204 ) ;
#17 = VECTOR ( 'NONE', #296, 1000.000000000000000 ) ;
#18 = DIRECTION ( 'NONE',  ( -0.000000000000000000, -1.000000000000000000, -0.000000000000000000 ) ) ;
#19 = ADVANCED_FACE ( 'NONE', ( #445 ), #647, .T. ) ;
#20 = PLANE ( 'NONE',  #426 ) ;
#21 = LINE ( 'NONE', #691, #201 ) ;
#22 = DIRECTION ( 'NONE',  ( -1.000000000000000000, 0.000000000000000000, 0.000000000000000000 ) ) ;
#23 = CARTESIAN_POINT ( 'NONE',  ( 25.00000000000000000, 0.000000000000000000, 0.000000000000000000 ) ) ;
#24 = EDGE_CURVE ( 'NONE', #593, #142, #762, .T. ) ;
#25 = FACE_OUTER_BOUND ( 'NONE', #303, .T. ) ;
#26 = DIRECTION ( 'NONE',  ( -0.000000000000000000, -1.000000000000000000, -0.000000000000000000 ) ) ;
#27 = LINE ( 'NONE', #219, #608 ) ;
#28 = DIRECTION ( 'NONE',  ( 0.000000000000000000, -0.7071067811865474617, -0.7071067811865475727 ) ) ;
#29 = ORIENTED_EDGE ( 'NONE', *, *, #480, .F. ) ;
#30 = CARTESIAN_POINT ( 'NONE',  ( 0.000000000000000000, 75.00000000000001421, 0.000000000000000000 ) ) ;
#31 = VECTOR ( 'NONE', #712, 1000.000000000000000 ) ;
#32 = DIRECTION ( 'NONE',  ( 0.000000000000000000, 0.000000000000000000, -1.000000000000000000 ) ) ;
#33 = CARTESIAN_POINT ( 'NONE',  ( 140.0071426749364036, 75.00000000000000000, 0.000000000000000000 ) ) ;
#34 = ORIENTED_EDGE ( 'NONE', *, *, #24, .F. ) ;
#35 = ADVANCED_FACE ( 'NONE', ( #150 ), #119, .T. ) ;
#36 = MECHANICAL_DESIGN_GEOMETRIC_PRESENTATION_REPRESENTATION (  '', ( #533 ), #100 ) ;
#37 = PLANE ( 'NONE',  #171 ) ;
#38 = CARTESIAN_POINT ( 'NONE',  ( 140.0071426749364036, 0.000000000000000000, -140.0071426749364036 ) ) ;
#39 = ORIENTED_EDGE ( 'NONE', *, *, #223, .F. ) ;
#40 = CONICAL_SURFACE ( 'NONE', #591, 50.00000000000001421, 0.7853981633974483900 ) ;
#41 = DIRECTION ( 'NONE',  ( 0.000000000000000000, 0.000000000000000000, 1.000000000000000000 ) ) ;
#42 = EDGE_CURVE ( 'NONE', #607, #770, #519, .T. ) ;
#43 = DIRECTION ( 'NONE',  ( 0.000000000000000000, 0.000000000000000000, -1.000000000000000000 ) ) ;
#44 = EDGE_LOOP ( 'NONE', ( #358, #129, #229 ) ) ;
#45 = DIRECTION ( 'NONE',  ( 0.000000000000000000, 0.000000000000000000, -1.000000000000000000 ) ) ;
#46 = VECTOR ( 'NONE', #530, 1000.000000000000000 ) ;
#47 = DIRECTION ( 'NONE',  ( 0.000000000000000000, 0.000000000000000000, -1.000000000000000000 ) ) ;
#48 = VECTOR ( 'NONE', #619, 1000.000000000000000 ) ;
#49 = CARTESIAN_POINT ( 'NONE',  ( -60.00000000000000000, 0.000000000000000000, -0.000000000000000000 ) ) ;
#50 = ORIENTED_EDGE ( 'NONE', *, *, #155, .T. ) ;
#51 =( NAMED_UNIT ( * ) SI_UNIT ( $, .STERADIAN. ) SOLID_ANGLE_UNIT ( ) );
#52 = CARTESIAN_POINT ( 'NONE',  ( 140.0071426749364036, 0.000000000000000000, -115.0071426749364178 ) ) ;
#53 = FACE_OUTER_BOUND ( 'NONE', #44, .T. ) ;
#54 = ORIENTED_EDGE ( 'NONE', *, *, #670, .F. ) ;
#55 = EDGE_CURVE ( 'NONE', #478, #394, #160, .T. ) ;
#56 = DIRECTION ( 'NONE',  ( -0.000000000000000000, -1.000000000000000000, -0.000000000000000000 ) ) ;
#57 = CARTESIAN_POINT ( 'NONE',  ( 140.0071426749364036, 0.000000000000000000, -115.0071426749364178 ) ) ;
#58 = CARTESIAN_POINT ( 'NONE',  ( 0.000000000000000000, 75.00000000000000000, -140.0071426749364036 ) ) ;
#59 = ORIENTED_EDGE ( 'NONE', *, *, #791, .F. ) ;
#60 = UNCERTAINTY_MEASURE_WITH_UNIT (LENGTH_MEASURE( 1.000000000000000082E-05 ), #430, 'distance_accuracy_value', 'NONE');
#61 = ADVANCED_FACE ( 'NONE', ( #270 ), #514, .T. ) ;
#62 = CARTESIAN_POINT ( 'NONE',  ( 200.0071426749363468, 442.7056274847713553, 0.000000000000000000 ) ) ;
#63 = CARTESIAN_POINT ( 'NONE',  ( 140.0071426749364036, 75.00000000000000000, -115.0071426749364178 ) ) ;
#64 = ORIENTED_EDGE ( 'NONE', *, *, #456, .T. ) ;
#65 = AXIS2_PLACEMENT_3D ( 'NONE', #469, #354, #553 ) ;
#66 = CARTESIAN_POINT ( 'NONE',  ( 25.00000000000000000, 0.000000000000000000, 0.000000000000000000 ) ) ;
#67 = ORIENTED_EDGE ( 'NONE', *, *, #410, .T. ) ;
#68 = DIRECTION ( 'NONE',  ( 0.000000000000000000, 0.000000000000000000, -1.000000000000000000 ) ) ;
#69 = ADVANCED_FACE ( 'NONE', ( #643 ), #278, .T. ) ;
#70 = VECTOR ( 'NONE', #398, 1000.000000000000000 ) ;
#71 = VERTEX_POINT ( 'NONE', #396 ) ;
#72 = PLANE ( 'NONE',  #662 ) ;
#73 = ORIENTED_EDGE ( 'NONE', *, *, #356, .T. ) ;
#74 = CIRCLE ( 'NONE', #6, 50.00000000000001421 ) ;
#75 = VECTOR ( 'NONE', #192, 1000.000000000000000 ) ;
#76 = CARTESIAN_POINT ( 'NONE',  ( 0.000000000000000000, 75.00000000000001421, -140.0071426749364036 ) ) ;
#77 = VERTEX_POINT ( 'NONE', #583 ) ;
#78 = CARTESIAN_POINT ( 'NONE',  ( 140.0071426749364036, 75.00000000000001421, 0.000000000000000000 ) ) ;
#79 = DIRECTION ( 'NONE',  ( -1.000000000000000000, 0.000000000000000000, -0.000000000000000000 ) ) ;
#80 = EDGE_CURVE ( 'NONE', #5, #265, #524, .T. ) ;
#81 = CARTESIAN_POINT ( 'NONE',  ( 0.000000000000000000, 0.000000000000000000, -115.0071426749364178 ) ) ;
#82 = ORIENTED_EDGE ( 'NONE', *, *, #365, .T. ) ;
#83 = CIRCLE ( 'NONE', #528, 50.00000000000000711 ) ;
#84 = CARTESIAN_POINT ( 'NONE',  ( 140.0071426749364036, 0.000000000000000000, -140.0071426749364036 ) ) ;
#85 = EDGE_CURVE ( 'NONE', #763, #379, #111, .T. ) ;
#86 = APPLICATION_CONTEXT ( 'automotive_design' ) ;
#87 = DIRECTION ( 'NONE',  ( 0.000000000000000000, 0.000000000000000000, -1.000000000000000000 ) ) ;
#88 = VERTEX_POINT ( 'NONE', #287 ) ;
#89 = AXIS2_PLACEMENT_3D ( 'NONE', #62, #243, #425 ) ;
#90 = DIRECTION ( 'NONE',  ( 0.000000000000000000, 0.000000000000000000, -1.000000000000000000 ) ) ;
#91 = CIRCLE ( 'NONE', #701, 24.99999999999999289 ) ;
#92 = CARTESIAN_POINT ( 'NONE',  ( 0.000000000000000000, 0.000000000000000000, 0.000000000000000000 ) ) ;
#93 = DIRECTION ( 'NONE',  ( 0.000000000000000000, 0.000000000000000000, 1.000000000000000000 ) ) ;
#94 = ORIENTED_EDGE ( 'NONE', *, *, #552, .F. ) ;
#95 = DIRECTION ( 'NONE',  ( 1.000000000000000000, -0.000000000000000000, 0.000000000000000000 ) ) ;
#96 = CARTESIAN_POINT ( 'NONE',  ( 25.00000000000000000, 0.000000000000000000, -140.0071426749364036 ) ) ;
#97 = ORIENTED_EDGE ( 'NONE', *, *, #797, .T. ) ;
#98 = ADVANCED_FACE ( 'NONE', ( #713, #466 ), #718, .F. ) ;
#99 = EDGE_LOOP ( 'NONE', ( #472, #205, #307 ) ) ;
#100 =( GEOMETRIC_REPRESENTATION_CONTEXT ( 3 ) GLOBAL_UNCERTAINTY_ASSIGNED_CONTEXT ( ( #60 ) ) GLOBAL_UNIT_ASSIGNED_CONTEXT ( ( #430, #185, #384 ) ) REPRESENTATION_CONTEXT ( 'NONE', 'WORKASPACE' ) );
#101 = FACE_OUTER_BOUND ( 'NONE', #353, .T. ) ;
#102 = EDGE_LOOP ( 'NONE', ( #232, #420, #54, #522, #147, #82, #431, #734 ) ) ;
#103 = EDGE_LOOP ( 'NONE', ( #167, #368, #321, #464 ) ) ;
#104 = EDGE_CURVE ( 'NONE', #687, #227, #661, .T. ) ;
#105 = APPLICATION_CONTEXT ( 'automotive_design' ) ;
#106 = CIRCLE ( 'NONE', #489, 50.00000000000001421 ) ;
#107 = DIRECTION ( 'NONE',  ( 0.000000000000000000, 0.000000000000000000, -1.000000000000000000 ) ) ;
#108 = ORIENTED_EDGE ( 'NONE', *, *, #765, .F. ) ;
#109 = EDGE_CURVE ( 'NONE', #492, #151, #649, .T. ) ;
#110 = CARTESIAN_POINT ( 'NONE',  ( -60.00000000000000000, 75.00000000000001421, 60.00000000000003553 ) ) ;
#111 = LINE ( 'NONE', #120, #532 ) ;
#112 = DIRECTION ( 'NONE',  ( 1.000000000000000000, -0.000000000000000000, 0.000000000000000000 ) ) ;
#113 = ORIENTED_EDGE ( 'NONE', *, *, #498, .T. ) ;
#114 = AXIS2_PLACEMENT_3D ( 'NONE', #337, #632, #87 ) ;
#115 = EDGE_CURVE ( 'NONE', #381, #614, #555, .T. ) ;
#116 = CARTESIAN_POINT ( 'NONE',  ( 0.000000000000000000, 75.00000000000000000, 0.000000000000000000 ) ) ;
#117 = LINE ( 'NONE', #125, #673 ) ;
#118 = ORIENTED_EDGE ( 'NONE', *, *, #733, .F. ) ;
#119 = CONICAL_SURFACE ( 'NONE', #636, 50.00000000000000711, 0.7853981633974483900 ) ;
#120 = CARTESIAN_POINT ( 'NONE',  ( 0.000000000000000000, 75.00000000000001421, 0.000000000000000000 ) ) ;
#121 = VECTOR ( 'NONE', #4, 1000.000000000000000 ) ;
#122 = DIRECTION ( 'NONE',  ( -1.000000000000000000, 0.000000000000000000, 0.000000000000000000 ) ) ;
#123 = ORIENTED_EDGE ( 'NONE', *, *, #694, .T. ) ;
#124 = LINE ( 'NONE', #359, #520 ) ;
#125 = CARTESIAN_POINT ( 'NONE',  ( 6.123233995736766874E-15, 75.00000000000000000, 50.00000000000000711 ) ) ;
#126 = EDGE_LOOP ( 'NONE', ( #254, #108, #210, #123 ) ) ;
#127 = PLANE ( 'NONE',  #416 ) ;
#128 = VERTEX_POINT ( 'NONE', #173 ) ;
#129 = ORIENTED_EDGE ( 'NONE', *, *, #733, .T. ) ;
#130 = VECTOR ( 'NONE', #22, 1000.000000000000000 ) ;
#131 = CARTESIAN_POINT ( 'NONE',  ( 140.0071426749364036, 75.00000000000000000, 0.000000000000000000 ) ) ;
#132 = ORIENTED_EDGE ( 'NONE', *, *, #517, .F. ) ;
#133 = PRESENTATION_STYLE_ASSIGNMENT (( #367 ) ) ;
#134 = EDGE_LOOP ( 'NONE', ( #257, #737, #586, #597 ) ) ;
#135 = FACE_OUTER_BOUND ( 'NONE', #625, .T. ) ;
#136 = CARTESIAN_POINT ( 'NONE',  ( 140.0071426749364036, 75.00000000000000000, 0.000000000000000000 ) ) ;
#137 = ORIENTED_EDGE ( 'NONE', *, *, #721, .T. ) ;
#138 = VECTOR ( 'NONE', #622, 1000.000000000000000 ) ;
#139 = AXIS2_PLACEMENT_3D ( 'NONE', #360, #166, #764 ) ;
#140 = DIRECTION ( 'NONE',  ( 0.000000000000000000, 0.000000000000000000, -1.000000000000000000 ) ) ;
#141 = LINE ( 'NONE', #589, #70 ) ;
#142 = VERTEX_POINT ( 'NONE', #601 ) ;
#143 = PLANE ( 'NONE',  #89 ) ;
#144 = CARTESIAN_POINT ( 'NONE',  ( 200.0071426749363468, 442.7056274847713553, 60.00000000000003553 ) ) ;
#145 = CARTESIAN_POINT ( 'NONE',  ( 0.000000000000000000, 0.000000000000000000, -200.0071426749364036 ) ) ;
#146 = ORIENTED_EDGE ( 'NONE', *, *, #612, .F. ) ;
#147 = ORIENTED_EDGE ( 'NONE', *, *, #456, .F. ) ;
#148 = FACE_OUTER_BOUND ( 'NONE', #409, .T. ) ;
#149 = CARTESIAN_POINT ( 'NONE',  ( 200.0071426749363468, 75.00000000000001421, -200.0071426749364036 ) ) ;
#150 = FACE_OUTER_BOUND ( 'NONE', #99, .T. ) ;
#151 = VERTEX_POINT ( 'NONE', #52 ) ;
#152 = VECTOR ( 'NONE', #28, 1000.000000000000000 ) ;
#153 = CARTESIAN_POINT ( 'NONE',  ( 0.000000000000000000, 0.000000000000000000, -140.0071426749364036 ) ) ;
#154 = CIRCLE ( 'NONE', #8, 50.00000000000000711 ) ;
#155 = EDGE_CURVE ( 'NONE', #394, #214, #74, .T. ) ;
#156 = DIRECTION ( 'NONE',  ( 0.000000000000000000, 0.000000000000000000, -1.000000000000000000 ) ) ;
#157 = DIRECTION ( 'NONE',  ( -0.000000000000000000, -1.000000000000000000, -0.000000000000000000 ) ) ;
#158 = DIRECTION ( 'NONE',  ( 0.000000000000000000, 0.000000000000000000, 1.000000000000000000 ) ) ;
#159 = EDGE_CURVE ( 'NONE', #710, #610, #476, .T. ) ;
#160 = LINE ( 'NONE', #334, #152 ) ;
#161 = CARTESIAN_POINT ( 'NONE',  ( 0.000000000000000000, 75.00000000000000000, -50.00000000000000711 ) ) ;
#162 = VERTEX_POINT ( 'NONE', #664 ) ;
#163 = EDGE_CURVE ( 'NONE', #675, #16, #124, .T. ) ;
#164 = AXIS2_PLACEMENT_3D ( 'NONE', #38, #157, #393 ) ;
#165 = LINE ( 'NONE', #652, #473 ) ;
#166 = DIRECTION ( 'NONE',  ( -0.000000000000000000, -1.000000000000000000, -0.000000000000000000 ) ) ;
#167 = ORIENTED_EDGE ( 'NONE', *, *, #304, .F. ) ;
#168 = CARTESIAN_POINT ( 'NONE',  ( 0.000000000000000000, 75.00000000000000000, 0.000000000000000000 ) ) ;
#169 = LINE ( 'NONE', #30, #454 ) ;
#170 = VERTEX_POINT ( 'NONE', #301 ) ;
#171 = AXIS2_PLACEMENT_3D ( 'NONE', #513, #449, #212 ) ;
#172 = DIRECTION ( 'NONE',  ( -0.000000000000000000, -1.000000000000000000, -0.000000000000000000 ) ) ;
#173 = CARTESIAN_POINT ( 'NONE',  ( 90.00714267493640364, 75.00000000000000000, -140.0071426749364036 ) ) ;
#174 = LINE ( 'NONE', #482, #355 ) ;
#175 = ORIENTED_EDGE ( 'NONE', *, *, #55, .T. ) ;
#176 = CARTESIAN_POINT ( 'NONE',  ( 140.0071426749364036, 75.00000000000000000, 0.000000000000000000 ) ) ;
#177 = CLOSED_SHELL ( 'NONE', ( #69, #19, #383, #13, #626, #350, #581, #35, #665, #195, #590, #604, #540, #273, #199, #178, #98, #436, #61, #706, #488, #266, #442, #527, #218, #237 ) ) ;
#178 = ADVANCED_FACE ( 'NONE', ( #541 ), #481, .T. ) ;
#179 = DIRECTION ( 'NONE',  ( -0.000000000000000000, -1.000000000000000000, -0.000000000000000000 ) ) ;
#180 = CONICAL_SURFACE ( 'NONE', #217, 50.00000000000001421, 0.7853981633974483900 ) ;
#181 = DIRECTION ( 'NONE',  ( -0.000000000000000000, -1.000000000000000000, -0.000000000000000000 ) ) ;
#182 = ORIENTED_EDGE ( 'NONE', *, *, #24, .T. ) ;
#183 = LINE ( 'NONE', #419, #685 ) ;
#184 = EDGE_LOOP ( 'NONE', ( #698, #267, #335, #580 ) ) ;
#185 =( NAMED_UNIT ( * ) PLANE_ANGLE_UNIT ( ) SI_UNIT ( $, .RADIAN. ) );
#186 = EDGE_LOOP ( 'NONE', ( #487, #462, #146, #570 ) ) ;
#187 = EDGE_CURVE ( 'NONE', #214, #492, #12, .T. ) ;
#188 = VECTOR ( 'NONE', #194, 1000.000000000000000 ) ;
#189 = DIRECTION ( 'NONE',  ( 0.000000000000000000, 0.000000000000000000, -1.000000000000000000 ) ) ;
#190 = ORIENTED_EDGE ( 'NONE', *, *, #574, .T. ) ;
#191 = AXIS2_PLACEMENT_3D ( 'NONE', #561, #739, #674 ) ;
#192 = DIRECTION ( 'NONE',  ( 0.000000000000000000, 0.000000000000000000, 1.000000000000000000 ) ) ;
#193 = EDGE_LOOP ( 'NONE', ( #785, #248, #644, #67, #190, #558, #428, #113, #506, #312, #276, #50 ) ) ;
#194 = DIRECTION ( 'NONE',  ( 0.000000000000000000, 0.000000000000000000, 1.000000000000000000 ) ) ;
#195 = ADVANCED_FACE ( 'NONE', ( #689 ), #143, .F. ) ;
#196 = FILL_AREA_STYLE ('',( #247 ) ) ;
#197 = CIRCLE ( 'NONE', #549, 25.00000000000000000 ) ;
#198 = ORIENTED_EDGE ( 'NONE', *, *, #781, .T. ) ;
#199 = ADVANCED_FACE ( 'NONE', ( #371 ), #3, .T. ) ;
#200 = EDGE_LOOP ( 'NONE', ( #460, #485, #236, #283 ) ) ;
#201 = VECTOR ( 'NONE', #260, 1000.000000000000000 ) ;
#202 = FACE_OUTER_BOUND ( 'NONE', #669, .T. ) ;
#203 = FACE_OUTER_BOUND ( 'NONE', #310, .T. ) ;
#204 = CARTESIAN_POINT ( 'NONE',  ( 200.0071426749363468, 0.000000000000000000, -200.0071426749364036 ) ) ;
#205 = ORIENTED_EDGE ( 'NONE', *, *, #791, .T. ) ;
#206 = CARTESIAN_POINT ( 'NONE',  ( 25.00000000000000000, 75.00000000000000000, 0.000000000000000000 ) ) ;
#207 = DIRECTION ( 'NONE',  ( 0.000000000000000000, 0.000000000000000000, -1.000000000000000000 ) ) ;
#208 = ORIENTED_EDGE ( 'NONE', *, *, #42, .T. ) ;
#209 = CIRCLE ( 'NONE', #114, 50.00000000000001421 ) ;
#210 = ORIENTED_EDGE ( 'NONE', *, *, #187, .F. ) ;
#211 = CARTESIAN_POINT ( 'NONE',  ( 140.0071426749364036, 75.00000000000000000, -90.00714267493640364 ) ) ;
#212 = DIRECTION ( 'NONE',  ( -1.000000000000000000, 0.000000000000000000, -0.000000000000000000 ) ) ;
#213 = CARTESIAN_POINT ( 'NONE',  ( -60.00000000000000000, 75.00000000000001421, 0.000000000000000000 ) ) ;
#214 = VERTEX_POINT ( 'NONE', #211 ) ;
#215 = VECTOR ( 'NONE', #595, 1000.000000000000000 ) ;
#216 = LINE ( 'NONE', #535, #400 ) ;
#217 = AXIS2_PLACEMENT_3D ( 'NONE', #58, #302, #455 ) ;
#218 = ADVANCED_FACE ( 'NONE', ( #757 ), #749, .T. ) ;
#219 = CARTESIAN_POINT ( 'NONE',  ( 140.0071426749364036, 0.000000000000000000, -0.000000000000000000 ) ) ;
#220 = DIRECTION ( 'NONE',  ( 0.000000000000000000, 0.000000000000000000, -1.000000000000000000 ) ) ;
#221 = PRODUCT_DEFINITION_SHAPE ( 'NONE', 'NONE',  #226 ) ;
#222 = CARTESIAN_POINT ( 'NONE',  ( 0.000000000000000000, 75.00000000000000000, -140.0071426749364036 ) ) ;
#223 = EDGE_CURVE ( 'NONE', #536, #16, #438, .T. ) ;
#224 = AXIS2_PLACEMENT_3D ( 'NONE', #323, #444, #275 ) ;
#225 = LINE ( 'NONE', #406, #564 ) ;
#226 = PRODUCT_DEFINITION ( 'UNKNOWN', '', #618, #587 ) ;
#227 = VERTEX_POINT ( 'NONE', #751 ) ;
#228 = DIRECTION ( 'NONE',  ( 8.659560562354934091E-17, -0.7071067811865474617, 0.7071067811865475727 ) ) ;
#229 = ORIENTED_EDGE ( 'NONE', *, *, #155, .F. ) ;
#230 = APPLICATION_PROTOCOL_DEFINITION ( 'draft international standard', 'automotive_design', 1998, #105 ) ;
#231 = CARTESIAN_POINT ( 'NONE',  ( 115.0071426749364178, 0.000000000000000000, 0.000000000000000000 ) ) ;
#232 = ORIENTED_EDGE ( 'NONE', *, *, #405, .T. ) ;
#233 = EDGE_CURVE ( 'NONE', #285, #316, #319, .T. ) ;
#234 = VECTOR ( 'NONE', #401, 1000.000000000000000 ) ;
#235 = DIRECTION ( 'NONE',  ( 0.000000000000000000, 0.000000000000000000, -1.000000000000000000 ) ) ;
#236 = ORIENTED_EDGE ( 'NONE', *, *, #109, .F. ) ;
#237 = ADVANCED_FACE ( 'NONE', ( #255 ), #794, .T. ) ;
#238 = VECTOR ( 'NONE', #697, 1000.000000000000000 ) ;
#239 = DIRECTION ( 'NONE',  ( -0.000000000000000000, -1.000000000000000000, -0.000000000000000000 ) ) ;
#240 = VECTOR ( 'NONE', #122, 1000.000000000000000 ) ;
#241 = CARTESIAN_POINT ( 'NONE',  ( 90.00714267493640364, 75.00000000000000000, 0.000000000000000000 ) ) ;
#242 = ORIENTED_EDGE ( 'NONE', *, *, #280, .F. ) ;
#243 = DIRECTION ( 'NONE',  ( -1.000000000000000000, 0.000000000000000000, 0.000000000000000000 ) ) ;
#244 = FACE_OUTER_BOUND ( 'NONE', #667, .T. ) ;
#245 = EDGE_CURVE ( 'NONE', #151, #692, #91, .T. ) ;
#246 = ORIENTED_EDGE ( 'NONE', *, *, #681, .T. ) ;
#247 = FILL_AREA_STYLE_COLOUR ( '', #624 ) ;
#248 = ORIENTED_EDGE ( 'NONE', *, *, #104, .T. ) ;
#249 = FACE_OUTER_BOUND ( 'NONE', #134, .T. ) ;
#250 = ORIENTED_EDGE ( 'NONE', *, *, #658, .F. ) ;
#251 = VECTOR ( 'NONE', #336, 1000.000000000000000 ) ;
#252 = LINE ( 'NONE', #144, #429 ) ;
#253 = CARTESIAN_POINT ( 'NONE',  ( 0.000000000000000000, 442.7056274847713553, -200.0071426749364036 ) ) ;
#254 = ORIENTED_EDGE ( 'NONE', *, *, #295, .F. ) ;
#255 = FACE_OUTER_BOUND ( 'NONE', #688, .T. ) ;
#256 = FACE_OUTER_BOUND ( 'NONE', #682, .T. ) ;
#257 = ORIENTED_EDGE ( 'NONE', *, *, #465, .F. ) ;
#258 = CARTESIAN_POINT ( 'NONE',  ( 0.000000000000000000, 442.7056274847713553, 0.000000000000000000 ) ) ;
#259 = FACE_OUTER_BOUND ( 'NONE', #525, .T. ) ;
#260 = DIRECTION ( 'NONE',  ( 0.000000000000000000, -0.7071067811865474617, -0.7071067811865475727 ) ) ;
#261 = VECTOR ( 'NONE', #501, 1000.000000000000000 ) ;
#262 = EDGE_LOOP ( 'NONE', ( #617, #404, #640, #500, #182, #434 ) ) ;
#263 = LINE ( 'NONE', #332, #366 ) ;
#264 = CARTESIAN_POINT ( 'NONE',  ( 0.000000000000000000, 0.000000000000000000, 0.000000000000000000 ) ) ;
#265 = VERTEX_POINT ( 'NONE', #497 ) ;
#266 = ADVANCED_FACE ( 'NONE', ( #202 ), #679, .T. ) ;
#267 = ORIENTED_EDGE ( 'NONE', *, *, #738, .T. ) ;
#268 = CARTESIAN_POINT ( 'NONE',  ( 50.00000000000000711, 75.00000000000000000, 0.000000000000000000 ) ) ;
#269 = DIRECTION ( 'NONE',  ( -1.000000000000000000, 0.000000000000000000, 0.000000000000000000 ) ) ;
#270 = FACE_OUTER_BOUND ( 'NONE', #200, .T. ) ;
#271 = VECTOR ( 'NONE', #269, 1000.000000000000000 ) ;
#272 = ORIENTED_EDGE ( 'NONE', *, *, #670, .T. ) ;
#273 = ADVANCED_FACE ( 'NONE', ( #135 ), #690, .T. ) ;
#274 = CARTESIAN_POINT ( 'NONE',  ( 0.000000000000000000, 0.000000000000000000, -140.0071426749364036 ) ) ;
#275 = DIRECTION ( 'NONE',  ( -1.000000000000000000, 0.000000000000000000, -0.000000000000000000 ) ) ;
#276 = ORIENTED_EDGE ( 'NONE', *, *, #374, .T. ) ;
#277 = VERTEX_POINT ( 'NONE', #322 ) ;
#278 = CONICAL_SURFACE ( 'NONE', #714, 50.00000000000000711, 0.7853981633974483900 ) ;
#279 = CIRCLE ( 'NONE', #702, 50.00000000000001421 ) ;
#280 = EDGE_CURVE ( 'NONE', #468, #536, #252, .T. ) ;
#281 = DIRECTION ( 'NONE',  ( -0.000000000000000000, -1.000000000000000000, -0.000000000000000000 ) ) ;
#282 = CARTESIAN_POINT ( 'NONE',  ( 6.123233995736766874E-15, 75.00000000000000000, -90.00714267493640364 ) ) ;
#283 = ORIENTED_EDGE ( 'NONE', *, *, #765, .T. ) ;
#284 = DIRECTION ( 'NONE',  ( -1.000000000000000000, 0.000000000000000000, 0.000000000000000000 ) ) ;
#285 = VERTEX_POINT ( 'NONE', #268 ) ;
#286 = SHAPE_DEFINITION_REPRESENTATION ( #221, #796 ) ;
#287 = CARTESIAN_POINT ( 'NONE',  ( 0.000000000000000000, 75.00000000000000000, -50.00000000000001421 ) ) ;
#288 = DIRECTION ( 'NONE',  ( 0.000000000000000000, -1.000000000000000000, -0.000000000000000000 ) ) ;
#289 = VERTEX_POINT ( 'NONE', #502 ) ;
#290 = AXIS2_PLACEMENT_3D ( 'NONE', #639, #754, #633 ) ;
#291 = AXIS2_PLACEMENT_3D ( 'NONE', #408, #288, #641 ) ;
#292 = CARTESIAN_POINT ( 'NONE',  ( 140.0071426749364036, 0.000000000000000000, 0.000000000000000000 ) ) ;
#293 = CARTESIAN_POINT ( 'NONE',  ( 0.000000000000000000, 75.00000000000000000, 0.000000000000000000 ) ) ;
#294 = ORIENTED_EDGE ( 'NONE', *, *, #115, .F. ) ;
#295 = EDGE_CURVE ( 'NONE', #289, #128, #313, .T. ) ;
#296 = DIRECTION ( 'NONE',  ( 0.000000000000000000, 0.000000000000000000, -1.000000000000000000 ) ) ;
#297 = CARTESIAN_POINT ( 'NONE',  ( 140.0071426749364036, 75.00000000000000000, -140.0071426749364036 ) ) ;
#298 = PLANE ( 'NONE',  #291 ) ;
#299 = ORIENTED_EDGE ( 'NONE', *, *, #327, .T. ) ;
#300 = DIRECTION ( 'NONE',  ( 0.000000000000000000, 1.000000000000000000, 0.000000000000000000 ) ) ;
#301 = CARTESIAN_POINT ( 'NONE',  ( -60.00000000000000000, 0.000000000000000000, -200.0071426749364036 ) ) ;
#302 = DIRECTION ( 'NONE',  ( -0.000000000000000000, -1.000000000000000000, -0.000000000000000000 ) ) ;
#303 = EDGE_LOOP ( 'NONE', ( #59, #551, #773, #634 ) ) ;
#304 = EDGE_CURVE ( 'NONE', #370, #710, #326, .T. ) ;
#305 = VECTOR ( 'NONE', #93, 1000.000000000000000 ) ;
#306 = DIRECTION ( 'NONE',  ( 1.000000000000000000, 0.000000000000000000, 0.000000000000000000 ) ) ;
#307 = ORIENTED_EDGE ( 'NONE', *, *, #547, .F. ) ;
#308 = EDGE_CURVE ( 'NONE', #770, #277, #263, .T. ) ;
#309 = FACE_OUTER_BOUND ( 'NONE', #348, .T. ) ;
#310 = EDGE_LOOP ( 'NONE', ( #242, #198, #543, #509 ) ) ;
#311 = CARTESIAN_POINT ( 'NONE',  ( 200.0071426749363468, 0.000000000000000000, 60.00000000000003553 ) ) ;
#312 = ORIENTED_EDGE ( 'NONE', *, *, #681, .F. ) ;
#313 = LINE ( 'NONE', #76, #684 ) ;
#314 = VECTOR ( 'NONE', #179, 1000.000000000000000 ) ;
#315 = PLANE ( 'NONE',  #490 ) ;
#316 = VERTEX_POINT ( 'NONE', #206 ) ;
#317 = AXIS2_PLACEMENT_3D ( 'NONE', #369, #616, #798 ) ;
#318 = EDGE_CURVE ( 'NONE', #707, #142, #511, .T. ) ;
#319 = LINE ( 'NONE', #559, #598 ) ;
#320 = PLANE ( 'NONE',  #191 ) ;
#321 = ORIENTED_EDGE ( 'NONE', *, *, #423, .T. ) ;
#322 = CARTESIAN_POINT ( 'NONE',  ( -60.00000000000000000, 0.000000000000000000, 60.00000000000003553 ) ) ;
#323 = CARTESIAN_POINT ( 'NONE',  ( 0.000000000000000000, 442.7056274847713553, -140.0071426749364036 ) ) ;
#324 = AXIS2_PLACEMENT_3D ( 'NONE', #572, #696, #758 ) ;
#325 = ORIENTED_EDGE ( 'NONE', *, *, #432, .T. ) ;
#326 = LINE ( 'NONE', #745, #130 ) ;
#327 = EDGE_CURVE ( 'NONE', #687, #214, #571, .T. ) ;
#328 = FACE_OUTER_BOUND ( 'NONE', #458, .T. ) ;
#329 = ORIENTED_EDGE ( 'NONE', *, *, #797, .F. ) ;
#330 = CIRCLE ( 'NONE', #344, 24.99999999999999289 ) ;
#331 = ORIENTED_EDGE ( 'NONE', *, *, #646, .T. ) ;
#332 = CARTESIAN_POINT ( 'NONE',  ( -60.00000000000000000, 442.7056274847713553, 60.00000000000003553 ) ) ;
#333 = LINE ( 'NONE', #145, #654 ) ;
#334 = CARTESIAN_POINT ( 'NONE',  ( 140.0071426749364036, 75.00000000000000000, -190.0071426749364321 ) ) ;
#335 = ORIENTED_EDGE ( 'NONE', *, *, #447, .F. ) ;
#336 = DIRECTION ( 'NONE',  ( 0.000000000000000000, 1.000000000000000000, 0.000000000000000000 ) ) ;
#337 = CARTESIAN_POINT ( 'NONE',  ( 0.000000000000000000, 75.00000000000000000, -140.0071426749364036 ) ) ;
#338 = ORIENTED_EDGE ( 'NONE', *, *, #159, .F. ) ;
#339 = CIRCLE ( 'NONE', #324, 50.00000000000001421 ) ;
#340 = ORIENTED_EDGE ( 'NONE', *, *, #588, .F. ) ;
#341 = CARTESIAN_POINT ( 'NONE',  ( 140.0071426749364036, 75.00000000000000000, -140.0071426749364036 ) ) ;
#342 = CARTESIAN_POINT ( 'NONE',  ( 0.000000000000000000, 75.00000000000000000, -140.0071426749364036 ) ) ;
#343 = ORIENTED_EDGE ( 'NONE', *, *, #447, .T. ) ;
#344 = AXIS2_PLACEMENT_3D ( 'NONE', #274, #542, #357 ) ;
#345 = VECTOR ( 'NONE', #784, 1000.000000000000000 ) ;
#346 = ORIENTED_EDGE ( 'NONE', *, *, #85, .F. ) ;
#347 = FACE_OUTER_BOUND ( 'NONE', #103, .T. ) ;
#348 = EDGE_LOOP ( 'NONE', ( #272, #495, #716, #299, #539, #375 ) ) ;
#349 =( LENGTH_UNIT ( ) NAMED_UNIT ( * ) SI_UNIT ( .MILLI., .METRE. ) );
#350 = ADVANCED_FACE ( 'NONE', ( #148 ), #635, .T. ) ;
#351 = DIRECTION ( 'NONE',  ( -0.000000000000000000, -1.000000000000000000, -0.000000000000000000 ) ) ;
#352 = DIRECTION ( 'NONE',  ( -0.000000000000000000, -1.000000000000000000, -0.000000000000000000 ) ) ;
#353 = EDGE_LOOP ( 'NONE', ( #118, #175, #620, #780 ) ) ;
#354 = DIRECTION ( 'NONE',  ( -1.000000000000000000, 0.000000000000000000, 0.000000000000000000 ) ) ;
#355 = VECTOR ( 'NONE', #95, 1000.000000000000000 ) ;
#356 = EDGE_CURVE ( 'NONE', #71, #707, #516, .T. ) ;
#357 = DIRECTION ( 'NONE',  ( 0.000000000000000000, 0.000000000000000000, -1.000000000000000000 ) ) ;
#358 = ORIENTED_EDGE ( 'NONE', *, *, #55, .F. ) ;
#359 = CARTESIAN_POINT ( 'NONE',  ( 200.0071426749363468, 442.7056274847713553, -200.0071426749364036 ) ) ;
#360 = CARTESIAN_POINT ( 'NONE',  ( 140.0071426749364036, 75.00000000000000000, -140.0071426749364036 ) ) ;
#361 = ORIENTED_EDGE ( 'NONE', *, *, #410, .F. ) ;
#362 = EDGE_CURVE ( 'NONE', #545, #162, #117, .T. ) ;
#363 = CARTESIAN_POINT ( 'NONE',  ( 0.000000000000000000, 75.00000000000000000, 0.000000000000000000 ) ) ;
#364 = ORIENTED_EDGE ( 'NONE', *, *, #295, .T. ) ;
#365 = EDGE_CURVE ( 'NONE', #610, #707, #330, .T. ) ;
#366 = VECTOR ( 'NONE', #507, 1000.000000000000000 ) ;
#367 = SURFACE_STYLE_USAGE ( .BOTH. , #491 ) ;
#368 = ORIENTED_EDGE ( 'NONE', *, *, #612, .T. ) ;
#369 = CARTESIAN_POINT ( 'NONE',  ( 0.000000000000000000, 75.00000000000000000, 0.000000000000000000 ) ) ;
#370 = VERTEX_POINT ( 'NONE', #779 ) ;
#371 = FACE_OUTER_BOUND ( 'NONE', #262, .T. ) ;
#372 = AXIS2_PLACEMENT_3D ( 'NONE', #475, #717, #417 ) ;
#373 = CARTESIAN_POINT ( 'NONE',  ( 0.000000000000000000, 75.00000000000000000, 0.000000000000000000 ) ) ;
#374 = EDGE_CURVE ( 'NONE', #128, #394, #106, .T. ) ;
#375 = ORIENTED_EDGE ( 'NONE', *, *, #109, .T. ) ;
#376 = DIRECTION ( 'NONE',  ( -1.000000000000000000, 0.000000000000000000, 0.000000000000000000 ) ) ;
#377 = AXIS2_PLACEMENT_3D ( 'NONE', #342, #645, #759 ) ;
#378 = DIRECTION ( 'NONE',  ( -1.000000000000000000, 0.000000000000000000, -0.000000000000000000 ) ) ;
#379 = VERTEX_POINT ( 'NONE', #241 ) ;
#380 = VECTOR ( 'NONE', #724, 1000.000000000000000 ) ;
#381 = VERTEX_POINT ( 'NONE', #231 ) ;
#382 = DIRECTION ( 'NONE',  ( -0.000000000000000000, -1.000000000000000000, -0.000000000000000000 ) ) ;
#383 = ADVANCED_FACE ( 'NONE', ( #53 ), #585, .T. ) ;
#384 =( NAMED_UNIT ( * ) SI_UNIT ( $, .STERADIAN. ) SOLID_ANGLE_UNIT ( ) );
#385 = EDGE_LOOP ( 'NONE', ( #790, #656, #2 ) ) ;
#386 = EDGE_CURVE ( 'NONE', #277, #536, #216, .T. ) ;
#387 = LINE ( 'NONE', #440, #271 ) ;
#388 = CARTESIAN_POINT ( 'NONE',  ( 0.000000000000000000, 75.00000000000000000, 0.000000000000000000 ) ) ;
#389 = AXIS2_PLACEMENT_3D ( 'NONE', #292, #534, #783 ) ;
#390 = CIRCLE ( 'NONE', #479, 50.00000000000000711 ) ;
#391 = CARTESIAN_POINT ( 'NONE',  ( 140.0071426749364036, 0.000000000000000000, 0.000000000000000000 ) ) ;
#392 = DIRECTION ( 'NONE',  ( 0.000000000000000000, 0.000000000000000000, -1.000000000000000000 ) ) ;
#393 = DIRECTION ( 'NONE',  ( 0.000000000000000000, 0.000000000000000000, -1.000000000000000000 ) ) ;
#394 = VERTEX_POINT ( 'NONE', #728 ) ;
#395 = CARTESIAN_POINT ( 'NONE',  ( 140.0071426749364036, 75.00000000000000000, -50.00000000000000711 ) ) ;
#396 = CARTESIAN_POINT ( 'NONE',  ( 0.000000000000000000, 75.00000000000000000, -115.0071426749364178 ) ) ;
#397 =( GEOMETRIC_REPRESENTATION_CONTEXT ( 3 ) GLOBAL_UNCERTAINTY_ASSIGNED_CONTEXT ( ( #414 ) ) GLOBAL_UNIT_ASSIGNED_CONTEXT ( ( #349, #600, #51 ) ) REPRESENTATION_CONTEXT ( 'NONE', 'WORKASPACE' ) );
#398 = DIRECTION ( 'NONE',  ( 0.000000000000000000, 0.000000000000000000, -1.000000000000000000 ) ) ;
#399 = EDGE_LOOP ( 'NONE', ( #750, #756, #672, #422 ) ) ;
#400 = VECTOR ( 'NONE', #538, 1000.000000000000000 ) ;
#401 = DIRECTION ( 'NONE',  ( 0.000000000000000000, -0.7071067811865474617, -0.7071067811865475727 ) ) ;
#402 = DIRECTION ( 'NONE',  ( 0.000000000000000000, 0.000000000000000000, -1.000000000000000000 ) ) ;
#403 = LINE ( 'NONE', #650, #251 ) ;
#404 = ORIENTED_EDGE ( 'NONE', *, *, #423, .F. ) ;
#405 = EDGE_CURVE ( 'NONE', #651, #381, #596, .T. ) ;
#406 = CARTESIAN_POINT ( 'NONE',  ( 115.0071426749364178, 0.000000000000000000, -140.0071426749364036 ) ) ;
#407 = DIRECTION ( 'NONE',  ( 0.000000000000000000, -1.000000000000000000, -0.000000000000000000 ) ) ;
#408 = CARTESIAN_POINT ( 'NONE',  ( 140.0071426749364036, 75.00000000000000000, -140.0071426749364036 ) ) ;
#409 = EDGE_LOOP ( 'NONE', ( #94, #250, #34, #97 ) ) ;
#410 = EDGE_CURVE ( 'NONE', #379, #285, #789, .T. ) ;
#411 = CARTESIAN_POINT ( 'NONE',  ( 0.000000000000000000, 75.00000000000001421, 0.000000000000000000 ) ) ;
#412 = LINE ( 'NONE', #732, #240 ) ;
#413 = ORIENTED_EDGE ( 'NONE', *, *, #304, .T. ) ;
#414 = UNCERTAINTY_MEASURE_WITH_UNIT (LENGTH_MEASURE( 1.000000000000000082E-05 ), #349, 'distance_accuracy_value', 'NONE');
#415 = VECTOR ( 'NONE', #418, 1000.000000000000000 ) ;
#416 = AXIS2_PLACEMENT_3D ( 'NONE', #373, #671, #494 ) ;
#417 = DIRECTION ( 'NONE',  ( 0.000000000000000000, 0.000000000000000000, -1.000000000000000000 ) ) ;
#418 = DIRECTION ( 'NONE',  ( 8.659560562354934091E-17, -0.7071067811865474617, 0.7071067811865475727 ) ) ;
#419 = CARTESIAN_POINT ( 'NONE',  ( 140.0071426749364036, 75.00000000000000000, 50.00000000000000711 ) ) ;
#420 = ORIENTED_EDGE ( 'NONE', *, *, #115, .T. ) ;
#421 = CARTESIAN_POINT ( 'NONE',  ( 0.000000000000000000, 125.0000000000000000, 0.000000000000000000 ) ) ;
#422 = ORIENTED_EDGE ( 'NONE', *, *, #223, .T. ) ;
#423 = EDGE_CURVE ( 'NONE', #265, #71, #169, .T. ) ;
#424 = CIRCLE ( 'NONE', #461, 50.00000000000001421 ) ;
#425 = DIRECTION ( 'NONE',  ( 0.000000000000000000, 0.000000000000000000, 1.000000000000000000 ) ) ;
#426 = AXIS2_PLACEMENT_3D ( 'NONE', #264, #686, #156 ) ;
#427 = CARTESIAN_POINT ( 'NONE',  ( 140.0071426749364036, 442.7056274847713553, 0.000000000000000000 ) ) ;
#428 = ORIENTED_EDGE ( 'NONE', *, *, #771, .T. ) ;
#429 = VECTOR ( 'NONE', #18, 1000.000000000000000 ) ;
#430 =( LENGTH_UNIT ( ) NAMED_UNIT ( * ) SI_UNIT ( .MILLI., .METRE. ) );
#431 = ORIENTED_EDGE ( 'NONE', *, *, #318, .T. ) ;
#432 = EDGE_CURVE ( 'NONE', #88, #285, #390, .T. ) ;
#433 = CARTESIAN_POINT ( 'NONE',  ( 140.0071426749364036, 125.0000000000000000, 0.000000000000000000 ) ) ;
#434 = ORIENTED_EDGE ( 'NONE', *, *, #318, .F. ) ;
#435 = DIRECTION ( 'NONE',  ( -0.000000000000000000, -1.000000000000000000, -0.000000000000000000 ) ) ;
#436 = ADVANCED_FACE ( 'NONE', ( #606 ), #298, .T. ) ;
#437 = ORIENTED_EDGE ( 'NONE', *, *, #621, .T. ) ;
#438 = LINE ( 'NONE', #14, #730 ) ;
#439 = AXIS2_PLACEMENT_3D ( 'NONE', #451, #26, #467 ) ;
#440 = CARTESIAN_POINT ( 'NONE',  ( 0.000000000000000000, 75.00000000000001421, -140.0071426749364036 ) ) ;
#441 = EDGE_LOOP ( 'NONE', ( #748, #720, #729 ) ) ;
#442 = ADVANCED_FACE ( 'NONE', ( #655 ), #180, .T. ) ;
#443 = CARTESIAN_POINT ( 'NONE',  ( 140.0071426749364036, 75.00000000000000000, 0.000000000000000000 ) ) ;
#444 = DIRECTION ( 'NONE',  ( 0.000000000000000000, 0.000000000000000000, -1.000000000000000000 ) ) ;
#445 = FACE_OUTER_BOUND ( 'NONE', #186, .T. ) ;
#446 = ORIENTED_EDGE ( 'NONE', *, *, #405, .F. ) ;
#447 = EDGE_CURVE ( 'NONE', #277, #170, #715, .T. ) ;
#448 = CARTESIAN_POINT ( 'NONE',  ( 0.000000000000000000, 0.000000000000000000, -0.000000000000000000 ) ) ;
#449 = DIRECTION ( 'NONE',  ( 0.000000000000000000, 0.000000000000000000, -1.000000000000000000 ) ) ;
#450 = CARTESIAN_POINT ( 'NONE',  ( 0.000000000000000000, 0.000000000000000000, -25.00000000000000000 ) ) ;
#451 = CARTESIAN_POINT ( 'NONE',  ( 0.000000000000000000, 0.000000000000000000, 0.000000000000000000 ) ) ;
#452 = CARTESIAN_POINT ( 'NONE',  ( 140.0071426749364036, 75.00000000000000000, -140.0071426749364036 ) ) ;
#453 = ORIENTED_EDGE ( 'NONE', *, *, #465, .T. ) ;
#454 = VECTOR ( 'NONE', #235, 1000.000000000000000 ) ;
#455 = DIRECTION ( 'NONE',  ( 0.000000000000000000, 0.000000000000000000, -1.000000000000000000 ) ) ;
#456 = EDGE_CURVE ( 'NONE', #610, #692, #174, .T. ) ;
#457 = DIRECTION ( 'NONE',  ( -0.000000000000000000, -1.000000000000000000, -0.000000000000000000 ) ) ;
#458 = EDGE_LOOP ( 'NONE', ( #677, #343, #331, #39 ) ) ;
#459 = LINE ( 'NONE', #411, #17 ) ;
#460 = ORIENTED_EDGE ( 'NONE', *, *, #721, .F. ) ;
#461 = AXIS2_PLACEMENT_3D ( 'NONE', #452, #703, #392 ) ;
#462 = ORIENTED_EDGE ( 'NONE', *, *, #80, .T. ) ;
#463 = CARTESIAN_POINT ( 'NONE',  ( 115.0071426749364178, 75.00000000000000000, 0.000000000000000000 ) ) ;
#464 = ORIENTED_EDGE ( 'NONE', *, *, #755, .F. ) ;
#465 = EDGE_CURVE ( 'NONE', #675, #607, #412, .T. ) ;
#466 = FACE_OUTER_BOUND ( 'NONE', #776, .T. ) ;
#467 = DIRECTION ( 'NONE',  ( 0.000000000000000000, 0.000000000000000000, -1.000000000000000000 ) ) ;
#468 = VERTEX_POINT ( 'NONE', #602 ) ;
#469 = CARTESIAN_POINT ( 'NONE',  ( -60.00000000000000000, 442.7056274847713553, 0.000000000000000000 ) ) ;
#470 = DIRECTION ( 'NONE',  ( 0.000000000000000000, 0.000000000000000000, -1.000000000000000000 ) ) ;
#471 = CARTESIAN_POINT ( 'NONE',  ( 0.000000000000000000, 0.000000000000000000, 0.000000000000000000 ) ) ;
#472 = ORIENTED_EDGE ( 'NONE', *, *, #362, .F. ) ;
#473 = VECTOR ( 'NONE', #786, 1000.000000000000000 ) ;
#474 = EDGE_CURVE ( 'NONE', #381, #763, #403, .T. ) ;
#475 = CARTESIAN_POINT ( 'NONE',  ( 140.0071426749364036, 75.00000000000000000, -140.0071426749364036 ) ) ;
#476 = LINE ( 'NONE', #727, #314 ) ;
#477 = CARTESIAN_POINT ( 'NONE',  ( 140.0071426749364036, 125.0000000000000000, -140.0071426749364036 ) ) ;
#478 = VERTEX_POINT ( 'NONE', #477 ) ;
#479 = AXIS2_PLACEMENT_3D ( 'NONE', #293, #181, #43 ) ;
#480 = EDGE_CURVE ( 'NONE', #515, #227, #183, .T. ) ;
#481 = PLANE ( 'NONE',  #65 ) ;
#482 = CARTESIAN_POINT ( 'NONE',  ( 0.000000000000000000, 0.000000000000000000, -140.0071426749364036 ) ) ;
#483 = VERTEX_POINT ( 'NONE', #576 ) ;
#484 = LINE ( 'NONE', #10, #75 ) ;
#485 = ORIENTED_EDGE ( 'NONE', *, *, #245, .F. ) ;
#486 = SURFACE_STYLE_FILL_AREA ( #196 ) ;
#487 = ORIENTED_EDGE ( 'NONE', *, *, #7, .F. ) ;
#488 = ADVANCED_FACE ( 'NONE', ( #347 ), #320, .T. ) ;
#489 = AXIS2_PLACEMENT_3D ( 'NONE', #792, #352, #659 ) ;
#490 = AXIS2_PLACEMENT_3D ( 'NONE', #427, #306, #499 ) ;
#491 = SURFACE_SIDE_STYLE ('',( #486 ) ) ;
#492 = VERTEX_POINT ( 'NONE', #63 ) ;
#493 = CARTESIAN_POINT ( 'NONE',  ( 0.000000000000000000, 442.7056274847713553, 0.000000000000000000 ) ) ;
#494 = DIRECTION ( 'NONE',  ( 0.000000000000000000, 0.000000000000000000, -1.000000000000000000 ) ) ;
#495 = ORIENTED_EDGE ( 'NONE', *, *, #700, .T. ) ;
#496 = PRODUCT ( 'N406_base', 'N406_base', '', ( #663 ) ) ;
#497 = CARTESIAN_POINT ( 'NONE',  ( 0.000000000000000000, 75.00000000000000000, -90.00714267493640364 ) ) ;
#498 = EDGE_CURVE ( 'NONE', #265, #483, #279, .T. ) ;
#499 = DIRECTION ( 'NONE',  ( 0.000000000000000000, 0.000000000000000000, -1.000000000000000000 ) ) ;
#500 = ORIENTED_EDGE ( 'NONE', *, *, #711, .F. ) ;
#501 = DIRECTION ( 'NONE',  ( 0.000000000000000000, 0.000000000000000000, -1.000000000000000000 ) ) ;
#502 = CARTESIAN_POINT ( 'NONE',  ( 115.0071426749364178, 75.00000000000000000, -140.0071426749364036 ) ) ;
#503 = AXIS2_PLACEMENT_3D ( 'NONE', #153, #382, #683 ) ;
#504 = DIRECTION ( 'NONE',  ( 0.000000000000000000, -0.7071067811865474617, -0.7071067811865475727 ) ) ;
#505 = ORIENTED_EDGE ( 'NONE', *, *, #233, .T. ) ;
#506 = ORIENTED_EDGE ( 'NONE', *, *, #648, .T. ) ;
#507 = DIRECTION ( 'NONE',  ( -0.000000000000000000, -1.000000000000000000, -0.000000000000000000 ) ) ;
#508 = DIRECTION ( 'NONE',  ( 1.000000000000000000, -0.000000000000000000, 0.000000000000000000 ) ) ;
#509 = ORIENTED_EDGE ( 'NONE', *, *, #386, .T. ) ;
#510 = ORIENTED_EDGE ( 'NONE', *, *, #700, .F. ) ;
#511 = LINE ( 'NONE', #448, #188 ) ;
#512 = CIRCLE ( 'NONE', #695, 24.99999999999999289 ) ;
#513 = CARTESIAN_POINT ( 'NONE',  ( 0.000000000000000000, 442.7056274847713553, 60.00000000000003553 ) ) ;
#514 = CYLINDRICAL_SURFACE ( 'NONE', #164, 24.99999999999999289 ) ;
#515 = VERTEX_POINT ( 'NONE', #433 ) ;
#516 = LINE ( 'NONE', #592, #46 ) ;
#517 = EDGE_CURVE ( 'NONE', #77, #687, #15, .T. ) ;
#518 = CARTESIAN_POINT ( 'NONE',  ( 140.0071426749364036, 75.00000000000000000, -50.00000000000000711 ) ) ;
#519 = LINE ( 'NONE', #213, #305 ) ;
#520 = VECTOR ( 'NONE', #605, 1000.000000000000000 ) ;
#521 = AXIS2_PLACEMENT_3D ( 'NONE', #253, #747, #378 ) ;
#522 = ORIENTED_EDGE ( 'NONE', *, *, #245, .T. ) ;
#523 = CARTESIAN_POINT ( 'NONE',  ( 25.00000000000000000, 75.00000000000000000, -140.0071426749364036 ) ) ;
#524 = LINE ( 'NONE', #282, #415 ) ;
#525 = EDGE_LOOP ( 'NONE', ( #413, #660, #64, #137, #364, #246 ) ) ;
#526 = APPLICATION_PROTOCOL_DEFINITION ( 'draft international standard', 'automotive_design', 1998, #86 ) ;
#527 = ADVANCED_FACE ( 'NONE', ( #256 ), #72, .T. ) ;
#528 = AXIS2_PLACEMENT_3D ( 'NONE', #176, #775, #470 ) ;
#529 = ORIENTED_EDGE ( 'NONE', *, *, #637, .F. ) ;
#530 = DIRECTION ( 'NONE',  ( -0.000000000000000000, -1.000000000000000000, -0.000000000000000000 ) ) ;
#531 = ORIENTED_EDGE ( 'NONE', *, *, #746, .F. ) ;
#532 = VECTOR ( 'NONE', #284, 1000.000000000000000 ) ;
#533 = STYLED_ITEM ( 'NONE', ( #133 ), #599 ) ;
#534 = DIRECTION ( 'NONE',  ( -0.000000000000000000, -1.000000000000000000, -0.000000000000000000 ) ) ;
#535 = CARTESIAN_POINT ( 'NONE',  ( 0.000000000000000000, 0.000000000000000000, 60.00000000000003553 ) ) ;
#536 = VERTEX_POINT ( 'NONE', #311 ) ;
#537 = LINE ( 'NONE', #161, #234 ) ;
#538 = DIRECTION ( 'NONE',  ( 1.000000000000000000, -0.000000000000000000, 0.000000000000000000 ) ) ;
#539 = ORIENTED_EDGE ( 'NONE', *, *, #187, .T. ) ;
#540 = ADVANCED_FACE ( 'NONE', ( #309 ), #315, .F. ) ;
#541 = FACE_OUTER_BOUND ( 'NONE', #184, .T. ) ;
#542 = DIRECTION ( 'NONE',  ( -0.000000000000000000, -1.000000000000000000, -0.000000000000000000 ) ) ;
#543 = ORIENTED_EDGE ( 'NONE', *, *, #308, .T. ) ;
#544 = DIRECTION ( 'NONE',  ( -0.000000000000000000, -1.000000000000000000, -0.000000000000000000 ) ) ;
#545 = VERTEX_POINT ( 'NONE', #421 ) ;
#546 = CARTESIAN_POINT ( 'NONE',  ( 140.0071426749364036, 75.00000000000001421, 0.000000000000000000 ) ) ;
#547 = EDGE_CURVE ( 'NONE', #162, #88, #154, .T. ) ;
#548 = ORIENTED_EDGE ( 'NONE', *, *, #365, .F. ) ;
#549 = AXIS2_PLACEMENT_3D ( 'NONE', #753, #457, #32 ) ;
#550 = DIRECTION ( 'NONE',  ( -0.000000000000000000, -1.000000000000000000, -0.000000000000000000 ) ) ;
#551 = ORIENTED_EDGE ( 'NONE', *, *, #362, .T. ) ;
#552 = EDGE_CURVE ( 'NONE', #651, #316, #557, .T. ) ;
#553 = DIRECTION ( 'NONE',  ( 0.000000000000000000, 0.000000000000000000, 1.000000000000000000 ) ) ;
#554 = DIRECTION ( 'NONE',  ( 0.000000000000000000, 0.000000000000000000, -1.000000000000000000 ) ) ;
#555 = CIRCLE ( 'NONE', #389, 25.00000000000000000 ) ;
#556 = AXIS2_PLACEMENT_3D ( 'NONE', #131, #544, #735 ) ;
#557 = LINE ( 'NONE', #66, #121 ) ;
#558 = ORIENTED_EDGE ( 'NONE', *, *, #547, .T. ) ;
#559 = CARTESIAN_POINT ( 'NONE',  ( 0.000000000000000000, 75.00000000000001421, 0.000000000000000000 ) ) ;
#560 = EDGE_CURVE ( 'NONE', #379, #687, #767, .T. ) ;
#561 = CARTESIAN_POINT ( 'NONE',  ( 0.000000000000000000, 75.00000000000000000, -140.0071426749364036 ) ) ;
#562 = EDGE_LOOP ( 'NONE', ( #510, #294, #569, #726 ) ) ;
#563 = DIRECTION ( 'NONE',  ( -0.000000000000000000, -1.000000000000000000, -0.000000000000000000 ) ) ;
#564 = VECTOR ( 'NONE', #300, 1000.000000000000000 ) ;
#565 = CARTESIAN_POINT ( 'NONE',  ( 140.0071426749364036, 0.000000000000000000, -25.00000000000000000 ) ) ;
#566 = CARTESIAN_POINT ( 'NONE',  ( 0.000000000000000000, 125.0000000000000000, -140.0071426749364036 ) ) ;
#567 = DIRECTION ( 'NONE',  ( 0.000000000000000000, 0.000000000000000000, -1.000000000000000000 ) ) ;
#568 = CARTESIAN_POINT ( 'NONE',  ( -60.00000000000000000, 75.00000000000001421, -200.0071426749364036 ) ) ;
#569 = ORIENTED_EDGE ( 'NONE', *, *, #474, .T. ) ;
#570 = ORIENTED_EDGE ( 'NONE', *, *, #648, .F. ) ;
#571 = LINE ( 'NONE', #693, #138 ) ;
#572 = CARTESIAN_POINT ( 'NONE',  ( 0.000000000000000000, 75.00000000000000000, -140.0071426749364036 ) ) ;
#573 = ORIENTED_EDGE ( 'NONE', *, *, #233, .F. ) ;
#574 = EDGE_CURVE ( 'NONE', #285, #162, #795, .T. ) ;
#575 = ORIENTED_EDGE ( 'NONE', *, *, #755, .T. ) ;
#576 = CARTESIAN_POINT ( 'NONE',  ( 0.000000000000000000, 75.00000000000000000, -190.0071426749364321 ) ) ;
#577 = VECTOR ( 'NONE', #172, 1000.000000000000000 ) ;
#578 = FACE_BOUND ( 'NONE', #102, .T. ) ;
#579 = DIRECTION ( 'NONE',  ( -0.000000000000000000, -1.000000000000000000, -0.000000000000000000 ) ) ;
#580 = ORIENTED_EDGE ( 'NONE', *, *, #308, .F. ) ;
#581 = ADVANCED_FACE ( 'NONE', ( #244 ), #127, .T. ) ;
#582 = DIRECTION ( 'NONE',  ( 0.000000000000000000, 0.000000000000000000, -1.000000000000000000 ) ) ;
#583 = CARTESIAN_POINT ( 'NONE',  ( 140.0071426749364036, 75.00000000000000000, -25.00000000000000000 ) ) ;
#584 = CONICAL_SURFACE ( 'NONE', #290, 50.00000000000000711, 0.7853981633974483900 ) ;
#585 = CONICAL_SURFACE ( 'NONE', #139, 50.00000000000001421, 0.7853981633974483900 ) ;
#586 = ORIENTED_EDGE ( 'NONE', *, *, #646, .F. ) ;
#587 = PRODUCT_DEFINITION_CONTEXT ( 'detailed design', #86, 'design' ) ;
#588 = EDGE_CURVE ( 'NONE', #675, #468, #484, .T. ) ;
#589 = CARTESIAN_POINT ( 'NONE',  ( 0.000000000000000000, 75.00000000000001421, 0.000000000000000000 ) ) ;
#590 = ADVANCED_FACE ( 'NONE', ( #249 ), #668, .T. ) ;
#591 = AXIS2_PLACEMENT_3D ( 'NONE', #341, #281, #582 ) ;
#592 = CARTESIAN_POINT ( 'NONE',  ( 0.000000000000000000, 0.000000000000000000, -115.0071426749364178 ) ) ;
#593 = VERTEX_POINT ( 'NONE', #676 ) ;
#594 = LINE ( 'NONE', #657, #31 ) ;
#595 = DIRECTION ( 'NONE',  ( -0.000000000000000000, -1.000000000000000000, -0.000000000000000000 ) ) ;
#596 = LINE ( 'NONE', #471, #742 ) ;
#597 = ORIENTED_EDGE ( 'NONE', *, *, #738, .F. ) ;
#598 = VECTOR ( 'NONE', #376, 1000.000000000000000 ) ;
#599 = MANIFOLD_SOLID_BREP ( 'Sketch-Pattern1', #177 ) ;
#600 =( NAMED_UNIT ( * ) PLANE_ANGLE_UNIT ( ) SI_UNIT ( $, .RADIAN. ) );
#601 = CARTESIAN_POINT ( 'NONE',  ( 0.000000000000000000, 0.000000000000000000, -25.00000000000000000 ) ) ;
#602 = CARTESIAN_POINT ( 'NONE',  ( 200.0071426749363468, 75.00000000000001421, 60.00000000000003553 ) ) ;
#603 = ORIENTED_EDGE ( 'NONE', *, *, #560, .F. ) ;
#604 = ADVANCED_FACE ( 'NONE', ( #259 ), #1, .F. ) ;
#605 = DIRECTION ( 'NONE',  ( -0.000000000000000000, -1.000000000000000000, -0.000000000000000000 ) ) ;
#606 = FACE_OUTER_BOUND ( 'NONE', #126, .T. ) ;
#607 = VERTEX_POINT ( 'NONE', #568 ) ;
#608 = VECTOR ( 'NONE', #158, 1000.000000000000000 ) ;
#609 = DIRECTION ( 'NONE',  ( 0.000000000000000000, 0.000000000000000000, -1.000000000000000000 ) ) ;
#610 = VERTEX_POINT ( 'NONE', #96 ) ;
#611 = AXIS2_PLACEMENT_3D ( 'NONE', #653, #351, #47 ) ;
#612 = EDGE_CURVE ( 'NONE', #370, #265, #209, .T. ) ;
#613 = CARTESIAN_POINT ( 'NONE',  ( 0.000000000000000000, 75.00000000000000000, -140.0071426749364036 ) ) ;
#614 = VERTEX_POINT ( 'NONE', #565 ) ;
#615 = PRODUCT_RELATED_PRODUCT_CATEGORY ( 'part', '', ( #496 ) ) ;
#616 = DIRECTION ( 'NONE',  ( -0.000000000000000000, -1.000000000000000000, -0.000000000000000000 ) ) ;
#617 = ORIENTED_EDGE ( 'NONE', *, *, #356, .F. ) ;
#618 = PRODUCT_DEFINITION_FORMATION_WITH_SPECIFIED_SOURCE ( 'ANY', '', #496, .NOT_KNOWN. ) ;
#619 = DIRECTION ( 'NONE',  ( 0.000000000000000000, 0.000000000000000000, -1.000000000000000000 ) ) ;
#620 = ORIENTED_EDGE ( 'NONE', *, *, #374, .F. ) ;
#621 = EDGE_CURVE ( 'NONE', #515, #687, #705, .T. ) ;
#622 = DIRECTION ( 'NONE',  ( 0.000000000000000000, 0.000000000000000000, -1.000000000000000000 ) ) ;
#623 = AXIS2_PLACEMENT_3D ( 'NONE', #493, #760, #567 ) ;
#624 = COLOUR_RGB ( '',0.7921568627450980005, 0.8196078431372548767, 0.9333333333333333481 ) ;
#625 = EDGE_LOOP ( 'NONE', ( #740, #446, #793, #573, #361, #346 ) ) ;
#626 = ADVANCED_FACE ( 'NONE', ( #578, #328 ), #20, .T. ) ;
#627 = DIRECTION ( 'NONE',  ( 0.000000000000000000, 0.000000000000000000, -1.000000000000000000 ) ) ;
#628 = CARTESIAN_POINT ( 'NONE',  ( 140.0071426749364036, 0.000000000000000000, -25.00000000000000000 ) ) ;
#629 = ORIENTED_EDGE ( 'NONE', *, *, #560, .T. ) ;
#630 = DIRECTION ( 'NONE',  ( -1.000000000000000000, 0.000000000000000000, 0.000000000000000000 ) ) ;
#631 = VECTOR ( 'NONE', #638, 1000.000000000000000 ) ;
#632 = DIRECTION ( 'NONE',  ( -0.000000000000000000, -1.000000000000000000, -0.000000000000000000 ) ) ;
#633 = DIRECTION ( 'NONE',  ( 0.000000000000000000, 0.000000000000000000, -1.000000000000000000 ) ) ;
#634 = ORIENTED_EDGE ( 'NONE', *, *, #432, .F. ) ;
#635 = CYLINDRICAL_SURFACE ( 'NONE', #439, 25.00000000000000000 ) ;
#636 = AXIS2_PLACEMENT_3D ( 'NONE', #388, #579, #704 ) ;
#637 = EDGE_CURVE ( 'NONE', #763, #77, #197, .T. ) ;
#638 = DIRECTION ( 'NONE',  ( 0.000000000000000000, 1.000000000000000000, 0.000000000000000000 ) ) ;
#639 = CARTESIAN_POINT ( 'NONE',  ( 0.000000000000000000, 75.00000000000000000, 0.000000000000000000 ) ) ;
#640 = ORIENTED_EDGE ( 'NONE', *, *, #771, .F. ) ;
#641 = DIRECTION ( 'NONE',  ( 0.000000000000000000, 0.000000000000000000, -1.000000000000000000 ) ) ;
#642 = LINE ( 'NONE', #628, #631 ) ;
#643 = FACE_OUTER_BOUND ( 'NONE', #441, .T. ) ;
#644 = ORIENTED_EDGE ( 'NONE', *, *, #746, .T. ) ;
#645 = DIRECTION ( 'NONE',  ( -0.000000000000000000, -1.000000000000000000, -0.000000000000000000 ) ) ;
#646 = EDGE_CURVE ( 'NONE', #170, #16, #333, .T. ) ;
#647 = CONICAL_SURFACE ( 'NONE', #377, 50.00000000000001421, 0.7853981633974483900 ) ;
#648 = EDGE_CURVE ( 'NONE', #483, #370, #339, .T. ) ;
#649 = LINE ( 'NONE', #57, #215 ) ;
#650 = CARTESIAN_POINT ( 'NONE',  ( 115.0071426749364178, 0.000000000000000000, 0.000000000000000000 ) ) ;
#651 = VERTEX_POINT ( 'NONE', #23 ) ;
#652 = CARTESIAN_POINT ( 'NONE',  ( 140.0071426749364036, 75.00000000000000000, -90.00714267493640364 ) ) ;
#653 = CARTESIAN_POINT ( 'NONE',  ( 140.0071426749364036, 75.00000000000000000, 0.000000000000000000 ) ) ;
#654 = VECTOR ( 'NONE', #508, 1000.000000000000000 ) ;
#655 = FACE_OUTER_BOUND ( 'NONE', #385, .T. ) ;
#656 = ORIENTED_EDGE ( 'NONE', *, *, #7, .T. ) ;
#657 = CARTESIAN_POINT ( 'NONE',  ( 0.000000000000000000, 75.00000000000001421, 60.00000000000003553 ) ) ;
#658 = EDGE_CURVE ( 'NONE', #142, #651, #774, .T. ) ;
#659 = DIRECTION ( 'NONE',  ( 0.000000000000000000, 0.000000000000000000, -1.000000000000000000 ) ) ;
#660 = ORIENTED_EDGE ( 'NONE', *, *, #159, .T. ) ;
#661 = CIRCLE ( 'NONE', #611, 50.00000000000000711 ) ;
#662 = AXIS2_PLACEMENT_3D ( 'NONE', #136, #680, #609 ) ;
#663 = PRODUCT_CONTEXT ( 'NONE', #105, 'mechanical' ) ;
#664 = CARTESIAN_POINT ( 'NONE',  ( 6.123233995736766874E-15, 75.00000000000000000, 50.00000000000000711 ) ) ;
#665 = ADVANCED_FACE ( 'NONE', ( #203 ), #37, .F. ) ;
#666 = DIRECTION ( 'NONE',  ( 8.659560562354934091E-17, -0.7071067811865474617, 0.7071067811865475727 ) ) ;
#667 = EDGE_LOOP ( 'NONE', ( #505, #329, #799, #325 ) ) ;
#668 = PLANE ( 'NONE',  #521 ) ;
#669 = EDGE_LOOP ( 'NONE', ( #338, #575, #73, #548 ) ) ;
#670 = EDGE_CURVE ( 'NONE', #151, #614, #27, .T. ) ;
#671 = DIRECTION ( 'NONE',  ( 0.000000000000000000, -1.000000000000000000, -0.000000000000000000 ) ) ;
#672 = ORIENTED_EDGE ( 'NONE', *, *, #280, .T. ) ;
#673 = VECTOR ( 'NONE', #228, 1000.000000000000000 ) ;
#674 = DIRECTION ( 'NONE',  ( 0.000000000000000000, 0.000000000000000000, -1.000000000000000000 ) ) ;
#675 = VERTEX_POINT ( 'NONE', #149 ) ;
#676 = CARTESIAN_POINT ( 'NONE',  ( 0.000000000000000000, 75.00000000000000000, -25.00000000000000000 ) ) ;
#677 = ORIENTED_EDGE ( 'NONE', *, *, #386, .F. ) ;
#678 = CIRCLE ( 'NONE', #788, 25.00000000000000000 ) ;
#679 = CYLINDRICAL_SURFACE ( 'NONE', #503, 24.99999999999999289 ) ;
#680 = DIRECTION ( 'NONE',  ( 0.000000000000000000, -1.000000000000000000, -0.000000000000000000 ) ) ;
#681 = EDGE_CURVE ( 'NONE', #128, #370, #387, .T. ) ;
#682 = EDGE_LOOP ( 'NONE', ( #132, #529, #11, #629 ) ) ;
#683 = DIRECTION ( 'NONE',  ( 0.000000000000000000, 0.000000000000000000, -1.000000000000000000 ) ) ;
#684 = VECTOR ( 'NONE', #630, 1000.000000000000000 ) ;
#685 = VECTOR ( 'NONE', #666, 1000.000000000000000 ) ;
#686 = DIRECTION ( 'NONE',  ( 0.000000000000000000, -1.000000000000000000, -0.000000000000000000 ) ) ;
#687 = VERTEX_POINT ( 'NONE', #395 ) ;
#688 = EDGE_LOOP ( 'NONE', ( #29, #437, #603, #531 ) ) ;
#689 = FACE_OUTER_BOUND ( 'NONE', #399, .T. ) ;
#690 = PLANE ( 'NONE',  #752 ) ;
#691 = CARTESIAN_POINT ( 'NONE',  ( 0.000000000000000000, 75.00000000000000000, -190.0071426749364321 ) ) ;
#692 = VERTEX_POINT ( 'NONE', #761 ) ;
#693 = CARTESIAN_POINT ( 'NONE',  ( 140.0071426749364036, 75.00000000000001421, 0.000000000000000000 ) ) ;
#694 = EDGE_CURVE ( 'NONE', #214, #128, #424, .T. ) ;
#695 = AXIS2_PLACEMENT_3D ( 'NONE', #222, #722, #45 ) ;
#696 = DIRECTION ( 'NONE',  ( -0.000000000000000000, -1.000000000000000000, -0.000000000000000000 ) ) ;
#697 = DIRECTION ( 'NONE',  ( -0.000000000000000000, -1.000000000000000000, -0.000000000000000000 ) ) ;
#698 = ORIENTED_EDGE ( 'NONE', *, *, #42, .F. ) ;
#699 = DIRECTION ( 'NONE',  ( 0.000000000000000000, 0.000000000000000000, -1.000000000000000000 ) ) ;
#700 = EDGE_CURVE ( 'NONE', #614, #77, #642, .T. ) ;
#701 = AXIS2_PLACEMENT_3D ( 'NONE', #84, #9, #90 ) ;
#702 = AXIS2_PLACEMENT_3D ( 'NONE', #613, #550, #189 ) ;
#703 = DIRECTION ( 'NONE',  ( -0.000000000000000000, -1.000000000000000000, -0.000000000000000000 ) ) ;
#704 = DIRECTION ( 'NONE',  ( 0.000000000000000000, 0.000000000000000000, -1.000000000000000000 ) ) ;
#705 = LINE ( 'NONE', #518, #708 ) ;
#706 = ADVANCED_FACE ( 'NONE', ( #101 ), #40, .T. ) ;
#707 = VERTEX_POINT ( 'NONE', #81 ) ;
#708 = VECTOR ( 'NONE', #504, 1000.000000000000000 ) ;
#709 = CARTESIAN_POINT ( 'NONE',  ( -60.00000000000000000, 442.7056274847713553, -200.0071426749364036 ) ) ;
#710 = VERTEX_POINT ( 'NONE', #523 ) ;
#711 = EDGE_CURVE ( 'NONE', #593, #88, #141, .T. ) ;
#712 = DIRECTION ( 'NONE',  ( -1.000000000000000000, 0.000000000000000000, 0.000000000000000000 ) ) ;
#713 = FACE_BOUND ( 'NONE', #193, .T. ) ;
#714 = AXIS2_PLACEMENT_3D ( 'NONE', #33, #769, #220 ) ;
#715 = LINE ( 'NONE', #49, #380 ) ;
#716 = ORIENTED_EDGE ( 'NONE', *, *, #517, .T. ) ;
#717 = DIRECTION ( 'NONE',  ( -0.000000000000000000, -1.000000000000000000, -0.000000000000000000 ) ) ;
#718 = PLANE ( 'NONE',  #741 ) ;
#719 = CARTESIAN_POINT ( 'NONE',  ( 0.000000000000000000, 75.00000000000001421, 0.000000000000000000 ) ) ;
#720 = ORIENTED_EDGE ( 'NONE', *, *, #480, .T. ) ;
#721 = EDGE_CURVE ( 'NONE', #692, #289, #225, .T. ) ;
#722 = DIRECTION ( 'NONE',  ( -0.000000000000000000, -1.000000000000000000, -0.000000000000000000 ) ) ;
#723 = CIRCLE ( 'NONE', #372, 24.99999999999999289 ) ;
#724 = DIRECTION ( 'NONE',  ( 0.000000000000000000, 0.000000000000000000, -1.000000000000000000 ) ) ;
#725 = AXIS2_PLACEMENT_3D ( 'NONE', #777, #41, #782 ) ;
#726 = ORIENTED_EDGE ( 'NONE', *, *, #637, .T. ) ;
#727 = CARTESIAN_POINT ( 'NONE',  ( 25.00000000000000000, 0.000000000000000000, -140.0071426749364036 ) ) ;
#728 = CARTESIAN_POINT ( 'NONE',  ( 140.0071426749364036, 75.00000000000000000, -190.0071426749364321 ) ) ;
#729 = ORIENTED_EDGE ( 'NONE', *, *, #104, .F. ) ;
#730 = VECTOR ( 'NONE', #554, 1000.000000000000000 ) ;
#731 = PRESENTATION_LAYER_ASSIGNMENT (  '', '', ( #533 ) ) ;
#732 = CARTESIAN_POINT ( 'NONE',  ( 0.000000000000000000, 75.00000000000001421, -200.0071426749364036 ) ) ;
#733 = EDGE_CURVE ( 'NONE', #478, #214, #165, .T. ) ;
#734 = ORIENTED_EDGE ( 'NONE', *, *, #658, .T. ) ;
#735 = DIRECTION ( 'NONE',  ( 0.000000000000000000, 0.000000000000000000, -1.000000000000000000 ) ) ;
#736 = AXIS2_PLACEMENT_3D ( 'NONE', #92, #768, #207 ) ;
#737 = ORIENTED_EDGE ( 'NONE', *, *, #163, .T. ) ;
#738 = EDGE_CURVE ( 'NONE', #607, #170, #772, .T. ) ;
#739 = DIRECTION ( 'NONE',  ( 0.000000000000000000, -1.000000000000000000, -0.000000000000000000 ) ) ;
#740 = ORIENTED_EDGE ( 'NONE', *, *, #474, .F. ) ;
#741 = AXIS2_PLACEMENT_3D ( 'NONE', #168, #407, #402 ) ;
#742 = VECTOR ( 'NONE', #112, 1000.000000000000000 ) ;
#743 = DIRECTION ( 'NONE',  ( -0.000000000000000000, -1.000000000000000000, -0.000000000000000000 ) ) ;
#744 = ORIENTED_EDGE ( 'NONE', *, *, #781, .F. ) ;
#745 = CARTESIAN_POINT ( 'NONE',  ( 0.000000000000000000, 75.00000000000001421, -140.0071426749364036 ) ) ;
#746 = EDGE_CURVE ( 'NONE', #227, #379, #83, .T. ) ;
#747 = DIRECTION ( 'NONE',  ( 0.000000000000000000, 0.000000000000000000, -1.000000000000000000 ) ) ;
#748 = ORIENTED_EDGE ( 'NONE', *, *, #621, .F. ) ;
#749 = CYLINDRICAL_SURFACE ( 'NONE', #766, 25.00000000000000000 ) ;
#750 = ORIENTED_EDGE ( 'NONE', *, *, #163, .F. ) ;
#751 = CARTESIAN_POINT ( 'NONE',  ( 140.0071426749364036, 75.00000000000000000, 50.00000000000000711 ) ) ;
#752 = AXIS2_PLACEMENT_3D ( 'NONE', #258, #627, #79 ) ;
#753 = CARTESIAN_POINT ( 'NONE',  ( 140.0071426749364036, 75.00000000000000000, 0.000000000000000000 ) ) ;
#754 = DIRECTION ( 'NONE',  ( -0.000000000000000000, -1.000000000000000000, -0.000000000000000000 ) ) ;
#755 = EDGE_CURVE ( 'NONE', #710, #71, #512, .T. ) ;
#756 = ORIENTED_EDGE ( 'NONE', *, *, #588, .T. ) ;
#757 = FACE_OUTER_BOUND ( 'NONE', #562, .T. ) ;
#758 = DIRECTION ( 'NONE',  ( 0.000000000000000000, 0.000000000000000000, -1.000000000000000000 ) ) ;
#759 = DIRECTION ( 'NONE',  ( 0.000000000000000000, 0.000000000000000000, -1.000000000000000000 ) ) ;
#760 = DIRECTION ( 'NONE',  ( 1.000000000000000000, 0.000000000000000000, 0.000000000000000000 ) ) ;
#761 = CARTESIAN_POINT ( 'NONE',  ( 115.0071426749364178, 0.000000000000000000, -140.0071426749364036 ) ) ;
#762 = LINE ( 'NONE', #450, #238 ) ;
#763 = VERTEX_POINT ( 'NONE', #463 ) ;
#764 = DIRECTION ( 'NONE',  ( 0.000000000000000000, 0.000000000000000000, -1.000000000000000000 ) ) ;
#765 = EDGE_CURVE ( 'NONE', #492, #289, #723, .T. ) ;
#766 = AXIS2_PLACEMENT_3D ( 'NONE', #391, #435, #699 ) ;
#767 = CIRCLE ( 'NONE', #556, 50.00000000000000711 ) ;
#768 = DIRECTION ( 'NONE',  ( -0.000000000000000000, -1.000000000000000000, -0.000000000000000000 ) ) ;
#769 = DIRECTION ( 'NONE',  ( -0.000000000000000000, -1.000000000000000000, -0.000000000000000000 ) ) ;
#770 = VERTEX_POINT ( 'NONE', #110 ) ;
#771 = EDGE_CURVE ( 'NONE', #88, #265, #459, .T. ) ;
#772 = LINE ( 'NONE', #709, #577 ) ;
#773 = ORIENTED_EDGE ( 'NONE', *, *, #574, .F. ) ;
#774 = CIRCLE ( 'NONE', #736, 25.00000000000000000 ) ;
#775 = DIRECTION ( 'NONE',  ( -0.000000000000000000, -1.000000000000000000, -0.000000000000000000 ) ) ;
#776 = EDGE_LOOP ( 'NONE', ( #340, #453, #208, #744 ) ) ;
#777 = CARTESIAN_POINT ( 'NONE',  ( 0.000000000000000000, 0.000000000000000000, 0.000000000000000000 ) ) ;
#778 = AXIS2_PLACEMENT_3D ( 'NONE', #443, #563, #140 ) ;
#779 = CARTESIAN_POINT ( 'NONE',  ( 50.00000000000001421, 75.00000000000000000, -140.0071426749364036 ) ) ;
#780 = ORIENTED_EDGE ( 'NONE', *, *, #694, .F. ) ;
#781 = EDGE_CURVE ( 'NONE', #468, #770, #594, .T. ) ;
#782 = DIRECTION ( 'NONE',  ( 1.000000000000000000, 0.000000000000000000, 0.000000000000000000 ) ) ;
#783 = DIRECTION ( 'NONE',  ( 0.000000000000000000, 0.000000000000000000, -1.000000000000000000 ) ) ;
#784 = DIRECTION ( 'NONE',  ( -1.000000000000000000, 0.000000000000000000, 0.000000000000000000 ) ) ;
#785 = ORIENTED_EDGE ( 'NONE', *, *, #327, .F. ) ;
#786 = DIRECTION ( 'NONE',  ( 8.659560562354934091E-17, -0.7071067811865474617, 0.7071067811865475727 ) ) ;
#787 = DIRECTION ( 'NONE',  ( 0.000000000000000000, 0.000000000000000000, -1.000000000000000000 ) ) ;
#788 = AXIS2_PLACEMENT_3D ( 'NONE', #116, #56, #107 ) ;
#789 = LINE ( 'NONE', #719, #345 ) ;
#790 = ORIENTED_EDGE ( 'NONE', *, *, #80, .F. ) ;
#791 = EDGE_CURVE ( 'NONE', #545, #88, #537, .T. ) ;
#792 = CARTESIAN_POINT ( 'NONE',  ( 140.0071426749364036, 75.00000000000000000, -140.0071426749364036 ) ) ;
#793 = ORIENTED_EDGE ( 'NONE', *, *, #552, .T. ) ;
#794 = CONICAL_SURFACE ( 'NONE', #778, 50.00000000000000711, 0.7853981633974483900 ) ;
#795 = CIRCLE ( 'NONE', #317, 50.00000000000000711 ) ;
#796 = ADVANCED_BREP_SHAPE_REPRESENTATION ( 'N406_base', ( #599, #725 ), #397 ) ;
#797 = EDGE_CURVE ( 'NONE', #593, #316, #678, .T. ) ;
#798 = DIRECTION ( 'NONE',  ( 0.000000000000000000, 0.000000000000000000, -1.000000000000000000 ) ) ;
#799 = ORIENTED_EDGE ( 'NONE', *, *, #711, .T. ) ;
ENDSEC;
END-ISO-10303-21;
