ISO-10303-21;
HEADER;
FILE_DESCRIPTION (( 'STEP AP214' ),
    '1' );
FILE_NAME ('N504_base.STEP',
    '2026-01-16T01:59:35',
    ( '' ),
    ( '' ),
    'SwSTEP 2.0',
    'SolidWorks 2024',
    '' );
FILE_SCHEMA (( 'AUTOMOTIVE_DESIGN' ));
ENDSEC;

DATA;
#1 = CARTESIAN_POINT ( 'NONE',  ( 140.0071426749361763, 74.99999999999982947, 0.000000000000000000 ) ) ;
#2 = DIRECTION ( 'NONE',  ( 0.000000000000000000, 0.000000000000000000, -1.000000000000000000 ) ) ;
#3 = CIRCLE ( 'NONE', #864, 50.00000000000026290 ) ;
#4 = VECTOR ( 'NONE', #8, 1000.000000000000000 ) ;
#5 = ORIENTED_EDGE ( 'NONE', *, *, #805, .T. ) ;
#6 = VERTEX_POINT ( 'NONE', #523 ) ;
#7 = CARTESIAN_POINT ( 'NONE',  ( -50.00000000000071765, 104.2893218813450602, 6.123233995736811839E-15 ) ) ;
#8 = DIRECTION ( 'NONE',  ( 0.000000000000000000, 0.000000000000000000, 1.000000000000000000 ) ) ;
#9 = CARTESIAN_POINT ( 'NONE',  ( 140.0071426749605052, 0.000000000000000000, -25.00000000003410605 ) ) ;
#10 = ORIENTED_EDGE ( 'NONE', *, *, #782, .T. ) ;
#11 = EDGE_CURVE ( 'NONE', #362, #394, #813, .T. ) ;
#12 = LINE ( 'NONE', #483, #204 ) ;
#13 = CARTESIAN_POINT ( 'NONE',  ( 140.0071426749364036, 0.000000000000000000, 0.000000000000000000 ) ) ;
#14 = EDGE_LOOP ( 'NONE', ( #787, #670, #154, #398 ) ) ;
#15 = CARTESIAN_POINT ( 'NONE',  ( 90.00714267493589205, 74.99999999999965894, -140.0071426749605052 ) ) ;
#16 = ORIENTED_EDGE ( 'NONE', *, *, #389, .T. ) ;
#17 = VECTOR ( 'NONE', #30, 1000.000000000000000 ) ;
#18 = CARTESIAN_POINT ( 'NONE',  ( 140.0071426749605052, 74.99999999999982947, -50.00000000000026290 ) ) ;
#19 = CARTESIAN_POINT ( 'NONE',  ( 190.0071426749361194, 104.2893218813457139, 100.0000000000000711 ) ) ;
#20 = ORIENTED_EDGE ( 'NONE', *, *, #666, .F. ) ;
#21 = AXIS2_PLACEMENT_3D ( 'NONE', #475, #137, #404 ) ;
#22 = CARTESIAN_POINT ( 'NONE',  ( -60.00000000000227374, 0.000000000000000000, -200.0071426749627790 ) ) ;
#23 = CARTESIAN_POINT ( 'NONE',  ( -4.531890240421758963E-13, 125.0000000000000000, -140.0071426749364036 ) ) ;
#24 = ORIENTED_EDGE ( 'NONE', *, *, #579, .F. ) ;
#25 = ADVANCED_FACE ( 'NONE', ( #114 ), #885, .F. ) ;
#26 = ORIENTED_EDGE ( 'NONE', *, *, #292, .F. ) ;
#27 = LINE ( 'NONE', #222, #701 ) ;
#28 = CARTESIAN_POINT ( 'NONE',  ( -50.00000000000050449, 74.99999999999964473, 100.0000000000004974 ) ) ;
#29 = ORIENTED_EDGE ( 'NONE', *, *, #11, .F. ) ;
#30 = DIRECTION ( 'NONE',  ( 3.430248998885766176E-15, -1.000000000000000000, -0.000000000000000000 ) ) ;
#31 = AXIS2_PLACEMENT_3D ( 'NONE', #607, #819, #256 ) ;
#32 = PLANE ( 'NONE',  #433 ) ;
#33 = CARTESIAN_POINT ( 'NONE',  ( -50.00000000000051870, 74.99999999999963052, 6.123233995736797640E-15 ) ) ;
#34 = CARTESIAN_POINT ( 'NONE',  ( 90.00714267497465926, 74.99999999999965894, -240.0071426749174748 ) ) ;
#35 = EDGE_CURVE ( 'NONE', #429, #397, #599, .T. ) ;
#36 = CARTESIAN_POINT ( 'NONE',  ( 140.0071426749360057, 125.0000000000000000, 0.000000000000000000 ) ) ;
#37 =( BOUNDED_CURVE ( )  B_SPLINE_CURVE ( 3, ( #838, #351, #97, #357 ),
 .UNSPECIFIED., .F., .T. ) 
 B_SPLINE_CURVE_WITH_KNOTS ( ( 4, 4 ),
 ( 3.141592653589803330, 4.712388980384697668 ),
 .UNSPECIFIED. ) 
 CURVE ( )  GEOMETRIC_REPRESENTATION_ITEM ( )  RATIONAL_B_SPLINE_CURVE ( ( 1.000000000000000000, 0.8047378541243654926, 0.8047378541243654926, 1.000000000000000000 ) ) 
 REPRESENTATION_ITEM ( '' )  );
#38 =( NAMED_UNIT ( * ) SI_UNIT ( $, .STERADIAN. ) SOLID_ANGLE_UNIT ( ) );
#39 = CARTESIAN_POINT ( 'NONE',  ( 90.00714267493599152, 104.2893218813453728, -100.0000000000000995 ) ) ;
#40 = DIRECTION ( 'NONE',  ( 1.000000000000000000, 3.330669073875452266E-15, -4.812816811750028359E-13 ) ) ;
#41 = ORIENTED_EDGE ( 'NONE', *, *, #172, .F. ) ;
#42 = CARTESIAN_POINT ( 'NONE',  ( 110.7178207935907892, 125.0000000000000568, 3.586907429118591719E-15 ) ) ;
#43 = CIRCLE ( 'NONE', #187, 50.00000000000024158 ) ;
#44 = CARTESIAN_POINT ( 'NONE',  ( 29.28932188134502823, 125.0000000000002274, 0.000000000000000000 ) ) ;
#45 = VERTEX_POINT ( 'NONE', #527 ) ;
#46 = EDGE_CURVE ( 'NONE', #698, #647, #66, .T. ) ;
#47 = CARTESIAN_POINT ( 'NONE',  ( 169.2964645562814212, 125.0000000000001847, -140.0071426749364321 ) ) ;
#48 = FACE_BOUND ( 'NONE', #858, .T. ) ;
#49 = CARTESIAN_POINT ( 'NONE',  ( -399919.9999999999418, 74.99999999862805566, -140.0071426749605052 ) ) ;
#50 = LINE ( 'NONE', #328, #595 ) ;
#51 = CARTESIAN_POINT ( 'NONE',  ( 90.00714267493592047, 75.00000000000018474, 0.000000000000000000 ) ) ;
#52 = CARTESIAN_POINT ( 'NONE',  ( -399919.9999999999418, 0.000000000000000000, -200.0071426749627790 ) ) ;
#53 = ORIENTED_EDGE ( 'NONE', *, *, #643, .F. ) ;
#54 = DIRECTION ( 'NONE',  ( 3.430248998885766176E-15, -1.000000000000000000, -0.000000000000000000 ) ) ;
#55 = CARTESIAN_POINT ( 'NONE',  ( -29.28932188134588444, 125.0000000000000426, 3.586907429118624063E-15 ) ) ;
#56 = CIRCLE ( 'NONE', #566, 50.00000000000026290 ) ;
#57 = CARTESIAN_POINT ( 'NONE',  ( 140.0071426749361763, 74.99999999999991473, 0.000000000000000000 ) ) ;
#58 = ORIENTED_EDGE ( 'NONE', *, *, #752, .F. ) ;
#59 = EDGE_LOOP ( 'NONE', ( #16, #129, #343 ) ) ;
#60 = CARTESIAN_POINT ( 'NONE',  ( 0.000000000000000000, 442.7056274848120552, 291349.5000000000000 ) ) ;
#61 = CARTESIAN_POINT ( 'NONE',  ( -29.28932188134589865, 125.0000000000000284, -58.57864376269090201 ) ) ;
#62 = ADVANCED_FACE ( 'NONE', ( #603 ), #828, .F. ) ;
#63 = CARTESIAN_POINT ( 'NONE',  ( 90.00714267488771725, 74.99999999999965894, -40.00714267491181886 ) ) ;
#64 = ORIENTED_EDGE ( 'NONE', *, *, #251, .T. ) ;
#65 = DIRECTION ( 'NONE',  ( -3.430248998885766176E-15, 1.000000000000000000, 0.000000000000000000 ) ) ;
#66 =( BOUNDED_CURVE ( )  B_SPLINE_CURVE ( 3, ( #190, #307, #185, #393 ),
 .UNSPECIFIED., .F., .T. ) 
 B_SPLINE_CURVE_WITH_KNOTS ( ( 4, 4 ),
 ( 3.141592653589793560, 4.712388980384697668 ),
 .UNSPECIFIED. ) 
 CURVE ( )  GEOMETRIC_REPRESENTATION_ITEM ( )  RATIONAL_B_SPLINE_CURVE ( ( 1.000000000000000000, 0.8047378541243631611, 0.8047378541243631611, 1.000000000000000000 ) ) 
 REPRESENTATION_ITEM ( '' )  );
#67 = CARTESIAN_POINT ( 'NONE',  ( -4.043732256792656500E-13, 125.0000000000000000, -5.978211121296050965E-30 ) ) ;
#68 = DIRECTION ( 'NONE',  ( -1.000000000000000000, -3.430248998885766176E-15, 0.000000000000000000 ) ) ;
#69 = EDGE_CURVE ( 'NONE', #676, #835, #464, .T. ) ;
#70 = ORIENTED_EDGE ( 'NONE', *, *, #425, .T. ) ;
#71 = PLANE ( 'NONE',  #21 ) ;
#72 = CARTESIAN_POINT ( 'NONE',  ( -50.00000000000051870, 74.99999999999970157, -140.0071426749364036 ) ) ;
#73 = CARTESIAN_POINT ( 'NONE',  ( 140.0071426749605052, 442.7056274848120552, 291349.5000000000000 ) ) ;
#74 = AXIS2_PLACEMENT_3D ( 'NONE', #57, #319, #124 ) ;
#75 = AXIS2_PLACEMENT_3D ( 'NONE', #405, #827, #132 ) ;
#76 = EDGE_CURVE ( 'NONE', #783, #545, #461, .T. ) ;
#77 = LINE ( 'NONE', #340, #746 ) ;
#78 = FACE_OUTER_BOUND ( 'NONE', #801, .T. ) ;
#79 = AXIS2_PLACEMENT_3D ( 'NONE', #886, #455, #814 ) ;
#80 = VERTEX_POINT ( 'NONE', #51 ) ;
#81 = EDGE_CURVE ( 'NONE', #700, #825, #528, .T. ) ;
#82 = CARTESIAN_POINT ( 'NONE',  ( -50.00000000000051870, 74.99999999999963052, 6.123233995736797640E-15 ) ) ;
#83 = CARTESIAN_POINT ( 'NONE',  ( 0.000000000000000000, 0.000000000000000000, -140.0071426749364036 ) ) ;
#84 = ORIENTED_EDGE ( 'NONE', *, *, #901, .T. ) ;
#85 = ORIENTED_EDGE ( 'NONE', *, *, #579, .T. ) ;
#86 = CARTESIAN_POINT ( 'NONE',  ( 49.99999999995188205, 75.00000000000002842, -240.0071426749128705 ) ) ;
#87 = ORIENTED_EDGE ( 'NONE', *, *, #196, .F. ) ;
#88 = AXIS2_PLACEMENT_3D ( 'NONE', #436, #567, #440 ) ;
#89 = VERTEX_POINT ( 'NONE', #674 ) ;
#90 = CARTESIAN_POINT ( 'NONE',  ( 29.28932188134501757, 125.0000000000002558, -140.0071426749364036 ) ) ;
#91 =( BOUNDED_CURVE ( )  B_SPLINE_CURVE ( 3, ( #312, #386, #42, #815 ),
 .UNSPECIFIED., .F., .F. ) 
 B_SPLINE_CURVE_WITH_KNOTS ( ( 4, 4 ),
 ( 3.141592653589803330, 4.712388980384698556 ),
 .UNSPECIFIED. ) 
 CURVE ( )  GEOMETRIC_REPRESENTATION_ITEM ( )  RATIONAL_B_SPLINE_CURVE ( ( 1.000000000000000000, 0.8047378541243652705, 0.8047378541243652705, 1.000000000000000000 ) ) 
 REPRESENTATION_ITEM ( '' )  );
#92 = CARTESIAN_POINT ( 'NONE',  ( -29.28932188134588088, 125.0000000000000426, -140.0071426749364036 ) ) ;
#93 = EDGE_CURVE ( 'NONE', #434, #547, #263, .T. ) ;
#94 = ORIENTED_EDGE ( 'NONE', *, *, #81, .F. ) ;
#95 = ORIENTED_EDGE ( 'NONE', *, *, #818, .T. ) ;
#96 = CIRCLE ( 'NONE', #377, 24.99999999999999289 ) ;
#97 = CARTESIAN_POINT ( 'NONE',  ( 169.2964645562811654, 125.0000000000002416, 0.000000000000000000 ) ) ;
#98 = CARTESIAN_POINT ( 'NONE',  ( 25.00000000000000000, 0.000000000000000000, 0.000000000000000000 ) ) ;
#99 =( BOUNDED_CURVE ( )  B_SPLINE_CURVE ( 3, ( #417, #491, #703, #422 ),
 .UNSPECIFIED., .F., .F. ) 
 B_SPLINE_CURVE_WITH_KNOTS ( ( 4, 4 ),
 ( 3.141592653589803330, 4.712388980384697668 ),
 .UNSPECIFIED. ) 
 CURVE ( )  GEOMETRIC_REPRESENTATION_ITEM ( )  RATIONAL_B_SPLINE_CURVE ( ( 1.000000000000000000, 0.8047378541243654926, 0.8047378541243654926, 1.000000000000000000 ) ) 
 REPRESENTATION_ITEM ( '' )  );
#100 = ORIENTED_EDGE ( 'NONE', *, *, #81, .T. ) ;
#101 = DIRECTION ( 'NONE',  ( 3.430248998885766176E-15, -1.000000000000000000, -0.000000000000000000 ) ) ;
#102 = CARTESIAN_POINT ( 'NONE',  ( 49.99999999999997868, 104.2893218813454581, -140.0071426749364036 ) ) ;
#103 = CARTESIAN_POINT ( 'NONE',  ( 29.28932188131681613, 125.0000000000002274, -198.5857864376132227 ) ) ;
#104 = EDGE_CURVE ( 'NONE', #128, #434, #332, .T. ) ;
#105 = LINE ( 'NONE', #872, #385 ) ;
#106 = CARTESIAN_POINT ( 'NONE',  ( 140.0071426749360057, 125.0000000000000000, 0.000000000000000000 ) ) ;
#107 = EDGE_CURVE ( 'NONE', #700, #353, #200, .T. ) ;
#108 = CARTESIAN_POINT ( 'NONE',  ( 25.00000000000013145, 8.575622497214459891E-14, -140.0071426749605052 ) ) ;
#109 = CARTESIAN_POINT ( 'NONE',  ( -4.531890240421759468E-13, 125.0000000000000000, 4.881579836291021481E-14 ) ) ;
#110 = PRODUCT_CONTEXT ( 'NONE', #115, 'mechanical' ) ;
#111 = CARTESIAN_POINT ( 'NONE',  ( 169.2964645562813644, 125.0000000000002416, -198.5857864376045541 ) ) ;
#112 = DIRECTION ( 'NONE',  ( -0.000000000000000000, -1.000000000000000000, -0.000000000000000000 ) ) ;
#113 = EDGE_CURVE ( 'NONE', #545, #325, #468, .T. ) ;
#114 = FACE_OUTER_BOUND ( 'NONE', #759, .T. ) ;
#115 = APPLICATION_CONTEXT ( 'automotive_design' ) ;
#116 = CARTESIAN_POINT ( 'NONE',  ( 190.0071426749364036, 75.00000000000001421, -140.0071426749364321 ) ) ;
#117 = CIRCLE ( 'NONE', #236, 50.00000000000026290 ) ;
#118 = AXIS2_PLACEMENT_3D ( 'NONE', #648, #298, #168 ) ;
#119 = CARTESIAN_POINT ( 'NONE',  ( -2.572686749164319035E-13, 74.99999999999982947, 0.000000000000000000 ) ) ;
#120 = ORIENTED_EDGE ( 'NONE', *, *, #889, .T. ) ;
#121 = ADVANCED_FACE ( 'NONE', ( #756 ), #242, .T. ) ;
#122 = CARTESIAN_POINT ( 'NONE',  ( 110.7178207935905334, 125.0000000000000000, -140.0071426749477439 ) ) ;
#123 = CARTESIAN_POINT ( 'NONE',  ( 50.00000000000000000, 75.00000000000004263, -140.0071426749605052 ) ) ;
#124 = DIRECTION ( 'NONE',  ( 1.000000000000000000, 3.330669073875433334E-15, 0.000000000000000000 ) ) ;
#125 = ORIENTED_EDGE ( 'NONE', *, *, #643, .T. ) ;
#126 = DIRECTION ( 'NONE',  ( 1.000000000000000000, 3.330669073875451477E-15, 0.000000000000000000 ) ) ;
#127 = DIRECTION ( 'NONE',  ( 1.000000000000000000, 3.330669073875452266E-15, 0.000000000000000000 ) ) ;
#128 = VERTEX_POINT ( 'NONE', #182 ) ;
#129 = ORIENTED_EDGE ( 'NONE', *, *, #738, .T. ) ;
#130 = CARTESIAN_POINT ( 'NONE',  ( 140.0071426749361763, 74.99999999999991473, -140.0071426749364036 ) ) ;
#131 = ADVANCED_FACE ( 'NONE', ( #781 ), #365, .T. ) ;
#132 = DIRECTION ( 'NONE',  ( 1.000000000000000000, 3.430248998885766964E-15, 0.000000000000000000 ) ) ;
#133 = AXIS2_PLACEMENT_3D ( 'NONE', #766, #279, #408 ) ;
#134 = CARTESIAN_POINT ( 'NONE',  ( -399919.9999999999418, 74.99999999862805566, -140.0071426749605052 ) ) ;
#135 = ORIENTED_EDGE ( 'NONE', *, *, #69, .T. ) ;
#136 = EDGE_LOOP ( 'NONE', ( #480, #704, #29, #333, #497, #630 ) ) ;
#137 = DIRECTION ( 'NONE',  ( 3.430248998885766176E-15, -1.000000000000000000, -0.000000000000000000 ) ) ;
#138 = DIRECTION ( 'NONE',  ( 0.000000000000000000, 0.000000000000000000, 1.000000000000000000 ) ) ;
#139 = CARTESIAN_POINT ( 'NONE',  ( 190.0071426749364036, 75.00000000000001421, -40.00714267488778120 ) ) ;
#140 = ORIENTED_EDGE ( 'NONE', *, *, #743, .T. ) ;
#141 = CARTESIAN_POINT ( 'NONE',  ( -50.00000000000051870, 74.99999999999964473, 6.123233995736797640E-15 ) ) ;
#142 = DIRECTION ( 'NONE',  ( -3.430248998885766176E-15, 1.000000000000000000, 0.000000000000000000 ) ) ;
#143 = ADVANCED_FACE ( 'NONE', ( #852 ), #543, .T. ) ;
#144 = ORIENTED_EDGE ( 'NONE', *, *, #758, .F. ) ;
#145 = CARTESIAN_POINT ( 'NONE',  ( 140.0071426749364036, -8.575622497214416977E-14, -140.0071426749364036 ) ) ;
#146 = CARTESIAN_POINT ( 'NONE',  ( -50.00000000000068923, 104.2893218813451028, -40.00714267488549325 ) ) ;
#147 = FACE_OUTER_BOUND ( 'NONE', #577, .T. ) ;
#148 = VECTOR ( 'NONE', #216, 1000.000000000000000 ) ;
#149 = CIRCLE ( 'NONE', #654, 25.00000000000027356 ) ;
#150 = ORIENTED_EDGE ( 'NONE', *, *, #697, .T. ) ;
#151 = CARTESIAN_POINT ( 'NONE',  ( 200.0071426749627790, 0.000000000000000000, 291349.5000000000000 ) ) ;
#152 = CARTESIAN_POINT ( 'NONE',  ( 190.0071426749364036, 75.00000000000001421, -140.0071426749364036 ) ) ;
#153 = ORIENTED_EDGE ( 'NONE', *, *, #752, .T. ) ;
#154 = ORIENTED_EDGE ( 'NONE', *, *, #520, .F. ) ;
#155 = ORIENTED_EDGE ( 'NONE', *, *, #539, .T. ) ;
#156 = FACE_OUTER_BOUND ( 'NONE', #235, .T. ) ;
#157 = CARTESIAN_POINT ( 'NONE',  ( 110.7178207935907750, 125.0000000000000426, 58.57864376269044726 ) ) ;
#158 = ORIENTED_EDGE ( 'NONE', *, *, #302, .T. ) ;
#159 = EDGE_CURVE ( 'NONE', #840, #428, #846, .T. ) ;
#160 = DIRECTION ( 'NONE',  ( 3.430248998885766176E-15, -1.000000000000000000, -0.000000000000000000 ) ) ;
#161 = CARTESIAN_POINT ( 'NONE',  ( 169.2964645562811654, 125.0000000000002132, 0.000000000000000000 ) ) ;
#162 = VECTOR ( 'NONE', #882, 1000.000000000000000 ) ;
#163 = EDGE_LOOP ( 'NONE', ( #297, #438, #153, #5, #350, #631, #197, #721 ) ) ;
#164 = CARTESIAN_POINT ( 'NONE',  ( -4.287811248607207479E-13, 125.0000000000000000, -140.0071426749364036 ) ) ;
#165 = DIRECTION ( 'NONE',  ( -1.000000000000000000, -3.430248998885766176E-15, 0.000000000000000000 ) ) ;
#166 = ORIENTED_EDGE ( 'NONE', *, *, #743, .F. ) ;
#167 = ORIENTED_EDGE ( 'NONE', *, *, #818, .F. ) ;
#168 = DIRECTION ( 'NONE',  ( 1.000000000000000000, 3.330669073875453450E-15, 0.000000000000000000 ) ) ;
#169 = CARTESIAN_POINT ( 'NONE',  ( 90.00714267493601994, 104.2893218813453728, 100.0000000000000711 ) ) ;
#170 = ORIENTED_EDGE ( 'NONE', *, *, #758, .T. ) ;
#171 = UNCERTAINTY_MEASURE_WITH_UNIT (LENGTH_MEASURE( 1.000000000000000082E-05 ), #426, 'distance_accuracy_value', 'NONE');
#172 = EDGE_CURVE ( 'NONE', #825, #676, #634, .T. ) ;
#173 = SURFACE_SIDE_STYLE ('',( #860 ) ) ;
#174 = CARTESIAN_POINT ( 'NONE',  ( 169.2964645562812223, 125.0000000000002558, 58.57864376269038331 ) ) ;
#175 = ADVANCED_FACE ( 'NONE', ( #78 ), #205, .T. ) ;
#176 = VECTOR ( 'NONE', #463, 1000.000000000000000 ) ;
#177 = CARTESIAN_POINT ( 'NONE',  ( 140.0071426749605052, 75.00000000000039790, 291349.5000000000000 ) ) ;
#178 = CARTESIAN_POINT ( 'NONE',  ( -2.572686749164320549E-13, 74.99999999999987210, -140.0071426749364036 ) ) ;
#179 = CARTESIAN_POINT ( 'NONE',  ( 190.0071426749363468, 104.2893218813454297, -240.0071426748982901 ) ) ;
#180 = PRODUCT_DEFINITION_FORMATION_WITH_SPECIFIED_SOURCE ( 'ANY', '', #335, .NOT_KNOWN. ) ;
#181 = DIRECTION ( 'NONE',  ( -3.430248998885766176E-15, 1.000000000000000000, 0.000000000000000000 ) ) ;
#182 = CARTESIAN_POINT ( 'NONE',  ( 200.0071426749627790, 75.00000000000012790, -200.0071426749627790 ) ) ;
#183 = CARTESIAN_POINT ( 'NONE',  ( 190.0071426749363468, 75.00000000000001421, -240.0071426748980343 ) ) ;
#184 = LINE ( 'NONE', #194, #176 ) ;
#185 = CARTESIAN_POINT ( 'NONE',  ( -29.28932188134587733, 125.0000000000000426, -140.0071426749364036 ) ) ;
#186 = CARTESIAN_POINT ( 'NONE',  ( 140.0071426749360342, 125.0000000000000000, -5.551115123125782702E-14 ) ) ;
#187 = AXIS2_PLACEMENT_3D ( 'NONE', #526, #380, #804 ) ;
#188 = COLOUR_RGB ( '',0.7921568627450980005, 0.8196078431372548767, 0.9333333333333333481 ) ;
#189 = CARTESIAN_POINT ( 'NONE',  ( 190.0071426749364036, 75.00000000000052580, -140.0071426749364036 ) ) ;
#190 = CARTESIAN_POINT ( 'NONE',  ( -50.00000000000051870, 74.99999999999970157, -140.0071426749364036 ) ) ;
#191 = APPLICATION_PROTOCOL_DEFINITION ( 'draft international standard', 'automotive_design', 1998, #580 ) ;
#192 = ORIENTED_EDGE ( 'NONE', *, *, #107, .F. ) ;
#193 = DIRECTION ( 'NONE',  ( 3.430248998885766176E-15, -1.000000000000000000, -0.000000000000000000 ) ) ;
#194 = CARTESIAN_POINT ( 'NONE',  ( -399919.9999999999418, 74.99999999862805566, 0.000000000000000000 ) ) ;
#195 = DIRECTION ( 'NONE',  ( -0.000000000000000000, -1.000000000000000000, -0.000000000000000000 ) ) ;
#196 = EDGE_CURVE ( 'NONE', #362, #429, #691, .T. ) ;
#197 = ORIENTED_EDGE ( 'NONE', *, *, #209, .F. ) ;
#198 = DIRECTION ( 'NONE',  ( 1.000000000000000000, 3.430248998885767753E-15, 0.000000000000000000 ) ) ;
#199 = CARTESIAN_POINT ( 'NONE',  ( -4.043732256792656500E-13, 125.0000000000000000, -4.881579836291022744E-14 ) ) ;
#200 = LINE ( 'NONE', #614, #609 ) ;
#201 = ORIENTED_EDGE ( 'NONE', *, *, #710, .T. ) ;
#202 = FACE_OUTER_BOUND ( 'NONE', #419, .T. ) ;
#203 = CARTESIAN_POINT ( 'NONE',  ( -29.28932188134588799, 125.0000000000000284, 3.586907429118625640E-15 ) ) ;
#204 = VECTOR ( 'NONE', #267, 1000.000000000000000 ) ;
#205 = PLANE ( 'NONE',  #133 ) ;
#206 = ORIENTED_EDGE ( 'NONE', *, *, #240, .T. ) ;
#207 = ORIENTED_EDGE ( 'NONE', *, *, #459, .F. ) ;
#208 = CARTESIAN_POINT ( 'NONE',  ( 140.0071426749361763, 75.00000000000035527, 0.000000000000000000 ) ) ;
#209 = EDGE_CURVE ( 'NONE', #465, #265, #348, .T. ) ;
#210 = DIRECTION ( 'NONE',  ( 1.000000000000000000, 3.330669073875452266E-15, 0.000000000000000000 ) ) ;
#211 = VECTOR ( 'NONE', #275, 1000.000000000000000 ) ;
#212 = FACE_OUTER_BOUND ( 'NONE', #730, .T. ) ;
#213 = ORIENTED_EDGE ( 'NONE', *, *, #93, .F. ) ;
#214 = LINE ( 'NONE', #903, #374 ) ;
#215 = CARTESIAN_POINT ( 'NONE',  ( -50.00000000000073186, 104.2893218813450602, -100.0000000000006821 ) ) ;
#216 = DIRECTION ( 'NONE',  ( -1.000000000000000000, -3.430248998885766176E-15, 0.000000000000000000 ) ) ;
#217 = ORIENTED_EDGE ( 'NONE', *, *, #847, .T. ) ;
#218 = VERTEX_POINT ( 'NONE', #288 ) ;
#219 = CARTESIAN_POINT ( 'NONE',  ( 1.479114197289397135E-28, 74.99999999999982947, -90.00714267493614784 ) ) ;
#220 = DIRECTION ( 'NONE',  ( 0.000000000000000000, 0.000000000000000000, 1.000000000000000000 ) ) ;
#221 = AXIS2_PLACEMENT_3D ( 'NONE', #881, #101, #749 ) ;
#222 = CARTESIAN_POINT ( 'NONE',  ( -399919.9999999999418, 74.99999999862805566, -140.0071426749605052 ) ) ;
#223 = CARTESIAN_POINT ( 'NONE',  ( 190.0071426749364036, 75.00000000000051159, 100.0000000000004547 ) ) ;
#224 =( BOUNDED_SURFACE ( )  B_SPLINE_SURFACE ( 3, 3, ( 
 ( #589, #441, #86, #576 ),
 ( #241, #369, #432, #642 ),
 ( #92, #296, #103, #363 ),
 ( #23, #724, #571, #372 ) ),
 .UNSPECIFIED., .F., .F., .F. ) 
 B_SPLINE_SURFACE_WITH_KNOTS ( ( 4, 4 ),
 ( 4, 4 ),
 ( 0.000000000000000000, 1.000000000000000000 ),
 ( 0.000000000000000000, 1.000000000000000000 ),
 .UNSPECIFIED. ) 
 GEOMETRIC_REPRESENTATION_ITEM ( )  RATIONAL_B_SPLINE_SURFACE ( (
 ( 1.000000000000000000, 0.3333333333334938531, 0.3333333333334938531, 1.000000000000000000),
 ( 0.8047378541243631611, 0.2682459513749169133, 0.2682459513749169133, 0.8047378541243631611),
 ( 0.8047378541243631611, 0.2682459513749169133, 0.2682459513749169133, 0.8047378541243631611),
 ( 1.000000000000000000, 0.3333333333334938531, 0.3333333333334938531, 1.000000000000000000) ) ) 
 REPRESENTATION_ITEM ( '' )  SURFACE ( )  );
#225 = VERTEX_POINT ( 'NONE', #551 ) ;
#226 = ADVANCED_FACE ( 'NONE', ( #212 ), #629, .F. ) ;
#227 = ORIENTED_EDGE ( 'NONE', *, *, #425, .F. ) ;
#228 = DIRECTION ( 'NONE',  ( 0.000000000000000000, -0.000000000000000000, 1.000000000000000000 ) ) ;
#229 = DIRECTION ( 'NONE',  ( 1.000000000000000000, 3.330669073875453450E-15, 0.000000000000000000 ) ) ;
#230 = EDGE_LOOP ( 'NONE', ( #725, #201, #635, #853 ) ) ;
#231 = ORIENTED_EDGE ( 'NONE', *, *, #859, .T. ) ;
#232 = ADVANCED_FACE ( 'NONE', ( #412 ), #696, .T. ) ;
#233 = DIRECTION ( 'NONE',  ( 1.000000000000000000, 3.330669073875451477E-15, 0.000000000000000000 ) ) ;
#234 = DIRECTION ( 'NONE',  ( 1.000000000000000000, 3.330669073875452266E-15, 0.000000000000000000 ) ) ;
#235 = EDGE_LOOP ( 'NONE', ( #844, #644, #820, #500, #709, #501 ) ) ;
#236 = AXIS2_PLACEMENT_3D ( 'NONE', #382, #684, #210 ) ;
#237 = AXIS2_PLACEMENT_3D ( 'NONE', #310, #601, #375 ) ;
#238 = VERTEX_POINT ( 'NONE', #9 ) ;
#239 = CARTESIAN_POINT ( 'NONE',  ( 140.0071426749360057, 125.0000000000000000, 0.000000000000000000 ) ) ;
#240 = EDGE_CURVE ( 'NONE', #128, #840, #284, .T. ) ;
#241 = CARTESIAN_POINT ( 'NONE',  ( -50.00000000000070344, 104.2893218813451170, -140.0071426749364036 ) ) ;
#242 = CYLINDRICAL_SURFACE ( 'NONE', #777, 25.00000000000013145 ) ;
#243 =( NAMED_UNIT ( * ) PLANE_ANGLE_UNIT ( ) SI_UNIT ( $, .RADIAN. ) );
#244 = CARTESIAN_POINT ( 'NONE',  ( -50.00000000000072475, 104.2893218813450744, 100.0000000000007105 ) ) ;
#245 = DIRECTION ( 'NONE',  ( 0.000000000000000000, 0.000000000000000000, -1.000000000000000000 ) ) ;
#246 = LINE ( 'NONE', #755, #715 ) ;
#247 = VECTOR ( 'NONE', #870, 1000.000000000000000 ) ;
#248 = FACE_OUTER_BOUND ( 'NONE', #59, .T. ) ;
#249 = LINE ( 'NONE', #739, #276 ) ;
#250 = DIRECTION ( 'NONE',  ( -1.000000000000000000, 0.000000000000000000, 0.000000000000000000 ) ) ;
#251 = EDGE_CURVE ( 'NONE', #424, #586, #99, .T. ) ;
#252 = LINE ( 'NONE', #890, #663 ) ;
#253 = DIRECTION ( 'NONE',  ( 1.000000000000000000, 3.430248998885765781E-15, 0.000000000000000000 ) ) ;
#254 = LINE ( 'NONE', #821, #792 ) ;
#255 = CARTESIAN_POINT ( 'NONE',  ( 140.0071426749605052, 0.000000000000000000, -115.0071426749263992 ) ) ;
#256 = DIRECTION ( 'NONE',  ( -1.000000000000000000, -3.430248998885766176E-15, 0.000000000000000000 ) ) ;
#257 = CARTESIAN_POINT ( 'NONE',  ( -60.00000000000227374, 442.7056274848120552, 60.00000000000227374 ) ) ;
#258 = ORIENTED_EDGE ( 'NONE', *, *, #738, .F. ) ;
#259 = CARTESIAN_POINT ( 'NONE',  ( 110.7178207935905476, 125.0000000000000426, -140.0071426749364036 ) ) ;
#260 = CIRCLE ( 'NONE', #779, 25.00000000000000000 ) ;
#261 = DIRECTION ( 'NONE',  ( 1.000000000000000000, 3.430248998885765387E-15, 0.000000000000000000 ) ) ;
#262 = ADVANCED_FACE ( 'NONE', ( #147 ), #707, .T. ) ;
#263 = LINE ( 'NONE', #892, #833 ) ;
#264 = APPLICATION_PROTOCOL_DEFINITION ( 'draft international standard', 'automotive_design', 1998, #115 ) ;
#265 = VERTEX_POINT ( 'NONE', #734 ) ;
#266 = DIRECTION ( 'NONE',  ( 3.430248998885766176E-15, -1.000000000000000000, -0.000000000000000000 ) ) ;
#267 = DIRECTION ( 'NONE',  ( -1.000000000000000000, 0.000000000000000000, 0.000000000000000000 ) ) ;
#268 = VECTOR ( 'NONE', #667, 1000.000000000000000 ) ;
#269 = ORIENTED_EDGE ( 'NONE', *, *, #525, .F. ) ;
#270 = EDGE_LOOP ( 'NONE', ( #687, #474, #20 ) ) ;
#271 = DIRECTION ( 'NONE',  ( 3.430248998885766176E-15, -1.000000000000000000, -0.000000000000000000 ) ) ;
#272 = CARTESIAN_POINT ( 'NONE',  ( 25.00000000003410605, 0.000000000000000000, -140.0071426749605052 ) ) ;
#273 = CARTESIAN_POINT ( 'NONE',  ( 169.2964645562814212, 125.0000000000002416, -140.0071426749364036 ) ) ;
#274 = VERTEX_POINT ( 'NONE', #795 ) ;
#275 = DIRECTION ( 'NONE',  ( -3.430248998885766176E-15, 1.000000000000000000, 0.000000000000000000 ) ) ;
#276 = VECTOR ( 'NONE', #112, 1000.000000000000000 ) ;
#277 = CARTESIAN_POINT ( 'NONE',  ( 50.00000000005023537, 75.00000000000007105, -40.00714267491074594 ) ) ;
#278 = STYLED_ITEM ( 'NONE', ( #732 ), #690 ) ;
#279 = DIRECTION ( 'NONE',  ( 1.000000000000000000, 0.000000000000000000, 0.000000000000000000 ) ) ;
#280 = ORIENTED_EDGE ( 'NONE', *, *, #358, .T. ) ;
#281 = DIRECTION ( 'NONE',  ( 0.000000000000000000, 0.000000000000000000, -1.000000000000000000 ) ) ;
#282 = CARTESIAN_POINT ( 'NONE',  ( 200.0071426749627790, 0.000000000000000000, 60.00000000000227374 ) ) ;
#283 = AXIS2_PLACEMENT_3D ( 'NONE', #536, #481, #841 ) ;
#284 = LINE ( 'NONE', #557, #148 ) ;
#285 = ORIENTED_EDGE ( 'NONE', *, *, #874, .F. ) ;
#286 = ORIENTED_EDGE ( 'NONE', *, *, #847, .F. ) ;
#287 = CARTESIAN_POINT ( 'NONE',  ( 49.99999999999997868, 74.99999999999998579, -100.0000000000005116 ) ) ;
#288 = CARTESIAN_POINT ( 'NONE',  ( 50.00000000000000000, 75.00000000000000000, 0.000000000000000000 ) ) ;
#289 = ORIENTED_EDGE ( 'NONE', *, *, #447, .T. ) ;
#290 = DIRECTION ( 'NONE',  ( -1.000000000000000000, 0.000000000000000000, 0.000000000000000000 ) ) ;
#291 = CARTESIAN_POINT ( 'NONE',  ( 140.0071426749360057, 125.0000000000000000, -140.0071426749364036 ) ) ;
#292 = EDGE_CURVE ( 'NONE', #80, #435, #345, .T. ) ;
#293 = ORIENTED_EDGE ( 'NONE', *, *, #104, .T. ) ;
#294 = ORIENTED_EDGE ( 'NONE', *, *, #539, .F. ) ;
#295 = CARTESIAN_POINT ( 'NONE',  ( -4.287811248607207479E-13, 125.0000000000000000, -140.0071426749364036 ) ) ;
#296 = CARTESIAN_POINT ( 'NONE',  ( -29.28932188134587733, 125.0000000000000142, -198.5857864375990971 ) ) ;
#297 = ORIENTED_EDGE ( 'NONE', *, *, #632, .F. ) ;
#298 = DIRECTION ( 'NONE',  ( -3.430248998885766176E-15, 1.000000000000000000, 0.000000000000000000 ) ) ;
#299 = CARTESIAN_POINT ( 'NONE',  ( -2.572686749164319035E-13, 74.99999999999982947, -140.0071426749364036 ) ) ;
#300 = ORIENTED_EDGE ( 'NONE', *, *, #76, .F. ) ;
#301 = ORIENTED_EDGE ( 'NONE', *, *, #502, .T. ) ;
#302 = EDGE_CURVE ( 'NONE', #89, #508, #304, .T. ) ;
#303 = DIRECTION ( 'NONE',  ( 3.430248998885766176E-15, -1.000000000000000000, -0.000000000000000000 ) ) ;
#304 = LINE ( 'NONE', #376, #877 ) ;
#305 = ORIENTED_EDGE ( 'NONE', *, *, #366, .T. ) ;
#306 = AXIS2_PLACEMENT_3D ( 'NONE', #793, #798, #499 ) ;
#307 = CARTESIAN_POINT ( 'NONE',  ( -50.00000000000070344, 104.2893218813451170, -140.0071426749364036 ) ) ;
#308 = CARTESIAN_POINT ( 'NONE',  ( 50.00000000000001421, 104.2893218813454297, 0.000000000000000000 ) ) ;
#309 = ORIENTED_EDGE ( 'NONE', *, *, #209, .T. ) ;
#310 = CARTESIAN_POINT ( 'NONE',  ( -60.00000000000227374, 442.7056274848120552, 291349.5000000000000 ) ) ;
#311 = DIRECTION ( 'NONE',  ( 0.000000000000000000, 0.000000000000000000, -1.000000000000000000 ) ) ;
#312 = CARTESIAN_POINT ( 'NONE',  ( 90.00714267493592047, 75.00000000000018474, 0.000000000000000000 ) ) ;
#313 = CARTESIAN_POINT ( 'NONE',  ( -4.043732256792657004E-13, 125.0000000000000000, 0.000000000000000000 ) ) ;
#314 = EDGE_CURVE ( 'NONE', #434, #428, #868, .T. ) ;
#315 = DIRECTION ( 'NONE',  ( -0.000000000000000000, -1.000000000000000000, -0.000000000000000000 ) ) ;
#316 = AXIS2_PLACEMENT_3D ( 'NONE', #443, #228, #503 ) ;
#317 = FACE_OUTER_BOUND ( 'NONE', #559, .T. ) ;
#318 = LINE ( 'NONE', #458, #681 ) ;
#319 = DIRECTION ( 'NONE',  ( 3.430248998885766176E-15, -1.000000000000000000, -0.000000000000000000 ) ) ;
#320 =( NAMED_UNIT ( * ) PLANE_ANGLE_UNIT ( ) SI_UNIT ( $, .RADIAN. ) );
#321 = ADVANCED_FACE ( 'NONE', ( #790 ), #456, .T. ) ;
#322 = CARTESIAN_POINT ( 'NONE',  ( -50.00000000000051870, 74.99999999999970157, -140.0071426749364036 ) ) ;
#323 = CARTESIAN_POINT ( 'NONE',  ( 190.0071426749364036, 75.00000000000052580, 0.000000000000000000 ) ) ;
#324 = CARTESIAN_POINT ( 'NONE',  ( 115.0071426749362757, -8.575622497214459891E-14, -140.0071426749605052 ) ) ;
#325 = VERTEX_POINT ( 'NONE', #98 ) ;
#326 = FACE_OUTER_BOUND ( 'NONE', #230, .T. ) ;
#327 = ADVANCED_FACE ( 'NONE', ( #427 ), #224, .T. ) ;
#328 = CARTESIAN_POINT ( 'NONE',  ( -399919.9999999999418, 74.99999999862805566, 0.000000000000000000 ) ) ;
#329 = EDGE_LOOP ( 'NONE', ( #486, #829, #686 ) ) ;
#330 = CARTESIAN_POINT ( 'NONE',  ( 140.0071426749364036, -8.575622497214416977E-14, 0.000000000000000000 ) ) ;
#331 = CYLINDRICAL_SURFACE ( 'NONE', #546, 25.00000000000013500 ) ;
#332 = LINE ( 'NONE', #727, #247 ) ;
#333 = ORIENTED_EDGE ( 'NONE', *, *, #196, .T. ) ;
#334 = CARTESIAN_POINT ( 'NONE',  ( -50.00000000000052580, 74.99999999999964473, -100.0000000000004974 ) ) ;
#335 = PRODUCT ( 'N504_base', 'N504_base', '', ( #110 ) ) ;
#336 = DIRECTION ( 'NONE',  ( 3.430248998885766176E-15, -1.000000000000000000, -0.000000000000000000 ) ) ;
#337 = ORIENTED_EDGE ( 'NONE', *, *, #788, .F. ) ;
#338 = ORIENTED_EDGE ( 'NONE', *, *, #11, .T. ) ;
#339 = DIRECTION ( 'NONE',  ( -3.430248998885766176E-15, 1.000000000000000000, 0.000000000000000000 ) ) ;
#340 = CARTESIAN_POINT ( 'NONE',  ( -60.00000000000227374, 0.000000000000000000, 291349.5000000000000 ) ) ;
#341 = CARTESIAN_POINT ( 'NONE',  ( 90.00714267488751830, 104.2893218813451028, -40.00714267491164122 ) ) ;
#342 = EDGE_CURVE ( 'NONE', #397, #508, #652, .T. ) ;
#343 = ORIENTED_EDGE ( 'NONE', *, *, #251, .F. ) ;
#344 = DIRECTION ( 'NONE',  ( 3.430248998885766176E-15, -1.000000000000000000, -0.000000000000000000 ) ) ;
#345 = CIRCLE ( 'NONE', #431, 50.00000000000024158 ) ;
#346 = CARTESIAN_POINT ( 'NONE',  ( 50.00000000005021406, 104.2893218813454581, -40.00714267491059672 ) ) ;
#347 = CIRCLE ( 'NONE', #865, 50.00000000000024158 ) ;
#348 = LINE ( 'NONE', #762, #473 ) ;
#349 = UNCERTAINTY_MEASURE_WITH_UNIT (LENGTH_MEASURE( 1.000000000000000082E-05 ), #757, 'distance_accuracy_value', 'NONE');
#350 = ORIENTED_EDGE ( 'NONE', *, *, #573, .T. ) ;
#351 = CARTESIAN_POINT ( 'NONE',  ( 190.0071426749360626, 104.2893218813457139, 0.000000000000000000 ) ) ;
#352 = CARTESIAN_POINT ( 'NONE',  ( 140.0071426749359773, 125.0000000000000000, -140.0071426749364036 ) ) ;
#353 = VERTEX_POINT ( 'NONE', #583 ) ;
#354 = ADVANCED_FACE ( 'NONE', ( #505 ), #656, .T. ) ;
#355 = CARTESIAN_POINT ( 'NONE',  ( 169.2964645562814496, 125.0000000000002558, -81.42849891221729308 ) ) ;
#356 = ORIENTED_EDGE ( 'NONE', *, *, #342, .T. ) ;
#357 = CARTESIAN_POINT ( 'NONE',  ( 140.0071426749360057, 125.0000000000000000, 0.000000000000000000 ) ) ;
#358 = EDGE_CURVE ( 'NONE', #89, #218, #56, .T. ) ;
#359 = CARTESIAN_POINT ( 'NONE',  ( 90.00714267493599152, 104.2893218813453586, 6.123233995736769241E-15 ) ) ;
#360 = VECTOR ( 'NONE', #776, 1000.000000000000000 ) ;
#361 = VERTEX_POINT ( 'NONE', #878 ) ;
#362 = VERTEX_POINT ( 'NONE', #822 ) ;
#363 = CARTESIAN_POINT ( 'NONE',  ( 29.28932188134501757, 125.0000000000002274, -140.0071426749505292 ) ) ;
#364 = EDGE_LOOP ( 'NONE', ( #494, #863, #439 ) ) ;
#365 =( BOUNDED_SURFACE ( )  B_SPLINE_SURFACE ( 3, 3, ( 
 ( #152, #139, #63, #15 ),
 ( #479, #900, #341, #839 ),
 ( #273, #355, #563, #832 ),
 ( #291, #472, #637, #352 ) ),
 .UNSPECIFIED., .F., .F., .F. ) 
 B_SPLINE_SURFACE_WITH_KNOTS ( ( 4, 4 ),
 ( 4, 4 ),
 ( 0.000000000000000000, 1.000000000000000000 ),
 ( 0.000000000000000000, 1.000000000000000000 ),
 .UNSPECIFIED. ) 
 GEOMETRIC_REPRESENTATION_ITEM ( )  RATIONAL_B_SPLINE_SURFACE ( (
 ( 1.000000000000000000, 0.3333333333331727766, 0.3333333333331727766, 1.000000000000000000),
 ( 0.8047378541243631611, 0.2682459513746585089, 0.2682459513746585089, 0.8047378541243631611),
 ( 0.8047378541243631611, 0.2682459513746585089, 0.2682459513746585089, 0.8047378541243631611),
 ( 1.000000000000000000, 0.3333333333331727766, 0.3333333333331727766, 1.000000000000000000) ) ) 
 REPRESENTATION_ITEM ( '' )  SURFACE ( )  );
#366 = EDGE_CURVE ( 'NONE', #218, #545, #184, .T. ) ;
#367 = EDGE_LOOP ( 'NONE', ( #10, #338, #553, #616 ) ) ;
#368 = FACE_OUTER_BOUND ( 'NONE', #753, .T. ) ;
#369 = CARTESIAN_POINT ( 'NONE',  ( -50.00000000000069633, 104.2893218813451028, -240.0071426748889110 ) ) ;
#370 = DIRECTION ( 'NONE',  ( -1.000000000000000000, -3.430248998885766176E-15, 0.000000000000000000 ) ) ;
#371 = PLANE ( 'NONE',  #237 ) ;
#372 = CARTESIAN_POINT ( 'NONE',  ( -4.043732256792637819E-13, 125.0000000000000000, -140.0071426749364036 ) ) ;
#373 = AXIS2_PLACEMENT_3D ( 'NONE', #83, #711, #510 ) ;
#374 = VECTOR ( 'NONE', #281, 1000.000000000000000 ) ;
#375 = DIRECTION ( 'NONE',  ( 0.000000000000000000, 0.000000000000000000, -1.000000000000000000 ) ) ;
#376 = CARTESIAN_POINT ( 'NONE',  ( 0.000000000000000000, 74.99999999999990052, 291349.5000000000000 ) ) ;
#377 = AXIS2_PLACEMENT_3D ( 'NONE', #145, #769, #198 ) ;
#378 = CARTESIAN_POINT ( 'NONE',  ( 110.7178207935907182, 125.0000000000000426, 3.586907429118594086E-15 ) ) ;
#379 = EDGE_CURVE ( 'NONE', #423, #893, #318, .T. ) ;
#380 = DIRECTION ( 'NONE',  ( -3.430248998885766176E-15, 1.000000000000000000, 0.000000000000000000 ) ) ;
#381 = CARTESIAN_POINT ( 'NONE',  ( 140.0071426749359489, 125.0000000000000000, -140.0071426749363752 ) ) ;
#382 = CARTESIAN_POINT ( 'NONE',  ( -2.572686749164319035E-13, 74.99999999999982947, 0.000000000000000000 ) ) ;
#383 = ADVANCED_FACE ( 'NONE', ( #48, #812 ), #736, .T. ) ;
#384 = VECTOR ( 'NONE', #823, 1000.000000000000000 ) ;
#385 = VECTOR ( 'NONE', #245, 1000.000000000000000 ) ;
#386 = CARTESIAN_POINT ( 'NONE',  ( 90.00714267493597731, 104.2893218813453871, 6.123233995736772396E-15 ) ) ;
#387 = DIRECTION ( 'NONE',  ( 3.430248998885766176E-15, -1.000000000000000000, -0.000000000000000000 ) ) ;
#388 = DIRECTION ( 'NONE',  ( 0.000000000000000000, -0.000000000000000000, 1.000000000000000000 ) ) ;
#389 = EDGE_CURVE ( 'NONE', #424, #429, #43, .T. ) ;
#390 = AXIS2_PLACEMENT_3D ( 'NONE', #754, #344, #126 ) ;
#391 = CARTESIAN_POINT ( 'NONE',  ( 90.00714267493587784, 75.00000000000017053, 6.123233995736796851E-15 ) ) ;
#392 = CARTESIAN_POINT ( 'NONE',  ( 140.0071426749364036, 0.000000000000000000, -140.0071426749364036 ) ) ;
#393 = CARTESIAN_POINT ( 'NONE',  ( -4.287811248607207479E-13, 125.0000000000000000, -140.0071426749364036 ) ) ;
#394 = VERTEX_POINT ( 'NONE', #673 ) ;
#395 = CARTESIAN_POINT ( 'NONE',  ( -1.479114197289397135E-28, 74.99999999999991473, -25.00000000000025935 ) ) ;
#396 = DIRECTION ( 'NONE',  ( -3.430248998885766176E-15, 1.000000000000000000, 0.000000000000000000 ) ) ;
#397 = VERTEX_POINT ( 'NONE', #123 ) ;
#398 = ORIENTED_EDGE ( 'NONE', *, *, #874, .T. ) ;
#399 = DIRECTION ( 'NONE',  ( 1.000000000000000000, 3.430248998885766964E-15, 0.000000000000000000 ) ) ;
#400 = CARTESIAN_POINT ( 'NONE',  ( -4.287811248607207479E-13, 125.0000000000000000, 0.000000000000000000 ) ) ;
#401 = CARTESIAN_POINT ( 'NONE',  ( 140.0071426749605052, 75.00000000000039790, 291349.5000000000000 ) ) ;
#402 = ORIENTED_EDGE ( 'NONE', *, *, #613, .F. ) ;
#403 = ORIENTED_EDGE ( 'NONE', *, *, #901, .F. ) ;
#404 = DIRECTION ( 'NONE',  ( 1.000000000000000000, 3.430248998885766176E-15, 0.000000000000000000 ) ) ;
#405 = CARTESIAN_POINT ( 'NONE',  ( 2.941652048589200752E-28, -8.575622497214416977E-14, 0.000000000000000000 ) ) ;
#406 = CIRCLE ( 'NONE', #723, 24.99999999999999289 ) ;
#407 = ADVANCED_FACE ( 'NONE', ( #816 ), #331, .T. ) ;
#408 = DIRECTION ( 'NONE',  ( 0.000000000000000000, 0.000000000000000000, -1.000000000000000000 ) ) ;
#409 = EDGE_LOOP ( 'NONE', ( #87, #896, #144, #231 ) ) ;
#410 = DIRECTION ( 'NONE',  ( -1.000000000000000000, 0.000000000000000000, 0.000000000000000000 ) ) ;
#411 = CARTESIAN_POINT ( 'NONE',  ( 49.99999999999997158, 104.2893218813454013, -100.0000000000007105 ) ) ;
#412 = FACE_OUTER_BOUND ( 'NONE', #778, .T. ) ;
#413 = ORIENTED_EDGE ( 'NONE', *, *, #159, .T. ) ;
#414 = CLOSED_SHELL ( 'NONE', ( #718, #327, #726, #555, #121, #62, #354, #866, #25, #175, #650, #692, #683, #232, #624, #837, #383, #407, #800, #131, #262, #226, #562, #143, #646, #321 ) ) ;
#415 = CARTESIAN_POINT ( 'NONE',  ( 29.28932188137442694, 125.0000000000002416, -81.42849891223080760 ) ) ;
#416 = MECHANICAL_DESIGN_GEOMETRIC_PRESENTATION_REPRESENTATION (  '', ( #278 ), #549 ) ;
#417 = CARTESIAN_POINT ( 'NONE',  ( 190.0071426749364036, 75.00000000000052580, -140.0071426749364036 ) ) ;
#418 = EDGE_CURVE ( 'NONE', #80, #218, #50, .T. ) ;
#419 = EDGE_LOOP ( 'NONE', ( #24, #560, #155, #460 ) ) ;
#420 = CARTESIAN_POINT ( 'NONE',  ( -4.531890240421713525E-13, 125.0000000000000000, -140.0071426749364036 ) ) ;
#421 = VECTOR ( 'NONE', #671, 1000.000000000000000 ) ;
#422 = CARTESIAN_POINT ( 'NONE',  ( 140.0071426749360057, 125.0000000000000000, -140.0071426749364036 ) ) ;
#423 = VERTEX_POINT ( 'NONE', #255 ) ;
#424 = VERTEX_POINT ( 'NONE', #189 ) ;
#425 = EDGE_CURVE ( 'NONE', #508, #6, #246, .T. ) ;
#426 =( LENGTH_UNIT ( ) NAMED_UNIT ( * ) SI_UNIT ( .MILLI., .METRE. ) );
#427 = FACE_OUTER_BOUND ( 'NONE', #270, .T. ) ;
#428 = VERTEX_POINT ( 'NONE', #453 ) ;
#429 = VERTEX_POINT ( 'NONE', #880 ) ;
#430 = DIRECTION ( 'NONE',  ( -3.430248998885766176E-15, 1.000000000000000000, 0.000000000000000000 ) ) ;
#431 = AXIS2_PLACEMENT_3D ( 'NONE', #799, #856, #229 ) ;
#432 = CARTESIAN_POINT ( 'NONE',  ( 49.99999999995185362, 104.2893218813454439, -240.0071426749130126 ) ) ;
#433 = AXIS2_PLACEMENT_3D ( 'NONE', #728, #430, #851 ) ;
#434 = VERTEX_POINT ( 'NONE', #515 ) ;
#435 = VERTEX_POINT ( 'NONE', #323 ) ;
#436 = CARTESIAN_POINT ( 'NONE',  ( -399919.9999999999418, 442.7056274848120552, 0.000000000000000000 ) ) ;
#437 = CARTESIAN_POINT ( 'NONE',  ( 50.00000000000000000, 74.99999999999998579, 0.000000000000000000 ) ) ;
#438 = ORIENTED_EDGE ( 'NONE', *, *, #810, .T. ) ;
#439 = ORIENTED_EDGE ( 'NONE', *, *, #588, .T. ) ;
#440 = DIRECTION ( 'NONE',  ( 1.000000000000000000, 0.000000000000000000, -0.000000000000000000 ) ) ;
#441 = CARTESIAN_POINT ( 'NONE',  ( -50.00000000000051159, 74.99999999999968736, -240.0071426748887404 ) ) ;
#442 = ORIENTED_EDGE ( 'NONE', *, *, #389, .F. ) ;
#443 = CARTESIAN_POINT ( 'NONE',  ( -399919.9999999999418, 442.7056274848120552, 60.00000000000227374 ) ) ;
#444 = CARTESIAN_POINT ( 'NONE',  ( 140.0071426749359773, 125.0000000000000000, 3.081487911019577365E-30 ) ) ;
#445 = ADVANCED_BREP_SHAPE_REPRESENTATION ( 'N504_base', ( #690, #79 ), #450 ) ;
#446 = VECTOR ( 'NONE', #664, 1000.000000000000000 ) ;
#447 = EDGE_CURVE ( 'NONE', #700, #80, #252, .T. ) ;
#448 = CARTESIAN_POINT ( 'NONE',  ( 140.0071426749360342, 125.0000000000000000, -9.244463733058732095E-30 ) ) ;
#449 = CARTESIAN_POINT ( 'NONE',  ( 140.0071426749605052, 75.00000000000035527, -115.0071426749362757 ) ) ;
#450 =( GEOMETRIC_REPRESENTATION_CONTEXT ( 3 ) GLOBAL_UNCERTAINTY_ASSIGNED_CONTEXT ( ( #349 ) ) GLOBAL_UNIT_ASSIGNED_CONTEXT ( ( #757, #320, #38 ) ) REPRESENTATION_CONTEXT ( 'NONE', 'WORKASPACE' ) );
#451 = PRODUCT_RELATED_PRODUCT_CATEGORY ( 'part', '', ( #335 ) ) ;
#452 = CARTESIAN_POINT ( 'NONE',  ( 190.0071426749364036, 104.2893218813454297, -140.0071426749364321 ) ) ;
#453 = CARTESIAN_POINT ( 'NONE',  ( -60.00000000000227374, 75.00000000000012790, 60.00000000000227374 ) ) ;
#454 = ORIENTED_EDGE ( 'NONE', *, *, #46, .F. ) ;
#455 = DIRECTION ( 'NONE',  ( 0.000000000000000000, 0.000000000000000000, 1.000000000000000000 ) ) ;
#456 =( BOUNDED_SURFACE ( )  B_SPLINE_SURFACE ( 3, 3, ( 
 ( #645, #223, #785, #729 ),
 ( #657, #19, #169, #359 ),
 ( #161, #174, #157, #802 ),
 ( #106, #36, #719, #444 ) ),
 .UNSPECIFIED., .F., .F., .T. ) 
 B_SPLINE_SURFACE_WITH_KNOTS ( ( 4, 4 ),
 ( 4, 4 ),
 ( 0.000000000000000000, 1.000000000000000000 ),
 ( 0.000000000000000000, 1.000000000000000000 ),
 .UNSPECIFIED. ) 
 GEOMETRIC_REPRESENTATION_ITEM ( )  RATIONAL_B_SPLINE_SURFACE ( (
 ( 1.000000000000000000, 0.3333333333333334259, 0.3333333333333334259, 1.000000000000000000),
 ( 0.8047378541243654926, 0.2682459513747885715, 0.2682459513747885715, 0.8047378541243654926),
 ( 0.8047378541243654926, 0.2682459513747885715, 0.2682459513747885715, 0.8047378541243654926),
 ( 1.000000000000000000, 0.3333333333333334259, 0.3333333333333334259, 1.000000000000000000) ) ) 
 REPRESENTATION_ITEM ( '' )  SURFACE ( )  );
#457 = CARTESIAN_POINT ( 'NONE',  ( 190.0071426749364036, 75.00000000000052580, -100.0000000000005116 ) ) ;
#458 = CARTESIAN_POINT ( 'NONE',  ( 140.0071426749605052, 0.000000000000000000, -115.0071426749362757 ) ) ;
#459 = EDGE_CURVE ( 'NONE', #128, #361, #249, .T. ) ;
#460 = ORIENTED_EDGE ( 'NONE', *, *, #525, .T. ) ;
#461 = CIRCLE ( 'NONE', #221, 25.00000000000025935 ) ;
#462 = CIRCLE ( 'NONE', #596, 25.00000000000025935 ) ;
#463 = DIRECTION ( 'NONE',  ( -1.000000000000000000, -3.430248998885766176E-15, 0.000000000000000000 ) ) ;
#464 = LINE ( 'NONE', #745, #384 ) ;
#465 = VERTEX_POINT ( 'NONE', #522 ) ;
#466 = CARTESIAN_POINT ( 'NONE',  ( 90.00714267493572152, 104.2893218813451170, -140.0071426749364036 ) ) ;
#467 = CARTESIAN_POINT ( 'NONE',  ( 29.28932188134502823, 125.0000000000002700, 58.57864376269090201 ) ) ;
#468 = LINE ( 'NONE', #649, #17 ) ;
#469 = ORIENTED_EDGE ( 'NONE', *, *, #859, .F. ) ;
#470 = PLANE ( 'NONE',  #767 ) ;
#471 = CARTESIAN_POINT ( 'NONE',  ( -4.043732256792657004E-13, 125.0000000000000000, -140.0071426749364036 ) ) ;
#472 = CARTESIAN_POINT ( 'NONE',  ( 140.0071426749360057, 125.0000000000000000, -140.0071426749364036 ) ) ;
#473 = VECTOR ( 'NONE', #2, 1000.000000000000000 ) ;
#474 = ORIENTED_EDGE ( 'NONE', *, *, #46, .T. ) ;
#475 = CARTESIAN_POINT ( 'NONE',  ( 1.470826024294600376E-28, -4.287811248607208489E-14, 0.000000000000000000 ) ) ;
#476 = AXIS2_PLACEMENT_3D ( 'NONE', #748, #884, #598 ) ;
#477 = EDGE_CURVE ( 'NONE', #225, #89, #3, .T. ) ;
#478 = CARTESIAN_POINT ( 'NONE',  ( -50.00000000000068923, 104.2893218813451028, -140.0071426749364036 ) ) ;
#479 = CARTESIAN_POINT ( 'NONE',  ( 190.0071426749363752, 104.2893218813454581, -140.0071426749364036 ) ) ;
#480 = ORIENTED_EDGE ( 'NONE', *, *, #697, .F. ) ;
#481 = DIRECTION ( 'NONE',  ( -3.430248998885766176E-15, 1.000000000000000000, 0.000000000000000000 ) ) ;
#482 = EDGE_CURVE ( 'NONE', #397, #698, #504, .T. ) ;
#483 = CARTESIAN_POINT ( 'NONE',  ( -399919.9999999999418, 0.000000000000000000, 60.00000000000227374 ) ) ;
#484 = CIRCLE ( 'NONE', #534, 50.00000000000026290 ) ;
#485 = CARTESIAN_POINT ( 'NONE',  ( -60.00000000000227374, 74.99999999999967315, 291349.5000000000000 ) ) ;
#486 = ORIENTED_EDGE ( 'NONE', *, *, #824, .F. ) ;
#487 = CARTESIAN_POINT ( 'NONE',  ( -2.572686749164320549E-13, 74.99999999999987210, -140.0071426749364036 ) ) ;
#488 = CARTESIAN_POINT ( 'NONE',  ( 29.28932188134503534, 125.0000000000002558, 0.000000000000000000 ) ) ;
#489 = EDGE_CURVE ( 'NONE', #218, #45, #714, .T. ) ;
#490 = ORIENTED_EDGE ( 'NONE', *, *, #342, .F. ) ;
#491 = CARTESIAN_POINT ( 'NONE',  ( 190.0071426749360626, 104.2893218813457139, -140.0071426749364036 ) ) ;
#492 = PRODUCT_DEFINITION_CONTEXT ( 'detailed design', #580, 'design' ) ;
#493 =( BOUNDED_CURVE ( )  B_SPLINE_CURVE ( 3, ( #496, #102, #90, #295 ),
 .UNSPECIFIED., .F., .F. ) 
 B_SPLINE_CURVE_WITH_KNOTS ( ( 4, 4 ),
 ( 3.141592653589793560, 4.712388980384697668 ),
 .UNSPECIFIED. ) 
 CURVE ( )  GEOMETRIC_REPRESENTATION_ITEM ( )  RATIONAL_B_SPLINE_CURVE ( ( 1.000000000000000000, 0.8047378541243631611, 0.8047378541243631611, 1.000000000000000000 ) ) 
 REPRESENTATION_ITEM ( '' )  );
#494 = ORIENTED_EDGE ( 'NONE', *, *, #710, .F. ) ;
#495 = ORIENTED_EDGE ( 'NONE', *, *, #794, .T. ) ;
#496 = CARTESIAN_POINT ( 'NONE',  ( 50.00000000000000000, 75.00000000000004263, -140.0071426749605052 ) ) ;
#497 = ORIENTED_EDGE ( 'NONE', *, *, #35, .T. ) ;
#498 = ORIENTED_EDGE ( 'NONE', *, *, #883, .T. ) ;
#499 = DIRECTION ( 'NONE',  ( 1.000000000000000000, 0.000000000000000000, -0.000000000000000000 ) ) ;
#500 = ORIENTED_EDGE ( 'NONE', *, *, #113, .F. ) ;
#501 = ORIENTED_EDGE ( 'NONE', *, *, #418, .F. ) ;
#502 = EDGE_CURVE ( 'NONE', #218, #225, #117, .T. ) ;
#503 = DIRECTION ( 'NONE',  ( 1.000000000000000000, 0.000000000000000000, -0.000000000000000000 ) ) ;
#504 = CIRCLE ( 'NONE', #699, 50.00000000000026290 ) ;
#505 = FACE_OUTER_BOUND ( 'NONE', #329, .T. ) ;
#506 = AXIS2_PLACEMENT_3D ( 'NONE', #1, #160, #233 ) ;
#507 = ORIENTED_EDGE ( 'NONE', *, *, #771, .F. ) ;
#508 = VERTEX_POINT ( 'NONE', #219 ) ;
#509 = PLANE ( 'NONE',  #316 ) ;
#510 = DIRECTION ( 'NONE',  ( 1.000000000000000000, 3.430248998885765781E-15, 0.000000000000000000 ) ) ;
#511 = CARTESIAN_POINT ( 'NONE',  ( 0.000000000000000000, 0.000000000000000000, 0.000000000000000000 ) ) ;
#512 = DIRECTION ( 'NONE',  ( -1.000000000000000000, -3.430248998885766176E-15, 0.000000000000000000 ) ) ;
#513 = CARTESIAN_POINT ( 'NONE',  ( -50.00000000000071765, 104.2893218813450602, 6.123233995736811839E-15 ) ) ;
#514 = LINE ( 'NONE', #177, #529 ) ;
#515 = CARTESIAN_POINT ( 'NONE',  ( 200.0071426749627790, 75.00000000000056843, 60.00000000000227374 ) ) ;
#516 = VECTOR ( 'NONE', #622, 1000.000000000000000 ) ;
#517 = CARTESIAN_POINT ( 'NONE',  ( 90.00714267493590626, 74.99999999999965894, -140.0071426749557872 ) ) ;
#518 = DIRECTION ( 'NONE',  ( 3.430248998885766176E-15, -1.000000000000000000, -0.000000000000000000 ) ) ;
#519 = CARTESIAN_POINT ( 'NONE',  ( 140.0071426749360057, 125.0000000000000000, -140.0071426749364036 ) ) ;
#520 = EDGE_CURVE ( 'NONE', #465, #325, #744, .T. ) ;
#521 =( BOUNDED_SURFACE ( )  B_SPLINE_SURFACE ( 3, 3, ( 
 ( #842, #277, #895, #72 ),
 ( #899, #346, #146, #478 ),
 ( #845, #415, #550, #780 ),
 ( #471, #702, #628, #420 ) ),
 .UNSPECIFIED., .F., .F., .F. ) 
 B_SPLINE_SURFACE_WITH_KNOTS ( ( 4, 4 ),
 ( 4, 4 ),
 ( 0.000000000000000000, 1.000000000000000000 ),
 ( 0.000000000000000000, 1.000000000000000000 ),
 .UNSPECIFIED. ) 
 GEOMETRIC_REPRESENTATION_ITEM ( )  RATIONAL_B_SPLINE_SURFACE ( (
 ( 1.000000000000000000, 0.3333333333331657822, 0.3333333333331657822, 1.000000000000000000),
 ( 0.8047378541243632721, 0.2682459513746529023, 0.2682459513746529023, 0.8047378541243632721),
 ( 0.8047378541243632721, 0.2682459513746529023, 0.2682459513746529023, 0.8047378541243632721),
 ( 1.000000000000000000, 0.3333333333331657822, 0.3333333333331657822, 1.000000000000000000) ) ) 
 REPRESENTATION_ITEM ( '' )  SURFACE ( )  );
#522 = CARTESIAN_POINT ( 'NONE',  ( 1.470826024294600376E-28, -8.575622497214416977E-14, -25.00000000000000000 ) ) ;
#523 = CARTESIAN_POINT ( 'NONE',  ( 9.860761315262647568E-29, 74.99999999999987210, -115.0071426749362757 ) ) ;
#524 = LINE ( 'NONE', #257, #268 ) ;
#525 = EDGE_CURVE ( 'NONE', #547, #712, #12, .T. ) ;
#526 = CARTESIAN_POINT ( 'NONE',  ( 140.0071426749361763, 75.00000000000035527, -140.0071426749364036 ) ) ;
#527 = CARTESIAN_POINT ( 'NONE',  ( -4.287811248607207479E-13, 125.0000000000000000, 0.000000000000000000 ) ) ;
#528 = CIRCLE ( 'NONE', #74, 25.00000000000027356 ) ;
#529 = VECTOR ( 'NONE', #898, 1000.000000000000000 ) ;
#530 = ORIENTED_EDGE ( 'NONE', *, *, #489, .F. ) ;
#531 = CARTESIAN_POINT ( 'NONE',  ( 190.0071426749361194, 104.2893218813457139, -1.224646799147354637E-14 ) ) ;
#532 = DIRECTION ( 'NONE',  ( -1.000000000000000000, -3.430248998885766176E-15, 0.000000000000000000 ) ) ;
#533 = ORIENTED_EDGE ( 'NONE', *, *, #358, .F. ) ;
#534 = AXIS2_PLACEMENT_3D ( 'NONE', #487, #339, #694 ) ;
#535 = ORIENTED_EDGE ( 'NONE', *, *, #314, .F. ) ;
#536 = CARTESIAN_POINT ( 'NONE',  ( 140.0071426749364036, 74.99999999999987210, -140.0071426749364036 ) ) ;
#537 = FACE_OUTER_BOUND ( 'NONE', #797, .T. ) ;
#538 = DIRECTION ( 'NONE',  ( 1.000000000000000000, 0.000000000000000000, -0.000000000000000000 ) ) ;
#539 = EDGE_CURVE ( 'NONE', #361, #547, #633, .T. ) ;
#540 = ORIENTED_EDGE ( 'NONE', *, *, #592, .T. ) ;
#541 = CARTESIAN_POINT ( 'NONE',  ( -4.287811248607207479E-13, 125.0000000000000000, 0.000000000000000000 ) ) ;
#542 = LINE ( 'NONE', #765, #834 ) ;
#543 = CYLINDRICAL_SURFACE ( 'NONE', #733, 25.00000000000013500 ) ;
#544 = PRODUCT_DEFINITION_SHAPE ( 'NONE', 'NONE',  #731 ) ;
#545 = VERTEX_POINT ( 'NONE', #706 ) ;
#546 = AXIS2_PLACEMENT_3D ( 'NONE', #392, #742, #261 ) ;
#547 = VERTEX_POINT ( 'NONE', #282 ) ;
#548 = FACE_OUTER_BOUND ( 'NONE', #862, .T. ) ;
#549 =( GEOMETRIC_REPRESENTATION_CONTEXT ( 3 ) GLOBAL_UNCERTAINTY_ASSIGNED_CONTEXT ( ( #171 ) ) GLOBAL_UNIT_ASSIGNED_CONTEXT ( ( #426, #243, #570 ) ) REPRESENTATION_CONTEXT ( 'NONE', 'WORKASPACE' ) );
#550 = CARTESIAN_POINT ( 'NONE',  ( -29.28932188134586312, 125.0000000000000568, -81.42849891221609937 ) ) ;
#551 = CARTESIAN_POINT ( 'NONE',  ( -50.00000000000051870, 74.99999999999964473, 6.123233995736797640E-15 ) ) ;
#552 =( BOUNDED_SURFACE ( )  B_SPLINE_SURFACE ( 3, 3, ( 
 ( #82, #334, #287, #695 ),
 ( #612, #215, #411, #770 ),
 ( #203, #61, #556, #618 ),
 ( #775, #561, #199, #67 ) ),
 .UNSPECIFIED., .F., .F., .F. ) 
 B_SPLINE_SURFACE_WITH_KNOTS ( ( 4, 4 ),
 ( 4, 4 ),
 ( 0.000000000000000000, 1.000000000000000000 ),
 ( 0.000000000000000000, 1.000000000000000000 ),
 .UNSPECIFIED. ) 
 GEOMETRIC_REPRESENTATION_ITEM ( )  RATIONAL_B_SPLINE_SURFACE ( (
 ( 1.000000000000000000, 0.3333333333333334259, 0.3333333333333334259, 1.000000000000000000),
 ( 0.8047378541243630501, 0.2682459513747877389, 0.2682459513747877389, 0.8047378541243630501),
 ( 0.8047378541243630501, 0.2682459513747877389, 0.2682459513747877389, 0.8047378541243630501),
 ( 1.000000000000000000, 0.3333333333333334259, 0.3333333333333334259, 1.000000000000000000) ) ) 
 REPRESENTATION_ITEM ( '' )  SURFACE ( )  );
#553 = ORIENTED_EDGE ( 'NONE', *, *, #805, .F. ) ;
#554 = CARTESIAN_POINT ( 'NONE',  ( 140.0071426749605052, 75.00000000000035527, -90.00714267493617626 ) ) ;
#555 = ADVANCED_FACE ( 'NONE', ( #537 ), #552, .T. ) ;
#556 = CARTESIAN_POINT ( 'NONE',  ( 29.28932188134502113, 125.0000000000002416, -58.57864376269092332 ) ) ;
#557 = CARTESIAN_POINT ( 'NONE',  ( -399919.9999999999418, 74.99999999862805566, -200.0071426749627790 ) ) ;
#558 =( BOUNDED_CURVE ( )  B_SPLINE_CURVE ( 3, ( #141, #7, #760, #541 ),
 .UNSPECIFIED., .F., .T. ) 
 B_SPLINE_CURVE_WITH_KNOTS ( ( 4, 4 ),
 ( 3.141592653589792672, 4.712388980384697668 ),
 .UNSPECIFIED. ) 
 CURVE ( )  GEOMETRIC_REPRESENTATION_ITEM ( )  RATIONAL_B_SPLINE_CURVE ( ( 1.000000000000000000, 0.8047378541243630501, 0.8047378541243630501, 1.000000000000000000 ) ) 
 REPRESENTATION_ITEM ( '' )  );
#559 = EDGE_LOOP ( 'NONE', ( #768, #498, #85, #403 ) ) ;
#560 = ORIENTED_EDGE ( 'NONE', *, *, #889, .F. ) ;
#561 = CARTESIAN_POINT ( 'NONE',  ( -4.531890240421759468E-13, 125.0000000000000000, -4.881579836291021481E-14 ) ) ;
#562 = ADVANCED_FACE ( 'NONE', ( #761 ), #521, .T. ) ;
#563 = CARTESIAN_POINT ( 'NONE',  ( 110.7178207935623249, 125.0000000000000426, -81.42849891223134762 ) ) ;
#564 = EDGE_LOOP ( 'NONE', ( #305, #300, #495, #280 ) ) ;
#565 = VERTEX_POINT ( 'NONE', #272 ) ;
#566 = AXIS2_PLACEMENT_3D ( 'NONE', #119, #518, #873 ) ;
#567 = DIRECTION ( 'NONE',  ( 0.000000000000000000, -0.000000000000000000, 1.000000000000000000 ) ) ;
#568 = DIRECTION ( 'NONE',  ( -1.000000000000000000, 0.000000000000000000, 0.000000000000000000 ) ) ;
#569 = EDGE_LOOP ( 'NONE', ( #258, #469, #125, #64 ) ) ;
#570 =( NAMED_UNIT ( * ) SI_UNIT ( $, .STERADIAN. ) SOLID_ANGLE_UNIT ( ) );
#571 = CARTESIAN_POINT ( 'NONE',  ( -4.043732256792637819E-13, 125.0000000000000000, -140.0071426749364605 ) ) ;
#572 = ORIENTED_EDGE ( 'NONE', *, *, #794, .F. ) ;
#573 = EDGE_CURVE ( 'NONE', #394, #565, #542, .T. ) ;
#574 = ORIENTED_EDGE ( 'NONE', *, *, #35, .F. ) ;
#575 = PLANE ( 'NONE',  #88 ) ;
#576 = CARTESIAN_POINT ( 'NONE',  ( 50.00000000000000000, 75.00000000000002842, -140.0071426749604768 ) ) ;
#577 = EDGE_LOOP ( 'NONE', ( #337, #150, #625, #167 ) ) ;
#578 = ORIENTED_EDGE ( 'NONE', *, *, #104, .F. ) ;
#579 = EDGE_CURVE ( 'NONE', #610, #712, #77, .T. ) ;
#580 = APPLICATION_CONTEXT ( 'automotive_design' ) ;
#581 = FILL_AREA_STYLE_COLOUR ( '', #188 ) ;
#582 = AXIS2_PLACEMENT_3D ( 'NONE', #772, #142, #843 ) ;
#583 = CARTESIAN_POINT ( 'NONE',  ( 115.0071426749263992, 0.000000000000000000, 0.000000000000000000 ) ) ;
#584 = VECTOR ( 'NONE', #290, 1000.000000000000000 ) ;
#585 = ORIENTED_EDGE ( 'NONE', *, *, #810, .F. ) ;
#586 = VERTEX_POINT ( 'NONE', #689 ) ;
#587 = CARTESIAN_POINT ( 'NONE',  ( -2.572686749164321559E-13, 74.99999999999991473, -140.0071426749364036 ) ) ;
#588 = EDGE_CURVE ( 'NONE', #435, #620, #37, .T. ) ;
#589 = CARTESIAN_POINT ( 'NONE',  ( -50.00000000000051870, 74.99999999999967315, -140.0071426749364036 ) ) ;
#590 = CARTESIAN_POINT ( 'NONE',  ( 190.0071426749361194, 104.2893218813457139, -100.0000000000001279 ) ) ;
#591 = CARTESIAN_POINT ( 'NONE',  ( -399919.9999999999418, 74.99999999862805566, 60.00000000000227374 ) ) ;
#592 = EDGE_CURVE ( 'NONE', #80, #676, #716, .T. ) ;
#593 = CARTESIAN_POINT ( 'NONE',  ( 90.00714267493586362, 75.00000000000018474, -100.0000000000005400 ) ) ;
#594 = DIRECTION ( 'NONE',  ( 0.000000000000000000, 0.000000000000000000, -1.000000000000000000 ) ) ;
#595 = VECTOR ( 'NONE', #606, 1000.000000000000000 ) ;
#596 = AXIS2_PLACEMENT_3D ( 'NONE', #587, #303, #855 ) ;
#597 = CARTESIAN_POINT ( 'NONE',  ( 110.7178207936131713, 125.0000000000000000, -198.5857864376158943 ) ) ;
#598 = DIRECTION ( 'NONE',  ( -1.000000000000000000, -3.430248998885766176E-15, 0.000000000000000000 ) ) ;
#599 = LINE ( 'NONE', #49, #640 ) ;
#600 = LINE ( 'NONE', #751, #750 ) ;
#601 = DIRECTION ( 'NONE',  ( 1.000000000000000000, 0.000000000000000000, 0.000000000000000000 ) ) ;
#602 = CARTESIAN_POINT ( 'NONE',  ( -4.531890240421758963E-13, 125.0000000000000000, 2.989105560648028285E-30 ) ) ;
#603 = FACE_OUTER_BOUND ( 'NONE', #564, .T. ) ;
#604 = ORIENTED_EDGE ( 'NONE', *, *, #477, .T. ) ;
#605 = CARTESIAN_POINT ( 'NONE',  ( 140.0071426749358920, 124.9999999999999858, -140.0071426749365173 ) ) ;
#606 = DIRECTION ( 'NONE',  ( -1.000000000000000000, -3.430248998885766176E-15, 0.000000000000000000 ) ) ;
#607 = CARTESIAN_POINT ( 'NONE',  ( 4.412478072883800904E-28, 74.99999999999987210, 0.000000000000000000 ) ) ;
#608 = SHAPE_DEFINITION_REPRESENTATION ( #544, #445 ) ;
#609 = VECTOR ( 'NONE', #740, 1000.000000000000000 ) ;
#610 = VERTEX_POINT ( 'NONE', #22 ) ;
#611 = LINE ( 'NONE', #894, #211 ) ;
#612 = CARTESIAN_POINT ( 'NONE',  ( -50.00000000000071765, 104.2893218813450602, 6.123233995736811839E-15 ) ) ;
#613 = EDGE_CURVE ( 'NONE', #397, #274, #27, .T. ) ;
#614 = CARTESIAN_POINT ( 'NONE',  ( 115.0071426749362757, -8.575622497214459891E-14, 0.000000000000000000 ) ) ;
#615 = CIRCLE ( 'NONE', #390, 50.00000000000027001 ) ;
#616 = ORIENTED_EDGE ( 'NONE', *, *, #379, .T. ) ;
#617 = CARTESIAN_POINT ( 'NONE',  ( -60.00000000000227374, 74.99999999999967315, -200.0071426749627790 ) ) ;
#618 = CARTESIAN_POINT ( 'NONE',  ( 29.28932188134502823, 125.0000000000002274, -7.173814858237251281E-15 ) ) ;
#619 = DIRECTION ( 'NONE',  ( 1.000000000000000000, 3.430248998885765387E-15, 0.000000000000000000 ) ) ;
#620 = VERTEX_POINT ( 'NONE', #239 ) ;
#621 = CARTESIAN_POINT ( 'NONE',  ( 140.0071426749605052, 75.00000000000035527, -25.00000000000013145 ) ) ;
#622 = DIRECTION ( 'NONE',  ( 0.000000000000000000, 0.000000000000000000, -1.000000000000000000 ) ) ;
#623 = AXIS2_PLACEMENT_3D ( 'NONE', #73, #568, #220 ) ;
#624 = ADVANCED_FACE ( 'NONE', ( #156 ), #575, .F. ) ;
#625 = ORIENTED_EDGE ( 'NONE', *, *, #678, .T. ) ;
#626 = FACE_OUTER_BOUND ( 'NONE', #409, .T. ) ;
#627 = PRESENTATION_LAYER_ASSIGNMENT (  '', '', ( #278 ) ) ;
#628 = CARTESIAN_POINT ( 'NONE',  ( -4.531890240421713020E-13, 125.0000000000000000, -140.0071426749363752 ) ) ;
#629 = PLANE ( 'NONE',  #582 ) ;
#630 = ORIENTED_EDGE ( 'NONE', *, *, #613, .T. ) ;
#631 = ORIENTED_EDGE ( 'NONE', *, *, #788, .T. ) ;
#632 = EDGE_CURVE ( 'NONE', #353, #325, #636, .T. ) ;
#633 = LINE ( 'NONE', #151, #4 ) ;
#634 = LINE ( 'NONE', #401, #516 ) ;
#635 = ORIENTED_EDGE ( 'NONE', *, *, #588, .F. ) ;
#636 = LINE ( 'NONE', #651, #584 ) ;
#637 = CARTESIAN_POINT ( 'NONE',  ( 140.0071426749359773, 125.0000000000000000, -140.0071426749363468 ) ) ;
#638 = ORIENTED_EDGE ( 'NONE', *, *, #824, .T. ) ;
#639 = ORIENTED_EDGE ( 'NONE', *, *, #883, .F. ) ;
#640 = VECTOR ( 'NONE', #370, 1000.000000000000000 ) ;
#641 = PLANE ( 'NONE',  #306 ) ;
#642 = CARTESIAN_POINT ( 'NONE',  ( 49.99999999999997868, 104.2893218813454581, -140.0071426749605052 ) ) ;
#643 = EDGE_CURVE ( 'NONE', #835, #424, #665, .T. ) ;
#644 = ORIENTED_EDGE ( 'NONE', *, *, #107, .T. ) ;
#645 = CARTESIAN_POINT ( 'NONE',  ( 190.0071426749364036, 75.00000000000051159, 0.000000000000000000 ) ) ;
#646 = ADVANCED_FACE ( 'NONE', ( #722 ), #32, .F. ) ;
#647 = VERTEX_POINT ( 'NONE', #164 ) ;
#648 = CARTESIAN_POINT ( 'NONE',  ( 140.0071426749361763, 75.00000000000035527, -140.0071426749364036 ) ) ;
#649 = CARTESIAN_POINT ( 'NONE',  ( 25.00000000000013145, 8.575622497214459891E-14, 0.000000000000000000 ) ) ;
#650 = ADVANCED_FACE ( 'NONE', ( #368 ), #509, .T. ) ;
#651 = CARTESIAN_POINT ( 'NONE',  ( -399919.9999999999418, 0.000000000000000000, 0.000000000000000000 ) ) ;
#652 = CIRCLE ( 'NONE', #891, 50.00000000000026290 ) ;
#653 = CARTESIAN_POINT ( 'NONE',  ( 50.00000000000001421, 74.99999999999998579, 100.0000000000004974 ) ) ;
#654 = AXIS2_PLACEMENT_3D ( 'NONE', #130, #266, #764 ) ;
#655 = CARTESIAN_POINT ( 'NONE',  ( 190.0071426749364321, 75.00000000000052580, -1.224646799147359686E-14 ) ) ;
#656 =( BOUNDED_SURFACE ( )  B_SPLINE_SURFACE ( 3, 3, ( 
 ( #437, #653, #28, #33 ),
 ( #308, #871, #244, #513 ),
 ( #44, #467, #807, #55 ),
 ( #313, #662, #109, #602 ) ),
 .UNSPECIFIED., .F., .F., .T. ) 
 B_SPLINE_SURFACE_WITH_KNOTS ( ( 4, 4 ),
 ( 4, 4 ),
 ( 0.000000000000000000, 1.000000000000000000 ),
 ( 0.000000000000000000, 1.000000000000000000 ),
 .UNSPECIFIED. ) 
 GEOMETRIC_REPRESENTATION_ITEM ( )  RATIONAL_B_SPLINE_SURFACE ( (
 ( 1.000000000000000000, 0.3333333333333334259, 0.3333333333333334259, 1.000000000000000000),
 ( 0.8047378541243630501, 0.2682459513747877389, 0.2682459513747877389, 0.8047378541243630501),
 ( 0.8047378541243630501, 0.2682459513747877389, 0.2682459513747877389, 0.8047378541243630501),
 ( 1.000000000000000000, 0.3333333333333334259, 0.3333333333333334259, 1.000000000000000000) ) ) 
 REPRESENTATION_ITEM ( '' )  SURFACE ( )  );
#657 = CARTESIAN_POINT ( 'NONE',  ( 190.0071426749360626, 104.2893218813457139, 0.000000000000000000 ) ) ;
#658 = LINE ( 'NONE', #52, #705 ) ;
#659 = CARTESIAN_POINT ( 'NONE',  ( -60.00000000000227374, 0.000000000000000000, 60.00000000000227374 ) ) ;
#660 = CARTESIAN_POINT ( 'NONE',  ( -2.572686749164319035E-13, 74.99999999999982947, 0.000000000000000000 ) ) ;
#661 = CARTESIAN_POINT ( 'NONE',  ( 140.0071426749359489, 124.9999999999999858, -140.0071426749365173 ) ) ;
#662 = CARTESIAN_POINT ( 'NONE',  ( -4.043732256792656500E-13, 125.0000000000000000, 4.881579836291012015E-14 ) ) ;
#663 = VECTOR ( 'NONE', #532, 1000.000000000000000 ) ;
#664 = DIRECTION ( 'NONE',  ( 3.430248998885766176E-15, -1.000000000000000000, -0.000000000000000000 ) ) ;
#665 = CIRCLE ( 'NONE', #118, 50.00000000000024158 ) ;
#666 = EDGE_CURVE ( 'NONE', #397, #647, #493, .T. ) ;
#667 = DIRECTION ( 'NONE',  ( -0.000000000000000000, -1.000000000000000000, -0.000000000000000000 ) ) ;
#668 = CARTESIAN_POINT ( 'NONE',  ( 90.00714267497446031, 104.2893218813450886, -240.0071426749176169 ) ) ;
#669 = CARTESIAN_POINT ( 'NONE',  ( 50.00000000000000711, 104.2893218813454581, 0.000000000000000000 ) ) ;
#670 = ORIENTED_EDGE ( 'NONE', *, *, #113, .T. ) ;
#671 = DIRECTION ( 'NONE',  ( -3.430248998885766176E-15, 1.000000000000000000, 0.000000000000000000 ) ) ;
#672 = CARTESIAN_POINT ( 'NONE',  ( 90.00714267493599152, 104.2893218813453586, 6.123233995736772396E-15 ) ) ;
#673 = CARTESIAN_POINT ( 'NONE',  ( 115.0071426749263992, 0.000000000000000000, -140.0071426749605052 ) ) ;
#674 = CARTESIAN_POINT ( 'NONE',  ( 9.860761315262647568E-29, 74.99999999999987210, -50.00000000000026290 ) ) ;
#675 = CARTESIAN_POINT ( 'NONE',  ( 0.000000000000000000, 0.000000000000000000, -25.00000000000013145 ) ) ;
#676 = VERTEX_POINT ( 'NONE', #18 ) ;
#677 = CARTESIAN_POINT ( 'NONE',  ( 2.941652048589200752E-28, -8.575622497214416977E-14, -140.0071426749364036 ) ) ;
#678 = EDGE_CURVE ( 'NONE', #274, #6, #462, .T. ) ;
#679 = CARTESIAN_POINT ( 'NONE',  ( 50.00000000000000000, 75.00000000000000000, 0.000000000000000000 ) ) ;
#680 = CARTESIAN_POINT ( 'NONE',  ( -399919.9999999999418, 442.7056274848120552, -200.0071426749627790 ) ) ;
#681 = VECTOR ( 'NONE', #181, 1000.000000000000000 ) ;
#682 = DIRECTION ( 'NONE',  ( 1.000000000000000000, 3.430248998885767753E-15, 0.000000000000000000 ) ) ;
#683 = ADVANCED_FACE ( 'NONE', ( #717 ), #641, .T. ) ;
#684 = DIRECTION ( 'NONE',  ( 3.430248998885766176E-15, -1.000000000000000000, -0.000000000000000000 ) ) ;
#685 =( BOUNDED_SURFACE ( )  B_SPLINE_SURFACE ( 3, 3, ( 
 ( #391, #593, #457, #655 ),
 ( #672, #39, #590, #531 ),
 ( #378, #737, #741, #875 ),
 ( #803, #888, #186, #448 ) ),
 .UNSPECIFIED., .F., .F., .F. ) 
 B_SPLINE_SURFACE_WITH_KNOTS ( ( 4, 4 ),
 ( 4, 4 ),
 ( 0.000000000000000000, 1.000000000000000000 ),
 ( 0.000000000000000000, 1.000000000000000000 ),
 .UNSPECIFIED. ) 
 GEOMETRIC_REPRESENTATION_ITEM ( )  RATIONAL_B_SPLINE_SURFACE ( (
 ( 1.000000000000000000, 0.3333333333333334259, 0.3333333333333334259, 1.000000000000000000),
 ( 0.8047378541243654926, 0.2682459513747885715, 0.2682459513747885715, 0.8047378541243654926),
 ( 0.8047378541243654926, 0.2682459513747885715, 0.2682459513747885715, 0.8047378541243654926),
 ( 1.000000000000000000, 0.3333333333333334259, 0.3333333333333334259, 1.000000000000000000) ) ) 
 REPRESENTATION_ITEM ( '' )  SURFACE ( )  );
#686 = ORIENTED_EDGE ( 'NONE', *, *, #489, .T. ) ;
#687 = ORIENTED_EDGE ( 'NONE', *, *, #482, .T. ) ;
#688 = LINE ( 'NONE', #675, #421 ) ;
#689 = CARTESIAN_POINT ( 'NONE',  ( 140.0071426749360057, 125.0000000000000000, -140.0071426749364036 ) ) ;
#690 = MANIFOLD_SOLID_BREP ( 'Sketch-Pattern1', #414 ) ;
#691 = LINE ( 'NONE', #134, #817 ) ;
#692 = ADVANCED_FACE ( 'NONE', ( #317 ), #371, .F. ) ;
#693 = ORIENTED_EDGE ( 'NONE', *, *, #302, .F. ) ;
#694 = DIRECTION ( 'NONE',  ( 1.000000000000000000, 3.330669073875452266E-15, 0.000000000000000000 ) ) ;
#695 = CARTESIAN_POINT ( 'NONE',  ( 50.00000000000000000, 74.99999999999998579, -1.224646799147359528E-14 ) ) ;
#696 = PLANE ( 'NONE',  #623 ) ;
#697 = EDGE_CURVE ( 'NONE', #565, #274, #735, .T. ) ;
#698 = VERTEX_POINT ( 'NONE', #322 ) ;
#699 = AXIS2_PLACEMENT_3D ( 'NONE', #178, #396, #40 ) ;
#700 = VERTEX_POINT ( 'NONE', #811 ) ;
#701 = VECTOR ( 'NONE', #512, 1000.000000000000000 ) ;
#702 = CARTESIAN_POINT ( 'NONE',  ( -4.043732256792657004E-13, 125.0000000000000000, -140.0071426749363752 ) ) ;
#703 = CARTESIAN_POINT ( 'NONE',  ( 169.2964645562811654, 125.0000000000002416, -140.0071426749364036 ) ) ;
#704 = ORIENTED_EDGE ( 'NONE', *, *, #573, .F. ) ;
#705 = VECTOR ( 'NONE', #250, 1000.000000000000000 ) ;
#706 = CARTESIAN_POINT ( 'NONE',  ( 25.00000000000000000, 75.00000000000000000, 0.000000000000000000 ) ) ;
#707 = CYLINDRICAL_SURFACE ( 'NONE', #373, 25.00000000000013145 ) ;
#708 = ORIENTED_EDGE ( 'NONE', *, *, #379, .F. ) ;
#709 = ORIENTED_EDGE ( 'NONE', *, *, #366, .F. ) ;
#710 = EDGE_CURVE ( 'NONE', #80, #620, #91, .T. ) ;
#711 = DIRECTION ( 'NONE',  ( 3.430248998885766176E-15, -1.000000000000000000, -0.000000000000000000 ) ) ;
#712 = VERTEX_POINT ( 'NONE', #659 ) ;
#713 = ORIENTED_EDGE ( 'NONE', *, *, #314, .T. ) ;
#714 =( BOUNDED_CURVE ( )  B_SPLINE_CURVE ( 3, ( #679, #669, #488, #400 ),
 .UNSPECIFIED., .F., .F. ) 
 B_SPLINE_CURVE_WITH_KNOTS ( ( 4, 4 ),
 ( 3.141592653589793116, 4.712388980384697668 ),
 .UNSPECIFIED. ) 
 CURVE ( )  GEOMETRIC_REPRESENTATION_ITEM ( )  RATIONAL_B_SPLINE_CURVE ( ( 1.000000000000000000, 0.8047378541243631611, 0.8047378541243631611, 1.000000000000000000 ) ) 
 REPRESENTATION_ITEM ( '' )  );
#715 = VECTOR ( 'NONE', #594, 1000.000000000000000 ) ;
#716 = CIRCLE ( 'NONE', #506, 50.00000000000027001 ) ;
#717 = FACE_OUTER_BOUND ( 'NONE', #136, .T. ) ;
#718 = ADVANCED_FACE ( 'NONE', ( #326 ), #685, .T. ) ;
#719 = CARTESIAN_POINT ( 'NONE',  ( 140.0071426749359773, 125.0000000000000000, 5.551115123125782071E-14 ) ) ;
#720 = ORIENTED_EDGE ( 'NONE', *, *, #93, .T. ) ;
#721 = ORIENTED_EDGE ( 'NONE', *, *, #520, .T. ) ;
#722 = FACE_OUTER_BOUND ( 'NONE', #773, .T. ) ;
#723 = AXIS2_PLACEMENT_3D ( 'NONE', #330, #271, #682 ) ;
#724 = CARTESIAN_POINT ( 'NONE',  ( -4.531890240421758458E-13, 125.0000000000000000, -140.0071426749364605 ) ) ;
#725 = ORIENTED_EDGE ( 'NONE', *, *, #592, .F. ) ;
#726 = ADVANCED_FACE ( 'NONE', ( #248 ), #789, .T. ) ;
#727 = CARTESIAN_POINT ( 'NONE',  ( 200.0071426749627790, 75.00000000000056843, 291349.5000000000000 ) ) ;
#728 = CARTESIAN_POINT ( 'NONE',  ( 140.0071426749364036, 74.99999999999987210, 0.000000000000000000 ) ) ;
#729 = CARTESIAN_POINT ( 'NONE',  ( 90.00714267493589205, 75.00000000000017053, 6.123233995736795273E-15 ) ) ;
#730 = EDGE_LOOP ( 'NONE', ( #402, #356, #70, #854 ) ) ;
#731 = PRODUCT_DEFINITION ( 'UNKNOWN', '', #180, #492 ) ;
#732 = PRESENTATION_STYLE_ASSIGNMENT (( #867 ) ) ;
#733 = AXIS2_PLACEMENT_3D ( 'NONE', #13, #336, #619 ) ;
#734 = CARTESIAN_POINT ( 'NONE',  ( 0.000000000000000000, 0.000000000000000000, -115.0071426749263992 ) ) ;
#735 = LINE ( 'NONE', #108, #162 ) ;
#736 = PLANE ( 'NONE',  #476 ) ;
#737 = CARTESIAN_POINT ( 'NONE',  ( 110.7178207935907324, 125.0000000000000142, -58.57864376269048279 ) ) ;
#738 = EDGE_CURVE ( 'NONE', #429, #586, #808, .T. ) ;
#739 = CARTESIAN_POINT ( 'NONE',  ( 200.0071426749627790, 442.7056274848120552, -200.0071426749627790 ) ) ;
#740 = DIRECTION ( 'NONE',  ( 3.430248998885766176E-15, -1.000000000000000000, -0.000000000000000000 ) ) ;
#741 = CARTESIAN_POINT ( 'NONE',  ( 169.2964645562812223, 125.0000000000002274, -58.57864376269044726 ) ) ;
#742 = DIRECTION ( 'NONE',  ( 3.430248998885766176E-15, -1.000000000000000000, -0.000000000000000000 ) ) ;
#743 = EDGE_CURVE ( 'NONE', #825, #238, #254, .T. ) ;
#744 = CIRCLE ( 'NONE', #75, 25.00000000000000000 ) ;
#745 = CARTESIAN_POINT ( 'NONE',  ( 140.0071426749605052, 75.00000000000039790, 291349.5000000000000 ) ) ;
#746 = VECTOR ( 'NONE', #138, 1000.000000000000000 ) ;
#747 = CARTESIAN_POINT ( 'NONE',  ( 90.00714267493589205, 74.99999999999965894, -140.0071426749605052 ) ) ;
#748 = CARTESIAN_POINT ( 'NONE',  ( 4.412478072883800904E-28, 74.99999999999987210, 0.000000000000000000 ) ) ;
#749 = DIRECTION ( 'NONE',  ( 1.000000000000000000, 3.330669073875434911E-15, 0.000000000000000000 ) ) ;
#750 = VECTOR ( 'NONE', #315, 1000.000000000000000 ) ;
#751 = CARTESIAN_POINT ( 'NONE',  ( -60.00000000000227374, 442.7056274848120552, -200.0071426749627790 ) ) ;
#752 = EDGE_CURVE ( 'NONE', #238, #423, #105, .T. ) ;
#753 = EDGE_LOOP ( 'NONE', ( #213, #713, #84, #269 ) ) ;
#754 = CARTESIAN_POINT ( 'NONE',  ( 140.0071426749361763, 74.99999999999982947, -140.0071426749364036 ) ) ;
#755 = CARTESIAN_POINT ( 'NONE',  ( 0.000000000000000000, 74.99999999999990052, 291349.5000000000000 ) ) ;
#756 = FACE_OUTER_BOUND ( 'NONE', #14, .T. ) ;
#757 =( LENGTH_UNIT ( ) NAMED_UNIT ( * ) SI_UNIT ( .MILLI., .METRE. ) );
#758 = EDGE_CURVE ( 'NONE', #835, #893, #514, .T. ) ;
#759 = EDGE_LOOP ( 'NONE', ( #869, #897, #120, #639 ) ) ;
#760 = CARTESIAN_POINT ( 'NONE',  ( -29.28932188134588799, 125.0000000000000284, 3.586907429118625640E-15 ) ) ;
#761 = FACE_OUTER_BOUND ( 'NONE', #857, .T. ) ;
#762 = CARTESIAN_POINT ( 'NONE',  ( 0.000000000000000000, 0.000000000000000000, 291349.5000000000000 ) ) ;
#763 = EDGE_LOOP ( 'NONE', ( #206, #413, #535, #578 ) ) ;
#764 = DIRECTION ( 'NONE',  ( 1.000000000000000000, 3.330669073875433334E-15, 0.000000000000000000 ) ) ;
#765 = CARTESIAN_POINT ( 'NONE',  ( -399919.9999999999418, 0.000000000000000000, -140.0071426749605052 ) ) ;
#766 = CARTESIAN_POINT ( 'NONE',  ( 200.0071426749627790, 442.7056274848120552, 291349.5000000000000 ) ) ;
#767 = AXIS2_PLACEMENT_3D ( 'NONE', #60, #410, #836 ) ;
#768 = ORIENTED_EDGE ( 'NONE', *, *, #159, .F. ) ;
#769 = DIRECTION ( 'NONE',  ( 3.430248998885766176E-15, -1.000000000000000000, -0.000000000000000000 ) ) ;
#770 = CARTESIAN_POINT ( 'NONE',  ( 50.00000000000000711, 104.2893218813454155, -1.224646799147362368E-14 ) ) ;
#771 = EDGE_CURVE ( 'NONE', #435, #676, #347, .T. ) ;
#772 = CARTESIAN_POINT ( 'NONE',  ( 4.412478072883800904E-28, 74.99999999999987210, -140.0071426749364036 ) ) ;
#773 = EDGE_LOOP ( 'NONE', ( #41, #94, #289, #540 ) ) ;
#774 = DIRECTION ( 'NONE',  ( 1.000000000000000000, 3.330669073875453450E-15, 0.000000000000000000 ) ) ;
#775 = CARTESIAN_POINT ( 'NONE',  ( -4.531890240421758963E-13, 125.0000000000000000, 2.989105560648023030E-30 ) ) ;
#776 = DIRECTION ( 'NONE',  ( 0.000000000000000000, -0.000000000000000000, 1.000000000000000000 ) ) ;
#777 = AXIS2_PLACEMENT_3D ( 'NONE', #511, #809, #253 ) ;
#778 = EDGE_LOOP ( 'NONE', ( #166, #902, #135, #170, #708, #58 ) ) ;
#779 = AXIS2_PLACEMENT_3D ( 'NONE', #677, #54, #399 ) ;
#780 = CARTESIAN_POINT ( 'NONE',  ( -29.28932188134586312, 125.0000000000000568, -140.0071426749364036 ) ) ;
#781 = FACE_OUTER_BOUND ( 'NONE', #569, .T. ) ;
#782 = EDGE_CURVE ( 'NONE', #893, #362, #149, .T. ) ;
#783 = VERTEX_POINT ( 'NONE', #395 ) ;
#784 = FILL_AREA_STYLE ('',( #581 ) ) ;
#785 = CARTESIAN_POINT ( 'NONE',  ( 90.00714267493590626, 75.00000000000015632, 100.0000000000005116 ) ) ;
#786 = ORIENTED_EDGE ( 'NONE', *, *, #69, .F. ) ;
#787 = ORIENTED_EDGE ( 'NONE', *, *, #76, .T. ) ;
#788 = EDGE_CURVE ( 'NONE', #565, #265, #260, .T. ) ;
#789 =( BOUNDED_SURFACE ( )  B_SPLINE_SURFACE ( 3, 3, ( 
 ( #517, #34, #183, #116 ),
 ( #806, #668, #179, #452 ),
 ( #122, #597, #111, #47 ),
 ( #381, #605, #661, #879 ) ),
 .UNSPECIFIED., .F., .F., .F. ) 
 B_SPLINE_SURFACE_WITH_KNOTS ( ( 4, 4 ),
 ( 4, 4 ),
 ( 0.000000000000000000, 1.000000000000000000 ),
 ( 0.000000000000000000, 1.000000000000000000 ),
 .UNSPECIFIED. ) 
 GEOMETRIC_REPRESENTATION_ITEM ( )  RATIONAL_B_SPLINE_SURFACE ( (
 ( 1.000000000000000000, 0.3333333333334627668, 0.3333333333334627668, 1.000000000000000000),
 ( 0.8047378541243632721, 0.2682459513748919333, 0.2682459513748919333, 0.8047378541243632721),
 ( 0.8047378541243632721, 0.2682459513748919333, 0.2682459513748919333, 0.8047378541243632721),
 ( 1.000000000000000000, 0.3333333333334627668, 0.3333333333334627668, 1.000000000000000000) ) ) 
 REPRESENTATION_ITEM ( '' )  SURFACE ( )  );
#790 = FACE_OUTER_BOUND ( 'NONE', #364, .T. ) ;
#791 = ORIENTED_EDGE ( 'NONE', *, *, #482, .F. ) ;
#792 = VECTOR ( 'NONE', #193, 1000.000000000000000 ) ;
#793 = CARTESIAN_POINT ( 'NONE',  ( -399919.9999999999418, 442.7056274848120552, -140.0071426749605052 ) ) ;
#794 = EDGE_CURVE ( 'NONE', #783, #89, #214, .T. ) ;
#795 = CARTESIAN_POINT ( 'NONE',  ( 24.99999999999987210, 74.99999999999995737, -140.0071426749605052 ) ) ;
#796 = ORIENTED_EDGE ( 'NONE', *, *, #666, .T. ) ;
#797 = EDGE_LOOP ( 'NONE', ( #848, #638, #530, #533 ) ) ;
#798 = DIRECTION ( 'NONE',  ( 0.000000000000000000, -0.000000000000000000, 1.000000000000000000 ) ) ;
#799 = CARTESIAN_POINT ( 'NONE',  ( 140.0071426749361763, 75.00000000000035527, 0.000000000000000000 ) ) ;
#800 = ADVANCED_FACE ( 'NONE', ( #626 ), #826, .F. ) ;
#801 = EDGE_LOOP ( 'NONE', ( #207, #293, #720, #294 ) ) ;
#802 = CARTESIAN_POINT ( 'NONE',  ( 110.7178207935907750, 125.0000000000000568, 3.586907429118594086E-15 ) ) ;
#803 = CARTESIAN_POINT ( 'NONE',  ( 140.0071426749359489, 125.0000000000000000, 2.297658745114797219E-30 ) ) ;
#804 = DIRECTION ( 'NONE',  ( 1.000000000000000000, 3.330669073875453450E-15, 0.000000000000000000 ) ) ;
#805 = EDGE_CURVE ( 'NONE', #423, #394, #96, .T. ) ;
#806 = CARTESIAN_POINT ( 'NONE',  ( 90.00714267493572152, 104.2893218813450886, -140.0071426749557872 ) ) ;
#807 = CARTESIAN_POINT ( 'NONE',  ( -29.28932188134587733, 125.0000000000000568, 58.57864376269090201 ) ) ;
#808 =( BOUNDED_CURVE ( )  B_SPLINE_CURVE ( 3, ( #747, #466, #259, #519 ),
 .UNSPECIFIED., .F., .F. ) 
 B_SPLINE_CURVE_WITH_KNOTS ( ( 4, 4 ),
 ( 3.141592653589793116, 4.712388980384697668 ),
 .UNSPECIFIED. ) 
 CURVE ( )  GEOMETRIC_REPRESENTATION_ITEM ( )  RATIONAL_B_SPLINE_CURVE ( ( 1.000000000000000000, 0.8047378541243631611, 0.8047378541243631611, 1.000000000000000000 ) ) 
 REPRESENTATION_ITEM ( '' )  );
#809 = DIRECTION ( 'NONE',  ( 3.430248998885766176E-15, -1.000000000000000000, -0.000000000000000000 ) ) ;
#810 = EDGE_CURVE ( 'NONE', #353, #238, #406, .T. ) ;
#811 = CARTESIAN_POINT ( 'NONE',  ( 115.0071426749360342, 75.00000000000027001, 0.000000000000000000 ) ) ;
#812 = FACE_OUTER_BOUND ( 'NONE', #763, .T. ) ;
#813 = LINE ( 'NONE', #324, #446 ) ;
#814 = DIRECTION ( 'NONE',  ( 1.000000000000000000, 0.000000000000000000, 0.000000000000000000 ) ) ;
#815 = CARTESIAN_POINT ( 'NONE',  ( 140.0071426749360057, 125.0000000000000000, 0.000000000000000000 ) ) ;
#816 = FACE_OUTER_BOUND ( 'NONE', #367, .T. ) ;
#817 = VECTOR ( 'NONE', #68, 1000.000000000000000 ) ;
#818 = EDGE_CURVE ( 'NONE', #265, #6, #611, .T. ) ;
#819 = DIRECTION ( 'NONE',  ( -3.430248998885766176E-15, 1.000000000000000000, 0.000000000000000000 ) ) ;
#820 = ORIENTED_EDGE ( 'NONE', *, *, #632, .T. ) ;
#821 = CARTESIAN_POINT ( 'NONE',  ( 140.0071426749605052, 0.000000000000000000, -25.00000000000013145 ) ) ;
#822 = CARTESIAN_POINT ( 'NONE',  ( 115.0071426749360342, 75.00000000000027001, -140.0071426749605052 ) ) ;
#823 = DIRECTION ( 'NONE',  ( 0.000000000000000000, 0.000000000000000000, -1.000000000000000000 ) ) ;
#824 = EDGE_CURVE ( 'NONE', #225, #45, #558, .T. ) ;
#825 = VERTEX_POINT ( 'NONE', #621 ) ;
#826 = PLANE ( 'NONE',  #283 ) ;
#827 = DIRECTION ( 'NONE',  ( 3.430248998885766176E-15, -1.000000000000000000, -0.000000000000000000 ) ) ;
#828 = PLANE ( 'NONE',  #31 ) ;
#829 = ORIENTED_EDGE ( 'NONE', *, *, #502, .F. ) ;
#830 = FACE_BOUND ( 'NONE', #163, .T. ) ;
#831 = DIRECTION ( 'NONE',  ( -1.000000000000000000, 0.000000000000000000, 0.000000000000000000 ) ) ;
#832 = CARTESIAN_POINT ( 'NONE',  ( 110.7178207935905476, 125.0000000000000426, -140.0071426749505292 ) ) ;
#833 = VECTOR ( 'NONE', #195, 1000.000000000000000 ) ;
#834 = VECTOR ( 'NONE', #831, 1000.000000000000000 ) ;
#835 = VERTEX_POINT ( 'NONE', #554 ) ;
#836 = DIRECTION ( 'NONE',  ( 0.000000000000000000, 0.000000000000000000, 1.000000000000000000 ) ) ;
#837 = ADVANCED_FACE ( 'NONE', ( #548 ), #470, .F. ) ;
#838 = CARTESIAN_POINT ( 'NONE',  ( 190.0071426749364036, 75.00000000000052580, 0.000000000000000000 ) ) ;
#839 = CARTESIAN_POINT ( 'NONE',  ( 90.00714267493570730, 104.2893218813451170, -140.0071426749605052 ) ) ;
#840 = VERTEX_POINT ( 'NONE', #617 ) ;
#841 = DIRECTION ( 'NONE',  ( -1.000000000000000000, -3.430248998885766176E-15, 0.000000000000000000 ) ) ;
#842 = CARTESIAN_POINT ( 'NONE',  ( 50.00000000000000000, 75.00000000000005684, -140.0071426749615284 ) ) ;
#843 = DIRECTION ( 'NONE',  ( -1.000000000000000000, -3.430248998885766176E-15, 0.000000000000000000 ) ) ;
#844 = ORIENTED_EDGE ( 'NONE', *, *, #447, .F. ) ;
#845 = CARTESIAN_POINT ( 'NONE',  ( 29.28932188134500691, 125.0000000000002416, -140.0071426749511261 ) ) ;
#846 = LINE ( 'NONE', #485, #360 ) ;
#847 = EDGE_CURVE ( 'NONE', #698, #508, #484, .T. ) ;
#848 = ORIENTED_EDGE ( 'NONE', *, *, #477, .F. ) ;
#849 = VECTOR ( 'NONE', #165, 1000.000000000000000 ) ;
#850 = ORIENTED_EDGE ( 'NONE', *, *, #418, .T. ) ;
#851 = DIRECTION ( 'NONE',  ( -1.000000000000000000, -3.430248998885766176E-15, 0.000000000000000000 ) ) ;
#852 = FACE_OUTER_BOUND ( 'NONE', #887, .T. ) ;
#853 = ORIENTED_EDGE ( 'NONE', *, *, #771, .T. ) ;
#854 = ORIENTED_EDGE ( 'NONE', *, *, #678, .F. ) ;
#855 = DIRECTION ( 'NONE',  ( 1.000000000000000000, 3.330669073875434911E-15, 0.000000000000000000 ) ) ;
#856 = DIRECTION ( 'NONE',  ( -3.430248998885766176E-15, 1.000000000000000000, 0.000000000000000000 ) ) ;
#857 = EDGE_LOOP ( 'NONE', ( #454, #217, #490, #796 ) ) ;
#858 = EDGE_LOOP ( 'NONE', ( #26, #850, #301, #604, #158, #286, #791, #574, #442, #53, #786, #507 ) ) ;
#859 = EDGE_CURVE ( 'NONE', #835, #429, #615, .T. ) ;
#860 = SURFACE_STYLE_FILL_AREA ( #784 ) ;
#861 = DIRECTION ( 'NONE',  ( 3.430248998885766176E-15, -1.000000000000000000, -0.000000000000000000 ) ) ;
#862 = EDGE_LOOP ( 'NONE', ( #309, #95, #227, #693, #572, #285 ) ) ;
#863 = ORIENTED_EDGE ( 'NONE', *, *, #292, .T. ) ;
#864 = AXIS2_PLACEMENT_3D ( 'NONE', #660, #387, #127 ) ;
#865 = AXIS2_PLACEMENT_3D ( 'NONE', #208, #65, #774 ) ;
#866 = ADVANCED_FACE ( 'NONE', ( #830, #202 ), #71, .T. ) ;
#867 = SURFACE_STYLE_USAGE ( .BOTH. , #173 ) ;
#868 = LINE ( 'NONE', #591, #849 ) ;
#869 = ORIENTED_EDGE ( 'NONE', *, *, #240, .F. ) ;
#870 = DIRECTION ( 'NONE',  ( 0.000000000000000000, -0.000000000000000000, 1.000000000000000000 ) ) ;
#871 = CARTESIAN_POINT ( 'NONE',  ( 50.00000000000000711, 104.2893218813454297, 100.0000000000007248 ) ) ;
#872 = CARTESIAN_POINT ( 'NONE',  ( 140.0071426749605052, 0.000000000000000000, 291349.5000000000000 ) ) ;
#873 = DIRECTION ( 'NONE',  ( 1.000000000000000000, 3.330669073875452266E-15, 0.000000000000000000 ) ) ;
#874 = EDGE_CURVE ( 'NONE', #465, #783, #688, .T. ) ;
#875 = CARTESIAN_POINT ( 'NONE',  ( 169.2964645562811654, 125.0000000000002132, -7.173814858237191327E-15 ) ) ;
#876 = AXIS2_PLACEMENT_3D ( 'NONE', #680, #388, #538 ) ;
#877 = VECTOR ( 'NONE', #311, 1000.000000000000000 ) ;
#878 = CARTESIAN_POINT ( 'NONE',  ( 200.0071426749627790, 0.000000000000000000, -200.0071426749627790 ) ) ;
#879 = CARTESIAN_POINT ( 'NONE',  ( 140.0071426749360342, 125.0000000000000000, -140.0071426749364321 ) ) ;
#880 = CARTESIAN_POINT ( 'NONE',  ( 90.00714267493589205, 74.99999999999965894, -140.0071426749605052 ) ) ;
#881 = CARTESIAN_POINT ( 'NONE',  ( -2.572686749164321559E-13, 74.99999999999991473, 0.000000000000000000 ) ) ;
#882 = DIRECTION ( 'NONE',  ( -3.430248998885766176E-15, 1.000000000000000000, 0.000000000000000000 ) ) ;
#883 = EDGE_CURVE ( 'NONE', #840, #610, #600, .T. ) ;
#884 = DIRECTION ( 'NONE',  ( -3.430248998885766176E-15, 1.000000000000000000, 0.000000000000000000 ) ) ;
#885 = PLANE ( 'NONE',  #876 ) ;
#886 = CARTESIAN_POINT ( 'NONE',  ( 0.000000000000000000, 0.000000000000000000, 0.000000000000000000 ) ) ;
#887 = EDGE_LOOP ( 'NONE', ( #100, #140, #585, #192 ) ) ;
#888 = CARTESIAN_POINT ( 'NONE',  ( 140.0071426749359489, 125.0000000000000000, -1.110223024625156414E-13 ) ) ;
#889 = EDGE_CURVE ( 'NONE', #361, #610, #658, .T. ) ;
#890 = CARTESIAN_POINT ( 'NONE',  ( -399919.9999999999418, 74.99999999862805566, 0.000000000000000000 ) ) ;
#891 = AXIS2_PLACEMENT_3D ( 'NONE', #299, #861, #234 ) ;
#892 = CARTESIAN_POINT ( 'NONE',  ( 200.0071426749627790, 442.7056274848120552, 60.00000000000227374 ) ) ;
#893 = VERTEX_POINT ( 'NONE', #449 ) ;
#894 = CARTESIAN_POINT ( 'NONE',  ( 0.000000000000000000, 0.000000000000000000, -115.0071426749362757 ) ) ;
#895 = CARTESIAN_POINT ( 'NONE',  ( -50.00000000000051870, 74.99999999999970157, -40.00714267488562825 ) ) ;
#896 = ORIENTED_EDGE ( 'NONE', *, *, #782, .F. ) ;
#897 = ORIENTED_EDGE ( 'NONE', *, *, #459, .T. ) ;
#898 = DIRECTION ( 'NONE',  ( 0.000000000000000000, 0.000000000000000000, -1.000000000000000000 ) ) ;
#899 = CARTESIAN_POINT ( 'NONE',  ( 49.99999999999997158, 104.2893218813454581, -140.0071426749615284 ) ) ;
#900 = CARTESIAN_POINT ( 'NONE',  ( 190.0071426749363752, 104.2893218813454439, -40.00714267488755382 ) ) ;
#901 = EDGE_CURVE ( 'NONE', #428, #712, #524, .T. ) ;
#902 = ORIENTED_EDGE ( 'NONE', *, *, #172, .T. ) ;
#903 = CARTESIAN_POINT ( 'NONE',  ( 0.000000000000000000, 74.99999999999990052, 291349.5000000000000 ) ) ;
ENDSEC;
END-ISO-10303-21;
