ISO-10303-21;
HEADER;
FILE_DESCRIPTION (( 'STEP AP214' ),
    '1' );
FILE_NAME ('N504_structure.STEP',
    '2026-01-16T02:00:25',
    ( '' ),
    ( '' ),
    'SwSTEP 2.0',
    'SolidWorks 2024',
    '' );
FILE_SCHEMA (( 'AUTOMOTIVE_DESIGN' ));
ENDSEC;

DATA;
#1 = CARTESIAN_POINT ( 'NONE',  ( -22.91287847477919826, 24.99999999999294076, 10.00000000000896350 ) ) ;
#2 = FACE_OUTER_BOUND ( 'NONE', #604, .T. ) ;
#3 = FACE_OUTER_BOUND ( 'NONE', #61, .T. ) ;
#4 = PRODUCT_CONTEXT ( 'NONE', #50, 'mechanical' ) ;
#5 = AXIS2_PLACEMENT_3D ( 'NONE', #411, #51, #47 ) ;
#6 = ORIENTED_EDGE ( 'NONE', *, *, #237, .F. ) ;
#7 = EDGE_CURVE ( 'NONE', #150, #504, #529, .T. ) ;
#8 = CARTESIAN_POINT ( 'NONE',  ( 22.91287847477923378, 34.99999999999273115, 10.00000000001647038 ) ) ;
#9 = EDGE_LOOP ( 'NONE', ( #362, #347, #119 ) ) ;
#10 = VERTEX_POINT ( 'NONE', #105 ) ;
#11 = PRODUCT_DEFINITION_CONTEXT ( 'detailed design', #195, 'design' ) ;
#12 = LINE ( 'NONE', #475, #190 ) ;
#13 = DIRECTION ( 'NONE',  ( 3.430248998885766964E-15, 1.000000000000000000, 7.175197935804787021E-13 ) ) ;
#14 = ORIENTED_EDGE ( 'NONE', *, *, #298, .T. ) ;
#15 = DIRECTION ( 'NONE',  ( 3.430248998885765387E-15, 1.000000000000000000, 7.175197935804787021E-13 ) ) ;
#16 = CARTESIAN_POINT ( 'NONE',  ( -18.86156530485204286, 25.64339366821003807, -16.42524151127059540 ) ) ;
#17 = AXIS2_PLACEMENT_3D ( 'NONE', #623, #364, #472 ) ;
#18 = ORIENTED_EDGE ( 'NONE', *, *, #576, .F. ) ;
#19 = FACE_OUTER_BOUND ( 'NONE', #9, .T. ) ;
#20 = CARTESIAN_POINT ( 'NONE',  ( -22.87512283139905378, 33.47591518564859570, -10.08781882417229347 ) ) ;
#21 = ORIENTED_EDGE ( 'NONE', *, *, #184, .T. ) ;
#22 = CARTESIAN_POINT ( 'NONE',  ( -4.287811248607207479E-13, -100.0000000000000711, -8.072565511017815165E-11 ) ) ;
#23 = CARTESIAN_POINT ( 'NONE',  ( 0.000000000000000000, 74.99999999999279510, 10.00000000004484235 ) ) ;
#24 = LINE ( 'NONE', #64, #166 ) ;
#25 = CARTESIAN_POINT ( 'NONE',  ( 2.941652048589200752E-28, 25.00000000000003908, 8.964319087381772741E-12 ) ) ;
#26 = AXIS2_PLACEMENT_3D ( 'NONE', #275, #571, #565 ) ;
#27 = FACE_OUTER_BOUND ( 'NONE', #589, .T. ) ;
#28 = CARTESIAN_POINT ( 'NONE',  ( -22.71035499989808315, 32.00122356784392963, -10.45272255269014039 ) ) ;
#29 = CARTESIAN_POINT ( 'NONE',  ( -21.56979733736467963, 28.18216272551597612, 12.64942839515433981 ) ) ;
#30 = CARTESIAN_POINT ( 'NONE',  ( -4.531890240422011904E-13, -100.0000000000000711, -8.077447090854105518E-11 ) ) ;
#31 = CARTESIAN_POINT ( 'NONE',  ( 25.00000000000000000, -50.00000000000005684, -4.484966543115420645E-11 ) ) ;
#32 = CARTESIAN_POINT ( 'NONE',  ( 22.87512283139910707, 33.47591518563395852, 10.08781882420238851 ) ) ;
#33 = ORIENTED_EDGE ( 'NONE', *, *, #512, .F. ) ;
#34 = LINE ( 'NONE', #192, #101 ) ;
#35 = LINE ( 'NONE', #353, #598 ) ;
#36 = ORIENTED_EDGE ( 'NONE', *, *, #441, .F. ) ;
#37 = CARTESIAN_POINT ( 'NONE',  ( 29.28932188134504244, -100.0000000000424336, 58.57864376261024830 ) ) ;
#38 = CARTESIAN_POINT ( 'NONE',  ( 19.54891974181875369, 26.02080700684633996, -15.58725087263827547 ) ) ;
#39 = VERTEX_POINT ( 'NONE', #575 ) ;
#40 = DIRECTION ( 'NONE',  ( 3.430248998885766964E-15, 1.000000000000000000, 7.175197935804787021E-13 ) ) ;
#41 = CARTESIAN_POINT ( 'NONE',  ( 50.00000000000000000, -50.00000000000006395, -4.484966543115420645E-11 ) ) ;
#42 = ORIENTED_EDGE ( 'NONE', *, *, #605, .F. ) ;
#43 = VECTOR ( 'NONE', #428, 1000.000000000000000 ) ;
#44 = CARTESIAN_POINT ( 'NONE',  ( 15.61286387460857661, 24.99999999998591704, 19.54035209405270379 ) ) ;
#45 = VECTOR ( 'NONE', #592, 1000.000000000000000 ) ;
#46 = ORIENTED_EDGE ( 'NONE', *, *, #158, .T. ) ;
#47 = DIRECTION ( 'NONE',  ( 1.000000000000000000, -3.330669073875434911E-15, -2.524354896707211590E-27 ) ) ;
#48 = PRESENTATION_STYLE_ASSIGNMENT (( #368 ) ) ;
#49 = PLANE ( 'NONE',  #315 ) ;
#50 = APPLICATION_CONTEXT ( 'automotive_design' ) ;
#51 = DIRECTION ( 'NONE',  ( 3.430248998885765387E-15, 1.000000000000000000, 7.175197935804787021E-13 ) ) ;
#52 = SURFACE_SIDE_STYLE ('',( #319 ) ) ;
#53 = CARTESIAN_POINT ( 'NONE',  ( 22.91287847477919826, 24.99999999999269917, 10.00000000000896705 ) ) ;
#54 = CARTESIAN_POINT ( 'NONE',  ( -22.91287847477885720, 125.0000000000072475, -9.999999999919285898 ) ) ;
#55 = CARTESIAN_POINT ( 'NONE',  ( -2.572686749164321559E-13, -49.99999999999997158, -4.484966543115414829E-11 ) ) ;
#56 = VECTOR ( 'NONE', #445, 1000.000000000000000 ) ;
#57 = ORIENTED_EDGE ( 'NONE', *, *, #459, .F. ) ;
#58 = CARTESIAN_POINT ( 'NONE',  ( -50.00000000000075318, -79.28932188134518810, -6.587145685556491604E-11 ) ) ;
#59 = CARTESIAN_POINT ( 'NONE',  ( 22.91287847477954287, 124.9999999999927240, 10.00000000008071943 ) ) ;
#60 = EDGE_CURVE ( 'NONE', #568, #483, #611, .T. ) ;
#61 = EDGE_LOOP ( 'NONE', ( #329, #247, #194, #413 ) ) ;
#62 = DIRECTION ( 'NONE',  ( 3.430248998885765387E-15, 1.000000000000000000, 7.175197935804787021E-13 ) ) ;
#63 = DIRECTION ( 'NONE',  ( 0.000000000000000000, 7.175197935804788030E-13, -1.000000000000000000 ) ) ;
#64 = CARTESIAN_POINT ( 'NONE',  ( 1.470826024294600376E-28, 24.99999999998564348, 20.00000000000896705 ) ) ;
#65 = CARTESIAN_POINT ( 'NONE',  ( -22.36257499133399662, 30.27660401968190484, -11.17802233046451121 ) ) ;
#66 = AXIS2_PLACEMENT_3D ( 'NONE', #384, #587, #443 ) ;
#67 = VECTOR ( 'NONE', #449, 1000.000000000000000 ) ;
#68 = ORIENTED_EDGE ( 'NONE', *, *, #536, .F. ) ;
#69 = EDGE_CURVE ( 'NONE', #85, #535, #323, .T. ) ;
#70 = DIRECTION ( 'NONE',  ( 1.000000000000000000, -3.469446951953596045E-15, -2.524354896707224504E-27 ) ) ;
#71 = CARTESIAN_POINT ( 'NONE',  ( -21.27870237959137256, 27.69329285427092202, -13.13841407583895737 ) ) ;
#72 = DIRECTION ( 'NONE',  ( -1.000000000000000000, 0.000000000000000000, 0.000000000000000000 ) ) ;
#73 = ADVANCED_FACE ( 'NONE', ( #317 ), #49, .F. ) ;
#74 = CARTESIAN_POINT ( 'NONE',  ( -15.61286387460856595, 25.00000000001404032, -19.54035209403475903 ) ) ;
#75 = PLANE ( 'NONE',  #66 ) ;
#76 = DIRECTION ( 'NONE',  ( 3.430248998885766964E-15, 1.000000000000000000, 7.175197935804787021E-13 ) ) ;
#77 = AXIS2_PLACEMENT_3D ( 'NONE', #382, #338, #493 ) ;
#78 = AXIS2_PLACEMENT_3D ( 'NONE', #288, #170, #70 ) ;
#79 = CIRCLE ( 'NONE', #134, 15.00000000000000000 ) ;
#80 = CARTESIAN_POINT ( 'NONE',  ( -22.70811802772235666, 31.98608046456063292, 10.45757799523572729 ) ) ;
#81 = CARTESIAN_POINT ( 'NONE',  ( -22.06631634913444273, 29.33269199355867585, -11.75274981883895542 ) ) ;
#82 = ADVANCED_FACE ( 'NONE', ( #164 ), #573, .T. ) ;
#83 = CARTESIAN_POINT ( 'NONE',  ( -22.91287847477916628, 34.99999999999288747, 10.00000000001614175 ) ) ;
#84 = CARTESIAN_POINT ( 'NONE',  ( 22.91287847477923378, 35.00000000000708411, -9.999999999983861798 ) ) ;
#85 = VERTEX_POINT ( 'NONE', #579 ) ;
#86 = FACE_OUTER_BOUND ( 'NONE', #278, .T. ) ;
#87 = CARTESIAN_POINT ( 'NONE',  ( -29.28932188134589154, -100.0000000000001421, -8.072924201760726694E-11 ) ) ;
#88 = VERTEX_POINT ( 'NONE', #479 ) ;
#89 = CARTESIAN_POINT ( 'NONE',  ( -4.043732256792658519E-13, -100.0000000000001421, -8.072565511017817750E-11 ) ) ;
#90 = CARTESIAN_POINT ( 'NONE',  ( 16.19909563521389728, 25.03150673619876798, -19.05668644109133680 ) ) ;
#91 = ORIENTED_EDGE ( 'NONE', *, *, #398, .F. ) ;
#92 = CARTESIAN_POINT ( 'NONE',  ( -20.18227221730234788, 26.47793448044166453, 14.75766441275094287 ) ) ;
#93 = CARTESIAN_POINT ( 'NONE',  ( 50.00000000000000000, -50.00000000000006395, -4.484966543115420645E-11 ) ) ;
#94 = ORIENTED_EDGE ( 'NONE', *, *, #626, .T. ) ;
#95 = FILL_AREA_STYLE_COLOUR ( '', #313 ) ;
#96 = PRODUCT_DEFINITION ( 'UNKNOWN', '', #473, #11 ) ;
#97 = ORIENTED_EDGE ( 'NONE', *, *, #60, .T. ) ;
#98 = ADVANCED_BREP_SHAPE_REPRESENTATION ( 'N504_structure', ( #314, #622 ), #204 ) ;
#99 = VECTOR ( 'NONE', #419, 1000.000000000000000 ) ;
#100 = DIRECTION ( 'NONE',  ( -1.000000000000000000, 0.000000000000000000, 0.000000000000000000 ) ) ;
#101 = VECTOR ( 'NONE', #456, 1000.000000000000000 ) ;
#102 = CARTESIAN_POINT ( 'NONE',  ( 16.20484767120686342, 25.03187835766565428, 19.05187649876745581 ) ) ;
#103 = AXIS2_PLACEMENT_3D ( 'NONE', #209, #168, #426 ) ;
#104 = CIRCLE ( 'NONE', #486, 25.00000000000000000 ) ;
#105 = CARTESIAN_POINT ( 'NONE',  ( -22.91287847477919826, 24.99999999999294076, 10.00000000000896350 ) ) ;
#106 = EDGE_CURVE ( 'NONE', #112, #660, #117, .T. ) ;
#107 = CARTESIAN_POINT ( 'NONE',  ( 17.32601321129848415, 25.18093030596155657, 18.03830236949146837 ) ) ;
#108 = CARTESIAN_POINT ( 'NONE',  ( -22.91287847477885720, 124.9999999999928946, 10.00000000008071943 ) ) ;
#109 =( BOUNDED_CURVE ( )  B_SPLINE_CURVE ( 3, ( #465, #58, #266, #468 ),
 .UNSPECIFIED., .F., .F. ) 
 B_SPLINE_CURVE_WITH_KNOTS ( ( 4, 4 ),
 ( 3.141592653589791784, 4.712388980384697668 ),
 .UNSPECIFIED. ) 
 CURVE ( )  GEOMETRIC_REPRESENTATION_ITEM ( )  RATIONAL_B_SPLINE_CURVE ( ( 1.000000000000000000, 0.8047378541243628280, 0.8047378541243628280, 1.000000000000000000 ) ) 
 REPRESENTATION_ITEM ( '' )  );
#110 =( LENGTH_UNIT ( ) NAMED_UNIT ( * ) SI_UNIT ( .MILLI., .METRE. ) );
#111 = ORIENTED_EDGE ( 'NONE', *, *, #175, .T. ) ;
#112 = VERTEX_POINT ( 'NONE', #59 ) ;
#113 = CARTESIAN_POINT ( 'NONE',  ( 0.000000000000000000, 0.000000000000000000, 0.000000000000000000 ) ) ;
#114 = CARTESIAN_POINT ( 'NONE',  ( 3.430248998885766791E-13, 124.9999999999999858, 8.071629844542961467E-11 ) ) ;
#115 = AXIS2_PLACEMENT_3D ( 'NONE', #114, #377, #630 ) ;
#116 = ADVANCED_FACE ( 'NONE', ( #269, #3 ), #619, .F. ) ;
#117 = LINE ( 'NONE', #417, #43 ) ;
#118 = CARTESIAN_POINT ( 'NONE',  ( -50.00000000000075318, -79.28932188134517389, -6.587145685556491604E-11 ) ) ;
#119 = ORIENTED_EDGE ( 'NONE', *, *, #251, .T. ) ;
#120 = EDGE_LOOP ( 'NONE', ( #328, #430 ) ) ;
#121 = DIRECTION ( 'NONE',  ( 3.430248998885765387E-15, 1.000000000000000000, 7.175197935804787021E-13 ) ) ;
#122 = FACE_OUTER_BOUND ( 'NONE', #386, .T. ) ;
#123 = CYLINDRICAL_SURFACE ( 'NONE', #282, 10.00000000000000178 ) ;
#124 = CARTESIAN_POINT ( 'NONE',  ( 2.941652048589200752E-28, 25.00000000000003908, 8.964319087381772741E-12 ) ) ;
#125 = VECTOR ( 'NONE', #655, 1000.000000000000000 ) ;
#126 = ORIENTED_EDGE ( 'NONE', *, *, #471, .F. ) ;
#127 = ADVANCED_FACE ( 'NONE', ( #420 ), #153, .F. ) ;
#128 = CARTESIAN_POINT ( 'NONE',  ( 0.000000000000000000, 24.99999999999995381, 8.964319087381711348E-12 ) ) ;
#129 = CARTESIAN_POINT ( 'NONE',  ( 15.00000000000000000, 75.00000000000714806, -9.999999999955161201 ) ) ;
#130 = CARTESIAN_POINT ( 'NONE',  ( 25.00000000000013145, 24.99999999999986500, 8.964319087381649956E-12 ) ) ;
#131 = CARTESIAN_POINT ( 'NONE',  ( -20.18638650265014078, 26.48142243018595110, -14.75202264290535226 ) ) ;
#132 = CARTESIAN_POINT ( 'NONE',  ( -4.531890240422213347E-13, -100.0000000000001279, -8.067683931181531274E-11 ) ) ;
#133 = CARTESIAN_POINT ( 'NONE',  ( -19.98204773229094044, 26.31794645984992442, -15.02800557801903381 ) ) ;
#134 = AXIS2_PLACEMENT_3D ( 'NONE', #23, #385, #394 ) ;
#135 = CARTESIAN_POINT ( 'NONE',  ( -22.87501038207020443, 33.47028930520095003, 10.08812750138906544 ) ) ;
#136 = CARTESIAN_POINT ( 'NONE',  ( 22.91287847477937945, 34.22846348500006286, -9.999999999984423127 ) ) ;
#137 = ORIENTED_EDGE ( 'NONE', *, *, #459, .T. ) ;
#138 = CARTESIAN_POINT ( 'NONE',  ( 22.91287847477954287, 125.0000000000070770, -9.999999999919285898 ) ) ;
#139 = CARTESIAN_POINT ( 'NONE',  ( 22.59176297337934969, 31.28834271457751370, 10.70662779497549799 ) ) ;
#140 = VERTEX_POINT ( 'NONE', #157 ) ;
#141 = LINE ( 'NONE', #550, #125 ) ;
#142 = CARTESIAN_POINT ( 'NONE',  ( -4.043732256792657004E-13, -100.0000000000000711, -8.072565511017815165E-11 ) ) ;
#143 = ORIENTED_EDGE ( 'NONE', *, *, #348, .T. ) ;
#144 = EDGE_CURVE ( 'NONE', #321, #629, #366, .T. ) ;
#145 = PLANE ( 'NONE',  #507 ) ;
#146 = AXIS2_PLACEMENT_3D ( 'NONE', #542, #76, #174 ) ;
#147 = CARTESIAN_POINT ( 'NONE',  ( 22.71035499989813289, 32.00122356782876665, 10.45272255271811801 ) ) ;
#148 = EDGE_LOOP ( 'NONE', ( #36, #94, #258, #297, #21, #528, #634, #198, #42, #455 ) ) ;
#149 = DIRECTION ( 'NONE',  ( 1.000000000000000000, -3.469446951953614189E-15, -2.461246024289556833E-27 ) ) ;
#150 = VERTEX_POINT ( 'NONE', #53 ) ;
#151 = DIRECTION ( 'NONE',  ( -1.000000000000000000, 3.430248998885768148E-15, 2.461271553610160053E-27 ) ) ;
#152 = CARTESIAN_POINT ( 'NONE',  ( 20.57467106829688674, 26.84335771783615598, 14.20546664221712518 ) ) ;
#153 = CYLINDRICAL_SURFACE ( 'NONE', #17, 10.00000000000000178 ) ;
#154 = VECTOR ( 'NONE', #224, 1000.000000000000000 ) ;
#155 = AXIS2_PLACEMENT_3D ( 'NONE', #293, #40, #499 ) ;
#156 = CARTESIAN_POINT ( 'NONE',  ( 0.000000000000000000, 74.99999999999279510, 10.00000000004484235 ) ) ;
#157 = CARTESIAN_POINT ( 'NONE',  ( 22.91287847477954287, 125.0000000000070770, -9.999999999919285898 ) ) ;
#158 = EDGE_CURVE ( 'NONE', #654, #370, #183, .T. ) ;
#159 = FILL_AREA_STYLE ('',( #95 ) ) ;
#160 = VERTEX_POINT ( 'NONE', #225 ) ;
#161 = CARTESIAN_POINT ( 'NONE',  ( 0.000000000000000000, 75.00000000000714806, -9.999999999955161201 ) ) ;
#162 = EDGE_CURVE ( 'NONE', #513, #488, #238, .T. ) ;
#163 = CARTESIAN_POINT ( 'NONE',  ( 17.85739381281544880, 25.29775834432311399, 17.51173008778449258 ) ) ;
#164 = FACE_OUTER_BOUND ( 'NONE', #206, .T. ) ;
#165 = AXIS2_PLACEMENT_3D ( 'NONE', #508, #500, #257 ) ;
#166 = VECTOR ( 'NONE', #283, 1000.000000000000000 ) ;
#167 = AXIS2_PLACEMENT_3D ( 'NONE', #55, #217, #525 ) ;
#168 = DIRECTION ( 'NONE',  ( 0.000000000000000000, -7.175197935804787021E-13, 1.000000000000000000 ) ) ;
#169 = ORIENTED_EDGE ( 'NONE', *, *, #396, .F. ) ;
#170 = DIRECTION ( 'NONE',  ( 3.430248998885765387E-15, 1.000000000000000000, 7.175197935804787021E-13 ) ) ;
#171 = LINE ( 'NONE', #129, #56 ) ;
#172 = ORIENTED_EDGE ( 'NONE', *, *, #536, .T. ) ;
#173 = CARTESIAN_POINT ( 'NONE',  ( -4.287811248607207479E-13, -100.0000000000000711, -8.072565511017815165E-11 ) ) ;
#174 = DIRECTION ( 'NONE',  ( 1.000000000000000000, -3.430248998885766964E-15, -2.461271553610159335E-27 ) ) ;
#175 = EDGE_CURVE ( 'NONE', #88, #476, #79, .T. ) ;
#176 = ORIENTED_EDGE ( 'NONE', *, *, #406, .T. ) ;
#177 = LINE ( 'NONE', #533, #495 ) ;
#178 =( BOUNDED_SURFACE ( )  B_SPLINE_SURFACE ( 3, 3, ( 
 ( #181, #648, #279, #186 ),
 ( #118, #447, #658, #349 ),
 ( #652, #295, #37, #304 ),
 ( #256, #132, #408, #89 ) ),
 .UNSPECIFIED., .F., .F., .F. ) 
 B_SPLINE_SURFACE_WITH_KNOTS ( ( 4, 4 ),
 ( 4, 4 ),
 ( 0.000000000000000000, 1.000000000000000000 ),
 ( 0.000000000000000000, 1.000000000000000000 ),
 .UNSPECIFIED. ) 
 GEOMETRIC_REPRESENTATION_ITEM ( )  RATIONAL_B_SPLINE_SURFACE ( (
 ( 1.000000000000000000, 0.3333333333333334259, 0.3333333333333334259, 1.000000000000000000),
 ( 0.8047378541243628280, 0.2682459513747876834, 0.2682459513747876834, 0.8047378541243628280),
 ( 0.8047378541243628280, 0.2682459513747876834, 0.2682459513747876834, 0.8047378541243628280),
 ( 1.000000000000000000, 0.3333333333333334259, 0.3333333333333334259, 1.000000000000000000) ) ) 
 REPRESENTATION_ITEM ( '' )  SURFACE ( )  );
#179 = CARTESIAN_POINT ( 'NONE',  ( -19.33742586661121265, 25.87530874415332249, -15.86053888644019594 ) ) ;
#180 = ORIENTED_EDGE ( 'NONE', *, *, #396, .T. ) ;
#181 = CARTESIAN_POINT ( 'NONE',  ( -50.00000000000051870, -49.99999999999972289, -4.485578866514971385E-11 ) ) ;
#182 = PLANE ( 'NONE',  #146 ) ;
#183 = B_SPLINE_CURVE_WITH_KNOTS ( 'NONE', 3,
 ( #392, #292, #20, #540, #28, #187, #336, #65, #534, #81, #649, #642, #71, #284, #597, #131, #133, #179, #16, #487, #433, #497, #74, #389 ),
 .UNSPECIFIED., .F., .F.,
 ( 4, 2, 2, 2, 2, 2, 2, 2, 2, 2, 2, 4 ),
 ( 0.000000000000000000, 0.002277627136900157827, 0.003416440705350238475, 0.004555254273800318256, 0.005694067842250388929, 0.006832881410700459603, 0.009110508547600600082, 0.01024932211605066555, 0.01138813568450073102, 0.01366576282140086369, 0.01594338995830099984, 0.01822101709520113078 ),
 .UNSPECIFIED. ) ;
#184 = EDGE_CURVE ( 'NONE', #150, #660, #289, .T. ) ;
#185 = EDGE_CURVE ( 'NONE', #140, #321, #436, .T. ) ;
#186 = CARTESIAN_POINT ( 'NONE',  ( 50.00000000000000000, -50.00000000000006395, -4.483741896316271991E-11 ) ) ;
#187 = CARTESIAN_POINT ( 'NONE',  ( -22.59176297337930706, 31.28834271459303551, -10.70662779494854533 ) ) ;
#188 = CARTESIAN_POINT ( 'NONE',  ( -22.35992858663842497, 30.26669223908682582, 11.18332432235365026 ) ) ;
#189 = CARTESIAN_POINT ( 'NONE',  ( 50.00000000000000000, -79.28932188127377856, -100.0000000000665636 ) ) ;
#190 = VECTOR ( 'NONE', #216, 1000.000000000000000 ) ;
#191 = CIRCLE ( 'NONE', #26, 50.00000000000026290 ) ;
#192 = CARTESIAN_POINT ( 'NONE',  ( 1.470826024294600376E-28, 25.00000000001434586, -19.99999999999103650 ) ) ;
#193 = CARTESIAN_POINT ( 'NONE',  ( 22.52043955241055073, 30.93381744107901099, -10.85647049754981808 ) ) ;
#194 = ORIENTED_EDGE ( 'NONE', *, *, #106, .F. ) ;
#195 = APPLICATION_CONTEXT ( 'automotive_design' ) ;
#196 = CARTESIAN_POINT ( 'NONE',  ( -17.31761082042026700, 25.17942512980091863, 18.04628363364640720 ) ) ;
#197 = CARTESIAN_POINT ( 'NONE',  ( -50.00000000000051870, -49.99999999999972289, -4.485578866514969446E-11 ) ) ;
#198 = ORIENTED_EDGE ( 'NONE', *, *, #576, .T. ) ;
#199 = EDGE_CURVE ( 'NONE', #85, #88, #171, .T. ) ;
#200 = CARTESIAN_POINT ( 'NONE',  ( -19.97787803032764486, 26.31481471989717491, 15.03353059811916381 ) ) ;
#201 = CARTESIAN_POINT ( 'NONE',  ( 22.26867111368015628, 29.94338858845204143, -11.36471361678963277 ) ) ;
#202 = EDGE_LOOP ( 'NONE', ( #564, #137 ) ) ;
#203 = CIRCLE ( 'NONE', #78, 50.00000000000026290 ) ;
#204 =( GEOMETRIC_REPRESENTATION_CONTEXT ( 3 ) GLOBAL_UNCERTAINTY_ASSIGNED_CONTEXT ( ( #372 ) ) GLOBAL_UNIT_ASSIGNED_CONTEXT ( ( #210, #613, #414 ) ) REPRESENTATION_CONTEXT ( 'NONE', 'WORKASPACE' ) );
#205 = CARTESIAN_POINT ( 'NONE',  ( -50.00000000000050449, -49.99999999992797228, -100.0000000000453610 ) ) ;
#206 = EDGE_LOOP ( 'NONE', ( #172, #405 ) ) ;
#207 = APPLICATION_PROTOCOL_DEFINITION ( 'draft international standard', 'automotive_design', 1998, #195 ) ;
#208 = CARTESIAN_POINT ( 'NONE',  ( 21.95089266265164696, 29.03248567419670678, 11.96765633127176365 ) ) ;
#209 = CARTESIAN_POINT ( 'NONE',  ( 0.000000000000000000, 75.00000000000714806, -9.999999999955161201 ) ) ;
#210 =( LENGTH_UNIT ( ) NAMED_UNIT ( * ) SI_UNIT ( .MILLI., .METRE. ) );
#211 = CARTESIAN_POINT ( 'NONE',  ( 22.91287847477954287, 124.9999999999927240, 10.00000000008071943 ) ) ;
#212 = EDGE_CURVE ( 'NONE', #140, #355, #440, .T. ) ;
#213 = CARTESIAN_POINT ( 'NONE',  ( 22.91287847477954287, 124.9999999999927240, 10.00000000008071943 ) ) ;
#214 = DIRECTION ( 'NONE',  ( 3.430248998885765387E-15, 1.000000000000000000, 7.175197935804787021E-13 ) ) ;
#215 = ORIENTED_EDGE ( 'NONE', *, *, #212, .T. ) ;
#216 = DIRECTION ( 'NONE',  ( 3.430248998885765387E-15, 1.000000000000000000, 7.175197935804787021E-13 ) ) ;
#217 = DIRECTION ( 'NONE',  ( 3.430248998885765387E-15, 1.000000000000000000, 7.175197935804787021E-13 ) ) ;
#218 = ADVANCED_FACE ( 'NONE', ( #122 ), #546, .F. ) ;
#219 = PLANE ( 'NONE',  #115 ) ;
#220 = CARTESIAN_POINT ( 'NONE',  ( -22.91287847477885720, 124.9999999999928946, 10.00000000008071943 ) ) ;
#221 = ORIENTED_EDGE ( 'NONE', *, *, #494, .T. ) ;
#222 = PRODUCT_RELATED_PRODUCT_CATEGORY ( 'part', '', ( #262 ) ) ;
#223 = UNCERTAINTY_MEASURE_WITH_UNIT (LENGTH_MEASURE( 1.000000000000000082E-05 ), #110, 'distance_accuracy_value', 'NONE');
#224 = DIRECTION ( 'NONE',  ( 3.430248998885765387E-15, 1.000000000000000000, 7.175197935804787021E-13 ) ) ;
#225 = CARTESIAN_POINT ( 'NONE',  ( -22.91287847477916628, 34.99999999999288747, 10.00000000001614175 ) ) ;
#226 = AXIS2_PLACEMENT_3D ( 'NONE', #213, #63, #277 ) ;
#227 = ORIENTED_EDGE ( 'NONE', *, *, #605, .T. ) ;
#228 = DIRECTION ( 'NONE',  ( -0.000000000000000000, -7.175197935804787021E-13, 1.000000000000000000 ) ) ;
#229 = ADVANCED_FACE ( 'NONE', ( #236, #230 ), #482, .F. ) ;
#230 = FACE_OUTER_BOUND ( 'NONE', #202, .T. ) ;
#231 = ORIENTED_EDGE ( 'NONE', *, *, #406, .F. ) ;
#232 = CYLINDRICAL_SURFACE ( 'NONE', #397, 25.00000000000013145 ) ;
#233 = CARTESIAN_POINT ( 'NONE',  ( 22.91287847477954287, 125.0000000000070770, -9.999999999919285898 ) ) ;
#234 = ORIENTED_EDGE ( 'NONE', *, *, #7, .T. ) ;
#235 = CARTESIAN_POINT ( 'NONE',  ( 50.00000000000000000, -50.00000000000006395, -4.484966543115420645E-11 ) ) ;
#236 = FACE_BOUND ( 'NONE', #665, .T. ) ;
#237 = EDGE_CURVE ( 'NONE', #629, #160, #331, .T. ) ;
#238 = CIRCLE ( 'NONE', #356, 25.00000000000000000 ) ;
#239 = ADVANCED_FACE ( 'NONE', ( #638 ), #182, .T. ) ;
#240 = CARTESIAN_POINT ( 'NONE',  ( -25.00000000000051159, -49.99999999999989342, -1.417516827361819952E-11 ) ) ;
#241 = DIRECTION ( 'NONE',  ( 3.430248998885765387E-15, 1.000000000000000000, 7.175197935804787021E-13 ) ) ;
#242 = EDGE_CURVE ( 'NONE', #383, #530, #645, .T. ) ;
#243 = CARTESIAN_POINT ( 'NONE',  ( -16.19909563521390083, 25.03150673617152933, 19.05668644110932064 ) ) ;
#244 = CARTESIAN_POINT ( 'NONE',  ( 17.85006891456130518, 25.29560880327481698, -17.51938513530560826 ) ) ;
#245 = CARTESIAN_POINT ( 'NONE',  ( -22.91287847477919826, 24.99999999999285905, 10.00000000000896705 ) ) ;
#246 = DIRECTION ( 'NONE',  ( 3.430248998885765387E-15, 1.000000000000000000, 7.175197935804787021E-13 ) ) ;
#247 = ORIENTED_EDGE ( 'NONE', *, *, #290, .T. ) ;
#248 = CIRCLE ( 'NONE', #5, 25.00000000000025935 ) ;
#249 = CARTESIAN_POINT ( 'NONE',  ( -15.00000000000000888, 24.99999999998573941, 20.00000000000896705 ) ) ;
#250 = CARTESIAN_POINT ( 'NONE',  ( 50.00000000000001421, -49.99999999992831334, -100.0000000000453610 ) ) ;
#251 = EDGE_CURVE ( 'NONE', #530, #10, #104, .T. ) ;
#252 = ORIENTED_EDGE ( 'NONE', *, *, #185, .T. ) ;
#253 = FACE_OUTER_BOUND ( 'NONE', #120, .T. ) ;
#254 = CARTESIAN_POINT ( 'NONE',  ( 20.75723747140106568, 27.04038870232429304, -13.93689095808840328 ) ) ;
#255 = VERTEX_POINT ( 'NONE', #93 ) ;
#256 = CARTESIAN_POINT ( 'NONE',  ( -4.531890240421761992E-13, -100.0000000000001421, -8.072565511017821628E-11 ) ) ;
#257 = DIRECTION ( 'NONE',  ( 1.000000000000000000, -3.469446951953614189E-15, -2.461246024289556833E-27 ) ) ;
#258 = ORIENTED_EDGE ( 'NONE', *, *, #421, .T. ) ;
#259 = CIRCLE ( 'NONE', #643, 15.00000000000000000 ) ;
#260 = EDGE_CURVE ( 'NONE', #150, #434, #557, .T. ) ;
#261 = APPLICATION_PROTOCOL_DEFINITION ( 'draft international standard', 'automotive_design', 1998, #50 ) ;
#262 = PRODUCT ( 'N504_structure', 'N504_structure', '', ( #4 ) ) ;
#263 = VECTOR ( 'NONE', #647, 1000.000000000000000 ) ;
#264 = CARTESIAN_POINT ( 'NONE',  ( -22.91287847477919826, 25.00000000000729017, -9.999999999991032951 ) ) ;
#265 = ORIENTED_EDGE ( 'NONE', *, *, #199, .F. ) ;
#266 = CARTESIAN_POINT ( 'NONE',  ( -29.28932188134591641, -100.0000000000001990, -8.072924201760735741E-11 ) ) ;
#267 = EDGE_LOOP ( 'NONE', ( #18, #126, #452, #584 ) ) ;
#268 = CARTESIAN_POINT ( 'NONE',  ( -22.91287847477916628, 35.00000000000724043, -9.999999999984190424 ) ) ;
#269 = FACE_BOUND ( 'NONE', #360, .T. ) ;
#270 = VECTOR ( 'NONE', #369, 1000.000000000000000 ) ;
#271 = CARTESIAN_POINT ( 'NONE',  ( 22.06631634913448536, 29.33269199354165480, 11.75274981886310321 ) ) ;
#272 = ORIENTED_EDGE ( 'NONE', *, *, #446, .T. ) ;
#273 = ADVANCED_FACE ( 'NONE', ( #556 ), #505, .T. ) ;
#274 = ORIENTED_EDGE ( 'NONE', *, *, #379, .T. ) ;
#275 = CARTESIAN_POINT ( 'NONE',  ( -2.572686749164319035E-13, -49.99999999999989342, -4.484966543115408367E-11 ) ) ;
#276 = CARTESIAN_POINT ( 'NONE',  ( 21.57362388879413473, 28.18874439511880681, 12.64297035141308534 ) ) ;
#277 = DIRECTION ( 'NONE',  ( 1.000000000000000000, 0.000000000000000000, 0.000000000000000000 ) ) ;
#278 = EDGE_LOOP ( 'NONE', ( #215, #516, #280, #332 ) ) ;
#279 = CARTESIAN_POINT ( 'NONE',  ( 49.99999999999997868, -50.00000000007182877, 99.99999999995566213 ) ) ;
#280 = ORIENTED_EDGE ( 'NONE', *, *, #543, .F. ) ;
#281 = ORIENTED_EDGE ( 'NONE', *, *, #407, .T. ) ;
#282 = AXIS2_PLACEMENT_3D ( 'NONE', #541, #339, #485 ) ;
#283 = DIRECTION ( 'NONE',  ( -1.000000000000000000, 3.430248998885766964E-15, 2.461271553610159335E-27 ) ) ;
#284 = CARTESIAN_POINT ( 'NONE',  ( -20.75929957341899978, 27.04267795596743795, -13.93383493757871783 ) ) ;
#285 = ORIENTED_EDGE ( 'NONE', *, *, #446, .F. ) ;
#286 = DIRECTION ( 'NONE',  ( 3.430248998885765387E-15, 1.000000000000000000, 7.175197935804787021E-13 ) ) ;
#287 = DIRECTION ( 'NONE',  ( 3.430248998885765387E-15, 1.000000000000000000, 7.175197935804787021E-13 ) ) ;
#288 = CARTESIAN_POINT ( 'NONE',  ( -2.572686749164319035E-13, -49.99999999999989342, -4.484966543115408367E-11 ) ) ;
#289 = LINE ( 'NONE', #636, #518 ) ;
#290 = EDGE_CURVE ( 'NONE', #160, #660, #35, .T. ) ;
#291 = LINE ( 'NONE', #130, #519 ) ;
#292 = CARTESIAN_POINT ( 'NONE',  ( -22.91287847477917339, 34.22979435001455073, -9.999999999984741095 ) ) ;
#293 = CARTESIAN_POINT ( 'NONE',  ( 1.470826024294600376E-28, 24.99999999999999289, 8.964319087381743660E-12 ) ) ;
#294 = CARTESIAN_POINT ( 'NONE',  ( 17.31761082042027056, 25.17942512982669356, -18.04628363362821730 ) ) ;
#295 = CARTESIAN_POINT ( 'NONE',  ( -29.28932188134592352, -100.0000000000422489, 58.57864376261023409 ) ) ;
#296 = CARTESIAN_POINT ( 'NONE',  ( 22.91287847477923378, 34.22979435000003434, 10.00000000001591616 ) ) ;
#297 = ORIENTED_EDGE ( 'NONE', *, *, #260, .F. ) ;
#298 = EDGE_CURVE ( 'NONE', #306, #355, #402, .T. ) ;
#299 = DIRECTION ( 'NONE',  ( 0.000000000000000000, -7.175197935804788030E-13, 1.000000000000000000 ) ) ;
#300 = CARTESIAN_POINT ( 'NONE',  ( 15.00000000000000888, 25.00000000001433875, -19.99999999999103650 ) ) ;
#301 = ORIENTED_EDGE ( 'NONE', *, *, #582, .T. ) ;
#302 = VECTOR ( 'NONE', #151, 1000.000000000000000 ) ;
#303 = PRESENTATION_LAYER_ASSIGNMENT (  '', '', ( #590 ) ) ;
#304 = CARTESIAN_POINT ( 'NONE',  ( 29.28932188134506021, -100.0000000000003979, -8.071848129532014080E-11 ) ) ;
#305 = CARTESIAN_POINT ( 'NONE',  ( 18.60793477367401394, 25.55591061413920784, -16.69979692696605156 ) ) ;
#306 = VERTEX_POINT ( 'NONE', #560 ) ;
#307 = CARTESIAN_POINT ( 'NONE',  ( -21.94606981415770974, 29.02073785510134130, 11.97647981199454215 ) ) ;
#308 = CARTESIAN_POINT ( 'NONE',  ( 15.61303328467574225, 25.00000000001396572, -19.54022503648423736 ) ) ;
#309 = ORIENTED_EDGE ( 'NONE', *, *, #69, .T. ) ;
#310 = EDGE_CURVE ( 'NONE', #660, #488, #578, .T. ) ;
#311 = CARTESIAN_POINT ( 'NONE',  ( 20.18638650265014078, 26.48142243016464548, 14.75202264292541443 ) ) ;
#312 = ORIENTED_EDGE ( 'NONE', *, *, #543, .T. ) ;
#313 = COLOUR_RGB ( '',0.7921568627450980005, 0.8196078431372548767, 0.9333333333333333481 ) ;
#314 = MANIFOLD_SOLID_BREP ( 'Body-Move/Copy1', #388 ) ;
#315 = AXIS2_PLACEMENT_3D ( 'NONE', #220, #631, #532 ) ;
#316 = CARTESIAN_POINT ( 'NONE',  ( 22.27187923204701647, 29.95441247917749550, 11.35838197094902746 ) ) ;
#317 = FACE_OUTER_BOUND ( 'NONE', #580, .T. ) ;
#318 = SHAPE_DEFINITION_REPRESENTATION ( #501, #98 ) ;
#319 = SURFACE_STYLE_FILL_AREA ( #159 ) ;
#320 = DIRECTION ( 'NONE',  ( -0.000000000000000000, -7.175197935804787021E-13, 1.000000000000000000 ) ) ;
#321 = VERTEX_POINT ( 'NONE', #54 ) ;
#322 = EDGE_LOOP ( 'NONE', ( #169, #438, #221 ) ) ;
#323 = CIRCLE ( 'NONE', #103, 15.00000000000000000 ) ;
#324 = DIRECTION ( 'NONE',  ( 1.000000000000000000, -3.430248998885767753E-15, -2.461271553610160053E-27 ) ) ;
#325 = ORIENTED_EDGE ( 'NONE', *, *, #467, .T. ) ;
#326 = ORIENTED_EDGE ( 'NONE', *, *, #593, .F. ) ;
#327 = FACE_OUTER_BOUND ( 'NONE', #267, .T. ) ;
#328 = ORIENTED_EDGE ( 'NONE', *, *, #162, .T. ) ;
#329 = ORIENTED_EDGE ( 'NONE', *, *, #237, .T. ) ;
#330 = LINE ( 'NONE', #435, #154 ) ;
#331 = LINE ( 'NONE', #595, #462 ) ;
#332 = ORIENTED_EDGE ( 'NONE', *, *, #185, .F. ) ;
#333 =( GEOMETRIC_REPRESENTATION_CONTEXT ( 3 ) GLOBAL_UNCERTAINTY_ASSIGNED_CONTEXT ( ( #223 ) ) GLOBAL_UNIT_ASSIGNED_CONTEXT ( ( #110, #470, #526 ) ) REPRESENTATION_CONTEXT ( 'NONE', 'WORKASPACE' ) );
#334 = CARTESIAN_POINT ( 'NONE',  ( 0.000000000000000000, 24.99999999999995381, 8.964319087381711348E-12 ) ) ;
#335 = VECTOR ( 'NONE', #214, 1000.000000000000000 ) ;
#336 = CARTESIAN_POINT ( 'NONE',  ( -22.52251699277885066, 30.94357174242903241, -10.85215055983770860 ) ) ;
#337 = CARTESIAN_POINT ( 'NONE',  ( 0.000000000000000000, 75.00000000000714806, -9.999999999955161201 ) ) ;
#338 = DIRECTION ( 'NONE',  ( -0.000000000000000000, -7.175197935804787021E-13, 1.000000000000000000 ) ) ;
#339 = DIRECTION ( 'NONE',  ( 1.000000000000000000, -3.430248998885767359E-15, -2.461271553610159694E-27 ) ) ;
#340 = DIRECTION ( 'NONE',  ( -1.000000000000000000, 3.430248998885766964E-15, 2.461271553610159335E-27 ) ) ;
#341 = CARTESIAN_POINT ( 'NONE',  ( -18.85442750627083441, 25.65761888203983432, 16.42080910448834175 ) ) ;
#342 = CARTESIAN_POINT ( 'NONE',  ( 22.91287847477954287, 125.0000000000070770, -9.999999999919285898 ) ) ;
#343 = CIRCLE ( 'NONE', #354, 25.00000000000000000 ) ;
#344 = AXIS2_PLACEMENT_3D ( 'NONE', #124, #538, #149 ) ;
#345 = CARTESIAN_POINT ( 'NONE',  ( -19.32435477421132930, 25.88992982810882637, 15.86511017281885039 ) ) ;
#346 = CARTESIAN_POINT ( 'NONE',  ( 22.70811802772240284, 31.98608046457549037, -10.45757799520777631 ) ) ;
#347 = ORIENTED_EDGE ( 'NONE', *, *, #242, .T. ) ;
#348 = EDGE_CURVE ( 'NONE', #504, #355, #12, .T. ) ;
#349 = CARTESIAN_POINT ( 'NONE',  ( 50.00000000000003553, -79.28932188134552916, -6.585308715357789626E-11 ) ) ;
#350 = CARTESIAN_POINT ( 'NONE',  ( 22.52251699277888619, 30.94357174241329389, 10.85215055986416388 ) ) ;
#351 = ORIENTED_EDGE ( 'NONE', *, *, #421, .F. ) ;
#352 = CARTESIAN_POINT ( 'NONE',  ( -15.61303328467573870, 24.99999999998602362, 19.54022503650216080 ) ) ;
#353 = CARTESIAN_POINT ( 'NONE',  ( 22.91287847477923378, 34.99999999999273115, 10.00000000001614175 ) ) ;
#354 = AXIS2_PLACEMENT_3D ( 'NONE', #537, #496, #489 ) ;
#355 = VERTEX_POINT ( 'NONE', #365 ) ;
#356 = AXIS2_PLACEMENT_3D ( 'NONE', #25, #287, #491 ) ;
#357 = CARTESIAN_POINT ( 'NONE',  ( -15.00000000000000000, 75.00000000000714806, -9.999999999955161201 ) ) ;
#358 = ADVANCED_FACE ( 'NONE', ( #2 ), #425, .F. ) ;
#359 = CARTESIAN_POINT ( 'NONE',  ( 22.36257499133404991, 30.27660401966571868, 11.17802233049001259 ) ) ;
#360 = EDGE_LOOP ( 'NONE', ( #231, #520 ) ) ;
#361 = CARTESIAN_POINT ( 'NONE',  ( 29.28932188134502823, -100.0000000000003126, -8.072565511017831967E-11 ) ) ;
#362 = ORIENTED_EDGE ( 'NONE', *, *, #582, .F. ) ;
#363 = FACE_OUTER_BOUND ( 'NONE', #558, .T. ) ;
#364 = DIRECTION ( 'NONE',  ( -1.000000000000000000, 3.430248998885767359E-15, 2.461271553610159694E-27 ) ) ;
#365 = CARTESIAN_POINT ( 'NONE',  ( 22.91287847477923378, 35.00000000000708411, -9.999999999983861798 ) ) ;
#366 = LINE ( 'NONE', #108, #429 ) ;
#367 = ADVANCED_FACE ( 'NONE', ( #522 ), #219, .T. ) ;
#368 = SURFACE_STYLE_USAGE ( .BOTH. , #52 ) ;
#369 = DIRECTION ( 'NONE',  ( 0.000000000000000000, 7.175197935804787021E-13, -1.000000000000000000 ) ) ;
#370 = VERTEX_POINT ( 'NONE', #524 ) ;
#371 = CARTESIAN_POINT ( 'NONE',  ( -22.91287847477885720, 124.9999999999928946, 10.00000000008071943 ) ) ;
#372 = UNCERTAINTY_MEASURE_WITH_UNIT (LENGTH_MEASURE( 1.000000000000000082E-05 ), #210, 'distance_accuracy_value', 'NONE');
#373 = DIRECTION ( 'NONE',  ( -1.000000000000000000, 3.430248998885765781E-15, 2.461271553610158618E-27 ) ) ;
#374 = DIRECTION ( 'NONE',  ( 1.000000000000000000, -3.430248998885766964E-15, -2.461271553610159335E-27 ) ) ;
#375 = ORIENTED_EDGE ( 'NONE', *, *, #467, .F. ) ;
#376 = AXIS2_PLACEMENT_3D ( 'NONE', #628, #373, #577 ) ;
#377 = DIRECTION ( 'NONE',  ( 3.430248998885767753E-15, 1.000000000000000000, 7.175197935804787021E-13 ) ) ;
#378 = AXIS2_PLACEMENT_3D ( 'NONE', #469, #13, #374 ) ;
#379 = EDGE_CURVE ( 'NONE', #629, #112, #618, .T. ) ;
#380 = ORIENTED_EDGE ( 'NONE', *, *, #398, .T. ) ;
#381 = DIRECTION ( 'NONE',  ( 1.000000000000000000, -3.469446951953596045E-15, -2.461246024289543919E-27 ) ) ;
#382 = CARTESIAN_POINT ( 'NONE',  ( 0.000000000000000000, 75.00000000000714806, -9.999999999955161201 ) ) ;
#383 = VERTEX_POINT ( 'NONE', #264 ) ;
#384 = CARTESIAN_POINT ( 'NONE',  ( 1.470826024294600376E-28, 24.99999999999999289, 8.964319087381743660E-12 ) ) ;
#385 = DIRECTION ( 'NONE',  ( 0.000000000000000000, -7.175197935804787021E-13, 1.000000000000000000 ) ) ;
#386 = EDGE_LOOP ( 'NONE', ( #390, #552, #111, #375 ) ) ;
#387 = CARTESIAN_POINT ( 'NONE',  ( -15.00000000000000000, 75.00000000000714806, -9.999999999955161201 ) ) ;
#388 = CLOSED_SHELL ( 'NONE', ( #521, #218, #490, #498, #82, #239, #464, #229, #273, #569, #73, #116, #358, #553, #367, #614, #127, #415 ) ) ;
#389 = CARTESIAN_POINT ( 'NONE',  ( -15.00000000000000888, 25.00000000001444178, -19.99999999999103650 ) ) ;
#390 = ORIENTED_EDGE ( 'NONE', *, *, #69, .F. ) ;
#391 = LINE ( 'NONE', #387, #431 ) ;
#392 = CARTESIAN_POINT ( 'NONE',  ( -22.91287847477916628, 35.00000000000724043, -9.999999999984190424 ) ) ;
#393 = DIRECTION ( 'NONE',  ( -1.000000000000000000, -0.000000000000000000, 0.000000000000000000 ) ) ;
#394 = DIRECTION ( 'NONE',  ( -1.000000000000000000, 0.000000000000000000, 0.000000000000000000 ) ) ;
#395 = CARTESIAN_POINT ( 'NONE',  ( -22.75751032677904817, 32.35286391319011301, 10.34914623738564465 ) ) ;
#396 = EDGE_CURVE ( 'NONE', #39, #410, #109, .T. ) ;
#397 = AXIS2_PLACEMENT_3D ( 'NONE', #128, #62, #381 ) ;
#398 = EDGE_CURVE ( 'NONE', #112, #140, #566, .T. ) ;
#399 = LINE ( 'NONE', #664, #302 ) ;
#400 = CARTESIAN_POINT ( 'NONE',  ( 20.18227221730235854, 26.47793448046270015, -14.75766441273088958 ) ) ;
#401 = ORIENTED_EDGE ( 'NONE', *, *, #441, .T. ) ;
#402 = B_SPLINE_CURVE_WITH_KNOTS ( 'NONE', 3,
 ( #300, #308, #90, #294, #244, #305, #656, #451, #38, #551, #400, #511, #254, #457, #659, #448, #651, #201, #653, #193, #409, #346, #515, #600, #136, #84 ),
 .UNSPECIFIED., .F., .F.,
 ( 4, 2, 2, 2, 2, 2, 2, 2, 2, 2, 2, 2, 4 ),
 ( 4.906538933386795085E-18, 0.002271251611878887574, 0.004542503223757770811, 0.005678129029697213080, 0.006813754835636657084, 0.007949380641576100220, 0.009085006447515543357, 0.01135625805939443830, 0.01249188386533388491, 0.01362750967127332978, 0.01476313547721278333, 0.01589876128315223514, 0.01817001289503112141 ),
 .UNSPECIFIED. ) ;
#403 = CARTESIAN_POINT ( 'NONE',  ( -19.54891974181874659, 26.02080700682409642, 15.58725087265766973 ) ) ;
#404 = CARTESIAN_POINT ( 'NONE',  ( -29.28932188134588444, -99.99999999995807798, -58.57864376277164098 ) ) ;
#405 = ORIENTED_EDGE ( 'NONE', *, *, #574, .T. ) ;
#406 = EDGE_CURVE ( 'NONE', #476, #88, #259, .T. ) ;
#407 = EDGE_CURVE ( 'NONE', #434, #504, #343, .T. ) ;
#408 = CARTESIAN_POINT ( 'NONE',  ( -4.043732256792964976E-13, -100.0000000000001279, -8.067683931181527397E-11 ) ) ;
#409 = CARTESIAN_POINT ( 'NONE',  ( 22.58968930936041275, 31.27763671505759291, -10.71099896337390689 ) ) ;
#410 = VERTEX_POINT ( 'NONE', #22 ) ;
#411 = CARTESIAN_POINT ( 'NONE',  ( -2.572686749164321559E-13, -49.99999999999997158, -4.484966543115414829E-11 ) ) ;
#412 = CARTESIAN_POINT ( 'NONE',  ( -50.00000000000069633, -79.28932188127340908, -100.0000000000665636 ) ) ;
#413 = ORIENTED_EDGE ( 'NONE', *, *, #379, .F. ) ;
#414 =( NAMED_UNIT ( * ) SI_UNIT ( $, .STERADIAN. ) SOLID_ANGLE_UNIT ( ) );
#415 = ADVANCED_FACE ( 'NONE', ( #327 ), #123, .F. ) ;
#416 = CARTESIAN_POINT ( 'NONE',  ( 15.00000000000000888, 24.99999999998563638, 20.00000000000896705 ) ) ;
#417 = CARTESIAN_POINT ( 'NONE',  ( 22.91287847477954287, 124.9999999999927240, 10.00000000008071943 ) ) ;
#418 = CYLINDRICAL_SURFACE ( 'NONE', #484, 15.00000000000000000 ) ;
#419 = DIRECTION ( 'NONE',  ( 0.000000000000000000, 7.175197935804787021E-13, -1.000000000000000000 ) ) ;
#420 = FACE_OUTER_BOUND ( 'NONE', #601, .T. ) ;
#421 = EDGE_CURVE ( 'NONE', #568, #434, #291, .T. ) ;
#422 = AXIS2_PLACEMENT_3D ( 'NONE', #334, #286, #581 ) ;
#423 = CARTESIAN_POINT ( 'NONE',  ( 18.86156530485204286, 25.64339366818634147, 16.42524151128944965 ) ) ;
#424 = ORIENTED_EDGE ( 'NONE', *, *, #348, .F. ) ;
#425 = PLANE ( 'NONE',  #376 ) ;
#426 = DIRECTION ( 'NONE',  ( -1.000000000000000000, 0.000000000000000000, 0.000000000000000000 ) ) ;
#427 = CARTESIAN_POINT ( 'NONE',  ( 20.75929957341899978, 27.04267795594729051, 13.93383493759958647 ) ) ;
#428 = DIRECTION ( 'NONE',  ( -3.430248998885765387E-15, -1.000000000000000000, -7.175197935804787021E-13 ) ) ;
#429 = VECTOR ( 'NONE', #320, 1000.000000000000000 ) ;
#430 = ORIENTED_EDGE ( 'NONE', *, *, #471, .T. ) ;
#431 = VECTOR ( 'NONE', #228, 1000.000000000000000 ) ;
#432 = CARTESIAN_POINT ( 'NONE',  ( 15.00000000000000888, 24.99999999998563638, 20.00000000000896705 ) ) ;
#433 = CARTESIAN_POINT ( 'NONE',  ( -17.32601321129848060, 25.18093030598756599, -18.03830236947329269 ) ) ;
#434 = VERTEX_POINT ( 'NONE', #481 ) ;
#435 = CARTESIAN_POINT ( 'NONE',  ( -22.91287847477919826, 25.00000000000729017, -9.999999999991032951 ) ) ;
#436 = LINE ( 'NONE', #233, #45 ) ;
#437 =( BOUNDED_CURVE ( )  B_SPLINE_CURVE ( 3, ( #235, #637, #439, #173 ),
 .UNSPECIFIED., .F., .F. ) 
 B_SPLINE_CURVE_WITH_KNOTS ( ( 4, 4 ),
 ( 3.141592653589793116, 4.712388980384697668 ),
 .UNSPECIFIED. ) 
 CURVE ( )  GEOMETRIC_REPRESENTATION_ITEM ( )  RATIONAL_B_SPLINE_CURVE ( ( 1.000000000000000000, 0.8047378541243631611, 0.8047378541243631611, 1.000000000000000000 ) ) 
 REPRESENTATION_ITEM ( '' )  );
#438 = ORIENTED_EDGE ( 'NONE', *, *, #639, .F. ) ;
#439 = CARTESIAN_POINT ( 'NONE',  ( 29.28932188134503534, -100.0000000000003126, -8.072565511017831967E-11 ) ) ;
#440 = LINE ( 'NONE', #342, #263 ) ;
#441 = EDGE_CURVE ( 'NONE', #483, #530, #177, .T. ) ;
#442 = ORIENTED_EDGE ( 'NONE', *, *, #212, .F. ) ;
#443 = DIRECTION ( 'NONE',  ( 1.000000000000000000, -3.430248998885766964E-15, -2.461271553610159335E-27 ) ) ;
#444 = DIRECTION ( 'NONE',  ( -3.430248998885765387E-15, -1.000000000000000000, -7.175197935804787021E-13 ) ) ;
#445 = DIRECTION ( 'NONE',  ( -0.000000000000000000, -7.175197935804787021E-13, 1.000000000000000000 ) ) ;
#446 = EDGE_CURVE ( 'NONE', #383, #654, #330, .T. ) ;
#447 = CARTESIAN_POINT ( 'NONE',  ( -50.00000000000077449, -79.28932188141692450, 99.99999999993487165 ) ) ;
#448 = CARTESIAN_POINT ( 'NONE',  ( 21.94606981415774882, 29.02073785511838011, -11.97647981197084555 ) ) ;
#449 = DIRECTION ( 'NONE',  ( -0.000000000000000000, -7.175197935804787021E-13, 1.000000000000000000 ) ) ;
#450 = CIRCLE ( 'NONE', #621, 25.00000000000000000 ) ;
#451 = CARTESIAN_POINT ( 'NONE',  ( 19.32435477421134351, 25.88992982813146426, -15.86511017279964086 ) ) ;
#452 = ORIENTED_EDGE ( 'NONE', *, *, #310, .F. ) ;
#453 = CARTESIAN_POINT ( 'NONE',  ( -17.85006891456130518, 25.29560880324979522, 17.51938513532396868 ) ) ;
#454 = CARTESIAN_POINT ( 'NONE',  ( 29.28932188134502823, -99.99999999995827693, -58.57864376277164098 ) ) ;
#455 = ORIENTED_EDGE ( 'NONE', *, *, #251, .F. ) ;
#456 = DIRECTION ( 'NONE',  ( 1.000000000000000000, -3.430248998885766964E-15, -2.461271553610159335E-27 ) ) ;
#457 = CARTESIAN_POINT ( 'NONE',  ( 21.27564410828017571, 27.68888050691098002, -13.14329927627724004 ) ) ;
#458 = ORIENTED_EDGE ( 'NONE', *, *, #7, .F. ) ;
#459 = EDGE_CURVE ( 'NONE', #39, #255, #203, .T. ) ;
#460 = DIRECTION ( 'NONE',  ( 1.000000000000000000, -3.469446951953614189E-15, -2.461246024289556833E-27 ) ) ;
#461 = CARTESIAN_POINT ( 'NONE',  ( -50.00000000000071054, -79.28932188134515968, -6.587145685556486435E-11 ) ) ;
#462 = VECTOR ( 'NONE', #444, 1000.000000000000000 ) ;
#463 = ORIENTED_EDGE ( 'NONE', *, *, #144, .F. ) ;
#464 = ADVANCED_FACE ( 'NONE', ( #591 ), #594, .T. ) ;
#465 = CARTESIAN_POINT ( 'NONE',  ( -50.00000000000051870, -49.99999999999972289, -4.485578866514970738E-11 ) ) ;
#466 = EDGE_LOOP ( 'NONE', ( #657, #309 ) ) ;
#467 = EDGE_CURVE ( 'NONE', #535, #476, #391, .T. ) ;
#468 = CARTESIAN_POINT ( 'NONE',  ( -4.287811248607207479E-13, -100.0000000000000711, -8.072565511017815165E-11 ) ) ;
#469 = CARTESIAN_POINT ( 'NONE',  ( 1.470826024294600376E-28, 24.99999999999999289, 8.964319087381743660E-12 ) ) ;
#470 =( NAMED_UNIT ( * ) PLANE_ANGLE_UNIT ( ) SI_UNIT ( $, .RADIAN. ) );
#471 = EDGE_CURVE ( 'NONE', #488, #513, #24, .T. ) ;
#472 = DIRECTION ( 'NONE',  ( 3.469446951953613400E-15, 1.000000000000000000, 7.174816296640073133E-13 ) ) ;
#473 = PRODUCT_DEFINITION_FORMATION_WITH_SPECIFIED_SOURCE ( 'ANY', '', #262, .NOT_KNOWN. ) ;
#474 = LINE ( 'NONE', #1, #335 ) ;
#475 = CARTESIAN_POINT ( 'NONE',  ( 22.91287847477919826, 25.00000000000713385, -9.999999999991043609 ) ) ;
#476 = VERTEX_POINT ( 'NONE', #531 ) ;
#477 = ORIENTED_EDGE ( 'NONE', *, *, #574, .F. ) ;
#478 = CARTESIAN_POINT ( 'NONE',  ( 21.27870237959139033, 27.69329285425192566, 13.13841407586075505 ) ) ;
#479 = CARTESIAN_POINT ( 'NONE',  ( 15.00000000000000000, 74.99999999999997158, 10.00000000004484235 ) ) ;
#480 = ORIENTED_EDGE ( 'NONE', *, *, #242, .F. ) ;
#481 = CARTESIAN_POINT ( 'NONE',  ( 25.00000000000000000, 24.99999999999995381, -1.417210665662089495E-11 ) ) ;
#482 = PLANE ( 'NONE',  #633 ) ;
#483 = VERTEX_POINT ( 'NONE', #240 ) ;
#484 = AXIS2_PLACEMENT_3D ( 'NONE', #161, #627, #100 ) ;
#485 = DIRECTION ( 'NONE',  ( -3.469446951953613400E-15, -1.000000000000000000, -7.174816296640073133E-13 ) ) ;
#486 = AXIS2_PLACEMENT_3D ( 'NONE', #548, #246, #503 ) ;
#487 = CARTESIAN_POINT ( 'NONE',  ( -17.85739381281545946, 25.29775834434837023, -17.51173008776614282 ) ) ;
#488 = VERTEX_POINT ( 'NONE', #432 ) ;
#489 = DIRECTION ( 'NONE',  ( 1.000000000000000000, -3.469446951953614189E-15, -2.461246024289556833E-27 ) ) ;
#490 = ADVANCED_FACE ( 'NONE', ( #635 ), #232, .T. ) ;
#491 = DIRECTION ( 'NONE',  ( 1.000000000000000000, -3.469446951953614189E-15, -2.461246024289556833E-27 ) ) ;
#492 = DIRECTION ( 'NONE',  ( -1.000000000000000000, 0.000000000000000000, 0.000000000000000000 ) ) ;
#493 = DIRECTION ( 'NONE',  ( -1.000000000000000000, 0.000000000000000000, 0.000000000000000000 ) ) ;
#494 = EDGE_CURVE ( 'NONE', #255, #410, #437, .T. ) ;
#495 = VECTOR ( 'NONE', #15, 1000.000000000000000 ) ;
#496 = DIRECTION ( 'NONE',  ( 3.430248998885765387E-15, 1.000000000000000000, 7.175197935804787021E-13 ) ) ;
#497 = CARTESIAN_POINT ( 'NONE',  ( -16.20484767120686342, 25.03187835769309899, -19.05187649874946842 ) ) ;
#498 = ADVANCED_FACE ( 'NONE', ( #19 ), #75, .T. ) ;
#499 = DIRECTION ( 'NONE',  ( 1.000000000000000000, -3.430248998885766964E-15, -2.461271553610159335E-27 ) ) ;
#500 = DIRECTION ( 'NONE',  ( 3.430248998885765387E-15, 1.000000000000000000, 7.175197935804787021E-13 ) ) ;
#501 = PRODUCT_DEFINITION_SHAPE ( 'NONE', 'NONE',  #96 ) ;
#502 = LINE ( 'NONE', #245, #67 ) ;
#503 = DIRECTION ( 'NONE',  ( 1.000000000000000000, -3.469446951953614189E-15, -2.461246024289556833E-27 ) ) ;
#504 = VERTEX_POINT ( 'NONE', #641 ) ;
#505 =( BOUNDED_SURFACE ( )  B_SPLINE_SURFACE ( 3, 3, ( 
 ( #41, #250, #205, #197 ),
 ( #615, #189, #412, #461 ),
 ( #361, #454, #404, #87 ),
 ( #142, #662, #30, #607 ) ),
 .UNSPECIFIED., .F., .F., .T. ) 
 B_SPLINE_SURFACE_WITH_KNOTS ( ( 4, 4 ),
 ( 4, 4 ),
 ( 0.000000000000000000, 1.000000000000000000 ),
 ( 0.000000000000000000, 1.000000000000000000 ),
 .UNSPECIFIED. ) 
 GEOMETRIC_REPRESENTATION_ITEM ( )  RATIONAL_B_SPLINE_SURFACE ( (
 ( 1.000000000000000000, 0.3333333333333334259, 0.3333333333333334259, 1.000000000000000000),
 ( 0.8047378541243631611, 0.2682459513747877944, 0.2682459513747877944, 0.8047378541243631611),
 ( 0.8047378541243631611, 0.2682459513747877944, 0.2682459513747877944, 0.8047378541243631611),
 ( 1.000000000000000000, 0.3333333333333334259, 0.3333333333333334259, 1.000000000000000000) ) ) 
 REPRESENTATION_ITEM ( '' )  SURFACE ( )  );
#506 = PLANE ( 'NONE',  #155 ) ;
#507 = AXIS2_PLACEMENT_3D ( 'NONE', #138, #299, #393 ) ;
#508 = CARTESIAN_POINT ( 'NONE',  ( 2.941652048589200752E-28, 25.00000000000003908, 8.964319087381772741E-12 ) ) ;
#509 = ORIENTED_EDGE ( 'NONE', *, *, #158, .F. ) ;
#510 = CARTESIAN_POINT ( 'NONE',  ( 2.941652048589200752E-28, 25.00000000000003908, 8.964319087381772741E-12 ) ) ;
#511 = CARTESIAN_POINT ( 'NONE',  ( 20.57138485343702783, 26.83995391331569635, -14.21023912479533280 ) ) ;
#512 = EDGE_CURVE ( 'NONE', #535, #85, #544, .T. ) ;
#513 = VERTEX_POINT ( 'NONE', #646 ) ;
#514 = CARTESIAN_POINT ( 'NONE',  ( -22.06092635451079431, 29.31776698590190122, 11.76290598204008653 ) ) ;
#515 = CARTESIAN_POINT ( 'NONE',  ( 22.75751032677910857, 32.35286391320482124, -10.34914623735716432 ) ) ;
#516 = ORIENTED_EDGE ( 'NONE', *, *, #593, .T. ) ;
#517 = CARTESIAN_POINT ( 'NONE',  ( 22.91287847477954287, 124.9999999999927240, 10.00000000008071943 ) ) ;
#518 = VECTOR ( 'NONE', #241, 1000.000000000000000 ) ;
#519 = VECTOR ( 'NONE', #121, 1000.000000000000000 ) ;
#520 = ORIENTED_EDGE ( 'NONE', *, *, #175, .F. ) ;
#521 = ADVANCED_FACE ( 'NONE', ( #27 ), #178, .T. ) ;
#522 = FACE_OUTER_BOUND ( 'NONE', #663, .T. ) ;
#523 = ORIENTED_EDGE ( 'NONE', *, *, #60, .F. ) ;
#524 = CARTESIAN_POINT ( 'NONE',  ( -15.00000000000000888, 25.00000000001444178, -19.99999999999103650 ) ) ;
#525 = DIRECTION ( 'NONE',  ( 1.000000000000000000, -3.330669073875434911E-15, -2.524354896707211590E-27 ) ) ;
#526 =( NAMED_UNIT ( * ) SI_UNIT ( $, .STERADIAN. ) SOLID_ANGLE_UNIT ( ) );
#527 = CARTESIAN_POINT ( 'NONE',  ( 22.91287847477919826, 24.99999999999269917, 10.00000000000896705 ) ) ;
#528 = ORIENTED_EDGE ( 'NONE', *, *, #310, .T. ) ;
#529 = LINE ( 'NONE', #527, #270 ) ;
#530 = VERTEX_POINT ( 'NONE', #650 ) ;
#531 = CARTESIAN_POINT ( 'NONE',  ( -15.00000000000000000, 74.99999999999279510, 10.00000000004484235 ) ) ;
#532 = DIRECTION ( 'NONE',  ( -3.430248998885765781E-15, -1.000000000000000000, -7.175197935804787021E-13 ) ) ;
#533 = CARTESIAN_POINT ( 'NONE',  ( -25.00000000000013145, 25.00000000000003908, 8.961257470383904337E-12 ) ) ;
#534 = CARTESIAN_POINT ( 'NONE',  ( -22.27187923204697739, 29.95441247919394812, -11.35838197092398438 ) ) ;
#535 = VERTEX_POINT ( 'NONE', #357 ) ;
#536 = EDGE_CURVE ( 'NONE', #306, #370, #450, .T. ) ;
#537 = CARTESIAN_POINT ( 'NONE',  ( 2.941652048589200752E-28, 25.00000000000003908, 8.964319087381772741E-12 ) ) ;
#538 = DIRECTION ( 'NONE',  ( 3.430248998885765387E-15, 1.000000000000000000, 7.175197935804787021E-13 ) ) ;
#539 = DIRECTION ( 'NONE',  ( 0.000000000000000000, -7.175197935804787021E-13, 1.000000000000000000 ) ) ;
#540 = CARTESIAN_POINT ( 'NONE',  ( -22.75941639119817594, 32.36876965075939694, -10.34494073579326034 ) ) ;
#541 = CARTESIAN_POINT ( 'NONE',  ( 22.91287847477923378, 34.99999999998555467, 20.00000000001613998 ) ) ;
#542 = CARTESIAN_POINT ( 'NONE',  ( 1.470826024294600376E-28, 24.99999999999999289, 8.964319087381743660E-12 ) ) ;
#543 = EDGE_CURVE ( 'NONE', #321, #654, #141, .T. ) ;
#544 = CIRCLE ( 'NONE', #632, 15.00000000000000000 ) ;
#545 = CARTESIAN_POINT ( 'NONE',  ( -22.58968930936036301, 31.27763671504236953, 10.71099896340083824 ) ) ;
#546 = CYLINDRICAL_SURFACE ( 'NONE', #77, 15.00000000000000000 ) ;
#547 = CARTESIAN_POINT ( 'NONE',  ( -22.91287847477930839, 34.22846348498587332, 10.00000000001559464 ) ) ;
#548 = CARTESIAN_POINT ( 'NONE',  ( 2.941652048589200752E-28, 25.00000000000003908, 8.964319087381772741E-12 ) ) ;
#549 = ORIENTED_EDGE ( 'NONE', *, *, #184, .F. ) ;
#550 = CARTESIAN_POINT ( 'NONE',  ( -22.91287847477885720, 125.0000000000072475, -9.999999999919285898 ) ) ;
#551 = CARTESIAN_POINT ( 'NONE',  ( 19.97787803032765908, 26.31481471991861198, -15.03353059809934678 ) ) ;
#552 = ORIENTED_EDGE ( 'NONE', *, *, #199, .T. ) ;
#553 = ADVANCED_FACE ( 'NONE', ( #602, #86 ), #145, .F. ) ;
#554 = CARTESIAN_POINT ( 'NONE',  ( -21.27564410828015440, 27.68888050689225366, 13.14329927629902883 ) ) ;
#555 = MECHANICAL_DESIGN_GEOMETRIC_PRESENTATION_REPRESENTATION (  '', ( #590 ), #333 ) ;
#556 = FACE_OUTER_BOUND ( 'NONE', #322, .T. ) ;
#557 = CIRCLE ( 'NONE', #165, 25.00000000000000000 ) ;
#558 = EDGE_LOOP ( 'NONE', ( #265, #33, #325, #176 ) ) ;
#559 = CARTESIAN_POINT ( 'NONE',  ( -18.60793477367401394, 25.55591061411536558, 16.69979692698478502 ) ) ;
#560 = CARTESIAN_POINT ( 'NONE',  ( 15.00000000000000888, 25.00000000001433875, -19.99999999999103650 ) ) ;
#561 = ORIENTED_EDGE ( 'NONE', *, *, #494, .F. ) ;
#562 = DIRECTION ( 'NONE',  ( 1.000000000000000000, 0.000000000000000000, 0.000000000000000000 ) ) ;
#563 = DIRECTION ( 'NONE',  ( 1.000000000000000000, -3.430248998885768148E-15, -2.461271553610160053E-27 ) ) ;
#564 = ORIENTED_EDGE ( 'NONE', *, *, #639, .T. ) ;
#565 = DIRECTION ( 'NONE',  ( 1.000000000000000000, -3.469446951953596045E-15, -2.524354896707224504E-27 ) ) ;
#566 = LINE ( 'NONE', #211, #99 ) ;
#567 = VECTOR ( 'NONE', #324, 1000.000000000000000 ) ;
#568 = VERTEX_POINT ( 'NONE', #31 ) ;
#569 = ADVANCED_FACE ( 'NONE', ( #253 ), #506, .T. ) ;
#570 = B_SPLINE_CURVE_WITH_KNOTS ( 'NONE', 3,
 ( #249, #352, #243, #196, #453, #559, #341, #345, #403, #200, #92, #606, #599, #554, #29, #307, #514, #661, #188, #596, #545, #80, #395, #135, #547, #83 ),
 .UNSPECIFIED., .F., .F.,
 ( 4, 2, 2, 2, 2, 2, 2, 2, 2, 2, 2, 2, 4 ),
 ( 4.906538933386798937E-18, 0.002271251611878897982, 0.004542503223757791628, 0.005678129029697242570, 0.006813754835636692646, 0.007949380641576140119, 0.009085006447515586725, 0.01135625805939448514, 0.01249188386533392654, 0.01362750967127337315, 0.01476313547721281802, 0.01589876128315225942, 0.01817001289503112488 ),
 .UNSPECIFIED. ) ;
#571 = DIRECTION ( 'NONE',  ( 3.430248998885765387E-15, 1.000000000000000000, 7.175197935804787021E-13 ) ) ;
#572 = DIRECTION ( 'NONE',  ( 0.000000000000000000, -7.175197935804787021E-13, 1.000000000000000000 ) ) ;
#573 = PLANE ( 'NONE',  #378 ) ;
#574 = EDGE_CURVE ( 'NONE', #370, #306, #34, .T. ) ;
#575 = CARTESIAN_POINT ( 'NONE',  ( -50.00000000000051870, -49.99999999999972289, -4.485578866514970738E-11 ) ) ;
#576 = EDGE_CURVE ( 'NONE', #513, #160, #570, .T. ) ;
#577 = DIRECTION ( 'NONE',  ( 3.430248998885765781E-15, 1.000000000000000000, 7.175197935804787021E-13 ) ) ;
#578 = B_SPLINE_CURVE_WITH_KNOTS ( 'NONE', 3,
 ( #610, #296, #32, #603, #147, #139, #350, #359, #316, #271, #208, #276, #478, #427, #152, #311, #624, #620, #423, #163, #107, #102, #44, #416 ),
 .UNSPECIFIED., .F., .F.,
 ( 4, 2, 2, 2, 2, 2, 2, 2, 2, 2, 2, 4 ),
 ( 0.000000000000000000, 0.002277627136900123566, 0.003416440705350196408, 0.004555254273800269683, 0.005694067842250342092, 0.006832881410700415367, 0.009110508547600561918, 0.01024932211605063606, 0.01138813568450070847, 0.01366576282140084982, 0.01594338995830099290, 0.01822101709520113078 ),
 .UNSPECIFIED. ) ;
#579 = CARTESIAN_POINT ( 'NONE',  ( 15.00000000000000000, 74.99999999999997158, -9.999999999955161201 ) ) ;
#580 = EDGE_LOOP ( 'NONE', ( #301, #227, #6, #463, #312, #285 ) ) ;
#581 = DIRECTION ( 'NONE',  ( 1.000000000000000000, -3.469446951953596045E-15, -2.461246024289543919E-27 ) ) ;
#582 = EDGE_CURVE ( 'NONE', #383, #10, #502, .T. ) ;
#583 = EDGE_LOOP ( 'NONE', ( #97, #401, #480, #272, #46, #68, #14, #424, #586, #351 ) ) ;
#584 = ORIENTED_EDGE ( 'NONE', *, *, #290, .F. ) ;
#585 = CARTESIAN_POINT ( 'NONE',  ( 4.412478072883800904E-28, -49.99999999999993605, -4.484966543115411598E-11 ) ) ;
#586 = ORIENTED_EDGE ( 'NONE', *, *, #407, .F. ) ;
#587 = DIRECTION ( 'NONE',  ( 3.430248998885766964E-15, 1.000000000000000000, 7.175197935804787021E-13 ) ) ;
#588 = DIRECTION ( 'NONE',  ( -3.430248998885766964E-15, -1.000000000000000000, -7.175197935804787021E-13 ) ) ;
#589 = EDGE_LOOP ( 'NONE', ( #57, #180, #561 ) ) ;
#590 = STYLED_ITEM ( 'NONE', ( #48 ), #314 ) ;
#591 = FACE_OUTER_BOUND ( 'NONE', #148, .T. ) ;
#592 = DIRECTION ( 'NONE',  ( -1.000000000000000000, 3.430248998885767753E-15, 2.461271553610160053E-27 ) ) ;
#593 = EDGE_CURVE ( 'NONE', #355, #654, #399, .T. ) ;
#594 = CYLINDRICAL_SURFACE ( 'NONE', #422, 25.00000000000013145 ) ;
#595 = CARTESIAN_POINT ( 'NONE',  ( -22.91287847477885720, 124.9999999999928946, 10.00000000008071943 ) ) ;
#596 = CARTESIAN_POINT ( 'NONE',  ( -22.52043955241049034, 30.93381744106357800, 10.85647049757625915 ) ) ;
#597 = CARTESIAN_POINT ( 'NONE',  ( -20.57467106829687964, 26.84335771785668712, -14.20546664219655142 ) ) ;
#598 = VECTOR ( 'NONE', #563, 1000.000000000000000 ) ;
#599 = CARTESIAN_POINT ( 'NONE',  ( -20.75723747140104081, 27.04038870230442271, 13.93689095810925416 ) ) ;
#600 = CARTESIAN_POINT ( 'NONE',  ( 22.87501038207026838, 33.47028930521526036, -10.08812750135898639 ) ) ;
#601 = EDGE_LOOP ( 'NONE', ( #608, #477, #509, #326 ) ) ;
#602 = FACE_BOUND ( 'NONE', #466, .T. ) ;
#603 = CARTESIAN_POINT ( 'NONE',  ( 22.75941639119821502, 32.36876965074437607, 10.34494073582176910 ) ) ;
#604 = EDGE_LOOP ( 'NONE', ( #234, #143, #442, #91, #644, #549 ) ) ;
#605 = EDGE_CURVE ( 'NONE', #10, #160, #474, .T. ) ;
#606 = CARTESIAN_POINT ( 'NONE',  ( -20.57138485343700651, 26.83995391329543523, 14.21023912481589768 ) ) ;
#607 = CARTESIAN_POINT ( 'NONE',  ( -4.531890240421758963E-13, -100.0000000000000711, -8.072565511017813873E-11 ) ) ;
#608 = ORIENTED_EDGE ( 'NONE', *, *, #298, .F. ) ;
#609 = DIRECTION ( 'NONE',  ( 3.430248998885765387E-15, 1.000000000000000000, 7.175197935804787021E-13 ) ) ;
#610 = CARTESIAN_POINT ( 'NONE',  ( 22.91287847477923378, 34.99999999999273115, 10.00000000001647038 ) ) ;
#611 = CIRCLE ( 'NONE', #167, 25.00000000000025935 ) ;
#612 = ORIENTED_EDGE ( 'NONE', *, *, #260, .T. ) ;
#613 =( NAMED_UNIT ( * ) PLANE_ANGLE_UNIT ( ) SI_UNIT ( $, .RADIAN. ) );
#614 = ADVANCED_FACE ( 'NONE', ( #363 ), #418, .F. ) ;
#615 = CARTESIAN_POINT ( 'NONE',  ( 50.00000000000000711, -79.28932188134552916, -6.586533362156938926E-11 ) ) ;
#616 = EDGE_LOOP ( 'NONE', ( #458, #612, #281 ) ) ;
#617 = DIRECTION ( 'NONE',  ( 0.000000000000000000, 0.000000000000000000, 1.000000000000000000 ) ) ;
#618 = LINE ( 'NONE', #517, #567 ) ;
#619 = PLANE ( 'NONE',  #226 ) ;
#620 = CARTESIAN_POINT ( 'NONE',  ( 19.33742586661120555, 25.87530874413042881, 15.86053888645937882 ) ) ;
#621 = AXIS2_PLACEMENT_3D ( 'NONE', #510, #609, #460 ) ;
#622 = AXIS2_PLACEMENT_3D ( 'NONE', #113, #617, #562 ) ;
#623 = CARTESIAN_POINT ( 'NONE',  ( 22.91287847477923378, 35.00000000001425349, -19.99999999998386002 ) ) ;
#624 = CARTESIAN_POINT ( 'NONE',  ( 19.98204773229094755, 26.31794645982821734, 15.02800557803885795 ) ) ;
#625 = ORIENTED_EDGE ( 'NONE', *, *, #144, .T. ) ;
#626 = EDGE_CURVE ( 'NONE', #483, #568, #248, .T. ) ;
#627 = DIRECTION ( 'NONE',  ( -0.000000000000000000, -7.175197935804787021E-13, 1.000000000000000000 ) ) ;
#628 = CARTESIAN_POINT ( 'NONE',  ( 22.91287847477954287, 124.9999999999927240, 10.00000000008071943 ) ) ;
#629 = VERTEX_POINT ( 'NONE', #371 ) ;
#630 = DIRECTION ( 'NONE',  ( 1.000000000000000000, -3.430248998885767753E-15, -2.461271553610160053E-27 ) ) ;
#631 = DIRECTION ( 'NONE',  ( 1.000000000000000000, -3.430248998885765781E-15, -2.461271553610158618E-27 ) ) ;
#632 = AXIS2_PLACEMENT_3D ( 'NONE', #337, #539, #72 ) ;
#633 = AXIS2_PLACEMENT_3D ( 'NONE', #585, #588, #340 ) ;
#634 = ORIENTED_EDGE ( 'NONE', *, *, #162, .F. ) ;
#635 = FACE_OUTER_BOUND ( 'NONE', #583, .T. ) ;
#636 = CARTESIAN_POINT ( 'NONE',  ( 22.91287847477919826, 24.99999999999269917, 10.00000000000896705 ) ) ;
#637 = CARTESIAN_POINT ( 'NONE',  ( 50.00000000000000711, -79.28932188134552916, -6.586533362156940219E-11 ) ) ;
#638 = FACE_OUTER_BOUND ( 'NONE', #616, .T. ) ;
#639 = EDGE_CURVE ( 'NONE', #255, #39, #191, .T. ) ;
#640 = ORIENTED_EDGE ( 'NONE', *, *, #626, .F. ) ;
#641 = CARTESIAN_POINT ( 'NONE',  ( 22.91287847477919826, 25.00000000000713385, -9.999999999991043609 ) ) ;
#642 = CARTESIAN_POINT ( 'NONE',  ( -21.57362388879411697, 28.18874439513710684, -12.64297035139057712 ) ) ;
#643 = AXIS2_PLACEMENT_3D ( 'NONE', #156, #572, #492 ) ;
#644 = ORIENTED_EDGE ( 'NONE', *, *, #106, .T. ) ;
#645 = CIRCLE ( 'NONE', #344, 25.00000000000000000 ) ;
#646 = CARTESIAN_POINT ( 'NONE',  ( -15.00000000000000888, 24.99999999998573941, 20.00000000000896705 ) ) ;
#647 = DIRECTION ( 'NONE',  ( -3.430248998885765387E-15, -1.000000000000000000, -7.175197935804787021E-13 ) ) ;
#648 = CARTESIAN_POINT ( 'NONE',  ( -50.00000000000052580, -50.00000000007148770, 99.99999999995564792 ) ) ;
#649 = CARTESIAN_POINT ( 'NONE',  ( -21.95089266265162564, 29.03248567421402626, -11.96765633124804573 ) ) ;
#650 = CARTESIAN_POINT ( 'NONE',  ( -25.00000000000000000, 25.00000000000012790, -1.417516827361855333E-11 ) ) ;
#651 = CARTESIAN_POINT ( 'NONE',  ( 22.06092635451082984, 29.31776698591863095, -11.76290598201596360 ) ) ;
#652 = CARTESIAN_POINT ( 'NONE',  ( -29.28932188134591641, -100.0000000000001990, -8.072924201760737034E-11 ) ) ;
#653 = CARTESIAN_POINT ( 'NONE',  ( 22.35992858663846405, 30.26669223910271711, -11.18332432232816309 ) ) ;
#654 = VERTEX_POINT ( 'NONE', #268 ) ;
#655 = DIRECTION ( 'NONE',  ( -3.430248998885765387E-15, -1.000000000000000000, -7.175197935804787021E-13 ) ) ;
#656 = CARTESIAN_POINT ( 'NONE',  ( 18.85442750627084507, 25.65761888206326446, -16.42080910446946262 ) ) ;
#657 = ORIENTED_EDGE ( 'NONE', *, *, #512, .T. ) ;
#658 = CARTESIAN_POINT ( 'NONE',  ( 50.00000000000000711, -79.28932188141727977, 99.99999999993491429 ) ) ;
#659 = CARTESIAN_POINT ( 'NONE',  ( 21.56979733736470806, 28.18216272553399193, -12.64942839513184580 ) ) ;
#660 = VERTEX_POINT ( 'NONE', #8 ) ;
#661 = CARTESIAN_POINT ( 'NONE',  ( -22.26867111368012786, 29.94338858843589790, 11.36471361681466163 ) ) ;
#662 = CARTESIAN_POINT ( 'NONE',  ( -4.043732256792656500E-13, -100.0000000000000711, -8.077447090854106811E-11 ) ) ;
#663 = EDGE_LOOP ( 'NONE', ( #625, #274, #380, #252 ) ) ;
#664 = CARTESIAN_POINT ( 'NONE',  ( 22.91287847477923378, 35.00000000000708411, -9.999999999983861798 ) ) ;
#665 = EDGE_LOOP ( 'NONE', ( #523, #640 ) ) ;
ENDSEC;
END-ISO-10303-21;
